# 3ds Max Wavefront OBJ Exporter v0.97b - (c)2007 guruware
# File Created: 21.12.2017 02:44:08

mtllib B3_rd_pian.mtl

#
# object B3_rd_pian
#

v  872.5822 101.0639 -1009.3149
v  -979.5740 101.0639 -1009.3149
v  -979.5740 101.0639 1242.7256
v  872.5822 101.0639 1242.7256
# 4 vertices

vn 0.0000 1.0000 -0.0000
# 1 vertex normals

vt 0.9999 0.9994 0.5000
vt 0.0001 0.9994 0.5000
vt 0.0001 0.0000 0.5000
vt 0.9999 0.0000 0.5000
# 4 texture coords

g B3_rd_pian
usemtl Material__7
s 1
f 1/1/1 2/2/1 3/3/1 4/4/1 
# 1 polygons

