# 3ds Max Wavefront OBJ Exporter v0.97b - (c)2007 guruware
# File Created: 21.12.2017 02:51:24

mtllib B3_xfs_pian.mtl

#
# object B3_xfs_pian
#

v  1316.6172 101.0639 -996.2627
v  -929.9564 101.0639 -996.2627
v  -929.9564 101.0639 1277.2625
v  1316.6172 101.0639 1277.2625
# 4 vertices

vn 0.0000 1.0000 -0.0000
# 1 vertex normals

vt 0.9995 0.9993 0.5000
vt 0.0002 0.9993 0.5000
vt 0.0002 0.0000 0.5000
vt 0.9995 0.0000 0.5000
# 4 texture coords

g B3_xfs_pian
usemtl Material__9
s 1
f 1/1/1 2/2/1 3/3/1 4/4/1 
# 1 polygons

