# 3ds Max Wavefront OBJ Exporter v0.97b - (c)2007 guruware
# File Created: 24.01.2018 18:22:06

mtllib B3A_T_tujian_004_lv_xfjf1.mtl

#
# object B3A_T_tujian_004_lv_xfjf1
#

v  404.0685 129.0089 838.5611
v  423.9136 129.0089 838.5611
v  423.9136 172.9514 838.5611
v  404.0685 172.9514 838.5611
v  423.9136 129.0089 833.8365
v  423.9136 172.9514 833.8365
v  404.0685 172.9514 833.8365
v  404.0685 129.0089 833.8365
v  322.7982 129.0089 847.0659
v  322.7982 129.0089 882.0311
v  322.7982 172.9514 882.0311
v  322.7982 172.9514 847.0659
v  327.5227 129.0089 882.0311
v  327.5227 172.9515 882.0311
v  327.5227 172.9514 847.0659
v  327.5227 129.0089 847.0659
# 16 vertices

vn 0.0000 0.0000 1.0000
vn 1.0000 0.0000 -0.0000
vn -1.0000 0.0000 -0.0000
vn 0.0000 1.0000 -0.0000
vn 0.0000 0.0000 -1.0000
vn -0.0000 1.0000 -0.0000
# 6 vertex normals

vt 0.3912 0.5823 1.0000
vt 0.5974 0.5823 1.0000
vt 0.5974 0.9998 1.0000
vt 0.3912 0.9998 1.0000
vt 0.4098 0.7910 -0.0000
vt 0.4098 0.7910 1.0000
vt 0.5974 0.5823 -0.0000
vt 0.3912 0.5823 -0.0000
vt 0.3912 0.9998 -0.0000
vt 0.5974 0.9998 -0.0000
vt 0.0004 0.5823 1.0000
vt 0.3903 0.5823 1.0000
vt 0.3903 0.9998 1.0000
vt 0.0004 0.9998 1.0000
vt 0.0354 0.7910 -0.0000
vt 0.0354 0.7910 1.0000
vt 0.3903 0.5823 -0.0000
vt 0.0004 0.5823 -0.0000
vt 0.0004 0.9998 -0.0000
vt 0.3903 0.9998 -0.0000
# 20 texture coords

g B3A_T_tujian_004_lv_xfjf1
usemtl T_tujian_004
s 1
f 1/1/1 2/2/1 3/3/1 4/4/1 
s off
f 5/5/2 6/5/2 3/6/2 2/6/2 
f 7/5/3 8/5/3 1/6/3 4/6/3 
f 6/5/4 7/5/4 4/6/4 3/6/4 
f 5/7/5 8/8/5 7/9/5 6/10/5 
s 1
f 9/11/3 10/12/3 11/13/3 12/14/3 
s off
f 13/15/1 14/15/1 11/16/1 10/16/1 
f 15/15/5 16/15/5 9/16/5 12/16/5 
f 14/15/6 15/15/6 12/16/6 11/16/6 
f 13/17/2 16/18/2 15/19/2 14/20/2 
# 10 polygons

