# 3ds Max Wavefront OBJ Exporter v0.97b - (c)2007 guruware
# File Created: 24.01.2018 18:20:25

mtllib B3A_T_tujian_004_lv.mtl

#
# object B3A_T_tujian_004_lv
#

v  -969.0166 132.7888 -992.8491
v  -969.0166 132.7888 -973.0034
v  -969.0166 172.9513 -973.0034
v  -969.0166 172.9513 -992.8491
v  -964.2921 132.7888 -973.0034
v  -964.2921 172.9514 -973.0034
v  -964.2921 172.9513 -992.8491
v  -964.2921 132.7888 -992.8491
v  -969.0168 132.7888 -1044.8240
v  -969.0168 132.7888 -1024.9785
v  -969.0168 172.9514 -1024.9785
v  -969.0168 172.9514 -1044.8240
v  -964.2924 132.7888 -1024.9785
v  -964.2924 172.9514 -1024.9785
v  -964.2924 172.9514 -1044.8240
v  -964.2924 132.7888 -1044.8240
v  -993.1144 128.6309 -358.2810
v  -993.1144 128.6309 -386.6312
v  -1021.4644 128.6309 -386.6312
v  -1021.4644 128.6309 -358.2810
v  -933.4229 129.0089 -643.1991
v  -933.4229 129.0089 -608.2340
v  -933.4229 172.9514 -608.2340
v  -933.4229 172.9514 -643.1991
v  -928.6982 129.0089 -608.2340
v  -928.6982 172.9514 -608.2340
v  -928.6982 172.9514 -643.1991
v  -928.6982 129.0089 -643.1991
v  -933.4226 129.0089 -384.2688
v  -933.4226 129.0089 -364.4233
v  -933.4227 172.9514 -364.4233
v  -933.4227 172.9514 -384.2688
v  -931.2170 129.0089 -364.4233
v  -931.2170 172.9514 -364.4233
v  -931.2170 172.9514 -384.2688
v  -931.2170 129.0089 -384.2688
v  -1015.6053 109.7999 -523.4010
v  -1015.6053 129.7737 -518.1470
v  -1015.6053 129.9344 -563.3796
v  -1015.6053 109.7999 -563.3796
v  -1015.6053 182.8506 -388.3274
v  -1015.6053 200.8289 -381.7388
v  -1015.6053 182.8506 -347.8865
v  -1015.6053 200.8289 -347.8865
v  -957.3932 129.9344 -563.3796
v  -957.3932 109.7999 -563.3796
v  -957.3932 182.8506 -388.3274
v  -957.3932 182.8506 -347.8865
v  -957.3932 200.8289 -347.8865
v  -957.3932 129.7737 -518.1470
v  -957.3932 200.8289 -381.7388
v  -957.3932 109.7999 -523.4010
v  -1015.6055 198.9389 -363.0062
v  -1015.6055 204.6089 -363.0062
v  -1015.6055 204.6089 -378.0808
v  -1015.6055 198.9389 -378.0808
v  -1015.6053 132.7889 -548.2595
v  -1015.6053 127.1189 -548.2595
v  -1015.6055 127.2181 -520.0792
v  -1015.6055 132.7889 -522.1082
v  -1015.6055 133.2380 -518.4502
v  -1015.6055 128.0062 -516.0990
v  -1015.6055 134.5587 -515.0098
v  -1015.6055 129.5524 -512.3480
v  -1015.6055 197.1690 -385.1792
v  -1015.6055 203.0402 -386.0035
v  -1015.6055 204.2129 -382.1190
v  -1015.6055 198.4897 -381.7388
v  -1010.5023 127.1189 -548.2595
v  -1010.5023 132.7889 -548.2595
v  -1010.5023 132.7889 -522.1082
v  -1010.5023 127.2181 -520.0792
v  -1010.5023 128.0062 -516.0990
v  -1010.5023 129.5524 -512.3480
v  -1010.5023 133.2380 -518.4502
v  -1010.5023 134.5587 -515.0098
v  -1010.5023 197.1690 -385.1792
v  -1010.5023 198.4897 -381.7388
v  -1010.5023 198.9389 -363.0062
v  -1010.5023 198.9389 -378.0808
v  -1010.5023 203.0402 -386.0034
v  -1010.5023 204.2129 -382.1190
v  -1010.5023 204.6089 -378.0808
v  -1010.5023 204.6089 -363.0062
v  -981.3962 127.2181 -520.0792
v  -981.3962 127.1189 -548.2595
v  -981.3962 132.7889 -548.2595
v  -981.3962 132.7889 -522.1082
v  -981.3962 133.2380 -518.4502
v  -981.3962 128.0062 -516.0990
v  -981.3964 204.6089 -378.0808
v  -981.3964 204.6089 -363.0062
v  -981.3964 198.9389 -363.0062
v  -981.3964 198.9389 -378.0808
v  -981.3964 198.4897 -381.7388
v  -981.3964 204.2129 -382.1190
v  -981.3964 197.1690 -385.1792
v  -981.3964 203.0402 -386.0034
v  -981.3962 134.5587 -515.0098
v  -981.3962 129.5524 -512.3480
v  -991.6024 127.1189 -548.2595
v  -991.6024 132.7889 -548.2595
v  -991.6024 132.7889 -522.1082
v  -991.6024 127.2181 -520.0792
v  -991.6024 128.0062 -516.0990
v  -991.6024 129.5524 -512.3480
v  -991.6024 133.2380 -518.4502
v  -991.6024 134.5587 -515.0098
v  -991.6024 197.1690 -385.1792
v  -991.6024 198.4897 -381.7388
v  -991.6024 198.9389 -363.0062
v  -991.6024 198.9389 -378.0808
v  -991.6024 203.0402 -386.0034
v  -991.6024 204.2129 -382.1190
v  -991.6024 204.6089 -378.0808
v  -991.6024 204.6089 -363.0062
v  -962.4963 198.9389 -363.0062
v  -962.4963 204.6089 -363.0062
v  -962.4963 204.6089 -378.0808
v  -962.4963 198.9389 -378.0808
v  -962.4962 132.7889 -548.2595
v  -962.4962 127.1189 -548.2595
v  -962.4962 127.2181 -520.0792
v  -962.4962 132.7889 -522.1082
v  -962.4962 133.2380 -518.4502
v  -962.4962 128.0062 -516.0990
v  -962.4962 134.5587 -515.0098
v  -962.4962 129.5524 -512.3480
v  -962.4963 197.1690 -385.1792
v  -962.4963 203.0402 -386.0034
v  -962.4963 204.2129 -382.1190
v  -962.4963 198.4897 -381.7388
v  -957.3932 127.1189 -548.2595
v  -957.3932 132.7889 -548.2595
v  -957.3932 132.7889 -522.1082
v  -957.3932 127.2181 -520.0792
v  -957.3932 128.0062 -516.0990
v  -957.3932 129.5524 -512.3480
v  -957.3932 133.2380 -518.4502
v  -957.3932 134.5587 -515.0098
v  -957.3932 197.1690 -385.1792
v  -957.3932 198.4897 -381.7388
v  -957.3932 198.9389 -363.0062
v  -957.3932 198.9389 -378.0808
v  -957.3932 203.0402 -386.0034
v  -957.3932 204.2129 -382.1190
v  -957.3932 204.6089 -378.0808
v  -957.3932 204.6089 -363.0062
v  -648.9410 172.9514 889.9690
v  -668.7863 172.9514 889.9690
v  -668.7863 129.0089 889.9690
v  -648.9410 129.0089 889.9690
v  -648.9410 129.0089 885.2445
v  -648.9410 172.9514 885.2445
v  -668.7863 172.9514 885.2445
v  -668.7863 129.0089 885.2445
v  -709.1416 129.0088 653.3411
v  -709.1416 129.0088 673.1863
v  -709.1416 172.9514 673.1863
v  -709.1416 172.9514 653.3411
v  -704.4172 129.0088 673.1863
v  -704.4172 172.9514 673.1863
v  -704.4172 172.9514 653.3411
v  -704.4172 129.0088 653.3411
v  -709.1416 129.0088 557.6960
v  -709.1416 129.0088 577.5411
v  -709.1416 172.9513 577.5411
v  -709.1416 172.9513 557.6960
v  -704.4172 129.0088 577.5411
v  -704.4172 172.9514 577.5411
v  -704.4172 172.9513 557.6960
v  -704.4172 129.0088 557.6960
v  -817.9717 129.0089 466.9761
v  -817.9717 129.0089 501.9411
v  -817.9717 172.9514 501.9411
v  -817.9717 172.9514 466.9761
v  -813.2471 129.0089 501.9411
v  -813.2471 172.9514 501.9411
v  -813.2471 172.9514 466.9761
v  -813.2471 129.0089 466.9761
v  492.8977 129.0089 838.5613
v  522.1927 129.0089 838.5613
v  522.1927 172.9515 838.5613
v  492.8977 172.9515 838.5613
v  522.1927 129.0090 833.8367
v  522.1927 172.9515 833.8367
v  492.8977 172.9515 833.8367
v  492.8977 129.0089 833.8367
v  528.8085 129.0089 848.4836
v  528.8085 129.0089 877.7787
v  528.8085 172.9514 877.7787
v  528.8085 172.9514 848.4836
v  533.5328 129.0089 877.7787
v  533.5328 172.9515 877.7787
v  533.5328 172.9515 848.4836
v  533.5328 129.0089 848.4836
v  -524.8668 132.7889 1188.2994
v  -524.8668 132.7889 1208.1445
v  -524.8668 172.9514 1208.1445
v  -524.8668 172.9514 1188.2994
v  -520.1423 132.7889 1208.1445
v  -520.1423 172.9514 1208.1445
v  -520.1423 172.9514 1188.2994
v  -520.1423 132.7889 1188.2994
v  -524.8668 132.7889 1246.8010
v  -524.8668 132.7889 1266.6460
v  -524.8668 172.9514 1266.6460
v  -524.8668 172.9514 1246.8010
v  -520.1423 132.7889 1266.6460
v  -520.1423 172.9514 1266.6460
v  -520.1423 172.9514 1246.8010
v  -520.1423 132.7889 1246.8010
v  430.0558 123.3390 197.3785
v  430.0558 123.3390 159.5787
v  392.2556 123.3390 159.5787
v  392.2556 123.3390 197.3785
v  777.8156 123.3579 155.7991
v  777.8156 123.3579 117.9990
v  740.0153 123.3579 117.9990
v  740.0153 123.3579 155.7991
v  729.1483 132.7888 33.4219
v  748.9934 132.7888 33.4219
v  748.9934 172.9514 33.4219
v  729.1483 172.9514 33.4219
v  748.9934 132.7888 28.6974
v  748.9934 172.9514 28.6974
v  729.1483 172.9514 28.6974
v  729.1483 132.7888 28.6974
v  813.2533 129.0088 32.4766
v  813.2533 129.0088 52.3217
v  813.2533 172.9514 52.3217
v  813.2533 172.9514 32.4766
v  817.9779 129.0088 52.3217
v  817.9779 172.9514 52.3217
v  817.9779 172.9514 32.4766
v  817.9779 129.0088 32.4766
v  813.2533 132.7890 79.7256
v  813.2533 132.7890 99.5708
v  813.2533 172.9514 99.5708
v  813.2533 172.9514 79.7256
v  817.9779 132.7890 99.5708
v  817.9779 172.9514 99.5708
v  817.9779 172.9514 79.7256
v  817.9779 132.7890 79.7256
v  813.2533 132.7888 125.0863
v  813.2533 132.7888 144.9313
v  813.2533 176.7314 144.9313
v  813.2533 176.7314 125.0863
v  817.9779 132.7888 144.9313
v  817.9779 176.7314 144.9313
v  817.9779 176.7314 125.0863
v  817.9779 132.7888 125.0863
v  687.5681 129.0089 202.5762
v  722.5332 129.0089 202.5762
v  722.5332 172.9514 202.5762
v  687.5681 172.9514 202.5762
v  722.5332 129.0089 197.8513
v  722.5332 172.9514 197.8513
v  687.5681 172.9514 197.8513
v  687.5681 129.0089 197.8513
v  387.0585 129.0089 67.7673
v  387.0585 129.0089 102.7324
v  387.0585 172.9514 102.7323
v  387.0585 172.9514 67.7673
v  391.7831 129.0089 102.7324
v  391.7831 172.9514 102.7323
v  391.7831 172.9514 67.7673
v  391.7831 129.0089 67.7673
v  322.7982 129.0089 82.5540
v  322.7982 129.0089 117.5192
v  322.7982 172.9514 117.5192
v  322.7982 172.9514 82.5540
v  327.5229 129.0089 117.5192
v  327.5229 172.9514 117.5192
v  327.5229 172.9514 82.5540
v  327.5229 129.0089 82.5540
v  641.2633 129.0089 33.4215
v  655.4382 129.0089 33.4215
v  655.4382 172.9514 33.4215
v  641.2633 172.9514 33.4215
v  655.4382 129.0089 28.6971
v  655.4382 172.9514 28.6971
v  641.2633 172.9514 28.6971
v  641.2633 129.0089 28.6971
v  341.6982 151.6889 141.4347
v  341.6982 149.7989 141.4347
v  339.8082 149.7989 141.4347
v  339.8082 151.6889 141.4347
v  339.8082 151.6889 141.6237
v  341.6982 151.6889 141.6237
v  339.8082 149.7989 141.6237
v  341.6982 149.7989 141.6237
v  345.9508 129.0089 145.4036
v  372.4109 129.0089 145.4037
v  372.4109 176.2589 145.4037
v  345.9508 176.2589 145.4036
v  372.4109 129.0089 141.6237
v  345.9508 129.0089 141.6237
v  345.9508 176.2589 141.6237
v  372.4109 176.2589 141.6237
v  -622.2021 129.0089 -51.6208
v  -622.2021 129.0089 -16.6555
v  -622.2021 172.9514 -16.6555
v  -622.2021 172.9514 -51.6208
v  -617.4775 129.0089 -16.6555
v  -617.4775 172.9514 -16.6555
v  -617.4775 172.9514 -51.6208
v  -617.4775 129.0089 -51.6208
v  -630.7071 151.6889 -69.8698
v  -632.5972 151.6889 -69.8698
v  -632.5972 149.7989 -69.8698
v  -630.7071 149.7989 -69.8698
v  -630.7071 151.6889 -70.0590
v  -632.5972 151.6889 -70.0590
v  -632.5972 149.7989 -70.0590
v  -630.7071 149.7989 -70.0590
v  -663.3095 129.0089 -70.0587
v  -636.8495 129.0089 -70.0587
v  -636.8495 176.2589 -70.0587
v  -663.3095 176.2589 -70.0587
v  -636.8495 129.0089 -73.8386
v  -663.3095 129.0089 -73.8385
v  -663.3095 176.2589 -73.8385
v  -636.8495 176.2589 -73.8386
v  -838.9260 123.3579 443.7402
v  -848.6223 123.3579 417.0999
v  -875.2626 123.3579 426.7963
v  -865.5663 123.3579 453.4365
# 328 vertices

vn -1.0000 0.0000 -0.0000
vn 0.0000 0.0000 1.0000
vn 0.0000 0.0000 -1.0000
vn -0.0000 1.0000 -0.0000
vn 1.0000 0.0000 -0.0000
vn 0.0000 1.0000 -0.0000
vn -1.0000 -0.0000 -0.0000
vn 0.0000 -1.0000 -0.0000
vn 0.0000 1.0000 0.0036
vn 0.0000 1.0000 0.0000
vn 0.0000 0.8869 -0.4620
vn 1.0000 -0.0000 -0.0000
vn 1.0000 -0.0000 0.0000
vn 0.0000 -1.0000 0.0035
vn 0.0000 -0.9810 0.1942
vn 0.0000 -0.9245 0.3811
vn 0.0000 0.9925 -0.1219
vn -0.0000 0.9336 -0.3584
vn 0.0000 -0.8829 0.4695
vn 0.0000 -0.9336 0.3584
vn 0.0000 -0.9925 0.1219
vn 0.0000 0.8833 -0.4689
vn 0.0000 0.9573 -0.2890
vn 0.0000 0.9952 -0.0976
vn 1.0000 0.0000 0.0000
vn 0.0000 0.9336 -0.3584
vn -0.0000 -1.0000 -0.0000
vn -0.0000 -0.9925 0.1219
vn -0.0000 0.9952 -0.0976
vn -0.0000 0.0000 1.0000
vn -0.0000 0.0000 -1.0000
# 31 vertex normals

vt 0.3912 0.5823 1.0000
vt 0.5974 0.5823 1.0000
vt 0.5974 0.9998 1.0000
vt 0.3912 0.9998 1.0000
vt 0.4098 0.7910 -0.0000
vt 0.4098 0.7910 1.0000
vt 0.5974 0.5823 -0.0000
vt 0.3912 0.5823 -0.0000
vt 0.3912 0.9998 -0.0000
vt 0.5974 0.9998 -0.0000
vt 0.1724 0.0016 0.5000
vt 0.1724 0.3201 0.5000
vt 0.4335 0.3201 0.5000
vt 0.4335 0.0016 0.5000
vt 0.0004 0.5823 1.0000
vt 0.3903 0.5823 1.0000
vt 0.3903 0.9998 1.0000
vt 0.0004 0.9998 1.0000
vt 0.0354 0.7910 -0.0000
vt 0.0354 0.7910 1.0000
vt 0.3903 0.5823 -0.0000
vt 0.0004 0.5823 -0.0000
vt 0.0004 0.9998 -0.0000
vt 0.3903 0.9998 -0.0000
vt 0.1362 0.2407 0.0000
vt 0.1362 0.2407 -0.0000
vt 0.1362 0.2407 0.7705
vt 0.1362 0.2407 1.0000
vt 0.1362 0.2407 0.2026
vt 0.1362 0.2407 0.2043
vt 0.1364 0.2406 0.9601
vt 0.1362 0.2407 0.9601
vt 0.0822 0.2136 0.0000
vt 0.0822 0.2136 0.0702
vt 0.0822 0.2136 0.2425
vt 0.0822 0.2136 0.1837
vt 0.0822 0.2136 0.1827
vt 0.0822 0.2136 0.1920
vt 0.0822 0.2136 0.2083
vt 0.0822 0.2136 0.2472
vt 0.0822 0.2136 0.2611
vt 0.0822 0.2136 0.9215
vt 0.0822 0.2136 0.9355
vt 0.0822 0.2136 0.9402
vt 0.0822 0.2136 0.9835
vt 0.0822 0.2136 0.9958
vt 0.0822 0.2136 1.0000
vt 0.0822 0.2136 0.9298
vt 0.0822 0.2136 0.0877
vt 0.0822 0.2136 0.5877
vt 0.0822 0.2136 0.4123
vt 0.0822 0.2136 0.9123
vt 0.0859 0.3150 0.0000
vt 0.1038 0.3150 0.0000
vt 0.1038 0.2927 0.0000
vt 0.0859 0.2927 0.0000
vt 0.0006 0.0006 1.0000
vt 0.1686 0.0006 1.0000
vt 0.1686 0.2761 1.0000
vt 0.0006 0.2761 1.0000
vt 0.1686 0.0006 0.0000
vt 0.0006 0.0006 0.0000
vt 0.0006 0.2761 0.0000
vt 0.1686 0.2761 0.0000
# 64 texture coords

g B3A_T_tujian_004_lv
usemtl T_tujian_004
s 1
f 1/1/1 2/2/1 3/3/1 4/4/1 
s off
f 5/5/2 6/5/2 3/6/2 2/6/2 
f 7/5/3 8/5/3 1/6/3 4/6/3 
f 6/5/4 7/5/4 4/6/4 3/6/4 
f 5/7/5 8/8/5 7/9/5 6/10/5 
s 1
f 9/1/1 10/2/1 11/3/1 12/4/1 
s off
f 13/5/2 14/5/2 11/6/2 10/6/2 
f 15/5/3 16/5/3 9/6/3 12/6/3 
f 14/5/6 15/5/6 12/6/6 11/6/6 
f 13/7/5 16/8/5 15/9/5 14/10/5 
s 1
f 17/11/6 18/12/6 19/13/6 20/14/6 
f 21/15/1 22/16/1 23/17/1 24/18/1 
s off
f 25/19/2 26/19/2 23/20/2 22/20/2 
f 27/19/3 28/19/3 21/20/3 24/20/3 
f 26/19/6 27/19/6 24/20/6 23/20/6 
f 25/21/5 28/22/5 27/23/5 26/24/5 
s 1
f 29/1/7 30/2/7 31/3/7 32/4/7 
s off
f 33/5/2 34/5/2 31/6/2 30/6/2 
f 35/5/3 36/5/3 29/6/3 32/6/3 
f 34/5/6 35/5/6 32/6/6 31/6/6 
f 33/7/5 36/8/5 35/9/5 34/10/5 
f 37/25/1 38/25/1 39/25/1 40/25/1 
f 38/25/1 37/25/1 41/25/1 42/25/1 
f 41/25/1 43/25/1 44/25/1 42/25/1 
f 45/26/3 46/26/3 40/26/3 39/26/3 
f 47/27/8 48/27/8 43/27/8 41/27/8 
f 48/28/2 49/28/2 44/28/2 43/28/2 
f 50/29/9 45/30/9 39/30/9 38/29/9 
f 49/31/10 51/31/10 42/31/10 44/31/10 
f 50/29/11 38/29/11 42/32/11 51/32/11 
f 52/28/12 46/28/12 45/28/12 50/28/12 
f 50/28/13 51/28/13 47/28/13 52/28/13 
f 47/28/13 51/28/13 49/28/13 48/28/13 
f 53/33/1 54/33/1 55/33/1 56/33/1 
f 57/33/7 58/33/7 59/33/7 60/33/7 
f 61/33/1 60/33/1 59/33/1 62/33/1 
f 63/33/1 61/33/1 62/33/1 64/33/1 
f 63/33/1 64/33/1 65/33/1 66/33/1 
f 67/33/1 66/33/1 65/33/1 68/33/1 
f 55/33/1 67/33/1 68/33/1 56/33/1 
f 69/34/3 58/34/3 57/34/3 70/34/3 
f 70/35/6 57/35/6 60/35/6 71/35/6 
f 72/36/14 59/36/14 58/37/14 69/37/14 
f 73/38/15 62/38/15 59/36/15 72/36/15 
f 74/39/16 64/39/16 62/38/16 73/38/16 
f 71/35/17 60/35/17 61/40/17 75/40/17 
f 75/40/18 61/40/18 63/41/18 76/41/18 
f 77/42/19 65/42/19 64/39/19 74/39/19 
f 78/43/20 68/43/20 65/42/20 77/42/20 
f 79/44/8 53/44/8 56/44/8 80/44/8 
f 80/44/21 56/44/21 68/43/21 78/43/21 
f 76/41/22 63/41/22 66/45/22 81/45/22 
f 81/45/23 66/45/23 67/46/23 82/46/23 
f 82/46/24 67/46/24 55/47/24 83/47/24 
f 83/47/6 55/47/6 54/47/6 84/47/6 
f 84/48/2 54/48/2 53/48/2 79/48/2 
f 76/49/5 81/49/5 82/49/5 73/49/5 
f 82/49/5 83/49/5 84/49/5 77/49/5 
f 84/49/5 79/49/5 80/49/5 78/49/5 
f 84/49/1 78/49/1 77/49/1 
f 77/49/5 74/49/5 73/49/5 82/49/5 
f 73/49/5 72/49/5 69/49/5 75/49/5 
f 69/49/5 70/49/5 71/49/5 75/49/5 
f 76/49/5 73/49/5 75/49/5 
f 85/50/5 86/50/5 87/50/5 88/50/5 
f 85/50/5 88/50/5 89/50/5 90/50/5 
f 91/50/5 92/50/5 93/50/5 94/50/5 
f 91/50/5 94/50/5 95/50/5 96/50/5 
f 96/50/5 95/50/5 97/50/5 98/50/5 
f 99/50/25 98/50/25 97/50/25 100/50/25 
f 99/50/5 100/50/5 90/50/5 89/50/5 
f 101/34/3 102/34/3 87/34/3 86/34/3 
f 102/35/6 103/35/6 88/35/6 87/35/6 
f 104/36/14 101/37/14 86/37/14 85/36/14 
f 105/38/15 104/36/15 85/36/15 90/38/15 
f 106/39/16 105/38/16 90/38/16 100/39/16 
f 103/35/17 107/40/17 89/40/17 88/35/17 
f 107/40/26 108/41/26 99/41/26 89/40/26 
f 109/42/19 106/39/19 100/39/19 97/42/19 
f 110/43/20 109/42/20 97/42/20 95/43/20 
f 111/44/27 112/44/27 94/44/27 93/44/27 
f 112/44/28 110/43/28 95/43/28 94/44/28 
f 108/41/22 113/45/22 98/45/22 99/41/22 
f 113/45/23 114/46/23 96/46/23 98/45/23 
f 114/46/24 115/47/24 91/47/24 96/46/24 
f 115/47/6 116/47/6 92/47/6 91/47/6 
f 116/48/2 111/48/2 93/48/2 92/48/2 
f 105/51/1 106/51/1 109/51/1 114/51/1 
f 112/51/1 111/51/1 116/51/1 110/51/1 
f 109/51/1 110/51/1 116/51/1 114/51/1 
f 116/51/1 115/51/1 114/51/1 
f 114/51/1 113/51/1 108/51/1 105/51/1 
f 105/51/1 108/51/1 107/51/1 101/51/1 
f 103/51/1 102/51/1 101/51/1 107/51/1 
f 105/51/1 101/51/1 104/51/1 
f 117/52/1 118/52/1 119/52/1 120/52/1 
f 121/52/1 122/52/1 123/52/1 124/52/1 
f 125/52/1 124/52/1 123/52/1 126/52/1 
f 127/52/1 125/52/1 126/52/1 128/52/1 
f 127/52/7 128/52/7 129/52/7 130/52/7 
f 131/52/1 130/52/1 129/52/1 132/52/1 
f 119/52/1 131/52/1 132/52/1 120/52/1 
f 133/34/3 122/34/3 121/34/3 134/34/3 
f 134/35/6 121/35/6 124/35/6 135/35/6 
f 136/36/14 123/36/14 122/37/14 133/37/14 
f 137/38/15 126/38/15 123/36/15 136/36/15 
f 138/39/16 128/39/16 126/38/16 137/38/16 
f 135/35/17 124/35/17 125/40/17 139/40/17 
f 139/40/26 125/40/26 127/41/26 140/41/26 
f 141/42/19 129/42/19 128/39/19 138/39/19 
f 142/43/20 132/43/20 129/42/20 141/42/20 
f 143/44/8 117/44/8 120/44/8 144/44/8 
f 144/44/21 120/44/21 132/43/21 142/43/21 
f 140/41/22 127/41/22 130/45/22 145/45/22 
f 145/45/23 130/45/23 131/46/23 146/46/23 
f 146/46/29 131/46/29 119/47/29 147/47/29 
f 147/47/4 119/47/4 118/47/4 148/47/4 
f 148/48/2 118/48/2 117/48/2 143/48/2 
f 140/47/5 145/47/5 146/47/5 137/47/5 
f 146/47/5 147/47/5 148/47/5 141/47/5 
f 148/47/5 143/47/5 144/47/5 142/47/5 
f 148/47/1 142/47/1 141/47/1 
f 141/47/5 138/47/5 137/47/5 146/47/5 
f 137/47/5 136/47/5 133/47/5 139/47/5 
f 133/47/5 134/47/5 135/47/5 139/47/5 
f 140/47/5 137/47/5 139/47/5 
s 1
f 149/3/2 150/4/2 151/1/2 152/2/2 
s off
f 149/6/5 152/6/5 153/5/5 154/5/5 
f 151/6/1 150/6/1 155/5/1 156/5/1 
f 150/6/6 149/6/6 154/5/6 155/5/6 
f 155/9/3 154/10/3 153/7/3 156/8/3 
s 1
f 157/1/1 158/2/1 159/3/1 160/4/1 
s off
f 161/5/2 162/5/2 159/6/2 158/6/2 
f 163/5/3 164/5/3 157/6/3 160/6/3 
f 162/5/6 163/5/6 160/6/6 159/6/6 
f 161/7/5 164/8/5 163/9/5 162/10/5 
s 1
f 165/1/1 166/2/1 167/3/1 168/4/1 
s off
f 169/5/2 170/5/2 167/6/2 166/6/2 
f 171/5/3 172/5/3 165/6/3 168/6/3 
f 170/5/4 171/5/4 168/6/4 167/6/4 
f 169/7/5 172/8/5 171/9/5 170/10/5 
s 1
f 173/15/1 174/16/1 175/17/1 176/18/1 
s off
f 177/19/2 178/19/2 175/20/2 174/20/2 
f 179/19/3 180/19/3 173/20/3 176/20/3 
f 178/19/6 179/19/6 176/20/6 175/20/6 
f 177/21/5 180/22/5 179/23/5 178/24/5 
s 1
f 181/15/2 182/16/2 183/17/2 184/18/2 
s off
f 185/19/5 186/19/5 183/20/5 182/20/5 
f 187/19/1 188/19/1 181/20/1 184/20/1 
f 186/19/6 187/19/6 184/20/6 183/20/6 
f 185/21/3 188/22/3 187/23/3 186/24/3 
s 1
f 189/15/1 190/16/1 191/17/1 192/18/1 
s off
f 193/19/2 194/19/2 191/20/2 190/20/2 
f 195/19/3 196/19/3 189/20/3 192/20/3 
f 194/19/4 195/19/4 192/20/4 191/20/4 
f 193/21/5 196/22/5 195/23/5 194/24/5 
s 1
f 197/1/1 198/2/1 199/3/1 200/4/1 
s off
f 201/5/2 202/5/2 199/6/2 198/6/2 
f 203/5/3 204/5/3 197/6/3 200/6/3 
f 202/5/6 203/5/6 200/6/6 199/6/6 
f 201/7/5 204/8/5 203/9/5 202/10/5 
s 1
f 205/1/1 206/2/1 207/3/1 208/4/1 
s off
f 209/5/2 210/5/2 207/6/2 206/6/2 
f 211/5/3 212/5/3 205/6/3 208/6/3 
f 210/5/6 211/5/6 208/6/6 207/6/6 
f 209/7/5 212/8/5 211/9/5 210/10/5 
s 1
f 213/11/6 214/12/6 215/13/6 216/14/6 
f 217/11/6 218/12/6 219/13/6 220/14/6 
f 221/1/2 222/2/2 223/3/2 224/4/2 
s off
f 225/5/5 226/5/5 223/6/5 222/6/5 
f 227/5/1 228/5/1 221/6/1 224/6/1 
f 226/5/6 227/5/6 224/6/6 223/6/6 
f 225/7/3 228/8/3 227/9/3 226/10/3 
s 1
f 229/1/1 230/2/1 231/3/1 232/4/1 
s off
f 233/5/2 234/5/2 231/6/2 230/6/2 
f 235/5/3 236/5/3 229/6/3 232/6/3 
f 234/5/6 235/5/6 232/6/6 231/6/6 
f 233/7/5 236/8/5 235/9/5 234/10/5 
s 1
f 237/1/1 238/2/1 239/3/1 240/4/1 
s off
f 241/5/2 242/5/2 239/6/2 238/6/2 
f 243/5/3 244/5/3 237/6/3 240/6/3 
f 242/5/6 243/5/6 240/6/6 239/6/6 
f 241/7/5 244/8/5 243/9/5 242/10/5 
s 1
f 245/1/1 246/2/1 247/3/1 248/4/1 
s off
f 249/5/2 250/5/2 247/6/2 246/6/2 
f 251/5/3 252/5/3 245/6/3 248/6/3 
f 250/5/6 251/5/6 248/6/6 247/6/6 
f 249/7/5 252/8/5 251/9/5 250/10/5 
s 1
f 253/15/2 254/16/2 255/17/2 256/18/2 
s off
f 257/19/5 258/19/5 255/20/5 254/20/5 
f 259/19/1 260/19/1 253/20/1 256/20/1 
f 258/19/6 259/19/6 256/20/6 255/20/6 
f 257/21/3 260/22/3 259/23/3 258/24/3 
s 1
f 261/15/1 262/16/1 263/17/1 264/18/1 
s off
f 265/19/2 266/19/2 263/20/2 262/20/2 
f 267/19/3 268/19/3 261/20/3 264/20/3 
f 266/19/6 267/19/6 264/20/6 263/20/6 
f 265/21/5 268/22/5 267/23/5 266/24/5 
s 1
f 269/15/1 270/16/1 271/17/1 272/18/1 
s off
f 273/19/2 274/19/2 271/20/2 270/20/2 
f 275/19/3 276/19/3 269/20/3 272/20/3 
f 274/19/6 275/19/6 272/20/6 271/20/6 
f 273/21/5 276/22/5 275/23/5 274/24/5 
s 1
f 277/1/2 278/2/2 279/3/2 280/4/2 
s off
f 281/5/5 282/5/5 279/6/5 278/6/5 
f 283/5/1 284/5/1 277/6/1 280/6/1 
f 282/5/6 283/5/6 280/6/6 279/6/6 
f 281/7/3 284/8/3 283/9/3 282/10/3 
f 285/53/3 286/54/3 287/55/3 288/56/3 
f 285/53/6 288/56/6 289/56/6 290/53/6 
f 288/56/1 287/55/1 291/55/1 289/56/1 
f 287/55/8 286/54/8 292/54/8 291/55/8 
f 286/54/5 285/53/5 290/53/5 292/54/5 
s 1
f 293/57/30 294/58/30 295/59/30 296/60/30 
s off
f 297/61/3 298/62/3 299/63/3 300/64/3 
s 1
f 301/15/1 302/16/1 303/17/1 304/18/1 
s off
f 305/19/2 306/19/2 303/20/2 302/20/2 
f 307/19/3 308/19/3 301/20/3 304/20/3 
f 306/19/6 307/19/6 304/20/6 303/20/6 
f 305/21/5 308/22/5 307/23/5 306/24/5 
f 309/53/2 310/56/2 311/55/2 312/54/2 
f 313/53/6 314/56/6 310/56/6 309/53/6 
f 314/56/1 315/55/1 311/55/1 310/56/1 
f 315/55/8 316/54/8 312/54/8 311/55/8 
f 316/54/5 313/53/5 309/53/5 312/54/5 
s 1
f 317/57/2 318/58/2 319/59/2 320/60/2 
s off
f 321/61/31 322/62/31 323/63/31 324/64/31 
s 1
f 325/11/6 326/12/6 327/13/6 328/14/6 
# 222 polygons - 6 triangles

