# 3ds Max Wavefront OBJ Exporter v0.97b - (c)2007 guruware
# File Created: 24.01.2018 18:11:39

mtllib B3A_T_tujian_006_zi.mtl

#
# object B3A_T_tujian_006_zi
#

v  544.5044 85.5389 -392.3330
v  589.1753 85.5389 -400.2097
v  595.5752 85.5389 -363.9147
v  550.9043 85.5389 -356.0380
v  639.4299 85.5389 -409.0710
v  645.8300 85.5389 -372.7760
v  601.1591 85.5389 -364.8993
v  594.7592 85.5389 -401.1943
v  544.5044 91.2089 -392.3330
v  550.9043 91.2089 -356.0380
v  595.5752 91.2089 -363.9147
v  589.1753 91.2089 -400.2097
v  639.4299 91.2089 -409.0710
v  594.7592 91.2089 -401.1943
v  601.1591 91.2089 -364.8993
v  645.8300 91.2089 -372.7760
v  588.5189 123.3390 -403.9324
v  588.5189 85.5389 -403.9324
v  540.1255 85.5389 -395.3992
v  540.1255 123.3390 -395.3992
v  589.1753 123.3390 -400.2097
v  544.5044 123.3390 -392.3330
v  540.7819 123.3390 -391.6766
v  540.7819 85.5389 -391.6766
v  547.8381 85.5389 -351.6591
v  547.8381 123.3390 -351.6591
v  550.9043 123.3390 -356.0380
v  551.5605 123.3390 -352.3154
v  551.5605 85.5389 -352.3154
v  601.8153 85.5389 -361.1766
v  601.8153 123.3390 -361.1766
v  595.5752 123.3390 -363.9147
v  601.1591 123.3390 -364.8993
v  649.5524 85.5389 -373.4324
v  642.4962 85.5389 -413.4500
v  642.4962 123.3390 -413.4500
v  649.5524 123.3390 -373.4324
v  645.8300 123.3390 -372.7760
v  639.4299 123.3390 -409.0710
v  638.7736 123.3390 -412.7937
v  638.7736 85.5389 -412.7937
v  594.1028 85.5389 -404.9169
v  594.1028 123.3390 -404.9169
v  594.7592 123.3390 -401.1943
v  650.2089 85.5389 -369.7098
v  650.2089 123.3390 -369.7098
v  597.3206 129.0089 -347.8860
v  559.5204 129.0089 -347.8860
v  559.5204 123.3389 -347.8861
v  597.3207 123.3389 -347.8861
v  597.3206 129.0089 -310.0858
v  597.3207 123.3389 -310.0858
v  559.5204 129.0089 -310.0858
v  559.5204 123.3389 -310.0858
v  324.2157 129.0089 -506.6461
v  324.2157 129.0089 -19.0261
v  817.5057 129.0089 -19.0261
v  817.5057 129.0089 -506.6459
# 58 vertices

vn 0.0000 -1.0000 -0.0000
vn 0.0000 1.0000 -0.0000
vn -0.1736 0.0000 -0.9848
vn 0.9848 0.0000 -0.1737
vn 0.1736 0.0000 0.9848
vn -0.9848 0.0000 0.1737
vn 0.1737 0.0000 0.9848
vn -0.9848 0.0000 0.1736
vn 0.9848 0.0000 -0.1736
vn -0.1737 0.0000 -0.9848
vn 0.0000 -0.0000 1.0000
vn -1.0000 -0.0000 -0.0000
vn 0.0000 0.0000 -1.0000
vn 1.0000 0.0000 -0.0000
# 14 vertex normals

vt 0.2043 0.7124 0.4941
vt 0.1820 0.7156 0.4941
vt 0.1788 0.7008 0.4941
vt 0.2011 0.6975 0.4941
vt 0.1569 0.7193 0.4941
vt 0.1537 0.7044 0.4941
vt 0.1760 0.7012 0.4941
vt 0.1792 0.7160 0.4941
vt 0.7998 0.7124 0.4968
vt 0.8030 0.6975 0.4968
vt 0.8253 0.7008 0.4968
vt 0.8221 0.7156 0.4968
vt 0.8472 0.7193 0.4968
vt 0.8249 0.7160 0.4968
vt 0.8281 0.7012 0.4968
vt 0.8504 0.7044 0.4968
vt 0.2043 0.3956 0.5066
vt 0.1820 0.3956 0.5067
vt 0.1820 0.3070 0.5067
vt 0.2043 0.3070 0.5066
vt 0.7192 0.3956 0.5099
vt 0.7043 0.3956 0.5100
vt 0.7043 0.3070 0.5100
vt 0.7192 0.3070 0.5099
vt 0.8253 0.3956 0.5062
vt 0.8030 0.3956 0.5061
vt 0.8030 0.3070 0.5061
vt 0.8253 0.3070 0.5062
vt 0.3031 0.3070 0.5093
vt 0.3031 0.3956 0.5093
vt 0.2882 0.3956 0.5092
vt 0.2882 0.3070 0.5092
vt 0.2994 0.3956 0.5101
vt 0.2845 0.3956 0.5100
vt 0.2845 0.3070 0.5100
vt 0.2994 0.3070 0.5101
vt 0.1792 0.3956 0.5067
vt 0.1569 0.3956 0.5068
vt 0.1569 0.3070 0.5068
vt 0.1792 0.3070 0.5067
vt 0.7228 0.3956 0.5106
vt 0.7079 0.3956 0.5107
vt 0.7079 0.3070 0.5107
vt 0.7228 0.3070 0.5106
vt 0.8504 0.3956 0.5064
vt 0.8281 0.3956 0.5063
vt 0.8281 0.3070 0.5063
vt 0.8504 0.3070 0.5064
vt 0.1823 0.8977 0.5067
vt 0.1823 0.3070 0.5067
vt 0.2065 0.3070 0.5066
vt 0.2065 0.8977 0.5066
vt 0.7998 0.3070 0.5066
vt 0.8221 0.3070 0.5067
vt 0.8221 0.8977 0.5067
vt 0.7998 0.8977 0.5066
vt 0.7980 0.8977 0.5066
vt 0.7980 0.3070 0.5066
vt 0.1823 0.7172 0.4941
vt 0.2065 0.7137 0.4941
vt 0.2062 0.7121 0.4941
vt 0.7976 0.7137 0.5123
vt 0.7980 0.7121 0.5123
vt 0.7998 0.7124 0.5123
vt 0.8218 0.7172 0.5123
vt 0.8221 0.7156 0.5123
vt 0.2884 0.8977 0.5091
vt 0.2869 0.8977 0.5091
vt 0.2869 0.3070 0.5091
vt 0.2884 0.3070 0.5091
vt 0.3049 0.3070 0.5092
vt 0.3049 0.8977 0.5092
vt 0.7010 0.3070 0.5093
vt 0.7160 0.3070 0.5092
vt 0.7160 0.8977 0.5092
vt 0.7010 0.8977 0.5093
vt 0.6995 0.8977 0.5093
vt 0.6995 0.3070 0.5093
vt 0.2026 0.6957 0.4941
vt 0.2008 0.6960 0.4941
vt 0.8015 0.6957 0.5123
vt 0.8033 0.6960 0.5123
vt 0.8030 0.6975 0.5123
vt 0.8033 0.3070 0.5061
vt 0.8033 0.8977 0.5061
vt 0.8015 0.8977 0.5061
vt 0.8015 0.3070 0.5061
vt 0.8284 0.3070 0.5062
vt 0.8284 0.8977 0.5062
vt 0.1788 0.3070 0.5062
vt 0.2011 0.3070 0.5061
vt 0.2011 0.8977 0.5061
vt 0.1788 0.8977 0.5062
vt 0.1760 0.8977 0.5063
vt 0.1760 0.3070 0.5063
vt 0.1757 0.6996 0.4941
vt 0.8284 0.6996 0.5123
vt 0.8281 0.7012 0.5123
vt 0.8253 0.7008 0.5123
vt 0.7082 0.3070 0.5108
vt 0.7246 0.3070 0.5107
vt 0.7246 0.8977 0.5107
vt 0.7082 0.8977 0.5108
vt 0.2813 0.3070 0.5106
vt 0.2962 0.3070 0.5107
vt 0.2962 0.8977 0.5107
vt 0.2813 0.8977 0.5106
vt 0.2798 0.8977 0.5106
vt 0.2798 0.3070 0.5106
vt 0.1518 0.7047 0.4941
vt 0.1554 0.7211 0.4941
vt 0.1572 0.7208 0.4941
vt 0.8487 0.7211 0.5123
vt 0.8469 0.7208 0.5123
vt 0.8472 0.7193 0.5123
vt 0.8523 0.7047 0.5123
vt 0.8504 0.7044 0.5123
vt 0.1572 0.8977 0.5069
vt 0.1554 0.8977 0.5069
vt 0.1554 0.3070 0.5069
vt 0.1572 0.3070 0.5069
vt 0.1795 0.3070 0.5068
vt 0.1795 0.8977 0.5068
vt 0.8472 0.3070 0.5068
vt 0.8472 0.8977 0.5068
vt 0.8249 0.8977 0.5067
vt 0.8249 0.3070 0.5067
vt 0.1795 0.7176 0.4941
vt 0.8249 0.7160 0.5123
vt 0.8246 0.7176 0.5123
vt 0.8526 0.3070 0.5063
vt 0.8526 0.8977 0.5063
vt 0.1537 0.3070 0.5064
vt 0.1537 0.8977 0.5064
vt 0.1518 0.8977 0.5064
vt 0.1518 0.3070 0.5064
vt 0.1515 0.7031 0.4941
vt 0.8526 0.7031 0.5123
vt 0.7067 0.8977 0.5108
vt 0.7067 0.3070 0.5108
vt 0.7047 0.8977 0.5101
vt 0.7047 0.3070 0.5101
vt 0.7196 0.3070 0.5100
vt 0.7196 0.8977 0.5100
vt 0.7211 0.3070 0.5100
vt 0.7211 0.8977 0.5100
vt 0.2849 0.3070 0.5099
vt 0.2998 0.3070 0.5100
vt 0.2998 0.8977 0.5100
vt 0.2849 0.8977 0.5099
vt 0.2834 0.8977 0.5099
vt 0.2834 0.3070 0.5099
vt 0.8262 0.9863 0.5060
vt 0.8073 0.9863 0.5060
vt 0.8073 0.8977 0.5060
vt 0.8262 0.8977 0.5060
vt 0.3219 0.9863 0.5100
vt 0.3064 0.9863 0.5100
vt 0.3064 0.8977 0.5100
vt 0.3219 0.8977 0.5100
vt 0.1968 0.9863 0.5056
vt 0.1779 0.9863 0.5056
vt 0.1779 0.8977 0.5056
vt 0.1968 0.8977 0.5056
vt 0.6977 0.9863 0.5094
vt 0.6822 0.9863 0.5094
vt 0.6822 0.8977 0.5094
vt 0.6977 0.8977 0.5094
vt 0.8073 0.6787 0.5151
vt 0.6898 0.7593 0.5151
vt 0.6898 0.5594 0.5151
vt 0.9361 0.5594 0.5151
vt 0.8262 0.6787 0.5151
vt 0.8073 0.6942 0.5151
vt 0.9361 0.7593 0.5151
vt 0.8262 0.6942 0.5151
# 176 texture coords

g B3A_T_tujian_006_zi
usemtl T_tujian_006
s off
f 1/1/1 2/2/1 3/3/1 4/4/1 
f 5/5/1 6/6/1 7/7/1 8/8/1 
f 9/9/2 10/10/2 11/11/2 12/12/2 
f 13/13/2 14/14/2 15/15/2 16/16/2 
f 9/17/3 12/18/3 2/19/3 1/20/3 
f 12/21/4 11/22/4 3/23/4 2/24/4 
f 11/25/5 10/26/5 4/27/5 3/28/5 
f 4/29/6 10/30/6 9/31/6 1/32/6 
f 15/33/6 14/34/6 8/35/6 7/36/6 
f 14/37/3 13/38/3 5/39/3 8/40/3 
f 13/41/4 16/42/4 6/43/4 5/44/4 
f 16/45/5 15/46/5 7/47/5 6/48/5 
f 17/49/3 18/50/3 19/51/3 20/52/3 
f 1/53/5 2/54/5 21/55/5 22/56/5 
f 22/56/7 23/57/7 24/58/7 1/53/7 
f 18/59/1 2/2/1 1/1/1 19/60/1 
f 19/60/1 1/1/1 24/61/1 
f 20/62/2 23/63/2 22/64/2 17/65/2 
f 17/65/2 22/64/2 21/66/2 
f 23/67/6 20/68/6 19/69/6 24/70/6 
f 23/67/8 24/70/8 25/71/8 26/72/8 
f 4/73/4 1/74/4 22/75/4 27/76/4 
f 27/76/9 28/77/9 29/78/9 4/73/9 
f 24/61/1 1/1/1 4/4/1 25/79/1 
f 25/79/1 4/4/1 29/80/1 
f 26/81/2 28/82/2 27/83/2 23/63/2 
f 23/63/2 27/83/2 22/64/2 
f 29/84/7 28/85/7 26/86/7 25/87/7 
f 30/88/5 31/89/5 28/85/5 29/84/5 
f 3/90/3 4/91/3 27/92/3 32/93/3 
f 32/93/10 33/94/10 7/95/10 3/90/10 
f 29/80/1 4/4/1 3/3/1 30/96/1 
f 30/96/1 3/3/1 7/7/1 
f 31/97/2 33/98/2 32/99/2 28/82/2 
f 28/82/2 32/99/2 27/83/2 
f 34/100/9 35/101/9 36/102/9 37/103/9 
f 5/104/6 6/105/6 38/106/6 39/107/6 
f 39/107/6 40/108/6 41/109/6 5/104/6 
f 34/110/1 6/6/1 5/5/1 35/111/1 
f 35/111/1 5/5/1 41/112/1 
f 36/113/2 40/114/2 39/115/2 37/116/2 
f 37/116/2 39/115/2 38/117/2 
f 40/118/3 36/119/3 35/120/3 41/121/3 
f 40/118/10 41/121/10 42/122/10 43/123/10 
f 5/124/5 39/125/5 44/126/5 8/127/5 
f 41/112/1 5/5/1 8/8/1 42/128/1 
f 44/129/2 39/115/2 40/114/2 43/130/2 
f 30/88/5 45/131/5 46/132/5 31/89/5 
f 6/133/3 7/95/3 33/94/3 38/134/3 
f 38/134/10 37/135/10 34/136/10 6/133/10 
f 30/96/1 7/7/1 6/6/1 45/137/1 
f 45/137/1 6/6/1 34/110/1 
f 46/138/2 37/116/2 38/117/2 31/97/2 
f 31/97/2 38/117/2 33/98/2 
f 34/100/4 37/103/4 46/139/4 45/140/4 
f 33/141/4 7/142/4 8/143/4 44/144/4 
f 44/144/9 8/143/9 42/145/9 43/146/9 
f 2/147/6 3/148/6 32/149/6 21/150/6 
f 21/150/8 17/151/8 18/152/8 2/147/8 
f 7/7/1 3/3/1 2/2/1 8/8/1 
f 8/8/1 2/2/1 18/59/1 42/128/1 
f 44/129/2 43/130/2 17/65/2 21/66/2 
f 33/98/2 44/129/2 21/66/2 32/99/2 
f 17/49/3 43/123/3 42/122/3 18/50/3 
f 47/153/11 48/154/11 49/155/11 50/156/11 
f 51/157/12 47/158/12 50/159/12 52/160/12 
f 53/161/13 51/162/13 52/163/13 54/164/13 
f 48/165/14 53/166/14 54/167/14 49/168/14 
f 53/169/2 55/170/2 56/171/2 57/172/2 
f 51/173/2 53/169/2 57/172/2 
f 55/170/2 53/169/2 48/174/2 58/175/2 
f 47/176/2 51/173/2 57/172/2 58/175/2 
f 48/174/2 47/176/2 58/175/2 
# 61 polygons - 12 triangles

