# 3ds Max Wavefront OBJ Exporter v0.97b - (c)2007 guruware
# File Created: 24.01.2018 18:19:41

mtllib B3A_T_tujian_005_lou_dxck_pfjf3.mtl

#
# object B3A_T_tujian_005_lou_dxck_pfjf3
#

v  443.3978 200.8289 -509.4811
v  439.6177 200.8289 -509.4811
v  439.6177 129.0089 -509.4811
v  443.3978 129.0089 -509.4811
v  443.3978 129.0089 -670.1311
v  443.3978 200.8289 -670.1311
v  443.3978 129.0089 -673.9110
v  443.3978 200.8289 -673.9110
v  439.6177 200.8289 -673.9110
v  439.6177 129.0089 -673.9110
# 10 vertices

vn 0.0000 0.0000 1.0000
vn 1.0000 0.0000 -0.0000
vn 0.0000 1.0000 -0.0000
vn 0.0000 0.0000 -1.0000
vn -1.0000 0.0000 -0.0000
# 5 vertex normals

vt 0.8474 1.0000 0.7461
vt 0.8446 1.0000 0.7461
vt 0.8446 0.6689 0.7461
vt 0.8474 0.6689 0.7461
vt 0.5367 1.0000 0.7645
vt 0.5367 0.6689 0.7645
vt 0.8799 0.6689 0.7645
vt 0.8799 1.0000 0.7645
vt 0.8880 0.6689 0.7645
vt 0.8880 1.0000 0.7645
vt 0.4568 0.8417 1.0000
vt 0.2174 1.0000 0.8224
vt 0.2146 1.0000 0.8224
vt 0.2146 0.6689 0.8224
vt 0.2174 0.6689 0.8224
vt 0.1619 1.0000 0.7621
vt 0.1619 0.6689 0.7621
vt 0.4575 0.6689 0.7621
vt 0.4575 1.0000 0.7621
# 19 texture coords

g B3A_T_tujian_005_lou_dxck_pfjf3
usemtl T_tujian_005
s off
f 1/1/1 2/2/1 3/3/1 4/4/1 
f 1/5/2 4/6/2 5/7/2 6/8/2 
f 6/8/2 5/7/2 7/9/2 8/10/2 
f 6/11/3 8/11/3 9/11/3 2/11/3 
f 6/11/3 2/11/3 1/11/3 
f 9/12/4 8/13/4 7/14/4 10/15/4 
f 9/16/5 10/17/5 3/18/5 2/19/5 
# 6 polygons - 1 triangles

