# 3ds Max Wavefront OBJ Exporter v0.97b - (c)2007 guruware
# File Created: 24.01.2018 18:38:23

mtllib B3A_T_tujian_005_lv_xfjf2.mtl

#
# object B3A_T_tujian_005_lv_xfjf2
#

v  663.7294 182.9117 867.8744
v  663.7294 129.0089 867.8744
v  799.5504 129.0089 867.8744
v  799.5504 182.9117 867.8744
v  663.7294 182.9117 864.0948
v  799.5504 182.9117 864.0947
v  799.5504 129.0089 864.0947
v  663.7294 129.0089 864.0948
v  716.3906 172.4789 718.0737
v  716.3906 129.0089 718.0737
v  655.9105 129.0089 718.0737
v  655.9105 200.8289 718.0737
v  799.5504 200.8289 718.0737
v  750.4106 172.4789 718.0737
v  799.5504 129.0089 718.0737
v  750.4106 129.0089 718.0737
v  750.4106 172.4789 721.8537
v  750.4106 129.0089 721.8537
v  799.5504 129.0089 721.8537
v  799.5504 200.8289 721.8537
v  655.9105 129.0089 721.8537
v  716.3906 129.0089 721.8537
v  716.3906 172.4789 721.8537
v  655.9105 200.8289 721.8537
# 24 vertices

vn 0.0000 0.0000 1.0000
vn -0.0000 0.0000 -1.0000
vn 1.0000 0.0000 -0.0000
vn -0.0000 1.0000 -0.0000
vn -1.0000 0.0000 -0.0000
vn 0.0000 0.0000 -1.0000
vn 0.0000 1.0000 -0.0000
vn 0.0000 -1.0000 -0.0000
# 8 vertex normals

vt 0.5489 0.9174 0.1825
vt 0.5489 0.6691 0.1825
vt 0.8183 0.6691 0.1825
vt 0.8183 0.9174 0.1825
vt 0.4865 0.9174 0.1841
vt 0.2387 0.9174 0.1841
vt 0.2387 0.6691 0.1841
vt 0.4865 0.6691 0.1841
vt 0.5352 0.9174 0.9350
vt 0.5352 0.6691 0.9350
vt 0.5399 0.6691 0.9350
vt 0.5399 0.9174 0.9350
vt 0.4698 0.8395 0.7505
vt 0.4047 0.6691 0.8669
vt 0.4047 0.9174 0.8669
vt 0.4000 0.9174 0.8669
vt 0.4000 0.6691 0.8669
vt 0.3939 0.8693 0.2460
vt 0.3939 0.6691 0.2460
vt 0.5068 0.6691 0.2460
vt 0.5068 0.9999 0.2460
vt 0.2387 0.9999 0.2460
vt 0.3304 0.8693 0.2460
vt 0.2387 0.6691 0.2460
vt 0.3304 0.6691 0.2460
vt 0.6531 0.8693 0.2444
vt 0.6531 0.6691 0.2444
vt 0.7478 0.6691 0.2444
vt 0.7478 0.9999 0.2444
vt 0.4709 0.6691 0.2444
vt 0.5875 0.6691 0.2444
vt 0.5875 0.8693 0.2444
vt 0.4709 0.9999 0.2444
vt 0.2193 0.9999 0.8613
vt 0.2193 0.6691 0.8613
vt 0.2239 0.6691 0.8613
vt 0.2239 0.9999 0.8613
vt 0.4698 0.8395 1.0000
vt 0.7206 0.6691 0.9350
vt 0.7206 0.9999 0.9350
vt 0.7159 0.9999 0.9350
vt 0.7159 0.6691 0.9350
vt 0.2193 0.6691 0.9098
vt 0.2239 0.6691 0.9098
vt 0.2239 0.8693 0.9098
vt 0.2193 0.8693 0.9098
vt 0.4698 0.8395 0.6053
vt 0.7159 0.8693 0.8923
vt 0.7159 0.6691 0.8923
vt 0.7206 0.6691 0.8923
vt 0.7206 0.8693 0.8923
# 51 texture coords

g B3A_T_tujian_005_lv_xfjf2
usemtl T_tujian_005
s off
f 1/1/1 2/2/1 3/3/1 4/4/1 
f 5/5/2 6/6/2 7/7/2 8/8/2 
f 4/9/3 3/10/3 7/11/3 6/12/3 
f 1/13/4 4/13/4 6/13/4 5/13/4 
f 2/14/5 1/15/5 5/16/5 8/17/5 
f 9/18/6 10/19/6 11/20/6 12/21/6 
f 9/18/6 12/21/6 13/22/6 14/23/6 
f 15/24/6 16/25/6 14/23/6 13/22/6 
f 17/26/1 18/27/1 19/28/1 20/29/1 
f 21/30/1 22/31/1 23/32/1 24/33/1 
f 20/29/1 24/33/1 23/32/1 17/26/1 
f 12/34/5 11/35/5 21/36/5 24/37/5 
f 13/38/7 12/38/7 24/38/7 20/38/7 
f 15/39/3 13/40/3 20/41/3 19/42/3 
f 16/43/5 18/44/5 17/45/5 14/46/5 
f 14/47/8 17/47/8 23/47/8 9/47/8 
f 23/48/3 22/49/3 10/50/3 9/51/3 
# 17 polygons

