# 3ds Max Wavefront OBJ Exporter v0.97b - (c)2007 guruware
# File Created: 09.01.2018 16:32:28

mtllib B3A_T_tujian_005_zi.mtl

#
# object B3A_T_tujian_005_zi
#

v  588.5189 129.0089 -403.9324
v  578.7471 129.0089 -402.2094
v  578.7471 176.2589 -402.2094
v  588.5189 200.8289 -403.9324
v  554.5504 176.2589 -397.9427
v  543.8480 200.8289 -396.0557
v  554.5504 129.0089 -397.9427
v  543.8480 129.0089 -396.0557
v  544.5044 129.0089 -392.3330
v  555.2069 129.0089 -394.2201
v  555.2069 176.2589 -394.2201
v  544.5044 200.8289 -392.3330
v  579.4036 176.2589 -398.4867
v  579.4036 129.0089 -398.4867
v  589.1753 129.0089 -400.2097
v  589.1753 200.8289 -400.2097
v  596.2314 129.0089 -360.1921
v  596.2314 200.8289 -360.1921
v  551.5605 200.8289 -352.3154
v  551.5605 129.0089 -352.3154
v  595.5752 129.0089 -363.9147
v  550.9043 129.0089 -356.0380
v  550.9043 200.8289 -356.0380
v  595.5752 200.8289 -363.9147
v  646.4862 129.0089 -369.0533
v  646.4862 200.8289 -369.0533
v  601.8153 200.8289 -361.1766
v  601.8153 129.0089 -361.1766
v  645.8300 129.0089 -372.7760
v  601.1591 129.0089 -364.8993
v  601.1591 200.8289 -364.8993
v  645.8300 200.8289 -372.7760
v  638.7736 129.0089 -412.7937
v  626.2100 129.0089 -410.5782
v  626.2100 176.2589 -410.5782
v  638.7736 200.8289 -412.7937
v  603.8745 176.2589 -406.6399
v  603.8745 129.0089 -406.6399
v  594.1028 129.0089 -404.9169
v  594.1028 200.8289 -404.9169
v  594.7592 129.0089 -401.1943
v  604.5309 129.0089 -402.9175
v  604.5309 176.2589 -402.9175
v  594.7592 200.8289 -401.1943
v  626.8663 176.2589 -406.8558
v  639.4299 200.8289 -409.0710
v  626.8663 129.0089 -406.8558
v  639.4299 129.0089 -409.0710
v  539.2487 200.8289 -389.4872
v  539.2487 129.0089 -389.4872
v  544.9922 129.0089 -356.9147
v  544.9922 200.8289 -356.9147
v  550.5760 129.0089 -357.8992
v  544.8325 129.0089 -390.4718
v  544.8325 200.8289 -390.4718
v  550.5760 200.8289 -357.8992
v  645.3420 129.0089 -408.1943
v  645.3420 200.8289 -408.1943
v  651.0856 200.8289 -375.6218
v  651.0856 129.0089 -375.6218
v  639.7582 129.0089 -407.2098
v  645.5017 129.0089 -374.6372
v  645.5017 200.8289 -374.6372
v  639.7582 200.8289 -407.2098
v  589.5034 200.8289 -398.3485
v  589.5034 129.0089 -398.3485
v  595.2469 129.0089 -365.7759
v  595.2469 200.8289 -365.7759
v  595.0873 129.0089 -399.3330
v  595.0873 200.8289 -399.3330
v  600.8308 200.8289 -366.7605
v  600.8308 129.0089 -366.7605
v  765.5305 200.8289 -18.8035
v  765.5305 129.0089 -18.8035
v  756.0806 129.0089 -18.8035
v  756.0806 200.8289 -18.8035
v  759.8605 129.0089 -15.0234
v  765.5305 129.0089 -15.0234
v  765.5305 200.8289 -15.0234
v  759.8605 200.8289 -15.0234
v  756.0806 200.8289 -15.0234
v  756.0806 129.0089 -15.0234
v  755.1354 176.2589 -13.1672
v  339.3354 176.2589 -13.1672
v  339.3354 200.8289 -13.1672
v  756.0806 200.8289 -13.1672
v  756.0806 129.0089 -13.1672
v  755.1354 129.0089 -13.1672
v  339.3354 200.8289 -9.3872
v  339.3354 176.2589 -9.3872
v  755.1354 176.2589 -9.3872
v  756.0806 200.8289 -9.3872
v  755.1354 129.0089 -9.3872
v  756.0806 129.0089 -9.3872
v  327.9955 176.2589 -24.6962
v  327.9955 176.2589 -179.6761
v  327.9955 200.8289 -179.6761
v  327.9955 200.8289 -24.5072
v  327.9955 129.0089 -24.5072
v  327.9955 129.0089 -24.6962
v  324.2156 200.8289 -179.6761
v  324.2156 176.2589 -179.6761
v  324.2156 176.2589 -24.6962
v  324.2156 200.8289 -24.5072
v  324.2156 129.0089 -24.6962
v  324.2156 129.0089 -24.5072
v  327.9955 200.8289 -198.6046
v  327.9955 176.2589 -198.6046
v  327.9955 176.2589 -338.4645
v  327.9955 200.8289 -339.3811
v  327.9955 129.0089 -338.4645
v  327.9955 129.0089 -339.3811
v  324.2156 176.2589 -338.4645
v  324.2156 176.2589 -198.6046
v  324.2156 200.8289 -198.6046
v  324.2156 200.8289 -339.3811
v  324.2156 129.0089 -339.3811
v  324.2156 129.0089 -338.4645
v  327.9955 176.2589 -356.4194
v  327.9955 176.2589 -492.4711
v  327.9955 200.8289 -492.4711
v  327.9955 200.8289 -356.4194
v  324.2156 176.2589 -356.4194
v  324.2156 200.8289 -356.4194
v  324.2156 200.8289 -492.4711
v  324.2156 176.2589 -492.4711
v  817.5055 200.8289 -13.1337
v  817.5055 129.0089 -13.1337
v  817.5055 129.0089 -18.8035
v  817.5055 176.2589 -18.8035
v  817.5055 176.2589 -155.3560
v  817.5055 176.2589 -175.7950
v  817.5055 129.0089 -155.3560
v  817.5055 129.0089 -175.7950
v  817.5055 176.2589 -361.0149
v  817.5055 176.2589 -380.9607
v  817.5055 129.0089 -361.0149
v  817.5055 129.0089 -380.9607
v  817.5055 176.2589 -498.1407
v  817.5055 176.2589 -508.9144
v  817.5055 129.0089 -498.1407
v  817.5055 129.0089 -508.9144
v  817.5055 200.8289 -508.9144
v  817.5055 176.2589 -512.6946
v  817.5055 200.8289 -512.6946
v  813.7255 200.8289 -512.6946
v  813.7255 200.8289 -13.1338
v  816.5604 176.2589 -512.6946
v  816.5604 129.0089 -512.6946
v  813.7255 129.0089 -512.6946
v  816.5604 129.0089 -508.9144
v  816.5604 176.2589 -508.9144
v  813.7255 176.2589 -498.1407
v  813.7255 129.0089 -498.1407
v  813.7255 176.2589 -380.9607
v  813.7255 129.0089 -380.9607
v  813.7255 176.2589 -361.0149
v  813.7255 129.0089 -361.0149
v  813.7255 176.2589 -175.7950
v  813.7255 129.0089 -175.7950
v  813.7255 176.2589 -155.3560
v  813.7255 129.0089 -155.3560
v  813.7255 176.2589 -18.8035
v  813.7255 129.0089 -18.8035
v  339.3354 129.0089 -505.7012
v  481.0854 129.0089 -505.7012
v  481.0854 200.8289 -505.7012
v  339.3354 200.8289 -505.7012
v  439.6177 129.0089 -509.4811
v  339.3354 129.0089 -509.4811
v  339.3354 200.8289 -509.4811
v  439.6177 200.8289 -509.4811
v  443.3978 200.8289 -509.4811
v  481.0854 200.8289 -509.4811
v  481.0854 129.0089 -509.4811
v  443.3978 129.0089 -509.4811
v  498.0955 129.0089 -505.7012
v  581.2552 129.0089 -505.7012
v  581.2552 176.2589 -505.7012
v  498.0955 200.8289 -505.7012
v  639.8452 176.2589 -505.7012
v  639.8452 129.0089 -505.7012
v  641.3420 129.0089 -505.7012
v  641.3420 200.8289 -505.7012
v  581.2552 176.2589 -509.4811
v  581.2552 129.0089 -509.4811
v  577.4753 129.0089 -509.4811
v  498.0955 129.0089 -509.4811
v  498.0955 200.8289 -509.4811
v  577.4753 200.8289 -509.4811
v  581.2552 200.8289 -509.4811
v  639.8452 176.2589 -509.4811
v  641.3420 129.0089 -509.4811
v  639.8452 129.0089 -509.4811
v  641.3420 200.8289 -509.4811
v  659.1394 129.0089 -504.7562
v  659.1394 200.8289 -504.7562
v  655.6705 200.8289 -504.7562
v  655.6705 129.0089 -504.7562
v  659.1394 129.0089 -508.5361
v  655.6705 129.0089 -508.5361
v  655.6705 200.8289 -508.5361
v  659.1394 200.8289 -508.5361
v  798.6056 200.8289 -512.6946
v  798.6056 176.2589 -512.6946
v  679.5354 176.2589 -512.6946
v  675.1172 200.8289 -512.6946
v  679.5354 129.0089 -512.6946
v  675.1172 129.0089 -512.6946
v  679.5354 176.2589 -508.9144
v  798.6056 176.2589 -508.9144
v  798.6056 200.8289 -508.9144
v  675.1172 200.8289 -508.9144
v  675.1172 129.0089 -508.9144
v  679.5354 129.0089 -508.9144
v  813.7255 129.0089 -13.1337
# 216 vertices

vn -0.1736 0.0000 -0.9848
vn -0.1736 -0.0000 -0.9848
vn 0.1736 0.0000 0.9848
vn 0.1737 0.0000 0.9848
vn -0.9848 0.0000 0.1736
vn 0.0000 1.0000 -0.0000
vn 0.9848 0.0000 -0.1736
vn -0.9848 0.0000 0.1737
vn 0.9848 0.0000 -0.1737
vn 0.0000 -1.0000 -0.0000
vn -0.1737 0.0000 -0.9848
vn -0.1737 -0.0000 -0.9848
vn 0.1736 -0.0000 0.9848
vn 0.0000 0.0000 -1.0000
vn 0.0000 0.0000 1.0000
vn 1.0000 0.0000 -0.0000
vn -1.0000 0.0000 -0.0000
# 17 vertex normals

vt 0.1461 0.6722 0.8535
vt 0.1688 0.6722 0.8250
vt 0.1688 0.8874 0.8250
vt 0.1461 0.9993 0.8535
vt 0.2251 0.8874 0.7544
vt 0.2499 0.9993 0.7232
vt 0.2251 0.6722 0.7544
vt 0.2499 0.6722 0.7232
vt 0.0129 0.6722 0.6617
vt 0.0378 0.6722 0.6929
vt 0.0378 0.8874 0.6929
vt 0.0129 0.9993 0.6617
vt 0.0940 0.8874 0.7634
vt 0.0940 0.6722 0.7634
vt 0.1167 0.6722 0.7919
vt 0.1167 0.9993 0.7919
vt 0.0726 0.6722 0.0411
vt 0.0886 0.6722 0.0470
vt 0.0886 0.9993 0.0470
vt 0.0726 0.9993 0.0411
vt 0.1300 0.8370 1.0000
vt 0.2225 0.9993 0.4406
vt 0.2065 0.9993 0.4464
vt 0.2065 0.6722 0.4464
vt 0.2225 0.6722 0.4406
vt 0.0462 0.8874 0.3532
vt 0.0462 0.6722 0.3532
vt 0.0622 0.6722 0.3590
vt 0.0622 0.8874 0.3590
vt 0.1968 0.6722 0.1368
vt 0.1968 0.8874 0.1368
vt 0.1808 0.8874 0.1427
vt 0.1808 0.6722 0.1427
vt 0.2235 0.8988 0.6579
vt 0.2251 0.9190 0.6579
vt 0.1688 0.9420 0.6579
vt 0.1673 0.9219 0.6579
vt 0.1331 0.6722 0.1302
vt 0.1331 0.9993 0.1302
vt 0.0293 0.9993 -0.0000
vt 0.0293 0.6722 -0.0000
vt 0.1297 0.6722 0.1918
vt 0.2335 0.6722 0.0615
vt 0.2335 0.9993 0.0615
vt 0.1297 0.9993 0.1918
vt 0.0506 0.6722 0.5036
vt 0.0506 0.9993 0.5036
vt 0.0346 0.9993 0.5095
vt 0.0346 0.6722 0.5095
vt 0.2446 0.9993 0.1042
vt 0.2446 0.6722 0.1042
vt 0.2606 0.6722 0.1101
vt 0.2606 0.9993 0.1101
vt 0.2499 0.6722 0.2768
vt 0.2499 0.9993 0.2768
vt 0.1461 0.9993 0.1465
vt 0.1461 0.6722 0.1465
vt 0.0129 0.6722 0.3383
vt 0.1167 0.6722 0.2081
vt 0.1167 0.9993 0.2081
vt 0.0129 0.9993 0.3383
vt 0.0886 0.6722 0.9530
vt 0.0886 0.9993 0.9530
vt 0.0726 0.9993 0.9589
vt 0.0726 0.6722 0.9589
vt 0.2065 0.9993 0.5536
vt 0.2065 0.6722 0.5536
vt 0.2225 0.6722 0.5594
vt 0.2225 0.9993 0.5594
vt 0.0293 0.6722 1.0000
vt 0.0585 0.6722 0.9634
vt 0.0585 0.8874 0.9634
vt 0.0293 0.9993 1.0000
vt 0.1104 0.8874 0.8982
vt 0.1104 0.6722 0.8982
vt 0.1331 0.6722 0.8698
vt 0.1331 0.9993 0.8698
vt 0.1297 0.6722 0.8082
vt 0.1524 0.6722 0.8367
vt 0.1524 0.8874 0.8367
vt 0.1297 0.9993 0.8082
vt 0.2043 0.8874 0.9018
vt 0.2335 0.9993 0.9384
vt 0.2043 0.6722 0.9018
vt 0.2335 0.6722 0.9384
vt 0.0506 0.6722 0.4964
vt 0.0506 0.9993 0.4964
vt 0.0346 0.9993 0.4905
vt 0.0346 0.6722 0.4905
vt 0.2446 0.9993 0.8958
vt 0.2446 0.6722 0.8958
vt 0.2606 0.6722 0.8899
vt 0.2606 0.9993 0.8899
vt 0.0102 0.8874 0.7776
vt 0.0102 0.6722 0.7776
vt 0.0262 0.6722 0.7834
vt 0.0262 0.8874 0.7834
vt 0.2342 0.6722 0.5779
vt 0.2342 0.8874 0.5779
vt 0.2182 0.8874 0.5837
vt 0.2182 0.6722 0.5837
vt 0.1104 0.9660 0.6579
vt 0.0585 0.9873 0.6579
vt 0.0570 0.9672 0.6579
vt 0.1089 0.9459 0.6579
vt 0.0566 0.9993 0.0000
vt 0.0566 0.6722 0.0000
vt 0.1153 0.6722 0.0514
vt 0.1153 0.9993 0.0514
vt 0.0247 0.6722 0.1013
vt 0.0834 0.6722 0.0499
vt 0.0834 0.9993 0.0499
vt 0.0247 0.9993 0.1013
vt 0.0141 0.6722 0.0760
vt 0.0270 0.6722 0.0923
vt 0.0270 0.9993 0.0923
vt 0.0141 0.9993 0.0760
vt 0.2606 0.9993 0.6146
vt 0.2476 0.9993 0.6309
vt 0.2476 0.6722 0.6309
vt 0.2606 0.6722 0.6146
vt 0.1153 0.6722 0.9486
vt 0.1153 0.9993 0.9486
vt 0.0566 0.9993 1.0000
vt 0.0566 0.6722 1.0000
vt 0.0247 0.6722 0.8987
vt 0.0834 0.6722 0.9501
vt 0.0834 0.9993 0.9501
vt 0.0247 0.9993 0.8987
vt 0.0270 0.6722 0.9077
vt 0.0270 0.9993 0.9077
vt 0.0141 0.9993 0.9240
vt 0.0141 0.6722 0.9240
vt 0.2476 0.9993 0.3691
vt 0.2476 0.6722 0.3691
vt 0.2606 0.6722 0.3854
vt 0.2606 0.9993 0.3854
vt 0.0407 0.9993 0.4494
vt 0.0407 0.6722 0.4494
vt 0.0994 0.6722 0.5007
vt 0.0994 0.9993 0.5007
vt 0.0994 0.6722 0.4993
vt 0.0994 0.9993 0.4993
vt 0.0407 0.9993 0.5506
vt 0.0407 0.6722 0.5506
vt 0.1438 0.6722 0.2388
vt 0.1438 0.9993 0.2388
vt 0.1309 0.9993 0.2226
vt 0.1309 0.6722 0.2226
vt 0.1309 0.9993 0.7774
vt 0.1309 0.6722 0.7774
vt 0.1438 0.6722 0.7611
vt 0.1438 0.9993 0.7611
vt 0.0961 0.6679 0.0187
vt 0.0961 0.3377 0.0187
vt 0.1136 0.3377 0.0187
vt 0.1136 0.6679 0.0187
vt 0.8045 0.3377 0.0112
vt 0.8150 0.3377 0.0112
vt 0.8150 0.6679 0.0112
vt 0.8045 0.6679 0.0112
vt 0.7975 0.6679 0.0112
vt 0.7975 0.3377 0.0112
vt 0.4569 0.5089 1.0000
vt 0.0104 0.6679 0.8946
vt 0.0104 0.3377 0.8946
vt 0.0172 0.3377 0.8946
vt 0.0172 0.6679 0.8946
vt 0.9007 0.6679 0.8755
vt 0.8939 0.6679 0.8755
vt 0.8939 0.3377 0.8755
vt 0.9007 0.3377 0.8755
vt 0.1153 0.5549 0.0075
vt 0.8830 0.5549 0.0075
vt 0.8830 0.6679 0.0075
vt 0.1136 0.6679 0.0075
vt 0.1136 0.3377 0.0075
vt 0.1153 0.3377 0.0075
vt 0.0281 0.6679 0.0000
vt 0.0281 0.5549 0.0000
vt 0.7958 0.5549 0.0000
vt 0.7975 0.6679 0.0000
vt 0.7958 0.3377 0.0000
vt 0.7975 0.3377 0.0000
vt 0.9109 0.5549 0.0307
vt 0.9109 0.6679 0.0307
vt 0.9041 0.6679 0.0307
vt 0.9041 0.5549 0.0307
vt 0.4569 0.5089 0.6579
vt 0.9041 0.3377 0.8736
vt 0.9109 0.3377 0.8736
vt 0.9109 0.5549 0.8736
vt 0.9041 0.5549 0.8736
vt 0.0279 0.5549 0.0077
vt 0.3083 0.5549 0.0077
vt 0.3083 0.6679 0.0077
vt 0.0275 0.6679 0.0077
vt 0.0275 0.3377 0.0077
vt 0.0279 0.3377 0.0077
vt 0.6028 0.6679 0.0000
vt 0.6028 0.5549 0.0000
vt 0.8832 0.5549 0.0000
vt 0.8836 0.6679 0.0000
vt 0.8832 0.3377 0.0000
vt 0.8836 0.3377 0.0000
vt 0.9109 0.5549 0.3383
vt 0.9109 0.6679 0.3383
vt 0.9040 0.6679 0.3383
vt 0.9040 0.5549 0.3383
vt 0.0002 0.6679 0.0300
vt 0.0002 0.3377 0.0300
vt 0.0072 0.3377 0.0300
vt 0.0072 0.6679 0.0300
vt 0.9109 0.5549 0.0304
vt 0.9040 0.5549 0.0304
vt 0.9040 0.3377 0.0304
vt 0.9109 0.3377 0.0304
vt 0.3426 0.6679 0.0077
vt 0.3426 0.5549 0.0077
vt 0.5957 0.5549 0.0077
vt 0.5973 0.6679 0.0077
vt 0.5957 0.3377 0.0077
vt 0.5973 0.3377 0.0077
vt 0.3155 0.5549 0.0000
vt 0.5685 0.5549 0.0000
vt 0.5685 0.6679 0.0000
vt 0.3138 0.6679 0.0000
vt 0.3138 0.3377 0.0000
vt 0.3155 0.3377 0.0000
vt 0.9109 0.3377 0.6557
vt 0.9109 0.6679 0.6557
vt 0.9040 0.6679 0.6557
vt 0.9040 0.3377 0.6557
vt 0.0002 0.6679 0.3759
vt 0.0002 0.5549 0.3759
vt 0.0072 0.5549 0.3759
vt 0.0072 0.6679 0.3759
vt 0.0002 0.3377 0.6538
vt 0.0072 0.3377 0.6538
vt 0.0072 0.5549 0.6538
vt 0.0002 0.5549 0.6538
vt 0.6281 0.5549 0.0077
vt 0.8743 0.5549 0.0077
vt 0.8743 0.6679 0.0077
vt 0.6281 0.6679 0.0077
vt 0.2830 0.5549 0.0000
vt 0.2830 0.6679 0.0000
vt 0.0368 0.6679 0.0000
vt 0.0368 0.5549 0.0000
vt 0.9109 0.5549 0.9598
vt 0.9109 0.6679 0.9598
vt 0.9040 0.6679 0.9598
vt 0.9040 0.5549 0.9598
vt 0.0002 0.6679 0.6895
vt 0.0002 0.5549 0.6895
vt 0.0072 0.5549 0.6895
vt 0.0072 0.6679 0.6895
vt 0.0070 0.6679 1.0000
vt 0.0070 0.3377 1.0000
vt 0.0172 0.3377 1.0000
vt 0.0172 0.5549 1.0000
vt 0.2643 0.5549 1.0000
vt 0.3013 0.5549 1.0000
vt 0.2643 0.3377 1.0000
vt 0.3013 0.3377 1.0000
vt 0.6365 0.5549 1.0000
vt 0.6726 0.5549 1.0000
vt 0.6365 0.3377 1.0000
vt 0.6726 0.3377 1.0000
vt 0.8846 0.5549 1.0000
vt 0.9041 0.5549 1.0000
vt 0.8846 0.3377 1.0000
vt 0.9041 0.3377 1.0000
vt 0.9041 0.6679 1.0000
vt 0.9109 0.5549 1.0000
vt 0.9109 0.6679 1.0000
vt 0.0019 0.5549 1.0000
vt 0.0019 0.3377 1.0000
vt 0.0072 0.3377 1.0000
vt 0.0072 0.6679 1.0000
vt 0.0002 0.6679 1.0000
vt 0.0002 0.5549 1.0000
vt 0.0002 0.3377 0.9925
vt 0.0019 0.3377 0.9925
vt 0.0019 0.5549 0.9925
vt 0.0002 0.5549 0.9925
vt 0.9109 0.5549 0.9981
vt 0.9041 0.5549 0.9981
vt 0.9041 0.3377 0.9981
vt 0.9109 0.3377 0.9981
vt 0.9109 0.5549 0.9711
vt 0.9040 0.5549 0.9711
vt 0.9040 0.3377 0.9711
vt 0.9109 0.3377 0.9711
vt 0.0002 0.3377 0.7383
vt 0.0072 0.3377 0.7383
vt 0.0072 0.5549 0.7383
vt 0.0002 0.5549 0.7383
vt 0.9109 0.5549 0.6986
vt 0.9040 0.5549 0.6986
vt 0.9040 0.3377 0.6986
vt 0.9109 0.3377 0.6986
vt 0.0002 0.3377 0.3306
vt 0.0072 0.3377 0.3306
vt 0.0072 0.5549 0.3306
vt 0.0002 0.5549 0.3306
vt 0.9109 0.5549 0.2900
vt 0.9040 0.5549 0.2900
vt 0.9040 0.3377 0.2900
vt 0.9109 0.3377 0.2900
vt 0.0002 0.3377 0.0187
vt 0.0072 0.3377 0.0187
vt 0.0072 0.5549 0.0187
vt 0.0002 0.5549 0.0187
vt 0.0281 0.3377 0.9861
vt 0.2898 0.3377 0.9861
vt 0.2898 0.6679 0.9861
vt 0.0281 0.6679 0.9861
vt 0.6979 0.3377 0.9936
vt 0.8830 0.3377 0.9936
vt 0.8830 0.6679 0.9936
vt 0.6979 0.6679 0.9936
vt 0.6909 0.6679 0.9936
vt 0.6213 0.6679 0.9936
vt 0.6213 0.3377 0.9936
vt 0.6909 0.3377 0.9936
vt 0.9051 0.3377 0.3180
vt 0.9051 0.6679 0.3180
vt 0.8983 0.6679 0.3180
vt 0.8983 0.3377 0.3180
vt 0.0060 0.6679 0.0307
vt 0.0060 0.3377 0.0307
vt 0.0128 0.3377 0.0307
vt 0.0128 0.6679 0.0307
vt 0.3212 0.3377 0.9861
vt 0.4747 0.3377 0.9861
vt 0.4747 0.5549 0.9861
vt 0.3212 0.6679 0.9861
vt 0.5829 0.5549 0.9861
vt 0.5829 0.3377 0.9861
vt 0.5857 0.3377 0.9861
vt 0.5857 0.6679 0.9861
vt 0.4364 0.5549 0.9936
vt 0.4364 0.3377 0.9936
vt 0.4433 0.3377 0.9936
vt 0.5899 0.3377 0.9936
vt 0.5899 0.6679 0.9936
vt 0.4433 0.6679 0.9936
vt 0.4364 0.6679 0.9936
vt 0.3282 0.5549 0.9936
vt 0.3254 0.3377 0.9936
vt 0.3282 0.3377 0.9936
vt 0.3254 0.6679 0.9936
vt 0.9051 0.3377 0.6429
vt 0.9051 0.6679 0.6429
vt 0.8983 0.6679 0.6429
vt 0.8983 0.3377 0.6429
vt 0.0060 0.6679 0.3525
vt 0.0060 0.3377 0.3525
vt 0.0128 0.3377 0.3525
vt 0.0128 0.6679 0.3525
vt 0.8983 0.5549 0.5211
vt 0.8983 0.3377 0.5211
vt 0.9051 0.3377 0.5211
vt 0.9051 0.5549 0.5211
vt 0.0060 0.3377 0.6398
vt 0.0128 0.3377 0.6398
vt 0.0128 0.5549 0.6398
vt 0.0060 0.5549 0.6398
vt 0.6185 0.3377 0.9842
vt 0.6185 0.6679 0.9842
vt 0.6121 0.6679 0.9842
vt 0.6121 0.3377 0.9842
vt 0.2926 0.3377 0.9917
vt 0.2990 0.3377 0.9917
vt 0.2990 0.6679 0.9917
vt 0.2926 0.6679 0.9917
vt 0.9034 0.3377 0.6790
vt 0.9034 0.6679 0.6790
vt 0.8966 0.6679 0.6790
vt 0.8966 0.3377 0.6790
vt 0.0077 0.6679 0.6719
vt 0.0077 0.3377 0.6719
vt 0.0145 0.3377 0.6719
vt 0.0145 0.6679 0.6719
vt 0.0351 0.6679 1.0000
vt 0.0351 0.5549 1.0000
vt 0.2549 0.5549 1.0000
vt 0.2631 0.6679 1.0000
vt 0.2549 0.3377 1.0000
vt 0.2631 0.3377 1.0000
vt 0.6562 0.5549 0.9925
vt 0.8760 0.5549 0.9925
vt 0.8760 0.6679 0.9925
vt 0.6480 0.6679 0.9925
vt 0.6480 0.3377 0.9925
vt 0.6562 0.3377 0.9925
vt 0.0070 0.3377 0.7113
vt 0.0070 0.6679 0.7113
vt 0.0002 0.6679 0.7113
vt 0.0002 0.3377 0.7113
vt 0.9041 0.6679 0.9617
vt 0.9041 0.5549 0.9617
vt 0.9109 0.5549 0.9617
vt 0.9109 0.6679 0.9617
vt 0.9109 0.5549 0.7203
vt 0.9041 0.5549 0.7203
vt 0.9041 0.3377 0.7203
vt 0.9109 0.3377 0.7203
vt 0.0002 0.6679 0.9923
vt 0.0002 0.3377 0.9923
vt 0.0265 0.3377 0.9923
vt 0.0265 0.5549 0.9923
vt 0.9042 0.6679 0.9923
vt 0.2386 0.5549 0.9923
vt 0.2386 0.3377 0.9923
vt 0.2746 0.3377 0.9923
vt 0.2746 0.5549 0.9923
vt 0.6098 0.5549 0.9923
vt 0.6098 0.3377 0.9923
vt 0.6468 0.3377 0.9923
vt 0.6468 0.5549 0.9923
vt 0.8939 0.5549 0.9923
vt 0.8939 0.3377 0.9923
vt 0.9042 0.3377 0.9923
# 425 texture coords

g B3A_T_tujian_005_zi
usemtl T_tujian_005
s off
f 1/1/1 2/2/1 3/3/1 4/4/1 
f 4/4/2 3/3/2 5/5/2 6/6/2 
f 5/5/1 7/7/1 8/8/1 6/6/1 
f 9/9/3 10/10/3 11/11/3 12/12/3 
f 13/13/4 14/14/4 15/15/4 16/16/4 
f 11/11/3 13/13/3 16/16/3 12/12/3 
f 8/17/5 9/18/5 12/19/5 6/20/5 
f 12/21/6 16/21/6 4/21/6 6/21/6 
f 4/22/7 16/23/7 15/24/7 1/25/7 
f 3/26/8 2/27/8 14/28/8 13/29/8 
f 7/30/9 5/31/9 11/32/9 10/33/9 
f 11/34/10 5/35/10 3/36/10 13/37/10 
f 17/38/3 18/39/3 19/40/3 20/41/3 
f 21/42/1 22/43/1 23/44/1 24/45/1 
f 21/46/7 24/47/7 18/48/7 17/49/7 
f 18/21/6 24/21/6 23/21/6 19/21/6 
f 23/50/5 22/51/5 20/52/5 19/53/5 
f 25/54/3 26/55/3 27/56/3 28/57/3 
f 29/58/1 30/59/1 31/60/1 32/61/1 
f 29/62/7 32/63/7 26/64/7 25/65/7 
f 26/21/6 32/21/6 31/21/6 27/21/6 
f 31/66/5 30/67/5 28/68/5 27/69/5 
f 33/70/11 34/71/11 35/72/11 36/73/11 
f 37/74/11 38/75/11 39/76/11 40/77/11 
f 35/72/12 37/74/12 40/77/12 36/73/12 
f 41/78/3 42/79/3 43/80/3 44/81/3 
f 44/81/13 43/80/13 45/82/13 46/83/13 
f 45/82/3 47/84/3 48/85/3 46/83/3 
f 41/86/5 44/87/5 40/88/5 39/89/5 
f 40/21/6 44/21/6 46/21/6 36/21/6 
f 46/90/9 48/91/9 33/92/9 36/93/9 
f 35/94/8 34/95/8 47/96/8 45/97/8 
f 38/98/9 37/99/9 43/100/9 42/101/9 
f 37/102/10 35/103/10 45/104/10 43/105/10 
f 49/106/8 50/107/8 51/108/8 52/109/8 
f 53/110/7 54/111/7 55/112/7 56/113/7 
f 51/114/3 53/115/3 56/116/3 52/117/3 
f 56/21/6 55/21/6 49/21/6 52/21/6 
f 49/118/11 55/119/11 54/120/11 50/121/11 
f 57/122/9 58/123/9 59/124/9 60/125/9 
f 61/126/5 62/127/5 63/128/5 64/129/5 
f 61/130/1 64/131/1 58/132/1 57/133/1 
f 64/21/6 63/21/6 59/21/6 58/21/6 
f 63/134/4 62/135/4 60/136/4 59/137/4 
f 65/138/5 66/139/5 67/140/5 68/141/5 
f 69/142/9 70/143/9 71/144/9 72/145/9 
f 72/146/4 71/147/4 68/148/4 67/149/4 
f 71/21/6 70/21/6 65/21/6 68/21/6 
f 70/150/1 69/151/1 66/152/1 65/153/1 
f 73/154/14 74/155/14 75/156/14 76/157/14 
f 77/158/15 78/159/15 79/160/15 80/161/15 
f 77/158/15 80/161/15 81/162/15 82/163/15 
f 76/164/6 81/164/6 80/164/6 73/164/6 
f 73/164/6 80/164/6 79/164/6 
f 79/165/16 78/166/16 74/167/16 73/168/16 
f 81/169/17 76/170/17 75/171/17 82/172/17 
f 83/173/14 84/174/14 85/175/14 86/176/14 
f 83/173/14 86/176/14 87/177/14 88/178/14 
f 89/179/15 90/180/15 91/181/15 92/182/15 
f 91/181/15 93/183/15 94/184/15 92/182/15 
f 90/185/17 89/186/17 85/187/17 84/188/17 
f 89/164/6 92/164/6 86/164/6 85/164/6 
f 91/189/10 90/189/10 84/189/10 83/189/10 
f 88/190/17 93/191/17 91/192/17 83/193/17 
f 95/194/16 96/195/16 97/196/16 98/197/16 
f 95/194/16 98/197/16 99/198/16 100/199/16 
f 101/200/17 102/201/17 103/202/17 104/203/17 
f 103/202/17 105/204/17 106/205/17 104/203/17 
f 102/206/14 101/207/14 97/208/14 96/209/14 
f 101/164/6 104/164/6 98/164/6 97/164/6 
f 104/210/15 106/211/15 99/212/15 98/213/15 
f 102/189/10 96/189/10 95/189/10 103/189/10 
f 103/214/14 95/215/14 100/216/14 105/217/14 
f 107/218/16 108/219/16 109/220/16 110/221/16 
f 109/220/16 111/222/16 112/223/16 110/221/16 
f 113/224/17 114/225/17 115/226/17 116/227/17 
f 113/224/17 116/227/17 117/228/17 118/229/17 
f 117/230/14 116/231/14 110/232/14 112/233/14 
f 116/164/6 115/164/6 107/164/6 110/164/6 
f 115/234/15 114/235/15 108/236/15 107/237/15 
f 113/189/10 109/189/10 108/189/10 114/189/10 
f 118/238/15 111/239/15 109/240/15 113/241/15 
f 119/242/16 120/243/16 121/244/16 122/245/16 
f 123/246/17 124/247/17 125/248/17 126/249/17 
f 126/250/14 125/251/14 121/252/14 120/253/14 
f 125/164/6 124/164/6 122/164/6 121/164/6 
f 124/254/15 123/255/15 119/256/15 122/257/15 
f 126/189/10 120/189/10 119/189/10 123/189/10 
f 127/258/16 128/259/16 129/260/16 130/261/16 
f 127/258/16 130/261/16 131/262/16 132/263/16 
f 131/262/16 133/264/16 134/265/16 132/263/16 
f 127/258/16 132/263/16 135/266/16 136/267/16 
f 135/266/16 137/268/16 138/269/16 136/267/16 
f 127/258/16 136/267/16 139/270/16 140/271/16 
f 139/270/16 141/272/16 142/273/16 140/271/16 
f 143/274/16 127/258/16 140/271/16 144/275/16 
f 143/274/16 144/275/16 145/276/16 
f 143/164/6 145/164/6 146/164/6 147/164/6 
f 143/164/6 147/164/6 127/164/6 
f 148/277/14 149/278/14 150/279/14 146/280/14 
f 148/277/14 146/280/14 145/281/14 144/282/14 
f 142/283/14 151/284/14 152/285/14 140/286/14 
f 148/287/16 152/288/16 151/289/16 149/290/16 
f 144/189/10 140/189/10 152/189/10 148/189/10 
f 139/291/15 153/292/15 154/293/15 141/294/15 
f 136/189/10 155/189/10 153/189/10 139/189/10 
f 138/295/14 156/296/14 155/297/14 136/298/14 
f 135/299/15 157/300/15 158/301/15 137/302/15 
f 132/189/10 159/189/10 157/189/10 135/189/10 
f 134/303/14 160/304/14 159/305/14 132/306/14 
f 131/307/15 161/308/15 162/309/15 133/310/15 
f 130/189/10 163/189/10 161/189/10 131/189/10 
f 129/311/14 164/312/14 163/313/14 130/314/14 
f 165/315/15 166/316/15 167/317/15 168/318/15 
f 169/319/14 170/320/14 171/321/14 172/322/14 
f 173/323/14 174/324/14 175/325/14 176/326/14 
f 172/322/14 173/323/14 176/326/14 169/319/14 
f 175/327/16 174/328/16 167/329/16 166/330/16 
f 167/164/6 174/164/6 173/164/6 172/164/6 
f 168/164/6 167/164/6 172/164/6 171/164/6 
f 171/331/17 170/332/17 165/333/17 168/334/17 
f 177/335/15 178/336/15 179/337/15 180/338/15 
f 181/339/15 182/340/15 183/341/15 184/342/15 
f 179/337/15 181/339/15 184/342/15 180/338/15 
f 185/343/14 186/344/14 187/345/14 188/346/14 
f 185/343/14 188/346/14 189/347/14 190/348/14 
f 185/343/14 190/348/14 191/349/14 192/350/14 
f 193/351/14 194/352/14 192/350/14 195/353/14 
f 191/349/14 195/353/14 192/350/14 
f 193/354/16 195/355/16 184/356/16 183/357/16 
f 184/164/6 195/164/6 191/164/6 190/164/6 
f 180/164/6 184/164/6 190/164/6 189/164/6 
f 189/358/17 188/359/17 177/360/17 180/361/17 
f 179/362/16 178/363/16 186/364/16 185/365/16 
f 192/189/10 181/189/10 179/189/10 185/189/10 
f 194/366/17 182/367/17 181/368/17 192/369/17 
f 196/370/15 197/371/15 198/372/15 199/373/15 
f 200/374/14 201/375/14 202/376/14 203/377/14 
f 200/378/16 203/379/16 197/380/16 196/381/16 
f 197/164/6 203/164/6 202/164/6 198/164/6 
f 202/382/17 201/383/17 199/384/17 198/385/17 
f 204/386/14 205/387/14 206/388/14 207/389/14 
f 206/388/14 208/390/14 209/391/14 207/389/14 
f 210/392/15 211/393/15 212/394/15 213/395/15 
f 210/392/15 213/395/15 214/396/15 215/397/15 
f 214/398/17 213/399/17 207/400/17 209/401/17 
f 213/164/6 212/164/6 204/164/6 207/164/6 
f 212/402/16 211/403/16 205/404/16 204/405/16 
f 206/406/16 210/407/16 215/408/16 208/409/16 
f 205/189/10 211/189/10 210/189/10 206/189/10 
f 146/410/17 150/411/17 154/412/17 153/413/17 
f 147/414/17 146/410/17 153/413/17 155/415/17 
f 155/415/17 156/416/17 158/417/17 157/418/17 
f 147/414/17 155/415/17 157/418/17 159/419/17 
f 159/419/17 160/420/17 162/421/17 161/422/17 
f 147/414/17 159/419/17 161/422/17 163/423/17 
f 147/414/17 163/423/17 164/424/17 216/425/17 
# 153 polygons - 4 triangles

