# 3ds Max Wavefront OBJ Exporter v0.97b - (c)2007 guruware
# File Created: 24.01.2018 18:21:27

mtllib B3A_T_tujian_004_lv_pfjf2.mtl

#
# object B3A_T_tujian_004_lv_pfjf2
#

v  522.1959 129.0089 33.4215
v  557.1615 129.0089 33.4215
v  557.1615 172.9514 33.4215
v  522.1959 172.9514 33.4215
v  557.1615 129.0089 28.6971
v  557.1615 172.9514 28.6971
v  522.1959 172.9514 28.6971
v  522.1959 129.0089 28.6971
v  482.3934 129.0089 218.6412
v  482.3934 129.0089 253.6066
v  482.3934 172.9514 253.6066
v  482.3934 172.9514 218.6412
v  487.1178 129.0089 253.6066
v  487.1178 172.9514 253.6066
v  487.1178 172.9514 218.6412
v  487.1178 129.0089 218.6412
# 16 vertices

vn 0.0000 0.0000 1.0000
vn 1.0000 0.0000 -0.0000
vn -1.0000 0.0000 -0.0000
vn 0.0000 1.0000 -0.0000
vn 0.0000 0.0000 -1.0000
# 5 vertex normals

vt 0.0004 0.5823 1.0000
vt 0.3903 0.5823 1.0000
vt 0.3903 0.9998 1.0000
vt 0.0004 0.9998 1.0000
vt 0.0354 0.7910 -0.0000
vt 0.0354 0.7910 1.0000
vt 0.3903 0.5823 -0.0000
vt 0.0004 0.5823 -0.0000
vt 0.0004 0.9998 -0.0000
vt 0.3903 0.9998 -0.0000
# 10 texture coords

g B3A_T_tujian_004_lv_pfjf2
usemtl T_tujian_004
s 1
f 1/1/1 2/2/1 3/3/1 4/4/1 
s off
f 5/5/2 6/5/2 3/6/2 2/6/2 
f 7/5/3 8/5/3 1/6/3 4/6/3 
f 6/5/4 7/5/4 4/6/4 3/6/4 
f 5/7/5 8/8/5 7/9/5 6/10/5 
s 1
f 9/1/3 10/2/3 11/3/3 12/4/3 
s off
f 13/5/1 14/5/1 11/6/1 10/6/1 
f 15/5/5 16/5/5 9/6/5 12/6/5 
f 14/5/4 15/5/4 12/6/4 11/6/4 
f 13/7/2 16/8/2 15/9/2 14/10/2 
# 10 polygons

