# 3ds Max Wavefront OBJ Exporter v0.97b - (c)2007 guruware
# File Created: 24.01.2018 18:14:02

mtllib B3A_T_tujian_006_lv_pfjf3.mtl

#
# object B3A_T_tujian_006_lv_pfjf3
#

v  581.2552 129.0089 -673.9110
v  439.6177 129.0089 -673.9110
v  439.6177 129.0089 -506.6464
v  581.2552 129.0089 -506.6461
# 4 vertices

vn -0.0000 1.0000 0.0000
# 1 vertex normals

vt 0.8182 0.8278 0.5151
vt 0.7475 0.8278 0.5151
vt 0.7475 0.7593 0.5151
vt 0.8182 0.7593 0.5151
# 4 texture coords

g B3A_T_tujian_006_lv_pfjf3
usemtl T_tujian_006
s off
f 1/1/1 2/2/1 3/3/1 4/4/1 
# 1 polygons

