# 3ds Max Wavefront OBJ Exporter v0.97b - (c)2007 guruware
# File Created: 24.01.2018 18:23:38

mtllib B3A_T_pj_lanse_01_lv_btm.mtl

#
# object B3A_T_pj_lanse_01_lv_btm
#

v  -932.9502 172.4790 -364.8960
v  -932.9502 129.0090 -364.8960
v  -932.9502 129.0090 -355.4459
v  -932.9502 200.8290 -355.4459
v  -932.9502 172.4790 -383.7960
v  -932.9502 172.4790 -608.7061
v  -932.9502 200.8290 -671.7053
v  -932.9502 172.4790 -642.7261
v  -932.9502 129.0090 -671.7053
v  -932.9502 129.0090 -642.7261
v  -932.9502 129.0090 -383.7960
v  -932.9502 129.0090 -608.7061
v  -931.6896 172.4790 -642.7261
v  -931.6896 129.0090 -642.7261
v  -931.6896 129.0090 -671.7053
v  -931.6896 200.8290 -671.7053
v  -931.6896 172.4790 -608.7061
v  -931.6896 200.8290 -355.4459
v  -931.6896 172.4790 -383.7960
v  -931.6896 172.4790 -364.8960
v  -931.6896 129.0090 -355.4459
v  -931.6896 129.0090 -364.8960
v  -931.6896 129.0090 -383.7960
v  -931.6896 129.0090 -608.7061
v  -971.9154 200.8290 -671.7053
v  -971.9154 129.0090 -671.7053
v  -931.6896 129.0090 -672.9659
v  -971.9154 129.0090 -672.9659
v  -971.9154 200.8290 -672.9659
v  -931.6896 200.8290 -672.9659
v  -987.0354 129.0090 -671.7053
v  -987.0354 200.8290 -671.7053
v  -1018.6295 200.8290 -671.7053
v  -1018.6295 129.0090 -671.7053
v  -1018.6295 129.0090 -672.9659
v  -1018.6295 200.8290 -672.9659
v  -987.0354 200.8290 -672.9659
v  -987.0354 129.0090 -672.9659
v  -946.8094 129.0090 -340.3260
v  -946.8094 200.8290 -340.3260
v  -1018.6295 200.8290 -340.3260
v  -1018.6295 129.0090 -340.3260
v  -1018.6295 129.0090 -341.5865
v  -1018.6295 200.8290 -341.5865
v  -946.8094 200.8290 -341.5865
v  -946.8094 129.0090 -341.5865
v  -959.3696 215.2402 -356.8682
v  -959.3696 212.9272 -356.0262
v  -959.3696 210.4657 -356.0262
v  -959.3696 217.1258 -358.4503
v  -959.3696 208.1527 -356.8682
v  -959.3696 218.3565 -360.5819
v  -959.3696 206.2671 -358.4503
v  -959.3696 218.7840 -363.0061
v  -959.3696 205.0364 -360.5819
v  -959.3696 204.6090 -363.0061
v  -959.3696 204.6090 -378.0807
v  -959.3696 218.7840 -381.6149
v  -959.3696 204.2130 -382.1189
v  -959.3696 218.3880 -385.6531
v  -959.3696 203.0403 -386.0033
v  -959.3696 217.2153 -389.5375
v  -959.3696 132.9017 -520.2653
v  -959.3696 147.0767 -523.7994
v  -959.3696 132.7890 -548.2594
v  -959.3696 146.9640 -548.2594
v  -959.3696 146.5365 -550.6835
v  -959.3696 145.3058 -552.8152
v  -959.3696 133.2164 -550.6835
v  -959.3696 143.4202 -554.3972
v  -959.3696 134.4471 -552.8152
v  -959.3696 141.1072 -555.2391
v  -959.3696 136.3327 -554.3972
v  -959.3696 138.6457 -555.2391
v  -986.6859 215.2402 -356.8682
v  -986.6859 212.9272 -356.0262
v  -986.6859 210.4657 -356.0262
v  -986.6859 217.1258 -358.4503
v  -986.6859 208.1527 -356.8682
v  -986.6859 218.3566 -360.5819
v  -986.6859 206.2671 -358.4503
v  -986.6859 218.7840 -363.0061
v  -986.6859 205.0364 -360.5819
v  -986.6859 204.6090 -363.0061
v  -986.6859 204.6090 -378.0807
v  -986.6859 218.7840 -381.6149
v  -986.6859 204.2130 -382.1189
v  -986.6859 218.3880 -385.6531
v  -986.6859 203.0403 -386.0033
v  -986.6859 217.2153 -389.5375
v  -986.6859 132.9017 -520.2653
v  -986.6859 147.0767 -523.7994
v  -986.6859 133.2164 -550.6835
v  -986.6859 146.9640 -548.2594
v  -986.6859 145.3058 -552.8152
v  -986.6859 136.3327 -554.3972
v  -986.6859 141.1072 -555.2391
v  -1013.9045 215.2402 -356.8682
v  -1013.9045 212.9272 -356.0262
v  -1013.9045 210.4657 -356.0262
v  -1013.9045 217.1258 -358.4503
v  -1013.9045 208.1527 -356.8682
v  -1013.9045 218.3566 -360.5819
v  -1013.9045 206.2671 -358.4503
v  -1013.9045 218.7840 -363.0061
v  -1013.9045 205.0364 -360.5819
v  -1013.9045 204.6090 -363.0061
v  -1013.9045 204.6090 -378.0807
v  -1013.9045 218.7840 -381.6149
v  -1013.9045 204.2130 -382.1189
v  -1013.9045 218.3880 -385.6531
v  -1013.9045 203.0403 -386.0033
v  -1013.9045 217.2153 -389.5375
v  -1013.9045 132.9017 -520.2653
v  -1013.9045 147.0767 -523.7994
v  -1013.9045 133.2164 -550.6835
v  -1013.9045 146.9640 -548.2594
v  -1013.9045 145.3058 -552.8152
v  -1013.9045 136.3327 -554.3972
v  -1013.9045 141.1072 -555.2391
# 120 vertices

vn -1.0000 0.0000 -0.0000
vn 1.0000 0.0000 0.0000
vn 0.0000 0.0000 1.0000
vn 0.0000 1.0000 -0.0000
vn 0.0000 0.0000 -1.0000
vn 0.0000 -1.0000 -0.0000
vn 1.0000 0.0000 -0.0000
vn -0.0000 0.0000 1.0000
vn 1.0000 -0.0000 0.0000
# 9 vertex normals

vt 0.8648 0.8935 0.0469
vt 0.8648 0.8935 0.0475
vt 0.8648 0.8935 0.5146
vt 0.8648 0.8935 0.7975
vt 0.8648 0.8935 0.9981
vt 0.8648 0.8935 0.5291
vt 0.8648 0.8935 0.4827
vt 0.8648 0.8935 0.5580
vt 0.8648 0.8935 0.9018
vt 0.8648 0.8935 0.9538
vt 0.8648 0.8935 1.0000
vt 0.8648 0.8935 0.0255
vt 0.8648 0.8935 0.0173
vt 0.8648 0.8935 0.0000
vt 0.8648 0.8935 0.4915
vt 0.8648 0.8935 0.4934
vt 0.8648 0.8935 0.0393
vt 0.8648 0.8935 0.0324
vt 0.8648 0.8935 0.0175
vt 0.8648 0.8935 0.0026
# 20 texture coords

g B3A_T_pj_lanse_01_lv_btm
usemtl pj_lanse_01
s off
f 1/1/1 2/1/1 3/1/1 4/1/1 
f 5/1/1 1/1/1 4/1/1 6/1/1 
f 6/1/1 4/1/1 7/1/1 8/1/1 
f 8/1/1 7/1/1 9/1/1 10/1/1 
f 11/1/1 5/1/1 6/1/1 12/1/1 
f 13/2/2 14/2/2 15/2/2 16/2/2 
f 17/2/2 13/2/2 16/2/2 18/2/2 
f 19/2/2 17/2/2 18/2/2 20/2/2 
f 20/2/2 18/2/2 21/2/2 22/2/2 
f 17/2/2 19/2/2 23/2/2 24/2/2 
f 21/3/3 18/3/3 4/3/3 3/3/3 
f 18/4/4 16/4/4 7/4/4 4/4/4 
f 7/5/5 16/5/5 15/5/5 9/5/5 
f 1/6/5 20/6/5 22/6/5 2/6/5 
f 5/7/6 19/7/6 20/7/6 1/7/6 
f 11/8/3 23/8/3 19/8/3 5/8/3 
f 17/9/5 24/9/5 12/9/5 6/9/5 
f 8/7/6 13/7/6 17/7/6 6/7/6 
f 10/10/3 14/10/3 13/10/3 8/10/3 
f 25/5/3 26/5/3 9/5/3 7/5/3 
f 16/5/3 7/5/3 9/5/3 15/5/3 
f 27/11/5 28/11/5 29/11/5 30/11/5 
f 7/4/4 16/4/4 30/4/4 29/4/4 
f 7/4/4 29/4/4 25/4/4 
f 29/12/1 28/12/1 26/12/1 25/12/1 
f 27/2/2 30/2/2 16/2/2 15/2/2 
f 31/5/3 32/5/3 33/5/3 34/5/3 
f 35/11/5 36/11/5 37/11/5 38/11/5 
f 38/13/7 37/13/7 32/13/7 31/13/7 
f 37/4/4 36/4/4 33/4/4 32/4/4 
f 36/14/1 35/14/1 34/14/1 33/14/1 
f 39/15/8 40/15/8 41/15/8 42/15/8 
f 43/16/5 44/16/5 45/16/5 46/16/5 
f 46/17/7 45/17/7 40/17/7 39/17/7 
f 45/4/4 44/4/4 41/4/4 40/4/4 
f 44/14/1 43/14/1 42/14/1 41/14/1 
f 47/18/2 48/18/2 49/18/2 50/18/2 
f 50/18/2 49/18/2 51/18/2 52/18/2 
f 52/18/2 51/18/2 53/18/2 54/18/2 
f 54/18/2 53/18/2 55/18/2 56/18/2 
f 54/18/2 56/18/2 57/18/2 58/18/2 
f 58/18/2 57/18/2 59/18/2 60/18/2 
f 60/18/2 59/18/2 61/18/2 62/18/2 
f 62/18/2 61/18/2 63/18/2 64/18/2 
f 64/18/2 63/18/2 65/18/2 66/18/2 
f 67/18/2 66/18/2 65/18/2 68/18/2 
f 68/18/2 65/18/2 69/18/2 70/18/2 
f 70/18/2 69/18/2 71/18/2 72/18/2 
f 72/18/2 71/18/2 73/18/2 74/18/2 
f 75/19/9 76/19/9 77/19/9 78/19/9 
f 78/19/9 77/19/9 79/19/9 80/19/9 
f 80/19/9 79/19/9 81/19/9 82/19/9 
f 82/19/9 81/19/9 83/19/9 84/19/9 
f 82/19/9 84/19/9 85/19/9 86/19/9 
f 86/19/9 85/19/9 87/19/9 88/19/9 
f 88/19/9 87/19/9 89/19/9 90/19/9 
f 90/19/9 89/19/9 91/19/9 92/19/9 
f 92/19/9 91/19/9 93/19/9 94/19/9 
f 95/19/9 94/19/9 93/19/9 96/19/9 
f 96/19/9 97/19/9 95/19/9 
f 98/20/2 99/20/2 100/20/2 101/20/2 
f 101/20/2 100/20/2 102/20/2 103/20/2 
f 103/20/2 102/20/2 104/20/2 105/20/2 
f 105/20/2 104/20/2 106/20/2 107/20/2 
f 105/20/2 107/20/2 108/20/2 109/20/2 
f 109/20/2 108/20/2 110/20/2 111/20/2 
f 111/20/2 110/20/2 112/20/2 113/20/2 
f 113/20/2 112/20/2 114/20/2 115/20/2 
f 115/20/2 114/20/2 116/20/2 117/20/2 
f 118/20/2 117/20/2 116/20/2 119/20/2 
f 119/20/2 120/20/2 118/20/2 
# 68 polygons - 3 triangles

