# 3ds Max Wavefront OBJ Exporter v0.97b - (c)2007 guruware
# File Created: 24.01.2018 18:38:33

mtllib B3A_T_tujian_005_lv_xfjf1.mtl

#
# object B3A_T_tujian_005_lv_xfjf1
#

v  337.7568 200.8289 922.8831
v  334.7924 200.8289 925.2335
v  340.8458 200.8289 931.6395
v  344.2194 200.8289 929.6331
v  412.6676 200.8289 957.8977
v  412.6676 200.8289 954.1091
v  403.3239 200.8289 954.2705
v  400.0757 200.8289 957.8897
v  394.0133 200.8289 953.4700
v  391.3191 200.8289 956.8877
v  384.8346 200.8289 951.7158
v  382.6937 200.8289 955.0741
v  375.8846 200.8289 949.0267
v  374.2755 200.8289 952.4648
v  367.2592 200.8289 945.4313
v  362.1940 200.8289 947.1104
v  359.0492 200.8289 940.9673
v  354.6064 200.8289 942.6260
v  351.3422 200.8289 935.6825
v  347.4697 200.8289 937.4541
v  335.3463 129.0089 919.9701
v  332.3848 129.0089 922.3187
v  332.3848 200.8289 922.3187
v  335.3463 200.8289 919.9701
v  338.3082 200.8289 917.6213
v  338.3082 129.0089 917.6213
v  337.7568 129.0089 922.8831
v  340.7212 129.0089 920.5321
v  340.7212 200.8289 920.5321
v  334.7924 129.0089 925.2335
v  339.4990 200.8289 919.0900
v  333.5739 200.8289 923.7880
v  333.5739 129.0089 923.7880
v  339.4990 129.0089 919.0900
v  332.9348 200.8289 916.7875
v  335.9972 200.8289 914.5713
v  328.1584 200.8289 901.4457
v  324.7552 200.8289 903.0912
v  326.5720 200.8289 906.6470
v  329.8994 200.8289 904.8536
v  328.5435 200.8289 910.1194
v  331.7888 200.8289 908.1814
v  333.8226 200.8289 911.4229
v  330.6658 200.8289 913.5017
v  335.9972 129.0089 914.5713
v  333.8226 129.0089 911.4229
v  329.8994 129.0089 904.8536
v  328.1584 129.0089 901.4457
v  331.7888 129.0089 908.1814
v  324.7552 129.0089 903.0912
v  330.6658 129.0089 913.5017
v  326.5720 129.0089 906.6470
v  328.5435 129.0089 910.1194
v  332.9348 129.0089 916.7875
v  327.0505 172.4789 847.5387
v  327.0505 129.0089 847.5387
v  327.0505 129.0089 838.0887
v  327.0505 129.0089 834.3087
v  327.0505 200.8289 834.3087
v  327.0505 200.8289 838.0887
v  327.0505 200.8289 888.1736
v  327.0505 172.4789 881.5586
v  327.0505 129.0089 888.1736
v  327.0505 129.0089 881.5586
v  323.2706 172.4789 881.5586
v  323.2706 129.0089 881.5586
v  323.2706 129.0089 888.1736
v  323.2706 200.8289 888.1736
v  323.2706 129.0089 834.3087
v  323.2706 129.0089 847.5387
v  323.2706 172.4789 847.5387
v  323.2706 200.8289 834.3087
v  423.4404 172.4789 838.0887
v  423.4404 129.0089 838.0887
v  482.0305 129.0089 838.0887
v  485.8107 200.8289 838.0887
v  485.8107 129.0089 838.0887
v  404.5404 172.4789 838.0887
v  482.0305 200.8289 838.0887
v  404.5404 129.0089 838.0887
v  404.5404 172.4789 834.3087
v  404.5404 129.0089 834.3087
v  485.8107 200.8289 834.3087
v  485.8107 129.0089 834.3087
v  423.4404 129.0089 834.3087
v  423.4404 172.4789 834.3087
v  482.0305 129.0089 888.1736
v  482.0305 200.8289 888.1736
v  485.8107 200.8289 888.1736
v  485.8107 129.0089 888.1736
v  493.3706 129.0089 950.5438
v  493.3706 200.8289 950.5438
v  493.3706 200.8289 903.2938
v  493.3706 129.0089 903.2938
v  497.1504 200.8289 950.5438
v  497.1504 129.0089 950.5438
v  497.1504 129.0089 903.2938
v  497.1504 200.8289 903.2938
v  334.7924 129.0090 925.2335
v  340.8459 129.0090 931.6395
v  344.2195 129.0090 929.6331
v  337.7568 129.0090 922.8831
v  351.3422 129.0090 935.6825
v  347.4701 129.0090 937.4541
v  354.6067 129.0090 942.6260
v  359.0492 129.0090 940.9673
v  362.1941 129.0090 947.1104
v  367.2592 129.0090 945.4313
v  374.2755 129.0090 952.4648
v  375.8848 129.0090 949.0267
v  384.8346 129.0090 951.7158
v  382.6940 129.0090 955.0741
v  391.3191 129.0090 956.8877
v  400.0757 129.0090 957.8897
v  394.0133 129.0090 953.4700
v  403.3242 129.0090 954.2705
v  412.6676 129.0090 954.1091
v  412.6676 129.0090 957.8977
# 118 vertices

vn 0.0000 1.0000 -0.0000
vn -0.6213 0.0000 -0.7835
vn 0.6214 0.0000 0.7835
vn 0.6213 0.0000 0.7836
vn -0.7710 0.0003 0.6368
vn -0.7710 -0.0003 0.6368
vn 0.7699 -0.0003 -0.6382
vn 0.7699 0.0003 -0.6382
vn 0.8101 -0.0012 -0.5863
vn 0.8803 -0.0012 -0.4744
vn 0.8641 -0.0018 -0.5033
vn 0.8101 0.0012 -0.5863
vn -0.4353 0.0000 -0.9003
vn -0.8101 -0.0012 0.5862
vn -0.8803 -0.0012 0.4745
vn -0.8641 -0.0018 0.5033
vn -0.8101 0.0012 0.5862
vn 1.0000 0.0000 -0.0000
vn -1.0000 0.0000 -0.0000
vn 0.0000 0.0000 1.0000
vn 0.0000 0.0000 -1.0000
vn 0.0000 -1.0000 -0.0000
vn 0.0000 -0.0000 -1.0000
vn -0.7268 -0.0000 0.6868
vn 0.7223 0.0000 -0.6916
vn 0.6473 0.0000 -0.7622
vn -0.6597 -0.0000 0.7515
vn -0.5868 -0.0000 0.8097
vn 0.5655 0.0000 -0.8247
vn -0.5088 -0.0000 0.8609
vn 0.4777 0.0000 -0.8785
vn -0.4052 -0.0000 0.9142
vn 0.3847 0.0000 -0.9230
vn 0.2878 0.0000 -0.9577
vn -0.2961 -0.0000 0.9552
vn -0.2058 -0.0000 0.9786
vn -0.1137 0.0000 0.9935
vn 0.1877 0.0000 -0.9822
vn 0.0857 0.0000 -0.9963
vn -0.0173 -0.0000 -0.9999
vn -0.0006 0.0000 1.0000
# 41 vertex normals

vt 0.4698 0.8395 1.0000
vt 0.8877 0.6691 0.1604
vt 0.8921 0.6691 0.1594
vt 0.8921 0.9999 0.1594
vt 0.8877 0.9999 0.1604
vt 0.8833 0.9999 0.1614
vt 0.8833 0.6691 0.1614
vt 0.0558 0.6691 0.1592
vt 0.0602 0.6691 0.1602
vt 0.0602 0.9999 0.1602
vt 0.0558 0.9999 0.1592
vt 0.0514 0.9999 0.1582
vt 0.0514 0.6691 0.1582
vt 0.5190 0.6691 0.6959
vt 0.5222 0.6691 0.6965
vt 0.5222 0.9999 0.6965
vt 0.5158 0.6691 0.6953
vt 0.5190 0.9999 0.6959
vt 0.5158 0.9999 0.6953
vt 0.5426 0.6691 0.6989
vt 0.5485 0.6691 0.6983
vt 0.5485 0.9999 0.6983
vt 0.5368 0.6691 0.6995
vt 0.5426 0.9999 0.6989
vt 0.5368 0.9999 0.6995
vt 0.5607 0.6691 0.6971
vt 0.5733 0.6691 0.6960
vt 0.5733 0.9999 0.6960
vt 0.5996 0.6691 0.6940
vt 0.6132 0.6691 0.6931
vt 0.6132 0.9999 0.6931
vt 0.5863 0.6691 0.6950
vt 0.5996 0.9999 0.6940
vt 0.5863 0.9999 0.6950
vt 0.5607 0.9999 0.6971
vt 0.9036 0.9999 0.1676
vt 0.8985 0.9999 0.1683
vt 0.8985 0.6691 0.1683
vt 0.9036 0.6691 0.1676
vt 0.5218 0.9999 0.6968
vt 0.5127 0.9999 0.6956
vt 0.5032 0.9999 0.6944
vt 0.5032 0.6691 0.6944
vt 0.4834 0.9999 0.6923
vt 0.4731 0.9999 0.6914
vt 0.4731 0.6691 0.6914
vt 0.4934 0.9999 0.6933
vt 0.4834 0.6691 0.6923
vt 0.4934 0.6691 0.6933
vt 0.5127 0.6691 0.6956
vt 0.5218 0.6691 0.6968
vt 0.6745 0.8693 0.6925
vt 0.6745 0.6691 0.6925
vt 0.6967 0.6691 0.6925
vt 0.7056 0.6691 0.6925
vt 0.7056 0.9999 0.6925
vt 0.6967 0.9999 0.6925
vt 0.5792 0.9999 0.6925
vt 0.5947 0.8693 0.6925
vt 0.5792 0.6691 0.6925
vt 0.5947 0.6691 0.6925
vt 0.5168 0.8693 0.6906
vt 0.5168 0.6691 0.6906
vt 0.5383 0.6691 0.6906
vt 0.5383 0.9999 0.6906
vt 0.3632 0.6691 0.6906
vt 0.4062 0.6691 0.6906
vt 0.4062 0.8693 0.6906
vt 0.3632 0.9999 0.6906
vt 0.0398 0.6691 0.1739
vt 0.0398 0.9999 0.1739
vt 0.0341 0.9999 0.1739
vt 0.0341 0.6691 0.1739
vt 0.9001 0.6691 0.1967
vt 0.9058 0.6691 0.1967
vt 0.9058 0.9999 0.1967
vt 0.9001 0.9999 0.1967
vt 0.0341 0.6691 0.1911
vt 0.0398 0.6691 0.1911
vt 0.0398 0.8693 0.1911
vt 0.0341 0.8693 0.1911
vt 0.4698 0.8395 0.6053
vt 0.9058 0.8693 0.1767
vt 0.9001 0.8693 0.1767
vt 0.9001 0.6691 0.1767
vt 0.9058 0.6691 0.1767
vt 0.2344 0.8693 0.1951
vt 0.2344 0.6691 0.1951
vt 0.3528 0.6691 0.1951
vt 0.3604 0.9999 0.1951
vt 0.3604 0.6691 0.1951
vt 0.1963 0.8693 0.1951
vt 0.3528 0.9999 0.1951
vt 0.0398 0.9999 0.1951
vt 0.1963 0.6691 0.1951
vt 0.0398 0.6691 0.1951
vt 0.7508 0.8693 0.1967
vt 0.7508 0.6691 0.1967
vt 0.5943 0.9999 0.1967
vt 0.5943 0.6691 0.1967
vt 0.7144 0.6691 0.1967
vt 0.7144 0.8693 0.1967
vt 0.5721 0.6691 0.7323
vt 0.5767 0.6691 0.7323
vt 0.5767 0.8693 0.7323
vt 0.5721 0.8693 0.7323
vt 0.4772 0.6691 0.7721
vt 0.4772 0.9999 0.7721
vt 0.3678 0.9999 0.7721
vt 0.3678 0.6691 0.7721
vt 0.5792 0.9999 0.7740
vt 0.5792 0.6691 0.7740
vt 0.6967 0.6691 0.7740
vt 0.6967 0.9999 0.7740
vt 0.2720 0.9999 0.1739
vt 0.2720 0.6691 0.1739
vt 0.2777 0.6691 0.1739
vt 0.2777 0.9999 0.1739
vt 0.6133 0.6691 0.7779
vt 0.6133 0.9999 0.7779
vt 0.5102 0.9999 0.7779
vt 0.5102 0.6691 0.7779
vt 0.4328 0.9999 0.7798
vt 0.4328 0.6691 0.7798
vt 0.5437 0.6691 0.7798
vt 0.5437 0.9999 0.7798
vt 0.2890 0.9999 0.1474
vt 0.2890 0.6691 0.1474
vt 0.2947 0.6691 0.1474
vt 0.2947 0.9999 0.1474
vt 0.6509 0.6691 0.1675
vt 0.6509 0.9999 0.1675
vt 0.6452 0.9999 0.1675
vt 0.6452 0.6691 0.1675
vt 0.5364 0.6691 0.6996
vt 0.5364 0.9999 0.6996
vt 0.5004 0.6691 0.7013
vt 0.5274 0.6691 0.6980
vt 0.5274 0.9999 0.6980
vt 0.5004 0.9999 0.7013
vt 0.4762 0.6691 0.7050
vt 0.4762 0.9999 0.7050
vt 0.5493 0.6691 0.7030
vt 0.5493 0.9999 0.7030
vt 0.0704 0.6691 0.1530
vt 0.0883 0.6691 0.1508
vt 0.0883 0.9999 0.1508
vt 0.0704 0.9999 0.1530
vt 0.8954 0.6691 0.1515
vt 0.9158 0.6691 0.1537
vt 0.9158 0.9999 0.1537
vt 0.8954 0.9999 0.1515
vt 0.1074 0.6691 0.1489
vt 0.1074 0.9999 0.1489
vt 0.8737 0.6691 0.1496
vt 0.8737 0.9999 0.1496
vt 0.1378 0.6691 0.1466
vt 0.1378 0.9999 0.1466
vt 0.8509 0.6691 0.1481
vt 0.8509 0.9999 0.1481
vt 0.8272 0.6691 0.1469
vt 0.8272 0.9999 0.1469
vt 0.1590 0.6691 0.1455
vt 0.1590 0.9999 0.1455
vt 0.1807 0.6691 0.1447
vt 0.1807 0.9999 0.1447
vt 0.2028 0.6691 0.1443
vt 0.2028 0.9999 0.1443
vt 0.8029 0.6691 0.1462
vt 0.8029 0.9999 0.1462
vt 0.7783 0.6691 0.1459
vt 0.7783 0.9999 0.1459
vt 0.7536 0.6691 0.1459
vt 0.7536 0.9999 0.1459
vt 0.2345 0.6691 0.1443
vt 0.2345 0.9999 0.1443
vt 0.4237 0.6691 0.7365
vt 0.4284 0.6691 0.7365
vt 0.4284 0.9999 0.7365
vt 0.4237 0.9999 0.7365
# 180 texture coords

g B3A_T_tujian_005_lv_xfjf1
usemtl T_tujian_005
s off
f 1/1/1 2/1/1 3/1/1 4/1/1 
f 5/1/1 6/1/1 7/1/1 8/1/1 
f 8/1/1 7/1/1 9/1/1 10/1/1 
f 10/1/1 9/1/1 11/1/1 12/1/1 
f 12/1/1 11/1/1 13/1/1 14/1/1 
f 14/1/1 13/1/1 15/1/1 16/1/1 
f 16/1/1 15/1/1 17/1/1 18/1/1 
f 18/1/1 17/1/1 19/1/1 20/1/1 
f 20/1/1 19/1/1 4/1/1 3/1/1 
f 21/2/2 22/3/2 23/4/2 24/5/2 
f 21/2/2 24/5/2 25/6/2 26/7/2 
f 27/8/3 28/9/3 29/10/3 1/11/3 
f 27/8/4 1/11/4 2/12/4 30/13/4 
f 31/1/1 25/1/1 24/1/1 1/1/1 
f 24/1/1 23/1/1 32/1/1 1/1/1 
f 32/1/1 2/1/1 1/1/1 
f 31/1/1 1/1/1 29/1/1 
f 33/14/5 30/15/5 2/16/5 22/17/5 
f 32/18/6 23/19/6 22/17/6 2/16/6 
f 34/20/7 26/21/7 25/22/7 28/23/7 
f 31/24/8 29/25/8 28/23/8 25/22/8 
f 35/1/1 24/1/1 25/1/1 36/1/1 
f 37/1/1 38/1/1 39/1/1 40/1/1 
f 40/1/1 39/1/1 41/1/1 42/1/1 
f 43/1/1 42/1/1 41/1/1 44/1/1 
f 36/1/1 43/1/1 44/1/1 35/1/1 
f 26/21/9 45/26/9 46/27/9 43/28/9 
f 47/29/10 48/30/10 37/31/10 49/32/10 
f 46/27/11 49/32/11 37/31/11 43/28/11 
f 37/31/1 40/33/1 42/34/1 43/28/1 
f 26/21/12 43/28/12 36/35/12 25/22/12 
f 38/36/13 37/37/13 48/38/13 50/39/13 
f 24/40/14 35/41/14 44/42/14 51/43/14 
f 39/44/15 38/45/15 50/46/15 41/47/15 
f 44/42/16 41/47/16 50/46/16 51/43/16 
f 50/46/1 52/48/1 53/49/1 51/43/1 
f 24/40/17 51/43/17 54/50/17 21/51/17 
f 55/52/18 56/53/18 57/54/18 58/55/18 
f 55/52/18 58/55/18 59/56/18 60/57/18 
f 55/52/18 60/57/18 61/58/18 62/59/18 
f 63/60/18 64/61/18 62/59/18 61/58/18 
f 65/62/19 66/63/19 67/64/19 68/65/19 
f 69/66/19 70/67/19 71/68/19 72/69/19 
f 68/65/19 72/69/19 71/68/19 65/62/19 
f 60/1/1 59/1/1 72/1/1 68/1/1 
f 60/1/1 68/1/1 61/1/1 
f 63/70/20 61/71/20 68/72/20 67/73/20 
f 58/74/21 69/75/21 72/76/21 59/77/21 
f 70/78/20 56/79/20 55/80/20 71/81/20 
f 71/82/22 55/82/22 62/82/22 65/82/22 
f 65/83/21 62/84/21 64/85/21 66/86/21 
f 73/87/20 74/88/20 75/89/20 76/90/20 
f 75/89/20 77/91/20 76/90/20 
f 78/92/20 73/87/20 76/90/20 79/93/20 
f 78/92/20 79/93/20 60/94/20 80/95/20 
f 57/96/20 80/95/20 60/94/20 
f 81/97/21 82/98/21 58/74/21 59/77/21 
f 83/99/23 84/100/23 85/101/23 86/102/23 
f 59/77/21 83/99/21 86/102/21 81/97/21 
f 80/103/18 82/104/18 81/105/18 78/106/18 
f 78/82/22 81/82/22 86/82/22 73/82/22 
f 87/107/19 88/108/19 79/109/19 75/110/19 
f 89/111/18 90/112/18 77/113/18 76/114/18 
f 88/115/20 87/116/20 90/117/20 89/118/20 
f 79/1/1 88/1/1 89/1/1 76/1/1 
f 91/119/19 92/120/19 93/121/19 94/122/19 
f 95/123/18 96/124/18 97/125/18 98/126/18 
f 92/127/20 91/128/20 96/129/20 95/130/20 
f 93/1/1 92/1/1 95/1/1 98/1/1 
f 94/131/21 93/132/21 98/133/21 97/134/21 
f 99/15/24 100/135/24 3/136/24 2/16/24 
f 101/137/25 102/138/25 1/139/25 4/140/25 
f 103/141/26 101/137/26 4/140/26 19/142/26 
f 100/135/27 104/143/27 20/144/27 3/136/27 
f 104/145/28 105/146/28 18/147/28 20/148/28 
f 106/149/29 103/150/29 19/151/29 17/152/29 
f 105/146/30 107/153/30 16/154/30 18/147/30 
f 108/155/31 106/149/31 17/152/31 15/156/31 
f 107/153/32 109/157/32 14/158/32 16/154/32 
f 110/159/33 108/155/33 15/156/33 13/160/33 
f 111/161/34 110/159/34 13/160/34 11/162/34 
f 109/157/35 112/163/35 12/164/35 14/158/35 
f 112/163/36 113/165/36 10/166/36 12/164/36 
f 113/165/37 114/167/37 8/168/37 10/166/37 
f 115/169/38 111/161/38 11/162/38 9/170/38 
f 116/171/39 115/169/39 9/170/39 7/172/39 
f 117/173/40 116/171/40 7/172/40 6/174/40 
f 114/167/41 118/175/41 5/176/41 8/168/41 
f 118/177/18 117/178/18 6/179/18 5/180/18 
f 59/1/1 60/1/1 79/1/1 76/1/1 
f 83/1/1 59/1/1 76/1/1 
# 85 polygons - 6 triangles

