# 3ds Max Wavefront OBJ Exporter v0.97b - (c)2007 guruware
# File Created: 24.01.2018 18:23:12

mtllib B3A_T_tujian_004_lan.mtl

#
# object B3A_T_tujian_004_lan
#

v  -334.5934 129.0089 -463.6487
v  -305.2985 129.0089 -463.6487
v  -305.2985 172.9514 -463.6487
v  -334.5934 172.9514 -463.6487
v  -305.2985 129.0089 -468.3737
v  -305.2985 172.9514 -468.3737
v  -334.5934 172.9514 -468.3737
v  -334.5934 129.0089 -468.3737
v  -291.4518 129.0089 -423.9590
v  -291.4518 129.0089 -388.9937
v  -291.4518 172.9514 -388.9937
v  -291.4518 172.9514 -423.9590
v  -286.7273 129.0089 -388.9937
v  -286.7273 172.9515 -388.9937
v  -286.7273 172.9514 -423.9590
v  -286.7273 129.0089 -423.9590
v  -291.4517 129.0089 -542.0836
v  -291.4517 129.0089 -512.7886
v  -291.4518 172.9514 -512.7886
v  -291.4517 172.9514 -542.0836
v  -286.7272 129.0089 -512.7886
v  -286.7272 172.9514 -512.7886
v  -286.7272 172.9514 -542.0836
v  -286.7272 129.0089 -542.0836
v  -291.4517 129.0089 -611.0735
v  -291.4517 129.0089 -576.1088
v  -291.4518 172.9514 -576.1088
v  -291.4517 172.9514 -611.0735
v  -286.7272 129.0089 -576.1088
v  -286.7272 172.9514 -576.1088
v  -286.7272 172.9514 -611.0735
v  -286.7272 129.0089 -611.0735
v  -344.3718 129.0089 -533.1062
v  -344.3718 129.0089 -503.8113
v  -344.3718 172.9514 -503.8113
v  -344.3718 172.9514 -533.1062
v  -339.6473 129.0089 -503.8113
v  -339.6473 172.9515 -503.8113
v  -339.6473 172.9514 -533.1062
v  -339.6473 129.0089 -533.1062
v  -369.2252 151.6889 -451.3630
v  -369.2252 149.7989 -451.3630
v  -369.2252 149.7989 -453.2529
v  -369.2252 151.6889 -453.2529
v  -369.4144 151.6889 -451.3630
v  -369.4144 151.6889 -453.2529
v  -369.4144 149.7989 -453.2529
v  -369.4144 149.7989 -451.3630
v  -369.2252 151.6889 -394.6630
v  -369.2252 149.7989 -394.6630
v  -369.2252 149.7989 -396.5529
v  -369.2252 151.6889 -396.5529
v  -369.4144 151.6889 -394.6630
v  -369.4144 151.6889 -396.5529
v  -369.4144 149.7989 -396.5529
v  -369.4144 149.7989 -394.6630
v  -373.1943 129.0089 -447.1107
v  -373.1943 129.0089 -420.6509
v  -373.1943 176.2589 -420.6509
v  -373.1943 176.2589 -447.1107
v  -369.4146 129.0089 -420.6509
v  -369.4146 129.0089 -447.1107
v  -369.4146 176.2589 -447.1107
v  -369.4146 176.2589 -420.6509
v  -373.1943 129.0089 -390.4110
v  -373.1945 129.0089 -363.9510
v  -373.1945 176.2589 -363.9510
v  -373.1943 176.2589 -390.4110
v  -369.4147 129.0089 -363.9510
v  -369.4146 129.0089 -390.4110
v  -369.4146 176.2589 -390.4110
v  -369.4147 176.2589 -363.9510
v  -173.3268 176.7314 889.9690
v  -193.1719 176.7314 889.9690
v  -193.1719 132.7889 889.9690
v  -173.3268 132.7889 889.9690
v  -173.3268 132.7889 885.2445
v  -173.3268 176.7314 885.2445
v  -193.1719 176.7314 885.2445
v  -193.1719 132.7889 885.2445
v  -252.7067 176.7314 889.9690
v  -272.5518 176.7314 889.9690
v  -272.5518 132.7889 889.9690
v  -252.7067 132.7889 889.9690
v  -252.7067 132.7889 885.2445
v  -252.7067 176.7314 885.2445
v  -272.5518 176.7314 885.2445
v  -272.5518 132.7889 885.2445
v  -205.4569 172.9514 611.3834
v  -229.0819 172.9514 611.3834
v  -229.0819 129.0089 611.3834
v  -205.4569 129.0089 611.3834
v  -205.4569 129.0089 606.6583
v  -205.4569 172.9514 606.6583
v  -229.0819 172.9514 606.6583
v  -229.0819 129.0089 606.6583
v  -537.0443 172.9514 324.8068
v  -572.0093 172.9514 324.8068
v  -572.0093 129.0089 324.8068
v  -537.0443 129.0089 324.8068
v  -537.0443 129.0089 320.0818
v  -537.0443 172.9514 320.0818
v  -572.0093 172.9514 320.0818
v  -572.0093 129.0089 320.0818
v  -621.2568 172.9514 486.0764
v  -656.2219 172.9514 486.0764
v  -656.2219 129.0089 486.0764
v  -621.2568 129.0089 486.0764
v  -621.2568 129.0089 481.3514
v  -621.2568 172.9514 481.3514
v  -656.2219 172.9514 481.3514
v  -656.2219 129.0089 481.3514
v  -570.7971 172.9514 466.2313
v  -598.2022 172.9514 466.2313
v  -598.2022 129.0089 466.2313
v  -570.7971 129.0089 466.2313
v  -570.7971 129.0089 461.5063
v  -570.7971 172.9514 461.5063
v  -598.2022 172.9514 461.5063
v  -598.2022 129.0089 461.5063
v  -381.2300 172.9514 889.9690
v  -416.1952 172.9514 889.9690
v  -416.1952 129.0089 889.9690
v  -381.2300 129.0089 889.9690
v  -381.2300 129.0089 885.2445
v  -381.2300 172.9514 885.2445
v  -416.1952 172.9514 885.2445
v  -416.1952 129.0089 885.2445
v  -567.0975 172.9514 889.9690
v  -602.0627 172.9514 889.9690
v  -602.0627 129.0089 889.9690
v  -567.0975 129.0089 889.9690
v  -567.0975 129.0089 885.2445
v  -567.0975 172.9514 885.2445
v  -602.0627 172.9514 885.2445
v  -602.0627 129.0089 885.2445
v  -595.6729 172.9514 781.7841
v  -607.6316 172.9514 748.9277
v  -607.6316 129.0089 748.9277
v  -595.6729 129.0089 781.7841
v  -591.2328 129.0089 780.1678
v  -591.2328 172.9514 780.1678
v  -603.1916 172.9514 747.3116
v  -603.1916 129.0089 747.3116
v  -559.8049 172.9514 880.3306
v  -571.7636 172.9514 847.4742
v  -571.7636 129.0089 847.4742
v  -559.8049 129.0089 880.3306
v  -555.3649 129.0089 878.7146
v  -555.3649 172.9514 878.7146
v  -567.3236 172.9514 845.8583
v  -567.3236 129.0089 845.8583
v  -144.0350 172.9514 692.4645
v  -144.0350 172.9514 657.4991
v  -144.0350 129.0089 657.4991
v  -144.0350 129.0089 692.4645
v  -139.3105 129.0089 692.4645
v  -139.3105 172.9514 692.4645
v  -139.3105 172.9514 657.4991
v  -139.3105 129.0089 657.4991
v  -229.5532 172.9514 692.4645
v  -229.5532 172.9514 657.4991
v  -229.5532 129.0089 657.4991
v  -229.5532 129.0089 692.4645
v  -224.8286 129.0089 692.4645
v  -224.8286 172.9514 692.4645
v  -224.8286 172.9514 657.4991
v  -224.8286 129.0089 657.4991
v  -198.8413 172.9514 598.1532
v  -198.8413 172.9514 574.5284
v  -198.8413 129.0089 574.5284
v  -198.8413 129.0089 598.1532
v  -194.1169 129.0090 598.1532
v  -194.1169 172.9515 598.1532
v  -194.1169 172.9514 574.5284
v  -194.1169 129.0089 574.5284
v  -246.0918 172.9514 626.5031
v  -246.0918 172.9514 614.2182
v  -246.0918 129.0089 614.2182
v  -246.0918 129.0089 626.5031
v  -241.3672 129.0089 626.5031
v  -241.3672 172.9514 626.5031
v  -241.3672 172.9514 614.2182
v  -241.3672 129.0089 614.2182
v  -246.0918 172.9514 559.7863
v  -246.0918 172.9514 547.5012
v  -246.0918 129.0089 547.5012
v  -246.0918 129.0089 559.7863
v  -241.3672 129.0089 559.7863
v  -241.3672 172.9514 559.7863
v  -241.3672 172.9514 547.5012
v  -241.3672 129.0089 547.5012
v  -246.0918 172.9514 494.5811
v  -246.0918 172.9514 482.2960
v  -246.0918 129.0089 482.2960
v  -246.0918 129.0089 494.5811
v  -241.3672 129.0089 494.5811
v  -241.3672 172.9514 494.5811
v  -241.3672 172.9514 482.2960
v  -241.3672 129.0089 482.2960
v  -185.1393 172.4789 758.2363
v  -160.5692 172.4789 758.2363
v  -160.5692 129.0089 758.2363
v  -185.1393 129.0089 758.2363
v  -185.1393 129.0089 759.1813
v  -185.1393 172.4789 759.1813
v  -160.5692 172.4789 759.1813
v  -160.5692 129.0089 759.1813
v  -670.8352 149.7989 456.3085
v  -670.8352 149.7989 454.4185
v  -670.8352 151.6889 454.4185
v  -670.8352 151.6889 456.3085
v  -671.0243 151.6889 454.4185
v  -671.0243 151.6889 456.3085
v  -671.0243 149.7989 456.3085
v  -671.0243 149.7989 454.4185
v  -670.8350 149.7989 399.6085
v  -670.8350 149.7989 397.7184
v  -670.8350 151.6889 397.7184
v  -670.8350 151.6889 399.6085
v  -671.0241 151.6889 397.7184
v  -671.0241 151.6889 399.6085
v  -671.0241 149.7989 399.6085
v  -671.0241 149.7989 397.7184
v  -671.0240 176.2589 423.7061
v  -671.0241 176.2589 450.1661
v  -671.0241 129.0089 450.1661
v  -671.0240 129.0089 423.7061
v  -674.8040 176.2589 450.1661
v  -674.8038 176.2589 423.7061
v  -674.8038 129.0089 423.7061
v  -674.8040 129.0089 450.1661
v  -671.0240 176.2589 367.0063
v  -671.0240 176.2589 393.4663
v  -671.0240 129.0089 393.4663
v  -671.0240 129.0089 367.0063
v  -674.8038 176.2589 393.4663
v  -674.8038 176.2589 367.0063
v  -674.8038 129.0089 367.0063
v  -674.8038 129.0089 393.4663
v  315.0765 172.9514 -575.1588
v  280.1115 172.9514 -575.1588
v  280.1115 129.0089 -575.1588
v  315.0765 129.0089 -575.1588
v  315.0765 129.0089 -581.7737
v  315.0765 172.9514 -581.7737
v  280.1115 172.9514 -581.7737
v  280.1115 129.0089 -581.7737
v  314.0544 172.9514 -633.7491
v  279.0894 172.9514 -633.7491
v  279.0894 129.0089 -633.7491
v  314.0544 129.0089 -633.7491
v  314.0544 129.0089 -638.4736
v  314.0544 172.9514 -638.4736
v  279.0894 172.9514 -638.4736
v  279.0894 129.0089 -638.4736
v  349.5417 149.7989 -631.8588
v  349.5417 149.7989 -629.9686
v  349.5417 151.6889 -629.9686
v  349.5417 151.6889 -631.8588
v  349.7310 151.6889 -629.9686
v  349.7310 151.6889 -631.8588
v  349.7310 149.7989 -631.8588
v  349.7310 149.7989 -629.9686
v  349.7310 176.2589 -593.5861
v  349.7310 176.2589 -625.7162
v  349.7310 129.0089 -625.7162
v  349.7310 129.0089 -593.5861
v  353.5107 176.2589 -625.7162
v  353.5109 176.2589 -593.5861
v  353.5109 129.0089 -593.5861
v  353.5107 129.0089 -625.7162
# 272 vertices

vn 0.0000 0.0000 1.0000
vn 1.0000 0.0000 -0.0000
vn -1.0000 0.0000 -0.0000
vn 0.0000 1.0000 -0.0000
vn 0.0000 0.0000 -1.0000
vn -0.0000 1.0000 -0.0000
vn -1.0000 -0.0000 -0.0000
vn 0.0000 -1.0000 -0.0000
vn 1.0000 0.0000 0.0000
vn -0.9397 0.0000 0.3420
vn 0.3420 0.0000 0.9397
vn -0.3420 0.0000 -0.9397
vn 0.9397 0.0000 -0.3420
# 13 vertex normals

vt 0.0004 0.5823 1.0000
vt 0.3903 0.5823 1.0000
vt 0.3903 0.9998 1.0000
vt 0.0004 0.9998 1.0000
vt 0.0354 0.7910 -0.0000
vt 0.0354 0.7910 1.0000
vt 0.3903 0.5823 -0.0000
vt 0.0004 0.5823 -0.0000
vt 0.0004 0.9998 -0.0000
vt 0.3903 0.9998 -0.0000
vt 0.0859 0.3150 0.0000
vt 0.1038 0.3150 0.0000
vt 0.1038 0.2927 0.0000
vt 0.0859 0.2927 0.0000
vt 0.0006 0.0006 1.0000
vt 0.1686 0.0006 1.0000
vt 0.1686 0.2761 1.0000
vt 0.0006 0.2761 1.0000
vt 0.1686 0.0006 0.0000
vt 0.0006 0.0006 0.0000
vt 0.0006 0.2761 0.0000
vt 0.1686 0.2761 0.0000
vt 0.5974 0.9998 1.0000
vt 0.3912 0.9998 1.0000
vt 0.3912 0.5823 1.0000
vt 0.5974 0.5823 1.0000
vt 0.4098 0.7910 1.0000
vt 0.4098 0.7910 -0.0000
vt 0.3912 0.9998 -0.0000
vt 0.5974 0.9998 -0.0000
vt 0.5974 0.5823 -0.0000
vt 0.3912 0.5823 -0.0000
vt 0.6012 0.9998 1.0000
vt 0.8445 0.9998 1.0000
vt 0.8445 0.5823 1.0000
vt 0.6012 0.5823 1.0000
vt 0.8227 0.7910 1.0000
vt 0.8227 0.7910 -0.0000
vt 0.8445 0.9998 -0.0000
vt 0.6012 0.9998 -0.0000
vt 0.6012 0.5823 -0.0000
vt 0.8445 0.5823 -0.0000
# 42 texture coords

g B3A_T_tujian_004_lan
usemtl T_tujian_004
s 1
f 1/1/1 2/2/1 3/3/1 4/4/1 
s off
f 5/5/2 6/5/2 3/6/2 2/6/2 
f 7/5/3 8/5/3 1/6/3 4/6/3 
f 6/5/4 7/5/4 4/6/4 3/6/4 
f 5/7/5 8/8/5 7/9/5 6/10/5 
s 1
f 9/1/3 10/2/3 11/3/3 12/4/3 
s off
f 13/5/1 14/5/1 11/6/1 10/6/1 
f 15/5/5 16/5/5 9/6/5 12/6/5 
f 14/5/6 15/5/6 12/6/6 11/6/6 
f 13/7/2 16/8/2 15/9/2 14/10/2 
s 1
f 17/1/7 18/2/7 19/3/7 20/4/3 
s off
f 21/5/1 22/5/1 19/6/1 18/6/1 
f 23/5/5 24/5/5 17/6/5 20/6/5 
f 22/5/4 23/5/4 20/6/4 19/6/4 
f 21/7/2 24/8/2 23/9/2 22/10/2 
s 1
f 25/1/7 26/2/7 27/3/7 28/4/3 
s off
f 29/5/1 30/5/1 27/6/1 26/6/1 
f 31/5/5 32/5/5 25/6/5 28/6/5 
f 30/5/4 31/5/4 28/6/4 27/6/4 
f 29/7/2 32/8/2 31/9/2 30/10/2 
s 1
f 33/1/3 34/2/3 35/3/3 36/4/3 
s off
f 37/5/1 38/5/1 35/6/1 34/6/1 
f 39/5/5 40/5/5 33/6/5 36/6/5 
f 38/5/6 39/5/6 36/6/6 35/6/6 
f 37/7/2 40/8/2 39/9/2 38/10/2 
f 41/11/2 42/12/2 43/13/2 44/14/2 
f 45/11/4 41/11/4 44/14/4 46/14/4 
f 46/14/5 44/14/5 43/13/5 47/13/5 
f 47/13/8 43/13/8 42/12/8 48/12/8 
f 48/12/1 42/12/1 41/11/1 45/11/1 
f 49/11/2 50/12/2 51/13/2 52/14/2 
f 53/11/4 49/11/4 52/14/4 54/14/4 
f 54/14/5 52/14/5 51/13/5 55/13/5 
f 55/13/8 51/13/8 50/12/8 56/12/8 
f 56/12/1 50/12/1 49/11/1 53/11/1 
s 1
f 57/15/3 58/16/3 59/17/3 60/18/3 
s off
f 61/19/2 62/20/2 63/21/2 64/22/2 
s 1
f 65/15/3 66/16/3 67/17/3 68/18/3 
s off
f 69/19/9 70/20/9 71/21/9 72/22/9 
s 1
f 73/23/1 74/24/1 75/25/1 76/26/1 
s off
f 73/27/2 76/27/2 77/28/2 78/28/2 
f 75/27/3 74/27/3 79/28/3 80/28/3 
f 74/27/4 73/27/4 78/28/4 79/28/4 
f 79/29/5 78/30/5 77/31/5 80/32/5 
s 1
f 81/23/1 82/24/1 83/25/1 84/26/1 
s off
f 81/27/2 84/27/2 85/28/2 86/28/2 
f 83/27/3 82/27/3 87/28/3 88/28/3 
f 82/27/4 81/27/4 86/28/4 87/28/4 
f 87/29/5 86/30/5 85/31/5 88/32/5 
s 1
f 89/3/1 90/4/1 91/1/1 92/2/1 
s off
f 89/6/2 92/6/2 93/5/2 94/5/2 
f 91/6/3 90/6/3 95/5/3 96/5/3 
f 90/6/4 89/6/4 94/5/4 95/5/4 
f 95/9/5 94/10/5 93/7/5 96/8/5 
s 1
f 97/3/1 98/4/1 99/1/1 100/2/1 
s off
f 97/6/2 100/6/2 101/5/2 102/5/2 
f 99/6/3 98/6/3 103/5/3 104/5/3 
f 98/6/4 97/6/4 102/5/4 103/5/4 
f 103/9/5 102/10/5 101/7/5 104/8/5 
s 1
f 105/3/1 106/4/1 107/1/1 108/2/1 
s off
f 105/6/2 108/6/2 109/5/2 110/5/2 
f 107/6/3 106/6/3 111/5/3 112/5/3 
f 106/6/4 105/6/4 110/5/4 111/5/4 
f 111/9/5 110/10/5 109/7/5 112/8/5 
s 1
f 113/3/1 114/4/1 115/1/1 116/2/1 
s off
f 113/6/2 116/6/2 117/5/2 118/5/2 
f 115/6/3 114/6/3 119/5/3 120/5/3 
f 114/6/4 113/6/4 118/5/4 119/5/4 
f 119/9/5 118/10/5 117/7/5 120/8/5 
s 1
f 121/3/1 122/4/1 123/1/1 124/2/1 
s off
f 121/6/2 124/6/2 125/5/2 126/5/2 
f 123/6/3 122/6/3 127/5/3 128/5/3 
f 122/6/4 121/6/4 126/5/4 127/5/4 
f 127/9/5 126/10/5 125/7/5 128/8/5 
s 1
f 129/3/1 130/4/1 131/1/1 132/2/1 
s off
f 129/6/2 132/6/2 133/5/2 134/5/2 
f 131/6/3 130/6/3 135/5/3 136/5/3 
f 130/6/4 129/6/4 134/5/4 135/5/4 
f 135/9/5 134/10/5 133/7/5 136/8/5 
s 1
f 137/3/10 138/4/10 139/1/10 140/2/10 
s off
f 137/6/11 140/6/11 141/5/11 142/5/11 
f 139/6/12 138/6/12 143/5/12 144/5/12 
f 138/6/4 137/6/4 142/5/4 143/5/4 
f 143/9/13 142/10/13 141/7/13 144/8/13 
s 1
f 145/3/10 146/4/10 147/1/10 148/2/10 
s off
f 145/6/11 148/6/11 149/5/11 150/5/11 
f 147/6/12 146/6/12 151/5/12 152/5/12 
f 146/6/4 145/6/4 150/5/4 151/5/4 
f 151/9/13 150/10/13 149/7/13 152/8/13 
s 1
f 153/3/3 154/4/3 155/1/3 156/2/3 
s off
f 153/6/1 156/6/1 157/5/1 158/5/1 
f 155/6/5 154/6/5 159/5/5 160/5/5 
f 154/6/4 153/6/4 158/5/4 159/5/4 
f 159/9/2 158/10/2 157/7/2 160/8/2 
s 1
f 161/3/3 162/4/3 163/1/3 164/2/3 
s off
f 161/6/1 164/6/1 165/5/1 166/5/1 
f 163/6/5 162/6/5 167/5/5 168/5/5 
f 162/6/4 161/6/4 166/5/4 167/5/4 
f 167/9/2 166/10/2 165/7/2 168/8/2 
s 1
f 169/3/3 170/4/3 171/1/3 172/2/3 
s off
f 169/6/1 172/6/1 173/5/1 174/5/1 
f 171/6/5 170/6/5 175/5/5 176/5/5 
f 170/6/6 169/6/6 174/5/6 175/5/6 
f 175/9/2 174/10/2 173/7/2 176/8/2 
s 1
f 177/23/3 178/24/3 179/25/3 180/26/3 
s off
f 177/27/1 180/27/1 181/28/1 182/28/1 
f 179/27/5 178/27/5 183/28/5 184/28/5 
f 178/27/4 177/27/4 182/28/4 183/28/4 
f 183/29/2 182/30/2 181/31/2 184/32/2 
s 1
f 185/23/3 186/24/3 187/25/3 188/26/3 
s off
f 185/27/1 188/27/1 189/28/1 190/28/1 
f 187/27/5 186/27/5 191/28/5 192/28/5 
f 186/27/4 185/27/4 190/28/4 191/28/4 
f 191/29/2 190/30/2 189/31/2 192/32/2 
s 1
f 193/23/3 194/24/3 195/25/3 196/26/3 
s off
f 193/27/1 196/27/1 197/28/1 198/28/1 
f 195/27/5 194/27/5 199/28/5 200/28/5 
f 194/27/6 193/27/6 198/28/6 199/28/6 
f 199/29/2 198/30/2 197/31/2 200/32/2 
s 1
f 201/33/5 202/34/5 203/35/5 204/36/5 
s off
f 201/37/3 204/37/3 205/38/3 206/38/3 
f 203/37/2 202/37/2 207/38/2 208/38/2 
f 202/37/4 201/37/4 206/38/4 207/38/4 
f 207/39/1 206/40/1 205/41/1 208/42/1 
f 209/13/2 210/12/2 211/11/2 212/14/2 
f 212/14/4 211/11/4 213/11/4 214/14/4 
f 209/13/1 212/14/1 214/14/1 215/13/1 
f 210/12/8 209/13/8 215/13/8 216/12/8 
f 211/11/5 210/12/5 216/12/5 213/11/5 
f 217/13/2 218/12/2 219/11/2 220/14/2 
f 220/14/4 219/11/4 221/11/4 222/14/4 
f 217/13/1 220/14/1 222/14/1 223/13/1 
f 218/12/8 217/13/8 223/13/8 224/12/8 
f 219/11/5 218/12/5 224/12/5 221/11/5 
s 1
f 225/17/9 226/18/9 227/15/9 228/16/9 
s off
f 229/21/3 230/22/3 231/19/3 232/20/3 
s 1
f 233/17/2 234/18/2 235/15/2 236/16/2 
s off
f 237/21/3 238/22/3 239/19/3 240/20/3 
s 1
f 241/3/1 242/4/1 243/1/1 244/2/1 
s off
f 241/6/2 244/6/2 245/5/2 246/5/2 
f 243/6/3 242/6/3 247/5/3 248/5/3 
f 242/6/4 241/6/4 246/5/4 247/5/4 
f 247/9/5 246/10/5 245/7/5 248/8/5 
s 1
f 249/3/1 250/4/1 251/1/1 252/2/1 
s off
f 249/6/2 252/6/2 253/5/2 254/5/2 
f 251/6/3 250/6/3 255/5/3 256/5/3 
f 250/6/4 249/6/4 254/5/4 255/5/4 
f 255/9/5 254/10/5 253/7/5 256/8/5 
f 257/13/3 258/12/3 259/11/3 260/14/3 
f 260/14/4 259/11/4 261/11/4 262/14/4 
f 257/13/5 260/14/5 262/14/5 263/13/5 
f 258/12/8 257/13/8 263/13/8 264/12/8 
f 259/11/1 258/12/1 264/12/1 261/11/1 
s 1
f 265/17/3 266/18/3 267/15/3 268/16/3 
s off
f 269/21/2 270/22/2 271/19/2 272/20/2 
# 155 polygons

