# 3ds Max Wavefront OBJ Exporter v0.97b - (c)2007 guruware
# File Created: 03.01.2018 10:47:14

mtllib B3A_pj_lanse_01.mtl

#
# object B3A_T_pj_lanse_01_zi_btm
#

v  339.3353 129.0090 -18.8030
v  764.7744 129.0090 -18.8030
v  764.7744 172.4790 -18.8030
v  339.3353 200.8290 -18.8030
v  798.7942 172.4790 -18.8030
v  798.7942 129.0090 -18.8030
v  809.9453 129.0090 -18.8030
v  809.9453 200.8290 -18.8030
v  764.7744 172.4790 -20.0636
v  764.7744 129.0090 -20.0636
v  339.3353 129.0090 -20.0636
v  339.3353 200.8290 -20.0636
v  808.6848 200.8290 -20.0636
v  798.7942 172.4790 -20.0636
v  808.6848 129.0090 -20.0636
v  798.7942 129.0090 -20.0636
v  809.9453 129.0090 -20.0636
v  809.9453 200.8290 -20.0636
v  333.6654 129.0090 -179.6761
v  333.6654 129.0090 -145.6653
v  333.6654 172.4790 -145.6653
v  333.6654 200.8290 -179.6761
v  333.6654 172.4790 -77.6252
v  333.6654 200.8290 -24.5072
v  333.6654 129.0090 -77.6252
v  333.6654 129.0090 -24.5072
v  334.9260 129.0090 -24.5072
v  334.9260 129.0090 -77.6252
v  334.9260 172.4790 -77.6252
v  334.9260 200.8290 -24.5072
v  334.9260 172.4790 -145.6653
v  334.9260 129.0090 -145.6653
v  334.9260 129.0090 -179.6761
v  334.9260 200.8290 -179.6761
v  333.6654 129.0090 -339.3811
v  333.6654 129.0090 -198.5760
v  333.6654 200.8290 -198.5760
v  333.6654 200.8290 -339.3811
v  334.9260 129.0090 -198.5760
v  334.9260 129.0090 -339.3811
v  334.9260 200.8290 -339.3811
v  334.9260 200.8290 -198.5760
v  333.6654 129.0090 -356.3911
v  333.6654 200.8290 -356.3911
v  333.6654 200.8290 -492.4711
v  333.6654 129.0090 -492.4711
v  334.9260 129.0090 -492.4711
v  334.9260 200.8290 -492.4711
v  334.9260 200.8290 -356.3911
v  334.9260 129.0090 -356.3911
v  481.0853 129.0090 -503.8110
v  339.3353 129.0090 -503.8110
v  339.3353 200.8290 -503.8110
v  481.0853 200.8290 -503.8110
v  339.3353 129.0090 -502.5505
v  481.0853 129.0090 -502.5505
v  481.0853 200.8290 -502.5505
v  339.3353 200.8290 -502.5505
v  498.0953 129.0090 -503.8110
v  498.0953 200.8290 -503.8110
v  797.2822 200.8290 -503.8110
v  797.2822 129.0090 -503.8110
v  797.2822 129.0090 -502.5505
v  797.2822 200.8290 -502.5505
v  498.0953 200.8290 -502.5505
v  498.0953 129.0090 -502.5505
v  809.9453 129.0090 -498.1411
v  809.9453 200.8290 -498.1411
v  808.6848 200.8290 -498.1411
v  808.6848 129.0090 -498.1411
v  713.9269 215.5237 -313.2579
v  714.7559 213.2106 -313.4041
v  714.7559 210.7492 -313.4041
v  712.3685 217.4093 -312.9832
v  713.9269 208.4362 -313.2579
v  710.2693 218.6400 -312.6129
v  712.3685 206.5506 -312.9832
v  707.8820 219.0674 -312.1921
v  710.2693 205.3198 -312.6129
v  707.8820 204.8924 -312.1921
v  693.0365 204.8924 -309.5743
v  689.5559 219.0674 -308.9607
v  689.0597 204.4965 -308.8730
v  685.5791 218.6715 -308.2594
v  685.2344 203.3237 -308.1987
v  681.7538 217.4987 -307.5850
v  553.0121 133.1851 -284.8843
v  549.5315 147.3601 -284.2706
v  519.3984 136.6161 -278.9574
v  518.5693 138.9292 -278.8112
v  518.5693 141.3906 -278.8112
v  520.9567 134.7306 -279.2322
v  519.3984 143.7036 -278.9574
v  523.0559 133.4998 -279.6022
v  520.9567 145.5893 -279.2322
v  525.4431 133.0724 -280.0231
v  523.0559 146.8200 -279.6022
v  525.4431 147.2474 -280.0231
v  718.6702 215.5237 -286.3566
v  719.4993 213.2106 -286.5028
v  719.4993 210.7492 -286.5028
v  717.1121 217.4093 -286.0818
v  718.6702 208.4362 -286.3566
v  715.0128 218.6400 -285.7117
v  717.1121 206.5506 -286.0818
v  712.6255 219.0674 -285.2906
v  715.0128 205.3198 -285.7117
v  712.6255 204.8924 -285.2906
v  697.7798 204.8924 -282.6731
v  694.2993 219.0674 -282.0594
v  693.8030 204.4965 -281.9719
v  690.3226 218.6715 -281.3582
v  689.9777 203.3237 -281.2974
v  686.4973 217.4987 -280.6836
v  557.7554 133.1851 -257.9830
v  554.2748 147.3601 -257.3693
v  524.1418 136.6162 -252.0559
v  523.3127 141.3906 -251.9099
v  525.7002 145.5893 -252.3307
v  527.7994 133.4998 -252.7009
v  530.1866 147.2474 -253.1218
v  723.3966 215.5237 -259.5515
v  724.2257 213.2106 -259.6978
v  724.2257 210.7492 -259.6978
v  721.8385 217.4093 -259.2767
v  723.3966 208.4362 -259.5515
v  719.7393 218.6400 -258.9066
v  721.8385 206.5506 -259.2767
v  717.3518 219.0674 -258.4856
v  719.7393 205.3198 -258.9066
v  717.3518 204.8924 -258.4856
v  702.5063 204.8924 -255.8679
v  699.0258 219.0674 -255.2544
v  698.5294 204.4965 -255.1667
v  695.0491 218.6715 -254.5531
v  694.7041 203.3237 -254.4922
v  691.2238 217.4987 -253.8785
v  562.4818 133.1851 -231.1780
v  559.0013 147.3601 -230.5642
v  528.8683 136.6162 -225.2509
v  528.0392 141.3906 -225.1049
v  530.4264 145.5893 -225.5256
v  532.5259 133.4998 -225.8959
v  534.9131 147.2474 -226.3168
# 144 vertices

vn 0.0000 0.0000 1.0000
vn 0.0000 0.0000 -1.0000
vn 0.0000 1.0000 -0.0000
vn -1.0000 0.0000 -0.0000
vn 1.0000 0.0000 -0.0000
vn 0.0000 -1.0000 -0.0000
vn -0.1736 -0.0000 -0.9848
vn -0.1736 0.0000 -0.9848
vn -0.1737 -0.0000 -0.9848
vn -0.1737 0.0000 -0.9848
# 10 vertex normals

vt 0.8648 0.8935 0.0000
vt 0.8648 0.8935 0.0019
vt 0.8648 0.8935 0.7975
vt 0.8648 0.8935 0.7426
vt 0.8648 0.8935 1.0000
vt 0.8648 0.8935 0.9939
vt 0.8648 0.8935 0.4827
vt 0.8648 0.8935 0.9753
vt 0.8648 0.8935 0.7395
vt 0.8648 0.8935 0.7402
vt 0.8648 0.8935 0.0087
vt 0.8648 0.8935 0.2459
vt 0.8648 0.8935 0.0899
vt 0.8648 0.8935 0.1939
vt 0.8648 0.8935 0.2748
vt 0.8648 0.8935 0.4901
vt 0.8648 0.8935 0.5161
vt 0.8648 0.8935 0.7241
vt 0.8648 0.8935 0.7414
vt 0.8648 0.8935 0.8202
vt 0.8648 0.8935 0.8295
vt 0.8648 0.8935 0.9931
vt 0.8648 0.8935 0.9993
vt 0.8648 0.8935 0.7327
vt 0.8648 0.8935 0.4501
vt 0.8648 0.8935 0.4503
vt 0.8648 0.8935 0.4497
vt 0.8648 0.8935 0.4491
vt 0.8648 0.8935 0.4485
vt 0.8648 0.8935 0.4445
vt 0.8648 0.8935 0.4436
vt 0.8648 0.8935 0.4434
vt 0.8648 0.8935 0.4425
vt 0.8648 0.8935 0.4424
vt 0.8648 0.8935 0.4415
vt 0.8648 0.8935 0.4068
vt 0.8648 0.8935 0.4058
vt 0.8648 0.8935 0.3977
vt 0.8648 0.8935 0.3975
vt 0.8648 0.8935 0.3981
vt 0.8648 0.8935 0.3987
vt 0.8648 0.8935 0.3993
vt 0.8648 0.8935 0.4090
vt 0.8648 0.8935 0.4092
vt 0.8648 0.8935 0.4086
vt 0.8648 0.8935 0.4080
vt 0.8648 0.8935 0.4074
vt 0.8648 0.8935 0.4034
vt 0.8648 0.8935 0.4024
vt 0.8648 0.8935 0.4023
vt 0.8648 0.8935 0.4014
vt 0.8648 0.8935 0.4013
vt 0.8648 0.8935 0.4003
vt 0.8648 0.8935 0.3656
vt 0.8648 0.8935 0.3647
vt 0.8648 0.8935 0.3566
vt 0.8648 0.8935 0.3563
vt 0.8648 0.8935 0.3570
vt 0.8648 0.8935 0.3576
vt 0.8648 0.8935 0.3582
vt 0.8648 0.8935 0.3680
vt 0.8648 0.8935 0.3682
vt 0.8648 0.8935 0.3676
vt 0.8648 0.8935 0.3670
vt 0.8648 0.8935 0.3664
vt 0.8648 0.8935 0.3624
vt 0.8648 0.8935 0.3615
vt 0.8648 0.8935 0.3613
vt 0.8648 0.8935 0.3604
vt 0.8648 0.8935 0.3603
vt 0.8648 0.8935 0.3594
vt 0.8648 0.8935 0.3247
vt 0.8648 0.8935 0.3237
vt 0.8648 0.8935 0.3156
vt 0.8648 0.8935 0.3154
vt 0.8648 0.8935 0.3160
vt 0.8648 0.8935 0.3166
vt 0.8648 0.8935 0.3172
# 78 texture coords

g B3A_T_pj_lanse_01_zi_btm
usemtl pj_lanse_01
s off
f 1/1/1 2/1/1 3/1/1 4/1/1 
f 5/1/1 6/1/1 7/1/1 8/1/1 
f 3/1/1 5/1/1 8/1/1 4/1/1 
f 9/2/2 10/2/2 11/2/2 12/2/2 
f 9/2/2 12/2/2 13/2/2 14/2/2 
f 15/2/2 16/2/2 14/2/2 17/2/2 
f 18/2/2 17/2/2 14/2/2 13/2/2 
f 8/3/3 18/3/3 13/3/3 4/3/3 
f 4/3/3 13/3/3 12/3/3 
f 12/4/4 11/4/4 1/4/4 4/4/4 
f 17/5/5 18/5/5 8/5/5 7/5/5 
f 5/6/4 14/6/4 16/6/4 6/6/4 
f 3/7/6 9/7/6 14/7/6 5/7/6 
f 2/8/5 10/8/5 9/8/5 3/8/5 
f 19/9/4 20/9/4 21/9/4 22/9/4 
f 22/9/4 21/9/4 23/9/4 24/9/4 
f 23/9/4 25/9/4 26/9/4 24/9/4 
f 27/10/5 28/10/5 29/10/5 30/10/5 
f 31/10/5 32/10/5 33/10/5 34/10/5 
f 29/10/5 31/10/5 34/10/5 30/10/5 
f 27/11/1 30/11/1 24/11/1 26/11/1 
f 30/3/3 34/3/3 22/3/3 24/3/3 
f 34/12/2 33/12/2 19/12/2 22/12/2 
f 23/13/2 29/13/2 28/13/2 25/13/2 
f 31/7/6 29/7/6 23/7/6 21/7/6 
f 20/14/1 32/14/1 31/14/1 21/14/1 
f 35/9/4 36/9/4 37/9/4 38/9/4 
f 39/10/5 40/10/5 41/10/5 42/10/5 
f 39/15/1 42/15/1 37/15/1 36/15/1 
f 42/3/3 41/3/3 38/3/3 37/3/3 
f 41/16/2 40/16/2 35/16/2 38/16/2 
f 43/9/4 44/9/4 45/9/4 46/9/4 
f 47/10/5 48/10/5 49/10/5 50/10/5 
f 50/17/1 49/17/1 44/17/1 43/17/1 
f 49/3/3 48/3/3 45/3/3 44/3/3 
f 48/18/2 47/18/2 46/18/2 45/18/2 
f 51/19/2 52/19/2 53/19/2 54/19/2 
f 55/9/1 56/9/1 57/9/1 58/9/1 
f 55/4/4 58/4/4 53/4/4 52/4/4 
f 58/3/3 57/3/3 54/3/3 53/3/3 
f 57/20/5 56/20/5 51/20/5 54/20/5 
f 59/19/2 60/19/2 61/19/2 62/19/2 
f 63/9/1 64/9/1 65/9/1 66/9/1 
f 66/21/4 65/21/4 60/21/4 59/21/4 
f 65/3/3 64/3/3 61/3/3 60/3/3 
f 64/22/5 63/22/5 62/22/5 61/22/5 
f 67/5/5 68/5/5 18/5/5 17/5/5 
f 15/23/4 13/23/4 69/23/4 70/23/4 
f 70/24/2 69/24/2 68/24/2 67/24/2 
f 68/3/3 69/3/3 13/3/3 18/3/3 
f 18/2/1 13/2/1 15/2/1 17/2/1 
f 71/25/7 72/26/7 73/26/7 74/27/7 
f 74/27/8 73/26/8 75/25/8 76/28/8 
f 76/28/8 75/25/8 77/27/8 78/29/8 
f 78/29/9 77/27/9 79/28/9 80/29/9 
f 78/29/10 80/29/10 81/30/10 82/31/10 
f 82/31/9 81/30/9 83/32/9 84/33/9 
f 84/33/8 83/32/8 85/34/8 86/35/8 
f 86/35/7 85/34/7 87/36/7 88/37/7 
f 89/38/10 90/39/10 91/39/10 92/40/10 
f 92/40/8 91/39/8 93/38/8 94/41/8 
f 94/41/7 93/38/7 95/40/7 96/42/7 
f 96/42/8 95/40/8 97/41/8 98/42/8 
f 96/42/9 98/42/9 88/37/9 87/36/9 
f 99/43/10 100/44/10 101/44/10 102/45/10 
f 102/45/8 101/44/8 103/43/8 104/46/8 
f 104/46/9 103/43/9 105/45/9 106/47/9 
f 106/47/10 105/45/10 107/46/10 108/47/10 
f 106/47/8 108/47/8 109/48/8 110/49/8 
f 110/49/9 109/48/9 111/50/9 112/51/9 
f 112/51/9 111/50/9 113/52/9 114/53/9 
f 114/53/8 113/52/8 115/54/8 116/55/8 
f 117/56/7 118/57/7 119/58/7 120/59/7 
f 120/59/8 119/58/8 121/60/8 116/55/8 
f 115/54/8 120/59/8 116/55/8 
f 122/61/10 123/62/10 124/62/10 125/63/10 
f 125/63/8 124/62/8 126/61/8 127/64/8 
f 127/64/9 126/61/9 128/63/9 129/65/9 
f 129/65/8 128/63/8 130/64/8 131/65/8 
f 129/65/7 131/65/7 132/66/7 133/67/7 
f 133/67/7 132/66/7 134/68/7 135/69/7 
f 135/69/9 134/68/9 136/70/9 137/71/9 
f 137/71/8 136/70/8 138/72/8 139/73/8 
f 140/74/9 141/75/9 142/76/9 143/77/9 
f 143/77/8 142/76/8 144/78/8 139/73/8 
f 138/72/8 143/77/8 139/73/8 
# 83 polygons - 3 triangles

#
# object B3A_T_pj_lanse_01_lv_btm
#

v  -932.9502 172.4790 -364.8960
v  -932.9502 129.0090 -364.8960
v  -932.9502 129.0090 -355.4459
v  -932.9502 200.8290 -355.4459
v  -932.9502 172.4790 -383.7960
v  -932.9502 172.4790 -608.7061
v  -932.9502 200.8290 -671.7053
v  -932.9502 172.4790 -642.7261
v  -932.9502 129.0090 -671.7053
v  -932.9502 129.0090 -642.7261
v  -932.9502 129.0090 -383.7960
v  -932.9502 129.0090 -608.7061
v  -931.6896 172.4790 -642.7261
v  -931.6896 129.0090 -642.7261
v  -931.6896 129.0090 -671.7053
v  -931.6896 200.8290 -671.7053
v  -931.6896 172.4790 -608.7061
v  -931.6896 200.8290 -355.4459
v  -931.6896 172.4790 -383.7960
v  -931.6896 172.4790 -364.8960
v  -931.6896 129.0090 -355.4459
v  -931.6896 129.0090 -364.8960
v  -931.6896 129.0090 -383.7960
v  -931.6896 129.0090 -608.7061
v  -971.9154 200.8290 -671.7053
v  -971.9154 129.0090 -671.7053
v  -931.6896 129.0090 -672.9659
v  -971.9154 129.0090 -672.9659
v  -971.9154 200.8290 -672.9659
v  -931.6896 200.8290 -672.9659
v  -987.0354 129.0090 -671.7053
v  -987.0354 200.8290 -671.7053
v  -1018.6295 200.8290 -671.7053
v  -1018.6295 129.0090 -671.7053
v  -1018.6295 129.0090 -672.9659
v  -1018.6295 200.8290 -672.9659
v  -987.0354 200.8290 -672.9659
v  -987.0354 129.0090 -672.9659
v  -946.8094 129.0090 -340.3260
v  -946.8094 200.8290 -340.3260
v  -1018.6295 200.8290 -340.3260
v  -1018.6295 129.0090 -340.3260
v  -1018.6295 129.0090 -341.5865
v  -1018.6295 200.8290 -341.5865
v  -946.8094 200.8290 -341.5865
v  -946.8094 129.0090 -341.5865
v  -959.3696 215.2402 -356.8682
v  -959.3696 212.9272 -356.0262
v  -959.3696 210.4657 -356.0262
v  -959.3696 217.1258 -358.4503
v  -959.3696 208.1527 -356.8682
v  -959.3696 218.3565 -360.5819
v  -959.3696 206.2671 -358.4503
v  -959.3696 218.7840 -363.0061
v  -959.3696 205.0364 -360.5819
v  -959.3696 204.6090 -363.0061
v  -959.3696 204.6090 -378.0807
v  -959.3696 218.7840 -381.6149
v  -959.3696 204.2130 -382.1189
v  -959.3696 218.3880 -385.6531
v  -959.3696 203.0403 -386.0033
v  -959.3696 217.2153 -389.5375
v  -959.3696 132.9017 -520.2653
v  -959.3696 147.0767 -523.7994
v  -959.3696 132.7890 -548.2594
v  -959.3696 146.9640 -548.2594
v  -959.3696 146.5365 -550.6835
v  -959.3696 145.3058 -552.8152
v  -959.3696 133.2164 -550.6835
v  -959.3696 143.4202 -554.3972
v  -959.3696 134.4471 -552.8152
v  -959.3696 141.1072 -555.2391
v  -959.3696 136.3327 -554.3972
v  -959.3696 138.6457 -555.2391
v  -986.6859 215.2402 -356.8682
v  -986.6859 212.9272 -356.0262
v  -986.6859 210.4657 -356.0262
v  -986.6859 217.1258 -358.4503
v  -986.6859 208.1527 -356.8682
v  -986.6859 218.3566 -360.5819
v  -986.6859 206.2671 -358.4503
v  -986.6859 218.7840 -363.0061
v  -986.6859 205.0364 -360.5819
v  -986.6859 204.6090 -363.0061
v  -986.6859 204.6090 -378.0807
v  -986.6859 218.7840 -381.6149
v  -986.6859 204.2130 -382.1189
v  -986.6859 218.3880 -385.6531
v  -986.6859 203.0403 -386.0033
v  -986.6859 217.2153 -389.5375
v  -986.6859 132.9017 -520.2653
v  -986.6859 147.0767 -523.7994
v  -986.6859 133.2164 -550.6835
v  -986.6859 146.9640 -548.2594
v  -986.6859 145.3058 -552.8152
v  -986.6859 136.3327 -554.3972
v  -986.6859 141.1072 -555.2391
v  -1013.9045 215.2402 -356.8682
v  -1013.9045 212.9272 -356.0262
v  -1013.9045 210.4657 -356.0262
v  -1013.9045 217.1258 -358.4503
v  -1013.9045 208.1527 -356.8682
v  -1013.9045 218.3566 -360.5819
v  -1013.9045 206.2671 -358.4503
v  -1013.9045 218.7840 -363.0061
v  -1013.9045 205.0364 -360.5819
v  -1013.9045 204.6090 -363.0061
v  -1013.9045 204.6090 -378.0807
v  -1013.9045 218.7840 -381.6149
v  -1013.9045 204.2130 -382.1189
v  -1013.9045 218.3880 -385.6531
v  -1013.9045 203.0403 -386.0033
v  -1013.9045 217.2153 -389.5375
v  -1013.9045 132.9017 -520.2653
v  -1013.9045 147.0767 -523.7994
v  -1013.9045 133.2164 -550.6835
v  -1013.9045 146.9640 -548.2594
v  -1013.9045 145.3058 -552.8152
v  -1013.9045 136.3327 -554.3972
v  -1013.9045 141.1072 -555.2391
# 120 vertices

vn -1.0000 0.0000 -0.0000
vn 1.0000 0.0000 0.0000
vn 0.0000 0.0000 1.0000
vn 0.0000 1.0000 -0.0000
vn 0.0000 0.0000 -1.0000
vn 0.0000 -1.0000 -0.0000
vn 1.0000 0.0000 -0.0000
vn -0.0000 0.0000 1.0000
vn 1.0000 -0.0000 0.0000
# 9 vertex normals

vt 0.8648 0.8935 0.0469
vt 0.8648 0.8935 0.0475
vt 0.8648 0.8935 0.5146
vt 0.8648 0.8935 0.7975
vt 0.8648 0.8935 0.9981
vt 0.8648 0.8935 0.5291
vt 0.8648 0.8935 0.4827
vt 0.8648 0.8935 0.5580
vt 0.8648 0.8935 0.9018
vt 0.8648 0.8935 0.9538
vt 0.8648 0.8935 1.0000
vt 0.8648 0.8935 0.0255
vt 0.8648 0.8935 0.0173
vt 0.8648 0.8935 0.0000
vt 0.8648 0.8935 0.4915
vt 0.8648 0.8935 0.4934
vt 0.8648 0.8935 0.0393
vt 0.8648 0.8935 0.0324
vt 0.8648 0.8935 0.0175
vt 0.8648 0.8935 0.0026
# 20 texture coords

g B3A_T_pj_lanse_01_lv_btm
usemtl pj_lanse_01
s off
f 145/79/11 146/79/11 147/79/11 148/79/11 
f 149/79/11 145/79/11 148/79/11 150/79/11 
f 150/79/11 148/79/11 151/79/11 152/79/11 
f 152/79/11 151/79/11 153/79/11 154/79/11 
f 155/79/11 149/79/11 150/79/11 156/79/11 
f 157/80/12 158/80/12 159/80/12 160/80/12 
f 161/80/12 157/80/12 160/80/12 162/80/12 
f 163/80/12 161/80/12 162/80/12 164/80/12 
f 164/80/12 162/80/12 165/80/12 166/80/12 
f 161/80/12 163/80/12 167/80/12 168/80/12 
f 165/81/13 162/81/13 148/81/13 147/81/13 
f 162/82/14 160/82/14 151/82/14 148/82/14 
f 151/83/15 160/83/15 159/83/15 153/83/15 
f 145/84/15 164/84/15 166/84/15 146/84/15 
f 149/85/16 163/85/16 164/85/16 145/85/16 
f 155/86/13 167/86/13 163/86/13 149/86/13 
f 161/87/15 168/87/15 156/87/15 150/87/15 
f 152/85/16 157/85/16 161/85/16 150/85/16 
f 154/88/13 158/88/13 157/88/13 152/88/13 
f 169/83/13 170/83/13 153/83/13 151/83/13 
f 160/83/13 151/83/13 153/83/13 159/83/13 
f 171/89/15 172/89/15 173/89/15 174/89/15 
f 151/82/14 160/82/14 174/82/14 173/82/14 
f 151/82/14 173/82/14 169/82/14 
f 173/90/11 172/90/11 170/90/11 169/90/11 
f 171/80/12 174/80/12 160/80/12 159/80/12 
f 175/83/13 176/83/13 177/83/13 178/83/13 
f 179/89/15 180/89/15 181/89/15 182/89/15 
f 182/91/17 181/91/17 176/91/17 175/91/17 
f 181/82/14 180/82/14 177/82/14 176/82/14 
f 180/92/11 179/92/11 178/92/11 177/92/11 
f 183/93/18 184/93/18 185/93/18 186/93/18 
f 187/94/15 188/94/15 189/94/15 190/94/15 
f 190/95/17 189/95/17 184/95/17 183/95/17 
f 189/82/14 188/82/14 185/82/14 184/82/14 
f 188/92/11 187/92/11 186/92/11 185/92/11 
f 191/96/12 192/96/12 193/96/12 194/96/12 
f 194/96/12 193/96/12 195/96/12 196/96/12 
f 196/96/12 195/96/12 197/96/12 198/96/12 
f 198/96/12 197/96/12 199/96/12 200/96/12 
f 198/96/12 200/96/12 201/96/12 202/96/12 
f 202/96/12 201/96/12 203/96/12 204/96/12 
f 204/96/12 203/96/12 205/96/12 206/96/12 
f 206/96/12 205/96/12 207/96/12 208/96/12 
f 208/96/12 207/96/12 209/96/12 210/96/12 
f 211/96/12 210/96/12 209/96/12 212/96/12 
f 212/96/12 209/96/12 213/96/12 214/96/12 
f 214/96/12 213/96/12 215/96/12 216/96/12 
f 216/96/12 215/96/12 217/96/12 218/96/12 
f 219/97/19 220/97/19 221/97/19 222/97/19 
f 222/97/19 221/97/19 223/97/19 224/97/19 
f 224/97/19 223/97/19 225/97/19 226/97/19 
f 226/97/19 225/97/19 227/97/19 228/97/19 
f 226/97/19 228/97/19 229/97/19 230/97/19 
f 230/97/19 229/97/19 231/97/19 232/97/19 
f 232/97/19 231/97/19 233/97/19 234/97/19 
f 234/97/19 233/97/19 235/97/19 236/97/19 
f 236/97/19 235/97/19 237/97/19 238/97/19 
f 239/97/19 238/97/19 237/97/19 240/97/19 
f 240/97/19 241/97/19 239/97/19 
f 242/98/12 243/98/12 244/98/12 245/98/12 
f 245/98/12 244/98/12 246/98/12 247/98/12 
f 247/98/12 246/98/12 248/98/12 249/98/12 
f 249/98/12 248/98/12 250/98/12 251/98/12 
f 249/98/12 251/98/12 252/98/12 253/98/12 
f 253/98/12 252/98/12 254/98/12 255/98/12 
f 255/98/12 254/98/12 256/98/12 257/98/12 
f 257/98/12 256/98/12 258/98/12 259/98/12 
f 259/98/12 258/98/12 260/98/12 261/98/12 
f 262/98/12 261/98/12 260/98/12 263/98/12 
f 263/98/12 264/98/12 262/98/12 
# 68 polygons - 3 triangles

