# 3ds Max Wavefront OBJ Exporter v0.97b - (c)2007 guruware
# File Created: 09.01.2018 16:33:48

mtllib B3A_T_tujian_004_zi.mtl

#
# object B3A_T_tujian_004_zi
#

v  559.5204 123.3389 -347.8866
v  559.5204 123.3389 -310.0858
v  597.3213 123.3389 -310.0858
v  597.3213 123.3389 -347.8866
v  322.7982 129.0089 -19.0261
v  322.7982 176.2589 -19.0261
v  322.7982 176.2589 -185.3461
v  322.7982 129.0089 -185.3461
v  318.1676 183.8189 -19.0261
v  318.1676 183.8189 -185.3461
v  318.1676 176.2589 -185.3461
v  318.1676 176.2589 -19.0261
v  324.2156 176.2589 -185.3461
v  324.2156 176.2589 -19.0261
v  324.2156 183.8189 -19.0261
v  324.2156 183.8189 -185.3461
v  324.2156 129.0089 -185.3461
v  324.2156 129.0089 -19.0261
v  322.7982 129.0089 -192.9342
v  322.7982 176.2589 -192.9342
v  322.7982 176.2589 -344.1345
v  322.7982 129.0089 -344.1345
v  318.1676 183.8189 -192.9342
v  318.1676 183.8189 -344.1346
v  318.1676 176.2589 -344.1346
v  318.1676 176.2589 -192.9342
v  324.2156 176.2589 -344.1345
v  324.2156 176.2589 -192.9342
v  324.2156 183.8189 -192.9342
v  324.2156 183.8189 -344.1345
v  324.2156 129.0089 -344.1345
v  324.2156 129.0089 -192.9342
v  322.7982 129.0089 -350.7493
v  322.7982 176.2589 -350.7493
v  322.7982 176.2589 -498.6417
v  322.7982 129.0089 -498.6417
v  318.1676 183.8189 -350.7493
v  318.1676 183.8189 -498.6417
v  318.1676 176.2589 -498.6417
v  318.1676 176.2589 -350.7493
v  324.2156 176.2589 -498.6417
v  324.2156 176.2589 -350.7493
v  324.2156 183.8189 -350.7493
v  324.2156 183.8189 -498.6417
v  324.2156 129.0089 -498.6417
v  324.2156 129.0089 -350.7493
v  759.3458 129.0089 -7.9697
v  759.3458 176.2589 -7.9697
v  333.6656 176.2589 -7.9697
v  333.6656 129.0089 -7.9697
v  759.3458 183.8190 -3.3392
v  333.6656 183.8190 -3.3391
v  333.6656 176.2589 -3.3391
v  759.3458 176.2589 -3.3392
v  333.6656 176.2589 -9.3871
v  759.3458 176.2589 -9.3872
v  759.3458 183.8190 -9.3872
v  333.6656 183.8190 -9.3871
v  333.6656 176.2589 -9.3872
v  333.6656 129.0089 -9.3872
v  759.3458 129.0089 -9.3872
v  818.9230 129.0089 -161.0258
v  818.9230 176.2589 -161.0258
v  818.9230 176.2589 -13.1337
v  818.9230 129.0089 -13.1337
v  823.5538 183.8189 -161.0258
v  823.5538 183.8189 -13.1337
v  823.5538 176.2589 -13.1337
v  823.5538 176.2589 -161.0258
v  817.5057 176.2589 -13.1337
v  817.5057 176.2589 -161.0258
v  817.5057 183.8189 -161.0258
v  817.5057 183.8189 -13.1337
v  817.5057 129.0089 -13.1337
v  817.5057 176.2589 -161.0256
v  817.5057 129.0089 -161.0258
v  818.9232 129.0089 -366.6849
v  818.9232 176.2589 -366.6849
v  818.9232 176.2589 -170.1246
v  818.9232 129.0089 -170.1246
v  823.5543 183.8189 -366.6849
v  823.5543 183.8189 -170.1246
v  823.5543 176.2589 -170.1246
v  823.5543 176.2589 -366.6849
v  817.5062 176.2589 -170.1246
v  817.5062 176.2589 -366.6849
v  817.5062 183.8189 -366.6849
v  817.5062 183.8189 -170.1246
v  817.5060 176.2589 -170.1246
v  817.5060 129.0089 -170.1246
v  817.5060 176.2589 -366.6847
v  817.5060 129.0089 -366.6849
v  818.9232 129.0089 -503.8109
v  818.9232 176.2589 -503.8109
v  818.9232 176.2589 -375.2906
v  818.9232 129.0089 -375.2906
v  823.5543 183.8189 -503.8109
v  823.5543 183.8189 -375.2906
v  823.5543 176.2589 -375.2906
v  823.5543 176.2589 -503.8109
v  817.5062 176.2589 -375.2906
v  817.5062 176.2589 -503.8109
v  817.5062 183.8189 -503.8109
v  817.5062 183.8189 -375.2906
v  817.5060 176.2589 -375.2906
v  817.5060 129.0089 -375.2906
v  817.5060 176.2589 -503.8109
v  817.5060 129.0089 -503.8109
v  673.8656 129.0089 -514.1121
v  673.8656 176.2589 -514.1121
v  804.2758 176.2589 -514.1123
v  804.2758 129.0089 -514.1123
v  673.8656 183.8189 -518.7429
v  804.2758 183.8189 -518.7429
v  804.2758 176.2589 -518.7429
v  673.8656 176.2589 -518.7429
v  804.2758 176.2589 -512.6949
v  673.8656 176.2589 -512.6949
v  673.8656 183.8189 -512.6949
v  804.2758 183.8189 -512.6949
v  804.2758 176.2589 -512.6947
v  804.2758 129.0089 -512.6947
v  673.8656 176.2589 -512.6947
v  673.8656 129.0089 -512.6947
v  575.5857 129.0089 -510.8986
v  575.5857 176.2589 -510.8986
v  645.5153 176.2589 -510.8986
v  645.5153 129.0089 -510.8986
v  575.5857 183.8189 -515.5292
v  645.5153 183.8189 -515.5294
v  645.5153 176.2589 -515.5294
v  575.5857 176.2589 -515.5292
v  645.5153 176.2589 -509.4814
v  575.5857 176.2589 -509.4812
v  575.5857 183.8189 -509.4812
v  645.5153 183.8189 -509.4814
v  645.5153 176.2589 -509.4811
v  645.5153 129.0089 -509.4811
v  575.5857 176.2589 -509.4811
v  575.5857 129.0089 -509.4811
v  799.2672 172.9515 -18.3306
v  764.3020 172.9515 -18.3306
v  764.3020 129.0090 -18.3306
v  799.2672 129.0090 -18.3306
v  799.2672 129.0090 -20.5361
v  799.2672 172.9515 -20.5361
v  764.3020 172.9515 -20.5361
v  764.3020 129.0089 -20.5361
v  333.1931 172.9514 -111.6455
v  333.1931 172.9514 -146.1378
v  333.1931 129.0089 -146.1378
v  333.1931 129.0089 -111.6454
v  335.3984 129.0090 -111.6454
v  335.3984 172.9515 -111.6455
v  335.3984 172.9514 -146.1378
v  335.3984 129.0089 -146.1378
v  333.1931 172.9514 -77.1528
v  333.1931 172.9514 -111.6453
v  333.1931 129.0089 -111.6453
v  333.1931 129.0089 -77.1527
v  335.3984 129.0090 -77.1527
v  335.3984 172.9514 -77.1528
v  335.3984 172.9514 -111.6453
v  335.3984 129.0089 -111.6453
v  755.6082 129.0089 -7.2129
v  755.6082 172.9514 -7.2129
v  760.3326 172.9514 -7.2129
v  760.3326 129.0089 -7.2129
v  813.2533 129.0089 -7.0995
v  813.2533 172.9514 -7.0995
v  817.9779 172.9514 -7.0995
v  817.9779 129.0089 -7.0995
v  630.3820 149.7990 -411.5033
v  630.3820 151.6890 -411.5033
v  632.2432 151.6890 -411.8315
v  632.2432 149.7990 -411.8315
v  630.3983 151.6890 -411.3170
v  632.2596 151.6890 -411.6451
v  630.3983 149.7990 -411.3170
v  632.2596 149.7990 -411.6451
v  582.9187 149.7990 -403.1342
v  582.9187 151.6890 -403.1342
v  584.7802 151.6890 -403.4624
v  584.7802 149.7990 -403.4624
v  582.9349 151.6890 -402.9479
v  584.7964 151.6890 -403.2761
v  582.9349 149.7990 -402.9479
v  584.7964 149.7990 -403.2761
v  626.8671 176.2590 -406.8561
v  604.5313 176.2590 -402.9180
v  604.5313 129.0089 -402.9180
v  626.8671 129.0089 -406.8561
v  603.8749 176.2590 -406.6403
v  626.2107 176.2590 -410.5786
v  626.2107 129.0089 -410.5786
v  603.8749 129.0089 -406.6403
v  579.4041 176.2590 -398.4868
v  555.2069 176.2590 -394.2201
v  555.2069 129.0089 -394.2201
v  579.4041 129.0089 -398.4868
v  554.5504 176.2590 -397.9425
v  578.7477 176.2590 -402.2094
v  578.7477 129.0089 -402.2094
v  554.5504 129.0089 -397.9425
v  520.3182 129.4558 -222.0161
v  520.3182 110.0833 -222.0161
v  559.6896 110.0833 -228.9584
v  564.8638 129.2952 -229.8708
v  692.7112 183.1340 -252.4137
v  699.1996 201.1124 -253.5576
v  732.5378 201.1123 -259.4362
v  732.5376 183.1340 -259.4362
v  510.2098 129.4558 -279.3440
v  510.2098 110.0833 -279.3440
v  549.5811 110.0833 -286.2861
v  682.6027 183.1340 -309.7413
v  722.4293 183.1340 -316.7638
v  722.4293 201.1123 -316.7638
v  554.7554 129.2952 -287.1985
v  689.0911 201.1124 -310.8855
v  535.2086 133.0723 -224.6416
v  535.2086 127.4023 -224.6416
v  562.9607 127.5016 -229.5350
v  560.9626 133.0723 -229.1827
v  564.5651 133.5215 -229.8179
v  566.8804 128.2896 -230.2263
v  567.9534 134.8422 -230.4154
v  570.5747 129.8358 -230.8777
v  695.8113 197.4525 -252.9601
v  694.9996 203.3236 -252.8170
v  698.8251 204.4964 -253.4916
v  699.1996 198.7732 -253.5576
v  717.6475 199.2223 -256.8105
v  717.6475 204.8923 -256.8105
v  702.8018 204.8923 -254.1929
v  702.8018 199.2223 -254.1929
v  534.3224 133.0723 -229.6672
v  534.3224 127.4023 -229.6672
v  560.0767 133.0723 -234.2084
v  562.0745 127.5016 -234.5605
v  565.9944 128.2896 -235.2518
v  569.6887 129.8358 -235.9032
v  563.6788 133.5215 -234.8436
v  567.0671 134.8422 -235.4409
v  694.9250 197.4525 -257.9858
v  698.3134 198.7732 -258.5831
v  701.9158 199.2223 -259.2184
v  716.7612 199.2223 -261.8361
v  694.1135 203.3237 -257.8427
v  697.9388 204.4964 -258.5171
v  701.9158 204.8923 -259.2184
v  716.7612 204.8923 -261.8361
v  696.8613 204.8923 -287.8822
v  711.7070 204.8923 -290.4999
v  711.7070 199.2223 -290.4999
v  696.8613 199.2223 -287.8822
v  693.2592 198.7732 -287.2471
v  692.8848 204.4964 -287.1809
v  689.8710 197.4525 -286.6497
v  689.0594 203.3236 -286.5066
v  557.0203 127.5016 -263.2244
v  529.2682 127.4023 -258.3311
v  529.2682 133.0723 -258.3311
v  555.0225 133.0723 -262.8722
v  558.6246 133.5215 -263.5074
v  560.9402 128.2896 -263.9156
v  562.0129 134.8422 -264.1049
v  564.6345 129.8358 -264.5670
v  531.0404 127.4023 -248.2800
v  531.0404 133.0723 -248.2800
v  556.7948 133.0723 -252.8210
v  558.7926 127.5016 -253.1733
v  562.7123 128.2896 -253.8646
v  566.4067 129.8358 -254.5160
v  560.3970 133.5215 -253.4562
v  563.7852 134.8422 -254.0538
v  691.6432 197.4525 -276.5986
v  695.0315 198.7732 -277.1960
v  713.4794 199.2223 -280.4489
v  698.6337 199.2223 -277.8312
v  690.8317 203.3237 -276.4556
v  694.6570 204.4964 -277.1299
v  698.6337 204.8923 -277.8312
v  713.4794 204.8923 -280.4489
v  525.9863 133.0723 -276.9438
v  525.9863 127.4023 -276.9438
v  553.7384 127.5016 -281.8374
v  551.7404 133.0723 -281.4851
v  555.3428 133.5215 -282.1202
v  557.6581 128.2896 -282.5284
v  558.7311 134.8422 -282.7177
v  561.3524 129.8358 -283.1799
v  686.5890 197.4525 -305.2625
v  685.7773 203.3237 -305.1194
v  689.6027 204.4964 -305.7939
v  689.9773 198.7732 -305.8600
v  708.4252 199.2223 -309.1127
v  708.4252 204.8923 -309.1127
v  693.5795 204.8923 -306.4952
v  693.5795 199.2223 -306.4952
v  525.1001 133.0723 -281.9694
v  525.1001 127.4023 -281.9694
v  550.8544 133.0723 -286.5106
v  552.8522 127.5016 -286.8629
v  556.7721 128.2896 -287.5542
v  560.4664 129.8358 -288.2054
v  554.4565 133.5215 -287.1458
v  557.8448 134.8422 -287.7433
v  685.7028 197.4525 -310.2881
v  689.0911 198.7732 -310.8855
v  692.6935 199.2223 -311.5206
v  707.5389 199.2223 -314.1384
v  684.8912 203.3237 -310.1450
v  688.7166 204.4964 -310.8195
v  692.6935 204.8923 -311.5206
v  707.5389 204.8923 -314.1384
v  756.0806 129.0089 -6.7401
v  759.8605 129.0089 -6.7401
v  759.8605 172.4789 -6.7401
v  756.0806 172.4789 -6.7401
v  813.7255 172.4789 -6.6267
v  813.7255 129.0089 -6.6267
v  817.5055 129.0089 -6.6267
v  817.5055 172.4789 -6.6267
# 324 vertices

vn 0.0000 1.0000 -0.0000
vn -1.0000 0.0000 -0.0000
vn 0.0000 -1.0000 -0.0000
vn 0.0000 0.0000 1.0000
vn 0.0000 0.0000 -1.0000
vn 1.0000 0.0000 -0.0000
vn -0.0000 0.0000 -1.0000
vn -0.0001 0.0000 -1.0000
vn -0.0000 0.0000 1.0000
vn -0.0000 1.0000 -0.0000
vn -0.1737 0.0000 -0.9848
vn -0.9962 0.0000 0.0874
vn 0.9961 0.0000 -0.0883
vn -0.9963 0.0000 0.0865
vn 0.9963 0.0000 -0.0865
vn 0.1736 0.0000 0.9848
vn -0.1736 0.0000 -0.9848
vn 0.1737 0.0000 0.9848
vn 0.1736 -0.0000 0.9848
vn -0.9848 0.0000 0.1736
vn 0.4685 -0.8796 -0.0826
vn 0.9848 -0.0000 -0.1736
vn 0.0035 1.0000 -0.0006
vn -0.4588 0.8849 0.0809
vn -0.1736 -0.0000 -0.9848
vn 0.1737 -0.0000 0.9848
vn -0.9848 0.0000 0.1737
vn 0.0035 -1.0000 -0.0006
vn 0.1913 -0.9810 -0.0337
vn 0.3753 -0.9245 -0.0662
vn -0.1200 0.9925 0.0212
vn -0.3529 0.9336 0.0622
vn 0.4623 -0.8829 -0.0815
vn 0.3529 -0.9336 -0.0622
vn -0.0000 -1.0000 -0.0000
vn 0.1200 -0.9925 -0.0212
vn -0.4617 0.8833 0.0814
vn -0.2846 0.9573 0.0502
vn -0.0961 0.9952 0.0169
vn 0.9848 0.0000 -0.1737
vn 0.1738 -0.0003 0.9848
vn -0.1736 -0.0001 -0.9848
vn -0.1737 -0.0000 -0.9848
vn 0.0000 -1.0000 0.0000
vn 0.9848 0.0000 -0.1736
vn 0.1736 0.0002 0.9848
vn 0.0000 1.0000 0.0000
# 47 vertex normals

vt 0.4335 0.3201 0.5000
vt 0.4335 0.0016 0.5000
vt 0.1724 0.0016 0.5000
vt 0.1724 0.3201 0.5000
vt 0.4380 0.3235 1.0000
vt 0.4380 0.5313 0.9176
vt 0.0006 0.5313 0.0200
vt 0.0006 0.3235 0.1025
vt 0.4380 0.5819 0.8975
vt 0.0006 0.5819 0.0000
vt 0.0007 0.5353 0.0866
vt 0.4380 0.5353 0.9176
vt 0.0028 0.5313 0.0866
vt 0.4331 0.5819 0.0866
vt 0.4331 0.5354 0.0000
vt 0.4092 0.5354 0.0000
vt 0.4092 0.5819 0.0866
vt 0.0246 0.5354 0.0866
vt 0.0245 0.5819 0.0000
vt 0.0007 0.5354 0.0866
vt 0.0006 0.5193 0.0200
vt 0.4380 0.5193 0.9176
vt 0.3903 0.9998 1.0000
vt 0.0004 0.9998 1.0000
vt 0.0004 0.5823 1.0000
vt 0.3903 0.5823 1.0000
vt 0.0354 0.7910 1.0000
vt 0.0354 0.7910 -0.0000
vt 0.0004 0.9998 -0.0000
vt 0.3903 0.9998 -0.0000
vt 0.3903 0.5823 -0.0000
vt 0.0004 0.5823 -0.0000
vt 0.1038 0.2927 0.0000
vt 0.0859 0.2927 0.0000
vt 0.0859 0.3150 0.0000
vt 0.1038 0.3150 0.0000
vt 0.1686 0.2761 1.0000
vt 0.0006 0.2761 1.0000
vt 0.0006 0.0006 1.0000
vt 0.1686 0.0006 1.0000
vt 0.0006 0.2761 0.0000
vt 0.1686 0.2761 0.0000
vt 0.1686 0.0006 0.0000
vt 0.0006 0.0006 0.0000
vt 0.1328 0.2446 0.0000
vt 0.1328 0.2446 -0.0000
vt 0.1328 0.2446 0.7705
vt 0.1328 0.2446 1.0000
vt 0.1328 0.2446 0.2043
vt 0.1328 0.2446 0.2026
vt 0.1328 0.2446 0.9601
vt 0.0860 0.2215 0.0000
vt 0.0860 0.2215 0.0702
vt 0.0860 0.2215 0.2425
vt 0.0860 0.2215 0.1827
vt 0.0860 0.2215 0.1837
vt 0.0860 0.2215 0.1920
vt 0.0860 0.2215 0.2083
vt 0.0860 0.2215 0.2472
vt 0.0860 0.2215 0.2611
vt 0.0860 0.2215 0.9215
vt 0.0860 0.2215 0.9355
vt 0.0860 0.2215 0.9402
vt 0.0860 0.2215 0.9835
vt 0.0860 0.2215 0.9958
vt 0.0860 0.2215 1.0000
vt 0.0860 0.2215 0.9298
vt 0.0860 0.2215 0.0877
vt 0.0860 0.2215 0.5877
vt 0.0860 0.2215 0.4123
vt 0.0860 0.2215 0.9123
vt 0.9682 0.9819 0.3208
vt 0.9682 0.9819 0.3207
# 73 texture coords

g B3A_T_tujian_004_zi
usemtl T_tujian_004
s 1
f 1/1/1 2/2/1 3/3/1 4/4/1 
f 5/5/2 6/6/2 7/7/2 8/8/2 
f 9/9/2 10/10/2 11/11/2 12/12/2 
s off
f 12/6/3 11/13/3 13/13/3 14/6/3 
f 9/14/4 12/15/4 14/16/4 15/17/4 
f 10/10/1 9/9/1 15/9/1 16/10/1 
f 11/18/5 10/19/5 16/10/5 13/20/5 
f 7/7/5 13/7/5 17/8/5 8/8/5 
s 1
f 13/21/6 14/22/6 18/5/6 17/8/6 
s off
f 5/5/4 18/5/4 14/6/4 6/6/4 
s 1
f 19/5/2 20/6/2 21/7/2 22/8/2 
f 23/9/2 24/10/2 25/11/2 26/12/2 
s off
f 26/6/3 25/13/3 27/13/3 28/6/3 
f 23/14/4 26/15/4 28/16/4 29/17/4 
f 24/10/1 23/9/1 29/9/1 30/10/1 
f 25/18/5 24/19/5 30/10/5 27/20/5 
f 21/7/5 27/7/5 31/8/5 22/8/5 
s 1
f 27/21/6 28/22/6 32/5/6 31/8/6 
s off
f 19/5/4 32/5/4 28/6/4 20/6/4 
s 1
f 33/5/2 34/6/2 35/7/2 36/8/2 
f 37/9/2 38/10/2 39/11/2 40/12/2 
s off
f 40/6/3 39/13/3 41/13/3 42/6/3 
f 37/14/4 40/15/4 42/16/4 43/17/4 
f 38/10/1 37/9/1 43/9/1 44/10/1 
f 39/18/5 38/19/5 44/10/5 41/20/5 
f 35/7/5 41/7/5 45/8/5 36/8/5 
s 1
f 41/21/6 42/22/6 46/5/6 45/8/6 
s off
f 33/5/4 46/5/4 42/6/4 34/6/4 
s 1
f 47/5/4 48/6/4 49/7/4 50/8/4 
f 51/9/4 52/10/4 53/11/4 54/12/4 
s off
f 54/6/3 53/13/3 55/13/3 56/6/3 
f 51/14/6 54/15/6 56/16/6 57/17/6 
f 52/10/1 51/9/1 57/9/1 58/10/1 
f 53/18/2 52/19/2 58/10/2 55/20/2 
f 49/7/2 59/7/2 60/8/2 50/8/2 
s 1
f 59/21/7 56/22/7 61/5/7 60/8/7 
s off
f 47/5/6 61/5/6 56/6/6 48/6/6 
s 1
f 62/5/6 63/6/6 64/7/6 65/8/6 
f 66/9/6 67/10/6 68/11/6 69/12/6 
s off
f 69/6/3 68/13/3 70/13/3 71/6/3 
f 66/14/5 69/15/5 71/16/5 72/17/5 
f 67/10/1 66/9/1 72/9/1 73/10/1 
f 68/18/4 67/19/4 73/10/4 70/20/4 
f 64/7/4 70/7/4 74/8/4 65/8/4 
s 1
f 70/21/2 75/22/2 76/5/2 74/8/2 
s off
f 62/5/8 76/5/8 75/6/8 63/6/8 
s 1
f 77/5/6 78/6/6 79/7/6 80/8/6 
f 81/9/6 82/10/6 83/11/6 84/12/6 
s off
f 84/6/3 83/13/3 85/13/3 86/6/3 
f 81/14/5 84/15/5 86/16/5 87/17/5 
f 82/10/1 81/9/1 87/9/1 88/10/1 
f 83/18/4 82/19/4 88/10/4 85/20/4 
f 79/7/4 89/7/4 90/8/4 80/8/4 
s 1
f 89/21/2 91/22/2 92/5/2 90/8/2 
s off
f 77/5/8 92/5/8 91/6/8 78/6/8 
s 1
f 93/5/6 94/6/6 95/7/6 96/8/6 
f 97/9/6 98/10/6 99/11/6 100/12/6 
s off
f 100/6/3 99/13/3 101/13/3 102/6/3 
f 97/14/5 100/15/5 102/16/5 103/17/5 
f 98/10/1 97/9/1 103/9/1 104/10/1 
f 99/18/4 98/19/4 104/10/4 101/20/4 
f 95/7/4 105/7/4 106/8/4 96/8/4 
s 1
f 105/21/2 107/22/2 108/5/2 106/8/2 
s off
f 93/5/5 108/5/5 107/6/5 94/6/5 
s 1
f 109/5/7 110/6/7 111/7/7 112/8/7 
f 113/9/5 114/10/5 115/11/5 116/12/5 
s off
f 116/6/3 115/13/3 117/13/3 118/6/3 
f 113/14/2 116/15/2 118/16/2 119/17/2 
f 114/10/1 113/9/1 119/9/1 120/10/1 
f 115/18/6 114/19/6 120/10/6 117/20/6 
f 111/7/6 121/7/6 122/8/6 112/8/6 
s 1
f 121/21/4 123/22/4 124/5/4 122/8/4 
s off
f 109/5/2 124/5/2 123/6/2 110/6/2 
s 1
f 125/5/5 126/6/5 127/7/5 128/8/5 
f 129/9/7 130/10/7 131/11/7 132/12/7 
s off
f 132/6/3 131/13/3 133/13/3 134/6/3 
f 129/14/2 132/15/2 134/16/2 135/17/2 
f 130/10/1 129/9/1 135/9/1 136/10/1 
f 131/18/6 130/19/6 136/10/6 133/20/6 
f 127/7/6 137/7/6 138/8/6 128/8/6 
s 1
f 137/21/4 139/22/4 140/5/4 138/8/4 
s off
f 125/5/2 140/5/2 139/6/2 126/6/2 
s 1
f 141/23/4 142/24/4 143/25/4 144/26/4 
s off
f 141/27/6 144/27/6 145/28/6 146/28/6 
f 143/27/2 142/27/2 147/28/2 148/28/2 
f 142/27/1 141/27/1 146/28/1 147/28/1 
f 147/29/5 146/30/5 145/31/5 148/32/5 
s 1
f 149/23/2 150/24/2 151/25/2 152/26/2 
s off
f 149/27/9 152/27/9 153/28/9 154/28/9 
f 151/27/5 150/27/5 155/28/5 156/28/5 
f 150/27/10 149/27/10 154/28/10 155/28/10 
f 155/29/6 154/30/6 153/31/6 156/32/6 
s 1
f 157/23/2 158/24/2 159/25/2 160/26/2 
s off
f 157/27/9 160/27/9 161/28/9 162/28/9 
f 159/27/5 158/27/5 163/28/5 164/28/5 
f 158/27/1 157/27/1 162/28/1 163/28/1 
f 163/29/6 162/30/6 161/31/6 164/32/6 
f 165/27/5 166/27/5 167/28/5 168/28/5 
f 169/27/5 170/27/5 171/28/5 172/28/5 
f 173/33/11 174/34/11 175/35/11 176/36/11 
f 177/34/1 178/35/1 175/35/1 174/34/1 
f 179/33/12 177/34/12 174/34/12 173/33/12 
f 180/36/3 179/33/3 173/33/3 176/36/3 
f 178/35/13 180/36/13 176/36/13 175/35/13 
f 181/33/11 182/34/11 183/35/11 184/36/11 
f 185/34/1 186/35/1 183/35/1 182/34/1 
f 187/33/14 185/34/14 182/34/14 181/33/14 
f 188/36/3 187/33/3 181/33/3 184/36/3 
f 186/35/15 188/36/15 184/36/15 183/35/15 
s 1
f 189/37/16 190/38/16 191/39/16 192/40/16 
s off
f 193/41/17 194/42/17 195/43/17 196/44/17 
s 1
f 197/37/18 198/38/18 199/39/18 200/40/18 
s off
f 201/41/11 202/42/11 203/43/11 204/44/11 
f 205/45/18 206/45/18 207/45/18 208/45/18 
f 209/45/19 210/45/19 208/45/19 207/45/19 
f 211/45/19 210/45/19 209/45/19 212/45/19 
f 206/46/20 205/46/20 213/46/20 214/46/20 
f 207/45/3 206/45/3 214/45/3 215/45/3 
f 209/47/21 207/45/21 215/45/21 216/47/21 
f 212/47/3 209/47/3 216/47/3 217/47/3 
f 211/48/22 212/48/22 217/48/22 218/48/22 
f 205/49/23 208/50/23 219/50/23 213/49/23 
f 210/51/1 211/51/1 218/51/1 220/51/1 
f 210/51/24 220/51/24 219/50/24 208/50/24 
f 213/48/25 219/48/25 215/48/25 214/48/25 
f 216/48/25 215/48/25 219/48/25 220/48/25 
f 218/48/25 217/48/25 216/48/25 220/48/25 
f 221/52/19 222/52/19 223/52/19 224/52/19 
f 225/52/26 224/52/26 223/52/26 226/52/26 
f 227/52/26 225/52/26 226/52/26 228/52/26 
f 227/52/16 228/52/16 229/52/16 230/52/16 
f 231/52/26 230/52/26 229/52/26 232/52/26 
f 233/52/16 234/52/16 235/52/16 236/52/16 
f 232/52/26 236/52/26 235/52/26 231/52/26 
f 221/53/27 237/53/27 238/53/27 222/53/27 
f 224/54/1 239/54/1 237/54/1 221/54/1 
f 222/55/28 238/55/28 240/56/28 223/56/28 
f 223/56/29 240/56/29 241/57/29 226/57/29 
f 226/57/30 241/57/30 242/58/30 228/58/30 
f 225/59/31 243/59/31 239/54/31 224/54/31 
f 227/60/32 244/60/32 243/59/32 225/59/32 
f 228/58/33 242/58/33 245/61/33 229/61/33 
f 229/61/34 245/61/34 246/62/34 232/62/34 
f 236/63/35 247/63/35 248/63/35 233/63/35 
f 232/62/36 246/62/36 247/63/36 236/63/36 
f 230/64/37 249/64/37 244/60/37 227/60/37 
f 231/65/38 250/65/38 249/64/38 230/64/38 
f 235/66/39 251/66/39 250/65/39 231/65/39 
f 234/66/1 252/66/1 251/66/1 235/66/1 
f 233/67/40 248/67/40 252/67/40 234/67/40 
f 238/68/17 237/68/17 239/68/17 243/68/17 
f 244/68/25 249/68/25 250/68/25 241/68/25 
f 250/68/11 251/68/11 252/68/11 245/68/11 
f 252/68/25 248/68/25 247/68/25 246/68/25 
f 252/68/41 246/68/41 245/68/41 
f 245/68/11 242/68/11 241/68/11 250/68/11 
f 243/68/25 244/68/25 241/68/25 238/68/25 
f 238/68/42 241/68/42 240/68/42 
f 253/69/17 254/69/17 255/69/17 256/69/17 
f 253/69/11 256/69/11 257/69/11 258/69/11 
f 258/69/17 257/69/17 259/69/17 260/69/17 
f 261/69/25 262/69/25 263/69/25 264/69/25 
f 261/69/43 264/69/43 265/69/43 266/69/43 
f 266/69/25 265/69/25 267/69/25 268/69/25 
f 259/69/25 268/69/25 267/69/25 260/69/25 
f 263/53/20 262/53/20 269/53/20 270/53/20 
f 264/54/1 263/54/1 270/54/1 271/54/1 
f 262/55/28 261/56/28 272/56/28 269/55/28 
f 261/56/29 266/57/29 273/57/29 272/56/29 
f 266/57/30 268/58/30 274/58/30 273/57/30 
f 265/59/31 264/54/31 271/54/31 275/59/31 
f 267/60/32 265/59/32 275/59/32 276/60/32 
f 268/58/33 259/61/33 277/61/33 274/58/33 
f 259/61/34 257/62/34 278/62/34 277/61/34 
f 256/63/44 255/63/44 279/63/44 280/63/44 
f 257/62/36 256/63/36 280/63/36 278/62/36 
f 260/64/37 267/60/37 276/60/37 281/64/37 
f 258/65/38 260/64/38 281/64/38 282/65/38 
f 253/66/39 258/65/39 282/65/39 283/66/39 
f 254/66/1 253/66/1 283/66/1 284/66/1 
f 255/67/45 254/67/45 284/67/45 279/67/45 
f 269/70/19 272/70/19 273/70/19 275/70/19 
f 273/70/26 274/70/26 277/70/26 282/70/26 
f 280/70/19 279/70/19 284/70/19 278/70/19 
f 277/70/26 278/70/26 284/70/26 282/70/26 
f 284/70/46 283/70/46 282/70/46 
f 282/70/16 281/70/16 276/70/16 273/70/16 
f 273/70/26 276/70/26 275/70/26 
f 269/70/19 275/70/19 271/70/19 270/70/19 
f 285/71/19 286/71/19 287/71/19 288/71/19 
f 289/71/19 288/71/19 287/71/19 290/71/19 
f 291/71/26 289/71/26 290/71/26 292/71/26 
f 291/71/26 292/71/26 293/71/26 294/71/26 
f 295/71/18 294/71/18 293/71/18 296/71/18 
f 297/71/16 298/71/16 299/71/16 300/71/16 
f 296/71/26 300/71/26 299/71/26 295/71/26 
f 285/53/27 301/53/27 302/53/27 286/53/27 
f 288/54/1 303/54/1 301/54/1 285/54/1 
f 286/55/28 302/55/28 304/56/28 287/56/28 
f 287/56/29 304/56/29 305/57/29 290/57/29 
f 290/57/30 305/57/30 306/58/30 292/58/30 
f 289/59/31 307/59/31 303/54/31 288/54/31 
f 291/60/32 308/60/32 307/59/32 289/59/32 
f 292/58/33 306/58/33 309/61/33 293/61/33 
f 293/61/34 309/61/34 310/62/34 296/62/34 
f 300/63/3 311/63/3 312/63/3 297/63/3 
f 296/62/36 310/62/36 311/63/36 300/63/36 
f 294/64/37 313/64/37 308/60/37 291/60/37 
f 295/65/38 314/65/38 313/64/38 294/64/38 
f 299/66/39 315/66/39 314/65/39 295/65/39 
f 298/66/47 316/66/47 315/66/47 299/66/47 
f 297/67/40 312/67/40 316/67/40 298/67/40 
f 302/66/17 301/66/17 303/66/17 307/66/17 
f 308/66/25 313/66/25 314/66/25 305/66/25 
f 314/66/11 315/66/11 316/66/11 309/66/11 
f 316/66/25 312/66/25 311/66/25 310/66/25 
f 316/66/41 310/66/41 309/66/41 
f 309/66/11 306/66/11 305/66/11 314/66/11 
f 307/66/11 308/66/11 305/66/11 302/66/11 
f 302/66/42 305/66/42 304/66/42 
f 317/72/4 318/72/4 319/72/4 320/72/4 
f 321/73/4 322/73/4 323/73/4 324/73/4 
# 216 polygons - 6 triangles

