# 3ds Max Wavefront OBJ Exporter v0.97b - (c)2007 guruware
# File Created: 24.01.2018 18:23:25

mtllib B3A_T_pj_lanse_01_zi_btm.mtl

#
# object B3A_T_pj_lanse_01_zi_btm
#

v  339.3353 129.0090 -18.8030
v  764.7744 129.0090 -18.8030
v  764.7744 172.4790 -18.8030
v  339.3353 200.8290 -18.8030
v  798.7942 172.4790 -18.8030
v  798.7942 129.0090 -18.8030
v  809.9453 129.0090 -18.8030
v  809.9453 200.8290 -18.8030
v  764.7744 172.4790 -20.0636
v  764.7744 129.0090 -20.0636
v  339.3353 129.0090 -20.0636
v  339.3353 200.8290 -20.0636
v  808.6848 200.8290 -20.0636
v  798.7942 172.4790 -20.0636
v  808.6848 129.0090 -20.0636
v  798.7942 129.0090 -20.0636
v  809.9453 129.0090 -20.0636
v  809.9453 200.8290 -20.0636
v  333.6654 129.0090 -179.6761
v  333.6654 129.0090 -145.6653
v  333.6654 172.4790 -145.6653
v  333.6654 200.8290 -179.6761
v  333.6654 172.4790 -77.6252
v  333.6654 200.8290 -24.5072
v  333.6654 129.0090 -77.6252
v  333.6654 129.0090 -24.5072
v  334.9260 129.0090 -24.5072
v  334.9260 129.0090 -77.6252
v  334.9260 172.4790 -77.6252
v  334.9260 200.8290 -24.5072
v  334.9260 172.4790 -145.6653
v  334.9260 129.0090 -145.6653
v  334.9260 129.0090 -179.6761
v  334.9260 200.8290 -179.6761
v  333.6654 129.0090 -339.3811
v  333.6654 129.0090 -198.5760
v  333.6654 200.8290 -198.5760
v  333.6654 200.8290 -339.3811
v  334.9260 129.0090 -198.5760
v  334.9260 129.0090 -339.3811
v  334.9260 200.8290 -339.3811
v  334.9260 200.8290 -198.5760
v  333.6654 129.0090 -356.3911
v  333.6654 200.8290 -356.3911
v  333.6654 200.8290 -492.4711
v  333.6654 129.0090 -492.4711
v  334.9260 129.0090 -492.4711
v  334.9260 200.8290 -492.4711
v  334.9260 200.8290 -356.3911
v  334.9260 129.0090 -356.3911
v  481.0853 129.0090 -503.8110
v  339.3353 129.0090 -503.8110
v  339.3353 200.8290 -503.8110
v  481.0853 200.8290 -503.8110
v  339.3353 129.0090 -502.5505
v  481.0853 129.0090 -502.5505
v  481.0853 200.8290 -502.5505
v  339.3353 200.8290 -502.5505
v  498.0953 129.0090 -503.8110
v  498.0953 200.8290 -503.8110
v  797.2822 200.8290 -503.8110
v  797.2822 129.0090 -503.8110
v  797.2822 129.0090 -502.5505
v  797.2822 200.8290 -502.5505
v  498.0953 200.8290 -502.5505
v  498.0953 129.0090 -502.5505
v  809.9453 129.0090 -498.1411
v  809.9453 200.8290 -498.1411
v  808.6848 200.8290 -498.1411
v  808.6848 129.0090 -498.1411
v  713.9269 215.5237 -313.2579
v  714.7559 213.2106 -313.4041
v  714.7559 210.7492 -313.4041
v  712.3685 217.4093 -312.9832
v  713.9269 208.4362 -313.2579
v  710.2693 218.6400 -312.6129
v  712.3685 206.5506 -312.9832
v  707.8820 219.0674 -312.1921
v  710.2693 205.3198 -312.6129
v  707.8820 204.8924 -312.1921
v  693.0365 204.8924 -309.5743
v  689.5559 219.0674 -308.9607
v  689.0597 204.4965 -308.8730
v  685.5791 218.6715 -308.2594
v  685.2344 203.3237 -308.1987
v  681.7538 217.4987 -307.5850
v  553.0121 133.1851 -284.8843
v  549.5315 147.3601 -284.2706
v  519.3984 136.6161 -278.9574
v  518.5693 138.9292 -278.8112
v  518.5693 141.3906 -278.8112
v  520.9567 134.7306 -279.2322
v  519.3984 143.7036 -278.9574
v  523.0559 133.4998 -279.6022
v  520.9567 145.5893 -279.2322
v  525.4431 133.0724 -280.0231
v  523.0559 146.8200 -279.6022
v  525.4431 147.2474 -280.0231
v  718.6702 215.5237 -286.3566
v  719.4993 213.2106 -286.5028
v  719.4993 210.7492 -286.5028
v  717.1121 217.4093 -286.0818
v  718.6702 208.4362 -286.3566
v  715.0128 218.6400 -285.7117
v  717.1121 206.5506 -286.0818
v  712.6255 219.0674 -285.2906
v  715.0128 205.3198 -285.7117
v  712.6255 204.8924 -285.2906
v  697.7798 204.8924 -282.6731
v  694.2993 219.0674 -282.0594
v  693.8030 204.4965 -281.9719
v  690.3226 218.6715 -281.3582
v  689.9777 203.3237 -281.2974
v  686.4973 217.4987 -280.6836
v  557.7554 133.1851 -257.9830
v  554.2748 147.3601 -257.3693
v  524.1418 136.6162 -252.0559
v  523.3127 141.3906 -251.9099
v  525.7002 145.5893 -252.3307
v  527.7994 133.4998 -252.7009
v  530.1866 147.2474 -253.1218
v  723.3966 215.5237 -259.5515
v  724.2257 213.2106 -259.6978
v  724.2257 210.7492 -259.6978
v  721.8385 217.4093 -259.2767
v  723.3966 208.4362 -259.5515
v  719.7393 218.6400 -258.9066
v  721.8385 206.5506 -259.2767
v  717.3518 219.0674 -258.4856
v  719.7393 205.3198 -258.9066
v  717.3518 204.8924 -258.4856
v  702.5063 204.8924 -255.8679
v  699.0258 219.0674 -255.2544
v  698.5294 204.4965 -255.1667
v  695.0491 218.6715 -254.5531
v  694.7041 203.3237 -254.4922
v  691.2238 217.4987 -253.8785
v  562.4818 133.1851 -231.1780
v  559.0013 147.3601 -230.5642
v  528.8683 136.6162 -225.2509
v  528.0392 141.3906 -225.1049
v  530.4264 145.5893 -225.5256
v  532.5259 133.4998 -225.8959
v  534.9131 147.2474 -226.3168
# 144 vertices

vn 0.0000 0.0000 1.0000
vn 0.0000 0.0000 -1.0000
vn 0.0000 1.0000 -0.0000
vn -1.0000 0.0000 -0.0000
vn 1.0000 0.0000 -0.0000
vn 0.0000 -1.0000 -0.0000
vn -0.1736 -0.0000 -0.9848
vn -0.1736 0.0000 -0.9848
vn -0.1737 -0.0000 -0.9848
vn -0.1737 0.0000 -0.9848
# 10 vertex normals

vt 0.8648 0.8935 0.0000
vt 0.8648 0.8935 0.0019
vt 0.8648 0.8935 0.7975
vt 0.8648 0.8935 0.7426
vt 0.8648 0.8935 1.0000
vt 0.8648 0.8935 0.9939
vt 0.8648 0.8935 0.4827
vt 0.8648 0.8935 0.9753
vt 0.8648 0.8935 0.7395
vt 0.8648 0.8935 0.7402
vt 0.8648 0.8935 0.0087
vt 0.8648 0.8935 0.2459
vt 0.8648 0.8935 0.0899
vt 0.8648 0.8935 0.1939
vt 0.8648 0.8935 0.2748
vt 0.8648 0.8935 0.4901
vt 0.8648 0.8935 0.5161
vt 0.8648 0.8935 0.7241
vt 0.8648 0.8935 0.7414
vt 0.8648 0.8935 0.8202
vt 0.8648 0.8935 0.8295
vt 0.8648 0.8935 0.9931
vt 0.8648 0.8935 0.9993
vt 0.8648 0.8935 0.7327
vt 0.8648 0.8935 0.4501
vt 0.8648 0.8935 0.4503
vt 0.8648 0.8935 0.4497
vt 0.8648 0.8935 0.4491
vt 0.8648 0.8935 0.4485
vt 0.8648 0.8935 0.4445
vt 0.8648 0.8935 0.4436
vt 0.8648 0.8935 0.4434
vt 0.8648 0.8935 0.4425
vt 0.8648 0.8935 0.4424
vt 0.8648 0.8935 0.4415
vt 0.8648 0.8935 0.4068
vt 0.8648 0.8935 0.4058
vt 0.8648 0.8935 0.3977
vt 0.8648 0.8935 0.3975
vt 0.8648 0.8935 0.3981
vt 0.8648 0.8935 0.3987
vt 0.8648 0.8935 0.3993
vt 0.8648 0.8935 0.4090
vt 0.8648 0.8935 0.4092
vt 0.8648 0.8935 0.4086
vt 0.8648 0.8935 0.4080
vt 0.8648 0.8935 0.4074
vt 0.8648 0.8935 0.4034
vt 0.8648 0.8935 0.4024
vt 0.8648 0.8935 0.4023
vt 0.8648 0.8935 0.4014
vt 0.8648 0.8935 0.4013
vt 0.8648 0.8935 0.4003
vt 0.8648 0.8935 0.3656
vt 0.8648 0.8935 0.3647
vt 0.8648 0.8935 0.3566
vt 0.8648 0.8935 0.3563
vt 0.8648 0.8935 0.3570
vt 0.8648 0.8935 0.3576
vt 0.8648 0.8935 0.3582
vt 0.8648 0.8935 0.3680
vt 0.8648 0.8935 0.3682
vt 0.8648 0.8935 0.3676
vt 0.8648 0.8935 0.3670
vt 0.8648 0.8935 0.3664
vt 0.8648 0.8935 0.3624
vt 0.8648 0.8935 0.3615
vt 0.8648 0.8935 0.3613
vt 0.8648 0.8935 0.3604
vt 0.8648 0.8935 0.3603
vt 0.8648 0.8935 0.3594
vt 0.8648 0.8935 0.3247
vt 0.8648 0.8935 0.3237
vt 0.8648 0.8935 0.3156
vt 0.8648 0.8935 0.3154
vt 0.8648 0.8935 0.3160
vt 0.8648 0.8935 0.3166
vt 0.8648 0.8935 0.3172
# 78 texture coords

g B3A_T_pj_lanse_01_zi_btm
usemtl pj_lanse_01
s off
f 1/1/1 2/1/1 3/1/1 4/1/1 
f 5/1/1 6/1/1 7/1/1 8/1/1 
f 3/1/1 5/1/1 8/1/1 4/1/1 
f 9/2/2 10/2/2 11/2/2 12/2/2 
f 9/2/2 12/2/2 13/2/2 14/2/2 
f 15/2/2 16/2/2 14/2/2 17/2/2 
f 18/2/2 17/2/2 14/2/2 13/2/2 
f 8/3/3 18/3/3 13/3/3 4/3/3 
f 4/3/3 13/3/3 12/3/3 
f 12/4/4 11/4/4 1/4/4 4/4/4 
f 17/5/5 18/5/5 8/5/5 7/5/5 
f 5/6/4 14/6/4 16/6/4 6/6/4 
f 3/7/6 9/7/6 14/7/6 5/7/6 
f 2/8/5 10/8/5 9/8/5 3/8/5 
f 19/9/4 20/9/4 21/9/4 22/9/4 
f 22/9/4 21/9/4 23/9/4 24/9/4 
f 23/9/4 25/9/4 26/9/4 24/9/4 
f 27/10/5 28/10/5 29/10/5 30/10/5 
f 31/10/5 32/10/5 33/10/5 34/10/5 
f 29/10/5 31/10/5 34/10/5 30/10/5 
f 27/11/1 30/11/1 24/11/1 26/11/1 
f 30/3/3 34/3/3 22/3/3 24/3/3 
f 34/12/2 33/12/2 19/12/2 22/12/2 
f 23/13/2 29/13/2 28/13/2 25/13/2 
f 31/7/6 29/7/6 23/7/6 21/7/6 
f 20/14/1 32/14/1 31/14/1 21/14/1 
f 35/9/4 36/9/4 37/9/4 38/9/4 
f 39/10/5 40/10/5 41/10/5 42/10/5 
f 39/15/1 42/15/1 37/15/1 36/15/1 
f 42/3/3 41/3/3 38/3/3 37/3/3 
f 41/16/2 40/16/2 35/16/2 38/16/2 
f 43/9/4 44/9/4 45/9/4 46/9/4 
f 47/10/5 48/10/5 49/10/5 50/10/5 
f 50/17/1 49/17/1 44/17/1 43/17/1 
f 49/3/3 48/3/3 45/3/3 44/3/3 
f 48/18/2 47/18/2 46/18/2 45/18/2 
f 51/19/2 52/19/2 53/19/2 54/19/2 
f 55/9/1 56/9/1 57/9/1 58/9/1 
f 55/4/4 58/4/4 53/4/4 52/4/4 
f 58/3/3 57/3/3 54/3/3 53/3/3 
f 57/20/5 56/20/5 51/20/5 54/20/5 
f 59/19/2 60/19/2 61/19/2 62/19/2 
f 63/9/1 64/9/1 65/9/1 66/9/1 
f 66/21/4 65/21/4 60/21/4 59/21/4 
f 65/3/3 64/3/3 61/3/3 60/3/3 
f 64/22/5 63/22/5 62/22/5 61/22/5 
f 67/5/5 68/5/5 18/5/5 17/5/5 
f 15/23/4 13/23/4 69/23/4 70/23/4 
f 70/24/2 69/24/2 68/24/2 67/24/2 
f 68/3/3 69/3/3 13/3/3 18/3/3 
f 18/2/1 13/2/1 15/2/1 17/2/1 
f 71/25/7 72/26/7 73/26/7 74/27/7 
f 74/27/8 73/26/8 75/25/8 76/28/8 
f 76/28/8 75/25/8 77/27/8 78/29/8 
f 78/29/9 77/27/9 79/28/9 80/29/9 
f 78/29/10 80/29/10 81/30/10 82/31/10 
f 82/31/9 81/30/9 83/32/9 84/33/9 
f 84/33/8 83/32/8 85/34/8 86/35/8 
f 86/35/7 85/34/7 87/36/7 88/37/7 
f 89/38/10 90/39/10 91/39/10 92/40/10 
f 92/40/8 91/39/8 93/38/8 94/41/8 
f 94/41/7 93/38/7 95/40/7 96/42/7 
f 96/42/8 95/40/8 97/41/8 98/42/8 
f 96/42/9 98/42/9 88/37/9 87/36/9 
f 99/43/10 100/44/10 101/44/10 102/45/10 
f 102/45/8 101/44/8 103/43/8 104/46/8 
f 104/46/9 103/43/9 105/45/9 106/47/9 
f 106/47/10 105/45/10 107/46/10 108/47/10 
f 106/47/8 108/47/8 109/48/8 110/49/8 
f 110/49/9 109/48/9 111/50/9 112/51/9 
f 112/51/9 111/50/9 113/52/9 114/53/9 
f 114/53/8 113/52/8 115/54/8 116/55/8 
f 117/56/7 118/57/7 119/58/7 120/59/7 
f 120/59/8 119/58/8 121/60/8 116/55/8 
f 115/54/8 120/59/8 116/55/8 
f 122/61/10 123/62/10 124/62/10 125/63/10 
f 125/63/8 124/62/8 126/61/8 127/64/8 
f 127/64/9 126/61/9 128/63/9 129/65/9 
f 129/65/8 128/63/8 130/64/8 131/65/8 
f 129/65/7 131/65/7 132/66/7 133/67/7 
f 133/67/7 132/66/7 134/68/7 135/69/7 
f 135/69/9 134/68/9 136/70/9 137/71/9 
f 137/71/8 136/70/8 138/72/8 139/73/8 
f 140/74/9 141/75/9 142/76/9 143/77/9 
f 143/77/8 142/76/8 144/78/8 139/73/8 
f 138/72/8 143/77/8 139/73/8 
# 83 polygons - 3 triangles

