# 3ds Max Wavefront OBJ Exporter v0.97b - (c)2007 guruware
# File Created: 24.01.2018 18:15:26

mtllib B3A_T_tujian_006_diban_lou_dxck.mtl

#
# object B3A_T_tujian_006_diban_lou_dxck
#

v  439.6177 129.0089 -509.4812
v  325.3091 129.0089 -509.4812
v  324.2157 129.0089 -506.6461
v  439.6176 129.0089 -506.6461
v  926.1805 129.0089 -1060.4146
v  926.1805 123.3390 -1060.4146
v  -964.7642 123.3390 -1060.4146
v  -964.7645 129.0089 -1060.4146
v  926.1805 123.3390 1317.2035
v  926.1805 129.0089 1317.2035
v  330.8303 129.0089 1317.2035
v  330.8303 123.3390 1317.2035
v  330.8303 129.0089 1305.8632
v  330.8303 123.3390 1305.8632
v  -564.3593 129.0089 1305.8632
v  -564.3593 123.3390 1305.8632
v  -680.3194 129.0089 -151.3263
v  -680.3194 123.3390 -151.3263
v  -714.3392 123.3390 -151.3263
v  -714.3392 129.0089 -151.3263
v  -680.3194 129.0089 -192.9063
v  -680.3194 123.3390 -192.9063
v  -714.3392 129.0089 -192.9063
v  -714.3392 123.3390 -192.9063
v  -627.2202 129.0089 1099.9978
v  -627.2202 123.3390 1099.9978
v  -595.2519 123.3390 1088.3625
v  -595.2519 129.0089 1088.3625
v  -612.9989 129.0089 1139.0704
v  -612.9989 123.3390 1139.0704
v  -581.0306 129.0089 1127.4347
v  -581.0306 123.3390 1127.4347
v  -617.0045 129.0089 -125.8107
v  -617.0045 123.3390 -125.8107
v  -579.2045 123.3390 -125.8107
v  -579.2045 129.0089 -125.8107
v  -617.0045 129.0089 -88.0106
v  -617.0045 123.3390 -88.0106
v  -579.2045 129.0089 -88.0106
v  -579.2045 123.3390 -88.0106
v  -187.2660 129.0089 509.2813
v  -187.2660 123.3390 509.2813
v  -155.2975 123.3390 497.6456
v  -155.2975 129.0089 497.6456
v  -173.0447 129.0089 548.3535
v  -173.0447 123.3390 548.3535
v  -141.0764 129.0089 536.7183
v  -141.0764 123.3390 536.7183
v  482.0309 129.0089 781.3893
v  482.0309 123.3390 781.3893
v  516.0505 123.3390 781.3893
v  516.0505 129.0089 781.3893
v  482.0309 129.0089 822.9691
v  482.0309 123.3390 822.9691
v  516.0505 129.0089 822.9691
v  516.0505 123.3390 822.9691
v  371.4897 123.3390 -676.7458
v  409.2892 123.3390 -676.7458
v  409.2892 129.0089 -676.7458
v  371.4897 129.0089 -676.7458
v  371.4897 123.3390 -638.9460
v  371.4897 129.0089 -638.9460
v  409.2892 123.3390 -638.9460
v  409.2892 129.0089 -638.9460
v  926.1805 129.0089 -506.6458
v  926.1805 123.3389 -506.6458
v  -711.7361 129.0089 900.9479
v  -757.1451 129.0089 776.1883
v  -921.6066 129.0089 324.3342
v  -921.6066 123.3390 324.3342
v  -287.1994 129.0089 -339.3812
v  -88.6549 129.0089 -271.9052
v  -47.0750 129.0089 -271.9052
v  325.3091 129.0089 -509.4811
v  324.2156 129.0089 -506.6464
v  271.2953 129.0089 -509.4811
v  70.6310 129.0089 484.6588
v  -198.6340 129.0089 484.6591
v  817.5060 129.0089 -506.6458
v  -416.6645 123.3389 -1029.2310
v  -416.6645 123.3389 -987.6506
v  -416.6645 129.0089 -987.6506
v  -416.6645 129.0089 -1029.2305
v  -450.6843 123.3389 -987.6506
v  -450.6843 129.0089 -987.6506
v  -450.6843 123.3389 -1029.2310
v  -450.6843 129.0089 -1029.2305
v  -925.7317 129.0089 312.9937
v  -1029.9082 129.0089 26.6097
v  -1030.0300 123.3390 26.6097
v  339.3353 129.0089 236.1239
v  339.3353 123.3390 236.1239
v  339.3353 123.3390 202.1035
v  339.3353 129.0089 202.1035
v  380.9159 123.3390 202.1035
v  380.9159 129.0089 202.1035
v  380.9159 123.3390 236.1239
v  380.9159 129.0089 236.1239
v  -88.6549 129.0089 -237.8851
v  -88.6549 123.3390 -237.8851
v  -88.6549 123.3390 -271.9052
v  -47.0750 129.0089 -237.8851
v  -47.0750 123.3390 -237.8851
v  -47.0750 123.3390 -271.9052
v  -479.9794 129.0089 -339.3812
v  -376.0292 129.0089 4.5986
v  926.1805 129.0089 474.2634
v  926.1805 123.3390 474.2634
v  817.5060 129.0089 -19.0261
v  324.2156 129.0089 -19.0261
v  795.0675 129.0089 -19.0261
v  817.5057 129.0089 29.1691
v  439.6180 129.0089 -638.0020
v  439.6177 129.0089 -673.9110
v  409.8519 129.0089 -638.0020
v  367.8945 129.0089 -638.0020
v  271.2953 129.0089 -638.0020
v  -479.9794 129.0089 -651.2308
v  -287.1990 129.0089 -651.2308
v  -265.4642 129.0089 320.5542
v  -617.9493 129.0089 10.2688
v  -682.2094 129.0089 10.2688
v  -757.0192 129.0089 320.5541
v  482.8656 129.0089 262.5836
v  97.0909 129.0089 474.2634
v  -673.6066 129.0089 889.4966
v  -802.3791 129.0089 463.6684
v  -757.0192 129.0089 485.6037
v  -802.3791 129.0089 321.5959
v  -139.7816 129.0089 651.3568
v  -603.7791 129.0089 1175.4537
v  -520.6143 129.0089 1175.4537
v  -148.4839 129.0089 886.5675
v  -151.6046 129.0089 888.0884
v  -157.6198 129.0089 889.4966
v  -206.6414 129.0089 461.9787
v  817.5057 129.0089 202.1035
v  -617.9493 129.0089 -130.5388
v  -598.1043 129.0089 -705.0962
v  -598.1043 129.0089 -564.2905
v  -728.5219 129.0089 -564.2905
v  -931.2169 129.0089 -340.3260
v  -964.7645 129.0089 -956.4661
v  -780.4896 129.0089 -705.0962
v  -728.5144 129.0089 -650.2875
v  -780.4896 129.0089 -650.2875
v  -931.2169 129.0089 -672.9661
v  -1029.9642 128.9752 -956.4661
v  -1029.9476 129.0089 -672.9661
v  -1022.4208 128.9791 -956.4661
v  -1029.9291 129.0089 -340.3260
v  -1029.9291 123.3389 -340.3260
v  -1029.9750 123.3390 -956.4661
v  -1029.9476 123.3390 -672.9661
v  -682.2094 129.0089 -72.7583
v  -682.2094 129.0089 -130.5388
v  -802.3791 129.0089 312.9937
v  -1029.9692 129.0089 -1060.4146
v  -1022.4092 129.0089 -1060.4146
v  -913.6517 129.0089 324.1515
v  -663.3098 129.0089 485.6037
v  -813.7189 129.0089 526.0386
v  -693.5493 129.0089 526.0386
v  -663.3087 129.0089 727.1965
v  -693.5493 129.0089 752.9688
v  -750.0122 129.0089 773.5840
v  -813.7189 129.0089 463.6684
v  -708.1831 129.0089 794.4984
v  -646.6705 129.0089 772.7072
v  -603.9734 129.0089 889.4966
v  -559.0654 129.0089 1298.3035
v  -520.6143 129.0089 1298.3035
v  581.2552 129.0089 -673.9110
v  581.2552 129.0089 -506.6461
v  323.2708 129.0089 202.1035
v  -265.4642 129.0089 461.9787
v  323.2708 129.0089 53.7375
v  482.9755 129.0089 53.7375
v  482.9755 129.0089 29.1691
v  582.2006 129.0089 262.5836
v  581.3802 129.0089 262.5836
v  582.2006 129.0089 202.1035
v  482.8656 129.0089 202.1035
v  926.1805 129.0089 973.2240
v  926.1805 129.0089 1097.9641
v  651.1064 129.0089 917.5726
v  649.1934 129.0089 920.9418
v  781.8942 129.0089 1000.9279
v  652.8693 129.0089 914.1223
v  791.9208 129.0089 973.2241
v  654.3098 129.0089 867.8744
v  654.3098 129.0089 899.6479
v  332.3850 129.0089 922.3187
v  323.2708 129.0089 908.2069
v  -145.0555 129.0089 883.8130
v  334.7924 129.0089 925.2335
v  340.8459 129.0089 931.6395
v  347.2568 129.0089 937.2363
v  354.6068 129.0089 942.6260
v  362.1941 129.0089 947.1104
v  374.3215 129.0089 952.7778
v  383.0054 129.0089 955.3872
v  391.3191 129.0089 956.8877
v  400.9456 129.0089 957.8657
v  439.4727 129.0089 958.8886
v  412.6677 129.0089 957.8977
v  525.3453 129.0089 834.3085
v  478.5212 129.0089 834.3085
v  655.9106 129.0089 1097.9640
v  799.5504 129.0089 867.8743
v  799.5504 129.0089 718.0736
v  654.3098 129.0089 718.0736
v  567.5687 129.0089 963.6245
v  576.6350 129.0089 963.7810
v  585.6691 129.0089 963.0047
v  594.5751 129.0089 961.3022
v  603.2588 129.0089 958.6927
v  611.6283 129.0089 955.2041
v  619.5942 129.0089 950.8729
v  655.9106 129.0089 1094.1838
v  708.2271 129.0088 1072.0044
v  748.8011 129.0089 1041.1646
v  654.3096 129.0089 834.3086
v  477.8469 129.0089 834.3085
v  323.2708 129.0089 834.3085
v  -139.7814 129.0089 871.5431
v  -140.2281 129.0089 875.5222
v  -142.8987 129.0089 881.0929
v  627.0724 129.0089 945.7453
v  633.9834 129.0089 939.8755
v  640.2540 129.0089 933.3259
v  642.5927 129.0089 930.4998
v  644.9326 129.0089 927.4116
v  647.1342 129.0089 924.2236
v  -1022.4093 129.0089 -340.3262
v  -1022.4093 129.0089 -672.9661
v  -1029.9692 123.3390 -1060.4148
v  -1022.4093 123.3390 -1060.4148
# 238 vertices

vn 0.0000 1.0000 0.0000
vn 0.0000 0.0000 -1.0000
vn 0.0000 0.0000 1.0000
vn -1.0000 0.0000 -0.0000
vn 1.0000 0.0000 -0.0000
vn 0.3420 0.0000 0.9397
vn 0.9397 0.0000 -0.3420
vn -0.3420 0.0000 -0.9397
vn -0.9397 0.0000 0.3420
vn -0.9397 -0.0000 0.3420
vn 0.0000 1.0000 -0.0000
vn 0.0000 -0.0001 1.0000
vn -0.9398 0.0000 0.3418
vn -0.9394 0.0202 0.3421
vn 1.0000 0.0000 0.0000
vn -0.0000 1.0000 -0.0000
vn -0.0005 1.0000 -0.0001
vn -0.9999 0.0107 -0.0001
vn -1.0000 0.0009 0.0001
vn -0.0003 1.0000 0.0003
vn -0.0002 1.0000 -0.0000
vn -0.0000 1.0000 0.0000
vn -1.0000 -0.0000 0.0001
vn -1.0000 0.0009 -0.0000
# 24 vertex normals

vt 0.7475 0.7604 0.5151
vt 0.6904 0.7604 0.5151
vt 0.6898 0.7593 0.5151
vt 0.7475 0.7593 0.5151
vt 0.0137 0.9863 0.5151
vt 0.0137 0.8977 0.5151
vt 0.9578 0.8977 0.5151
vt 0.9578 0.9863 0.5151
vt 0.9904 0.8977 0.4849
vt 0.9904 0.9863 0.4849
vt 0.6931 0.9863 0.4849
vt 0.6931 0.8977 0.4849
vt 0.9904 0.9863 0.5059
vt 0.9857 0.9863 0.5059
vt 0.9857 0.8977 0.5059
vt 0.9904 0.8977 0.5059
vt 0.6931 0.8977 0.4851
vt 0.6931 0.9863 0.4851
vt 0.2462 0.9863 0.4851
vt 0.2462 0.8977 0.4851
vt 0.8158 0.9863 0.5035
vt 0.8158 0.8977 0.5035
vt 0.8328 0.8977 0.5035
vt 0.8328 0.9863 0.5035
vt 0.3701 0.9863 0.4903
vt 0.3701 0.8977 0.4903
vt 0.3872 0.8977 0.4903
vt 0.3872 0.9863 0.4903
vt 0.1713 0.9863 0.5041
vt 0.1713 0.8977 0.5041
vt 0.1883 0.8977 0.5041
vt 0.1883 0.9863 0.5041
vt 0.6170 0.9863 0.4898
vt 0.6170 0.8977 0.4898
vt 0.6340 0.8977 0.4898
vt 0.6340 0.9863 0.4898
vt 0.2148 0.9863 0.4877
vt 0.2148 0.8977 0.4877
vt 0.2308 0.8977 0.4878
vt 0.2308 0.9863 0.4878
vt 0.0869 0.9863 0.4914
vt 0.0869 0.8977 0.4914
vt 0.1030 0.8977 0.4911
vt 0.1030 0.9863 0.4911
vt 0.7662 0.9863 0.4873
vt 0.7662 0.8977 0.4873
vt 0.7822 0.8977 0.4872
vt 0.7822 0.9863 0.4872
vt 0.8964 0.9863 0.4916
vt 0.8964 0.8977 0.4916
vt 0.9124 0.8977 0.4918
vt 0.9124 0.9863 0.4918
vt 0.2199 0.9863 0.5032
vt 0.2199 0.8977 0.5032
vt 0.2388 0.8977 0.5032
vt 0.2388 0.9863 0.5032
vt 0.5909 0.9863 0.4913
vt 0.5909 0.8977 0.4913
vt 0.6065 0.8977 0.4913
vt 0.6065 0.9863 0.4913
vt 0.7653 0.9863 0.5027
vt 0.7653 0.8977 0.5027
vt 0.7842 0.8977 0.5027
vt 0.7842 0.9863 0.5027
vt 0.3976 0.9863 0.4919
vt 0.3976 0.8977 0.4919
vt 0.4132 0.8977 0.4919
vt 0.4132 0.9863 0.4919
vt 0.4345 0.9863 0.4952
vt 0.4345 0.8977 0.4952
vt 0.4504 0.8977 0.4953
vt 0.4504 0.9863 0.4953
vt 0.3296 0.9863 0.4981
vt 0.3296 0.8977 0.4981
vt 0.3456 0.8977 0.4979
vt 0.3456 0.9863 0.4979
vt 0.5466 0.9863 0.4948
vt 0.5466 0.8977 0.4948
vt 0.5625 0.8977 0.4947
vt 0.5625 0.9863 0.4947
vt 0.6537 0.9863 0.4984
vt 0.6537 0.8977 0.4984
vt 0.6698 0.8977 0.4986
vt 0.6698 0.9863 0.4986
vt 0.7686 0.9863 0.4917
vt 0.7686 0.8977 0.4917
vt 0.7856 0.8977 0.4917
vt 0.7856 0.9863 0.4917
vt 0.2168 0.9863 0.5082
vt 0.2168 0.8977 0.5082
vt 0.2338 0.8977 0.5082
vt 0.2338 0.9863 0.5082
vt 0.2185 0.9863 0.4912
vt 0.2185 0.8977 0.4912
vt 0.2355 0.8977 0.4912
vt 0.2355 0.9863 0.4912
vt 0.7703 0.9863 0.5087
vt 0.7703 0.8977 0.5087
vt 0.7874 0.8977 0.5087
vt 0.7874 0.9863 0.5087
vt 0.7134 0.8977 0.5102
vt 0.7323 0.8977 0.5102
vt 0.7323 0.9863 0.5102
vt 0.7134 0.9863 0.5102
vt 0.8173 0.8977 0.5065
vt 0.8328 0.8977 0.5065
vt 0.8328 0.9863 0.5065
vt 0.8173 0.9863 0.5065
vt 0.2718 0.8977 0.5097
vt 0.2907 0.8977 0.5097
vt 0.2907 0.9863 0.5097
vt 0.2718 0.9863 0.5097
vt 0.1713 0.9863 0.5071
vt 0.1713 0.8977 0.5071
vt 0.1869 0.8977 0.5071
vt 0.1869 0.9863 0.5071
vt 0.7629 0.9863 0.5151
vt 0.7629 0.8977 0.5151
vt 0.9904 0.8977 0.5151
vt 0.9904 0.9863 0.5151
vt 0.9857 0.8977 0.4921
vt 0.9857 0.9863 0.4921
vt 0.8194 0.9863 0.4898
vt 0.7681 0.9863 0.4891
vt 0.5825 0.9863 0.4866
vt 0.5825 0.8977 0.4866
vt 0.3846 0.6907 0.5151
vt 0.4837 0.6631 0.5151
vt 0.5045 0.6631 0.5151
vt 0.6634 0.7604 0.5151
vt 0.4504 0.3476 0.5151
vt 0.5632 0.3529 0.5151
vt 0.4288 0.3529 0.5151
vt 0.4345 0.3428 0.5151
vt 0.9361 0.7593 0.5151
vt 0.9904 0.7593 0.5151
vt 0.0265 0.8977 0.4944
vt 0.0436 0.8977 0.4944
vt 0.0436 0.9863 0.4944
vt 0.0265 0.9863 0.4944
vt 0.6842 0.8977 0.5141
vt 0.7011 0.8977 0.5141
vt 0.7011 0.9863 0.5141
vt 0.6842 0.9863 0.5141
vt 0.3030 0.8977 0.5147
vt 0.3200 0.8977 0.5147
vt 0.3200 0.9863 0.5147
vt 0.3030 0.9863 0.5147
vt 0.9605 0.8977 0.4939
vt 0.9776 0.8977 0.4939
vt 0.9776 0.9863 0.4939
vt 0.9605 0.9863 0.4939
vt 0.5779 0.9863 0.4865
vt 0.4602 0.9863 0.4849
vt 0.4602 0.8977 0.4849
vt 0.4578 0.9863 0.5060
vt 0.4578 0.8977 0.5060
vt 0.4718 0.8977 0.5060
vt 0.4718 0.9863 0.5060
vt 0.6974 0.9863 0.4991
vt 0.6974 0.8977 0.4991
vt 0.7182 0.8977 0.4991
vt 0.7182 0.9863 0.4991
vt 0.5323 0.9863 0.5067
vt 0.5323 0.8977 0.5067
vt 0.5463 0.8977 0.5067
vt 0.5463 0.9863 0.5067
vt 0.2860 0.9863 0.4986
vt 0.2860 0.8977 0.4986
vt 0.3067 0.8977 0.4986
vt 0.3067 0.9863 0.4986
vt 0.6525 0.9863 0.4994
vt 0.6525 0.8977 0.4994
vt 0.6665 0.8977 0.4994
vt 0.6665 0.9863 0.4994
vt 0.4996 0.9863 0.5046
vt 0.4996 0.8977 0.5046
vt 0.5204 0.8977 0.5046
vt 0.5204 0.9863 0.5046
vt 0.3376 0.9863 0.5001
vt 0.3376 0.8977 0.5001
vt 0.3516 0.8977 0.5001
vt 0.3516 0.9863 0.5001
vt 0.4837 0.9863 0.5051
vt 0.4837 0.8977 0.5051
vt 0.5045 0.8977 0.5051
vt 0.5045 0.9863 0.5051
vt 0.2884 0.6907 0.5151
vt 0.3402 0.5497 0.5151
vt 0.4837 0.6491 0.5151
vt 0.3600 0.9863 0.5151
vt 0.3600 0.8977 0.5151
vt 0.9361 0.5594 0.5151
vt 0.9904 0.3572 0.5151
vt 0.6898 0.5594 0.5151
vt 0.5045 0.6491 0.5151
vt 0.9249 0.5594 0.5151
vt 0.9361 0.5396 0.5151
vt 0.7475 0.8131 0.5151
vt 0.7475 0.8278 0.5151
vt 0.7323 0.8290 0.5151
vt 0.7323 0.8135 0.5151
vt 0.7326 0.8131 0.5151
vt 0.7134 0.8135 0.5151
vt 0.7117 0.8131 0.5151
vt 0.7134 0.8290 0.5151
vt 0.3200 0.9564 0.5151
vt 0.3200 0.9735 0.5151
vt 0.6634 0.8131 0.5151
vt 0.3030 0.9564 0.5151
vt 0.2884 0.8185 0.5151
vt 0.3846 0.8185 0.5151
vt 0.3954 0.4202 0.5151
vt 0.2195 0.5474 0.5151
vt 0.1874 0.5474 0.5151
vt 0.1500 0.4202 0.5151
vt 0.7691 0.4440 0.5151
vt 0.7182 0.4548 0.5151
vt 0.6974 0.4548 0.5151
vt 0.5765 0.3572 0.5151
vt 0.2148 0.1007 0.5151
vt 0.2308 0.1055 0.5151
vt 0.1917 0.1870 0.5151
vt 0.1726 0.1823 0.5151
vt 0.1274 0.3615 0.5151
vt 0.1500 0.3526 0.5151
vt 0.1274 0.4198 0.5151
vt 0.4416 0.3268 0.5151
vt 0.4582 0.2846 0.5151
vt 0.4575 0.3316 0.5151
vt 0.2219 0.0847 0.5151
vt 0.2265 0.0698 0.5151
vt 0.2681 0.0698 0.5151
vt 0.2379 0.0895 0.5151
vt 0.7686 0.2313 0.5151
vt 0.7856 0.2313 0.5151
vt 0.6931 0.0163 0.5151
vt 0.4539 0.1882 0.5151
vt 0.4523 0.1876 0.5151
vt 0.4493 0.1870 0.5151
vt 0.4248 0.3622 0.5151
vt 0.9361 0.4688 0.5151
vt 0.2388 0.6032 0.5151
vt 0.2388 0.5877 0.5151
vt 0.2195 0.6051 0.5151
vt 0.2199 0.6032 0.5151
vt 0.2294 0.8406 0.5151
vt 0.2294 0.7829 0.5151
vt 0.1643 0.7829 0.5151
vt 0.1713 0.6307 0.5151
vt 0.0631 0.6911 0.5151
vt 0.1883 0.6307 0.5151
vt 0.3030 0.9735 0.5151
vt 0.0463 0.9863 0.5151
vt 0.0463 0.9437 0.5151
vt 0.1383 0.8406 0.5151
vt 0.1643 0.8182 0.5151
vt 0.1383 0.8182 0.5151
vt 0.0631 0.8274 0.5151
vt 0.0138 0.9437 0.5151
vt 0.0138 0.8274 0.5151
vt 0.0175 0.9437 0.5151
vt 0.3095 0.9863 0.4849
vt 0.3095 0.8977 0.4849
vt 0.1729 0.9863 0.4849
vt 0.0564 0.9857 0.4849
vt 0.0564 0.8977 0.4849
vt 0.1729 0.8977 0.4849
vt 0.0138 0.5407 0.5151
vt 0.1874 0.5814 0.5151
vt 0.1883 0.6136 0.5151
vt 0.1874 0.6051 0.5151
vt 0.1713 0.6136 0.5151
vt 0.0138 0.6911 0.5151
vt 0.2199 0.5877 0.5151
vt 0.1274 0.4233 0.5151
vt 0.0658 0.4233 0.5151
vt 0.0138 0.9863 0.5151
vt 0.0175 0.9863 0.5151
vt 0.0679 0.4187 0.5151
vt 0.0718 0.4187 0.5151
vt 0.1968 0.3526 0.5151
vt 0.1217 0.3360 0.5151
vt 0.1817 0.3360 0.5151
vt 0.1968 0.2535 0.5151
vt 0.1817 0.2430 0.5151
vt 0.1500 0.2334 0.5151
vt 0.1535 0.2345 0.5151
vt 0.1217 0.3615 0.5151
vt 0.1744 0.2259 0.5151
vt 0.2051 0.2349 0.5151
vt 0.2264 0.1870 0.5151
vt 0.2462 0.0163 0.5151
vt 0.2489 0.0194 0.5151
vt 0.2681 0.0194 0.5151
vt 0.8182 0.8278 0.5151
vt 0.8182 0.7593 0.5151
vt 0.6974 0.4688 0.5151
vt 0.6894 0.4688 0.5151
vt 0.3954 0.3622 0.5151
vt 0.6894 0.5296 0.5151
vt 0.7691 0.5296 0.5151
vt 0.7691 0.5396 0.5151
vt 0.8186 0.4440 0.5151
vt 0.8182 0.4440 0.5151
vt 0.8186 0.4688 0.5151
vt 0.7691 0.4688 0.5151
vt 0.7182 0.4688 0.5151
vt 0.1550 0.9863 0.5151
vt 0.1038 0.9863 0.5151
vt 0.8530 0.1755 0.5151
vt 0.8521 0.1741 0.5151
vt 0.9183 0.1413 0.5151
vt 0.8539 0.1769 0.5151
vt 0.9233 0.1527 0.5151
vt 0.8546 0.1959 0.5151
vt 0.8546 0.1828 0.5151
vt 0.6939 0.1735 0.5151
vt 0.6894 0.1793 0.5151
vt 0.4556 0.1893 0.5151
vt 0.6951 0.1724 0.5151
vt 0.6981 0.1697 0.5151
vt 0.7013 0.1674 0.5151
vt 0.7050 0.1652 0.5151
vt 0.7088 0.1634 0.5151
vt 0.7149 0.1611 0.5151
vt 0.7192 0.1600 0.5151
vt 0.7233 0.1594 0.5151
vt 0.7282 0.1590 0.5151
vt 0.7474 0.1586 0.5151
vt 0.7340 0.1590 0.5151
vt 0.7903 0.2096 0.5151
vt 0.7856 0.2143 0.5151
vt 0.7686 0.2143 0.5151
vt 0.7669 0.2096 0.5151
vt 0.9904 0.0117 0.5151
vt 0.9904 0.1015 0.5151
vt 0.8554 0.1015 0.5151
vt 0.6931 0.0117 0.5151
vt 0.9904 0.1527 0.5151
vt 0.9272 0.1959 0.5151
vt 0.9272 0.2573 0.5151
vt 0.8546 0.2573 0.5151
vt 0.8113 0.1566 0.5151
vt 0.8159 0.1565 0.5151
vt 0.8204 0.1569 0.5151
vt 0.8248 0.1576 0.5151
vt 0.8292 0.1586 0.5151
vt 0.8333 0.1601 0.5151
vt 0.8373 0.1618 0.5151
vt 0.8554 0.1031 0.5151
vt 0.8816 0.1122 0.5151
vt 0.9018 0.1248 0.5151
vt 0.8546 0.2096 0.5151
vt 0.7665 0.2096 0.5151
vt 0.6894 0.2096 0.5151
vt 0.4582 0.1944 0.5151
vt 0.4580 0.1927 0.5151
vt 0.4566 0.1904 0.5151
vt 0.8410 0.1639 0.5151
vt 0.8445 0.1663 0.5151
vt 0.8476 0.1690 0.5151
vt 0.8488 0.1702 0.5151
vt 0.8500 0.1715 0.5151
vt 0.8511 0.1728 0.5151
vt 0.0175 0.6911 0.5151
vt 0.0175 0.8274 0.5151
vt 0.0137 0.9863 0.4849
vt 0.0137 0.8977 0.4849
vt 0.9903 0.8977 0.5151
vt 0.9903 0.9863 0.5151
vt 0.9866 0.9863 0.5151
vt 0.9866 0.8977 0.5151
# 373 texture coords

g B3A_T_tujian_006_diban_lou_dxck
usemtl T_tujian_006
s off
f 1/1/1 2/2/1 3/3/1 4/4/1 
f 5/5/2 6/6/2 7/7/2 8/8/2 
f 9/9/3 10/10/3 11/11/3 12/12/3 
f 11/13/4 13/14/4 14/15/4 12/16/4 
f 14/17/3 13/18/3 15/19/3 16/20/3 
f 17/21/2 18/22/2 19/23/2 20/24/2 
f 21/25/4 22/26/4 18/27/4 17/28/4 
f 23/29/3 24/30/3 22/31/3 21/32/3 
f 20/33/5 19/34/5 24/35/5 23/36/5 
f 25/37/6 26/38/6 27/39/6 28/40/6 
f 29/41/7 30/42/7 26/43/7 25/44/7 
f 31/45/8 32/46/8 30/47/8 29/48/8 
f 28/49/9 27/50/9 32/51/9 31/52/9 
f 33/53/3 34/54/3 35/55/3 36/56/3 
f 37/57/5 38/58/5 34/59/5 33/60/5 
f 39/61/2 40/62/2 38/63/2 37/64/2 
f 36/65/4 35/66/4 40/67/4 39/68/4 
f 41/69/6 42/70/6 43/71/6 44/72/6 
f 45/73/7 46/74/7 42/75/7 41/76/7 
f 47/77/8 48/78/8 46/79/8 45/80/8 
f 44/81/9 43/82/9 48/83/9 47/84/9 
f 49/85/3 50/86/3 51/87/3 52/88/3 
f 53/89/5 54/90/5 50/91/5 49/92/5 
f 55/93/2 56/94/2 54/95/2 53/96/2 
f 52/97/4 51/98/4 56/99/4 55/100/4 
f 57/101/3 58/102/3 59/103/3 60/104/3 
f 61/105/5 57/106/5 60/107/5 62/108/5 
f 63/109/2 61/110/2 62/111/2 64/112/2 
f 59/113/4 58/114/4 63/115/4 64/116/4 
f 65/117/5 66/118/5 6/119/5 5/120/5 
f 16/121/9 15/122/9 67/123/9 68/124/9 
f 16/121/10 68/124/10 69/125/10 70/126/10 
f 71/127/11 72/128/11 73/129/11 74/2/11 
f 73/129/11 75/3/11 74/2/11 
f 71/127/11 74/2/11 76/130/11 
f 44/131/11 77/132/11 78/133/11 41/134/11 
f 5/120/11 79/135/11 65/136/11 
f 80/137/4 81/138/4 82/139/4 83/140/4 
f 81/141/2 84/142/2 85/143/2 82/144/2 
f 86/145/12 80/146/12 83/147/12 87/148/12 
f 84/149/5 86/150/5 87/151/5 85/152/5 
f 70/126/13 69/125/13 88/153/13 89/154/13 
f 70/126/14 89/154/14 90/155/14 
f 91/156/5 92/157/5 93/158/5 94/159/5 
f 94/160/3 93/161/3 95/162/3 96/163/3 
f 96/164/4 95/165/4 97/166/4 98/167/4 
f 98/168/2 97/169/2 92/170/2 91/171/2 
f 99/172/5 100/173/5 101/174/5 72/175/5 
f 102/176/2 103/177/2 100/178/2 99/179/2 
f 73/180/4 104/181/4 103/182/4 102/183/4 
f 72/184/3 101/185/3 104/186/3 73/187/3 
f 72/128/11 71/127/11 105/188/11 106/189/11 
f 72/128/11 106/189/11 99/190/11 
f 107/191/15 108/192/15 66/118/15 65/117/15 
f 109/193/11 107/194/11 65/136/11 79/135/11 
f 110/195/11 75/3/11 73/129/11 102/196/11 
f 109/193/11 111/197/11 112/198/11 
f 113/199/11 114/200/11 59/201/11 64/202/11 
f 113/199/11 64/202/11 115/203/11 
f 62/204/11 116/205/11 115/203/11 64/202/11 
f 116/205/11 62/204/11 60/206/11 82/207/11 
f 60/206/11 83/208/11 82/207/11 
f 116/205/11 82/207/11 117/209/11 
f 82/207/11 85/210/11 118/211/11 119/212/11 
f 120/213/11 121/214/11 122/215/11 123/216/11 
f 124/217/11 98/218/11 91/219/11 125/220/11 
f 25/221/11 28/222/11 126/223/11 67/224/11 
f 127/225/11 128/226/11 123/216/11 129/227/11 
f 45/228/11 41/134/11 78/133/11 130/229/11 
f 130/229/11 77/132/11 47/230/11 45/228/11 
f 44/131/11 47/230/11 77/132/11 
f 29/231/11 131/232/11 132/233/11 31/234/11 
f 49/235/11 52/236/11 107/194/11 125/220/11 
f 31/234/11 132/233/11 13/237/11 133/238/11 
f 31/234/11 133/238/11 134/239/11 135/240/11 
f 136/241/11 78/133/11 77/132/11 125/220/11 
f 136/241/11 125/220/11 91/219/11 
f 112/198/11 137/242/11 107/194/11 109/193/11 
f 76/130/11 117/209/11 119/212/11 71/127/11 
f 117/209/11 82/207/11 119/212/11 
f 36/243/11 39/244/11 106/189/11 
f 105/188/11 138/245/11 33/246/11 
f 36/243/11 106/189/11 105/188/11 33/246/11 
f 139/247/11 118/211/11 85/210/11 
f 105/188/11 140/248/11 141/249/11 23/250/11 
f 141/249/11 142/251/11 23/250/11 
f 105/188/11 23/250/11 21/252/11 
f 105/188/11 118/211/11 139/247/11 140/248/11 
f 85/210/11 87/253/11 8/254/11 143/255/11 
f 85/210/11 143/255/11 144/256/11 139/247/11 
f 142/251/1 141/249/1 145/257/1 146/258/1 
f 142/251/16 146/258/16 147/259/16 
f 148/260/17 149/261/17 150/262/17 
f 90/155/18 89/154/18 151/263/18 152/264/18 
f 144/256/16 143/255/16 147/259/16 146/258/16 
f 149/265/19 148/266/19 153/267/19 154/268/19 
f 89/269/11 122/215/11 155/270/11 
f 138/245/11 17/271/11 156/272/11 
f 89/269/11 155/270/11 156/272/11 17/271/11 
f 89/269/11 17/271/11 20/273/11 23/250/11 
f 89/269/1 23/250/1 142/251/1 151/274/1 
f 121/214/11 106/189/11 39/244/11 37/275/11 
f 105/188/11 21/252/11 17/271/11 138/245/11 
f 157/276/11 122/215/11 89/269/11 88/277/11 
f 120/213/11 106/189/11 121/214/11 
f 121/214/11 37/275/11 33/246/11 138/245/11 
f 158/278/20 148/260/20 150/262/20 159/279/20 
f 149/261/21 147/259/21 143/255/21 150/262/21 
f 157/276/11 88/277/11 69/280/11 160/281/11 
f 157/276/11 160/281/11 129/227/11 
f 161/282/11 128/226/11 162/283/11 163/284/11 
f 164/285/11 161/282/11 163/284/11 165/286/11 
f 68/287/22 166/288/22 160/281/22 69/280/22 
f 123/216/11 122/215/11 157/276/11 129/227/11 
f 167/289/11 162/283/11 128/226/11 127/225/11 
f 168/290/11 169/291/11 165/286/11 166/288/11 
f 169/291/11 164/285/11 165/286/11 
f 168/290/22 166/288/22 68/287/22 67/224/22 
f 168/290/1 67/224/1 126/223/1 
f 28/222/11 170/292/11 126/223/11 
f 15/293/11 171/294/11 131/232/11 67/224/11 
f 29/231/11 25/221/11 67/224/11 131/232/11 
f 132/233/11 172/295/11 13/237/11 
f 13/237/11 172/295/11 171/294/11 15/293/11 
f 31/234/11 135/240/11 170/292/11 28/222/11 
f 83/208/11 60/206/11 59/201/11 5/120/11 
f 59/201/11 114/200/11 173/296/11 5/120/11 
f 5/120/11 173/296/11 174/297/11 79/135/11 
f 91/219/11 94/298/11 175/299/11 176/300/11 
f 175/299/11 120/213/11 176/300/11 
f 91/219/11 176/300/11 136/241/11 
f 110/195/11 177/301/11 178/302/11 179/303/11 
f 110/195/11 179/303/11 112/198/11 111/197/11 
f 99/190/11 106/189/11 120/213/11 110/195/11 
f 120/213/11 175/299/11 177/301/11 110/195/11 
f 99/190/11 110/195/11 102/196/11 
f 180/304/11 181/305/11 107/194/11 182/306/11 
f 107/194/11 137/242/11 182/306/11 
f 124/217/11 125/220/11 107/194/11 181/305/11 
f 98/218/11 124/217/11 183/307/11 96/308/11 
f 108/192/5 107/191/5 184/309/5 185/310/5 
f 108/192/5 185/310/5 10/5/5 9/6/5 
f 186/311/11 187/312/11 188/313/11 189/314/11 
f 188/313/11 190/315/11 191/316/11 192/317/11 
f 188/313/11 192/317/11 189/314/11 
f 193/318/11 194/319/11 195/320/11 196/321/11 
f 197/322/11 196/321/11 195/320/11 198/323/11 
f 199/324/11 198/323/11 195/320/11 200/325/11 
f 201/326/11 200/325/11 195/320/11 202/327/11 
f 203/328/11 202/327/11 195/320/11 13/237/11 
f 195/320/11 133/238/11 13/237/11 
f 204/329/11 203/328/11 13/237/11 205/330/11 
f 204/329/11 205/330/11 206/331/11 
f 207/332/11 55/333/11 53/334/11 208/335/11 
f 10/336/11 185/337/11 209/338/11 11/339/11 
f 13/237/11 11/339/11 209/338/11 
f 190/315/11 184/340/11 210/341/11 191/316/11 
f 184/340/11 107/194/11 211/342/11 210/341/11 
f 212/343/11 211/342/11 107/194/11 52/236/11 
f 213/344/11 205/330/11 13/237/11 214/345/11 
f 215/346/16 214/345/16 13/237/16 216/347/16 
f 217/348/11 216/347/11 13/237/11 218/349/11 
f 219/350/11 218/349/11 13/237/11 220/351/11 
f 13/237/11 209/338/11 220/351/11 
f 219/350/1 220/351/1 221/352/1 222/353/1 
f 55/333/16 207/332/16 223/354/16 212/343/16 
f 52/236/11 55/333/11 212/343/11 
f 224/355/11 208/335/11 53/334/11 225/356/11 
f 53/334/11 49/235/11 125/220/11 130/229/11 
f 125/220/11 77/132/11 130/229/11 
f 225/356/11 53/334/11 130/229/11 
f 194/319/11 225/356/11 130/229/11 226/357/11 
f 194/319/11 226/357/11 227/358/11 228/359/11 
f 194/319/11 228/359/11 195/320/11 
f 229/360/11 219/350/11 222/353/11 230/361/11 
f 231/362/11 230/361/11 222/353/11 232/363/11 
f 233/364/11 232/363/11 222/353/11 234/365/11 
f 187/312/11 234/365/11 222/353/11 188/313/11 
f 235/366/11 236/367/11 149/261/11 151/274/11 
f 151/263/23 149/265/23 154/268/23 152/264/23 
f 158/368/24 237/369/24 153/267/24 148/266/24 
f 237/370/2 158/371/2 159/372/2 238/373/2 
f 5/120/11 8/254/11 87/253/11 83/208/11 
# 143 polygons - 40 triangles

