# 3ds Max Wavefront OBJ Exporter v0.97b - (c)2007 guruware
# File Created: 05.01.2018 11:28:56

mtllib B3A_T_tujian_007_tingchewei.mtl

#
# object B3A_T_tujian_007_tingchewei
#

v  958.3051 129.0468 -1060.4092
v  -1021.4565 129.0468 -1060.4092
v  -1021.4565 129.0468 1294.4567
v  958.3051 129.0468 1294.4567
# 4 vertices

vn 0.0000 1.0000 -0.0000
# 1 vertex normals

vt 1.0000 1.0000 0.5000
vt 0.0000 1.0000 0.5000
vt 0.0000 0.0000 0.5000
vt 1.0000 0.0000 0.5000
# 4 texture coords

g B3A_T_tujian_007_tingchewei
usemtl T_tujian_007
s 1
f 1/1/1 2/2/1 3/3/1 4/4/1 
# 1 polygons

