# 3ds Max Wavefront OBJ Exporter v0.97b - (c)2007 guruware
# File Created: 24.01.2018 18:12:07

mtllib B3A_T_tujian_006_xingchexian_dxck.mtl

#
# object B3A_T_tujian_006_xingchexian_dxck
#

v  925.6771 132.0851 1301.6787
v  925.6771 132.0851 1209.0887
v  472.1736 132.0851 1209.0887
v  191.3186 132.0851 1301.6787
v  -169.3457 132.0851 190.5957
v  -272.3314 132.0851 -805.6279
v  -272.3314 132.0851 65.8823
v  -483.9626 132.0851 65.8823
v  -851.6808 132.0851 190.5957
v  -585.0489 132.0851 65.8823
v  -792.9119 132.0851 65.8823
v  -578.4427 132.0851 -87.4967
v  -585.0501 132.0851 -87.4967
v  -578.4427 132.0851 -127.1781
v  -483.9626 132.0851 -805.2222
v  -482.2366 132.0851 -813.8997
v  -585.0562 132.0851 -805.2227
v  -585.0505 132.0851 -127.1781
v  -792.9119 132.0851 -969.6372
v  -786.6762 132.0851 -969.6372
v  -786.6762 132.0851 -1060.3179
v  -917.6254 132.0851 -1060.3179
v  -792.9119 132.0851 -952.6125
v  49.8500 132.0851 -805.2222
v  159.4452 132.0851 -805.2222
v  161.1714 132.0851 -813.8997
v  48.1239 132.0851 -813.8997
v  166.0867 132.0851 -821.2559
v  43.2085 132.0851 -821.2559
v  173.4430 132.0851 -826.1714
v  35.8522 132.0851 -826.1714
v  182.1204 132.0851 -827.8975
v  27.1748 132.0851 -827.8975
v  692.3118 132.0851 -804.3518
v  794.3500 132.0851 -805.2222
v  796.0760 132.0851 -813.8997
v  690.8436 132.0851 -813.2927
v  800.9916 132.0851 -821.2559
v  685.9919 132.0851 -820.9453
v  808.3478 132.0851 -826.1714
v  678.5314 132.0851 -826.0872
v  817.0253 132.0851 -827.8975
v  925.6771 132.0851 -827.8975
v  925.6771 132.0851 -952.6125
v  669.6533 132.0851 -827.8975
v  -135.3319 132.0851 -827.8975
v  -776.8190 132.0851 -826.9209
v  -770.2367 132.0851 -827.8975
v  -607.7313 132.0851 -827.8975
v  -601.1491 132.0851 -826.9209
v  -461.2875 132.0851 -827.8975
v  -586.7823 132.0851 -813.8999
v  -478.8156 132.0851 -819.6072
v  -590.2033 132.0851 -819.6074
v  -473.8851 132.0851 -824.0759
v  -595.1337 132.0851 -824.0762
v  -467.8698 132.0851 -826.9209
v  -295.0029 132.0851 -827.8975
v  -286.4193 132.0851 -826.2100
v  -144.0094 132.0851 -826.1714
v  -279.1133 132.0851 -821.3987
v  -151.3657 132.0851 -821.2559
v  -274.1721 132.0851 -814.1799
v  -156.2811 132.0851 -813.8997
v  -158.0071 132.0851 -805.2222
v  49.8500 132.0851 65.8823
v  159.4452 132.0851 -134.7749
v  925.6771 132.0851 -518.9482
v  925.6771 132.0851 -620.0416
v  807.5773 132.0851 -620.0416
v  684.7534 132.0851 -518.9482
v  798.8888 132.0851 -621.7722
v  791.5265 132.0851 -626.6998
v  692.3118 132.0851 -705.7292
v  794.3500 132.0851 -736.5408
v  -917.6254 132.0851 9.4146
v  -792.9119 132.0851 -805.2222
v  -791.1859 132.0851 -813.8997
v  -787.7649 132.0851 -819.6072
v  -782.8344 132.0851 -824.0759
v  684.7534 132.0851 -656.5997
v  784.9021 132.0851 -675.1290
v  144.4833 132.0851 190.5957
v  153.7338 132.0851 191.6379
v  162.5204 132.0851 194.7125
v  186.0544 132.0851 232.1669
v  319.8977 132.0851 252.1824
v  318.1715 132.0851 243.5052
v  183.1808 132.0851 216.9791
v  172.7588 132.0851 201.6931
v  318.1715 132.0851 -134.7749
v  925.6771 132.0851 362.5491
v  925.6771 132.0851 266.1796
v  340.8467 132.0851 266.1796
v  340.8467 132.0851 362.5491
v  332.1694 132.0851 264.4537
v  332.1693 132.0851 364.2751
v  324.8131 132.0851 259.5385
v  324.8130 132.0851 369.1905
v  318.1715 132.0851 713.0695
v  324.9449 132.0851 575.0185
v  319.9121 132.0851 565.7184
v  186.0544 132.0851 838.7277
v  318.1715 132.0851 555.2881
v  318.1715 132.0851 385.2243
v  319.8975 132.0851 376.5468
v  925.6771 132.0851 713.0695
v  925.6771 132.0851 587.4112
v  350.2947 132.0851 587.4112
v  342.4089 132.0851 586.4282
v  332.7249 132.0851 582.1805
v  62.4471 132.0851 513.0320
v  54.3098 132.0851 486.4338
v  -40.3379 132.0851 276.8240
v  -46.1737 132.0851 498.0715
v  -42.8398 132.0851 269.2258
v  -146.7982 132.0851 271.2699
v  -140.4041 132.0851 289.3861
v  -38.6680 132.0851 520.8659
v  -43.6865 132.0851 213.2709
v  -41.9604 132.0851 204.5935
v  -152.3209 132.0851 201.2931
v  -43.6865 132.0851 261.2714
v  -150.4496 132.0851 209.4917
v  -150.0420 132.0851 252.3341
v  -21.0114 132.0851 190.5957
v  -29.6887 132.0851 192.3218
v  -37.0450 132.0851 197.2372
v  -158.0071 132.0851 65.8823
v  -163.1047 132.0851 191.6560
v  -157.5642 132.0851 194.7183
v  -332.7949 132.0851 986.0566
v  78.3438 132.0851 986.0566
v  78.3438 132.0851 950.2139
v  -36.1281 132.0851 886.9119
v  -142.9656 132.0851 886.9119
v  -149.9014 132.0851 891.3907
v  -158.0071 132.0851 892.9591
v  -341.4724 132.0851 987.7826
v  -464.1219 132.0851 892.9591
v  -348.8287 132.0851 992.6980
v  -353.7440 132.0851 1000.0543
v  -355.4700 132.0851 1008.7318
v  -355.4700 132.0851 1093.7637
v  -464.1219 132.0851 1190.1331
v  334.2329 132.0851 1086.2413
v  371.7037 132.0851 955.5079
v  347.1604 132.0851 941.9590
v  186.0544 132.0851 950.2139
v  186.0544 132.0851 1093.7637
v  334.2329 132.0851 1201.5341
v  191.3186 132.0851 1190.1331
v  472.1736 132.0851 1201.5341
v  408.4941 132.0851 1086.2413
v  408.4941 132.0851 961.4982
v  389.8044 132.0851 960.3116
v  64.0206 132.0851 838.7277
v  64.0206 132.0851 531.5365
v  -36.1281 132.0851 544.7294
v  330.4336 132.0851 925.6121
v  318.1715 132.0851 905.6962
v  786.6144 132.0851 -634.0725
v  784.9021 132.0851 -642.7645
# 163 vertices

vn 0.0000 1.0000 -0.0000
# 1 vertex normals

vt 1.0000 0.0000 0.5000
vt 1.0000 0.0392 0.5000
vt 0.7540 0.0392 0.5000
vt 0.6016 0.0000 0.5000
vt 0.4059 0.4704 0.5000
vt 0.3501 0.8922 0.5000
vt 0.3501 0.5232 0.5000
vt 0.2353 0.5232 0.5000
vt 0.0358 0.4704 0.5000
vt 0.1804 0.5232 0.5000
vt 0.0677 0.5232 0.5000
vt 0.1840 0.5881 0.5000
vt 0.1804 0.5881 0.5000
vt 0.1840 0.6049 0.5000
vt 0.2353 0.8920 0.5000
vt 0.2362 0.8957 0.5000
vt 0.1804 0.8920 0.5000
vt 0.1804 0.6049 0.5000
vt 0.0677 0.9616 0.5000
vt 0.0710 0.9616 0.5000
vt 0.0710 1.0000 0.5000
vt 0.0000 1.0000 0.5000
vt 0.0677 0.9544 0.5000
vt 0.5249 0.8920 0.5000
vt 0.5843 0.8920 0.5000
vt 0.5853 0.8957 0.5000
vt 0.5239 0.8957 0.5000
vt 0.5879 0.8988 0.5000
vt 0.5213 0.8988 0.5000
vt 0.5919 0.9009 0.5000
vt 0.5173 0.9009 0.5000
vt 0.5966 0.9016 0.5000
vt 0.5126 0.9016 0.5000
vt 0.8734 0.8916 0.5000
vt 0.9288 0.8920 0.5000
vt 0.9297 0.8957 0.5000
vt 0.8726 0.8954 0.5000
vt 0.9324 0.8988 0.5000
vt 0.8700 0.8987 0.5000
vt 0.9363 0.9009 0.5000
vt 0.8659 0.9008 0.5000
vt 0.9411 0.9016 0.5000
vt 1.0000 0.9016 0.5000
vt 1.0000 0.9544 0.5000
vt 0.8611 0.9016 0.5000
vt 0.4244 0.9016 0.5000
vt 0.0764 0.9012 0.5000
vt 0.0800 0.9016 0.5000
vt 0.1681 0.9016 0.5000
vt 0.1717 0.9012 0.5000
vt 0.2476 0.9016 0.5000
vt 0.1795 0.8957 0.5000
vt 0.2381 0.8981 0.5000
vt 0.1776 0.8981 0.5000
vt 0.2407 0.9000 0.5000
vt 0.1750 0.9000 0.5000
vt 0.2440 0.9012 0.5000
vt 0.3378 0.9016 0.5000
vt 0.3424 0.9009 0.5000
vt 0.4197 0.9009 0.5000
vt 0.3464 0.8988 0.5000
vt 0.4157 0.8988 0.5000
vt 0.3491 0.8958 0.5000
vt 0.4130 0.8957 0.5000
vt 0.4121 0.8920 0.5000
vt 0.5249 0.5232 0.5000
vt 0.5843 0.6082 0.5000
vt 1.0000 0.7708 0.5000
vt 1.0000 0.8136 0.5000
vt 0.9359 0.8136 0.5000
vt 0.8693 0.7708 0.5000
vt 0.9312 0.8143 0.5000
vt 0.9272 0.8164 0.5000
vt 0.8734 0.8499 0.5000
vt 0.9288 0.8629 0.5000
vt 0.0000 0.5471 0.5000
vt 0.0677 0.8920 0.5000
vt 0.0686 0.8957 0.5000
vt 0.0704 0.8981 0.5000
vt 0.0731 0.9000 0.5000
vt 0.8693 0.8291 0.5000
vt 0.9236 0.8369 0.5000
vt 0.5762 0.4704 0.5000
vt 0.5812 0.4700 0.5000
vt 0.5860 0.4687 0.5000
vt 0.5988 0.4528 0.5000
vt 0.6714 0.4443 0.5000
vt 0.6704 0.4480 0.5000
vt 0.5972 0.4592 0.5000
vt 0.5915 0.4657 0.5000
vt 0.6704 0.6082 0.5000
vt 1.0000 0.3976 0.5000
vt 1.0000 0.4384 0.5000
vt 0.6827 0.4384 0.5000
vt 0.6827 0.3976 0.5000
vt 0.6780 0.4391 0.5000
vt 0.6780 0.3969 0.5000
vt 0.6740 0.4412 0.5000
vt 0.6740 0.3948 0.5000
vt 0.6704 0.2492 0.5000
vt 0.6741 0.3076 0.5000
vt 0.6714 0.3116 0.5000
vt 0.5988 0.1960 0.5000
vt 0.6704 0.3160 0.5000
vt 0.6704 0.3880 0.5000
vt 0.6714 0.3917 0.5000
vt 1.0000 0.2492 0.5000
vt 1.0000 0.3024 0.5000
vt 0.6879 0.3024 0.5000
vt 0.6836 0.3028 0.5000
vt 0.6783 0.3046 0.5000
vt 0.5317 0.3339 0.5000
vt 0.5273 0.3452 0.5000
vt 0.4759 0.4339 0.5000
vt 0.4728 0.3402 0.5000
vt 0.4746 0.4371 0.5000
vt 0.4182 0.4362 0.5000
vt 0.4216 0.4286 0.5000
vt 0.4768 0.3306 0.5000
vt 0.4741 0.4608 0.5000
vt 0.4751 0.4645 0.5000
vt 0.4152 0.4659 0.5000
vt 0.4741 0.4405 0.5000
vt 0.4162 0.4624 0.5000
vt 0.4164 0.4443 0.5000
vt 0.4864 0.4704 0.5000
vt 0.4817 0.4697 0.5000
vt 0.4777 0.4676 0.5000
vt 0.4121 0.5232 0.5000
vt 0.4093 0.4700 0.5000
vt 0.4123 0.4687 0.5000
vt 0.3173 0.1336 0.5000
vt 0.5403 0.1336 0.5000
vt 0.5403 0.1488 0.5000
vt 0.4782 0.1756 0.5000
vt 0.4203 0.1756 0.5000
vt 0.4165 0.1737 0.5000
vt 0.4121 0.1730 0.5000
vt 0.3126 0.1329 0.5000
vt 0.2460 0.1730 0.5000
vt 0.3086 0.1308 0.5000
vt 0.3059 0.1277 0.5000
vt 0.3050 0.1240 0.5000
vt 0.3050 0.0880 0.5000
vt 0.2460 0.0472 0.5000
vt 0.6791 0.0912 0.5000
vt 0.6995 0.1466 0.5000
vt 0.6862 0.1523 0.5000
vt 0.5988 0.1488 0.5000
vt 0.5988 0.0880 0.5000
vt 0.6791 0.0424 0.5000
vt 0.6016 0.0472 0.5000
vt 0.7540 0.0424 0.5000
vt 0.7194 0.0912 0.5000
vt 0.7194 0.1440 0.5000
vt 0.7093 0.1445 0.5000
vt 0.5325 0.1960 0.5000
vt 0.5325 0.3261 0.5000
vt 0.4782 0.3205 0.5000
vt 0.6771 0.1592 0.5000
vt 0.6704 0.1676 0.5000
vt 0.9246 0.8195 0.5000
vt 0.9236 0.8232 0.5000
# 163 texture coords

g B3A_T_tujian_006_xingchexian_dxck
usemtl T_tujian_006
s off
f 1/1/1 2/2/1 3/3/1 4/4/1 
f 5/5/1 6/6/1 7/7/1 8/8/1 
f 9/9/1 5/5/1 8/8/1 10/10/1 
f 9/9/1 10/10/1 11/11/1 
f 12/12/1 13/13/1 10/10/1 8/8/1 
f 8/8/1 14/14/1 12/12/1 
f 15/15/1 16/16/1 17/17/1 18/18/1 
f 15/15/1 18/18/1 14/14/1 8/8/1 
f 19/19/1 20/20/1 21/21/1 22/22/1 
f 23/23/1 19/19/1 22/22/1 
f 24/24/1 25/25/1 26/26/1 27/27/1 
f 27/27/1 26/26/1 28/28/1 29/29/1 
f 29/29/1 28/28/1 30/30/1 31/31/1 
f 31/31/1 30/30/1 32/32/1 33/33/1 
f 34/34/1 35/35/1 36/36/1 37/37/1 
f 37/37/1 36/36/1 38/38/1 39/39/1 
f 39/39/1 38/38/1 40/40/1 41/41/1 
f 42/42/1 43/43/1 44/44/1 40/40/1 
f 41/41/1 40/40/1 44/44/1 45/45/1 
f 32/32/1 45/45/1 44/44/1 33/33/1 
f 33/33/1 44/44/1 23/23/1 46/46/1 
f 23/23/1 47/47/1 48/48/1 49/49/1 
f 23/23/1 49/49/1 50/50/1 51/51/1 
f 52/52/1 17/17/1 16/16/1 53/53/1 
f 54/54/1 52/52/1 53/53/1 55/55/1 
f 56/56/1 54/54/1 55/55/1 57/57/1 
f 50/50/1 56/56/1 57/57/1 51/51/1 
f 23/23/1 51/51/1 58/58/1 59/59/1 
f 46/46/1 23/23/1 59/59/1 60/60/1 
f 60/60/1 59/59/1 61/61/1 62/62/1 
f 62/62/1 61/61/1 63/63/1 64/64/1 
f 64/64/1 63/63/1 6/6/1 65/65/1 
f 24/24/1 66/66/1 67/67/1 25/25/1 
f 68/68/1 69/69/1 70/70/1 71/71/1 
f 71/71/1 70/70/1 72/72/1 73/73/1 
f 34/34/1 74/74/1 75/75/1 35/35/1 
f 76/76/1 9/9/1 11/11/1 77/77/1 
f 22/22/1 76/76/1 77/77/1 78/78/1 
f 23/23/1 22/22/1 78/78/1 79/79/1 
f 23/23/1 79/79/1 80/80/1 47/47/1 
f 74/74/1 81/81/1 82/82/1 75/75/1 
f 66/66/1 83/83/1 84/84/1 85/85/1 
f 86/86/1 87/87/1 88/88/1 89/89/1 
f 90/90/1 89/89/1 88/88/1 91/91/1 
f 85/85/1 90/90/1 91/91/1 67/67/1 
f 66/66/1 85/85/1 67/67/1 
f 92/92/1 93/93/1 94/94/1 95/95/1 
f 95/95/1 94/94/1 96/96/1 97/97/1 
f 97/97/1 96/96/1 98/98/1 99/99/1 
f 100/100/1 101/101/1 102/102/1 103/103/1 
f 103/103/1 102/102/1 104/104/1 86/86/1 
f 86/86/1 104/104/1 105/105/1 106/106/1 
f 86/86/1 106/106/1 99/99/1 87/87/1 
f 99/99/1 98/98/1 87/87/1 
f 107/107/1 108/108/1 109/109/1 100/100/1 
f 100/100/1 109/109/1 110/110/1 111/111/1 
f 100/100/1 111/111/1 101/101/1 
f 112/112/1 113/113/1 114/114/1 115/115/1 
f 114/114/1 116/116/1 117/117/1 115/115/1 
f 117/117/1 118/118/1 115/115/1 
f 112/112/1 115/115/1 119/119/1 
f 120/120/1 121/121/1 122/122/1 123/123/1 
f 116/116/1 123/123/1 122/122/1 124/124/1 
f 116/116/1 124/124/1 125/125/1 117/117/1 
f 126/126/1 83/83/1 66/66/1 127/127/1 
f 128/128/1 127/127/1 66/66/1 5/5/1 
f 129/129/1 65/65/1 6/6/1 5/5/1 
f 66/66/1 129/129/1 5/5/1 
f 121/121/1 128/128/1 5/5/1 130/130/1 
f 121/121/1 130/130/1 131/131/1 122/122/1 
f 132/132/1 133/133/1 134/134/1 135/135/1 
f 135/135/1 136/136/1 137/137/1 138/138/1 
f 132/132/1 135/135/1 138/138/1 139/139/1 
f 139/139/1 138/138/1 140/140/1 141/141/1 
f 142/142/1 141/141/1 140/140/1 143/143/1 
f 144/144/1 143/143/1 140/140/1 145/145/1 
f 146/146/1 147/147/1 148/148/1 149/149/1 
f 146/146/1 149/149/1 150/150/1 
f 151/151/1 146/146/1 150/150/1 152/152/1 
f 151/151/1 152/152/1 4/4/1 
f 3/3/1 153/153/1 151/151/1 4/4/1 
f 150/150/1 144/144/1 145/145/1 152/152/1 
f 146/146/1 154/154/1 155/155/1 156/156/1 
f 146/146/1 156/156/1 147/147/1 
f 157/157/1 158/158/1 112/112/1 159/159/1 
f 112/112/1 119/119/1 159/159/1 
f 157/157/1 159/159/1 135/135/1 
f 134/134/1 149/149/1 103/103/1 157/157/1 
f 134/134/1 157/157/1 135/135/1 
f 149/149/1 148/148/1 160/160/1 161/161/1 
f 149/149/1 161/161/1 100/100/1 103/103/1 
f 71/71/1 73/73/1 162/162/1 81/81/1 
f 81/81/1 162/162/1 163/163/1 82/82/1 
# 78 polygons - 15 triangles

