# 3ds Max Wavefront OBJ Exporter v0.97b - (c)2007 guruware
# File Created: 24.01.2018 18:38:13

mtllib B3A_T_tujian_005_lv_xfjf3.mtl

#
# object B3A_T_tujian_005_lv_xfjf3
#

v  -598.1044 200.8289 -564.2906
v  -728.5219 200.8289 -564.2906
v  -728.5219 129.0089 -564.2906
v  -598.1044 129.0089 -564.2906
v  -601.8844 200.8289 -568.0704
v  -598.1044 200.8289 -568.0704
v  -598.1044 129.0089 -568.0704
v  -601.8844 129.0089 -568.0704
v  -724.7418 129.0089 -568.0704
v  -724.7418 200.8289 -568.0704
v  -728.5219 129.0089 -568.0704
v  -728.5219 200.8289 -568.0704
v  -598.1044 129.0089 -628.5508
v  -598.1044 200.8289 -628.5508
v  -601.8844 200.8289 -628.5508
v  -601.8844 129.0089 -628.5508
v  -601.8844 129.0089 -705.0959
v  -728.5144 129.0089 -705.0959
v  -728.5144 200.8289 -705.0959
v  -601.8844 200.8289 -705.0959
v  -724.7344 129.0089 -701.3162
v  -601.8844 129.0089 -701.3162
v  -601.8844 200.8289 -701.3162
v  -724.7344 200.8289 -701.3162
v  -728.5144 200.8289 -701.3162
v  -728.5144 129.0089 -701.3162
v  -728.5144 129.0089 -654.0680
v  -728.5144 129.0089 -650.2876
v  -728.5144 200.8289 -650.2876
v  -728.5144 200.8289 -654.0680
v  -724.7344 200.8289 -650.2876
v  -724.7344 129.0089 -650.2876
v  -724.7418 200.8289 -650.2876
v  -728.5219 172.4789 -610.5980
v  -728.5219 129.0089 -610.5980
v  -728.5219 200.8289 -650.2876
v  -728.5219 172.4789 -644.6178
v  -728.5219 129.0089 -650.2876
v  -728.5219 129.0089 -644.6178
v  -724.7418 172.4789 -644.6178
v  -724.7418 129.0089 -644.6178
v  -724.7418 129.0089 -650.2876
v  -724.7418 129.0089 -610.5980
v  -724.7418 172.4789 -610.5980
v  -598.1044 200.8289 -655.0107
v  -598.1044 129.0089 -655.0107
v  -598.1044 129.0089 -705.0959
v  -598.1044 200.8289 -705.0959
v  -601.8844 129.0089 -655.0107
v  -601.8844 200.8289 -655.0107
v  -602.8298 129.0089 -632.3309
v  -606.6097 129.0089 -632.3309
v  -606.6097 200.8289 -632.3309
v  -602.8298 200.8289 -632.3309
v  -598.1044 200.8289 -632.3309
v  -598.1044 129.0089 -632.3309
v  -606.6097 200.8289 -628.5508
v  -606.6097 129.0089 -628.5508
v  -602.8298 129.0089 -651.2308
v  -602.8298 200.8289 -651.2308
v  -606.6097 200.8289 -651.2308
v  -606.6097 129.0089 -651.2308
v  -598.1044 129.0089 -651.2308
v  -598.1044 200.8289 -651.2308
v  -606.6097 129.0089 -655.0107
v  -606.6097 200.8289 -655.0107
# 66 vertices

vn 0.0000 0.0000 1.0000
vn 0.0000 0.0000 -1.0000
vn 0.0000 1.0000 -0.0000
vn 1.0000 0.0000 -0.0000
vn -1.0000 0.0000 -0.0000
vn 0.0000 -1.0000 -0.0000
# 6 vertex normals

vt 0.5735 0.9999 0.7897
vt 0.3383 0.9999 0.7897
vt 0.3383 0.6691 0.7897
vt 0.5735 0.6691 0.7897
vt 0.5706 0.9999 0.7913
vt 0.5639 0.9999 0.7913
vt 0.5639 0.6691 0.7913
vt 0.5706 0.6691 0.7913
vt 0.7860 0.6691 0.7913
vt 0.7860 0.9999 0.7913
vt 0.7926 0.6691 0.7913
vt 0.7926 0.9999 0.7913
vt 0.4511 0.8395 1.0000
vt 0.4902 0.9999 0.2177
vt 0.4902 0.6691 0.2177
vt 0.4933 0.6691 0.2177
vt 0.4933 0.9999 0.2177
vt 0.4576 0.9999 0.1508
vt 0.4521 0.9999 0.1508
vt 0.4521 0.6691 0.1508
vt 0.4576 0.6691 0.1508
vt 0.5987 0.6691 0.2177
vt 0.5987 0.9999 0.2177
vt 0.5109 0.9999 0.2158
vt 0.3974 0.9999 0.2158
vt 0.3974 0.6691 0.2158
vt 0.5109 0.6691 0.2158
vt 0.5706 0.6691 0.8494
vt 0.7926 0.6691 0.8494
vt 0.7926 0.9999 0.8494
vt 0.5706 0.9999 0.8494
vt 0.3425 0.6691 0.8478
vt 0.5584 0.6691 0.8478
vt 0.5584 0.9999 0.8478
vt 0.3425 0.9999 0.8478
vt 0.3359 0.9999 0.8478
vt 0.3359 0.6691 0.8478
vt 0.3495 0.6691 0.1508
vt 0.3566 0.6691 0.1508
vt 0.3566 0.9999 0.1508
vt 0.3495 0.9999 0.1508
vt 0.2608 0.9999 0.1508
vt 0.2608 0.6691 0.1508
vt 0.6366 0.9999 0.1528
vt 0.6366 0.6691 0.1528
vt 0.7255 0.6691 0.1528
vt 0.7255 0.9999 0.1528
vt 0.4311 0.8693 0.1508
vt 0.4311 0.6691 0.1508
vt 0.5109 0.6691 0.1508
vt 0.5109 0.9999 0.1508
vt 0.3672 0.8693 0.1508
vt 0.3672 0.6691 0.1508
vt 0.6267 0.8693 0.1528
vt 0.6267 0.6691 0.1528
vt 0.4933 0.6691 0.1528
vt 0.5674 0.6691 0.1528
vt 0.5674 0.8693 0.1528
vt 0.4933 0.9999 0.1528
vt 0.2971 0.6691 0.8237
vt 0.3009 0.6691 0.8237
vt 0.3009 0.8693 0.8237
vt 0.2971 0.8693 0.8237
vt 0.4511 0.8395 0.6053
vt 0.7860 0.8693 0.8093
vt 0.7860 0.6691 0.8093
vt 0.7926 0.6691 0.8093
vt 0.7926 0.8693 0.8093
vt 0.6448 0.9999 0.2177
vt 0.6448 0.6691 0.2177
vt 0.7321 0.6691 0.2177
vt 0.7321 0.9999 0.2177
vt 0.2608 0.6691 0.2158
vt 0.3477 0.6691 0.2158
vt 0.3477 0.9999 0.2158
vt 0.2608 0.9999 0.2158
vt 0.2537 0.9999 0.2158
vt 0.2537 0.6691 0.2158
vt 0.5639 0.6691 0.8494
vt 0.5639 0.9999 0.8494
vt 0.5722 0.6691 0.8185
vt 0.5788 0.6691 0.8185
vt 0.5788 0.9999 0.8185
vt 0.5722 0.9999 0.8185
vt 0.5639 0.9999 0.8185
vt 0.5639 0.6691 0.8185
vt 0.4251 0.6691 0.8169
vt 0.4289 0.6691 0.8169
vt 0.4289 0.9999 0.8169
vt 0.4251 0.9999 0.8169
vt 0.4203 0.9999 0.8169
vt 0.4203 0.6691 0.8169
vt 0.3591 0.6691 0.2134
vt 0.3645 0.6691 0.2134
vt 0.3645 0.9999 0.2134
vt 0.3591 0.9999 0.2134
vt 0.6053 0.6691 0.2177
vt 0.6053 0.9999 0.2177
vt 0.6053 0.9999 0.2153
vt 0.6053 0.6691 0.2153
vt 0.6382 0.6691 0.2153
vt 0.6382 0.9999 0.2153
vt 0.3903 0.9999 0.2134
vt 0.3548 0.9999 0.2134
vt 0.3548 0.6691 0.2134
vt 0.3903 0.6691 0.2134
vt 0.4241 0.6691 0.8265
vt 0.4289 0.6691 0.8265
vt 0.4289 0.9999 0.8265
vt 0.4241 0.9999 0.8265
vt 0.4203 0.9999 0.8265
vt 0.4203 0.6691 0.8265
vt 0.5706 0.6691 0.8281
vt 0.5788 0.6691 0.8281
vt 0.5788 0.9999 0.8281
vt 0.5706 0.9999 0.8281
vt 0.5639 0.9999 0.8281
vt 0.5639 0.6691 0.8281
vt 0.3317 0.9999 0.2134
vt 0.3262 0.9999 0.2134
vt 0.3262 0.6691 0.2134
vt 0.3317 0.6691 0.2134
vt 0.6382 0.9999 0.2177
vt 0.6382 0.6691 0.2177
# 124 texture coords

g B3A_T_tujian_005_lv_xfjf3
usemtl T_tujian_005
s off
f 1/1/1 2/2/1 3/3/1 4/4/1 
f 5/5/2 6/6/2 7/7/2 8/8/2 
f 5/5/2 8/8/2 9/9/2 10/10/2 
f 11/11/2 12/12/2 10/10/2 9/9/2 
f 1/13/3 6/13/3 5/13/3 2/13/3 
f 10/13/3 12/13/3 2/13/3 5/13/3 
f 1/14/4 4/15/4 7/16/4 6/17/4 
f 2/18/5 12/19/5 11/20/5 3/21/5 
f 6/17/4 7/16/4 13/22/4 14/23/4 
f 5/24/5 15/25/5 16/26/5 8/27/5 
f 6/13/3 14/13/3 15/13/3 5/13/3 
f 17/28/2 18/29/2 19/30/2 20/31/2 
f 21/32/1 22/33/1 23/34/1 24/35/1 
f 24/35/1 25/36/1 26/37/1 21/32/1 
f 27/38/5 28/39/5 29/40/5 30/41/5 
f 27/38/5 30/41/5 25/42/5 26/43/5 
f 31/44/4 32/45/4 21/46/4 24/47/4 
f 30/13/3 29/13/3 33/13/3 31/13/3 
f 30/13/3 31/13/3 24/13/3 25/13/3 
f 34/48/5 35/49/5 11/50/5 12/51/5 
f 34/48/5 12/51/5 36/40/5 37/52/5 
f 38/39/5 39/53/5 37/52/5 36/40/5 
f 40/54/4 41/55/4 42/45/4 33/44/4 
f 9/56/4 43/57/4 44/58/4 10/59/4 
f 33/44/4 10/59/4 44/58/4 40/54/4 
f 29/13/3 36/13/3 12/13/3 10/13/3 
f 29/13/3 10/13/3 33/13/3 
f 39/60/1 41/61/1 40/62/1 37/63/1 
f 37/64/6 40/64/6 44/64/6 34/64/6 
f 44/65/2 43/66/2 35/67/2 34/68/2 
f 45/69/4 46/70/4 47/71/4 48/72/4 
f 22/73/5 49/74/5 50/75/5 23/76/5 
f 22/73/5 23/76/5 20/77/5 17/78/5 
f 23/13/3 50/13/3 45/13/3 48/13/3 
f 23/13/3 48/13/3 20/13/3 
f 47/79/2 17/28/2 20/31/2 48/80/2 
f 51/81/2 52/82/2 53/83/2 54/84/2 
f 51/81/2 54/84/2 55/85/2 56/86/2 
f 16/87/1 13/88/1 14/89/1 15/90/1 
f 16/87/1 15/90/1 57/91/1 58/92/1 
f 54/13/3 53/13/3 57/13/3 15/13/3 
f 15/13/3 14/13/3 55/13/3 54/13/3 
f 52/93/5 58/94/5 57/95/5 53/96/5 
f 14/23/4 13/22/4 56/97/4 55/98/4 
f 54/99/4 51/100/4 59/101/4 60/102/4 
f 53/103/5 61/104/5 62/105/5 52/106/5 
f 54/13/3 60/13/3 61/13/3 53/13/3 
f 59/107/1 63/108/1 64/109/1 60/110/1 
f 59/107/1 60/110/1 61/111/1 62/112/1 
f 49/113/2 65/114/2 66/115/2 50/116/2 
f 49/113/2 50/116/2 45/117/2 46/118/2 
f 64/13/3 45/13/3 50/13/3 60/13/3 
f 66/13/3 61/13/3 60/13/3 50/13/3 
f 61/119/5 66/120/5 65/121/5 62/122/5 
f 64/123/4 63/124/4 46/70/4 45/69/4 
f 24/13/3 23/13/3 20/13/3 25/13/3 
f 25/13/3 20/13/3 19/13/3 
# 54 polygons - 3 triangles

