# 3ds Max Wavefront OBJ Exporter v0.97b - (c)2007 guruware
# File Created: 24.01.2018 18:15:39

mtllib B3A_T_tujian_006_diban_lou_dxck_xfjf1.mtl

#
# object B3A_T_tujian_006_diban_lou_dxck_xfjf1
#

v  478.5618 129.0089 834.3085
v  478.4803 129.0089 834.3085
v  439.4727 129.0089 958.8886
v  482.0308 129.0089 903.6050
v  493.3706 129.0089 960.8812
v  493.3704 129.0089 911.5618
v  493.3706 129.0089 903.6049
v  482.0305 129.0089 850.5406
v  482.0305 129.0089 839.3483
v  482.0305 129.0089 838.1056
v  482.0305 129.0089 837.7686
v  482.0305 129.0089 834.3085
v  340.8459 129.0089 931.6395
v  347.2568 129.0089 937.2363
v  354.6068 129.0089 942.6260
v  400.9456 129.0089 957.8657
v  362.1941 129.0089 947.1104
v  374.3215 129.0089 952.7778
v  383.0054 129.0089 955.3872
v  391.3191 129.0089 956.8877
v  412.6677 129.0089 957.8977
v  323.2708 129.0089 834.3085
v  477.8469 129.0089 834.3085
v  323.2708 129.0089 908.2069
v  332.3850 129.0089 922.3187
v  334.7924 129.0089 925.2335
# 26 vertices

vn -0.0000 1.0000 -0.0000
vn -0.0000 1.0000 0.0000
vn 0.0000 1.0000 -0.0000
# 3 vertex normals

vt 0.7669 0.2096 0.5151
vt 0.7474 0.1586 0.5151
vt 0.7686 0.1812 0.5151
vt 0.7743 0.1577 0.5151
vt 0.7743 0.1780 0.5151
vt 0.7743 0.1812 0.5151
vt 0.7686 0.2030 0.5151
vt 0.7686 0.2076 0.5151
vt 0.7686 0.2081 0.5151
vt 0.7686 0.2082 0.5151
vt 0.7686 0.2096 0.5151
vt 0.6981 0.1697 0.5151
vt 0.7013 0.1674 0.5151
vt 0.7050 0.1652 0.5151
vt 0.7282 0.1590 0.5151
vt 0.7088 0.1634 0.5151
vt 0.7149 0.1611 0.5151
vt 0.7192 0.1600 0.5151
vt 0.7233 0.1594 0.5151
vt 0.7340 0.1590 0.5151
vt 0.6894 0.2096 0.5151
vt 0.7665 0.2096 0.5151
vt 0.6894 0.1793 0.5151
vt 0.6939 0.1735 0.5151
vt 0.6951 0.1724 0.5151
# 25 texture coords

g B3A_T_tujian_006_diban_lou_dxck_xfjf1
usemtl T_tujian_006
s off
f 1/1/1 2/1/1 3/2/1 4/3/1 
f 3/2/2 5/4/2 6/5/2 4/3/2 
f 6/5/3 7/6/3 4/3/3 
f 1/1/3 4/3/3 8/7/3 9/8/3 
f 1/1/3 9/8/3 10/9/3 11/10/3 
f 1/1/2 11/10/2 12/11/2 
f 13/12/3 14/13/3 15/14/3 16/15/3 
f 17/16/3 18/17/3 19/18/3 15/14/3 
f 15/14/3 19/18/3 20/19/3 16/15/3 
f 13/12/3 16/15/3 21/20/3 22/21/3 
f 21/20/3 3/2/3 2/1/3 23/22/3 
f 21/20/3 23/22/3 22/21/3 
f 22/21/3 24/23/3 25/24/3 13/12/3 
f 13/12/3 25/24/3 26/25/3 
# 10 polygons - 4 triangles

