# 3ds Max Wavefront OBJ Exporter v0.97b - (c)2007 guruware
# File Created: 24.01.2018 18:34:39

mtllib B3S_T_tujian_004_qiang_dxck_xfjf2.mtl

#
# object B3S_T_tujian_004_qiang_dxck_xfjf2
#

v  663.7294 200.8289 867.8743
v  663.7294 125.2318 867.8743
v  666.7478 125.2318 854.6703
v  666.7478 200.8289 854.6703
v  659.1880 125.2318 854.6639
v  656.1677 125.2318 867.8743
v  656.1677 200.8289 867.8743
v  659.1880 200.8289 854.6639
v  806.6025 200.8289 733.5443
v  806.6025 200.8289 867.8743
v  806.6025 125.2318 867.8743
v  806.6025 125.2318 733.5443
v  799.0430 200.8289 733.5443
v  799.0430 125.2318 733.5443
v  666.7478 125.2318 733.5443
v  666.7478 200.8289 733.5443
v  659.1880 125.2318 733.5443
v  659.1879 200.8289 733.5443
v  799.0430 125.2318 867.8743
v  799.0430 200.8289 867.8743
# 20 vertices

vn 0.9749 -0.0000 0.2228
vn -0.9748 0.0000 -0.2229
vn 1.0000 0.0000 -0.0000
vn 0.0000 0.0000 -1.0000
vn -1.0000 -0.0000 0.0000
vn 0.0000 1.0000 -0.0000
vn -1.0000 0.0000 -0.0000
# 7 vertex normals

vt 0.9886 0.8881 0.8741
vt 0.9886 0.8881 0.8756
vt 0.9886 0.8881 0.8717
vt 0.9886 0.8881 0.8702
vt 0.9886 0.8881 0.9470
vt 0.9886 0.8881 0.2453
vt 0.9886 0.8881 1.0000
vt 0.9886 0.8881 0.9431
# 8 texture coords

g B3S_T_tujian_004_qiang_dxck_xfjf2
usemtl T_tujian_004
s off
f 1/1/1 2/1/1 3/2/1 4/2/1 
f 5/3/2 6/4/2 7/4/2 8/3/2 
f 9/5/3 10/5/3 11/5/3 12/5/3 
f 13/6/4 9/6/4 12/6/4 14/6/4 
f 4/2/3 3/2/3 15/2/3 16/2/3 
f 17/3/5 5/3/5 8/3/5 18/3/5 
f 8/7/6 4/7/6 16/7/6 18/7/6 
f 1/7/6 4/7/6 8/7/6 7/7/6 
f 13/8/7 14/8/7 19/8/7 20/8/7 
f 9/7/6 13/7/6 20/7/6 10/7/6 
# 10 polygons

