# 3ds Max Wavefront OBJ Exporter v0.97b - (c)2007 guruware
# File Created: 24.01.2018 18:34:59

mtllib B3S_T_tujian_004_qiang_dxck_pfjf1.mtl

#
# object B3S_T_tujian_004_qiang_dxck_pfjf1
#

v  655.9105 200.8289 1092.3181
v  655.9105 125.2317 1092.3181
v  660.5842 125.2317 1091.7085
v  660.5842 200.8289 1091.7085
v  707.7229 200.8289 1072.3418
v  707.7229 125.2317 1072.3418
v  658.8282 200.8289 1085.1353
v  704.3430 200.8289 1066.4369
v  704.3430 125.2317 1066.4369
v  658.8282 125.2317 1085.1353
v  748.2953 200.8289 1041.5035
v  748.2953 125.2317 1041.5035
v  743.5121 200.8289 1036.6682
v  743.5121 125.2317 1036.6682
v  779.5723 200.8289 1001.2683
v  779.5723 125.2317 1001.2683
v  773.7043 200.8289 997.8247
v  773.7043 125.2317 997.8247
v  784.0841 200.8289 973.2240
v  784.0841 125.2317 973.2240
v  791.4065 125.2317 973.2240
v  791.4065 200.8289 973.2240
v  655.9103 200.8289 1085.4705
v  655.9105 125.2317 1085.4705
# 24 vertices

vn 0.1294 -0.0000 0.9916
vn 0.3800 0.0000 0.9250
vn -0.3800 0.0000 -0.9250
vn 0.6051 0.0000 0.7961
vn -0.6051 0.0000 -0.7962
vn 0.7895 0.0000 0.6137
vn -0.7895 0.0000 -0.6137
vn -0.9213 0.0000 -0.3887
vn 0.9213 0.0000 0.3888
vn 0.0000 1.0000 -0.0000
vn -0.1142 0.0000 -0.9935
# 11 vertex normals

vt 0.9886 0.8881 0.0956
vt 0.9886 0.8881 0.0958
vt 0.9886 0.8881 0.1039
vt 0.9886 0.8881 0.0986
vt 0.9886 0.8881 0.1064
vt 0.9886 0.8881 0.1168
vt 0.9886 0.8881 0.1188
vt 0.9886 0.8881 0.9332
vt 0.9886 0.8881 0.9172
vt 0.9886 0.8881 0.9148
vt 0.9886 0.8881 0.9302
vt 0.9886 0.8881 0.9355
vt 0.9886 0.8881 0.9392
vt 0.9886 0.8881 1.0000
vt 0.9886 0.8881 0.0984
# 15 texture coords

g B3S_T_tujian_004_qiang_dxck_pfjf1
usemtl T_tujian_004
s off
f 1/1/1 2/1/1 3/2/1 4/2/1 
f 5/3/2 4/2/2 3/2/2 6/3/2 
f 7/4/3 8/5/3 9/5/3 10/4/3 
f 11/6/4 5/3/4 6/3/4 12/6/4 
f 8/5/5 13/7/5 14/7/5 9/5/5 
f 15/8/6 11/9/6 12/9/6 16/8/6 
f 13/10/7 17/11/7 18/11/7 14/10/7 
f 19/12/8 20/12/8 18/11/8 17/11/8 
f 15/8/9 16/8/9 21/13/9 22/13/9 
s 1
f 1/14/10 4/14/10 5/14/10 8/14/10 
f 5/14/10 11/14/10 15/14/10 13/14/10 
f 15/14/10 22/14/10 19/14/10 17/14/10 
f 15/14/10 17/14/10 13/14/10 
f 5/14/10 13/14/10 8/14/10 
f 1/14/10 8/14/10 7/14/10 23/14/10 
s off
f 7/4/11 10/4/11 24/15/11 23/15/11 
# 14 polygons - 2 triangles

