# 3ds Max Wavefront OBJ Exporter v0.97b - (c)2007 guruware
# File Created: 24.01.2018 18:07:13

mtllib B3S_T_tujian_005_zhuzi_dxck_pfjf3.mtl

#
# object B3S_T_tujian_005_zhuzi_dxck_pfjf3
#

v  519.3333 125.2318 -673.5078
v  519.3333 200.8289 -673.5078
v  519.3333 200.8289 -654.6085
v  519.3333 125.2318 -654.6085
v  500.4338 200.8289 -654.6085
v  500.4338 125.2318 -654.6085
v  500.4338 200.8289 -673.5078
v  500.4338 125.2318 -673.5078
v  497.5990 125.2318 -673.5078
v  497.5990 200.8289 -673.5078
v  497.5990 200.8289 -656.4984
v  497.5990 125.2318 -656.4984
v  480.5896 200.8289 -656.4984
v  480.5896 125.2318 -656.4984
v  480.5896 200.8289 -673.5078
v  480.5896 125.2318 -673.5078
# 16 vertices

vn 1.0000 0.0000 -0.0000
vn 0.0000 0.0000 1.0000
vn -1.0000 0.0000 -0.0000
vn 0.0000 0.0000 -1.0000
vn 0.0000 1.0000 -0.0000
# 5 vertex normals

vt 0.7996 0.0081 0.8325
vt 0.7996 0.3363 0.8325
vt 0.7603 0.3363 0.8325
vt 0.7603 0.0081 0.8325
vt 0.7793 0.0081 0.8287
vt 0.7793 0.3363 0.8287
vt 0.7294 0.3363 0.8287
vt 0.7294 0.0081 0.8287
vt 0.1831 0.0081 0.8224
vt 0.1831 0.3363 0.8224
vt 0.1438 0.3363 0.8224
vt 0.1438 0.0081 0.8224
vt 0.2140 0.0081 0.8367
vt 0.2140 0.3363 0.8367
vt 0.1641 0.3363 0.8367
vt 0.1641 0.0081 0.8367
vt 0.4333 0.1699 1.0000
vt 0.7996 0.0081 0.8209
vt 0.7996 0.3363 0.8209
vt 0.7642 0.3363 0.8209
vt 0.7642 0.0081 0.8209
vt 0.7220 0.0081 0.8295
vt 0.7220 0.3363 0.8295
vt 0.6771 0.3363 0.8295
vt 0.6771 0.0081 0.8295
vt 0.1792 0.0081 0.8117
vt 0.1792 0.3363 0.8117
vt 0.1438 0.3363 0.8117
vt 0.1438 0.0081 0.8117
vt 0.2664 0.0081 0.8367
vt 0.2664 0.3363 0.8367
vt 0.2214 0.3363 0.8367
vt 0.2214 0.0081 0.8367
# 33 texture coords

g B3S_T_tujian_005_zhuzi_dxck_pfjf3
usemtl T_tujian_005
s off
f 1/1/1 2/2/1 3/3/1 4/4/1 
f 4/5/2 3/6/2 5/7/2 6/8/2 
f 6/9/3 5/10/3 7/11/3 8/12/3 
f 8/13/4 7/14/4 2/15/4 1/16/4 
f 3/17/5 2/17/5 7/17/5 5/17/5 
f 9/18/1 10/19/1 11/20/1 12/21/1 
f 12/22/2 11/23/2 13/24/2 14/25/2 
f 14/26/3 13/27/3 15/28/3 16/29/3 
f 16/30/4 15/31/4 10/32/4 9/33/4 
f 11/17/5 10/17/5 15/17/5 13/17/5 
# 10 polygons

