# 3ds Max Wavefront OBJ Exporter v0.97b - (c)2007 guruware
# File Created: 09.01.2018 16:28:19

mtllib B3S_T_tujian_005_zhuzi_lv.mtl

#
# object B3S_T_tujian_005_zhuzi_lv
#

v  -899.4233 125.2318 386.8654
v  -899.4233 200.8289 386.8654
v  -888.7676 200.8289 382.9871
v  -888.7676 125.2318 382.9871
v  -882.3036 200.8289 400.7466
v  -882.3036 125.2318 400.7466
v  -892.9594 200.8289 404.6250
v  -892.9594 125.2318 404.6250
v  -801.6142 125.2318 655.5938
v  -801.6142 200.8289 655.5938
v  -790.9585 200.8289 651.7154
v  -790.9585 125.2318 651.7154
v  -784.4946 200.8289 669.4749
v  -784.4946 125.2318 669.4749
v  -795.1503 200.8289 673.3533
v  -795.1503 125.2318 673.3533
v  -855.5800 125.2318 507.3239
v  -855.5800 200.8289 507.3239
v  -844.9243 200.8289 503.4455
v  -844.9243 125.2318 503.4455
v  -838.4603 200.8289 521.2050
v  -838.4603 125.2318 521.2050
v  -849.1161 200.8289 525.0834
v  -849.1161 125.2318 525.0834
v  -1030.4083 125.2318 -356.9447
v  -1030.4083 200.8289 -356.9447
v  -1019.0688 200.8289 -356.9447
v  -1019.0688 125.2318 -356.9447
v  -1019.0688 200.8289 -338.0455
v  -1019.0688 125.2318 -338.0455
v  -1030.4083 200.8289 -338.0455
v  -1030.4083 125.2318 -338.0455
v  -1030.4083 125.2318 -515.6989
v  -1030.4083 200.8289 -515.6989
v  -1019.0688 200.8289 -515.6989
v  -1019.0688 125.2318 -515.6989
v  -1019.0688 200.8289 -496.7994
v  -1019.0688 125.2318 -496.7994
v  -1030.4083 200.8289 -496.7994
v  -1030.4083 125.2318 -496.7994
v  -1030.4083 125.2318 -674.4529
v  -1030.4083 200.8289 -674.4529
v  -1019.0688 200.8289 -674.4529
v  -1019.0688 125.2318 -674.4529
v  -1019.0688 200.8289 -655.5535
v  -1019.0688 125.2318 -655.5535
v  -1030.4083 200.8289 -655.5535
v  -1030.4083 125.2318 -655.5535
v  -1011.5091 125.2318 -1059.9984
v  -1011.5091 200.8289 -1059.9984
v  -1011.5091 200.8289 -1048.6588
v  -1011.5091 125.2318 -1048.6588
v  -1030.4083 200.8289 -1048.6588
v  -1030.4083 125.2318 -1048.6588
v  -1030.4083 200.8289 -1059.9984
v  -1030.4083 125.2318 -1059.9984
v  -613.6791 125.2318 0.2518
v  -613.6791 200.8289 0.2518
v  -613.6791 200.8289 17.2612
v  -613.6791 125.2318 17.2612
v  -630.6884 200.8289 17.2612
v  -630.6884 125.2318 17.2612
v  -630.6884 200.8289 0.2518
v  -630.6884 125.2318 0.2518
v  -613.6790 125.2318 -143.7118
v  -613.6790 200.8289 -143.7118
v  -613.6790 200.8289 -126.7024
v  -613.6790 125.2318 -126.7024
v  -630.6883 200.8289 -126.7024
v  -630.6883 125.2318 -126.7024
v  -630.6883 200.8289 -143.7118
v  -630.6883 125.2318 -143.7118
v  -613.6791 125.2318 -650.8286
v  -613.6791 200.8289 -650.8286
v  -613.6791 200.8289 -633.8193
v  -613.6791 125.2318 -633.8193
v  -630.6884 200.8289 -633.8193
v  -630.6884 125.2318 -633.8193
v  -630.6884 200.8289 -650.8286
v  -630.6884 125.2318 -650.8286
v  -772.4331 125.2318 -673.5078
v  -772.4331 200.8289 -673.5078
v  -772.4331 200.8289 -656.4984
v  -772.4331 125.2318 -656.4984
v  -789.4425 200.8289 -656.4984
v  -789.4425 125.2318 -656.4984
v  -789.4425 200.8289 -673.5078
v  -789.4425 125.2318 -673.5078
v  -1013.3990 125.2318 -973.0614
v  -1013.3990 200.8289 -973.0614
v  -1013.3990 200.8289 -956.0521
v  -1013.3990 125.2318 -956.0521
v  -1030.4083 200.8289 -956.0521
v  -1030.4083 125.2318 -956.0521
v  -1030.4083 200.8289 -973.0614
v  -1030.4083 125.2318 -973.0614
v  814.1621 125.2318 1090.7080
v  814.1621 200.8289 1090.7080
v  814.1621 200.8289 1105.8274
v  814.1621 125.2318 1105.8274
v  799.0427 200.8289 1105.8274
v  799.0427 125.2318 1105.8274
v  799.0427 200.8289 1090.7080
v  799.0427 125.2318 1090.7080
v  655.3621 200.8289 1093.0061
v  655.3621 200.8289 1105.8274
v  655.3621 125.2318 1105.8274
v  655.3621 125.2318 1093.0061
v  640.2427 200.8289 1105.8274
v  640.2427 125.2318 1105.8274
v  640.2427 125.2318 1095.9677
v  640.2427 200.8289 1095.9677
v  645.3076 200.8289 1095.1123
v  650.3486 200.8289 1094.1249
v  655.3621 158.8806 1093.0061
v  650.3486 125.2318 1094.1249
v  645.3076 125.2318 1095.1123
v  640.2427 167.1801 1095.9677
v  645.7413 200.8289 903.6050
v  640.2427 200.8289 903.6050
v  640.2427 125.2318 903.6050
v  645.7413 125.2318 903.6050
v  640.2427 200.8289 888.4856
v  640.2427 125.2318 888.4856
v  652.9976 125.2318 888.4856
v  652.9976 200.8289 888.4856
v  652.9976 153.7021 888.4856
v  651.4250 200.8289 892.3972
v  651.4250 125.2318 892.3972
v  649.6831 200.8289 896.2364
v  649.6831 172.3586 896.2364
v  649.6831 125.2318 896.2364
v  649.6831 153.7021 896.2364
v  647.7920 200.8289 899.9634
v  647.7920 125.2318 899.9634
v  645.7413 172.3586 903.6050
v  337.9000 125.2318 888.4856
v  337.9000 200.8289 888.4856
v  337.9000 200.8289 903.6050
v  337.9000 125.2318 903.6050
v  334.1201 200.8289 903.6050
v  322.7806 125.2318 903.6050
v  322.7806 200.8289 903.6050
v  322.7806 200.8289 888.4856
v  322.7806 125.2318 888.4856
v  496.6541 125.2318 888.4856
v  496.6541 200.8289 888.4856
v  496.6541 200.8289 903.6050
v  496.6541 125.2318 903.6050
v  481.5347 200.8289 903.6050
v  481.5347 125.2318 903.6050
v  481.5347 200.8289 888.4856
v  481.5347 125.2318 888.4856
v  814.1609 125.2318 718.4248
v  814.1609 200.8289 718.4248
v  814.1609 200.8289 733.5443
v  814.1609 125.2318 733.5443
v  806.6025 200.8289 733.5443
v  799.0415 200.8289 733.5443
v  799.0415 125.2318 733.5443
v  806.6025 125.2318 733.5443
v  799.0415 200.8289 718.4248
v  799.0415 125.2318 718.4248
v  -932.1321 125.2318 -355.0875
v  -932.1321 200.8289 -355.0875
v  -932.1321 200.8289 -339.9681
v  -932.1321 125.2318 -339.9681
v  -943.4717 200.8289 -339.9681
v  -947.2515 200.8289 -339.9681
v  -947.2515 125.2318 -339.9681
v  -947.2515 200.8289 -355.0875
v  -947.2515 125.2318 -355.0875
v  -914.5747 200.8289 -498.6906
v  -914.5747 125.2318 -498.6906
v  -914.5747 200.8289 -510.0286
v  -914.5747 125.2318 -513.8099
v  -914.5747 200.8289 -513.8099
v  -929.6942 200.8289 -498.6906
v  -929.6942 125.2318 -498.6906
v  -929.6942 200.8289 -513.8099
v  -929.6942 125.2318 -513.8099
v  -972.3497 125.2318 -672.5629
v  -972.3497 200.8289 -672.5629
v  -972.3497 200.8289 -668.7825
v  -972.3497 125.2318 -657.4435
v  -972.3497 200.8289 -661.2229
v  -972.3497 200.8289 -657.4435
v  -987.4692 200.8289 -657.4435
v  -987.4692 125.2318 -657.4435
v  -987.4692 200.8289 -668.7825
v  -987.4692 200.8289 -672.5629
v  -987.4692 125.2318 -672.5629
v  -987.4692 200.8289 -661.2229
v  -703.6390 125.2318 615.2239
v  -703.6390 200.8289 615.2239
v  -694.5895 200.8289 640.0873
v  -694.5895 125.2318 640.0873
v  -719.4528 200.8289 649.1368
v  -719.4528 125.2318 649.1368
v  -728.5023 200.8289 624.2734
v  -728.5023 125.2318 624.2734
v  -647.4648 125.2318 769.5613
v  -647.4648 200.8289 769.5613
v  -638.4153 200.8289 794.4246
v  -638.4153 125.2318 794.4246
v  -663.2786 200.8289 803.4741
v  -663.2786 125.2318 803.4741
v  -672.3281 200.8289 778.6108
v  -672.3281 125.2318 778.6108
v  666.7478 200.8289 725.9845
v  666.7477 125.2318 725.9845
v  655.4081 125.2318 725.9845
v  655.4081 200.8289 725.9845
v  659.1879 125.2318 733.5443
v  666.7478 125.2318 733.5443
v  666.7478 200.8289 733.5443
v  659.1879 200.8289 733.5443
v  655.4081 200.8289 733.5443
v  655.4081 125.2318 733.5443
# 219 vertices

vn -0.3420 0.0000 -0.9397
vn 0.9397 0.0000 -0.3420
vn 0.3420 0.0000 0.9397
vn -0.9397 0.0000 0.3420
vn 0.0000 1.0000 -0.0000
vn 0.0000 0.0000 -1.0000
vn 1.0000 0.0000 -0.0000
vn 0.0000 0.0000 1.0000
vn -1.0000 0.0000 -0.0000
vn -0.2050 -0.0020 -0.9788
vn -0.1665 0.0000 -0.9860
vn -0.2022 0.0007 -0.9793
vn -0.2178 0.0000 -0.9760
vn 0.9278 0.0000 0.3730
vn 0.9106 0.0000 0.4132
vn 0.8918 0.0000 0.4525
vn 0.8713 0.0000 0.4907
vn -0.0000 -0.0000 1.0000
vn 1.0000 -0.0000 -0.0000
# 19 vertex normals

vt 0.4195 0.0081 0.3885
vt 0.4195 0.3363 0.3885
vt 0.3914 0.3363 0.3902
vt 0.3914 0.0081 0.3902
vt 0.4216 0.0081 0.0761
vt 0.4216 0.3363 0.0761
vt 0.3847 0.3363 0.0796
vt 0.3847 0.0081 0.0796
vt 0.3910 0.0081 0.3827
vt 0.3910 0.3363 0.3827
vt 0.3629 0.3363 0.3810
vt 0.3629 0.0081 0.3810
vt 0.3886 0.0081 0.0738
vt 0.3886 0.3363 0.0738
vt 0.3518 0.3363 0.0704
vt 0.3518 0.0081 0.0704
vt 0.4333 0.1699 1.0000
vt 0.1613 0.0081 0.2750
vt 0.1613 0.3363 0.2750
vt 0.1332 0.3363 0.2766
vt 0.1332 0.0081 0.2766
vt 0.7004 0.0081 0.1286
vt 0.7004 0.3363 0.1286
vt 0.6636 0.3363 0.1321
vt 0.6636 0.0081 0.1321
vt 0.6492 0.0081 0.2691
vt 0.6492 0.3363 0.2691
vt 0.6211 0.3363 0.2675
vt 0.6211 0.0081 0.2675
vt 0.2879 0.0081 0.1264
vt 0.2879 0.3363 0.1264
vt 0.2510 0.3363 0.1229
vt 0.2510 0.0081 0.1229
vt 0.3038 0.0081 0.3376
vt 0.3038 0.3363 0.3376
vt 0.2756 0.3363 0.3393
vt 0.2756 0.0081 0.3393
vt 0.1714 0.0081 0.0996
vt 0.1714 0.3363 0.0996
vt 0.1346 0.3363 0.1031
vt 0.1346 0.0081 0.1031
vt 0.5068 0.0081 0.3318
vt 0.5068 0.3363 0.3318
vt 0.4786 0.3363 0.3301
vt 0.4786 0.0081 0.3301
vt 0.6388 0.0081 0.0974
vt 0.6388 0.3363 0.0974
vt 0.6019 0.3363 0.0939
vt 0.6019 0.0081 0.0939
vt 0.7653 0.0081 0.7029
vt 0.7653 0.3363 0.7029
vt 0.7354 0.3363 0.7029
vt 0.7354 0.0081 0.7029
vt 0.1421 0.0081 0.0061
vt 0.1421 0.3363 0.0061
vt 0.1028 0.3363 0.0061
vt 0.1028 0.0081 0.0061
vt 0.0299 0.0081 0.6949
vt 0.0299 0.3363 0.6949
vt 0.0000 0.3363 0.6949
vt 0.0000 0.0081 0.6949
vt 0.8406 0.0081 0.0000
vt 0.8406 0.3363 0.0000
vt 0.8013 0.3363 0.0000
vt 0.8013 0.0081 0.0000
vt 0.7653 0.0081 0.7700
vt 0.7653 0.3363 0.7700
vt 0.7354 0.3363 0.7700
vt 0.7354 0.0081 0.7700
vt 0.4718 0.0081 0.0061
vt 0.4718 0.3363 0.0061
vt 0.4325 0.3363 0.0061
vt 0.4325 0.0081 0.0061
vt 0.0299 0.0081 0.7620
vt 0.0299 0.3363 0.7620
vt 0.0000 0.3363 0.7620
vt 0.0000 0.0081 0.7620
vt 0.5109 0.0081 0.0000
vt 0.5109 0.3363 0.0000
vt 0.4716 0.3363 0.0000
vt 0.4716 0.0081 0.0000
vt 0.7653 0.0081 0.8371
vt 0.7653 0.3363 0.8371
vt 0.7354 0.3363 0.8371
vt 0.7354 0.0081 0.8371
vt 0.8015 0.0081 0.0061
vt 0.8015 0.3363 0.0061
vt 0.7623 0.3363 0.0061
vt 0.7623 0.0081 0.0061
vt 0.0299 0.0081 0.8291
vt 0.0299 0.3363 0.8291
vt 0.0000 0.3363 0.8291
vt 0.0000 0.0081 0.8291
vt 0.1811 0.0081 0.0000
vt 0.1811 0.3363 0.0000
vt 0.1419 0.3363 0.0000
vt 0.1419 0.0081 0.0000
vt 0.7653 0.0081 0.0102
vt 0.7653 0.3363 0.0102
vt 0.7418 0.3363 0.0102
vt 0.7418 0.0081 0.0102
vt 0.0499 0.0081 0.9952
vt 0.0499 0.3363 0.9952
vt 0.0000 0.3363 0.9952
vt 0.0000 0.0081 0.9952
vt 0.0236 0.0081 0.0000
vt 0.0236 0.3363 0.0000
vt 0.0000 0.3363 0.0000
vt 0.0000 0.0081 0.0000
vt 0.7653 0.0081 1.0000
vt 0.7653 0.3363 1.0000
vt 0.7154 0.3363 1.0000
vt 0.7154 0.0081 1.0000
vt 0.6823 0.0081 0.2239
vt 0.6823 0.3363 0.2239
vt 0.6470 0.3363 0.2239
vt 0.6470 0.0081 0.2239
vt 0.4413 0.0081 0.5447
vt 0.4413 0.3363 0.5447
vt 0.3964 0.3363 0.5447
vt 0.3964 0.0081 0.5447
vt 0.7416 0.0081 0.2147
vt 0.7416 0.3363 0.2147
vt 0.7063 0.3363 0.2147
vt 0.7063 0.0081 0.2147
vt 0.5470 0.0081 0.5519
vt 0.5470 0.3363 0.5519
vt 0.5021 0.3363 0.5519
vt 0.5021 0.0081 0.5519
vt 0.3581 0.0081 0.2239
vt 0.3581 0.3363 0.2239
vt 0.3227 0.3363 0.2239
vt 0.3227 0.0081 0.2239
vt 0.4413 0.0081 0.6056
vt 0.4413 0.3363 0.6056
vt 0.3964 0.3363 0.6056
vt 0.3964 0.0081 0.6056
vt 0.4426 0.0081 0.2147
vt 0.4426 0.3363 0.2147
vt 0.4073 0.3363 0.2147
vt 0.4073 0.0081 0.2147
vt 0.5470 0.0081 0.6128
vt 0.5470 0.3363 0.6128
vt 0.5021 0.3363 0.6128
vt 0.5021 0.0081 0.6128
vt 0.7525 0.0081 0.2239
vt 0.7525 0.3363 0.2239
vt 0.7171 0.3363 0.2239
vt 0.7171 0.0081 0.2239
vt 0.4413 0.0081 0.8199
vt 0.4413 0.3363 0.8199
vt 0.3964 0.3363 0.8199
vt 0.3964 0.0081 0.8199
vt 0.2263 0.0081 0.2147
vt 0.2263 0.3363 0.2147
vt 0.1910 0.3363 0.2147
vt 0.1910 0.0081 0.2147
vt 0.5470 0.0081 0.8271
vt 0.5470 0.3363 0.8271
vt 0.5021 0.3363 0.8271
vt 0.5021 0.0081 0.8271
vt 0.7996 0.0081 0.1386
vt 0.7996 0.3363 0.1386
vt 0.7642 0.3363 0.1386
vt 0.7642 0.0081 0.1386
vt 0.6811 0.0081 0.8295
vt 0.6811 0.3363 0.8295
vt 0.6362 0.3363 0.8295
vt 0.6362 0.0081 0.8295
vt 0.1792 0.0081 0.1295
vt 0.1792 0.3363 0.1295
vt 0.1438 0.3363 0.1295
vt 0.1438 0.0081 0.1295
vt 0.1292 0.0081 0.8367
vt 0.1292 0.3363 0.8367
vt 0.0842 0.3363 0.8367
vt 0.0842 0.0081 0.8367
vt 0.5848 0.0081 0.0091
vt 0.5848 0.3363 0.0091
vt 0.5494 0.3363 0.0091
vt 0.5494 0.0081 0.0091
vt 0.0449 0.0081 0.9561
vt 0.0449 0.3363 0.9561
vt 0.0000 0.3363 0.9561
vt 0.0000 0.0081 0.9561
vt 0.2159 0.0081 0.0000
vt 0.2159 0.3363 0.0000
vt 0.1806 0.3363 0.0000
vt 0.1806 0.0081 0.0000
vt 0.7653 0.0081 0.9633
vt 0.7653 0.3363 0.9633
vt 0.7204 0.3363 0.9633
vt 0.7204 0.0081 0.9633
vt 0.4476 0.0081 0.9909
vt 0.4476 0.3363 0.9909
vt 0.4162 0.3363 0.9909
vt 0.4162 0.0081 0.9909
vt 0.7208 0.0081 0.0847
vt 0.7208 0.3363 0.0847
vt 0.6809 0.3363 0.0847
vt 0.6809 0.0081 0.0847
vt 0.3492 0.0081 0.9828
vt 0.3492 0.3363 0.9828
vt 0.3178 0.3363 0.9828
vt 0.3178 0.0081 0.9828
vt 0.0845 0.0081 0.0911
vt 0.0845 0.3363 0.0911
vt 0.0446 0.3363 0.0911
vt 0.0446 0.0081 0.0911
vt 0.4428 0.3363 0.9056
vt 0.4162 0.3363 0.9056
vt 0.4162 0.0081 0.9056
vt 0.4428 0.0081 0.9056
vt 0.2616 0.3363 0.0847
vt 0.2616 0.0081 0.0847
vt 0.3015 0.0081 0.0847
vt 0.3015 0.3363 0.0847
vt 0.3287 0.0081 0.8975
vt 0.3492 0.0081 0.8975
vt 0.3492 0.3363 0.8975
vt 0.3287 0.3363 0.8975
vt 0.4638 0.1542 0.0901
vt 0.4638 0.0081 0.0901
vt 0.4770 0.0081 0.0896
vt 0.4904 0.0081 0.0892
vt 0.5037 0.0081 0.0888
vt 0.5037 0.1903 0.0888
vt 0.4904 0.3363 0.0892
vt 0.5037 0.3363 0.0888
vt 0.4770 0.3363 0.0896
vt 0.4638 0.3363 0.0901
vt 0.2761 0.3363 0.1701
vt 0.2616 0.3363 0.1701
vt 0.2616 0.0081 0.1701
vt 0.2761 0.0081 0.1701
vt 0.7347 0.3363 0.8975
vt 0.7347 0.0081 0.8975
vt 0.7661 0.0081 0.8975
vt 0.7661 0.3363 0.8975
vt 0.4701 0.0081 0.1765
vt 0.5037 0.0081 0.1765
vt 0.5037 0.3363 0.1765
vt 0.4701 0.3363 0.1765
vt 0.2087 0.1317 0.9044
vt 0.2087 0.3363 0.9044
vt 0.2006 0.3363 0.9035
vt 0.2006 0.0081 0.9035
vt 0.1926 0.3363 0.9026
vt 0.1926 0.2127 0.9026
vt 0.1926 0.0081 0.9026
vt 0.2087 0.0081 0.9044
vt 0.1926 0.1317 0.9026
vt 0.1848 0.3363 0.9016
vt 0.1848 0.0081 0.9016
vt 0.1773 0.3363 0.9005
vt 0.1773 0.2127 0.9005
vt 0.1773 0.0081 0.9005
vt 0.2087 0.0081 0.7351
vt 0.2087 0.3363 0.7351
vt 0.1773 0.3363 0.7351
vt 0.1773 0.0081 0.7351
vt 0.3003 0.0081 0.1701
vt 0.3003 0.3363 0.1701
vt 0.2904 0.3363 0.1701
vt 0.2604 0.0081 0.1701
vt 0.2604 0.3363 0.1701
vt 0.7661 0.0081 0.7270
vt 0.7661 0.3363 0.7270
vt 0.7347 0.3363 0.7270
vt 0.7347 0.0081 0.7270
vt 0.6830 0.0081 0.1765
vt 0.6830 0.3363 0.1765
vt 0.6431 0.3363 0.1765
vt 0.6431 0.0081 0.1765
vt 0.2087 0.0081 0.8204
vt 0.2087 0.3363 0.8204
vt 0.1773 0.3363 0.8204
vt 0.1773 0.0081 0.8204
vt 0.7195 0.0081 0.1701
vt 0.7195 0.3363 0.1701
vt 0.6796 0.3363 0.1701
vt 0.6796 0.0081 0.1701
vt 0.7661 0.0081 0.8122
vt 0.7661 0.3363 0.8122
vt 0.7347 0.3363 0.8122
vt 0.7347 0.0081 0.8122
vt 0.2639 0.0081 0.1765
vt 0.2639 0.3363 0.1765
vt 0.2239 0.3363 0.1765
vt 0.2239 0.0081 0.1765
vt 0.5619 0.0081 0.9909
vt 0.5619 0.3363 0.9909
vt 0.5305 0.3363 0.9909
vt 0.5305 0.0081 0.9909
vt 0.7008 0.3363 0.2420
vt 0.6809 0.3363 0.2420
vt 0.6809 0.0081 0.2420
vt 0.7008 0.0081 0.2420
vt 0.7208 0.0081 0.2420
vt 0.7208 0.3363 0.2420
vt 0.4129 0.0081 0.9828
vt 0.4129 0.3363 0.9828
vt 0.3815 0.3363 0.9828
vt 0.3815 0.0081 0.9828
vt 0.0845 0.0081 0.2484
vt 0.0845 0.3363 0.2484
vt 0.0446 0.3363 0.2484
vt 0.0446 0.0081 0.2484
vt 0.1382 0.0081 0.0528
vt 0.1382 0.3363 0.0528
vt 0.1068 0.3363 0.0528
vt 0.1068 0.0081 0.0528
vt 0.2295 0.3363 0.6957
vt 0.2195 0.3363 0.6957
vt 0.2195 0.0081 0.6957
vt 0.2595 0.0081 0.6957
vt 0.2595 0.3363 0.6957
vt 0.8366 0.0081 0.0447
vt 0.8366 0.3363 0.0447
vt 0.8052 0.3363 0.0447
vt 0.8052 0.0081 0.0447
vt 0.5458 0.0081 0.7021
vt 0.5458 0.3363 0.7021
vt 0.5059 0.3363 0.7021
vt 0.5059 0.0081 0.7021
vt 0.4365 0.3363 0.0622
vt 0.4365 0.0081 0.0622
vt 0.4600 0.3363 0.0622
vt 0.4679 0.0081 0.0622
vt 0.4679 0.3363 0.0622
vt 0.3058 0.0081 0.7628
vt 0.3058 0.3363 0.7628
vt 0.2659 0.3363 0.7628
vt 0.2659 0.0081 0.7628
vt 0.5069 0.0081 0.0541
vt 0.5069 0.3363 0.0541
vt 0.4755 0.3363 0.0541
vt 0.4755 0.0081 0.0541
vt 0.4994 0.0081 0.7692
vt 0.4994 0.3363 0.7692
vt 0.4595 0.3363 0.7692
vt 0.4595 0.0081 0.7692
vt 0.7976 0.0081 0.0312
vt 0.7976 0.3363 0.0312
vt 0.7898 0.3363 0.0312
vt 0.7662 0.0081 0.0312
vt 0.7741 0.3363 0.0312
vt 0.7662 0.3363 0.0312
vt 0.1533 0.0081 0.8299
vt 0.1533 0.3363 0.8299
vt 0.1134 0.3363 0.8299
vt 0.1134 0.0081 0.8299
vt 0.1537 0.3363 0.0231
vt 0.1458 0.3363 0.0231
vt 0.1458 0.0081 0.0231
vt 0.1772 0.0081 0.0231
vt 0.1772 0.3363 0.0231
vt 0.1694 0.3363 0.0231
vt 0.6520 0.0081 0.8363
vt 0.6520 0.3363 0.8363
vt 0.6121 0.3363 0.8363
vt 0.6121 0.0081 0.8363
vt 0.7762 0.0081 0.1755
vt 0.7762 0.3363 0.1755
vt 0.7246 0.3363 0.1804
vt 0.7246 0.0081 0.1804
vt 0.2277 0.0081 0.2815
vt 0.2277 0.3363 0.2815
vt 0.1621 0.3363 0.2777
vt 0.1621 0.0081 0.2777
vt 0.2376 0.0081 0.1671
vt 0.2376 0.3363 0.1671
vt 0.1860 0.3363 0.1622
vt 0.1860 0.0081 0.1622
vt 0.8052 0.0081 0.2882
vt 0.8052 0.3363 0.2882
vt 0.7396 0.3363 0.2920
vt 0.7396 0.0081 0.2920
vt 0.4557 0.0081 0.2057
vt 0.4557 0.3363 0.2057
vt 0.4040 0.3363 0.2106
vt 0.4040 0.0081 0.2106
vt 0.3760 0.0081 0.2163
vt 0.3760 0.3363 0.2163
vt 0.3104 0.3363 0.2125
vt 0.3104 0.0081 0.2125
vt 0.5582 0.0081 0.1972
vt 0.5582 0.3363 0.1972
vt 0.5065 0.3363 0.1924
vt 0.5065 0.0081 0.1924
vt 0.6569 0.0081 0.2230
vt 0.6569 0.3363 0.2230
vt 0.5913 0.3363 0.2268
vt 0.5913 0.0081 0.2268
vt 0.4338 0.3363 0.2452
vt 0.4338 0.0081 0.2452
vt 0.4637 0.0081 0.2452
vt 0.4637 0.3363 0.2452
vt 0.3116 0.0081 0.2420
vt 0.3316 0.0081 0.2420
vt 0.3316 0.3363 0.2420
vt 0.3116 0.3363 0.2420
vt 0.3016 0.3363 0.2420
vt 0.3016 0.0081 0.2420
vt 0.4129 0.3363 0.9056
vt 0.3972 0.3363 0.9056
vt 0.3972 0.0081 0.9056
vt 0.4129 0.0081 0.9056
vt 0.5462 0.0081 0.9117
vt 0.5462 0.3363 0.9117
vt 0.5305 0.3363 0.9117
vt 0.5305 0.0081 0.9117
# 412 texture coords

g B3S_T_tujian_005_zhuzi_lv
usemtl T_tujian_005
s off
f 1/1/1 2/2/1 3/3/1 4/4/1 
f 4/5/2 3/6/2 5/7/2 6/8/2 
f 6/9/3 5/10/3 7/11/3 8/12/3 
f 8/13/4 7/14/4 2/15/4 1/16/4 
f 3/17/5 2/17/5 7/17/5 5/17/5 
f 9/18/1 10/19/1 11/20/1 12/21/1 
f 12/22/2 11/23/2 13/24/2 14/25/2 
f 14/26/3 13/27/3 15/28/3 16/29/3 
f 16/30/4 15/31/4 10/32/4 9/33/4 
f 11/17/5 10/17/5 15/17/5 13/17/5 
f 17/34/1 18/35/1 19/36/1 20/37/1 
f 20/38/2 19/39/2 21/40/2 22/41/2 
f 22/42/3 21/43/3 23/44/3 24/45/3 
f 24/46/4 23/47/4 18/48/4 17/49/4 
f 19/17/5 18/17/5 23/17/5 21/17/5 
f 25/50/6 26/51/6 27/52/6 28/53/6 
f 28/54/7 27/55/7 29/56/7 30/57/7 
f 30/58/8 29/59/8 31/60/8 32/61/8 
f 32/62/9 31/63/9 26/64/9 25/65/9 
f 27/17/5 26/17/5 31/17/5 29/17/5 
f 33/66/6 34/67/6 35/68/6 36/69/6 
f 36/70/7 35/71/7 37/72/7 38/73/7 
f 38/74/8 37/75/8 39/76/8 40/77/8 
f 40/78/9 39/79/9 34/80/9 33/81/9 
f 35/17/5 34/17/5 39/17/5 37/17/5 
f 41/82/6 42/83/6 43/84/6 44/85/6 
f 44/86/7 43/87/7 45/88/7 46/89/7 
f 46/90/8 45/91/8 47/92/8 48/93/8 
f 48/94/9 47/95/9 42/96/9 41/97/9 
f 43/17/5 42/17/5 47/17/5 45/17/5 
f 49/98/7 50/99/7 51/100/7 52/101/7 
f 52/102/8 51/103/8 53/104/8 54/105/8 
f 54/106/9 53/107/9 55/108/9 56/109/9 
f 56/110/6 55/111/6 50/112/6 49/113/6 
f 51/17/5 50/17/5 55/17/5 53/17/5 
f 57/114/7 58/115/7 59/116/7 60/117/7 
f 60/118/8 59/119/8 61/120/8 62/121/8 
f 62/122/9 61/123/9 63/124/9 64/125/9 
f 64/126/6 63/127/6 58/128/6 57/129/6 
f 59/17/5 58/17/5 63/17/5 61/17/5 
f 65/130/7 66/131/7 67/132/7 68/133/7 
f 68/134/8 67/135/8 69/136/8 70/137/8 
f 70/138/9 69/139/9 71/140/9 72/141/9 
f 72/142/6 71/143/6 66/144/6 65/145/6 
f 67/17/5 66/17/5 71/17/5 69/17/5 
f 73/146/7 74/147/7 75/148/7 76/149/7 
f 76/150/8 75/151/8 77/152/8 78/153/8 
f 78/154/9 77/155/9 79/156/9 80/157/9 
f 80/158/6 79/159/6 74/160/6 73/161/6 
f 75/17/5 74/17/5 79/17/5 77/17/5 
f 81/162/7 82/163/7 83/164/7 84/165/7 
f 84/166/8 83/167/8 85/168/8 86/169/8 
f 86/170/9 85/171/9 87/172/9 88/173/9 
f 88/174/6 87/175/6 82/176/6 81/177/6 
f 83/17/5 82/17/5 87/17/5 85/17/5 
f 89/178/7 90/179/7 91/180/7 92/181/7 
f 92/182/8 91/183/8 93/184/8 94/185/8 
f 94/186/9 93/187/9 95/188/9 96/189/9 
f 96/190/6 95/191/6 90/192/6 89/193/6 
f 91/17/5 90/17/5 95/17/5 93/17/5 
f 97/194/7 98/195/7 99/196/7 100/197/7 
f 100/198/8 99/199/8 101/200/8 102/201/8 
f 102/202/9 101/203/9 103/204/9 104/205/9 
f 104/206/6 103/207/6 98/208/6 97/209/6 
f 99/17/5 98/17/5 103/17/5 101/17/5 
f 105/210/7 106/211/7 107/212/7 108/213/7 
f 109/214/8 110/215/8 107/216/8 106/217/8 
f 111/218/9 110/219/9 109/220/9 112/221/9 
f 113/17/5 112/17/5 109/17/5 106/17/5 
f 106/17/5 105/17/5 114/17/5 113/17/5 
f 115/222/10 108/223/10 116/224/10 117/225/10 
f 117/225/11 111/226/11 118/227/11 113/228/11 
f 118/227/11 112/229/11 113/228/11 
f 115/222/12 117/225/12 113/228/12 114/230/12 
f 115/222/13 114/230/13 105/231/13 
f 119/232/8 120/233/8 121/234/8 122/235/8 
f 123/236/9 124/237/9 121/238/9 120/239/9 
f 125/240/6 124/241/6 123/242/6 126/243/6 
f 127/244/14 126/245/14 128/246/14 129/247/14 
f 128/246/15 130/248/15 131/249/15 129/247/15 
f 131/249/15 132/250/15 129/247/15 
f 127/244/14 129/247/14 125/251/14 
f 133/252/16 130/248/16 134/253/16 135/254/16 
f 134/253/17 119/255/17 136/256/17 135/254/17 
f 136/256/17 122/257/17 135/254/17 
f 133/252/16 135/254/16 132/250/16 
f 128/17/5 126/17/5 123/17/5 130/17/5 
f 134/17/5 130/17/5 123/17/5 120/17/5 
f 134/17/5 120/17/5 119/17/5 
f 137/258/7 138/259/7 139/260/7 140/261/7 
f 140/262/8 139/263/8 141/264/8 142/265/8 
f 142/265/8 141/264/8 143/266/8 
f 142/267/9 143/268/9 144/269/9 145/270/9 
f 145/271/6 144/272/6 138/273/6 137/274/6 
f 141/17/5 139/17/5 138/17/5 144/17/5 
f 141/17/5 144/17/5 143/17/5 
f 146/275/7 147/276/7 148/277/7 149/278/7 
f 149/279/8 148/280/8 150/281/8 151/282/8 
f 151/283/9 150/284/9 152/285/9 153/286/9 
f 153/287/6 152/288/6 147/289/6 146/290/6 
f 148/17/5 147/17/5 152/17/5 150/17/5 
f 154/291/7 155/292/7 156/293/7 157/294/7 
f 158/295/8 159/296/8 160/297/8 161/298/8 
f 158/295/8 161/298/8 157/299/8 156/300/8 
f 160/301/9 159/302/9 162/303/9 163/304/9 
f 163/305/6 162/306/6 155/307/6 154/308/6 
f 158/17/5 156/17/5 155/17/5 162/17/5 
f 158/17/5 162/17/5 159/17/5 
f 164/309/7 165/310/7 166/311/7 167/312/7 
f 168/313/8 169/314/8 170/315/8 167/316/8 
f 167/316/8 166/317/8 168/313/8 
f 170/318/9 169/319/9 171/320/9 172/321/9 
f 172/322/6 171/323/6 165/324/6 164/325/6 
f 166/17/5 165/17/5 168/17/5 
f 168/17/5 165/17/5 171/17/5 169/17/5 
f 173/326/7 174/327/7 175/328/7 
f 175/328/7 174/327/7 176/329/7 177/330/7 
f 174/331/8 173/332/8 178/333/8 179/334/8 
f 179/335/9 178/336/9 180/337/9 181/338/9 
f 181/339/6 180/340/6 177/341/6 176/342/6 
f 175/17/5 177/17/5 180/17/5 178/17/5 
f 178/17/5 173/17/5 175/17/5 
f 182/343/7 183/344/7 184/345/7 185/346/7 
f 185/346/7 184/345/7 186/347/7 187/348/7 
f 185/349/8 187/350/8 188/351/8 189/352/8 
f 190/353/9 191/354/9 192/355/9 189/356/9 
f 189/356/9 188/357/9 193/358/9 190/353/9 
f 192/359/6 191/360/6 183/361/6 182/362/6 
f 183/17/5 191/17/5 190/17/5 184/17/5 
f 184/17/5 190/17/5 193/17/5 186/17/5 
f 187/17/5 186/17/5 193/17/5 188/17/5 
f 194/363/2 195/364/2 196/365/2 197/366/2 
f 197/367/3 196/368/3 198/369/3 199/370/3 
f 199/371/4 198/372/4 200/373/4 201/374/4 
f 201/375/1 200/376/1 195/377/1 194/378/1 
f 196/17/5 195/17/5 200/17/5 198/17/5 
f 202/379/2 203/380/2 204/381/2 205/382/2 
f 205/383/3 204/384/3 206/385/3 207/386/3 
f 207/387/4 206/388/4 208/389/4 209/390/4 
f 209/391/1 208/392/1 203/393/1 202/394/1 
f 204/17/5 203/17/5 208/17/5 206/17/5 
f 210/395/6 211/396/6 212/397/6 213/398/6 
f 214/399/8 215/400/8 216/401/8 217/402/8 
f 214/399/18 217/402/18 218/403/18 219/404/18 
f 218/405/9 213/406/9 212/407/9 219/408/9 
f 211/409/19 210/410/19 216/411/19 215/412/19 
f 213/17/5 218/17/5 216/17/5 210/17/5 
# 133 polygons - 14 triangles

