# 3ds Max Wavefront OBJ Exporter v0.97b - (c)2007 guruware
# File Created: 24.01.2018 18:11:03

mtllib B3S_T_tujian_004_qiang_dxck.mtl

#
# object B3S_T_tujian_004_qiang_dxck
#

v  656.4974 200.8289 899.5099
v  663.7294 200.8289 867.8743
v  656.1677 200.8289 867.8743
v  649.6832 200.8289 896.2364
v  594.0087 200.8289 945.6942
v  562.8018 200.8289 950.8860
v  562.8018 200.8289 958.4457
v  631.2781 200.8289 932.7031
v  599.3794 200.8289 951.7974
v  616.1892 200.8289 943.6879
v  610.5367 200.8289 938.2356
v  625.3750 200.8289 927.8134
v  637.9989 200.8289 914.7964
v  651.2125 200.8289 909.1653
v  644.1592 200.8289 919.1970
v  644.7252 200.8289 905.3282
v  631.2782 164.9203 932.7030
v  644.1592 164.9203 919.1969
v  651.2126 134.6814 909.1653
v  651.2126 125.2318 909.1652
v  656.4974 125.2318 899.5098
v  651.2125 164.9203 909.1653
v  562.8018 125.2318 958.4457
v  599.3798 125.2318 951.7974
v  616.1895 164.9203 943.6878
v  616.1896 134.6814 943.6878
v  616.1896 125.2318 943.6879
v  637.9991 164.9203 914.7964
v  625.3751 164.9203 927.8134
v  610.5367 164.9203 938.2356
v  644.7255 164.9203 905.3282
v  594.0088 125.2318 945.6942
v  562.8018 125.2318 950.8860
v  610.5367 134.6814 938.2356
v  610.5367 125.2318 938.2356
v  649.6832 125.2318 896.2364
v  644.7256 125.2318 905.3282
v  644.7256 134.6814 905.3282
v  631.2784 125.2318 932.7030
v  644.1592 125.2318 919.1969
v  644.1592 134.6814 919.1969
v  631.2784 134.6814 932.7030
v  637.9991 125.2318 914.7964
v  625.3751 125.2318 927.8134
v  625.3751 134.6814 927.8134
v  637.9991 134.6814 914.7964
v  610.0504 125.2317 1098.3008
v  610.0504 200.8289 1098.3004
v  413.4999 200.8289 1098.3004
v  413.4999 125.2318 1098.3004
v  413.4999 125.2318 1090.7407
v  413.4999 200.8289 1090.7407
v  610.0504 200.8289 1090.7407
v  610.0504 125.2317 1090.7407
v  405.9402 185.7095 1090.7407
v  405.9402 125.2318 1090.7407
v  337.9003 125.2318 1090.7407
v  337.9003 185.7095 1090.7407
v  337.9003 125.2318 1098.3004
v  405.9402 125.2318 1098.3004
v  405.9402 185.7095 1098.3004
v  337.9003 185.7095 1098.3004
v  497.1504 200.8289 958.4457
v  497.1504 125.2318 958.4457
v  497.1504 200.8289 950.8860
v  799.0430 200.8289 867.8743
v  799.0430 125.2318 867.8743
v  799.0430 125.2318 888.5184
v  799.0430 200.8289 888.5184
v  806.6025 200.8289 867.8743
v  806.6025 200.8289 888.5020
v  806.6025 125.2318 888.5020
v  610.0507 200.8289 1090.7407
v  610.0504 200.8289 1098.3010
v  655.9105 200.8289 1092.3181
v  655.9103 200.8289 1085.4705
v  655.9105 125.2317 1085.4705
v  791.4065 200.8289 973.2240
v  791.4065 125.2317 973.2240
v  799.4517 125.2317 954.1586
v  799.4517 200.8289 954.1586
v  806.5945 200.8289 903.5153
v  806.5945 125.2317 903.5153
v  792.8975 200.8289 952.3362
v  799.0352 200.8289 903.4473
v  799.0352 125.2317 903.4473
v  792.8975 125.2317 952.3362
v  413.4996 125.2318 1090.7407
v  413.4996 200.8289 1090.7407
v  413.4996 200.8289 1098.3004
v  413.4996 125.2318 1098.3004
v  405.9401 200.8289 1098.3004
v  405.9401 125.2318 1098.3004
v  405.9401 200.8289 1090.7407
v  405.9401 125.2318 1090.7407
v  -213.9591 197.6160 -973.0614
v  -213.9591 197.6160 -1048.6588
v  -624.7036 136.0043 -1048.6588
v  -624.7036 136.0043 -973.0614
v  -145.9216 202.7188 -973.0614
v  -145.9216 202.7188 -1048.6588
v  -692.7410 130.9016 -1048.6588
v  -692.7410 130.9016 -973.0614
v  -624.7036 131.2661 -973.0619
v  -213.9591 192.8778 -973.0619
v  -213.9591 192.8778 -1048.6591
v  -624.7036 131.2661 -1048.6591
v  -145.9216 197.9806 -973.0619
v  -145.9216 197.9806 -1048.6591
v  -692.7410 126.1634 -1048.6591
v  -692.7410 126.1634 -973.0619
v  -269.3630 186.6544 -973.0614
v  -296.1710 183.4983 -973.0614
v  -296.1710 183.4983 -965.5018
v  -269.3630 186.6544 -965.5018
v  -156.2186 186.6544 -973.0614
v  -296.1710 170.1774 -973.0614
v  -156.2186 186.6544 -965.5018
v  -296.1710 170.1774 -965.5018
v  -313.1804 180.8145 -973.0614
v  -454.9250 159.5529 -973.0614
v  -454.9250 159.5529 -965.5018
v  -313.1804 180.8145 -965.5018
v  -313.1804 167.4370 -973.0614
v  -454.9250 146.1754 -973.0614
v  -313.1804 167.4370 -965.5018
v  -454.9250 146.1754 -965.5018
v  -471.9344 156.9258 -973.0614
v  -613.6790 135.8720 -973.0614
v  -613.6790 135.8720 -965.5018
v  -471.9344 156.9258 -965.5018
v  -471.9344 143.5512 -973.0614
v  -613.6790 122.4974 -973.0614
v  -471.9344 143.5512 -965.5018
v  -613.6790 122.4974 -965.5018
v  562.8018 154.2234 958.4457
v  441.3358 136.0043 958.4457
v  441.3358 136.0043 1090.7407
v  589.2605 158.1921 1090.7407
v  589.2605 158.1921 955.0219
v  373.2985 130.9016 958.4457
v  373.2985 130.9016 1090.7407
v  666.7584 188.5562 854.4171
v  661.0156 183.4416 888.5156
v  799.0239 183.4416 888.5156
v  799.0427 197.6160 794.0220
v  666.7529 197.6160 794.0220
v  799.0427 202.7188 725.9849
v  666.7477 202.7188 725.9849
v  625.5149 161.0524 1090.0911
v  661.4718 163.8907 1083.5942
v  700.4923 167.1231 1067.6770
v  772.0725 174.7032 999.0043
v  754.6752 172.4464 1023.3863
v  729.6614 169.7917 1048.0741
v  798.8855 181.8414 909.4556
v  786.9834 177.2897 968.1155
v  794.9714 179.4514 940.6595
v  654.2109 179.6856 903.9700
v  642.4833 174.5819 921.2269
v  626.8147 168.8875 936.3729
v  609.2493 163.4482 947.4744
v  562.8018 149.4853 958.4457
v  441.3358 131.2662 958.4458
v  441.3358 131.2662 1090.7407
v  589.2605 153.4540 1090.7407
v  589.2605 153.4540 955.0219
v  373.2985 126.1634 958.4458
v  373.2985 126.1634 1090.7407
v  666.7584 183.8181 854.4171
v  661.0156 178.7035 888.5156
v  666.7529 192.8779 794.0220
v  799.0239 178.7035 888.5156
v  799.0427 192.8779 794.0220
v  799.0427 197.9807 725.9849
v  666.7477 197.9807 725.9849
v  798.8855 177.1033 909.4556
v  609.2493 158.7101 947.4744
v  786.9834 172.5516 968.1155
v  794.9714 174.7133 940.6595
v  754.6752 167.7083 1023.3863
v  772.0725 169.9650 999.0043
v  654.2109 174.9475 903.9700
v  642.4833 169.8438 921.2269
v  626.8147 164.1494 936.3729
v  661.4718 159.1526 1083.5942
v  700.4923 162.3850 1067.6770
v  729.6614 165.0536 1048.0741
v  625.5149 156.3143 1090.0911
v  497.1504 125.2318 950.8860
v  663.7294 125.2318 867.8743
v  656.1677 125.2318 867.8743
v  806.6025 125.2318 867.8743
v  784.0841 200.8289 973.2240
v  784.0841 125.2317 973.2240
v  655.9105 125.2317 1092.3181
# 196 vertices

vn 0.0000 1.0000 -0.0000
vn 0.7237 0.0000 0.6902
vn 0.8772 0.0000 0.4801
vn 0.1788 0.0000 0.9839
vn 0.5886 0.0000 0.8085
vn 0.4345 0.0000 0.9007
vn -0.7179 -0.0000 -0.6962
vn -0.5748 -0.0000 -0.8183
vn -0.8152 -0.0000 -0.5791
vn -0.1641 -0.0000 -0.9864
vn -0.4113 -0.0000 -0.9115
vn -0.0000 1.0000 0.0000
vn 0.8180 0.0000 0.5752
vn -0.8780 -0.0000 -0.4787
vn -0.7179 0.0000 -0.6962
vn -0.5748 0.0000 -0.8183
vn -0.8152 0.0000 -0.5792
vn 0.8180 -0.0000 0.5752
vn 0.6942 0.0000 -0.7198
vn -0.5091 -0.0000 0.8607
vn -0.0000 -1.0000 -0.0000
vn 0.0000 1.0000 0.0000
vn 0.0000 0.0000 1.0000
vn 0.0000 0.0000 -1.0000
vn -1.0000 0.0000 -0.0000
vn -0.0000 0.0000 1.0000
vn 1.0000 0.0000 -0.0000
vn -0.1142 -0.0000 -0.9935
vn 0.9213 0.0000 0.3888
vn 0.9902 0.0000 0.1397
vn -0.9922 0.0000 -0.1246
vn 0.0090 0.0000 -1.0000
vn -0.1483 0.9889 -0.0000
vn -0.0748 0.9972 -0.0000
vn 0.0000 -0.0001 1.0000
vn -0.0000 0.0001 -1.0000
vn -0.1169 0.9931 -0.0000
vn 0.1169 -0.9931 -0.0000
vn 0.1483 -0.9889 -0.0000
vn -0.1469 0.9891 -0.0000
vn 0.1469 -0.9891 -0.0000
vn -0.0000 0.9889 0.1483
vn 0.0000 0.9972 0.0748
vn -0.0745 0.9944 0.0750
vn 0.0000 -0.0000 -1.0000
vn -0.1283 -0.0000 -0.9917
vn -0.9861 0.0000 -0.1661
vn -1.0000 0.0000 0.0001
vn 1.0000 0.0000 0.0002
vn 1.0000 0.0000 0.0066
vn -0.3532 -0.0000 -0.9355
vn 0.9602 0.0000 0.2794
vn 0.8140 0.0000 0.5808
vn -0.8271 0.0000 -0.5621
vn -0.5343 0.0000 -0.8453
vn -0.5342 0.0000 -0.8453
vn 0.9006 0.0000 0.4347
vn 0.3777 0.0000 0.9259
vn 0.5578 0.0000 0.8300
vn 0.1778 0.0000 0.9841
vn -0.6950 0.0000 -0.7190
vn -0.9152 0.0000 -0.4030
vn 0.7025 0.0000 0.7117
vn 0.9922 0.0000 0.1245
vn 0.0179 0.0000 0.9998
vn 0.9749 -0.0000 0.2229
vn -0.9748 0.0000 -0.2229
vn -0.9213 0.0000 -0.3887
vn 0.1294 -0.0000 0.9916
# 69 vertex normals

vt 0.9886 0.8881 1.0000
vt 0.9886 0.8881 0.8575
vt 0.9886 0.8881 0.8641
vt 0.9886 0.8881 0.8677
vt 0.9886 0.8881 0.8704
vt 0.9886 0.8881 0.1514
vt 0.9886 0.8881 0.1542
vt 0.9886 0.8881 0.1576
vt 0.9886 0.8881 0.1622
vt 0.9886 0.8881 0.8609
vt 0.9886 0.8881 0.8545
vt 0.9886 0.8881 0.1642
vt 0.9886 0.8881 0.1599
vt 0.9886 0.8881 0.8644
vt 0.9886 0.8881 0.1546
vt 0.9886 0.8881 0.1567
vt 0.9886 0.8881 0.8669
vt 0.9886 0.8881 0.8469
vt 0.9886 0.8881 0.8498
vt 0.9886 0.8881 0.1736
vt 0.9886 0.8881 0.1720
vt 0.9886 0.8881 0.5250
vt 0.9886 0.8881 0.1250
vt 0.9886 0.8881 0.0931
vt 0.9886 0.8881 0.0962
vt 0.9886 0.8881 0.7464
vt 0.9886 0.8881 0.7078
vt 0.9886 0.8881 0.8000
vt 0.9886 0.8881 0.7425
vt 0.9886 0.8881 0.9431
vt 0.9886 0.8881 0.1806
vt 0.9886 0.8881 0.8467
vt 0.9886 0.8881 0.0984
vt 0.9886 0.8881 0.9392
vt 0.9886 0.8881 0.9433
vt 0.9886 0.8881 0.9470
vt 0.9886 0.8881 0.9400
vt 0.9886 0.8881 0.1744
vt 0.9886 0.8881 0.1743
vt 0.9882 0.9120 0.9364
vt 0.9878 0.9120 0.1684
vt 0.9882 0.9120 1.0000
vt 0.9878 0.9120 0.1048
vt 0.9882 0.9119 0.9647
vt 0.9878 0.9104 0.9647
vt 0.9878 0.9103 0.9647
vt 0.9882 0.9118 0.9647
vt 0.9890 0.9104 1.0000
vt 0.9886 0.9119 1.0000
vt 0.9886 0.9118 1.0000
vt 0.9890 0.9103 1.0000
vt 0.9882 0.9120 0.9647
vt 0.9890 0.9120 0.3666
vt 0.9890 0.9119 0.3666
vt 0.9886 0.9120 1.0000
vt 0.9878 0.9103 0.0000
vt 0.9878 0.9102 0.0000
vt 0.9878 0.9102 0.9647
vt 0.9890 0.9102 1.0000
vt 0.9886 0.8881 0.7997
vt 0.9886 0.8881 0.7604
vt 0.9886 0.8881 0.9647
vt 0.9886 0.8881 0.5944
vt 0.9886 0.8881 0.9611
vt 0.9886 0.8881 0.2658
vt 0.9886 0.8881 0.7270
vt 0.9886 0.8881 0.4619
vt 0.9886 0.8881 0.5602
vt 0.9886 0.8881 0.2952
vt 0.9886 0.8881 0.2544
vt 0.9886 0.8881 0.1594
vt 0.9886 0.8881 0.4292
vt 0.9886 0.8881 0.1667
vt 0.9886 0.8881 0.2624
vt 0.9886 0.8881 0.0000
vt 0.9886 0.8881 0.1480
vt 0.9886 0.8881 0.0530
vt 0.9888 0.9102 0.3955
vt 0.9887 0.9102 0.1684
vt 0.9887 0.9101 0.1684
vt 0.9888 0.9101 0.4450
vt 0.9888 0.9102 0.4450
vt 0.9887 0.9102 0.1048
vt 0.9887 0.9101 0.1048
vt 0.9889 0.9103 0.8235
vt 0.9889 0.9103 0.7597
vt 0.9890 0.9103 0.7597
vt 0.9890 0.9104 0.9364
vt 0.9889 0.9104 0.9364
vt 0.9889 0.9104 1.0000
vt 0.9889 0.9101 0.4806
vt 0.9889 0.9101 0.5160
vt 0.9889 0.9101 0.5563
vt 0.9890 0.9102 0.6508
vt 0.9890 0.9102 0.6226
vt 0.9890 0.9101 0.5895
vt 0.9890 0.9103 0.7398
vt 0.9890 0.9102 0.6830
vt 0.9890 0.9102 0.7100
vt 0.9889 0.9103 0.7129
vt 0.9889 0.9103 0.6493
vt 0.9889 0.9102 0.5783
vt 0.9889 0.9102 0.5105
vt 0.9881 0.9104 0.0618
vt 0.9880 0.9109 0.0618
vt 0.9880 0.9108 0.0618
vt 0.9881 0.9103 0.0618
vt 0.9888 0.9110 -0.0000
vt 0.9887 0.9104 -0.0000
vt 0.9887 0.9103 -0.0000
vt 0.9888 0.9109 -0.0000
vt 0.9879 0.9110 0.0634
vt 0.9879 0.9109 0.0634
vt 0.9890 0.9103 0.7146
vt 0.9889 0.9103 0.7146
vt 0.9889 0.9102 0.7146
vt 0.9890 0.9102 0.7146
vt 0.9887 0.9102 -0.0000
vt 0.9881 0.9102 0.0618
vt 0.9889 0.9116 0.9075
vt 0.9889 0.9117 0.9113
vt 0.9889 0.9116 0.9113
vt 0.9889 0.9115 0.9075
vt 0.9888 0.9119 0.9113
vt 0.9888 0.9118 0.9113
vt 0.9879 0.9119 1.0000
vt 0.9879 0.9116 1.0000
vt 0.9879 0.9115 1.0000
vt 0.9879 0.9118 1.0000
vt 0.9880 0.9120 1.0000
vt 0.9880 0.9119 1.0000
vt 0.9879 0.9120 0.1705
vt 0.9878 0.9120 0.1705
vt 0.9878 0.9119 0.1705
vt 0.9879 0.9119 0.1705
vt 0.9888 0.9120 0.9113
vt 0.9879 0.9115 0.9999
vt 0.9879 0.9114 0.9999
vt 0.9879 0.9111 0.0670
vt 0.9879 0.9110 0.0670
vt 0.9879 0.9115 0.9973
vt 0.9878 0.9114 0.9919
vt 0.9878 0.9113 0.9919
vt 0.9879 0.9114 0.9973
vt 0.9878 0.9114 0.9819
vt 0.9878 0.9113 0.9703
vt 0.9878 0.9112 0.9703
vt 0.9878 0.9113 0.9819
vt 0.9889 0.9114 0.8951
vt 0.9889 0.9115 0.9029
vt 0.9889 0.9114 0.9029
vt 0.9889 0.9113 0.8951
vt 0.9879 0.9112 0.0722
vt 0.9879 0.9111 0.0722
vt 0.9889 0.9112 0.0108
vt 0.9889 0.9111 0.0033
vt 0.9889 0.9110 0.0033
vt 0.9889 0.9111 0.0108
vt 0.9890 0.9112 0.0199
vt 0.9890 0.9111 0.0199
vt 0.9889 0.9110 0.0003
vt 0.9889 0.9109 0.0003
vt 0.9889 0.9112 0.8845
vt 0.9889 0.9111 0.8845
vt 0.9878 0.9112 0.9535
vt 0.9878 0.9111 0.9535
vt 0.9886 0.8881 0.8741
vt 0.9886 0.8881 0.8702
vt 0.9886 0.8881 0.9355
vt 0.9886 0.8881 0.0956
# 170 texture coords

g B3S_T_tujian_004_qiang_dxck
usemtl T_tujian_004
s off
f 1/1/1 2/1/1 3/1/1 4/1/1 
f 5/1/1 6/1/1 7/1/1 8/1/1 
f 8/1/1 7/1/1 9/1/1 10/1/1 
f 11/1/1 5/1/1 8/1/1 12/1/1 
f 13/1/1 12/1/1 8/1/1 14/1/1 
f 8/1/1 15/1/1 14/1/1 
f 14/1/1 16/1/1 13/1/1 
f 8/2/2 17/2/2 18/3/2 15/3/2 
f 19/4/3 20/4/3 21/5/3 22/4/3 
f 14/4/3 22/4/3 21/5/3 1/5/3 
f 23/6/4 24/7/4 9/7/4 7/6/4 
f 10/8/5 25/8/5 17/9/5 8/9/5 
f 10/8/6 9/7/6 24/7/6 25/8/6 
f 26/8/6 25/8/6 24/7/6 27/8/6 
f 13/10/7 28/10/7 29/11/7 12/11/7 
f 12/12/8 29/12/8 30/13/8 11/13/8 
f 16/14/9 31/14/9 28/10/9 13/10/9 
f 6/15/10 5/16/10 32/16/10 33/15/10 
f 5/16/11 11/13/11 30/13/11 34/13/11 
f 5/16/11 34/13/11 35/13/11 32/16/11 
f 14/1/12 1/1/12 4/1/12 16/1/12 
f 15/3/13 18/3/13 22/4/13 14/4/13 
f 4/17/14 36/17/14 37/14/14 38/14/14 
f 4/17/14 38/14/14 31/14/14 16/14/14 
f 39/2/2 40/3/2 41/3/2 42/2/2 
f 27/8/5 39/9/5 42/9/5 26/8/5 
f 43/10/15 44/11/15 45/11/15 46/10/15 
f 44/12/16 35/13/16 34/13/16 45/12/16 
f 37/14/17 43/10/17 46/10/17 38/14/17 
f 40/3/18 20/4/18 19/4/18 41/3/18 
f 34/18/19 30/18/19 25/19/19 26/19/19 
f 31/20/20 38/20/20 19/21/20 22/21/20 
f 17/22/21 25/22/21 30/22/21 29/22/21 
f 22/22/21 17/22/21 29/22/21 28/22/21 
f 28/22/21 31/22/21 22/22/21 
f 17/22/21 22/22/21 18/22/21 
f 41/23/22 19/23/22 38/23/22 46/23/22 
f 26/23/22 41/23/22 46/23/22 45/23/22 
f 45/23/22 34/23/22 26/23/22 
f 41/23/22 26/23/22 42/23/22 
f 47/24/23 48/24/23 49/24/23 50/24/23 
f 51/25/24 52/25/24 53/25/24 54/25/24 
f 53/1/1 52/1/1 49/1/1 48/1/1 
f 51/26/25 50/26/25 49/26/25 52/26/25 
f 55/25/24 56/25/24 57/25/24 58/25/24 
f 59/24/26 60/24/26 61/24/26 62/24/26 
f 62/27/25 58/27/25 57/27/25 59/27/25 
f 61/28/1 55/28/1 58/28/1 62/28/1 
f 60/29/27 56/29/27 55/29/27 61/29/27 
f 7/6/26 63/6/26 64/6/26 23/6/26 
f 6/1/1 65/1/1 63/1/1 7/1/1 
f 66/30/25 67/30/25 68/30/25 69/30/25 
f 70/1/1 66/1/1 69/1/1 71/1/1 
f 68/31/23 72/31/23 71/31/23 69/31/23 
f 53/32/27 48/32/27 47/32/27 54/32/27 
s 1
f 73/1/1 74/1/1 75/1/1 76/1/1 
s off
f 76/33/28 77/33/28 54/25/28 73/25/28 
f 78/34/29 79/34/29 80/35/29 81/35/29 
f 82/36/30 81/35/30 80/35/30 83/36/30 
f 84/37/31 85/30/31 86/30/31 87/37/31 
f 85/38/32 82/39/32 83/39/32 86/38/32 
f 88/26/27 89/26/27 90/26/27 91/26/27 
f 91/24/23 90/24/23 92/24/23 93/24/23 
f 93/29/25 92/29/25 94/29/25 95/29/25 
f 95/25/24 94/25/24 89/25/24 88/25/24 
f 90/1/1 89/1/1 94/1/1 92/1/1 
f 96/40/33 97/40/33 98/41/33 99/41/33 
f 100/42/34 101/42/34 97/40/34 96/40/34 
f 99/41/34 98/41/34 102/43/34 103/43/34 
f 96/44/35 99/45/35 104/46/35 105/47/35 
f 98/48/36 97/49/36 106/50/36 107/51/36 
f 100/52/35 96/44/35 105/47/35 108/44/35 
f 101/53/27 100/53/27 108/54/27 109/54/27 
f 97/49/36 101/55/36 109/49/36 106/50/36 
f 103/56/25 102/56/25 110/57/25 111/57/25 
f 99/45/35 103/46/35 111/58/35 104/46/35 
f 102/51/36 98/48/36 107/51/36 110/59/36 
f 112/60/37 113/61/37 114/61/37 115/60/37 
f 116/62/24 117/62/24 113/62/24 112/62/24 
f 118/60/38 119/63/38 117/63/38 116/60/38 
f 115/64/23 114/64/23 119/64/23 118/64/23 
f 119/65/25 114/65/25 113/65/25 117/65/25 
f 116/60/1 112/60/1 115/60/1 118/60/1 
f 120/66/33 121/67/33 122/67/33 123/66/33 
f 124/62/24 125/62/24 121/62/24 120/62/24 
f 126/68/39 127/69/39 125/69/39 124/68/39 
f 123/64/23 122/64/23 127/64/23 126/64/23 
f 120/70/27 123/70/27 126/70/27 124/70/27 
f 127/71/25 122/71/25 121/71/25 125/71/25 
f 128/72/40 129/73/40 130/73/40 131/72/40 
f 132/62/24 133/62/24 129/62/24 128/62/24 
f 134/74/41 135/75/41 133/75/41 132/74/41 
f 131/64/23 130/64/23 135/64/23 134/64/23 
f 128/76/27 131/76/27 134/76/27 132/76/27 
f 135/77/25 130/77/25 129/77/25 133/77/25 
f 136/78/33 137/79/33 138/80/33 139/81/33 
f 136/78/33 139/81/33 140/82/33 
f 138/80/34 137/79/34 141/83/34 142/84/34 
f 143/85/42 144/86/42 145/87/42 146/88/42 
f 147/89/42 143/85/42 146/88/42 
f 148/48/43 149/90/43 147/89/43 146/88/43 
f 150/91/44 151/92/44 152/93/44 153/94/44 
f 154/95/44 153/94/44 152/93/44 155/96/44 
f 145/87/44 150/91/44 153/94/44 156/97/44 
f 156/97/44 153/94/44 157/98/44 158/99/44 
f 150/91/44 145/87/44 144/86/44 159/100/44 
f 150/91/44 159/100/44 160/101/44 161/102/44 
f 150/91/44 161/102/44 162/103/44 139/81/44 
f 140/82/44 139/81/44 162/103/44 
f 137/104/45 136/105/45 163/106/45 164/107/45 
f 139/108/23 138/109/23 165/110/23 166/111/23 
f 136/105/46 140/112/46 167/113/46 163/106/46 
f 142/114/25 141/115/25 168/116/25 169/117/25 
f 138/109/26 142/110/26 169/118/26 165/110/26 
f 141/107/45 137/104/45 164/107/45 168/119/45 
f 144/120/47 143/121/47 170/122/47 171/123/47 
f 143/121/48 147/124/48 172/125/48 170/122/48 
f 146/126/49 145/127/49 173/128/49 174/129/49 
f 148/130/27 146/126/27 174/129/27 175/131/27 
f 149/132/24 148/133/24 175/134/24 176/135/24 
f 147/124/48 149/136/48 176/124/48 172/125/48 
f 145/127/50 156/137/50 177/138/50 173/128/50 
f 140/112/51 162/139/51 178/140/51 167/113/51 
f 158/141/52 157/142/52 179/143/52 180/144/52 
f 153/145/53 154/146/53 181/147/53 182/148/53 
f 160/149/54 159/150/54 183/151/54 184/152/54 
f 162/139/55 161/153/55 185/154/56 178/140/55 
f 157/142/57 153/145/57 182/148/57 179/143/57 
f 152/155/58 151/156/58 186/157/58 187/158/58 
f 155/159/59 152/155/59 187/158/59 188/160/59 
f 151/156/60 150/161/60 189/162/60 186/157/60 
f 161/163/61 160/149/61 184/152/61 185/164/61 
f 159/150/62 144/120/62 171/123/62 183/151/62 
f 154/146/63 155/165/63 188/166/63 181/147/63 
f 156/137/64 158/141/64 180/144/64 177/138/64 
f 150/161/65 139/108/65 166/111/65 189/162/65 
f 6/15/24 33/15/24 190/15/24 65/15/24 
f 1/5/66 21/5/66 191/167/66 2/167/66 
f 36/17/67 4/17/67 3/168/67 192/168/67 
f 71/36/27 72/36/27 193/36/27 70/36/27 
s 1
f 78/1/1 81/1/1 82/1/1 84/1/1 
f 82/1/1 85/1/1 84/1/1 
f 78/1/1 84/1/1 194/1/1 
s off
f 84/37/68 87/37/68 195/169/68 194/169/68 
f 74/24/69 47/24/69 196/170/69 75/170/69 
# 134 polygons - 11 triangles

