# 3ds Max Wavefront OBJ Exporter v0.97b - (c)2007 guruware
# File Created: 24.01.2018 18:05:56

mtllib B3S_T_tujian_005_zhuzi_lan.mtl

#
# object B3S_T_tujian_005_zhuzi_lan
#

v  -463.4297 125.2318 -355.9998
v  -463.4297 200.8289 -355.9998
v  -463.4297 200.8289 -338.9904
v  -463.4297 125.2318 -338.9904
v  -480.4391 200.8289 -338.9904
v  -480.4391 125.2318 -338.9904
v  -480.4391 200.8289 -355.9998
v  -480.4391 125.2318 -355.9998
v  -287.6664 125.2318 -355.9998
v  -287.6664 200.8289 -355.9998
v  -287.6664 200.8289 -338.9904
v  -287.6664 125.2318 -338.9904
v  -304.6758 200.8289 -338.9904
v  -304.6758 125.2318 -338.9904
v  -304.6758 200.8289 -355.9998
v  -304.6758 125.2318 -355.9998
v  -463.4297 125.2318 -467.5056
v  -463.4297 200.8289 -467.5056
v  -463.4297 200.8289 -450.4962
v  -463.4297 125.2318 -450.4962
v  -480.4391 200.8289 -450.4962
v  -480.4391 125.2318 -450.4962
v  -480.4391 200.8289 -467.5056
v  -480.4391 125.2318 -467.5056
v  -287.6664 125.2318 -467.5056
v  -287.6664 200.8289 -467.5056
v  -287.6664 200.8289 -450.4962
v  -287.6664 125.2318 -450.4962
v  -292.3913 200.8289 -450.4962
v  -304.6758 125.2318 -450.4962
v  -304.6758 200.8289 -450.4962
v  -304.6758 200.8289 -467.5056
v  -304.6758 125.2318 -467.5056
v  338.8450 125.2318 -650.8286
v  338.8450 200.8289 -650.8286
v  338.8450 200.8289 -633.8193
v  338.8450 125.2318 -633.8193
v  321.8356 200.8289 -633.8193
v  321.8356 125.2318 -633.8193
v  321.8356 200.8289 -650.8286
v  321.8356 125.2318 -650.8286
v  -287.6664 125.2318 -650.8286
v  -287.6664 200.8289 -650.8286
v  -287.6664 200.8289 -633.8193
v  -287.6664 125.2318 -633.8193
v  -304.6758 200.8289 -633.8193
v  -304.6758 125.2318 -633.8193
v  -304.6758 200.8289 -650.8286
v  -304.6758 125.2318 -650.8286
v  -463.4297 125.2318 -650.8286
v  -463.4297 200.8289 -650.8286
v  -463.4297 200.8289 -633.8193
v  -463.4297 125.2318 -633.8193
v  -480.4391 200.8289 -633.8193
v  -480.4391 125.2318 -633.8193
v  -480.4391 200.8289 -650.8286
v  -480.4391 125.2318 -650.8286
v  -752.8621 125.2318 465.2284
v  -752.8621 200.8289 465.2284
v  -743.8126 200.8289 490.0917
v  -743.8126 125.2318 490.0917
v  -768.6759 200.8289 499.1412
v  -768.6759 125.2318 499.1412
v  -777.7254 200.8289 474.2779
v  -777.7254 125.2318 474.2779
v  -732.8994 125.2318 327.2095
v  -732.8994 200.8289 327.2095
v  -732.8994 200.8289 336.6597
v  -732.8994 125.2318 353.6686
v  -732.8994 200.8289 353.6686
v  -759.3584 200.8289 353.6686
v  -759.3584 125.2318 353.6686
v  -759.3584 200.8289 327.2095
v  -759.3584 125.2318 327.2095
# 74 vertices

vn 1.0000 0.0000 -0.0000
vn 0.0000 0.0000 1.0000
vn -1.0000 0.0000 -0.0000
vn 0.0000 0.0000 -1.0000
vn 0.0000 1.0000 -0.0000
vn 0.9397 0.0000 -0.3420
vn 0.3420 0.0000 0.9397
vn -0.9397 0.0000 0.3420
vn -0.3420 0.0000 -0.9397
# 9 vertex normals

vt 0.1401 0.0081 0.3046
vt 0.1401 0.3363 0.3046
vt 0.1048 0.3363 0.3046
vt 0.1048 0.0081 0.3046
vt 0.8380 0.0081 0.6953
vt 0.8380 0.3363 0.6953
vt 0.7931 0.3363 0.6953
vt 0.7931 0.0081 0.6953
vt 0.8386 0.0081 0.2955
vt 0.8386 0.3363 0.2955
vt 0.8033 0.3363 0.2955
vt 0.8033 0.0081 0.2955
vt 0.1503 0.0081 0.7025
vt 0.1503 0.3363 0.7025
vt 0.1054 0.3363 0.7025
vt 0.1054 0.0081 0.7025
vt 0.4333 0.1699 1.0000
vt 0.1401 0.0081 0.3990
vt 0.1401 0.3363 0.3990
vt 0.1048 0.3363 0.3990
vt 0.1048 0.0081 0.3990
vt 0.4651 0.0081 0.6953
vt 0.4651 0.3363 0.6953
vt 0.4202 0.3363 0.6953
vt 0.4202 0.0081 0.6953
vt 0.8386 0.0081 0.3899
vt 0.8386 0.3363 0.3899
vt 0.8033 0.3363 0.3899
vt 0.8033 0.0081 0.3899
vt 0.3451 0.0081 0.7025
vt 0.3451 0.3363 0.7025
vt 0.3002 0.3363 0.7025
vt 0.3002 0.0081 0.7025
vt 0.3717 0.0081 0.3046
vt 0.3717 0.3363 0.3046
vt 0.3364 0.3363 0.3046
vt 0.3364 0.0081 0.3046
vt 0.8380 0.0081 0.7424
vt 0.8380 0.3363 0.7424
vt 0.7931 0.3363 0.7424
vt 0.7931 0.0081 0.7424
vt 0.6070 0.0081 0.2955
vt 0.6070 0.3363 0.2955
vt 0.5717 0.3363 0.2955
vt 0.5717 0.0081 0.2955
vt 0.1503 0.0081 0.7496
vt 0.1503 0.3363 0.7496
vt 0.1054 0.3363 0.7496
vt 0.1054 0.0081 0.7496
vt 0.3717 0.0081 0.3990
vt 0.3717 0.3363 0.3990
vt 0.3364 0.3363 0.3990
vt 0.3364 0.0081 0.3990
vt 0.4651 0.0081 0.7424
vt 0.4651 0.3363 0.7424
vt 0.4526 0.3363 0.7424
vt 0.4202 0.0081 0.7424
vt 0.4202 0.3363 0.7424
vt 0.6070 0.0081 0.3899
vt 0.6070 0.3363 0.3899
vt 0.5717 0.3363 0.3899
vt 0.5717 0.0081 0.3899
vt 0.3451 0.0081 0.7496
vt 0.3451 0.3363 0.7496
vt 0.3002 0.3363 0.7496
vt 0.3002 0.0081 0.7496
vt 0.7525 0.0081 0.7356
vt 0.7525 0.3363 0.7356
vt 0.7171 0.3363 0.7356
vt 0.7171 0.0081 0.7356
vt 0.3028 0.0081 0.8199
vt 0.3028 0.3363 0.8199
vt 0.2579 0.3363 0.8199
vt 0.2579 0.0081 0.8199
vt 0.2263 0.0081 0.7264
vt 0.2263 0.3363 0.7264
vt 0.1910 0.3363 0.7264
vt 0.1910 0.0081 0.7264
vt 0.6855 0.0081 0.8271
vt 0.6855 0.3363 0.8271
vt 0.6406 0.3363 0.8271
vt 0.6406 0.0081 0.8271
vt 0.7525 0.0081 0.3990
vt 0.7525 0.3363 0.3990
vt 0.7171 0.3363 0.3990
vt 0.7171 0.0081 0.3990
vt 0.4651 0.0081 0.8199
vt 0.4651 0.3363 0.8199
vt 0.4202 0.3363 0.8199
vt 0.4202 0.0081 0.8199
vt 0.2263 0.0081 0.3899
vt 0.2263 0.3363 0.3899
vt 0.1910 0.3363 0.3899
vt 0.1910 0.0081 0.3899
vt 0.3451 0.0081 0.8271
vt 0.3451 0.3363 0.8271
vt 0.3002 0.3363 0.8271
vt 0.3002 0.0081 0.8271
vt 0.7525 0.0081 0.3046
vt 0.7525 0.3363 0.3046
vt 0.7171 0.3363 0.3046
vt 0.7171 0.0081 0.3046
vt 0.8380 0.0081 0.8199
vt 0.8380 0.3363 0.8199
vt 0.7931 0.3363 0.8199
vt 0.7931 0.0081 0.8199
vt 0.2263 0.0081 0.2955
vt 0.2263 0.3363 0.2955
vt 0.1910 0.3363 0.2955
vt 0.1910 0.0081 0.2955
vt 0.1503 0.0081 0.8271
vt 0.1503 0.3363 0.8271
vt 0.1054 0.3363 0.8271
vt 0.1054 0.0081 0.8271
vt 0.2508 0.0081 0.1491
vt 0.2508 0.3363 0.1491
vt 0.1992 0.3363 0.1540
vt 0.1992 0.0081 0.1540
vt 0.7567 0.0081 0.3449
vt 0.7567 0.3363 0.3449
vt 0.6910 0.3363 0.3411
vt 0.6910 0.0081 0.3411
vt 0.5850 0.0081 0.1406
vt 0.5850 0.3363 0.1406
vt 0.5333 0.3363 0.1357
vt 0.5333 0.0081 0.1357
vt 0.4009 0.0081 0.3516
vt 0.4009 0.3363 0.3516
vt 0.3353 0.3363 0.3554
vt 0.3353 0.0081 0.3554
vt 0.5375 0.0081 0.1598
vt 0.5375 0.3363 0.1598
vt 0.5179 0.3363 0.1598
vt 0.4825 0.0081 0.1598
vt 0.4825 0.3363 0.1598
vt 0.1266 0.0081 0.4026
vt 0.1266 0.3363 0.4026
vt 0.0567 0.3363 0.4026
vt 0.0567 0.0081 0.4026
vt 0.2828 0.0081 0.1456
vt 0.2828 0.3363 0.1456
vt 0.2279 0.3363 0.1456
vt 0.2279 0.0081 0.1456
vt 0.8867 0.0081 0.4137
vt 0.8867 0.3363 0.4137
vt 0.8168 0.3363 0.4137
vt 0.8168 0.0081 0.4137
# 147 texture coords

g B3S_T_tujian_005_zhuzi_lan
usemtl T_tujian_005
s off
f 1/1/1 2/2/1 3/3/1 4/4/1 
f 4/5/2 3/6/2 5/7/2 6/8/2 
f 6/9/3 5/10/3 7/11/3 8/12/3 
f 8/13/4 7/14/4 2/15/4 1/16/4 
f 3/17/5 2/17/5 7/17/5 5/17/5 
f 9/18/1 10/19/1 11/20/1 12/21/1 
f 12/22/2 11/23/2 13/24/2 14/25/2 
f 14/26/3 13/27/3 15/28/3 16/29/3 
f 16/30/4 15/31/4 10/32/4 9/33/4 
f 11/17/5 10/17/5 15/17/5 13/17/5 
f 17/34/1 18/35/1 19/36/1 20/37/1 
f 20/38/2 19/39/2 21/40/2 22/41/2 
f 22/42/3 21/43/3 23/44/3 24/45/3 
f 24/46/4 23/47/4 18/48/4 17/49/4 
f 19/17/5 18/17/5 23/17/5 21/17/5 
f 25/50/1 26/51/1 27/52/1 28/53/1 
f 28/54/2 27/55/2 29/56/2 30/57/2 
f 30/57/2 29/56/2 31/58/2 
f 30/59/3 31/60/3 32/61/3 33/62/3 
f 33/63/4 32/64/4 26/65/4 25/66/4 
f 29/17/5 27/17/5 26/17/5 32/17/5 
f 29/17/5 32/17/5 31/17/5 
f 34/67/1 35/68/1 36/69/1 37/70/1 
f 37/71/2 36/72/2 38/73/2 39/74/2 
f 39/75/3 38/76/3 40/77/3 41/78/3 
f 41/79/4 40/80/4 35/81/4 34/82/4 
f 36/17/5 35/17/5 40/17/5 38/17/5 
f 42/83/1 43/84/1 44/85/1 45/86/1 
f 45/87/2 44/88/2 46/89/2 47/90/2 
f 47/91/3 46/92/3 48/93/3 49/94/3 
f 49/95/4 48/96/4 43/97/4 42/98/4 
f 44/17/5 43/17/5 48/17/5 46/17/5 
f 50/99/1 51/100/1 52/101/1 53/102/1 
f 53/103/2 52/104/2 54/105/2 55/106/2 
f 55/107/3 54/108/3 56/109/3 57/110/3 
f 57/111/4 56/112/4 51/113/4 50/114/4 
f 52/17/5 51/17/5 56/17/5 54/17/5 
f 58/115/6 59/116/6 60/117/6 61/118/6 
f 61/119/7 60/120/7 62/121/7 63/122/7 
f 63/123/8 62/124/8 64/125/8 65/126/8 
f 65/127/9 64/128/9 59/129/9 58/130/9 
f 60/17/5 59/17/5 64/17/5 62/17/5 
f 66/131/1 67/132/1 68/133/1 69/134/1 
f 69/134/1 68/133/1 70/135/1 
f 69/136/2 70/137/2 71/138/2 72/139/2 
f 72/140/3 71/141/3 73/142/3 74/143/3 
f 74/144/4 73/145/4 67/146/4 66/147/4 
f 68/17/5 67/17/5 73/17/5 71/17/5 
f 71/17/5 70/17/5 68/17/5 
# 45 polygons - 4 triangles

