# 3ds Max Wavefront OBJ Exporter v0.97b - (c)2007 guruware
# File Created: 24.01.2018 18:27:16

mtllib B3S_T_tujian_005_zhuzi_lv_xfjf2.mtl

#
# object B3S_T_tujian_005_zhuzi_lv_xfjf1
#

v  337.9000 125.2318 888.4856
v  337.9000 200.8289 888.4856
v  337.9000 200.8289 903.6050
v  337.9000 125.2318 903.6050
v  334.1201 200.8289 903.6050
v  322.7806 125.2318 903.6050
v  322.7806 200.8289 903.6050
v  322.7806 200.8289 888.4856
v  322.7806 125.2318 888.4856
v  496.6541 125.2318 888.4856
v  496.6541 200.8289 888.4856
v  496.6541 200.8289 903.6050
v  496.6541 125.2318 903.6050
v  481.5347 200.8289 903.6050
v  481.5347 125.2318 903.6050
v  481.5347 200.8289 888.4856
v  481.5347 125.2318 888.4856
# 17 vertices

vn 1.0000 0.0000 -0.0000
vn 0.0000 0.0000 1.0000
vn -1.0000 0.0000 -0.0000
vn 0.0000 0.0000 -1.0000
vn 0.0000 1.0000 -0.0000
# 5 vertex normals

vt 0.2087 0.0081 0.7351
vt 0.2087 0.3363 0.7351
vt 0.1773 0.3363 0.7351
vt 0.1773 0.0081 0.7351
vt 0.3003 0.0081 0.1701
vt 0.3003 0.3363 0.1701
vt 0.2904 0.3363 0.1701
vt 0.2604 0.0081 0.1701
vt 0.2604 0.3363 0.1701
vt 0.7661 0.0081 0.7270
vt 0.7661 0.3363 0.7270
vt 0.7347 0.3363 0.7270
vt 0.7347 0.0081 0.7270
vt 0.6830 0.0081 0.1765
vt 0.6830 0.3363 0.1765
vt 0.6431 0.3363 0.1765
vt 0.6431 0.0081 0.1765
vt 0.4333 0.1699 1.0000
vt 0.2087 0.0081 0.8204
vt 0.2087 0.3363 0.8204
vt 0.1773 0.3363 0.8204
vt 0.1773 0.0081 0.8204
vt 0.7195 0.0081 0.1701
vt 0.7195 0.3363 0.1701
vt 0.6796 0.3363 0.1701
vt 0.6796 0.0081 0.1701
vt 0.7661 0.0081 0.8122
vt 0.7661 0.3363 0.8122
vt 0.7347 0.3363 0.8122
vt 0.7347 0.0081 0.8122
vt 0.2639 0.0081 0.1765
vt 0.2639 0.3363 0.1765
vt 0.2239 0.3363 0.1765
vt 0.2239 0.0081 0.1765
# 34 texture coords

g B3S_T_tujian_005_zhuzi_lv_xfjf1
usemtl T_tujian_005
s off
f 1/1/1 2/2/1 3/3/1 4/4/1 
f 4/5/2 3/6/2 5/7/2 6/8/2 
f 6/8/2 5/7/2 7/9/2 
f 6/10/3 7/11/3 8/12/3 9/13/3 
f 9/14/4 8/15/4 2/16/4 1/17/4 
f 5/18/5 3/18/5 2/18/5 8/18/5 
f 5/18/5 8/18/5 7/18/5 
f 10/19/1 11/20/1 12/21/1 13/22/1 
f 13/23/2 12/24/2 14/25/2 15/26/2 
f 15/27/3 14/28/3 16/29/3 17/30/3 
f 17/31/4 16/32/4 11/33/4 10/34/4 
f 12/18/5 11/18/5 16/18/5 14/18/5 
# 10 polygons - 2 triangles

