# 3ds Max Wavefront OBJ Exporter v0.97b - (c)2007 guruware
# File Created: 11.01.2018 09:53:14

mtllib biao_xiangmangguo02.mtl

#
# object biao_xiangmangguo02
#

v  89.5475 33.9734 -47.5008
v  69.3163 33.9734 -45.0562
v  69.3163 26.2188 -45.0562
v  89.5475 26.2188 -47.5008
# 4 vertices

vn 0.1200 -0.0000 0.9928
# 1 vertex normals

vt 1.0000 1.0000 0.5000
vt 0.0000 1.0000 0.5000
vt -0.0000 0.0000 0.5000
vt 1.0000 0.0000 0.5000
# 4 texture coords

g biao_xiangmangguo02
usemtl Material__2097681297
s 1
f 1/1/1 2/2/1 3/3/1 4/4/1 
# 1 polygons

