# 3ds Max Wavefront OBJ Exporter v0.97b - (c)2007 guruware
# File Created: 17.01.2018 17:16:01

mtllib biao_mengzhongxin02.mtl

#
# object biao_mengzhongxin02
#

v  -50.5901 77.2454 -0.4769
v  -70.7458 77.2454 2.5268
v  -70.7458 69.5046 2.5268
v  -50.5901 69.5046 -0.4769
# 4 vertices

vn 0.1474 -0.0000 0.9891
# 1 vertex normals

vt 1.0000 1.0000 0.5000
vt 0.0000 1.0000 0.5000
vt -0.0000 0.0000 0.5000
vt 1.0000 0.0000 0.5000
# 4 texture coords

g biao_mengzhongxin02
usemtl Material__2097681298
s 1
f 1/1/1 2/2/1 3/3/1 4/4/1 
# 1 polygons

