# 3ds Max Wavefront OBJ Exporter v0.97b - (c)2007 guruware
# File Created: 11.01.2018 11:33:39

mtllib biao_xianchuanmei.mtl

#
# object biao_xianchuanmei
#

v  -3.3421 45.1981 -3.6979
v  -20.8885 45.1981 -0.9301
v  -20.8885 38.2551 -0.9301
v  -3.3421 38.2551 -3.6979
# 4 vertices

vn 0.1558 -0.0000 0.9878
# 1 vertex normals

vt 1.0000 1.0000 0.5000
vt 0.0000 1.0000 0.5000
vt 0.0000 0.0000 0.5000
vt 1.0000 0.0000 0.5000
# 4 texture coords

g biao_xianchuanmei
usemtl Material__2097681301
s 1
f 1/1/1 2/2/1 3/3/1 4/4/1 
# 1 polygons

