# 3ds Max Wavefront OBJ Exporter v0.97b - (c)2007 guruware
# File Created: 18.01.2018 13:20:47

mtllib dimian_T_dk_01_O.mtl

#
# object dimian_T_dk_01_O
#

v  71.1621 6.2275 19.3494
v  25.6478 6.2275 26.1577
v  41.3781 6.2275 70.3597
v  66.0209 6.2275 43.0616
v  44.4543 6.2275 68.3016
v  47.2288 6.2275 65.0545
v  71.6938 6.2275 34.6535
v  24.0977 6.2275 26.7342
v  22.6927 6.2275 27.7069
v  21.2871 6.2275 29.3795
v  20.5489 6.2275 30.9790
v  20.2461 6.2275 32.9056
v  25.1861 6.2275 66.9266
v  20.4784 6.2275 34.9694
v  26.3151 6.2275 69.1052
v  27.8725 6.2275 70.6237
v  30.8566 6.2275 71.9113
v  29.2741 6.2275 71.4806
v  32.9292 6.2275 72.0097
v  38.3395 6.2275 71.3106
v  38.4953 6.2275 71.2813
v  76.0479 6.2275 27.2547
v  76.6782 6.2275 25.5368
v  76.6522 6.2275 24.4901
v  76.4218 6.2275 23.2641
v  75.8436 6.2275 21.9981
v  74.0263 6.2275 20.1539
v  75.0891 6.2275 21.0012
v  72.8148 6.2275 19.6311
# 29 vertices

vn -0.0000 1.0000 -0.0000
vn -0.0000 1.0000 0.0000
vn 0.0000 1.0000 0.0000
vn 0.0000 1.0000 -0.0000
# 4 vertex normals

vt 0.6635 0.4397 0.3020
vt 0.5328 0.4202 0.3514
vt 0.5780 0.2935 0.3772
vt 0.6487 0.3717 0.3528
vt 0.5868 0.2994 0.3779
vt 0.5948 0.3087 0.3746
vt 0.6650 0.3958 0.3413
vt 0.5284 0.4185 0.3529
vt 0.5244 0.4158 0.3541
vt 0.5203 0.4110 0.3550
vt 0.5182 0.4064 0.3552
vt 0.5173 0.4008 0.3548
vt 0.5315 0.3033 0.3350
vt 0.5180 0.3949 0.3536
vt 0.5348 0.2971 0.3424
vt 0.5392 0.2927 0.3498
vt 0.5478 0.2890 0.3596
vt 0.5433 0.2903 0.3551
vt 0.5537 0.2887 0.3642
vt 0.5693 0.2908 0.3735
vt 0.5697 0.2908 0.3737
vt 0.6775 0.4170 0.3298
vt 0.6793 0.4220 0.3264
vt 0.6793 0.4250 0.3234
vt 0.6786 0.4285 0.3196
vt 0.6769 0.4321 0.3148
vt 0.6717 0.4374 0.3060
vt 0.6748 0.4350 0.3105
vt 0.6682 0.4389 0.3020
# 29 texture coords

g dimian_T_dk_01_O
usemtl T_dk_01
s 1
f 1/1/1 2/2/1 3/3/2 4/4/1 
f 3/3/2 5/5/1 6/6/3 4/4/1 
f 7/7/1 1/1/1 4/4/1 
f 8/8/1 9/9/4 10/10/1 3/3/2 
f 10/10/1 11/11/4 12/12/3 13/13/1 
f 12/12/3 14/14/4 13/13/1 
f 13/13/1 15/15/4 16/16/2 17/17/1 
f 16/16/2 18/18/2 17/17/1 
f 17/17/1 19/19/4 20/20/3 3/3/2 
f 20/20/3 21/21/3 3/3/2 
f 13/13/1 17/17/1 3/3/2 10/10/1 
f 2/2/1 8/8/1 3/3/2 
f 22/22/1 23/23/4 24/24/1 1/1/1 
f 24/24/1 25/25/4 26/26/4 27/27/4 
f 26/26/4 28/28/4 27/27/4 
f 27/27/4 29/29/4 1/1/1 24/24/1 
f 7/7/1 22/22/1 1/1/1 
# 10 polygons - 7 triangles

