# 3ds Max Wavefront OBJ Exporter v0.97b - (c)2007 guruware
# File Created: 18.01.2018 13:21:49

mtllib dimian_T_dk_01_F.mtl

#
# object dimian_T_dk_01_F
#

v  -91.6881 6.2275 32.2720
v  -90.7950 6.2275 34.5050
v  -89.9734 6.2275 35.7000
v  -87.8075 6.2275 37.4925
v  -88.9651 6.2275 36.7083
v  -86.4631 6.2275 38.0900
v  -85.0440 6.2275 38.4261
v  -89.9655 6.2275 -8.9975
v  -83.4009 6.2275 38.4261
v  -94.8243 6.2275 -6.1720
v  -91.1274 6.2275 -8.7071
v  -92.5797 6.2275 -8.0997
v  -93.7944 6.2275 -7.2811
v  -95.6693 6.2275 -4.9310
v  -96.2238 6.2275 -3.4786
v  -96.5671 6.2275 -1.7886
v  -96.6371 6.2275 -0.9360
v  -40.7911 6.2275 31.4801
v  -39.1853 6.2275 30.2477
v  -38.1397 6.2275 28.7540
v  -37.0494 6.2275 25.4180
v  -37.3928 6.2275 27.1108
v  -37.1144 6.2275 23.5504
v  -42.1469 6.2275 -9.2334
v  -44.5077 6.2275 -13.0069
v  -43.1054 6.2275 -11.3999
v  -45.9864 6.2275 -14.0228
v  -47.8246 6.2275 -14.7166
v  -49.6341 6.2275 -14.9477
v  -42.9250 6.2275 32.3398
# 30 vertices

vn 0.0000 1.0000 0.0000
vn -0.0000 1.0000 0.0000
vn 0.0000 1.0000 -0.0000
vn -0.0000 1.0000 -0.0000
# 4 vertex normals

vt 0.1960 0.4027 0.3506
vt 0.1986 0.3963 0.3432
vt 0.2009 0.3928 0.3406
vt 0.2071 0.3877 0.3379
vt 0.2038 0.3899 0.3389
vt 0.2110 0.3860 0.3377
vt 0.2151 0.3850 0.3382
vt 0.2009 0.5210 0.4625
vt 0.2198 0.3850 0.3398
vt 0.1870 0.5129 0.4499
vt 0.1976 0.5201 0.4605
vt 0.1934 0.5184 0.4574
vt 0.1900 0.5161 0.4539
vt 0.1846 0.5093 0.4456
vt 0.1830 0.5052 0.4415
vt 0.1820 0.5003 0.4388
vt 0.1818 0.4979 0.4371
vt 0.3421 0.4049 0.4016
vt 0.3467 0.4085 0.4066
vt 0.3497 0.4127 0.4117
vt 0.3529 0.4223 0.4219
vt 0.3519 0.4175 0.4169
vt 0.3527 0.4277 0.4269
vt 0.3382 0.5216 0.4491
vt 0.3314 0.5325 0.4533
vt 0.3355 0.5279 0.4506
vt 0.3272 0.5354 0.4563
vt 0.3219 0.5374 0.4601
vt 0.3167 0.5380 0.4641
vt 0.3360 0.4025 0.3971
# 30 texture coords

g dimian_T_dk_01_F
usemtl T_dk_01
s 1
f 1/1/1 2/2/2 3/3/2 4/4/2 
f 3/3/2 5/5/3 4/4/2 
f 4/4/2 6/6/3 7/7/2 8/8/1 
f 7/7/2 9/9/2 8/8/1 
f 1/1/1 4/4/2 8/8/1 10/10/1 
f 8/8/1 11/11/3 12/12/3 10/10/1 
f 12/12/3 13/13/3 10/10/1 
f 10/10/1 14/14/3 15/15/1 1/1/1 
f 1/1/1 15/15/1 16/16/3 17/17/3 
f 18/18/4 19/19/4 20/20/4 21/21/2 
f 20/20/4 22/22/3 21/21/2 
f 21/21/2 23/23/3 24/24/2 25/25/3 
f 24/24/2 26/26/3 25/25/3 
f 25/25/3 27/27/3 28/28/3 21/21/2 
f 18/18/4 21/21/2 28/28/3 29/29/2 
f 30/30/1 18/18/4 29/29/2 
f 30/30/1 29/29/2 8/8/1 9/9/2 
# 11 polygons - 6 triangles

