# 3ds Max Wavefront OBJ Exporter v0.97b - (c)2007 guruware
# File Created: 26.06.2018 21:19:26

mtllib dimian_T_yz_05.mtl

#
# object dimian_T_yz_05
#

v  188.2291 6.2275 -60.2877
v  184.7558 6.2275 -59.7194
v  183.6431 6.2275 -36.3955
v  183.0271 6.2275 -31.3656
v  188.2286 6.2275 172.4373
v  180.5675 6.2275 -18.5867
v  156.5206 6.2275 35.9553
v  152.9390 6.2275 48.4768
v  147.1943 6.2275 56.4722
v  126.5516 6.2275 76.7731
v  97.0262 6.2275 115.3546
v  69.7705 6.2275 155.8488
v  54.6622 6.2275 172.4369
v  116.0301 6.2275 87.1203
v  116.0514 6.2275 87.0993
v  186.3263 6.2275 -92.6393
v  188.2294 6.2275 -175.9634
v  172.5936 6.2275 -175.9633
v  -159.9119 6.2275 172.4363
v  -111.2101 6.2275 -27.3551
v  -114.2204 6.2275 -40.0440
v  -12.2333 6.2275 -160.8391
v  -10.1670 6.2275 -160.7620
v  -7.8218 6.2275 -161.4991
v  -14.2419 6.2275 -161.4060
v  18.6319 6.2275 -175.9629
v  -159.9130 6.2275 -175.9625
v  -15.9114 6.2275 -162.4549
v  -123.8360 6.2275 -105.8594
v  -80.7986 6.2275 172.4365
v  -91.0077 6.2275 101.6391
v  -95.1495 6.2275 83.4017
# 32 vertices

vn 0.0000 1.0000 -0.0000
vn -0.0000 1.0000 0.0000
vn 0.0000 1.0000 0.0000
vn -0.0000 1.0000 -0.0000
# 4 vertex normals

vt 0.9996 0.6680 0.3206
vt 0.9896 0.6664 0.3149
vt 0.9864 0.5995 0.3772
vt 0.9846 0.5851 0.3899
vt 0.9996 0.0009 0.9655
vt 0.9776 0.5485 0.4202
vt 0.9085 0.3921 0.5213
vt 0.8983 0.3562 0.5486
vt 0.8818 0.3333 0.5588
vt 0.8225 0.2751 0.5721
vt 0.7378 0.1645 0.6176
vt 0.6595 0.0484 0.6732
vt 0.6161 0.0009 0.6877
vt 0.7923 0.2454 0.5789
vt 0.7924 0.2455 0.5789
vt 0.9941 0.7607 0.2295
vt 0.9996 0.9996 0.0000
vt 0.9547 0.9996 0.0449
vt 0.0002 0.0009 0.2414
vt 0.1400 0.5736 0.5365
vt 0.1313 0.6100 0.5728
vt 0.4241 0.9563 0.5429
vt 0.4300 0.9560 0.5368
vt 0.4368 0.9581 0.5316
vt 0.4183 0.9579 0.5499
vt 0.5127 0.9996 0.4871
vt 0.0001 0.9996 1.0000
vt 0.4135 0.9609 0.5570
vt 0.1037 0.7986 0.7437
vt 0.2273 0.0009 0.4059
vt 0.1980 0.2038 0.2251
vt 0.1861 0.2561 0.2751
# 32 texture coords

g dimian_T_yz_05
usemtl T_yz_05
s 1
f 1/1/1 2/2/1 3/3/1 4/4/1 
f 5/5/1 1/1/1 4/4/1 6/6/1 
f 6/6/1 7/7/1 8/8/1 5/5/1 
f 5/5/1 8/8/1 9/9/1 10/10/1 
f 5/5/1 11/11/2 12/12/1 13/13/1 
f 14/14/1 11/11/2 5/5/1 15/15/1 
f 15/15/1 5/5/1 10/10/1 
f 16/16/1 17/17/1 18/18/1 
f 16/16/1 2/2/1 1/1/1 17/17/1 
f 19/19/1 20/20/3 21/21/3 
f 22/22/3 23/23/3 24/24/3 25/25/1 
f 26/26/3 27/27/3 28/28/1 24/24/3 
f 24/24/3 28/28/1 25/25/1 
f 27/27/3 29/29/3 28/28/1 
f 19/19/1 30/30/1 31/31/4 
f 19/19/1 31/31/4 32/32/4 
f 19/19/1 32/32/4 20/20/3 
f 29/29/3 27/27/3 19/19/1 21/21/3 
# 10 polygons - 8 triangles

