# 3ds Max Wavefront OBJ Exporter v0.97b - (c)2007 guruware
# File Created: 18.01.2018 13:30:52

mtllib dimian_T_yz_04_2.mtl

#
# object dimian_T_yz_04_2
#

v  -31.9737 6.2275 30.7584
v  -96.0339 6.2275 40.5172
v  -88.0590 6.2275 92.8669
v  -87.4329 6.2275 96.9767
v  -30.4770 6.2275 40.5833
v  -30.1701 6.2275 42.5982
v  -83.9831 6.2275 96.4511
v  -23.3728 6.2275 87.2179
# 8 vertices

vn 0.0000 1.0000 0.0000
vn -0.0000 1.0000 -0.0000
# 2 vertex normals

vt 0.3674 0.4070 0.1824
vt 0.1835 0.3790 0.3451
vt 0.2064 0.2290 0.2082
vt 0.2082 0.2172 0.1975
vt 0.3717 0.3788 0.1567
vt 0.3726 0.3731 0.1514
vt 0.2181 0.2187 0.1887
vt 0.3921 0.2452 0.2892
# 8 texture coords

g dimian_T_yz_04_2
usemtl T_yz_05
s 1
f 1/1/1 2/2/1 3/3/1 4/4/1 
f 5/5/1 1/1/1 4/4/1 6/6/1 
f 6/6/1 4/4/1 7/7/1 8/8/2 
# 3 polygons

