# 3ds Max Wavefront OBJ Exporter v0.97b - (c)2007 guruware
# File Created: 29.01.2018 23:00:04

mtllib dimian_T_yz_04_10.mtl

#
# object dimian_T_yz_04_10
#

v  1.4135 6.2275 -22.3762
v  -0.0124 6.2275 -22.4026
v  7.2649 6.2275 24.8950
v  10.7089 6.2275 22.8063
v  9.2524 6.2275 23.9266
v  11.7919 6.2275 21.4619
v  12.6508 6.2275 19.8935
v  13.2483 6.2275 16.1217
v  13.1755 6.2275 17.9420
v  5.9290 6.2275 -20.4485
v  8.3056 6.2275 -16.5932
v  7.8039 6.2275 -18.0192
v  6.9589 6.2275 -19.3395
v  4.5295 6.2275 -21.3992
v  2.9715 6.2275 -22.0593
v  -31.5060 6.2275 -17.6630
v  -25.1581 6.2275 29.7356
v  -33.6615 6.2275 -17.0283
v  -35.6896 6.2275 -15.6513
v  -36.9594 6.2275 -14.0082
v  -37.9303 6.2275 -11.8422
v  -38.1125 6.2275 -9.6060
v  -32.9534 6.2275 24.4030
v  -33.4542 6.2275 22.2155
v  -32.1612 6.2275 25.9609
v  -31.0786 6.2275 27.4133
v  -28.0418 6.2275 29.3145
v  -29.6262 6.2275 28.6016
v  -26.6687 6.2275 29.6314
# 29 vertices

vn -0.0000 1.0000 0.0000
vn 0.0000 1.0000 0.0000
vn 0.0000 1.0000 -0.0000
# 3 vertex normals

vt 0.4633 0.5593 0.3993
vt 0.4592 0.5594 0.4010
vt 0.4801 0.4238 0.3730
vt 0.4900 0.4298 0.3699
vt 0.4858 0.4266 0.3711
vt 0.4931 0.4337 0.3692
vt 0.4955 0.4381 0.3689
vt 0.4972 0.4490 0.3698
vt 0.4970 0.4437 0.3691
vt 0.4762 0.5538 0.3933
vt 0.4831 0.5427 0.3890
vt 0.4816 0.5468 0.3902
vt 0.4792 0.5506 0.3917
vt 0.4722 0.5565 0.3953
vt 0.4677 0.5584 0.3974
vt 0.3688 0.5458 0.4351
vt 0.3870 0.4099 0.4221
vt 0.3626 0.5440 0.4374
vt 0.3568 0.5400 0.4391
vt 0.3531 0.5353 0.4399
vt 0.3503 0.5291 0.4401
vt 0.3498 0.5227 0.4401
vt 0.3646 0.4252 0.4288
vt 0.3632 0.4315 0.4343
vt 0.3669 0.4208 0.4253
vt 0.3700 0.4166 0.4224
vt 0.3787 0.4111 0.4203
vt 0.3742 0.4132 0.4207
vt 0.3827 0.4102 0.4209
# 29 texture coords

g dimian_T_yz_04_10
usemtl T_yz_05
s 1
f 1/1/1 2/2/2 3/3/2 4/4/2 
f 3/3/2 5/5/3 4/4/2 
f 4/4/2 6/6/3 7/7/3 8/8/2 
f 7/7/3 9/9/3 8/8/2 
f 1/1/1 4/4/2 8/8/2 10/10/1 
f 8/8/2 11/11/1 12/12/1 10/10/1 
f 12/12/1 13/13/3 10/10/1 
f 1/1/1 10/10/1 14/14/3 15/15/3 
f 16/16/2 17/17/2 3/3/2 2/2/2 
f 18/18/2 19/19/3 20/20/2 17/17/2 
f 20/20/2 21/21/3 22/22/2 23/23/2 
f 22/22/2 24/24/3 23/23/2 
f 23/23/2 25/25/3 26/26/3 27/27/3 
f 26/26/3 28/28/3 27/27/3 
f 27/27/3 29/29/3 17/17/2 23/23/2 
f 20/20/2 23/23/2 17/17/2 
f 16/16/2 18/18/2 17/17/2 
# 10 polygons - 7 triangles

