# 3ds Max Wavefront OBJ Exporter v0.97b - (c)2007 guruware
# File Created: 26.06.2018 21:19:02

mtllib dimian_T_yz_04.mtl

#
# object dimian_T_yz_04
#

v  213.7483 6.2275 775.8054
v  405.9054 6.2275 694.6363
v  567.5453 6.2275 569.7146
v  -213.7484 6.2275 775.8055
v  188.2285 6.2275 172.4373
v  -159.9119 6.2275 172.4362
v  -568.7695 6.2275 568.7688
v  -405.9056 6.2275 694.6363
v  -0.0001 6.2275 804.5734
v  568.7691 6.2275 568.7688
v  804.5738 6.2275 -0.0003
v  188.2291 6.2275 -60.2877
v  694.6368 6.2275 405.9053
v  775.8058 6.2275 213.7480
v  213.7481 6.2275 -775.8065
v  151.1640 6.2275 -245.2807
v  172.5936 6.2275 -175.9633
v  188.2293 6.2275 -175.9633
v  575.8951 6.2275 -559.5490
v  405.9054 6.2275 -694.6371
v  -804.5739 6.2275 -0.0003
v  -775.8059 6.2275 213.7481
v  -694.6368 6.2275 405.9053
v  -159.9130 6.2275 -175.9624
v  -568.7695 6.2275 -568.7696
v  -694.6369 6.2275 -405.9058
v  -775.8059 6.2275 -213.7486
v  -0.0002 6.2275 -804.5744
v  -213.7485 6.2275 -775.8063
v  18.6319 6.2275 -175.9629
v  -405.9056 6.2275 -694.6371
v  775.8057 6.2275 -213.7486
v  694.6367 6.2275 -405.9059
# 33 vertices

vn 0.0000 1.0000 -0.0000
vn -0.0000 1.0000 0.0000
vn 0.0000 1.0000 0.0000
vn -0.0000 1.0000 -0.0000
# 4 vertex normals

vt 0.6222 0.0500 0.5000
vt 0.7352 0.0978 0.5000
vt 0.8303 0.1712 0.5000
vt 0.3707 0.0500 0.5000
vt 0.6072 0.4048 0.5000
vt 0.4024 0.4048 0.5000
vt 0.1619 0.1718 0.5000
vt 0.2577 0.0978 0.5000
vt 0.4965 0.0331 0.5000
vt 0.8310 0.1718 0.5000
vt 0.9697 0.5062 0.5000
vt 0.6072 0.5416 0.5000
vt 0.9050 0.2675 0.5000
vt 0.9527 0.3805 0.5000
vt 0.6222 0.9623 0.5000
vt 0.5854 0.6504 0.5000
vt 0.5980 0.6096 0.5000
vt 0.6072 0.6096 0.5000
vt 0.8352 0.8352 0.5000
vt 0.7352 0.9146 0.5000
vt 0.0233 0.5062 0.5000
vt 0.0402 0.3805 0.5000
vt 0.0879 0.2675 0.5000
vt 0.4024 0.6096 0.5000
vt 0.1619 0.8406 0.5000
vt 0.0879 0.7448 0.5000
vt 0.0402 0.6319 0.5000
vt 0.4965 0.9792 0.5000
vt 0.3707 0.9623 0.5000
vt 0.5074 0.6096 0.5000
vt 0.2577 0.9146 0.5000
vt 0.9527 0.6319 0.5000
vt 0.9050 0.7448 0.5000
# 33 texture coords

g dimian_T_yz_04
usemtl T_yz_04
s 1
f 1/1/1 2/2/1 3/3/1 4/4/1 
f 3/3/1 5/5/2 6/6/1 4/4/1 
f 7/7/1 8/8/1 4/4/1 6/6/1 
f 9/9/1 1/1/1 4/4/1 
f 5/5/2 3/3/1 10/10/3 
f 11/11/3 11/11/1 12/12/4 10/10/3 
f 12/12/4 5/5/2 10/10/3 
f 11/11/3 10/10/3 13/13/1 14/14/1 
f 15/15/1 16/16/1 17/17/1 18/18/4 
f 18/18/4 19/19/1 20/20/1 15/15/1 
f 21/21/1 22/22/1 23/23/1 24/24/1 
f 7/7/1 6/6/1 24/24/1 23/23/1 
f 24/24/1 25/25/1 26/26/1 21/21/1 
f 21/21/1 26/26/1 27/27/1 
f 28/28/1 29/29/1 30/30/1 16/16/1 
f 15/15/1 28/28/1 16/16/1 
f 31/31/1 25/25/1 24/24/1 30/30/1 
f 29/29/1 31/31/1 30/30/1 
f 32/32/1 33/33/1 19/19/1 18/18/4 
f 32/32/1 18/18/4 12/12/4 11/11/1 
# 14 polygons - 6 triangles

