# 3ds Max Wavefront OBJ Exporter v0.97b - (c)2007 guruware
# File Created: 18.01.2018 13:20:55

mtllib dimian_T_dk_01_N.mtl

#
# object dimian_T_dk_01_N
#

v  8.8047 6.2275 28.6680
v  -25.7366 6.2275 33.9125
v  -19.2119 6.2275 80.5939
v  16.2615 6.2275 75.4069
v  -27.3757 6.2275 34.5903
v  -28.9057 6.2275 35.6966
v  -29.9912 6.2275 37.2514
v  -30.4849 6.2275 39.1017
v  -30.5436 6.2275 41.1435
v  -24.6247 6.2275 77.7625
v  -25.3807 6.2275 76.1505
v  -23.6174 6.2275 78.9380
v  -22.3794 6.2275 79.8463
v  -20.8494 6.2275 80.3816
v  18.1556 6.2275 74.2481
v  19.3190 6.2275 72.9847
v  20.0151 6.2275 71.7813
v  20.7759 6.2275 68.7640
v  20.5816 6.2275 70.2114
v  20.8490 6.2275 67.3201
v  16.0350 6.2275 34.9263
v  14.4823 6.2275 31.3683
v  15.6229 6.2275 33.2689
v  13.0134 6.2275 30.0709
v  11.2208 6.2275 29.0577
# 25 vertices

vn -0.0000 1.0000 0.0000
vn 0.0000 1.0000 0.0000
vn -0.0000 1.0000 -0.0000
vn 0.0000 1.0000 -0.0000
# 4 vertex normals

vt 0.4845 0.4130 0.3697
vt 0.3853 0.3980 0.4101
vt 0.4041 0.2641 0.2795
vt 0.5059 0.2790 0.3391
vt 0.3806 0.3960 0.4066
vt 0.3762 0.3928 0.4020
vt 0.3731 0.3884 0.3967
vt 0.3717 0.3831 0.3912
vt 0.3715 0.3772 0.3856
vt 0.3885 0.2723 0.2917
vt 0.3864 0.2769 0.2953
vt 0.3914 0.2689 0.2895
vt 0.3950 0.2663 0.2853
vt 0.3994 0.2647 0.2830
vt 0.5113 0.2823 0.3400
vt 0.5147 0.2860 0.3392
vt 0.5167 0.2894 0.3389
vt 0.5189 0.2981 0.3393
vt 0.5183 0.2939 0.3389
vt 0.5191 0.3022 0.3398
vt 0.5052 0.3951 0.3588
vt 0.5008 0.4053 0.3620
vt 0.5041 0.3998 0.3599
vt 0.4966 0.4090 0.3642
vt 0.4914 0.4119 0.3667
# 25 texture coords

g dimian_T_dk_01_N
usemtl T_dk_01
s 1
f 1/1/1 2/2/2 3/3/1 4/4/1 
f 5/5/1 6/6/3 7/7/1 3/3/1 
f 7/7/1 8/8/4 9/9/2 10/10/2 
f 9/9/2 11/11/4 10/10/2 
f 10/10/2 12/12/4 13/13/4 3/3/1 
f 13/13/4 14/14/4 3/3/1 
f 7/7/1 10/10/2 3/3/1 
f 2/2/2 5/5/1 3/3/1 
f 15/15/1 16/16/4 17/17/4 18/18/2 
f 17/17/4 19/19/4 18/18/2 
f 18/18/2 20/20/4 21/21/4 22/22/1 
f 21/21/4 23/23/1 22/22/1 
f 22/22/1 24/24/4 25/25/1 18/18/2 
f 15/15/1 18/18/2 25/25/1 1/1/1 
f 4/4/1 15/15/1 1/1/1 
# 8 polygons - 7 triangles

