# 3ds Max Wavefront OBJ Exporter v0.97b - (c)2007 guruware
# File Created: 21.12.2017 19:40:41

mtllib dishangyanse_dl_pj_lanse_01.mtl

#
# object dishangyanse_dl_pj_lanse_01
#

v  -8.9220 -17.4124 -1.3416
v  -13.2741 -17.2297 -2.3916
v  -13.7207 -25.5544 -1.9868
v  -9.3691 -25.7369 -0.9336
v  -29.0249 -16.6798 -8.4235
v  -36.1170 -16.4451 -11.4050
v  -36.5630 -24.7697 -10.9965
v  -29.4733 -25.0040 -8.0102
v  -52.4760 -15.9735 -19.7080
v  -52.9184 -24.2982 -19.2974
v  -59.7698 -15.8546 -25.2732
v  -60.2168 -24.1791 -24.8652
v  -62.1682 -16.0218 -31.3129
v  -62.6152 -24.3463 -30.9049
v  -60.6695 -16.5459 -40.3638
v  -61.1165 -24.8704 -39.9558
v  -51.1391 -18.2716 -65.1311
v  -44.8857 -19.0556 -74.2753
v  -45.3330 -27.3801 -73.8670
v  -51.5863 -26.5961 -64.7227
v  -37.3414 -19.7486 -80.1476
v  -37.7852 -28.0734 -79.7414
v  -57.4268 -17.1575 -49.2901
v  -54.1840 -17.7692 -58.2167
v  -54.6294 -26.0940 -57.8125
v  -57.8731 -25.4822 -48.8840
v  -28.4976 -20.3946 -83.6378
v  -28.9447 -28.7191 -83.2298
v  -19.0006 -20.9470 -84.5035
v  -19.4477 -29.2716 -84.0955
v  23.6945 -22.2392 -64.0844
v  25.5880 -22.0351 -57.8472
v  25.1410 -30.3595 -57.4363
v  23.2475 -30.5637 -63.6765
v  24.0068 -21.5635 -49.9577
v  17.7763 -20.3833 -32.7039
v  17.3292 -28.7078 -32.2959
v  23.5597 -29.8881 -49.5497
v  19.0730 -22.2156 -68.6674
v  18.6260 -30.5401 -68.2593
v  11.5467 -19.3827 -19.1149
v  8.1727 -18.9005 -12.9728
v  7.7257 -27.2250 -12.5648
v  11.0996 -27.7072 -18.7069
v  15.4772 -20.0140 -27.6890
v  15.1503 -28.3579 -27.5430
v  7.0268 -18.7366 -10.8860
v  6.6848 -27.0762 -10.6693
v  0.6199 -18.0818 -4.5440
v  -4.3128 -17.7222 -2.6119
v  -4.7890 -26.0446 -2.1914
v  0.2026 -26.4085 -4.1467
v  1.4616 -18.1086 -4.1689
v  1.0224 -26.4327 -3.7430
v  2.7089 -18.1574 -3.7973
v  1.5529 -18.1047 -3.9888
v  1.1054 -26.4292 -3.5794
v  2.2716 -26.4827 -3.3947
v  -4.6698 -17.6615 -1.7637
v  -5.1103 -25.9855 -1.3372
v  -4.6128 -17.6550 -1.5701
v  -5.3242 -17.5713 -0.6413
v  -5.7820 -25.8951 -0.2306
v  -5.0585 -25.9796 -1.1614
v  -22.7226 -25.2321 -5.2673
v  -22.2754 -16.9078 -5.6805
v  -17.4550 -25.4079 -3.0889
v  -17.0801 -17.0818 -3.5449
v  4.3507 -26.7428 -6.4232
v  4.7978 -18.4182 -6.8313
v  -8.6143 -29.7362 -81.7042
v  -8.1671 -21.4116 -82.1122
v  3.1618 -26.5826 -4.4588
v  3.6096 -18.2582 -4.8680
v  -7.1362 -25.8300 -0.3859
v  -6.6905 -17.5054 -0.7943
# 76 vertices

vn -0.2337 0.0600 0.9705
vn -0.2586 0.0620 0.9640
vn -0.2563 0.0608 0.9647
vn -0.2339 0.0601 0.9704
vn -0.3795 0.0661 0.9228
vn -0.4177 0.0668 0.9061
vn -0.4178 0.0670 0.9060
vn -0.3796 0.0662 0.9228
vn -0.5294 0.0699 0.8455
vn -0.5293 0.0698 0.8456
vn -0.7952 0.0722 0.6021
vn -0.9928 0.0584 0.1043
vn -0.9660 0.0393 -0.2556
vn -0.9660 0.0394 -0.2556
vn -0.8731 0.0230 -0.4871
vn -0.7283 0.0055 -0.6853
vn -0.4966 -0.0159 -0.8678
vn -0.4965 -0.0159 -0.8679
vn -0.9386 0.0336 -0.3433
vn -0.9268 0.0314 -0.3742
vn -0.2333 -0.0351 -0.9718
vn 0.0605 -0.0521 -0.9968
vn 0.8549 -0.0711 -0.5138
vn 0.9974 -0.0558 -0.0460
vn 0.9974 -0.0558 -0.0458
vn 0.9618 -0.0384 0.2709
vn 0.9244 -0.0310 0.3802
vn 0.5786 -0.0709 -0.8125
vn 0.8923 -0.0258 0.4508
vn 0.8755 -0.0234 0.4827
vn 0.9079 -0.0283 0.4183
vn 0.8754 -0.0234 0.4828
vn -0.0199 0.0486 0.9986
vn 0.6985 -0.0017 0.7156
vn 0.7123 -0.0053 0.7019
vn -0.0394 0.0517 0.9979
vn -0.6878 0.0712 0.7224
vn -0.7012 0.0733 0.7092
vn 0.3474 0.0276 0.9373
vn -0.5893 0.0713 0.8048
vn -0.5867 0.0707 0.8067
vn 0.3522 0.0265 0.9355
vn 0.9970 -0.0498 0.0587
vn 0.9978 -0.0528 0.0401
vn 0.9818 -0.0440 0.1848
vn 0.3933 0.0235 0.9191
vn 0.3885 0.0246 0.9211
vn 0.9812 -0.0433 0.1880
vn -0.3762 0.0665 0.9242
vn -0.3756 0.0661 0.9244
vn -0.3309 0.0652 0.9414
vn -0.3333 0.0661 0.9405
vn 0.8651 -0.0219 0.5010
vn 0.3288 -0.0638 -0.9423
vn 0.8129 -0.0151 0.5822
vn 0.8122 -0.0148 0.5832
vn -0.1735 0.0577 0.9831
vn -0.1723 0.0575 0.9834
# 58 vertex normals

vt 0.6493 0.9485 0.2855
vt 0.6493 0.9485 0.3088
vt 0.6493 0.9485 0.3086
vt 0.6493 0.9485 0.3554
vt 0.6493 0.9485 0.3617
vt 0.6493 0.9485 0.3557
vt 0.6493 0.9485 0.3110
vt 0.6493 0.9485 0.2101
vt 0.6493 0.9485 0.0000
vt 0.6493 0.9485 0.2461
vt 0.6493 0.9485 0.0826
vt 0.6493 0.9485 0.0042
vt 0.6493 0.9485 0.1611
vt 0.6493 0.9485 0.5015
vt 0.6493 0.9485 0.5017
vt 0.6493 0.9485 0.0413
vt 0.6493 0.9485 1.0000
vt 0.6493 0.9485 0.7046
vt 0.6493 0.9485 0.7057
vt 0.6493 0.9485 0.7055
vt 0.6493 0.9485 0.7047
vt 0.6493 0.9485 0.7015
vt 0.6493 0.9485 0.7014
vt 0.6493 0.9485 0.6893
vt 0.6493 0.9485 0.6905
vt 0.6493 0.9485 0.6906
vt 0.6493 0.9485 0.6891
vt 0.6493 0.9485 0.6917
vt 0.6493 0.9485 0.6908
vt 0.6493 0.9485 0.6907
vt 0.6493 0.9485 0.3479
vt 0.6493 0.9485 0.3477
vt 0.6493 0.9485 0.3342
vt 0.6493 0.9485 0.3335
vt 0.6493 0.9485 0.7339
vt 0.6493 0.9485 0.7358
vt 0.6493 0.9485 0.7356
vt 0.6493 0.9485 0.7710
vt 0.6493 0.9485 0.7658
vt 0.6493 0.9485 0.7768
vt 0.6493 0.9485 0.7553
vt 0.6493 0.9485 0.7542
vt 0.6493 0.9485 0.7541
# 43 texture coords

g dishangyanse_dl_pj_lanse_01
usemtl pj_lanse_01
s 1
f 1/1/1 2/2/2 3/3/3 4/1/4 
f 5/4/5 6/5/6 7/5/7 8/6/8 
f 6/5/6 9/7/9 10/7/10 7/5/7 
f 9/7/9 11/8/11 12/8/11 10/7/10 
f 11/8/11 13/9/12 14/9/12 12/8/11 
f 13/10/12 15/11/13 16/11/14 14/10/12 
f 17/12/15 18/13/16 19/13/16 20/12/15 
f 18/13/16 21/14/17 22/15/18 19/13/16 
f 23/16/19 24/9/20 25/9/20 26/16/19 
f 24/9/20 17/12/15 20/12/15 25/9/20 
f 21/14/17 27/17/21 28/17/21 22/15/18 
f 15/11/13 23/16/19 26/16/19 16/11/14 
f 27/9/21 29/9/22 30/9/22 28/9/21 
f 31/9/23 32/9/24 33/9/25 34/9/23 
f 35/9/26 36/9/27 37/9/27 38/9/26 
f 39/9/28 31/9/23 34/9/23 40/9/28 
f 41/9/29 42/9/30 43/9/30 44/9/29 
f 36/9/27 45/9/31 46/9/31 37/9/27 
f 42/9/30 47/9/32 48/9/32 43/9/30 
f 49/9/33 50/9/34 51/9/35 52/9/36 
f 53/18/37 49/19/33 52/20/36 54/21/38 
f 55/22/39 56/20/40 57/20/41 58/23/42 
f 50/24/34 59/25/43 60/26/44 51/27/35 
f 61/28/45 62/29/46 63/30/47 64/28/48 
f 8/6/8 65/31/49 66/32/50 5/4/5 
f 65/31/49 67/33/51 68/34/52 66/32/50 
f 67/33/51 3/3/3 2/2/2 68/34/52 
f 44/9/29 46/9/31 45/9/31 41/9/29 
f 69/9/53 48/9/32 47/9/32 70/9/53 
f 38/9/26 33/9/25 32/9/24 35/9/26 
f 71/9/54 30/9/22 29/9/22 72/9/54 
f 40/9/28 71/9/54 72/9/54 39/9/28 
f 58/35/42 73/36/55 74/36/56 55/35/39 
f 73/36/55 69/37/53 70/37/53 74/36/56 
f 54/21/38 57/20/41 56/20/40 53/18/37 
f 75/38/57 63/39/47 62/39/46 76/38/58 
f 4/40/4 75/38/57 76/38/58 1/40/1 
f 64/41/48 60/42/44 59/43/43 61/41/45 
# 38 polygons

