# 3ds Max Wavefront OBJ Exporter v0.97b - (c)2007 guruware
# File Created: 21.12.2017 10:45:38

mtllib dishangyanse_pj_dl_lanse_01.mtl

#
# object dishangyanse_pj_dl_lanse_01
#

v  24.8591 102.2337 -24.0881
v  25.7715 102.2337 -20.6870
v  25.7692 95.6730 -20.6860
v  24.8591 95.6730 -24.0881
v  28.5160 102.2337 -7.7367
v  29.5153 102.2337 -1.7701
v  29.5152 95.6730 -1.7711
v  28.5201 95.6730 -7.7380
v  30.7772 102.2337 12.5994
v  30.7770 95.6730 12.5952
v  30.0937 102.2337 19.7790
v  30.0937 95.6730 19.7790
v  27.0534 102.2337 23.8858
v  27.0534 95.6730 23.8858
v  20.3757 102.2337 26.6386
v  20.3757 95.6730 26.6386
v  -0.1595 102.2337 30.5455
v  -8.8804 102.2337 30.1614
v  -8.8802 95.6730 30.1615
v  -0.1591 95.6730 30.5455
v  -15.9509 102.2337 27.5582
v  -15.9534 95.6730 27.5568
v  13.0547 102.2337 28.1750
v  5.7335 102.2337 29.7115
v  5.7303 95.6730 29.7119
v  13.0531 95.6730 28.1752
v  -21.9695 102.2337 23.0991
v  -21.9695 95.6730 23.0991
v  -26.5049 102.2337 17.1152
v  -26.5049 95.6730 17.1152
v  -30.6351 102.2337 -19.8690
v  -27.2523 102.2337 -23.7205
v  -27.2504 95.6731 -23.7217
v  -30.6351 95.6730 -19.8690
v  -21.3169 102.2337 -25.9365
v  -7.1817 102.2337 -28.9312
v  -7.1817 95.6731 -28.9312
v  -21.3169 95.6730 -25.9365
v  -31.7749 102.2337 -14.8816
v  -31.7749 95.6730 -14.8816
v  4.5022 102.2337 -30.4065
v  10.0157 102.2337 -30.7005
v  10.0157 95.6730 -30.7005
v  4.5022 95.6731 -30.4065
v  -2.8698 102.2337 -29.4756
v  -3.0951 95.6730 -29.4471
v  11.8888 102.2337 -30.8006
v  11.7170 95.6730 -30.7914
v  18.6439 102.2337 -29.1184
v  22.1582 102.2337 -26.5221
v  22.1787 95.6730 -26.5079
v  18.6244 95.6730 -29.1339
v  18.5442 102.2337 -29.8362
v  18.5529 95.6730 -29.8489
v  18.2731 102.2337 -30.8233
v  18.6266 102.2337 -29.9718
v  18.6277 95.6730 -29.9721
v  18.2654 95.6730 -30.8276
v  22.8742 102.2337 -26.6356
v  22.8838 95.6730 -26.6476
v  22.9800 102.2337 -26.7539
v  23.8975 102.2337 -26.6640
v  23.9038 95.6730 -26.6579
v  22.9799 95.6730 -26.7550
v  27.5422 95.6730 -13.3844
v  27.5387 102.2337 -13.3823
v  26.6507 95.6731 -17.7551
v  26.6487 102.2337 -17.6870
v  15.5293 95.6730 -30.9936
v  15.5293 102.2337 -30.9935
v  -29.4188 95.6730 8.8880
v  -29.4188 102.2337 8.8879
v  17.3384 95.6730 -31.0143
v  17.3373 102.2337 -31.0142
v  24.3526 95.6730 -25.8256
v  24.3529 102.2337 -25.8245
# 76 vertices

vn 0.9630 -0.0001 -0.2694
vn 0.9626 0.0009 -0.2709
vn 0.9619 -0.0002 -0.2734
vn 0.9631 0.0000 -0.2692
vn 0.9858 0.0005 -0.1677
vn 0.9920 0.0000 -0.1264
vn 0.9920 0.0002 -0.1263
vn 0.9859 0.0006 -0.1676
vn 1.0000 -0.0000 0.0037
vn 1.0000 -0.0000 0.0036
vn 0.9337 0.0000 0.3580
vn 0.9337 -0.0000 0.3580
vn 0.6149 0.0000 0.7886
vn 0.2945 -0.0000 0.9557
vn 0.2945 0.0000 0.9557
vn 0.0483 -0.0000 0.9988
vn -0.1971 -0.0000 0.9804
vn -0.4752 -0.0000 0.8799
vn -0.4753 0.0000 0.8798
vn 0.2054 -0.0000 0.9787
vn 0.1729 -0.0000 0.9849
vn 0.1728 -0.0000 0.9849
vn -0.7032 0.0000 0.7110
vn -0.8802 0.0000 0.4746
vn -0.8903 -0.0000 -0.4553
vn -0.5677 -0.0000 -0.8232
vn -0.5676 0.0000 -0.8233
vn -0.2793 0.0000 -0.9602
vn -0.1664 0.0000 -0.9861
vn -0.9980 -0.0000 -0.0629
vn -0.0893 0.0000 -0.9960
vn -0.0533 0.0000 -0.9986
vn -0.1253 0.0000 -0.9921
vn -0.0531 -0.0000 -0.9986
vn -0.0532 -0.0000 -0.9986
vn 0.8592 -0.0014 -0.5117
vn 0.2369 0.0007 -0.9715
vn 0.2177 -0.0014 -0.9760
vn 0.8690 0.0007 -0.4947
vn 0.9791 -0.0012 0.2033
vn 0.9751 0.0009 0.2216
vn 0.6360 0.0003 -0.7716
vn 0.9971 0.0002 0.0761
vn 0.9973 -0.0003 0.0729
vn 0.6321 -0.0004 -0.7749
vn -0.4784 0.0009 -0.8781
vn -0.4948 -0.0012 -0.8690
vn -0.3631 -0.0003 -0.9317
vn 0.5526 -0.0004 -0.8335
vn 0.5569 0.0003 -0.8306
vn -0.3601 0.0002 -0.9329
vn 0.9826 0.0011 -0.1858
vn 0.9824 0.0006 -0.1866
vn 0.9699 0.0015 -0.2434
vn 0.9705 0.0022 -0.2410
vn -0.0322 -0.0000 -0.9995
vn -0.0322 0.0000 -0.9995
vn -0.9760 -0.0000 0.2178
vn -0.9760 0.0000 0.2178
vn 0.0935 0.0000 -0.9956
vn 0.0946 0.0002 -0.9955
vn 0.9252 0.0002 -0.3795
vn 0.9248 0.0000 -0.3805
# 63 vertex normals

vt 0.6493 0.9485 0.2855
vt 0.6493 0.9485 0.3088
vt 0.6493 0.9485 0.3086
vt 0.6493 0.9485 0.3554
vt 0.6493 0.9485 0.3617
vt 0.6493 0.9485 0.3557
vt 0.6493 0.9485 0.3110
vt 0.6493 0.9485 0.2101
vt 0.6493 0.9485 0.0000
vt 0.6493 0.9485 0.2461
vt 0.6493 0.9485 0.0826
vt 0.6493 0.9485 0.0042
vt 0.6493 0.9485 0.1611
vt 0.6493 0.9485 0.5015
vt 0.6493 0.9485 0.5017
vt 0.6493 0.9485 0.0413
vt 0.6493 0.9485 1.0000
vt 0.6493 0.9485 0.7046
vt 0.6493 0.9485 0.7057
vt 0.6493 0.9485 0.7055
vt 0.6493 0.9485 0.7047
vt 0.6493 0.9485 0.7015
vt 0.6493 0.9485 0.7014
vt 0.6493 0.9485 0.6893
vt 0.6493 0.9485 0.6905
vt 0.6493 0.9485 0.6906
vt 0.6493 0.9485 0.6891
vt 0.6493 0.9485 0.6917
vt 0.6493 0.9485 0.6908
vt 0.6493 0.9485 0.6907
vt 0.6493 0.9485 0.3479
vt 0.6493 0.9485 0.3477
vt 0.6493 0.9485 0.3342
vt 0.6493 0.9485 0.3335
vt 0.6493 0.9485 0.7339
vt 0.6493 0.9485 0.7358
vt 0.6493 0.9485 0.7356
vt 0.6493 0.9485 0.7710
vt 0.6493 0.9485 0.7658
vt 0.6493 0.9485 0.7768
vt 0.6493 0.9485 0.7553
vt 0.6493 0.9485 0.7542
vt 0.6493 0.9485 0.7541
# 43 texture coords

g dishangyanse_pj_dl_lanse_01
usemtl pj_lanse_01
s 1
f 1/1/1 2/2/2 3/3/3 4/1/4 
f 5/4/5 6/5/6 7/5/7 8/6/8 
f 6/5/6 9/7/9 10/7/10 7/5/7 
f 9/7/9 11/8/11 12/8/12 10/7/10 
f 11/8/11 13/9/13 14/9/13 12/8/12 
f 13/10/13 15/11/14 16/11/15 14/10/13 
f 17/12/16 18/13/17 19/13/17 20/12/16 
f 18/13/17 21/14/18 22/15/19 19/13/17 
f 23/16/20 24/9/21 25/9/22 26/16/20 
f 24/9/21 17/12/16 20/12/16 25/9/22 
f 21/14/18 27/17/23 28/17/23 22/15/19 
f 15/11/14 23/16/20 26/16/20 16/11/15 
f 27/9/23 29/9/24 30/9/24 28/9/23 
f 31/9/25 32/9/26 33/9/27 34/9/25 
f 35/9/28 36/9/29 37/9/29 38/9/28 
f 39/9/30 31/9/25 34/9/25 40/9/30 
f 41/9/31 42/9/32 43/9/32 44/9/31 
f 36/9/29 45/9/33 46/9/33 37/9/29 
f 42/9/32 47/9/34 48/9/35 43/9/32 
f 49/9/36 50/9/37 51/9/38 52/9/39 
f 53/18/40 49/19/36 52/20/39 54/21/41 
f 55/22/42 56/20/43 57/20/44 58/23/45 
f 50/24/37 59/25/46 60/26/47 51/27/38 
f 61/28/48 62/29/49 63/30/50 64/28/51 
f 8/6/8 65/31/52 66/32/53 5/4/5 
f 65/31/52 67/33/54 68/34/55 66/32/53 
f 67/33/54 3/3/3 2/2/2 68/34/55 
f 44/9/31 46/9/33 45/9/33 41/9/31 
f 69/9/56 48/9/35 47/9/34 70/9/57 
f 38/9/28 33/9/27 32/9/26 35/9/28 
f 71/9/58 30/9/24 29/9/24 72/9/59 
f 40/9/30 71/9/58 72/9/59 39/9/30 
f 58/35/45 73/36/60 74/36/61 55/35/42 
f 73/36/60 69/37/56 70/37/57 74/36/61 
f 54/21/41 57/20/44 56/20/43 53/18/40 
f 75/38/62 63/39/50 62/39/49 76/38/63 
f 4/40/4 75/38/62 76/38/63 1/40/1 
f 64/41/51 60/42/47 59/43/46 61/41/48 
# 38 polygons

