# 3ds Max Wavefront OBJ Exporter v0.97b - (c)2007 guruware
# File Created: 13.12.2017 17:57:59

mtllib erceng_T_yz_03.mtl

#
# object erceng_T_yz_03
#

v  87.6414 9.2313 -78.0964
v  -96.6551 9.2313 -78.0964
v  -96.6551 9.2313 71.7974
v  87.6414 9.2313 71.7974
# 4 vertices

vn 0.0000 1.0000 -0.0000
# 1 vertex normals

vt 1.0000 1.0000 0.5000
vt 0.0000 1.0000 0.5000
vt -0.0000 0.0000 0.5000
vt 1.0000 0.0000 0.5000
# 4 texture coords

g erceng_T_yz_03
usemtl T_yz_03
s 1
f 1/1/1 2/2/1 3/3/1 4/4/1 
# 1 polygons

