# 3ds Max Wavefront OBJ Exporter v0.97b - (c)2007 guruware
# File Created: 22.12.2017 11:27:14

mtllib lan.mtl

#
# object lan
#

v  -283.9166 204.7216 -654.2966
v  -483.2976 204.7216 -654.2966
v  -483.2976 204.7216 -335.6536
v  -283.9166 204.7216 -335.6536
v  -483.2976 130.9016 -335.6536
v  -283.9166 130.9016 -335.6536
v  -283.9166 130.9016 -654.2966
v  -483.2976 130.9016 -654.2966
v  -259.9089 204.7216 461.9790
v  -259.9089 204.7216 316.9295
v  -766.0494 204.7216 316.9295
v  -766.0494 204.7216 488.9254
v  -667.3817 204.7216 488.9255
v  -667.3804 204.7216 727.1964
v  -606.6705 204.7216 893.3987
v  -152.4010 204.7216 893.3992
v  -146.3859 204.7216 889.9619
v  -143.2651 204.7216 888.4412
v  -139.8370 204.7216 885.6864
v  -137.6800 204.7216 882.9663
v  -135.0096 204.7216 877.3956
v  -134.5641 204.7216 652.0179
v  -200.9046 204.7216 461.9790
v  -259.9089 130.9017 461.9790
v  -259.9089 130.9017 316.9295
v  -766.0494 130.9017 316.9295
v  -766.0493 130.9017 488.9254
v  -667.3817 130.9017 488.9255
v  -667.3804 130.9017 727.1964
v  -606.6705 130.9017 893.3987
v  -152.4010 130.9017 893.3992
v  -200.9046 130.9017 461.9790
v  -134.5641 130.9017 652.0178
v  -135.0095 130.9017 877.3956
v  -137.6799 130.9017 882.9663
v  -146.3858 130.9017 889.9619
v  -139.8370 130.9017 885.6864
v  -143.2651 130.9017 888.4412
v  438.2709 203.8141 -640.4256
v  268.9850 203.8141 -640.4256
v  268.9850 203.8141 -510.2738
v  438.2709 203.8141 -510.2738
v  268.9850 130.9016 -510.2738
v  438.2709 130.9016 -510.2738
v  268.9850 130.9016 -640.4256
v  438.2709 130.9016 -640.4256
# 46 vertices

vn 0.0000 1.0000 -0.0000
vn 0.0000 0.0000 1.0000
vn 1.0000 -0.0000 0.0000
vn -1.0000 0.0000 -0.0000
vn 0.0000 0.0000 -1.0000
vn -0.0000 1.0000 -0.0000
vn 1.0000 -0.0000 -0.0000
vn 0.0000 -0.0000 -1.0000
vn -1.0000 -0.0000 0.0000
vn -0.0000 -0.0000 1.0000
vn -0.9393 0.0000 0.3431
vn -0.0000 0.0000 1.0000
vn 0.9441 0.0000 -0.3296
vn 1.0000 0.0000 0.0020
vn 0.9017 0.0000 0.4323
vn 0.4962 0.0000 0.8682
vn 0.7835 0.0000 0.6213
vn 0.6264 0.0000 0.7795
vn 0.4380 0.0000 0.8990
vn -1.0000 0.0000 0.0000
# 20 vertex normals

vt 0.1391 0.2818 0.9854
vt 0.1391 0.2818 0.7953
vt 0.1391 0.2818 0.3961
vt 0.1391 0.2818 0.2334
vt 0.1391 0.2818 1.0000
vt 0.1391 0.2818 0.4144
vt 0.1391 0.2818 0.3713
vt 0.1391 0.2818 0.0000
vt 0.1391 0.2818 0.2617
vt 0.1391 0.2818 0.0815
vt 0.1391 0.2818 0.1331
vt 0.1391 0.2818 0.2783
vt 0.1391 0.2818 0.2779
vt 0.1391 0.2818 0.4667
vt 0.1391 0.2818 0.5193
vt 0.1391 0.2818 0.5189
vt 0.1391 0.2818 0.5167
vt 0.1391 0.2818 0.0022
vt 0.1391 0.2818 0.5149
vt 0.1391 0.2818 0.5121
vt 0.1391 0.2818 0.0032
vt 0.1391 0.2818 0.9806
vt 0.1391 0.2818 0.9063
vt 0.1391 0.2818 0.8585
vt 0.1391 0.2818 0.9904
# 25 texture coords

g lan
usemtl T_quyu_001
s 1
f 1/1/1 2/1/1 3/1/1 4/1/1 
s off
f 4/2/2 3/2/2 5/2/2 6/2/2 
f 1/3/3 4/3/3 6/3/3 7/3/3 
f 3/4/4 2/4/4 8/4/4 5/4/4 
f 2/5/5 1/5/5 7/5/5 8/5/5 
s 1
f 9/5/6 10/5/1 11/5/1 12/5/6 
f 9/5/6 12/5/6 13/5/6 14/5/1 
f 9/5/6 14/5/1 15/5/1 16/5/6 
f 17/5/1 18/5/1 19/5/1 20/5/1 
f 16/5/6 17/5/1 20/5/1 21/5/1 
f 16/5/6 21/5/1 22/5/6 23/5/6 
f 9/5/6 16/5/6 23/5/6 
s off
f 10/6/7 9/6/7 24/6/7 25/6/7 
f 11/7/8 10/7/8 25/7/8 26/7/8 
f 12/8/9 11/8/9 26/8/9 27/8/9 
f 13/9/10 12/9/10 27/9/10 28/9/10 
f 14/10/9 13/10/9 28/10/9 29/10/9 
f 15/11/11 14/10/11 29/10/11 30/11/11 
f 16/8/12 15/8/12 30/8/12 31/8/12 
f 9/12/5 23/13/5 32/13/5 24/12/5 
f 23/14/13 22/15/13 33/15/13 32/14/13 
f 22/15/14 21/16/14 34/16/14 33/15/14 
f 21/16/15 20/17/15 35/17/15 34/16/15 
f 17/18/16 16/8/16 31/8/16 36/18/16 
f 20/17/17 19/19/17 37/19/17 35/17/17 
f 19/19/18 18/20/18 38/20/18 37/19/18 
f 18/21/19 17/18/19 36/18/19 38/21/19 
s 1
f 39/22/1 40/22/1 41/22/1 42/22/1 
s off
f 42/23/2 41/23/2 43/23/2 44/23/2 
f 41/24/20 40/24/20 45/24/20 43/24/20 
f 40/25/8 39/25/8 46/25/8 45/25/8 
# 30 polygons - 1 triangles

