# 3ds Max Wavefront OBJ Exporter v0.97b - (c)2007 guruware
# File Created: 22.12.2017 11:27:05

mtllib lv.mtl

#
# object lv
#

v  476.8645 204.6337 24.7013
v  824.2026 204.6336 24.7013
v  824.2026 132.0371 24.7014
v  476.8645 132.0372 24.7013
v  476.8645 204.6337 46.8637
v  476.8646 132.0372 46.8637
v  824.2026 204.6337 207.9356
v  824.2026 132.0372 207.9356
v  588.8401 204.6337 207.9356
v  588.8401 132.0372 207.9356
v  588.8401 204.6337 267.6376
v  477.8121 204.6337 267.6376
v  477.8122 132.0372 267.6376
v  588.8401 132.0372 267.6376
v  477.8122 204.6337 207.3138
v  477.8122 132.0372 207.3138
v  316.7484 204.6337 46.8637
v  316.7484 132.0372 46.8637
v  316.7484 204.6337 207.3137
v  316.7484 132.0372 207.3138
v  316.6588 204.6337 826.9860
v  316.6588 132.0372 826.9858
v  316.6588 132.0372 895.7073
v  316.6587 204.6337 895.7075
v  654.3097 204.6337 826.9860
v  654.3096 132.0372 826.9858
v  654.3097 204.6337 899.6479
v  654.3097 132.0372 899.6479
v  318.0992 132.0372 914.1223
v  318.0992 204.6337 914.1223
v  319.8620 132.0372 917.5726
v  319.8620 204.6337 917.5725
v  321.9062 132.0372 920.8593
v  321.9062 204.6337 920.8593
v  324.0389 132.0372 924.0903
v  324.0389 204.6337 924.0903
v  326.2127 132.0372 927.2778
v  326.2127 204.6337 927.2778
v  328.7220 132.0372 930.2433
v  328.7220 204.6337 930.2433
v  330.7935 132.0372 933.2721
v  330.7934 204.6337 933.2721
v  336.9850 132.0372 939.8757
v  336.9850 204.6337 939.8755
v  343.8961 132.0372 945.7454
v  343.8961 204.6337 945.7454
v  351.3743 132.0372 950.8729
v  351.3742 204.6337 950.8728
v  359.3402 132.0372 955.2041
v  359.3402 204.6337 955.2041
v  367.7096 132.0372 958.6929
v  367.7096 204.6337 958.6927
v  376.3934 132.0372 961.3023
v  376.3934 204.6337 961.3023
v  385.2995 132.0372 963.0042
v  385.2995 204.6337 963.0042
v  394.3337 132.0372 963.7809
v  394.3337 204.6337 963.7809
v  403.3996 132.0372 963.6244
v  403.3996 204.6337 963.6244
v  567.5688 132.0372 963.6245
v  567.5687 204.6337 963.6243
v  576.6347 132.0372 963.7810
v  576.6346 204.6337 963.7810
v  585.6689 132.0372 963.0043
v  585.6689 204.6337 963.0043
v  594.5750 132.0372 961.3022
v  594.5750 204.6337 961.3022
v  603.2588 132.0372 958.6929
v  603.2587 204.6337 958.6927
v  611.6282 132.0372 955.2040
v  611.6281 204.6337 955.2040
v  619.5941 132.0372 950.8730
v  619.5941 204.6337 950.8730
v  627.0723 132.0372 945.7454
v  627.0722 204.6337 945.7454
v  633.9834 132.0372 939.8755
v  633.9833 204.6337 939.8755
v  640.2539 132.0372 933.3260
v  640.2538 204.6337 933.3260
v  642.5926 132.0372 930.4998
v  642.5926 204.6337 930.4998
v  652.8691 204.6337 914.1223
v  652.8691 132.0372 914.1223
v  651.1063 204.6337 917.5724
v  651.1063 132.0372 917.5726
v  649.1934 204.6337 920.9418
v  649.1934 132.0372 920.9418
v  644.9326 132.0372 927.4116
v  644.9326 204.6337 927.4116
v  647.1342 132.0372 924.2236
v  647.1342 204.6337 924.2236
v  -614.2873 206.6337 13.2529
v  -685.7796 206.6337 13.2530
v  -685.7800 132.0371 13.2529
v  -614.2873 132.0371 13.2529
v  -614.2873 206.6337 -132.9166
v  -614.2873 132.0371 -132.9167
v  -685.7801 206.6337 -132.9166
v  -685.7801 132.0371 -132.9166
v  -924.9500 222.6767 -337.0727
v  -1020.2256 222.6767 -337.0728
v  -1020.2258 132.0371 -337.0728
v  -924.9500 132.0371 -337.0727
v  -924.9500 222.6767 -676.7493
v  -924.9500 132.0371 -676.7493
v  -1020.2256 222.6767 -676.7493
v  -1020.2258 132.0371 -676.7493
v  -961.1216 206.6337 -952.1957
v  -1022.0418 206.6337 -952.1957
v  -1022.0418 132.0372 -952.1959
v  -961.1216 132.0372 -952.1959
v  -961.1216 206.6337 -1063.4493
v  -961.1216 132.0372 -1063.4493
v  -1022.0418 206.6337 -1063.4493
v  -1022.0418 132.0372 -1063.4493
v  586.0259 204.6337 -497.6198
v  434.6577 204.6337 -497.6198
v  434.6578 132.0371 -497.6199
v  586.0259 132.0371 -497.6199
v  586.0259 204.6337 -680.0402
v  586.0259 132.0371 -680.0402
v  434.6577 204.6337 -680.0402
v  434.6577 132.0371 -680.0402
v  806.0549 204.6337 873.8653
v  654.3097 204.6337 873.8653
v  654.3096 132.0372 873.8653
v  806.0549 132.0372 873.8653
v  806.0549 204.6337 712.3535
v  806.0549 132.0372 712.3535
v  654.3097 204.6337 712.3535
v  654.3097 132.0372 712.3535
v  -604.1420 206.6337 1172.0575
v  -517.9802 206.6337 1172.0575
v  -517.9802 132.0372 1172.0576
v  -604.1422 132.0372 1172.0574
v  -517.9756 206.6337 1297.1345
v  -517.9756 132.0372 1297.1350
v  928.7771 204.6337 967.4349
v  928.7771 204.6337 1104.1010
v  928.7771 132.0372 1104.1008
v  928.7771 132.0372 967.4349
v  788.0254 204.6337 967.4351
v  788.0254 132.0372 967.4351
v  777.9988 204.6337 1000.9279
v  777.9988 132.0372 1000.9279
v  648.1675 204.6337 1104.1008
v  648.1677 204.6337 1091.6051
v  648.1676 132.0372 1091.6050
v  648.1675 132.0372 1104.1008
v  708.2269 204.6337 1072.0039
v  708.2269 132.0371 1072.0039
v  748.8010 204.6337 1041.1647
v  748.8010 132.0371 1041.1647
v  -783.5129 206.6337 -707.6111
v  -594.8813 206.6337 -707.6109
v  -594.8815 132.0372 -707.6109
v  -783.5131 132.0372 -707.6111
v  -783.5129 206.6337 -647.2303
v  -783.5130 132.0372 -647.2305
v  -731.5563 206.6337 -647.2303
v  -731.5563 132.0372 -647.2305
v  -594.8813 206.6337 -561.2484
v  -594.8815 132.0372 -561.2484
v  -731.5563 206.6337 -561.2484
v  -731.5563 132.0372 -561.2485
v  -602.9786 206.6337 892.1306
v  -675.7674 206.6337 892.3528
v  -675.7670 132.0372 892.3528
v  -602.9788 132.0372 892.1306
v  -712.2955 206.6337 792.2507
v  -712.2955 132.0372 792.2509
v  -672.9037 206.6337 777.3721
v  -672.9037 132.0372 777.3721
v  -648.9141 206.6337 768.7286
v  -648.9141 132.0372 768.7289
v  -797.9987 206.6337 313.3155
v  -797.9985 206.6337 467.4261
v  -797.9987 132.0371 467.4262
v  -797.9988 132.0371 313.3155
v  -809.1551 206.6337 467.4262
v  -809.1548 132.0371 467.4262
v  -689.2469 206.6337 522.4023
v  -688.5018 206.6337 755.6844
v  -688.5018 132.0372 755.6844
v  -689.2470 132.0371 522.4023
v  -809.1551 206.6337 522.4023
v  -809.1551 132.0371 522.4023
v  -746.1484 206.6337 777.3642
v  -746.1484 132.5580 777.3642
v  -915.8777 206.6337 313.1825
v  -915.8779 132.0371 313.1825
v  -558.2812 206.6337 1297.1346
# 193 vertices

vn 0.0000 -0.0000 -1.0000
vn -1.0000 -0.0000 -0.0000
vn 1.0000 0.0000 0.0000
vn 0.0000 0.0000 1.0000
vn 1.0000 -0.0000 -0.0000
vn -0.0000 -0.0000 -1.0000
vn -0.0000 0.0000 1.0000
vn -1.0000 0.0000 -0.0000
vn 0.0000 0.0000 -1.0000
vn -0.9970 -0.0000 0.0780
vn -0.8905 0.0000 0.4550
vn -0.8492 0.0000 0.5281
vn -0.8346 -0.0000 0.5509
vn -0.8262 -0.0000 0.5634
vn -0.7634 0.0000 0.6459
vn -0.8254 -0.0000 0.5645
vn -0.7295 0.0000 0.6840
vn -0.6474 0.0000 0.7622
vn -0.5655 0.0000 0.8248
vn -0.4777 0.0000 0.8785
vn -0.3848 0.0000 0.9230
vn -0.2878 0.0000 0.9577
vn -0.1877 -0.0000 0.9822
vn -0.0857 -0.0000 0.9963
vn 0.0173 0.0000 0.9999
vn -0.0173 0.0000 0.9999
vn 0.0857 0.0000 0.9963
vn 0.1877 0.0000 0.9822
vn 0.2878 0.0000 0.9577
vn 0.3848 0.0000 0.9230
vn 0.4777 0.0000 0.8785
vn 0.5655 0.0000 0.8247
vn 0.6474 0.0000 0.7622
vn 0.7223 0.0000 0.6916
vn 0.7704 0.0000 0.6375
vn 0.9951 0.0000 0.0990
vn 0.8905 0.0000 0.4550
vn 0.8696 0.0000 0.4937
vn 0.7970 0.0000 0.6039
vn 0.8229 0.0000 0.5683
vn 0.8471 0.0000 0.5315
vn 0.0000 -0.0000 1.0000
vn 1.0000 0.0000 -0.0000
vn -1.0000 0.0000 0.0000
vn -0.0000 0.0000 -1.0000
vn -0.0000 -0.0000 1.0000
vn 1.0000 -0.0000 0.0000
vn -1.0000 -0.0000 0.0000
vn -0.9580 0.0000 -0.2868
vn -0.3103 0.0000 -0.9507
vn -0.6051 0.0000 -0.7961
vn -0.8094 0.0000 -0.5873
vn 0.0031 0.0000 1.0000
vn -0.9394 -0.0000 0.3428
vn -0.3533 -0.0000 -0.9355
vn -0.3390 -0.0000 -0.9408
vn 1.0000 -0.0000 -0.0032
vn 0.3520 0.0000 0.9360
vn -0.9392 0.0000 0.3434
vn 0.0000 1.0000 -0.0000
vn -0.0000 1.0000 0.0000
vn 0.0000 1.0000 0.0000
vn -0.0000 1.0000 -0.0000
# 63 vertex normals

vt 0.3982 0.5000 0.5362
vt 0.3982 0.5000 0.7741
vt 0.3982 0.5000 0.9437
vt 0.3982 0.5000 0.4668
vt 0.3982 0.5000 0.4412
vt 0.3982 0.5000 0.8251
vt 0.3982 0.5000 0.7740
vt 0.3982 0.5000 0.5276
vt 0.3982 0.5000 0.6942
vt 0.3982 0.5000 0.6945
vt 0.3982 0.5000 0.1947
vt 0.3982 0.5000 0.8605
vt 0.3982 0.5000 0.6952
vt 0.3982 0.5000 0.6961
vt 0.3982 0.5000 0.6972
vt 0.3982 0.5000 0.6983
vt 0.3982 0.5000 0.6994
vt 0.3982 0.5000 0.7007
vt 0.3982 0.5000 0.7017
vt 0.3982 0.5000 0.7049
vt 0.3982 0.5000 0.7085
vt 0.3982 0.5000 0.1539
vt 0.3982 0.5000 0.1517
vt 0.3982 0.5000 0.1498
vt 0.3982 0.5000 0.1484
vt 0.3982 0.5000 0.1473
vt 0.3982 0.5000 0.1465
vt 0.3982 0.5000 0.1462
vt 0.3982 0.5000 0.1463
vt 0.3982 0.5000 0.8465
vt 0.3982 0.5000 0.8500
vt 0.3982 0.5000 0.8532
vt 0.3982 0.5000 0.8544
vt 0.3982 0.5000 0.8597
vt 0.3982 0.5000 0.8588
vt 0.3982 0.5000 0.8578
vt 0.3982 0.5000 0.8556
vt 0.3982 0.5000 0.8568
vt 0.3982 0.5000 0.5477
vt 0.3982 0.5000 0.2056
vt 0.3982 0.5000 0.1768
vt 0.3982 0.5000 0.6041
vt 0.3982 0.5000 0.7010
vt 0.3982 0.5000 0.0387
vt 0.3982 0.5000 0.0000
vt 0.3982 0.5000 0.8294
vt 0.3982 0.5000 0.9576
vt 0.3982 0.5000 0.0274
vt 0.3982 0.5000 1.0000
vt 0.3982 0.5000 0.7671
vt 0.3982 0.5000 0.8226
vt 0.3982 0.5000 0.7540
vt 0.3982 0.5000 0.8344
vt 0.3982 0.5000 0.1842
vt 0.3982 0.5000 0.9369
vt 0.3982 0.5000 0.8630
vt 0.3982 0.5000 0.2441
vt 0.3982 0.5000 0.0503
vt 0.3982 0.5000 0.0504
vt 0.3982 0.5000 0.2558
vt 0.3982 0.5000 0.1358
vt 0.3982 0.5000 0.9269
vt 0.3982 0.5000 0.9330
vt 0.3982 0.5000 0.0867
vt 0.3982 0.5000 0.0876
vt 0.3982 0.5000 0.0959
vt 0.3982 0.5000 0.1090
vt 0.3982 0.5000 0.9108
vt 0.3982 0.5000 0.8476
vt 0.3982 0.5000 0.1263
vt 0.3982 0.5000 0.8278
vt 0.3982 0.5000 0.2160
vt 0.3982 0.5000 0.7914
vt 0.3982 0.5000 0.1533
vt 0.3982 0.5000 0.1751
vt 0.3982 0.5000 0.1806
vt 0.3982 0.5000 0.1641
vt 0.3982 0.5000 0.2126
vt 0.3982 0.5000 0.2177
vt 0.3982 0.5000 0.2214
vt 0.3982 0.5000 0.1108
vt 0.3982 0.5000 0.3556
vt 0.3982 0.5000 0.1668
vt 0.3982 0.5000 0.3255
vt 0.3982 0.5000 0.2324
vt 0.3982 0.5000 0.2242
vt 0.3982 0.5000 0.1394
vt 0.3982 0.5000 0.0538
vt 0.3982 0.5000 0.1046
vt 0.3982 0.5000 0.2161
vt 0.3982 0.5000 0.2140
vt 0.3982 0.5000 0.4176
# 92 texture coords

g lv
usemtl T_quyu_001
s off
f 1/1/1 2/1/1 3/1/1 4/1/1 
f 5/2/2 1/2/2 4/2/2 6/2/2 
f 2/3/3 7/3/3 8/3/3 3/3/3 
f 7/4/4 9/4/4 10/4/4 8/4/4 
f 11/5/4 12/5/4 13/5/4 14/5/4 
f 9/6/5 11/6/5 14/6/5 10/6/5 
f 12/7/2 15/7/2 16/7/2 13/7/2 
f 17/8/6 5/8/6 6/8/6 18/8/6 
f 15/4/7 19/4/7 20/4/7 16/4/7 
f 17/9/8 18/9/8 20/9/8 19/9/8 
f 21/10/2 22/10/2 23/10/2 24/10/2 
f 25/11/9 26/11/9 22/11/9 21/11/9 
f 27/12/5 28/12/5 26/12/5 25/12/5 
f 24/10/10 23/10/10 29/13/10 30/13/10 
f 30/13/11 29/13/11 31/14/11 32/14/11 
f 32/14/12 31/14/12 33/15/12 34/15/12 
f 34/15/13 33/15/13 35/16/13 36/16/13 
f 36/16/14 35/16/14 37/17/14 38/17/14 
f 38/17/15 37/17/15 39/18/15 40/18/15 
f 40/18/16 39/18/16 41/19/16 42/19/16 
f 42/19/17 41/19/17 43/20/17 44/20/17 
f 44/20/18 43/20/18 45/21/18 46/21/18 
f 46/22/19 45/22/19 47/23/19 48/23/19 
f 48/23/20 47/23/20 49/24/20 50/24/20 
f 50/24/21 49/24/21 51/25/21 52/25/21 
f 52/25/22 51/25/22 53/26/22 54/26/22 
f 54/26/23 53/26/23 55/27/23 56/27/23 
f 56/27/24 55/27/24 57/28/24 58/28/24 
f 58/28/25 57/28/25 59/29/25 60/29/25 
f 60/29/4 59/29/4 61/29/4 62/29/4 
f 62/29/26 61/29/26 63/28/26 64/28/26 
f 64/28/27 63/28/27 65/27/27 66/27/27 
f 66/27/28 65/27/28 67/26/28 68/26/28 
f 68/26/29 67/26/29 69/25/29 70/25/29 
f 70/25/30 69/25/30 71/24/30 72/24/30 
f 72/24/31 71/24/31 73/23/31 74/23/31 
f 74/23/32 73/23/32 75/22/32 76/22/32 
f 76/30/33 75/30/33 77/31/33 78/31/33 
f 78/31/34 77/31/34 79/32/34 80/32/34 
f 80/32/35 79/32/35 81/33/35 82/33/35 
f 83/34/36 84/34/36 28/12/36 27/12/36 
f 85/35/37 86/35/37 84/34/37 83/34/37 
f 87/36/38 88/36/38 86/35/38 85/35/38 
f 82/33/39 81/33/39 89/37/39 90/37/39 
f 90/37/40 89/37/40 91/38/40 92/38/40 
f 92/38/41 91/38/41 88/36/41 87/36/41 
f 93/39/42 94/39/42 95/39/42 96/39/42 
f 97/40/43 93/40/43 96/40/43 98/40/43 
f 94/41/44 99/41/44 100/41/44 95/41/44 
f 99/42/45 97/42/45 98/42/45 100/42/45 
f 101/43/7 102/43/7 103/43/7 104/43/7 
f 105/44/43 101/44/43 104/44/43 106/44/43 
f 102/45/8 107/45/8 108/45/8 103/45/8 
f 107/46/45 105/46/45 106/46/45 108/46/45 
f 109/47/46 110/47/46 111/47/46 112/47/46 
f 113/48/47 109/48/47 112/48/47 114/48/47 
f 115/49/9 113/49/9 114/49/9 116/49/9 
f 117/50/42 118/50/42 119/50/42 120/50/42 
f 121/51/43 117/51/43 120/51/43 122/51/43 
f 118/52/48 123/52/48 124/52/48 119/52/48 
f 123/53/9 121/53/9 122/53/9 124/53/9 
f 125/54/4 126/54/4 127/54/4 128/54/4 
f 129/55/3 125/55/3 128/55/3 130/55/3 
f 126/56/8 131/56/8 132/56/8 127/56/8 
f 131/57/9 129/57/9 130/57/9 132/57/9 
f 133/58/1 134/59/1 135/59/1 136/58/1 
f 134/60/5 137/60/5 138/60/5 135/60/5 
f 139/49/43 140/49/43 141/49/43 142/49/43 
f 143/61/45 139/61/45 142/61/45 144/61/45 
f 145/62/49 143/63/49 144/63/49 146/62/49 
f 147/56/8 148/56/8 149/56/8 150/56/8 
f 140/64/46 147/64/46 150/64/46 141/64/46 
f 148/65/50 151/66/50 152/66/50 149/65/50 
f 151/66/51 153/67/51 154/67/51 152/66/51 
f 153/68/52 145/62/52 146/62/52 154/68/52 
f 155/69/1 156/69/1 157/69/1 158/69/1 
f 159/70/44 155/70/44 158/70/44 160/70/44 
f 161/71/42 159/71/42 160/71/42 162/71/42 
f 163/72/5 164/72/5 157/72/5 156/72/5 
f 163/73/46 165/73/46 166/73/46 164/73/46 
f 165/74/8 161/74/8 162/74/8 166/74/8 
f 167/75/53 168/75/53 169/75/53 170/75/53 
f 168/76/54 171/77/54 172/77/54 169/76/54 
f 171/78/55 173/79/55 174/79/55 172/78/55 
f 173/79/56 175/80/56 176/80/56 174/79/56 
f 177/81/5 178/81/5 179/81/5 180/81/5 
f 178/82/4 181/82/4 182/82/4 179/82/4 
f 183/83/57 184/83/57 185/83/57 186/83/57 
f 187/84/9 183/84/9 186/84/9 188/84/9 
f 184/85/58 189/86/58 190/86/58 185/85/58 
f 189/87/59 191/88/59 192/88/59 190/87/59 
f 181/89/3 187/89/3 188/89/3 182/89/3 
f 2/1/60 1/2/60 5/8/60 9/4/60 
f 17/9/60 19/4/60 15/7/60 9/4/60 
f 12/5/60 11/6/60 9/4/60 15/7/60 
f 5/8/60 17/9/60 9/4/60 
f 2/1/60 9/4/60 7/3/60 
f 21/10/60 24/10/60 30/13/60 32/14/60 
f 32/14/60 34/15/60 36/16/60 21/10/60 
f 36/16/61 38/17/61 40/18/61 44/20/61 
f 40/18/61 42/19/61 44/20/61 
f 44/20/60 46/22/60 48/23/60 52/25/60 
f 48/23/60 50/24/60 52/25/60 
f 36/16/60 44/20/60 52/25/60 82/33/60 
f 52/25/60 54/26/60 56/27/60 60/29/60 
f 56/27/60 58/28/60 60/29/60 
f 62/29/60 64/28/60 66/27/60 60/29/60 
f 52/25/60 60/29/60 66/27/60 82/33/60 
f 66/27/60 68/26/60 70/25/60 74/23/60 
f 70/25/60 72/24/60 74/23/60 
f 74/23/60 76/30/60 78/31/60 82/33/60 
f 78/31/60 80/32/60 82/33/60 
f 66/27/60 74/23/60 82/33/60 
f 21/10/60 36/16/60 82/33/60 85/35/60 
f 82/33/60 90/37/60 92/38/60 85/35/60 
f 92/38/60 87/36/60 85/35/60 
f 85/35/60 83/34/60 27/12/60 21/10/60 
f 21/10/60 27/12/60 25/11/60 
f 99/41/60 94/39/60 93/40/60 97/42/60 
f 107/45/60 102/43/60 101/44/60 105/46/60 
f 115/45/62 110/47/62 109/48/62 113/49/62 
f 123/52/60 118/50/60 117/51/60 121/53/60 
f 131/56/60 126/54/60 125/55/60 129/57/60 
f 134/59/60 133/90/60 193/45/60 137/60/60 
f 140/49/60 139/61/60 143/63/60 145/62/60 
f 140/49/61 145/62/61 153/67/61 151/66/61 
f 140/49/60 151/66/60 148/56/60 147/64/60 
f 156/69/60 155/70/60 159/71/60 161/74/60 
f 161/74/60 165/73/60 163/72/60 156/69/60 
f 175/80/61 173/79/61 171/77/61 167/91/61 
f 168/75/63 167/91/63 171/77/63 
f 178/81/62 177/92/62 191/88/62 181/82/62 
f 184/83/61 183/84/61 187/89/61 189/86/61 
f 191/88/60 189/86/60 187/89/60 181/82/60 
# 123 polygons - 11 triangles

