# 3ds Max Wavefront OBJ Exporter v0.97b - (c)2007 guruware
# File Created: 09.01.2018 15:13:12

mtllib M_B3_T_tujian_008.mtl

#
# object M_B3_T_tujian_008
#

v  140.5510 -61.7009 -56.6772
v  -80.9179 -61.7009 -113.5385
v  -126.8499 -61.7009 65.3617
v  94.6190 -61.7009 122.2231
# 4 vertices

vn 0.0000 1.0000 -0.0000
# 1 vertex normals

vt 1.0000 1.0000 0.5000
vt 0.0000 1.0000 0.5000
vt 0.0000 0.0000 0.5000
vt 1.0000 0.0000 0.5000
# 4 texture coords

g M_B3_T_tujian_008
usemtl T_tujian_008
s 1
f 1/1/1 2/2/1 3/3/1 4/4/1 
# 1 polygons

