# 3ds Max Wavefront OBJ Exporter v0.97b - (c)2007 guruware
# File Created: 10.01.2018 14:36:40

mtllib M_B3_T_tujian_009.mtl

#
# object M_B3_T_tujian_009
#

v  -106.4358 -99.8130 -16.2198
v  -107.3882 -99.8130 -12.7821
v  20.6383 -99.8130 103.8328
v  -29.9106 -99.8130 -101.7452
v  27.7432 -99.8130 105.8013
v  127.9468 -99.8130 -5.9843
v  66.1910 -99.8130 -62.4112
# 7 vertices

vn 0.0000 1.0000 -0.0000
# 1 vertex normals

vt 0.0000 0.4427 0.5000
vt 0.0000 0.4234 0.5000
vt 0.6758 0.0000 0.5000
vt 0.2227 0.9995 0.5000
vt 0.7080 0.0000 0.5000
vt 0.9998 0.7281 0.5000
vt 0.6736 0.9332 0.5000
# 7 texture coords

g M_B3_T_tujian_009
usemtl T_tujian_008
s 1
f 1/1/1 2/2/1 3/3/1 4/4/1 
f 3/3/1 5/5/1 6/6/1 7/7/1 
f 3/3/1 7/7/1 4/4/1 
# 2 polygons - 1 triangles

