# 3ds Max Wavefront OBJ Exporter v0.97b - (c)2007 guruware
# File Created: 07.02.2018 15:05:26

mtllib M_chukou_tongxin_T_shiti_show.mtl

#
# object M_chukou_tongxin_T_shiti
#

v  -53.2349 -2.6434 36.2189
v  -53.7716 -2.6434 36.2992
v  -53.6914 -2.6434 36.8360
v  -53.1546 -2.6434 36.7557
v  -53.6914 -2.8042 36.8360
v  -53.1546 -2.8042 36.7557
v  -53.2349 -2.8042 36.2189
v  -53.7716 -2.8042 36.2992
# 8 vertices

vn 0.0000 1.0000 -0.0000
vn 0.1479 0.0000 0.9890
vn 0.9890 0.0000 -0.1479
vn -0.9890 0.0000 0.1479
vn -0.1479 0.0000 -0.9890
# 5 vertex normals

vt 0.4733 0.7327 1.0000
vt 0.4733 0.7327 0.2460
vt 0.4733 0.7327 0.1991
vt 0.4733 0.7327 0.1957
vt 0.4733 0.7327 0.3540
# 5 texture coords

g M_chukou_tongxin_T_shiti
usemtl T_shiti
s 1
f 1/1/1 2/1/1 3/1/1 4/1/1 
s off
f 4/2/2 3/2/2 5/2/2 6/2/2 
f 1/3/3 4/3/3 6/3/3 7/3/3 
f 3/4/4 2/4/4 8/4/4 5/4/4 
f 2/5/5 1/5/5 7/5/5 8/5/5 
# 5 polygons

