# 3ds Max Wavefront OBJ Exporter v0.97b - (c)2007 guruware
# File Created: 07.02.2018 13:31:39

mtllib M_dianli2_T_dianli.mtl

#
# object M_dianli2_T_dianli
#

v  -49.4999 -3.8545 -18.4966
v  -94.6298 -3.8545 -11.7475
v  -94.6076 -3.8545 -11.5989
v  -49.4777 -3.8545 -18.3480
v  -48.8550 -3.4927 -18.5930
v  -48.8328 -3.4927 -18.4444
v  -36.2303 -3.4927 -20.4798
v  -36.2081 -3.4927 -20.3312
v  -35.6988 -3.8545 -20.5593
v  -35.6765 -3.8545 -20.4107
v  -0.5259 -3.8545 -25.8179
v  -0.5037 -3.8545 -25.6693
v  0.1267 -3.4927 -25.9155
v  0.1489 -3.4927 -25.7669
v  4.2032 -3.4927 -26.3729
v  4.2047 -3.4927 -26.5251
v  20.4829 -3.8545 -27.2335
v  19.8562 -3.4927 -27.1371
v  19.8784 -3.4927 -26.9885
v  20.5054 -3.8545 -27.0828
v  86.5802 -3.8545 -37.1133
v  86.6024 -3.8545 -36.9647
v  -49.4999 -3.3721 -18.4966
v  -94.6298 -3.3721 -11.7475
v  -94.6076 -3.3721 -11.5989
v  -49.4777 -3.3721 -18.3480
v  -48.8550 -3.0102 -18.5930
v  -48.8328 -3.0102 -18.4444
v  -36.2303 -3.0102 -20.4798
v  -36.2081 -3.0102 -20.3312
v  -35.6988 -3.3721 -20.5593
v  -35.6765 -3.3721 -20.4107
v  -0.5259 -3.3721 -25.8179
v  -0.5037 -3.3721 -25.6693
v  0.1267 -3.0102 -25.9155
v  0.1489 -3.0102 -25.7669
v  4.2032 -3.0102 -26.3729
v  4.2047 -3.0102 -26.5251
v  20.4829 -3.3721 -27.2335
v  19.8562 -3.0102 -27.1371
v  19.8784 -3.0102 -26.9885
v  20.5054 -3.3721 -27.0828
v  86.5802 -3.3721 -37.1133
v  86.6024 -3.3721 -36.9647
v  -49.4999 -3.5329 -18.4966
v  -94.6298 -3.5329 -11.7475
v  -94.6076 -3.5329 -11.5989
v  -49.4777 -3.5329 -18.3480
v  -48.8550 -3.1710 -18.5930
v  -48.8328 -3.1710 -18.4444
v  -36.2303 -3.1710 -20.4798
v  -36.2081 -3.1710 -20.3312
v  -35.6988 -3.5329 -20.5593
v  -35.6765 -3.5329 -20.4107
v  -0.5259 -3.5329 -25.8179
v  -0.5037 -3.5329 -25.6693
v  0.1267 -3.1710 -25.9155
v  0.1489 -3.1710 -25.7669
v  4.2032 -3.1710 -26.3729
v  4.2047 -3.1710 -26.5251
v  20.4829 -3.5329 -27.2335
v  19.8562 -3.1710 -27.1371
v  19.8784 -3.1710 -26.9885
v  20.5054 -3.5329 -27.0828
v  86.5802 -3.5329 -37.1133
v  86.6024 -3.5329 -36.9647
v  -49.4999 -3.6937 -18.4966
v  -94.6298 -3.6937 -11.7475
v  -94.6076 -3.6937 -11.5989
v  -49.4777 -3.6937 -18.3480
v  -48.8550 -3.3319 -18.5930
v  -48.8328 -3.3319 -18.4444
v  -36.2303 -3.3319 -20.4798
v  -36.2081 -3.3319 -20.3312
v  -35.6988 -3.6937 -20.5593
v  -35.6765 -3.6937 -20.4107
v  -0.5259 -3.6937 -25.8179
v  -0.5037 -3.6937 -25.6693
v  0.1267 -3.3319 -25.9155
v  0.1489 -3.3319 -25.7669
v  4.2032 -3.3319 -26.3729
v  4.2047 -3.3319 -26.5251
v  20.4829 -3.6937 -27.2335
v  19.8562 -3.3319 -27.1371
v  19.8784 -3.3319 -26.9885
v  20.5054 -3.6937 -27.0828
v  86.5802 -3.6937 -37.1133
v  86.6024 -3.6937 -36.9647
v  -49.5883 -3.6937 -19.0876
v  -94.7182 -3.6937 -12.3385
v  -94.6959 -3.6937 -12.1894
v  -49.5660 -3.6937 -18.9384
v  -48.9434 -3.3319 -19.1840
v  -48.9211 -3.3319 -19.0349
v  -36.3187 -3.3319 -21.0707
v  -36.2964 -3.3319 -20.9216
v  -35.7871 -3.6937 -21.1502
v  -35.7648 -3.6937 -21.0011
v  -0.6142 -3.6937 -26.4088
v  -0.5919 -3.6937 -26.2597
v  0.0383 -3.3319 -26.5064
v  0.0606 -3.3319 -26.3573
v  3.9864 -3.3319 -26.9442
v  3.9886 -3.3319 -27.0969
v  20.3945 -3.6937 -27.8245
v  19.7678 -3.3319 -27.7280
v  19.7901 -3.3319 -27.5789
v  20.4171 -3.6937 -27.6732
v  86.4918 -3.6937 -37.7042
v  86.5141 -3.6937 -37.5551
v  -49.5883 -3.8545 -19.0876
v  -94.7182 -3.8545 -12.3385
v  -94.6959 -3.8545 -12.1894
v  -49.5660 -3.8545 -18.9384
v  -48.9434 -3.4927 -19.1840
v  -48.9211 -3.4927 -19.0349
v  -36.3187 -3.4927 -21.0707
v  -36.2964 -3.4927 -20.9216
v  -35.7871 -3.8545 -21.1502
v  -35.7648 -3.8545 -21.0011
v  -0.6142 -3.8545 -26.4088
v  -0.5919 -3.8545 -26.2597
v  0.0383 -3.4927 -26.5064
v  0.0606 -3.4927 -26.3573
v  3.9864 -3.4927 -26.9442
v  3.9886 -3.4927 -27.0969
v  20.3945 -3.8545 -27.8245
v  19.7678 -3.4927 -27.7280
v  19.7901 -3.4927 -27.5789
v  20.4171 -3.8545 -27.6732
v  86.4918 -3.8545 -37.7042
v  86.5141 -3.8545 -37.5551
v  -49.5883 -3.3721 -19.0876
v  -94.7182 -3.3721 -12.3385
v  -94.6959 -3.3721 -12.1894
v  -49.5660 -3.3721 -18.9384
v  -48.9434 -3.0102 -19.1840
v  -48.9211 -3.0102 -19.0349
v  -36.3187 -3.0102 -21.0707
v  -36.2964 -3.0102 -20.9216
v  -35.7871 -3.3721 -21.1502
v  -35.7648 -3.3721 -21.0011
v  -0.6142 -3.3721 -26.4088
v  -0.5919 -3.3721 -26.2597
v  0.0383 -3.0102 -26.5064
v  0.0606 -3.0102 -26.3573
v  3.9864 -3.0102 -26.9442
v  3.9886 -3.0102 -27.0969
v  20.3945 -3.3721 -27.8245
v  19.7678 -3.0102 -27.7280
v  19.7901 -3.0102 -27.5789
v  20.4171 -3.3721 -27.6732
v  86.4918 -3.3721 -37.7042
v  86.5141 -3.3721 -37.5551
v  -49.5883 -3.5329 -19.0876
v  -94.7182 -3.5329 -12.3385
v  -94.6959 -3.5329 -12.1894
v  -49.5660 -3.5329 -18.9384
v  -48.9434 -3.1710 -19.1840
v  -48.9211 -3.1710 -19.0349
v  -36.3187 -3.1710 -21.0707
v  -36.2964 -3.1710 -20.9216
v  -35.7871 -3.5329 -21.1502
v  -35.7648 -3.5329 -21.0011
v  -0.6142 -3.5329 -26.4088
v  -0.5919 -3.5329 -26.2597
v  0.0383 -3.1710 -26.5064
v  0.0606 -3.1710 -26.3573
v  3.9864 -3.1710 -26.9442
v  3.9886 -3.1710 -27.0969
v  20.3945 -3.5329 -27.8245
v  19.7678 -3.1711 -27.7280
v  19.7901 -3.1711 -27.5789
v  20.4171 -3.5329 -27.6732
v  86.4918 -3.5329 -37.7042
v  86.5141 -3.5329 -37.5551
v  5.8105 -3.4927 -25.8619
v  5.8472 -3.4927 -26.0145
v  5.8105 -3.0102 -25.8619
v  5.8472 -3.0102 -26.0145
v  5.8105 -3.1710 -25.8619
v  5.8472 -3.1710 -26.0145
v  5.8105 -3.3319 -25.8619
v  5.8472 -3.3319 -26.0145
v  5.8754 -3.3319 -26.3560
v  5.9168 -3.3319 -26.4992
v  5.8754 -3.4927 -26.3560
v  5.9168 -3.4927 -26.4992
v  5.8754 -3.0102 -26.3560
v  5.9168 -3.0102 -26.4992
v  5.8754 -3.1710 -26.3560
v  5.9168 -3.1710 -26.4992
v  9.7746 -3.4927 -25.6300
v  9.7968 -3.4927 -25.4814
v  9.7746 -3.0102 -25.6300
v  9.7968 -3.0102 -25.4814
v  9.7746 -3.1710 -25.6300
v  9.7968 -3.1710 -25.4814
v  9.7746 -3.3319 -25.6300
v  9.7968 -3.3319 -25.4814
v  9.3267 -3.3319 -26.1672
v  9.3490 -3.3319 -26.0181
v  9.3267 -3.4927 -26.1672
v  9.3490 -3.4927 -26.0181
v  9.3267 -3.0102 -26.1672
v  9.3490 -3.0102 -26.0181
v  9.3267 -3.1710 -26.1672
v  9.3490 -3.1710 -26.0181
# 208 vertices

vn -0.0000 1.0000 -0.0000
vn -0.4799 0.8744 0.0717
vn 0.5523 0.8295 -0.0826
vn -0.4755 0.8768 0.0711
vn 0.0000 1.0000 -0.0000
vn 0.4902 0.8685 -0.0733
# 6 vertex normals

vt 0.7593 0.4449 0.0001
vt 1.0000 0.4449 0.0001
vt 1.0000 0.6139 0.0001
vt 0.7593 0.6139 0.0001
vt 0.2446 0.4449 1.0000
vt 0.7566 0.4449 0.0001
vt 0.7566 0.6139 0.0001
vt 0.2446 0.6139 1.0000
vt 0.6089 0.4449 1.0000
vt 0.7554 0.4449 1.0000
vt 0.7554 0.6139 1.0000
vt 0.6089 0.6139 1.0000
vt 0.4679 0.4449 0.0000
vt 0.6053 0.4449 0.0001
vt 0.6053 0.6139 0.0001
vt 0.4679 0.6139 0.0001
vt 0.4289 0.6139 1.0000
vt 0.4289 0.4449 1.0000
vt 0.4629 0.4449 1.0000
vt 0.4629 0.6139 1.0000
vt 0.0000 0.4449 0.0000
vt 0.2977 0.4449 0.0000
vt 0.2977 0.6139 0.0000
vt 0.0000 0.6139 0.0000
vt 0.4145 0.6139 1.0000
vt 0.4145 0.4449 1.0000
vt 0.3011 0.6139 0.9999
vt 0.3011 0.4449 0.9999
vt 0.3854 0.4449 1.0000
vt 0.3854 0.6139 1.0000
# 30 texture coords

g M_dianli2_T_dianli
usemtl T_dianli
s 1
f 1/1/1 2/2/1 3/3/1 4/4/1 
s 4
f 5/5/2 1/6/2 4/7/2 6/8/2 
s 2
f 7/9/1 5/10/1 6/11/1 8/12/1 
s 4
f 9/5/3 7/6/3 8/7/3 10/8/3 
s 2
f 11/13/1 9/14/1 10/15/1 12/16/1 
s 4
f 13/5/4 11/6/4 12/7/4 14/8/4 
s 2
f 15/17/5 16/18/5 13/19/1 14/20/1 
s 4
f 17/5/6 18/6/6 19/7/6 20/8/6 
s 2
f 21/21/1 17/22/1 20/23/1 22/24/1 
s 1
f 23/1/1 24/2/1 25/3/1 26/4/1 
s 4
f 27/5/2 23/6/2 26/7/2 28/8/2 
s 2
f 29/9/1 27/10/1 28/11/1 30/12/1 
s 4
f 31/5/3 29/6/3 30/7/3 32/8/3 
s 2
f 33/13/1 31/14/1 32/15/1 34/16/1 
s 4
f 35/5/4 33/6/4 34/7/4 36/8/4 
s 2
f 37/17/5 38/18/5 35/19/1 36/20/1 
s 4
f 39/5/6 40/6/6 41/7/6 42/8/6 
s 2
f 43/21/1 39/22/1 42/23/1 44/24/1 
s 1
f 45/1/1 46/2/1 47/3/1 48/4/1 
s 4
f 49/5/2 45/6/2 48/7/2 50/8/2 
s 2
f 51/9/1 49/10/1 50/11/1 52/12/1 
s 4
f 53/5/3 51/6/3 52/7/3 54/8/3 
s 2
f 55/13/1 53/14/1 54/15/1 56/16/1 
s 4
f 57/5/4 55/6/4 56/7/4 58/8/4 
s 2
f 59/17/5 60/18/5 57/19/1 58/20/1 
s 4
f 61/5/6 62/6/6 63/7/6 64/8/6 
s 2
f 65/21/1 61/22/1 64/23/1 66/24/1 
s 1
f 67/1/1 68/2/1 69/3/1 70/4/1 
s 4
f 71/5/2 67/6/2 70/7/2 72/8/2 
s 2
f 73/9/1 71/10/1 72/11/1 74/12/1 
s 4
f 75/5/3 73/6/3 74/7/3 76/8/3 
s 2
f 77/13/1 75/14/1 76/15/1 78/16/1 
s 4
f 79/5/4 77/6/4 78/7/4 80/8/4 
s 2
f 81/17/5 82/18/5 79/19/1 80/20/1 
s 4
f 83/5/6 84/6/6 85/7/6 86/8/6 
s 2
f 87/21/1 83/22/1 86/23/1 88/24/1 
s 1
f 89/1/1 90/2/1 91/3/1 92/4/1 
s 4
f 93/5/2 89/6/2 92/7/2 94/8/2 
s 2
f 95/9/1 93/10/1 94/11/1 96/12/1 
s 4
f 97/5/3 95/6/3 96/7/3 98/8/3 
s 2
f 99/13/1 97/14/1 98/15/1 100/16/1 
s 4
f 101/5/4 99/6/4 100/7/4 102/8/4 
s 2
f 103/17/5 104/18/5 101/19/1 102/20/1 
s 4
f 105/5/6 106/6/6 107/7/6 108/8/6 
s 2
f 109/21/1 105/22/1 108/23/1 110/24/1 
s 1
f 111/1/1 112/2/1 113/3/1 114/4/1 
s 4
f 115/5/2 111/6/2 114/7/2 116/8/2 
s 2
f 117/9/1 115/10/1 116/11/1 118/12/1 
s 4
f 119/5/3 117/6/3 118/7/3 120/8/3 
s 2
f 121/13/1 119/14/1 120/15/1 122/16/1 
s 4
f 123/5/4 121/6/4 122/7/4 124/8/4 
s 2
f 125/17/5 126/18/5 123/19/1 124/20/1 
s 4
f 127/5/6 128/6/6 129/7/6 130/8/6 
s 2
f 131/21/1 127/22/1 130/23/1 132/24/1 
s 1
f 133/1/1 134/2/1 135/3/1 136/4/1 
s 4
f 137/5/2 133/6/2 136/7/2 138/8/2 
s 2
f 139/9/1 137/10/1 138/11/1 140/12/1 
s 4
f 141/5/3 139/6/3 140/7/3 142/8/3 
s 2
f 143/13/1 141/14/1 142/15/1 144/16/1 
s 4
f 145/5/4 143/6/4 144/7/4 146/8/4 
s 2
f 147/17/5 148/18/5 145/19/1 146/20/1 
s 4
f 149/5/6 150/6/6 151/7/6 152/8/6 
s 2
f 153/21/1 149/22/1 152/23/1 154/24/1 
s 1
f 155/1/1 156/2/1 157/3/1 158/4/1 
s 4
f 159/5/2 155/6/2 158/7/2 160/8/2 
s 2
f 161/9/1 159/10/1 160/11/1 162/12/1 
s 4
f 163/5/3 161/6/3 162/7/3 164/8/3 
s 2
f 165/13/1 163/14/1 164/15/1 166/16/1 
s 4
f 167/5/4 165/6/4 166/7/4 168/8/4 
s 2
f 169/17/5 170/18/5 167/19/1 168/20/1 
s 4
f 171/5/6 172/6/6 173/7/6 174/8/6 
s 2
f 175/21/1 171/22/1 174/23/1 176/24/1 
f 15/17/5 177/25/5 178/26/5 16/18/5 
f 37/17/5 179/25/5 180/26/5 38/18/5 
f 59/17/5 181/25/5 182/26/5 60/18/5 
f 81/17/5 183/25/5 184/26/5 82/18/5 
f 103/17/5 185/25/5 186/26/5 104/18/5 
f 125/17/5 187/25/5 188/26/5 126/18/5 
f 147/17/5 189/25/5 190/26/5 148/18/5 
f 169/17/5 191/25/5 192/26/5 170/18/5 
f 19/27/1 18/28/1 193/29/5 194/30/5 
f 41/27/1 40/28/1 195/29/5 196/30/5 
f 63/27/1 62/28/1 197/29/5 198/30/5 
f 85/27/1 84/28/1 199/29/5 200/30/5 
f 107/27/1 106/28/1 201/29/5 202/30/5 
f 129/27/1 128/28/1 203/29/5 204/30/5 
f 151/27/1 150/28/1 205/29/5 206/30/5 
f 173/27/1 172/28/1 207/29/5 208/30/5 
f 177/25/5 194/30/5 193/29/5 178/26/5 
f 179/25/5 196/30/5 195/29/5 180/26/5 
f 181/25/5 198/30/5 197/29/5 182/26/5 
f 183/25/5 200/30/5 199/29/5 184/26/5 
f 185/25/5 202/30/5 201/29/5 186/26/5 
f 187/25/5 204/30/5 203/29/5 188/26/5 
f 189/25/5 206/30/5 205/29/5 190/26/5 
f 191/25/5 208/30/5 207/29/5 192/26/5 
# 96 polygons

