# 3ds Max Wavefront OBJ Exporter v0.97b - (c)2007 guruware
# File Created: 07.02.2018 14:36:06

mtllib M_dianli_T_dianli_show.mtl

#
# object M_dianli_T_dianli
#

v  -47.1936 -3.8545 34.9338
v  -85.6619 -3.8545 40.6869
v  -85.6360 -3.8545 40.8598
v  -47.1678 -3.8545 35.1068
v  -46.6597 -3.4926 34.8540
v  -46.6338 -3.4926 35.0269
v  -22.9389 -3.4926 31.3082
v  -22.9130 -3.4926 31.4811
v  -22.4645 -3.8545 31.2373
v  -22.4386 -3.8545 31.4102
v  -0.4182 -3.8545 27.9412
v  -0.3923 -3.8545 28.1142
v  0.1782 -3.4926 27.8521
v  0.2041 -3.4926 28.0250
v  26.0464 -3.4927 23.9849
v  26.0723 -3.4927 24.1579
v  26.5574 -3.8545 23.9058
v  26.5835 -3.8545 24.0809
v  74.8448 -3.8545 16.6889
v  74.8707 -3.8545 16.8618
v  -69.7851 -3.3720 37.7982
v  -69.8110 -3.3720 37.6253
v  -85.7630 -3.3720 40.0110
v  -85.7371 -3.3720 40.1839
v  -46.7607 -3.0102 34.1781
v  -47.2947 -3.3720 34.2579
v  -47.2688 -3.3720 34.4308
v  -46.7349 -3.0102 34.3510
v  -23.0399 -3.0102 30.6322
v  -23.0141 -3.0102 30.8052
v  -22.5655 -3.3720 30.5613
v  -22.5397 -3.3720 30.7343
v  -16.4302 -3.3720 29.8209
v  -16.4561 -3.3720 29.6479
v  0.0772 -3.0102 27.1761
v  -0.5193 -3.3720 27.2653
v  -0.4934 -3.3720 27.4383
v  0.1030 -3.0102 27.3491
v  25.9454 -3.0102 23.3090
v  25.9712 -3.0102 23.4819
v  26.4563 -3.3720 23.2299
v  26.4825 -3.3720 23.4050
v  27.6271 -3.3720 23.2339
v  27.6010 -3.3720 23.0588
v  30.7243 -3.3720 22.7708
v  74.7696 -3.3720 16.1859
v  74.7437 -3.3720 16.0130
v  30.4562 -3.3720 22.6321
v  -13.3171 -3.3720 29.3554
v  -13.5846 -3.3720 29.2186
v  -66.8370 -3.3720 37.3573
v  -67.1029 -3.3720 37.2203
v  -47.1936 -3.3720 34.9338
v  -85.6619 -3.3720 40.6869
v  -85.6360 -3.3720 40.8598
v  -47.1678 -3.3720 35.1068
v  -46.6597 -3.0102 34.8540
v  -46.6338 -3.0102 35.0269
v  -22.9389 -3.0102 31.3082
v  -22.9130 -3.0102 31.4811
v  -22.4645 -3.3720 31.2373
v  -22.4386 -3.3720 31.4102
v  -0.4182 -3.3720 27.9412
v  -0.3923 -3.3720 28.1142
v  0.1782 -3.0102 27.8521
v  0.2041 -3.0102 28.0250
v  26.0464 -3.0102 23.9849
v  26.0723 -3.0102 24.1579
v  26.5574 -3.3720 23.9058
v  26.5835 -3.3720 24.0809
v  74.8448 -3.3720 16.6889
v  74.8707 -3.3720 16.8618
v  -47.1936 -3.5329 34.9338
v  -85.6619 -3.5328 40.6869
v  -85.6360 -3.5328 40.8598
v  -47.1678 -3.5329 35.1068
v  -46.6597 -3.1710 34.8540
v  -46.6338 -3.1710 35.0269
v  -22.9389 -3.1710 31.3082
v  -22.9130 -3.1710 31.4811
v  -22.4645 -3.5328 31.2373
v  -22.4386 -3.5328 31.4102
v  -0.4182 -3.5328 27.9412
v  -0.3923 -3.5328 28.1142
v  0.1782 -3.1710 27.8521
v  0.2041 -3.1710 28.0250
v  26.0464 -3.1710 23.9849
v  26.0723 -3.1710 24.1579
v  26.5574 -3.5328 23.9058
v  26.5835 -3.5328 24.0809
v  74.8448 -3.5328 16.6889
v  74.8707 -3.5328 16.8618
v  -69.8834 -3.5328 37.8129
v  -69.6671 -3.5328 37.6038
v  -85.7630 -3.5328 40.0110
v  -85.7371 -3.5328 40.1839
v  -46.7607 -3.1710 34.1781
v  -47.2947 -3.5329 34.2579
v  -47.2688 -3.5329 34.4308
v  -46.7349 -3.1710 34.3510
v  -23.0399 -3.1710 30.6322
v  -23.0141 -3.1710 30.8052
v  -22.5655 -3.5328 30.5613
v  -22.5397 -3.5328 30.7343
v  -16.3652 -3.5328 29.8112
v  -16.1490 -3.5328 29.6020
v  0.0772 -3.1710 27.1761
v  -0.5193 -3.5328 27.2653
v  -0.4934 -3.5328 27.4383
v  0.1030 -3.1710 27.3491
v  25.9454 -3.1710 23.3090
v  25.9712 -3.1710 23.4819
v  26.4563 -3.5328 23.2299
v  26.4825 -3.5328 23.4050
v  27.6782 -3.5328 23.2262
v  27.8949 -3.5328 23.0149
v  -68.2305 -3.5328 37.5657
v  -68.2564 -3.5328 37.3927
v  -14.2772 -3.5328 29.3222
v  -14.2514 -3.5328 29.4951
v  74.7696 -3.5328 16.1859
v  74.7437 -3.5328 16.0130
v  29.4797 -3.5328 22.7780
v  29.5058 -3.5328 22.9530
v  -47.1936 -3.6937 34.9338
v  -85.6619 -3.6937 40.6869
v  -85.6360 -3.6937 40.8598
v  -47.1678 -3.6937 35.1068
v  -46.6597 -3.3318 34.8540
v  -46.6338 -3.3318 35.0269
v  -22.9389 -3.3318 31.3082
v  -22.9130 -3.3318 31.4811
v  -22.4645 -3.6937 31.2373
v  -22.4386 -3.6937 31.4102
v  -0.4182 -3.6937 27.9412
v  -0.3923 -3.6937 28.1142
v  0.1782 -3.3318 27.8521
v  0.2041 -3.3318 28.0250
v  26.0464 -3.3318 23.9849
v  26.0723 -3.3318 24.1579
v  26.5574 -3.6937 23.9058
v  26.5835 -3.6937 24.0809
v  74.8448 -3.6937 16.6889
v  74.8707 -3.6937 16.8618
v  -47.2947 -3.6937 34.2579
v  -85.7630 -3.6937 40.0110
v  -85.7371 -3.6937 40.1839
v  -47.2688 -3.6937 34.4308
v  -46.7607 -3.3318 34.1781
v  -46.7349 -3.3318 34.3510
v  -23.0399 -3.3318 30.6322
v  -23.0141 -3.3318 30.8052
v  -22.5655 -3.6937 30.5613
v  -22.5397 -3.6937 30.7343
v  -0.5193 -3.6937 27.2653
v  -0.4934 -3.6937 27.4383
v  0.0772 -3.3318 27.1761
v  0.1030 -3.3318 27.3491
v  25.9454 -3.3318 23.3090
v  25.9712 -3.3318 23.4819
v  26.4563 -3.6937 23.2299
v  26.4825 -3.6937 23.4050
v  74.7437 -3.6937 16.0130
v  74.7696 -3.6937 16.1859
v  -47.2947 -3.8545 34.2579
v  -85.7630 -3.8545 40.0110
v  -85.7371 -3.8545 40.1839
v  -47.2688 -3.8545 34.4308
v  -46.7607 -3.4926 34.1781
v  -46.7349 -3.4926 34.3510
v  -23.0399 -3.4926 30.6322
v  -23.0141 -3.4926 30.8052
v  -22.5655 -3.8545 30.5613
v  -22.5397 -3.8545 30.7343
v  -0.5193 -3.8545 27.2653
v  -0.4934 -3.8545 27.4383
v  0.0772 -3.4926 27.1761
v  0.1030 -3.4926 27.3491
v  25.9454 -3.4927 23.3090
v  25.9712 -3.4927 23.4819
v  26.4563 -3.8545 23.2299
v  26.4825 -3.8545 23.4050
v  74.7437 -3.8545 16.0130
v  74.7696 -3.8545 16.1859
v  -14.4192 -2.9744 29.8119
v  -15.0969 -2.9744 29.9132
v  -14.4626 -2.9744 34.1553
v  -13.7849 -2.9744 34.0540
v  29.6258 -2.9744 23.2265
v  28.9481 -2.9744 23.3278
v  29.5824 -2.9744 27.5699
v  30.2601 -2.9744 27.4686
v  -67.9373 -2.9744 37.8136
v  -68.6150 -2.9744 37.9149
v  -67.9808 -2.9744 42.1570
v  -67.3031 -2.9744 42.0557
v  -68.2489 -2.9851 37.5078
v  -67.8189 -2.9851 37.6103
v  -67.9437 -2.9720 37.9644
v  -68.2598 -2.9720 38.0116
v  -67.9919 -2.9851 37.3558
v  -67.6248 -2.9851 37.5042
v  -67.5589 -3.0719 37.2904
v  -67.2936 -3.0719 37.4334
v  -67.2863 -3.2817 37.2424
v  -67.0210 -3.2817 37.3855
v  -67.1028 -3.3720 37.2203
v  -68.3990 -2.9851 37.5302
v  -68.2491 -2.9720 38.0101
v  -68.5641 -2.9720 38.0572
v  -68.7803 -2.9851 37.7540
v  -68.6892 -2.9851 37.4601
v  -68.9968 -2.9851 37.7094
v  -69.1225 -3.0719 37.5242
v  -69.3343 -3.0719 37.7386
v  -69.3966 -3.4350 37.5645
v  -69.6084 -3.4350 37.7789
v  -69.6707 -3.5328 37.6048
v  -14.7367 -2.9851 29.5069
v  -14.3067 -2.9851 29.6095
v  -14.4222 -2.9720 29.9622
v  -14.7444 -2.9720 30.0103
v  -14.4797 -2.9851 29.3550
v  -14.1126 -2.9851 29.5034
v  -14.0467 -3.0719 29.2896
v  -13.7814 -3.0719 29.4326
v  -13.7727 -3.2817 29.2479
v  -13.5075 -3.2817 29.3910
v  -14.8868 -2.9851 29.5294
v  -14.7322 -2.9720 30.0085
v  -15.0544 -2.9720 30.0567
v  -15.2681 -2.9851 29.7532
v  -15.1770 -2.9851 29.4592
v  -15.4846 -2.9851 29.7085
v  -15.6103 -3.0719 29.5233
v  -15.8221 -3.0719 29.7377
v  -15.8844 -3.4350 29.5636
v  -16.0962 -3.4350 29.7780
v  -16.1585 -3.5253 29.6039
v  -16.3704 -3.5253 29.8183
v  29.3058 -2.9851 22.9220
v  29.7359 -2.9851 23.0245
v  29.6203 -2.9720 23.3772
v  29.2981 -2.9720 23.4254
v  29.5628 -2.9851 22.7700
v  29.9299 -2.9851 22.9184
v  29.9958 -3.0719 22.7046
v  30.2611 -3.0719 22.8476
v  30.2722 -3.2817 22.6603
v  30.5404 -3.2817 22.7990
v  29.1557 -2.9851 22.9444
v  29.3219 -2.9720 23.4218
v  28.9997 -2.9720 23.4700
v  28.7745 -2.9851 23.1682
v  28.8655 -2.9851 22.8743
v  28.5579 -2.9851 23.1236
v  28.4323 -3.0719 22.9384
v  28.2204 -3.0719 23.1528
v  28.1581 -3.4350 22.9787
v  27.9463 -3.4350 23.1931
# 260 vertices

vn -0.0000 1.0000 -0.0000
vn -0.5506 0.8307 0.0823
vn 0.5956 0.7983 -0.0891
vn -0.5088 0.8575 0.0761
vn 0.5671 0.8193 -0.0848
vn -0.0027 -0.9995 0.0304
vn -0.0081 -0.9994 0.0340
vn -0.0015 -0.9996 0.0296
vn 0.0039 -0.9997 0.0260
vn 0.0000 -1.0000 0.0000
vn -0.1577 -0.9310 0.3293
vn -0.1746 -0.9299 0.3237
vn -0.1516 -0.9313 0.3313
vn -0.1360 -0.9319 0.3364
vn -0.3674 -0.6331 0.6813
vn -0.3022 -0.7654 0.5682
vn -0.2919 -0.7709 0.5661
vn -0.2967 -0.7684 0.5671
vn -0.3069 -0.7628 0.5691
vn 0.0115 -0.9995 0.0284
vn 0.0102 -0.9996 0.0280
vn 0.0178 -0.9994 0.0303
vn -0.0000 -1.0000 0.0000
vn 0.2471 -0.9310 0.2688
vn 0.2285 -0.9319 0.2819
vn 0.2419 -0.9313 0.2725
vn 0.2616 -0.9299 0.2585
vn 0.6465 -0.4172 0.6387
vn 0.3563 -0.8631 0.3578
vn 0.3602 -0.8623 0.3559
vn 0.3561 -0.8632 0.3579
vn 0.3522 -0.8640 0.3598
vn -0.0027 -0.9995 0.0305
vn -0.0082 -0.9994 0.0343
vn -0.0016 -0.9996 0.0298
vn -0.3716 -0.6221 0.6891
vn -0.3717 -0.6221 0.6891
vn -0.2876 -0.7894 0.5424
vn -0.2763 -0.7948 0.5403
vn -0.2819 -0.7922 0.5413
vn -0.2931 -0.7866 0.5435
vn 0.0179 -0.9994 0.0304
vn 0.3390 -0.8792 0.3349
vn -0.0026 -0.9995 0.0305
vn -0.3613 -0.6317 0.6858
vn -0.3557 -0.6330 0.6876
vn -0.3631 -0.6313 0.6853
vn -0.3686 -0.6300 0.6835
vn -0.2924 -0.7715 0.5651
vn 0.0114 -0.9995 0.0282
vn 0.0101 -0.9996 0.0278
vn 0.0177 -0.9994 0.0301
vn 0.2285 -0.9318 0.2819
vn 0.3637 -0.8567 0.3657
vn 0.3682 -0.8556 0.3638
vn 0.3631 -0.8569 0.3659
vn 0.3587 -0.8579 0.3678
# 57 vertex normals

vt 0.7593 0.4449 0.0001
vt 1.0000 0.4449 0.0001
vt 1.0000 0.6139 0.0001
vt 0.7593 0.6139 0.0001
vt 0.2446 0.4449 1.0000
vt 0.7566 0.4449 0.0001
vt 0.7566 0.6139 0.0001
vt 0.2446 0.6139 1.0000
vt 0.6089 0.4449 1.0000
vt 0.7554 0.4449 1.0000
vt 0.7554 0.6139 1.0000
vt 0.6089 0.6139 1.0000
vt 0.4679 0.4449 0.0000
vt 0.6053 0.4449 0.0001
vt 0.6053 0.6139 0.0001
vt 0.4679 0.6139 0.0001
vt 0.3011 0.4449 0.9999
vt 0.4629 0.4449 1.0000
vt 0.4629 0.6139 1.0000
vt 0.3011 0.6139 0.9999
vt 0.0000 0.4449 0.0000
vt 0.2977 0.4449 0.0000
vt 0.2977 0.6139 0.0000
vt 0.0000 0.6139 0.0000
vt 0.9002 0.6139 0.0001
vt 0.9002 0.4449 0.0001
vt 0.5672 0.6139 0.0001
vt 0.5672 0.4449 0.0001
vt 0.2907 0.6139 0.0000
vt 0.2907 0.4449 0.0000
vt 0.2716 0.6139 0.0000
vt 0.2731 0.4449 0.0000
vt 0.5478 0.6139 0.0001
vt 0.5493 0.4449 0.0001
vt 0.8817 0.6139 0.0001
vt 0.8832 0.4449 0.0001
vt 0.9008 0.6139 0.0001
vt 0.8993 0.4449 0.0001
vt 0.5668 0.6139 0.0001
vt 0.5653 0.4449 0.0001
vt 0.2904 0.6139 0.0000
vt 0.2889 0.4449 0.0000
vt 0.8831 0.4449 0.0001
vt 0.5537 0.4449 0.0001
vt 0.5537 0.6139 0.0001
vt 0.2791 0.4449 0.0000
vt 0.2791 0.6139 0.0000
vt 0.0000 0.9721 0.5000
vt -0.0000 0.8097 0.5000
vt 1.0000 0.8097 0.5000
vt 1.0000 0.9721 0.5000
vt 0.9474 0.3319 0.9764
vt 0.6924 0.2313 0.9764
vt 0.8065 0.0178 1.0000
vt 1.0081 0.0178 1.0000
vt 0.7694 0.3972 0.9764
vt 0.5588 0.2768 0.9775
vt 0.5358 0.3976 0.8195
vt 0.3799 0.2864 0.8219
vt 0.3575 0.3980 0.1633
vt 0.2002 0.2864 0.1669
vt 0.1793 0.3984 0.0000
vt 0.0256 0.2864 0.0049
vt 0.8049 0.0178 1.0000
vt 1.0091 0.0178 1.0000
vt 0.7994 0.0178 1.0000
# 66 texture coords

g M_dianli_T_dianli
usemtl Material__1
s 1
f 1/1/1 2/2/1 3/3/1 4/4/1 
s 4
f 5/5/2 1/6/2 4/7/2 6/8/2 
s 2
f 7/9/1 5/10/1 6/11/1 8/12/1 
s 4
f 9/5/3 7/6/3 8/7/3 10/8/3 
s 2
f 11/13/1 9/14/1 10/15/1 12/16/1 
s 4
f 13/5/4 11/6/4 12/7/4 14/8/4 
s 2
f 15/17/1 13/18/1 14/19/1 16/20/1 
s 4
f 17/5/5 15/6/5 16/7/5 18/8/5 
s 2
f 19/21/1 17/22/1 18/23/1 20/24/1 
s 1
f 21/25/1 22/26/1 23/2/1 24/3/1 
s 4
f 25/5/2 26/6/2 27/7/2 28/8/2 
s 2
f 29/9/1 25/10/1 28/11/1 30/12/1 
s 4
f 31/5/3 29/6/3 30/7/3 32/8/3 
s 2
f 33/27/1 34/28/1 31/14/1 32/15/1 
s 4
f 35/5/4 36/6/4 37/7/4 38/8/4 
s 2
f 39/17/1 35/18/1 38/19/1 40/20/1 
s 4
f 41/5/5 39/6/5 40/7/5 42/8/5 
s 2
f 43/29/1 44/30/1 41/22/1 42/23/1 
f 45/31/1 46/24/1 47/21/1 48/32/1 
f 49/33/1 37/16/1 36/13/1 50/34/1 
s 1
f 51/35/1 27/4/1 26/1/1 52/36/1 
f 53/1/1 54/2/1 55/3/1 56/4/1 
s 4
f 57/5/2 53/6/2 56/7/2 58/8/2 
s 2
f 59/9/1 57/10/1 58/11/1 60/12/1 
s 4
f 61/5/3 59/6/3 60/7/3 62/8/3 
s 2
f 63/13/1 61/14/1 62/15/1 64/16/1 
s 4
f 65/5/4 63/6/4 64/7/4 66/8/4 
s 2
f 67/17/1 65/18/1 66/19/1 68/20/1 
s 4
f 69/5/5 67/6/5 68/7/5 70/8/5 
s 2
f 71/21/1 69/22/1 70/23/1 72/24/1 
s 1
f 73/1/1 74/2/1 75/3/1 76/4/1 
s 4
f 77/5/2 73/6/2 76/7/2 78/8/2 
s 2
f 79/9/1 77/10/1 78/11/1 80/12/1 
s 4
f 81/5/3 79/6/3 80/7/3 82/8/3 
s 2
f 83/13/1 81/14/1 82/15/1 84/16/1 
s 4
f 85/5/4 83/6/4 84/7/4 86/8/4 
s 2
f 87/17/1 85/18/1 86/19/1 88/20/1 
s 4
f 89/5/5 87/6/5 88/7/5 90/8/5 
s 2
f 91/21/1 89/22/1 90/23/1 92/24/1 
s 1
f 93/37/1 94/38/1 95/2/1 96/3/1 
s 4
f 97/5/2 98/6/2 99/7/2 100/8/2 
s 2
f 101/9/1 97/10/1 100/11/1 102/12/1 
s 4
f 103/5/3 101/6/3 102/7/3 104/8/3 
s 2
f 105/39/1 106/40/1 103/14/1 104/15/1 
s 4
f 107/5/4 108/6/4 109/7/4 110/8/4 
s 2
f 111/17/1 107/18/1 110/19/1 112/20/1 
s 4
f 113/5/5 111/6/5 112/7/5 114/8/5 
s 2
f 115/41/1 116/42/1 113/22/1 114/23/1 
s 1
f 117/35/1 99/4/1 98/1/1 118/43/1 
s 2
f 109/16/1 108/13/1 119/44/1 120/45/1 
f 121/24/1 122/21/1 123/46/1 124/47/1 
s 1
f 125/1/1 126/2/1 127/3/1 128/4/1 
s 4
f 129/5/2 125/6/2 128/7/2 130/8/2 
s 2
f 131/9/1 129/10/1 130/11/1 132/12/1 
s 4
f 133/5/3 131/6/3 132/7/3 134/8/3 
s 2
f 135/13/1 133/14/1 134/15/1 136/16/1 
s 4
f 137/5/4 135/6/4 136/7/4 138/8/4 
s 2
f 139/17/1 137/18/1 138/19/1 140/20/1 
s 4
f 141/5/5 139/6/5 140/7/5 142/8/5 
s 2
f 143/21/1 141/22/1 142/23/1 144/24/1 
s 1
f 145/1/1 146/2/1 147/3/1 148/4/1 
s 4
f 149/5/2 145/6/2 148/7/2 150/8/2 
s 2
f 151/9/1 149/10/1 150/11/1 152/12/1 
s 4
f 153/5/3 151/6/3 152/7/3 154/8/3 
s 2
f 155/13/1 153/14/1 154/15/1 156/16/1 
s 4
f 157/5/4 155/6/4 156/7/4 158/8/4 
s 2
f 159/17/1 157/18/1 158/19/1 160/20/1 
s 4
f 161/5/5 159/6/5 160/7/5 162/8/5 
s 2
f 163/21/1 161/22/1 162/23/1 164/24/1 
s 1
f 165/1/1 166/2/1 167/3/1 168/4/1 
s 4
f 169/5/2 165/6/2 168/7/2 170/8/2 
s 2
f 171/9/1 169/10/1 170/11/1 172/12/1 
s 4
f 173/5/3 171/6/3 172/7/3 174/8/3 
s 2
f 175/13/1 173/14/1 174/15/1 176/16/1 
s 4
f 177/5/4 175/6/4 176/7/4 178/8/4 
s 2
f 179/17/1 177/18/1 178/19/1 180/20/1 
s 4
f 181/5/5 179/6/5 180/7/5 182/8/5 
s 2
f 183/21/1 181/22/1 182/23/1 184/24/1 
s 1
f 185/48/1 186/49/1 187/50/1 188/51/1 
f 189/48/1 190/49/1 191/50/1 192/51/1 
f 193/48/1 194/49/1 195/50/1 196/51/1 
f 197/52/6 198/53/7 199/54/8 200/55/9 
s 4
f 201/56/10 202/57/10 198/53/10 197/52/10 
s 2
f 203/58/11 204/59/12 202/57/13 201/56/14 
s 4
f 205/60/15 206/61/15 204/59/15 203/58/15 
s 2
f 207/62/16 51/63/17 206/61/18 205/60/19 
s 1
f 208/52/20 209/55/9 210/54/21 211/53/22 
s 4
f 212/56/23 208/52/23 211/53/23 213/57/23 
s 2
f 214/58/24 212/56/25 213/57/26 215/59/27 
s 4
f 216/60/28 214/58/28 215/59/28 217/61/28 
s 2
f 218/62/29 216/60/30 217/61/31 93/63/32 
s 1
f 219/52/33 220/53/34 221/64/35 222/65/9 
s 4
f 223/56/10 224/57/10 220/53/10 219/52/10 
s 2
f 225/58/11 226/59/12 224/57/13 223/56/14 
s 4
f 227/60/36 228/61/37 226/59/36 225/58/36 
s 2
f 50/62/38 49/63/39 228/61/40 227/60/41 
s 1
f 229/52/20 230/65/9 231/66/21 232/53/42 
s 4
f 233/56/23 229/52/23 232/53/23 234/57/23 
s 2
f 235/58/24 233/56/25 234/57/26 236/59/27 
s 4
f 237/60/28 235/58/28 236/59/28 238/61/28 
s 2
f 239/62/43 237/60/43 238/61/43 240/63/43 
s 1
f 241/52/44 242/53/34 243/54/35 244/55/9 
s 4
f 245/56/10 246/57/10 242/53/10 241/52/10 
s 2
f 247/58/11 248/59/12 246/57/13 245/56/14 
s 4
f 249/60/45 250/61/46 248/59/47 247/58/48 
s 2
f 48/62/49 45/63/49 250/61/49 249/60/49 
s 1
f 251/52/50 252/55/9 253/54/51 254/53/52 
s 4
f 255/56/23 251/52/23 254/53/23 256/57/23 
s 2
f 257/58/24 255/56/53 256/57/26 258/59/27 
s 4
f 259/60/28 257/58/28 258/59/28 260/61/28 
s 2
f 116/62/54 259/60/55 260/61/56 115/63/57 
# 111 polygons

