# 3ds Max Wavefront OBJ Exporter v0.97b - (c)2007 guruware
# File Created: 07.02.2018 14:44:14

mtllib M_dianlizhijia2_T_zhijia_show.mtl

#
# object M_dianlizhijia2_T_zhijia
#

v  38.7411 -3.9157 -29.7985
v  38.7411 -3.3780 -29.7985
v  38.6262 -3.3780 -30.5668
v  38.6262 -3.9157 -30.5668
v  41.2857 -3.9157 -30.1790
v  41.2857 -3.3780 -30.1790
v  41.1709 -3.3780 -30.9473
v  41.1709 -3.9157 -30.9473
v  43.8304 -3.9157 -30.5595
v  43.8304 -3.3780 -30.5595
v  43.7156 -3.3780 -31.3277
v  43.7156 -3.9157 -31.3277
v  46.3751 -3.9157 -30.9399
v  46.3751 -3.3780 -30.9399
v  46.2603 -3.3780 -31.7082
v  46.2603 -3.9157 -31.7082
v  48.9198 -3.9157 -31.3204
v  48.9198 -3.3780 -31.3204
v  48.8050 -3.3780 -32.0887
v  48.8050 -3.9157 -32.0887
v  51.4645 -3.9157 -31.7009
v  51.4645 -3.3780 -31.7009
v  51.3497 -3.3780 -32.4691
v  51.3497 -3.9157 -32.4691
v  54.0092 -3.9157 -32.0813
v  54.0092 -3.3780 -32.0813
v  53.8943 -3.3780 -32.8496
v  53.8943 -3.9157 -32.8496
v  56.5539 -3.9157 -32.4618
v  56.5539 -3.3780 -32.4618
v  56.4390 -3.3780 -33.2301
v  56.4390 -3.9157 -33.2301
v  59.0986 -3.9157 -32.8423
v  59.0986 -3.3780 -32.8423
v  58.9837 -3.3780 -33.6105
v  58.9837 -3.9157 -33.6105
v  61.6433 -3.9157 -33.2227
v  61.6433 -3.3780 -33.2227
v  61.5285 -3.3780 -33.9910
v  61.5285 -3.9157 -33.9910
v  64.1880 -3.9157 -33.6032
v  64.1880 -3.3780 -33.6032
v  64.0732 -3.3780 -34.3715
v  64.0732 -3.9157 -34.3715
v  66.7327 -3.9157 -33.9837
v  66.7327 -3.3780 -33.9837
v  66.6178 -3.3780 -34.7519
v  66.6178 -3.9157 -34.7519
v  69.2774 -3.9157 -34.3641
v  69.2774 -3.3780 -34.3641
v  69.1625 -3.3780 -35.1324
v  69.1625 -3.9157 -35.1324
v  71.8221 -3.9157 -34.7446
v  71.8221 -3.3780 -34.7446
v  71.7072 -3.3780 -35.5129
v  71.7072 -3.9157 -35.5129
v  74.3668 -3.9157 -35.1251
v  74.3668 -3.3780 -35.1251
v  74.2519 -3.3780 -35.8933
v  74.2519 -3.9157 -35.8933
v  76.9115 -3.9157 -35.5055
v  76.9115 -3.3780 -35.5055
v  76.7966 -3.3780 -36.2738
v  76.7966 -3.9157 -36.2738
v  86.4489 -3.9157 -36.9315
v  86.4489 -3.3780 -36.9315
v  86.3340 -3.3780 -37.6998
v  86.3340 -3.9157 -37.6998
v  79.4562 -3.9157 -35.8860
v  79.4562 -3.3780 -35.8860
v  79.3413 -3.3780 -36.6543
v  79.3413 -3.9157 -36.6543
v  82.0009 -3.9157 -36.2665
v  82.0009 -3.3780 -36.2665
v  81.8860 -3.3780 -37.0347
v  81.8860 -3.9157 -37.0347
v  84.5456 -3.9157 -36.6469
v  84.5456 -3.3780 -36.6469
v  84.4307 -3.3780 -37.4152
v  84.4307 -3.9157 -37.4152
v  23.4729 -3.9157 -27.5157
v  23.4729 -3.3780 -27.5157
v  23.3580 -3.3780 -28.2840
v  23.3580 -3.9157 -28.2840
v  26.0176 -3.9157 -27.8962
v  26.0176 -3.3780 -27.8962
v  25.9027 -3.3780 -28.6645
v  25.9027 -3.9157 -28.6645
v  28.5623 -3.9157 -28.2767
v  28.5623 -3.3780 -28.2767
v  28.4474 -3.3780 -29.0449
v  28.4474 -3.9157 -29.0449
v  31.1070 -3.9157 -28.6571
v  31.1070 -3.3780 -28.6571
v  30.9921 -3.3780 -29.4254
v  30.9921 -3.9157 -29.4254
v  33.6516 -3.9157 -29.0376
v  33.6516 -3.3780 -29.0376
v  33.5368 -3.3780 -29.8059
v  33.5368 -3.9157 -29.8059
v  36.1963 -3.9157 -29.4181
v  36.1963 -3.3780 -29.4181
v  36.0815 -3.3780 -30.1863
v  36.0815 -3.9157 -30.1863
v  20.6049 -3.9157 -27.0869
v  20.6049 -3.3780 -27.0869
v  20.4900 -3.3780 -27.8552
v  20.4900 -3.9157 -27.8552
v  4.3077 -3.5531 -26.3216
v  4.3077 -3.0162 -26.3216
v  4.5904 -3.0162 -26.9214
v  4.5904 -3.5531 -26.9214
v  5.5363 -3.5531 -25.9401
v  5.5363 -3.0162 -25.9401
v  5.8190 -3.0162 -26.5399
v  5.8190 -3.5531 -26.5399
v  7.2217 -3.5531 -25.7146
v  7.2217 -3.0162 -25.7146
v  7.3681 -3.0162 -26.3683
v  7.3681 -3.5531 -26.3683
v  9.7106 -3.5531 -25.4580
v  9.7106 -3.0162 -25.4580
v  9.5957 -3.0162 -26.2263
v  9.5957 -3.5531 -26.2263
v  11.5129 -3.5531 -25.7275
v  11.5129 -3.0162 -25.7275
v  11.3980 -3.0162 -26.4958
v  11.3980 -3.5531 -26.4958
v  13.5275 -3.5531 -26.0287
v  13.5275 -3.0162 -26.0287
v  13.4126 -3.0162 -26.7970
v  13.4126 -3.5531 -26.7970
v  15.5420 -3.5531 -26.3299
v  15.5420 -3.0162 -26.3299
v  15.4271 -3.0162 -27.0982
v  15.4271 -3.5531 -27.0982
v  17.5565 -3.5531 -26.6311
v  17.5565 -3.0162 -26.6311
v  17.4417 -3.0162 -27.3994
v  17.4417 -3.5531 -27.3994
v  19.5711 -3.5531 -26.9323
v  19.5711 -3.0162 -26.9323
v  19.4562 -3.0162 -27.7006
v  19.4562 -3.5531 -27.7006
v  2.7849 -3.5531 -26.1409
v  2.7849 -3.0162 -26.1409
v  2.6701 -3.0162 -26.9092
v  2.6701 -3.5531 -26.9092
v  0.2402 -3.5531 -25.7604
v  0.2402 -3.0162 -25.7604
v  0.1254 -3.0162 -26.5287
v  0.1254 -3.5531 -26.5287
v  -35.2905 -3.9157 -20.4511
v  -35.2905 -3.3780 -20.4511
v  -35.4054 -3.3780 -21.2194
v  -35.4054 -3.9157 -21.2194
v  -33.0587 -3.9157 -20.7848
v  -33.0587 -3.3780 -20.7848
v  -33.1736 -3.3780 -21.5531
v  -33.1736 -3.9157 -21.5531
v  -30.5140 -3.9157 -21.1652
v  -30.5140 -3.3780 -21.1652
v  -30.6289 -3.3780 -21.9335
v  -30.6289 -3.9157 -21.9335
v  -27.9693 -3.9157 -21.5457
v  -27.9693 -3.3780 -21.5457
v  -28.0842 -3.3780 -22.3140
v  -28.0842 -3.9157 -22.3140
v  -25.4246 -3.9157 -21.9262
v  -25.4246 -3.3780 -21.9262
v  -25.5395 -3.3780 -22.6945
v  -25.5395 -3.9157 -22.6945
v  -22.8799 -3.9157 -22.3067
v  -22.8799 -3.3780 -22.3067
v  -22.9948 -3.3780 -23.0749
v  -22.9948 -3.9157 -23.0749
v  -20.3352 -3.9157 -22.6871
v  -20.3352 -3.3780 -22.6871
v  -20.4501 -3.3780 -23.4554
v  -20.4501 -3.9157 -23.4554
v  -17.7905 -3.9157 -23.0676
v  -17.7905 -3.3780 -23.0676
v  -17.9054 -3.3780 -23.8359
v  -17.9054 -3.9157 -23.8359
v  -15.2458 -3.9157 -23.4481
v  -15.2458 -3.3780 -23.4481
v  -15.3607 -3.3780 -24.2163
v  -15.3607 -3.9157 -24.2163
v  -12.7011 -3.9157 -23.8285
v  -12.7011 -3.3780 -23.8285
v  -12.8160 -3.3780 -24.5968
v  -12.8160 -3.9157 -24.5968
v  -10.1564 -3.9157 -24.2090
v  -10.1564 -3.3780 -24.2090
v  -10.2713 -3.3780 -24.9773
v  -10.2713 -3.9157 -24.9773
v  -0.6190 -3.9157 -25.6350
v  -0.6190 -3.3780 -25.6350
v  -0.7339 -3.3780 -26.4032
v  -0.7339 -3.9157 -26.4032
v  -7.6117 -3.9157 -24.5895
v  -7.6117 -3.3780 -24.5895
v  -7.7266 -3.3780 -25.3577
v  -7.7266 -3.9157 -25.3577
v  -5.0670 -3.9157 -24.9699
v  -5.0670 -3.3780 -24.9699
v  -5.1819 -3.3780 -25.7382
v  -5.1819 -3.9157 -25.7382
v  -2.5223 -3.9157 -25.3504
v  -2.5223 -3.3780 -25.3504
v  -2.6372 -3.3780 -26.1187
v  -2.6372 -3.9157 -26.1187
v  -94.4150 -3.9157 -11.6112
v  -94.4150 -3.3780 -11.6112
v  -94.5298 -3.3780 -12.3794
v  -94.5298 -3.9157 -12.3794
v  -92.1831 -3.9157 -11.9449
v  -92.1831 -3.3780 -11.9449
v  -92.2980 -3.3780 -12.7131
v  -92.2980 -3.9157 -12.7131
v  -89.6384 -3.9157 -12.3253
v  -89.6384 -3.3780 -12.3253
v  -89.7533 -3.3780 -13.0936
v  -89.7533 -3.9157 -13.0936
v  -87.0937 -3.9157 -12.7058
v  -87.0937 -3.3780 -12.7058
v  -87.2086 -3.3780 -13.4741
v  -87.2086 -3.9157 -13.4741
v  -84.5490 -3.9157 -13.0863
v  -84.5490 -3.3780 -13.0863
v  -84.6639 -3.3780 -13.8545
v  -84.6639 -3.9157 -13.8545
v  -82.0043 -3.9157 -13.4667
v  -82.0043 -3.3780 -13.4667
v  -82.1192 -3.3780 -14.2350
v  -82.1192 -3.9157 -14.2350
v  -79.4596 -3.9157 -13.8472
v  -79.4596 -3.3780 -13.8472
v  -79.5745 -3.3780 -14.6155
v  -79.5745 -3.9157 -14.6155
v  -76.9149 -3.9157 -14.2277
v  -76.9149 -3.3780 -14.2277
v  -77.0298 -3.3780 -14.9959
v  -77.0298 -3.9157 -14.9959
v  -74.3702 -3.9157 -14.6081
v  -74.3702 -3.3780 -14.6081
v  -74.4851 -3.3780 -15.3764
v  -74.4851 -3.9157 -15.3764
v  -71.8255 -3.9157 -14.9886
v  -71.8255 -3.3780 -14.9886
v  -71.9404 -3.3780 -15.7569
v  -71.9404 -3.9157 -15.7569
v  -69.2808 -3.9157 -15.3691
v  -69.2808 -3.3780 -15.3691
v  -69.3957 -3.3780 -16.1373
v  -69.3957 -3.9157 -16.1373
v  -66.7361 -3.9157 -15.7495
v  -66.7361 -3.3780 -15.7495
v  -66.8510 -3.3780 -16.5178
v  -66.8510 -3.9157 -16.5178
v  -64.1914 -3.9157 -16.1300
v  -64.1914 -3.3780 -16.1300
v  -64.3063 -3.3780 -16.8983
v  -64.3063 -3.9157 -16.8983
v  -61.6467 -3.9157 -16.5105
v  -61.6467 -3.3780 -16.5105
v  -61.7616 -3.3780 -17.2787
v  -61.7616 -3.9157 -17.2787
v  -59.1021 -3.9157 -16.8909
v  -59.1021 -3.3780 -16.8909
v  -59.2169 -3.3780 -17.6592
v  -59.2169 -3.9157 -17.6592
v  -49.5647 -3.9157 -18.3169
v  -49.5647 -3.3780 -18.3169
v  -49.6795 -3.3780 -19.0852
v  -49.6795 -3.9157 -19.0852
v  -56.5574 -3.9157 -17.2714
v  -56.5574 -3.3780 -17.2714
v  -56.6722 -3.3780 -18.0397
v  -56.6722 -3.9157 -18.0397
v  -54.0127 -3.9157 -17.6519
v  -54.0127 -3.3780 -17.6519
v  -54.1275 -3.3780 -18.4201
v  -54.1275 -3.9157 -18.4201
v  -51.4680 -3.9157 -18.0323
v  -51.4680 -3.3780 -18.0323
v  -51.5828 -3.3780 -18.8006
v  -51.5828 -3.9157 -18.8006
v  -48.5627 -3.5531 -18.4667
v  -48.5627 -3.0162 -18.4667
v  -48.6776 -3.0162 -19.2350
v  -48.6776 -3.5531 -19.2350
v  -46.5481 -3.5531 -18.7679
v  -46.5481 -3.0162 -18.7679
v  -46.6630 -3.0162 -19.5362
v  -46.6630 -3.5531 -19.5362
v  -44.5336 -3.5531 -19.0691
v  -44.5336 -3.0162 -19.0691
v  -44.6485 -3.0162 -19.8374
v  -44.6485 -3.5531 -19.8374
v  -42.5190 -3.5531 -19.3703
v  -42.5190 -3.0162 -19.3703
v  -42.6339 -3.0162 -20.1386
v  -42.6339 -3.5531 -20.1386
v  -40.5045 -3.5531 -19.6715
v  -40.5045 -3.0162 -19.6715
v  -40.6194 -3.0162 -20.4398
v  -40.6194 -3.5531 -20.4398
v  -38.4899 -3.5531 -19.9727
v  -38.4899 -3.0162 -19.9727
v  -38.6048 -3.0162 -20.7410
v  -38.6048 -3.5531 -20.7410
v  -36.4754 -3.5531 -20.2739
v  -36.4754 -3.0162 -20.2739
v  -36.5903 -3.0162 -21.0422
v  -36.5903 -3.5531 -21.0422
# 316 vertices

vn -0.9890 -0.0000 0.1479
vn -0.9046 -0.0000 -0.4263
vn -0.9758 -0.0000 -0.2186
# 3 vertex normals

vt 0.5115 0.0000 1.0000
vt 0.5115 1.0000 0.0000
vt 0.0000 1.0000 0.0000
vt -0.0000 0.0000 1.0000
vt 0.5115 1.0000 -0.0000
vt 0.0000 1.0000 -0.0000
vt 0.0000 0.0000 1.0000
vt 0.5113 0.0015 0.9985
vt 0.5113 1.0000 0.0000
vt 0.0000 0.0015 0.9985
# 10 texture coords

g M_dianlizhijia2_T_zhijia
usemtl T_zhijia
s 1
f 1/1/1 2/2/1 3/3/1 4/4/1 
f 5/1/1 6/2/1 7/3/1 8/4/1 
f 9/1/1 10/2/1 11/3/1 12/4/1 
f 13/1/1 14/2/1 15/3/1 16/4/1 
f 17/1/1 18/2/1 19/3/1 20/4/1 
f 21/1/1 22/2/1 23/3/1 24/4/1 
f 25/1/1 26/2/1 27/3/1 28/4/1 
f 29/1/1 30/2/1 31/3/1 32/4/1 
f 33/1/1 34/2/1 35/3/1 36/4/1 
f 37/1/1 38/2/1 39/3/1 40/4/1 
f 41/1/1 42/2/1 43/3/1 44/4/1 
f 45/1/1 46/2/1 47/3/1 48/4/1 
f 49/1/1 50/2/1 51/3/1 52/4/1 
f 53/1/1 54/2/1 55/3/1 56/4/1 
f 57/1/1 58/2/1 59/3/1 60/4/1 
f 61/1/1 62/2/1 63/3/1 64/4/1 
f 65/1/1 66/2/1 67/3/1 68/4/1 
f 69/1/1 70/2/1 71/3/1 72/4/1 
f 73/1/1 74/2/1 75/3/1 76/4/1 
f 77/1/1 78/2/1 79/3/1 80/4/1 
f 81/1/1 82/5/1 83/6/1 84/7/1 
f 85/1/1 86/5/1 87/6/1 88/7/1 
f 89/1/1 90/5/1 91/6/1 92/7/1 
f 93/1/1 94/5/1 95/6/1 96/7/1 
f 97/1/1 98/5/1 99/6/1 100/7/1 
f 101/1/1 102/5/1 103/6/1 104/7/1 
f 105/1/1 106/5/1 107/6/1 108/7/1 
f 109/8/2 110/9/2 111/3/2 112/10/2 
f 113/8/2 114/9/2 115/3/2 116/10/2 
f 117/8/3 118/9/3 119/3/3 120/10/3 
f 121/8/1 122/9/1 123/3/1 124/10/1 
f 125/8/1 126/9/1 127/3/1 128/10/1 
f 129/8/1 130/9/1 131/3/1 132/10/1 
f 133/8/1 134/9/1 135/3/1 136/10/1 
f 137/8/1 138/9/1 139/3/1 140/10/1 
f 141/8/1 142/9/1 143/3/1 144/10/1 
f 145/8/1 146/9/1 147/3/1 148/10/1 
f 149/8/1 150/9/1 151/3/1 152/10/1 
f 153/1/1 154/2/1 155/3/1 156/4/1 
f 157/1/1 158/2/1 159/3/1 160/4/1 
f 161/1/1 162/2/1 163/3/1 164/4/1 
f 165/1/1 166/2/1 167/3/1 168/4/1 
f 169/1/1 170/2/1 171/3/1 172/4/1 
f 173/1/1 174/2/1 175/3/1 176/4/1 
f 177/1/1 178/2/1 179/3/1 180/4/1 
f 181/1/1 182/2/1 183/3/1 184/4/1 
f 185/1/1 186/2/1 187/3/1 188/4/1 
f 189/1/1 190/2/1 191/3/1 192/4/1 
f 193/1/1 194/2/1 195/3/1 196/4/1 
f 197/1/1 198/2/1 199/3/1 200/4/1 
f 201/1/1 202/2/1 203/3/1 204/4/1 
f 205/1/1 206/2/1 207/3/1 208/4/1 
f 209/1/1 210/2/1 211/3/1 212/4/1 
f 213/1/1 214/2/1 215/3/1 216/4/1 
f 217/1/1 218/2/1 219/3/1 220/4/1 
f 221/1/1 222/2/1 223/3/1 224/4/1 
f 225/1/1 226/2/1 227/3/1 228/4/1 
f 229/1/1 230/2/1 231/3/1 232/4/1 
f 233/1/1 234/2/1 235/3/1 236/4/1 
f 237/1/1 238/2/1 239/3/1 240/4/1 
f 241/1/1 242/2/1 243/3/1 244/4/1 
f 245/1/1 246/2/1 247/3/1 248/4/1 
f 249/1/1 250/2/1 251/3/1 252/4/1 
f 253/1/1 254/2/1 255/3/1 256/4/1 
f 257/1/1 258/2/1 259/3/1 260/4/1 
f 261/1/1 262/2/1 263/3/1 264/4/1 
f 265/1/1 266/2/1 267/3/1 268/4/1 
f 269/1/1 270/2/1 271/3/1 272/4/1 
f 273/1/1 274/2/1 275/3/1 276/4/1 
f 277/1/1 278/2/1 279/3/1 280/4/1 
f 281/1/1 282/2/1 283/3/1 284/4/1 
f 285/1/1 286/2/1 287/3/1 288/4/1 
f 289/8/1 290/9/1 291/3/1 292/10/1 
f 293/8/1 294/9/1 295/3/1 296/10/1 
f 297/8/1 298/9/1 299/3/1 300/10/1 
f 301/8/1 302/9/1 303/3/1 304/10/1 
f 305/8/1 306/9/1 307/3/1 308/10/1 
f 309/8/1 310/9/1 311/3/1 312/10/1 
f 313/8/1 314/9/1 315/3/1 316/10/1 
# 79 polygons

