# 3ds Max Wavefront OBJ Exporter v0.97b - (c)2007 guruware
# File Created: 09.07.2018 12:03:18

mtllib M_ercengpingtai_ST_zuo_Tt_ercengpingtai_03.mtl

#
# object M_ercengpingtai_ST_zuo_Tt_ercengpingtai_03
#

v  -28.6044 10.4741 -57.9206
v  -90.2337 10.4741 -49.9208
v  -74.2394 10.4741 73.2969
v  -12.6101 10.4741 65.2971
# 4 vertices

vn 0.0000 1.0000 -0.0000
# 1 vertex normals

vt 1.0000 1.0000 0.5000
vt 0.0000 1.0000 0.5000
vt 0.0000 0.0000 0.5000
vt 1.0000 0.0000 0.5000
# 4 texture coords

g M_ercengpingtai_ST_zuo_Tt_ercengpingtai_03
usemtl Tt_ercengpingtai_03
s 1
f 1/1/1 2/2/1 3/3/1 4/4/1 
# 1 polygons

