# 3ds Max Wavefront OBJ Exporter v0.97b - (c)2007 guruware
# File Created: 28.06.2018 18:58:17

mtllib M_F_MEP_B1_dianlanqiaojiapeijian.mtl

#
# object M_F_MEP_B1_dianlanqiaojiapeijian
#

v  -1040.3215 460.3414 1198.3265
v  1326.0176 460.3414 1198.3264
v  1326.0176 460.3414 -1171.3116
v  -1040.3215 460.3414 -1171.3116
# 4 vertices

vn 0.0000 1.0000 -0.0000
# 1 vertex normals

vt 0.0013 -0.0000 0.0000
vt 1.0000 0.0000 0.0000
vt 1.0000 1.0000 0.0000
vt 0.0013 1.0000 0.0000
# 4 texture coords

g M_F_MEP_B1_dianlanqiaojiapeijian
usemtl F_B1_dianlanqiaojiapeijian
s 1
f 1/1/1 2/2/1 3/3/1 4/4/1 
# 1 polygons

