# 3ds Max Wavefront OBJ Exporter v0.97b - (c)2007 guruware
# File Created: 13.07.2018 10:17:11

mtllib M_G_MEP_B2_xia_qiangdian_pian.mtl

#
# object M_G_MEP_B2_xia_qiangdian_pian
#

v  -1152.0774 179.9359 -1133.2076
v  -1152.0774 179.9359 1364.5431
v  1332.5439 179.9359 1364.5431
v  1332.5439 179.9359 -1133.2076
v  -824.6498 177.5279 -1056.5782
v  -824.6498 177.5279 -1060.3348
v  -824.6498 200.2367 -1060.3348
v  -824.6498 200.2367 -1056.5782
v  -817.1763 177.5279 -1056.5782
v  -817.1763 200.2367 -1056.5782
v  -817.1763 177.5279 -1060.3348
v  -817.1763 200.2367 -1060.3348
v  -833.7602 177.5279 -1056.5787
v  -833.7602 177.5279 -1060.3348
v  -833.7602 200.2367 -1060.3348
v  -833.7602 200.2367 -1056.5787
v  -826.2868 177.5279 -1056.5787
v  -826.2868 200.2367 -1056.5787
v  -826.2868 177.5279 -1060.3348
v  -826.2868 200.2367 -1060.3348
v  40.7581 183.2052 -684.0056
v  40.7581 183.2052 -680.2496
v  40.7581 200.2367 -680.2495
v  40.7581 200.2367 -684.0056
v  31.3923 183.2052 -684.0056
v  31.3923 200.2367 -684.0056
v  31.3923 183.2052 -680.2499
v  31.3923 200.2367 -680.2496
v  29.4108 183.2051 -684.0069
v  29.4108 183.2051 -680.2514
v  29.4108 200.2366 -680.2514
v  29.4108 200.2366 -684.0069
v  20.0451 183.2051 -684.0069
v  20.0449 200.2367 -684.0069
v  20.0451 183.2051 -680.2514
v  20.0449 200.2367 -680.2514
v  -390.9188 179.7160 239.1222
v  -390.9188 179.7160 235.3667
v  -390.9187 189.0435 235.3666
v  -390.9187 189.0435 239.1221
v  -379.6124 179.7160 239.1222
v  -379.6123 189.0435 239.1221
v  -379.6124 179.7160 235.3667
v  -379.6123 189.0435 235.3666
v  -378.3357 179.7160 239.1237
v  -378.3357 179.7160 235.3682
v  -378.3357 189.0435 235.3682
v  -378.3357 189.0435 239.1237
v  -367.0297 179.7160 239.1237
v  -367.0296 189.0435 239.1237
v  -367.0297 179.7160 235.3683
v  -367.0296 189.0435 235.3683
v  -390.9188 212.8331 235.3665
v  -390.9188 212.8331 239.1222
v  -379.6124 212.8331 239.1222
v  -379.6124 212.8331 235.3667
v  -378.3357 212.8331 235.3682
v  -378.3357 212.8331 239.1237
v  -367.0295 212.8331 239.1237
v  -367.0295 212.8331 235.3683
v  -390.9187 179.7160 229.7652
v  -390.9185 183.5008 229.7652
v  -378.3356 179.7160 229.7668
v  -378.3354 183.5008 229.7668
v  -379.6122 183.5008 229.7652
v  -379.6124 179.7160 229.7652
v  -367.0296 183.5008 229.7668
v  -367.0297 179.7160 229.7669
v  -390.9185 179.7160 225.8068
v  -390.9184 183.5008 225.8068
v  -378.3354 179.7160 225.8084
v  -378.3354 183.5007 225.8083
v  -379.6120 183.5008 225.8068
v  -379.6123 179.7160 225.8068
v  -367.0296 183.5008 225.8084
v  -367.0297 179.7160 225.8084
v  773.7014 120.7559 107.2946
v  773.7014 120.7559 103.5384
v  773.7012 200.2366 103.5382
v  773.7012 200.2366 107.2946
v  781.2226 120.7559 107.2946
v  781.2226 200.2366 107.2946
v  781.2226 120.7559 103.5388
v  781.2226 200.2366 103.5384
v  782.7845 120.7558 107.2958
v  782.7845 120.7558 103.5401
v  782.7844 200.2366 103.5403
v  782.7844 200.2366 107.2959
v  790.2582 120.7558 107.2958
v  790.2582 200.2366 107.2959
v  790.2582 120.7558 103.5403
v  790.2582 200.2366 103.5404
v  385.6252 183.2051 703.2794
v  381.8895 183.2051 703.2794
v  381.8897 192.5326 703.2792
v  385.6252 192.5326 703.2792
v  385.6252 183.2051 695.7181
v  385.6252 192.5326 695.7181
v  381.8895 183.2051 695.7181
v  381.8897 192.5326 695.7181
v  385.6266 183.2051 694.1207
v  381.8907 183.2051 694.1207
v  381.8907 192.5326 694.1207
v  385.6266 192.5326 694.1207
v  385.6266 183.2051 686.5594
v  385.6266 192.5326 686.5594
v  381.8908 183.2051 686.5594
v  381.8908 192.5326 686.5594
v  381.8895 200.2367 703.2795
v  385.6253 200.2367 703.2795
v  385.6253 200.2367 695.7181
v  381.8897 200.2367 695.7181
v  381.8907 200.2367 694.1207
v  385.6266 200.2367 694.1207
v  385.6266 200.2367 686.5593
v  381.8908 200.2367 686.5593
v  376.3174 183.2051 703.2792
v  376.3174 186.9419 703.2792
v  376.3190 183.2051 694.1203
v  376.3192 186.9418 694.1203
v  376.3174 186.9419 695.7176
v  376.3174 183.2051 695.7181
v  376.3192 186.9418 686.5593
v  376.3192 183.2051 686.5594
v  372.3797 183.2051 703.2792
v  372.3799 186.9418 703.2788
v  372.3813 183.2051 694.1203
v  372.3814 186.9418 694.1203
v  372.3799 186.9418 695.7176
v  372.3797 183.2051 695.7181
v  372.3814 186.9418 686.5593
v  372.3813 183.2051 686.5594
# 132 vertices

vn 0.0000 1.0000 -0.0000
vn 0.7071 0.0000 -0.7071
vn 1.0000 0.0000 -0.0000
vn -0.7071 0.0000 -0.7071
vn -1.0000 0.0000 -0.0000
vn -0.7071 0.0000 0.7071
vn 0.7071 0.0000 0.7071
vn 0.7071 -0.0000 -0.7071
vn 1.0000 -0.0000 0.0000
vn 0.9286 -0.2632 0.2618
vn -0.9286 -0.2631 0.2618
vn 1.0000 0.0000 0.0000
vn -1.0000 -0.0000 -0.0000
vn 1.0000 -0.0001 0.0000
vn 0.9284 -0.2635 0.2621
vn -0.9284 -0.2634 0.2620
vn -1.0000 0.0001 -0.0000
vn -0.9284 -0.2634 0.2621
vn -0.7071 -0.0000 -0.7071
vn 0.0000 -0.0000 -1.0000
vn 0.2631 -0.2622 -0.9284
vn 0.0000 0.0000 1.0000
vn 0.2632 -0.2623 0.9284
vn 0.0000 0.0000 -1.0000
vn 0.2632 -0.2623 -0.9284
vn 0.2630 -0.2621 -0.9285
vn 0.2628 -0.2619 0.9286
vn 0.0000 0.0001 1.0000
vn 0.2629 -0.2620 0.9285
vn -0.0000 0.0000 1.0000
vn 0.0000 -0.0001 -1.0000
vn 0.0001 -0.0001 -1.0000
vn -0.0000 0.0001 1.0000
# 33 vertex normals

vt 0.0000 1.0000 0.0000
vt 0.0000 0.0000 0.0000
vt 1.0000 0.0000 0.0000
vt 1.0000 1.0000 0.0000
vt 0.3089 0.5058 0.0000
# 5 texture coords

o M_G_MEP_B2_xia_qiangdian_pian
g M_G_MEP_B2_xia_qiangdian_pian
usemtl Tt_CMG_G_B_S_MEP_xia_B2_B_QD
s 1
f 1/1/1 2/2/1 3/3/1 4/4/1 
s off
f 5/5/2 6/5/3 7/5/3 8/5/2 
f 9/5/4 5/5/2 8/5/2 10/5/4 
f 11/5/5 9/5/4 10/5/4 12/5/5 
f 13/5/2 14/5/3 15/5/3 16/5/2 
f 17/5/4 13/5/2 16/5/2 18/5/4 
f 19/5/5 17/5/4 18/5/4 20/5/5 
f 21/5/6 22/5/5 23/5/5 24/5/6 
f 25/5/7 21/5/6 24/5/6 26/5/7 
f 27/5/3 25/5/7 26/5/7 28/5/3 
f 29/5/6 30/5/5 31/5/5 32/5/6 
f 33/5/7 29/5/6 32/5/6 34/5/7 
f 35/5/3 33/5/7 34/5/7 36/5/3 
f 37/5/8 38/5/9 39/5/10 40/5/8 
f 41/5/4 37/5/8 40/5/8 42/5/4 
f 43/5/5 41/5/4 42/5/4 44/5/11 
f 45/5/2 46/5/12 47/5/10 48/5/2 
f 49/5/4 45/5/2 48/5/2 50/5/4 
f 51/5/5 49/5/4 50/5/4 52/5/11 
f 39/5/10 53/5/3 54/5/2 40/5/8 
f 40/5/8 54/5/2 55/5/4 42/5/4 
f 42/5/4 55/5/4 56/5/13 44/5/11 
f 47/5/10 57/5/3 58/5/2 48/5/2 
f 48/5/2 58/5/2 59/5/4 50/5/4 
f 50/5/4 59/5/4 60/5/5 52/5/11 
f 39/5/10 38/5/9 61/5/14 62/5/15 
f 47/5/10 46/5/12 63/5/9 64/5/15 
f 43/5/5 44/5/11 65/5/16 66/5/17 
f 51/5/5 52/5/11 67/5/18 68/5/5 
f 62/5/15 61/5/14 69/5/9 70/5/9 
f 64/5/15 63/5/9 71/5/9 72/5/9 
f 66/5/17 65/5/16 73/5/17 74/5/17 
f 68/5/5 67/5/18 75/5/5 76/5/5 
s 1
f 67/5/18 52/5/11 47/5/10 64/5/15 
f 65/5/16 44/5/11 39/5/10 62/5/15 
s off
f 77/5/2 78/5/3 79/5/3 80/5/2 
f 81/5/4 77/5/2 80/5/2 82/5/4 
f 83/5/5 81/5/4 82/5/4 84/5/5 
f 85/5/2 86/5/3 87/5/3 88/5/2 
f 89/5/4 85/5/2 88/5/2 90/5/4 
f 91/5/5 89/5/4 90/5/4 92/5/5 
f 93/5/19 94/5/20 95/5/21 96/5/4 
f 97/5/6 93/5/19 96/5/4 98/5/6 
f 99/5/22 97/5/6 98/5/6 100/5/23 
f 101/5/4 102/5/24 103/5/25 104/5/4 
f 105/5/6 101/5/4 104/5/4 106/5/6 
f 107/5/22 105/5/6 106/5/6 108/5/23 
f 95/5/21 109/5/24 110/5/4 96/5/4 
f 96/5/4 110/5/4 111/5/6 98/5/6 
f 98/5/6 111/5/6 112/5/22 100/5/23 
f 103/5/25 113/5/24 114/5/4 104/5/4 
f 104/5/4 114/5/4 115/5/6 106/5/6 
f 106/5/6 115/5/6 116/5/22 108/5/23 
f 95/5/21 94/5/20 117/5/20 118/5/26 
f 103/5/25 102/5/24 119/5/20 120/5/26 
f 99/5/22 100/5/23 121/5/27 122/5/28 
f 107/5/22 108/5/23 123/5/29 124/5/30 
f 118/5/26 117/5/20 125/5/31 126/5/32 
f 120/5/26 119/5/20 127/5/24 128/5/24 
f 122/5/28 121/5/27 129/5/33 130/5/28 
f 124/5/30 123/5/29 131/5/30 132/5/22 
s 1
f 123/5/29 108/5/23 103/5/25 120/5/26 
f 121/5/27 100/5/23 95/5/21 118/5/26 
# 63 polygons

