# 3ds Max Wavefront OBJ Exporter v0.97b - (c)2007 guruware
# File Created: 13.07.2018 10:18:06

mtllib M_G_MEP_B2_xia_xiaofang_pian.mtl

#
# object M_G_MEP_B2_xia_xiaofang_pian
#

v  -1144.7866 179.9359 -1020.0113
v  -1144.7866 179.9359 1183.8308
v  1047.4709 179.9359 1183.8308
v  1047.4709 179.9359 -1020.0113
# 4 vertices

vn 0.0000 1.0000 -0.0000
# 1 vertex normals

vt 0.0000 1.0000 0.0000
vt 0.0000 0.0000 0.0000
vt 1.0000 0.0000 0.0000
vt 1.0000 1.0000 0.0000
# 4 texture coords

o M_G_MEP_B2_xia_xiaofang_pian
g M_G_MEP_B2_xia_xiaofang_pian
usemtl Tt_CMG_G_B_S_MEP_xia_B2_B_XF
s 1
f 1/1/1 2/2/1 3/3/1 4/4/1 
# 1 polygons

