# 3ds Max Wavefront OBJ Exporter v0.97b - (c)2007 guruware
# File Created: 15.06.2018 15:26:21

mtllib M_G_B1S_T_hengliangB1_01.mtl

#
# object M_G_B1S_T_hengliangB1_01
#

v  -739.9310 205.3253 1357.8906
v  -739.9310 205.3253 -629.0884
v  -1147.1602 205.3253 -629.0884
v  -1147.1602 205.3253 1357.8906
v  1042.6833 205.3253 1357.8906
v  1042.6831 205.3253 -629.0885
v  -739.9310 205.3253 -761.4507
v  1042.6833 205.3253 -761.4508
v  1320.8948 205.3253 1357.8906
v  1320.8948 205.3253 -629.0884
v  1320.8948 132.7453 -761.4507
v  1042.6833 132.7453 -761.4508
v  1042.6831 132.7453 -629.0885
v  1320.8948 132.7453 -629.0884
v  1320.8948 132.7453 -1110.4063
v  1042.6833 132.7453 -1110.4063
v  -1147.1602 132.7453 -761.4507
v  -1147.1602 132.7453 -629.0884
v  -739.9310 132.7453 -629.0884
v  -739.9310 132.7453 -761.4507
v  -1147.1602 132.7453 -1110.4063
v  -739.9310 132.7453 -1110.4063
# 22 vertices

vn 0.0000 1.0000 -0.0000
# 1 vertex normals

vt 0.1650 0.0000 0.5000
vt 0.1650 0.8050 0.5000
vt 0.0000 0.8050 0.5000
vt 0.0000 0.0000 0.5000
vt 0.8873 0.0000 0.5000
vt 0.8873 0.8050 0.5000
vt 0.1650 0.8586 0.5000
vt 0.8873 0.8586 0.5000
vt 1.0000 0.0000 0.5000
vt 1.0000 0.8050 0.5000
vt 1.0000 0.8586 0.5000
vt 1.0000 1.0000 0.5000
vt 0.8873 1.0000 0.5000
vt 0.0000 0.8586 0.5000
vt 0.0000 1.0000 0.5000
vt 0.1650 1.0000 0.5000
# 16 texture coords

g M_G_B1S_T_hengliangB1_01
usemtl T_hengliangB1_01
s 1
f 1/1/1 2/2/1 3/3/1 4/4/1 
f 5/5/1 6/6/1 2/2/1 1/1/1 
f 7/7/1 2/2/1 6/6/1 8/8/1 
f 9/9/1 10/10/1 6/6/1 5/5/1 
f 11/11/1 12/8/1 13/6/1 14/10/1 
f 15/12/1 16/13/1 12/8/1 11/11/1 
f 17/14/1 18/3/1 19/2/1 20/7/1 
f 21/15/1 17/14/1 20/7/1 22/16/1 
f 22/16/1 20/7/1 12/8/1 16/13/1 
# 9 polygons

