# 3ds Max Wavefront OBJ Exporter v0.97b - (c)2007 guruware
# File Created: 13.07.2018 10:11:16

mtllib M_G_MEP_B1_jishui.mtl

#
# object M_G_MEP_B1_jishui
#

v  -996.9075 149.8191 -752.8124
v  -1181.7886 149.8191 1523.6151
v  2585.3125 149.8191 1523.6151
v  -303.1325 149.8191 -752.8127
v  -1181.7886 149.8191 -1346.5570
v  2585.3125 149.8191 -1346.5570
v  -306.4966 149.8191 -1346.5570
v  -306.4966 112.5487 -1346.5570
v  -1181.7886 112.5487 -1346.5570
v  -996.9075 112.5487 -752.8123
v  -303.1325 112.5487 -752.8127
v  1756.8251 77.6453 119.5561
v  1756.3010 77.6453 119.0321
v  1756.3010 159.6113 119.0321
v  1756.8251 159.6113 119.5561
v  1755.7771 77.6453 119.5561
v  1755.7771 159.6113 119.5561
v  1756.3010 77.6453 120.0798
v  1756.3010 159.6113 120.0798
v  1757.0054 77.6454 139.6009
v  1756.3007 77.6454 138.8961
v  1756.3007 159.3262 138.8961
v  1757.0054 159.3262 139.6009
v  1755.5959 77.6454 139.6009
v  1755.5959 159.3262 139.6009
v  1756.3007 77.6454 140.3054
v  1756.3007 159.3262 140.3054
v  1884.7937 101.0534 -460.5229
v  1884.3121 101.0534 -461.0046
v  1884.3121 154.9372 -461.0046
v  1884.7937 154.9372 -460.5229
v  1883.8304 101.0534 -460.5229
v  1883.8304 154.9372 -460.5229
v  1884.3121 101.0534 -460.0413
v  1884.3121 154.9372 -460.0413
v  1826.2750 77.6452 -501.0739
v  1825.6163 77.6452 -501.7327
v  1825.6163 141.9792 -501.7327
v  1826.2750 141.9792 -501.0739
v  1824.9579 77.6452 -501.0739
v  1824.9579 141.9792 -501.0739
v  1825.6163 77.6452 -500.4155
v  1825.6163 141.9792 -500.4155
v  1777.0643 77.6456 -933.6908
v  1776.1180 77.6456 -934.6371
v  1776.1180 129.4014 -934.6371
v  1777.0643 129.4014 -933.6908
v  1775.1721 77.6456 -933.6908
v  1775.1721 129.4014 -933.6908
v  1776.1180 77.6456 -932.7448
v  1776.1180 129.4014 -932.7448
v  1142.2520 77.6453 -996.8014
v  1141.6113 77.6453 -997.4419
v  1141.6113 133.1881 -997.4419
v  1142.2520 133.1881 -996.8014
v  1140.9709 77.6453 -996.8014
v  1140.9709 133.1881 -996.8014
v  1141.6113 77.6453 -996.1610
v  1141.6113 133.1881 -996.1610
v  1198.5715 77.6453 252.0714
v  1198.0353 77.6453 251.5350
v  1198.0353 149.8193 251.5350
v  1198.5715 149.8193 252.0714
v  1197.4990 77.6453 252.0714
v  1197.4990 149.8193 252.0714
v  1198.0353 77.6453 252.6076
v  1198.0353 149.8193 252.6076
v  1120.2466 146.6534 181.3495
v  1119.7864 146.6534 180.8892
v  1119.7864 168.2372 180.8892
v  1120.2466 168.2372 181.3495
v  1119.3259 146.6534 181.3495
v  1119.3259 168.2372 181.3495
v  1119.7864 146.6534 181.8097
v  1119.7864 168.2372 181.8097
v  614.7418 77.6453 -499.9815
v  614.0065 77.6453 -500.7169
v  614.0065 169.2842 -500.7169
v  614.7418 169.2842 -499.9815
v  613.2713 77.6453 -499.9815
v  613.2713 169.2842 -499.9815
v  614.0065 77.6453 -499.2465
v  614.0065 169.2842 -499.2465
v  3.9422 77.6453 42.6734
v  2.8011 77.6453 41.5322
v  2.8011 158.8513 41.5322
v  3.9422 158.8513 42.6734
v  1.6599 77.6453 42.6734
v  1.6599 158.8513 42.6734
v  2.8011 77.6453 43.8143
v  2.8011 158.8513 43.8143
v  -619.6571 77.6453 184.1225
v  -620.4843 77.6453 183.2951
v  -620.4843 128.5463 183.2951
v  -619.6571 128.5463 184.1225
v  -621.3115 77.6453 184.1225
v  -621.3115 128.5463 184.1225
v  -620.4843 77.6453 184.9495
v  -620.4843 128.5463 184.9495
v  -370.9356 77.6453 -78.5077
v  -371.8674 77.6453 -79.4397
v  -371.8674 148.0973 -79.4397
v  -370.9356 148.0973 -78.5077
v  -372.7994 77.6453 -78.5077
v  -372.7994 148.0973 -78.5077
v  -371.8674 77.6453 -77.5761
v  -371.8674 148.0973 -77.5761
v  -147.6105 181.2142 -328.5837
v  -147.6105 197.3526 -328.5837
v  -146.9222 196.6308 -327.8953
v  -146.9222 181.2142 -327.8953
v  -148.2989 181.2142 -327.8953
v  -148.2989 198.0012 -327.8953
v  -147.6105 181.2142 -327.2072
v  -147.6105 197.3526 -327.2072
v  -79.7859 197.3683 -328.5837
v  -79.7859 198.0567 -327.8953
v  -79.7859 197.3683 -327.2072
v  -79.7859 196.6800 -327.8953
v  -321.8194 77.6453 -658.1770
v  -322.5247 77.6453 -658.8826
v  -322.5247 178.7842 -658.8826
v  -321.8194 178.7842 -658.1770
v  -323.2303 77.6453 -658.1770
v  -323.2303 178.7842 -658.1770
v  -322.5247 77.6453 -657.4717
v  -322.5247 178.7842 -657.4717
v  -687.4187 119.1033 -752.9400
v  -687.8947 119.1033 -753.4161
v  -687.8947 165.3873 -753.4161
v  -687.4187 165.3873 -752.9400
v  -688.3707 119.1033 -752.9400
v  -688.3707 165.3873 -752.9400
v  -687.8947 119.1033 -752.4642
v  -687.8947 165.3873 -752.4642
v  -687.8788 155.3933 -637.1832
v  -687.8788 180.2177 -637.1837
v  -687.3553 179.6320 -636.6602
v  -687.3558 155.3933 -636.6602
v  -688.4016 155.3933 -636.6602
v  -688.4022 180.7441 -636.6602
v  -687.8788 155.3933 -636.1376
v  -687.8788 180.2177 -636.1370
v  -358.6627 180.2369 -637.1304
v  -358.6627 180.7070 -636.6603
v  -358.6627 180.2369 -636.1904
v  -358.6627 179.7669 -636.6603
v  -176.9077 210.6453 -613.4827
v  -176.9077 168.8214 -613.4828
v  -177.4184 169.4607 -612.9614
v  -177.4184 210.6453 -612.9614
v  -176.3969 210.6453 -612.9614
v  -176.3969 168.2191 -612.9614
v  -176.9077 210.6453 -612.4401
v  -176.9077 168.8214 -612.4399
v  -200.7279 147.6033 -641.5753
v  -200.9762 147.6033 -640.9515
v  -201.7682 147.6033 -641.3137
v  -201.2308 147.6033 -641.9163
v  -200.7279 168.8212 -613.4886
v  -201.2306 169.4585 -612.9614
v  -200.9736 168.2201 -612.9614
v  -201.7681 168.8212 -612.4343
v  -200.7279 168.8212 -641.5118
v  -201.2308 169.4585 -641.8480
v  -200.9762 168.2201 -640.8876
v  -201.7682 168.8212 -641.2460
v  -188.4061 143.2334 -676.3536
v  -189.6548 143.2334 -677.6024
v  -189.6548 180.2072 -677.6024
v  -188.4061 180.2072 -676.3536
v  -190.9036 143.2334 -676.3536
v  -190.9036 180.2072 -676.3536
v  -189.6548 143.2334 -675.1049
v  -189.6548 180.2072 -675.1049
v  -179.8561 184.1403 -615.8508
v  -181.1048 184.1403 -617.0995
v  -181.1048 210.6453 -617.0995
v  -179.8561 210.6453 -615.8508
v  -182.3535 184.1403 -615.8508
v  -182.3535 210.6453 -615.8508
v  -181.1048 184.1403 -614.6021
v  -181.1048 210.6453 -614.6021
v  -156.7144 184.0833 -654.4209
v  -157.9631 184.0833 -655.6696
v  -157.9631 210.6453 -655.6696
v  -156.7144 210.6453 -654.4209
v  -159.2119 184.0833 -654.4209
v  -159.2119 210.6453 -654.4209
v  -157.9631 184.0833 -653.1722
v  -157.9631 210.6453 -653.1722
v  11.2199 143.2333 -39.1891
v  9.9712 143.2333 -40.4378
v  9.9712 210.6452 -40.4378
v  11.2199 210.6452 -39.1891
v  8.7224 143.2333 -39.1891
v  8.7224 210.6452 -39.1891
v  9.9712 143.2333 -37.9404
v  9.9712 210.6452 -37.9404
v  1186.8829 77.6452 110.8366
v  1186.1892 77.6452 110.1427
v  1186.1892 130.8263 110.1427
v  1186.8829 130.8263 110.8366
v  1185.4954 77.6452 110.8366
v  1185.4954 130.8263 110.8366
v  1186.1892 77.6452 111.5303
v  1186.1892 130.8263 111.5303
v  1228.7793 154.3293 205.5856
v  1227.7603 154.3293 204.5664
v  1227.7603 179.2953 204.5664
v  1228.7793 179.2953 205.5856
v  1226.7412 154.3293 205.5856
v  1226.7412 179.2953 205.5856
v  1227.7603 154.3293 206.6046
v  1227.7603 179.2953 206.6046
v  1431.7422 133.7333 211.6675
v  1430.4969 133.7333 210.4220
v  1430.4969 155.5073 210.4220
v  1431.7422 155.5073 211.6675
v  1429.2515 133.7333 211.6675
v  1429.2515 155.5073 211.6675
v  1430.4969 133.7333 212.9128
v  1430.4969 155.5073 212.9128
v  1426.0422 133.7333 217.7287
v  1424.7971 133.7333 216.4833
v  1424.7971 155.5073 216.4833
v  1426.0422 155.5073 217.7287
v  1423.5518 133.7333 217.7287
v  1423.5518 155.5073 217.7287
v  1424.7971 133.7333 218.9740
v  1424.7971 155.5073 218.9740
v  1345.6052 133.7333 281.8679
v  1344.3600 133.7333 280.6224
v  1344.3600 150.1873 280.6224
v  1345.6052 150.1873 281.8679
v  1343.1145 133.7333 281.8679
v  1343.1145 150.1873 281.8679
v  1344.3600 133.7333 283.1131
v  1344.3600 150.1873 283.1131
v  1338.4896 133.7332 291.3683
v  1337.2444 133.7332 290.1228
v  1337.2444 155.5073 290.1228
v  1338.4896 155.5073 291.3683
v  1335.9990 133.7332 291.3683
v  1335.9990 155.5073 291.3683
v  1337.2444 133.7332 292.6136
v  1337.2444 155.5073 292.6136
# 247 vertices

vn 0.0000 1.0000 -0.0000
vn 0.8165 -0.5774 0.0001
vn 0.0000 -0.5774 -0.8165
vn 0.0000 0.5774 -0.8165
vn 0.8165 0.5774 0.0001
vn -0.8165 -0.5774 0.0001
vn -0.8165 0.5774 0.0001
vn 0.0000 -0.5775 0.8164
vn 0.0000 0.5775 0.8164
vn 0.8165 -0.5774 0.0002
vn 0.8165 0.5774 0.0002
vn -0.8165 -0.5774 0.0002
vn -0.8165 0.5774 0.0002
vn 0.0000 -0.5774 0.8165
vn 0.0000 0.5774 0.8165
vn 0.0000 -0.5773 -0.8165
vn 0.0000 0.5773 -0.8165
vn 0.0000 -0.5773 0.8165
vn 0.0000 0.5773 0.8165
vn -0.0001 -0.5773 -0.8165
vn -0.0001 0.5773 -0.8165
vn -0.8165 -0.5773 0.0001
vn -0.8165 0.5773 0.0001
vn -0.0001 -0.5774 0.8165
vn -0.0001 0.5774 0.8165
vn 0.8164 -0.5774 0.0001
vn -0.0002 -0.5774 -0.8164
vn -0.0002 0.5774 -0.8164
vn 0.8164 0.5774 0.0001
vn -0.0001 -0.5773 0.8165
vn -0.0001 0.5773 0.8165
vn 0.8164 -0.5774 0.0002
vn 0.8164 0.5774 0.0002
vn -0.8165 -0.5774 -0.0000
vn -0.8165 0.5774 -0.0000
vn 0.0001 -0.5774 -0.8165
vn 0.0001 0.5774 -0.8165
vn -0.8165 -0.5773 0.0002
vn -0.8165 0.5773 0.0002
vn -0.8164 -0.5774 0.0002
vn -0.8164 0.5774 0.0002
vn -0.1895 0.2040 -0.9604
vn 0.7215 -0.6924 0.0003
vn -0.8164 -0.5774 0.0000
vn -0.7123 0.7019 0.0001
vn 0.0001 -0.5774 0.8164
vn -0.1894 0.2040 0.9605
vn 0.5774 -0.0000 -0.8165
vn 0.5771 0.8167 0.0001
vn 0.5773 0.0000 0.8165
vn 0.5776 -0.8163 0.0001
vn 0.8165 -0.5773 0.0001
vn 0.0002 -0.5773 -0.8165
vn 0.0002 0.5773 -0.8165
vn 0.8165 0.5773 0.0001
vn 0.0001 -0.5774 0.8165
vn 0.0001 0.5774 0.8165
vn -0.1960 0.1907 -0.9619
vn 0.7406 -0.6720 0.0003
vn -0.7066 0.7076 0.0001
vn -0.1959 0.1906 0.9619
vn 0.5774 0.0000 -0.8165
vn 0.5772 0.8166 0.0001
vn 0.5774 -0.0000 0.8165
vn 0.5775 -0.8164 0.0001
vn -0.0001 0.5763 -0.8172
vn 0.2118 -0.1596 -0.9642
vn -0.7730 0.6345 -0.0000
vn -0.8157 0.5784 -0.0000
vn 0.8157 0.5784 -0.0000
vn 0.6928 -0.7211 -0.0000
vn -0.0001 0.5763 0.8172
vn 0.2118 -0.1596 0.9642
vn 0.7720 -0.5893 -0.2381
vn 0.3048 -0.5758 0.7586
vn -0.8088 -0.5635 0.1683
vn -0.0998 -0.5835 -0.8060
vn 0.7732 0.1218 -0.6224
vn -0.2029 0.9572 0.2063
vn -0.0938 -0.9788 0.1821
vn -0.7223 -0.0514 0.6896
vn 0.9181 0.1907 -0.3474
vn -0.0269 0.7364 -0.6760
vn 0.5145 -0.5587 0.6505
vn -0.9863 0.0971 -0.1332
vn 0.8165 -0.5774 -0.0001
vn 0.8165 0.5774 -0.0001
vn 0.8165 -0.5774 -0.0000
vn 0.8165 0.5774 -0.0000
vn 0.8164 -0.5775 -0.0001
vn 0.0001 -0.5773 -0.8165
vn 0.0001 0.5773 -0.8165
vn 0.8164 0.5775 -0.0001
vn -0.0001 -0.5775 0.8164
vn -0.0001 0.5775 0.8164
vn -0.8164 -0.5775 -0.0001
vn -0.8164 0.5775 -0.0001
vn 0.8165 -0.5773 0.0000
vn 0.8165 0.5773 0.0000
vn -0.8165 -0.5774 0.0000
vn -0.8165 0.5774 0.0000
# 101 vertex normals

vt 0.0509 0.7481 0.0000
vt 0.0020 0.1463 0.0000
vt 0.9980 0.1463 0.0000
vt 0.2343 0.7481 0.0000
vt 0.0020 0.9051 0.0000
vt 0.9980 0.9051 0.0000
vt 0.2334 0.9051 0.0000
vt 0.8009 0.5168 1.0000
vt 0.8009 0.5168 -0.2500
vt 0.8009 0.5168 0.2500
vt 0.4259 0.4928 1.0000
vt 0.4259 0.4928 -0.2500
vt 0.4259 0.4928 0.2500
vt 0.4716 0.4962 1.0000
vt 0.4716 0.4962 -0.2500
vt 0.4716 0.4962 0.2500
# 16 texture coords

o M_G_MEP_B1_jishui
g M_G_MEP_B1_jishui
usemtl G_B1_jishui
s 1
f 1/1/1 2/2/1 3/3/1 4/4/1 
f 1/1/1 5/5/1 2/2/1 
f 3/3/1 6/6/1 7/7/1 4/4/1 
f 8/7/1 9/5/1 10/1/1 11/4/1 
s 8
f 12/8/2 13/8/3 14/8/4 15/8/5 
f 13/8/3 16/8/6 17/8/7 14/8/4 
f 16/8/6 18/8/8 19/8/9 17/8/7 
f 18/8/8 12/8/2 15/8/5 19/8/9 
s 1
f 16/9/6 13/9/3 12/9/2 18/9/8 
f 14/10/4 17/10/7 19/10/9 15/10/5 
s 8
f 20/11/10 21/11/3 22/11/4 23/11/11 
f 21/11/3 24/11/12 25/11/13 22/11/4 
f 24/11/12 26/11/14 27/11/15 25/11/13 
f 26/11/14 20/11/10 23/11/11 27/11/15 
s 1
f 24/12/12 21/12/3 20/12/10 26/12/14 
f 22/13/4 25/13/13 27/13/15 23/13/11 
s 8
f 28/11/2 29/11/16 30/11/17 31/11/5 
f 29/11/16 32/11/6 33/11/7 30/11/17 
f 32/11/6 34/11/18 35/11/19 33/11/7 
f 34/11/18 28/11/2 31/11/5 35/11/19 
s 1
f 32/12/6 29/12/16 28/12/2 34/12/18 
f 30/13/17 33/13/7 35/13/19 31/13/5 
s 8
f 36/11/2 37/11/20 38/11/21 39/11/5 
f 37/11/20 40/11/22 41/11/23 38/11/21 
f 40/11/22 42/11/24 43/11/25 41/11/23 
f 42/11/24 36/11/2 39/11/5 43/11/25 
s 1
f 40/12/22 37/12/20 36/12/2 42/12/24 
f 38/13/21 41/13/23 43/13/25 39/13/5 
s 8
f 44/11/26 45/11/27 46/11/28 47/11/29 
f 45/11/27 48/11/22 49/11/23 46/11/28 
f 48/11/22 50/11/30 51/11/31 49/11/23 
f 50/11/30 44/11/26 47/11/29 51/11/31 
s 1
f 48/12/22 45/12/27 44/12/26 50/12/30 
f 46/13/28 49/13/23 51/13/31 47/13/29 
s 8
f 52/11/32 53/11/27 54/11/28 55/11/33 
f 53/11/27 56/11/34 57/11/35 54/11/28 
f 56/11/34 58/11/14 59/11/15 57/11/35 
f 58/11/14 52/11/32 55/11/33 59/11/15 
s 1
f 56/12/34 53/12/27 52/12/32 58/12/14 
f 54/13/28 57/13/35 59/13/15 55/13/33 
s 8
f 60/11/2 61/11/16 62/11/17 63/11/5 
f 61/11/16 64/11/6 65/11/7 62/11/17 
f 64/11/6 66/11/14 67/11/15 65/11/7 
f 66/11/14 60/11/2 63/11/5 67/11/15 
s 1
f 64/12/6 61/12/16 60/12/2 66/12/14 
f 62/13/17 65/13/7 67/13/15 63/13/5 
s 8
f 68/11/2 69/11/36 70/11/37 71/11/5 
f 69/11/36 72/11/38 73/11/39 70/11/37 
f 72/11/38 74/11/18 75/11/19 73/11/39 
f 74/11/18 68/11/2 71/11/5 75/11/19 
s 1
f 72/12/38 69/12/36 68/12/2 74/12/18 
f 70/13/37 73/13/39 75/13/19 71/13/5 
s 8
f 76/11/2 77/11/3 78/11/4 79/11/5 
f 77/11/3 80/11/6 81/11/7 78/11/4 
f 80/11/6 82/11/18 83/11/19 81/11/7 
f 82/11/18 76/11/2 79/11/5 83/11/19 
s 1
f 80/12/6 77/12/3 76/12/2 82/12/18 
f 78/13/4 81/13/7 83/13/19 79/13/5 
s 8
f 84/11/2 85/11/36 86/11/37 87/11/5 
f 85/11/36 88/11/40 89/11/41 86/11/37 
f 88/11/40 90/11/18 91/11/19 89/11/41 
f 90/11/18 84/11/2 87/11/5 91/11/19 
s 1
f 88/12/40 85/12/36 84/12/2 90/12/18 
f 86/13/37 89/13/41 91/13/19 87/13/5 
s 8
f 92/11/2 93/11/36 94/11/37 95/11/5 
f 93/11/36 96/11/12 97/11/13 94/11/37 
f 96/11/12 98/11/14 99/11/15 97/11/13 
f 98/11/14 92/11/2 95/11/5 99/11/15 
s 1
f 96/12/12 93/12/36 92/12/2 98/12/14 
f 94/13/37 97/13/13 99/13/15 95/13/5 
s 8
f 100/11/2 101/11/3 102/11/4 103/11/5 
f 101/11/3 104/11/6 105/11/7 102/11/4 
f 104/11/6 106/11/18 107/11/19 105/11/7 
f 106/11/18 100/11/2 103/11/5 107/11/19 
s 1
f 104/12/6 101/12/3 100/12/2 106/12/18 
f 102/13/4 105/13/7 107/13/19 103/13/5 
s 8
f 108/11/3 109/11/42 110/11/43 111/11/2 
f 112/11/44 113/11/45 109/11/42 108/11/3 
f 114/11/46 115/11/47 113/11/45 112/11/44 
f 111/11/2 110/11/43 115/11/47 114/11/46 
s 1
f 112/12/44 108/12/3 111/12/2 114/12/46 
f 116/13/48 117/13/49 118/13/50 119/13/51 
s 8
f 116/11/48 119/11/51 110/11/43 109/11/42 
f 117/11/49 116/11/48 109/11/42 113/11/45 
f 118/11/50 117/11/49 113/11/45 115/11/47 
f 119/11/51 118/11/50 115/11/47 110/11/43 
f 120/11/52 121/11/53 122/11/54 123/11/55 
f 121/11/53 124/11/40 125/11/41 122/11/54 
f 124/11/40 126/11/56 127/11/57 125/11/41 
f 126/11/56 120/11/52 123/11/55 127/11/57 
s 1
f 124/12/40 121/12/53 120/12/52 126/12/56 
f 122/13/54 125/13/41 127/13/57 123/13/55 
s 8
f 128/11/2 129/11/16 130/11/17 131/11/5 
f 129/11/16 132/11/6 133/11/7 130/11/17 
f 132/11/6 134/11/14 135/11/15 133/11/7 
f 134/11/14 128/11/2 131/11/5 135/11/15 
s 1
f 132/12/6 129/12/16 128/12/2 134/12/14 
f 130/13/17 133/13/7 135/13/15 131/13/5 
s 8
f 136/11/3 137/11/58 138/11/59 139/11/2 
f 140/11/6 141/11/60 137/11/58 136/11/3 
f 142/11/14 143/11/61 141/11/60 140/11/6 
f 139/11/2 138/11/59 143/11/61 142/11/14 
s 1
f 140/12/6 136/12/3 139/12/2 142/12/14 
f 144/13/62 145/13/63 146/13/64 147/13/65 
s 8
f 144/11/62 147/11/65 138/11/59 137/11/58 
f 145/11/63 144/11/62 137/11/58 141/11/60 
f 146/11/64 145/11/63 141/11/60 143/11/61 
f 147/11/65 146/11/64 143/11/61 138/11/59 
f 148/11/66 149/11/67 150/11/68 151/11/69 
f 152/11/70 153/11/71 149/11/67 148/11/66 
f 154/11/72 155/11/73 153/11/71 152/11/70 
f 151/11/69 150/11/68 155/11/73 154/11/72 
s 1
f 152/12/70 148/12/66 151/12/69 154/12/72 
f 156/13/74 157/13/75 158/13/76 159/13/77 
s 8
f 160/11/78 161/11/79 150/11/68 149/11/67 
f 162/11/80 160/11/78 149/11/67 153/11/71 
f 155/11/73 163/11/81 162/11/80 153/11/71 
f 150/11/68 161/11/79 163/11/81 155/11/73 
f 160/11/78 164/11/82 165/11/83 161/11/79 
f 166/11/84 164/11/82 160/11/78 162/11/80 
f 167/11/85 166/11/84 162/11/80 163/11/81 
f 161/11/79 165/11/83 167/11/85 163/11/81 
f 164/11/82 156/11/74 159/11/77 165/11/83 
f 157/11/75 156/11/74 164/11/82 166/11/84 
f 158/11/76 157/11/75 166/11/84 167/11/85 
f 165/11/83 159/11/77 158/11/76 167/11/85 
f 168/14/86 169/14/36 170/14/37 171/14/87 
f 169/14/36 172/14/6 173/14/7 170/14/37 
f 172/14/6 174/14/24 175/14/25 173/14/7 
f 174/14/24 168/14/86 171/14/87 175/14/25 
s 1
f 174/15/24 172/15/6 169/15/36 168/15/86 
f 171/16/87 170/16/37 173/16/7 175/16/25 
s 8
f 176/14/88 177/14/3 178/14/4 179/14/89 
f 177/14/3 180/14/34 181/14/35 178/14/4 
f 180/14/34 182/14/14 183/14/15 181/14/35 
f 182/14/14 176/14/88 179/14/89 183/14/15 
s 1
f 182/15/14 180/15/34 177/15/3 176/15/88 
f 179/16/89 178/16/4 181/16/35 183/16/15 
s 8
f 184/14/88 185/14/3 186/14/4 187/14/89 
f 185/14/3 188/14/34 189/14/35 186/14/4 
f 188/14/34 190/14/14 191/14/15 189/14/35 
f 190/14/14 184/14/88 187/14/89 191/14/15 
s 1
f 190/15/14 188/15/34 185/15/3 184/15/88 
f 187/16/89 186/16/4 189/16/35 191/16/15 
s 8
f 192/14/88 193/14/3 194/14/4 195/14/89 
f 193/14/3 196/14/34 197/14/35 194/14/4 
f 196/14/34 198/14/14 199/14/15 197/14/35 
f 198/14/14 192/14/88 195/14/89 199/14/15 
s 1
f 198/15/14 196/15/34 193/15/3 192/15/88 
f 195/16/89 194/16/4 197/16/35 199/16/15 
s 8
f 200/14/90 201/14/91 202/14/92 203/14/93 
f 201/14/91 204/14/22 205/14/23 202/14/92 
f 204/14/22 206/14/94 207/14/95 205/14/23 
f 206/14/94 200/14/90 203/14/93 207/14/95 
s 1
f 206/15/94 204/15/22 201/15/91 200/15/90 
f 203/16/93 202/16/92 205/16/23 207/16/95 
s 8
f 208/14/90 209/14/16 210/14/17 211/14/93 
f 209/14/16 212/14/96 213/14/97 210/14/17 
f 212/14/96 214/14/14 215/14/15 213/14/97 
f 214/14/14 208/14/90 211/14/93 215/14/15 
s 1
f 214/15/14 212/15/96 209/15/16 208/15/90 
f 211/16/93 210/16/17 213/16/97 215/16/15 
s 8
f 216/14/98 217/14/3 218/14/4 219/14/99 
f 217/14/3 220/14/100 221/14/101 218/14/4 
f 220/14/100 222/14/14 223/14/15 221/14/101 
f 222/14/14 216/14/98 219/14/99 223/14/15 
s 1
f 222/15/14 220/15/100 217/15/3 216/15/98 
f 219/16/99 218/16/4 221/16/101 223/16/15 
s 8
f 224/14/98 225/14/3 226/14/4 227/14/99 
f 225/14/3 228/14/100 229/14/101 226/14/4 
f 228/14/100 230/14/14 231/14/15 229/14/101 
f 230/14/14 224/14/98 227/14/99 231/14/15 
s 1
f 230/15/14 228/15/100 225/15/3 224/15/98 
f 227/16/99 226/16/4 229/16/101 231/16/15 
s 8
f 232/14/98 233/14/3 234/14/4 235/14/99 
f 233/14/3 236/14/100 237/14/101 234/14/4 
f 236/14/100 238/14/14 239/14/15 237/14/101 
f 238/14/14 232/14/98 235/14/99 239/14/15 
s 1
f 238/15/14 236/15/100 233/15/3 232/15/98 
f 235/16/99 234/16/4 237/16/101 239/16/15 
s 8
f 240/14/98 241/14/3 242/14/4 243/14/99 
f 241/14/3 244/14/100 245/14/101 242/14/4 
f 244/14/100 246/14/14 247/14/15 245/14/101 
f 246/14/14 240/14/98 243/14/99 247/14/15 
s 1
f 246/15/14 244/15/100 241/15/3 240/15/98 
f 243/16/99 242/16/4 245/16/101 247/16/15 
# 185 polygons - 1 triangles

