# 3ds Max Wavefront OBJ Exporter v0.97b - (c)2007 guruware
# File Created: 13.07.2018 10:11:46

mtllib M_G_MEP_B1_paishui.mtl

#
# object M_G_MEP_B1_paishui
#

v  -1181.7886 155.3794 -1346.5570
v  -1181.7886 155.3794 1523.6151
v  2585.3125 155.3794 1523.6151
v  2585.3125 155.3794 -1346.5570
v  -328.4557 77.6453 -658.1771
v  -327.3157 77.6453 -658.1771
v  -327.3157 178.7842 -658.1771
v  -328.4557 178.7842 -658.1771
v  -327.8857 77.6453 -657.6071
v  -327.8857 77.6453 -658.7471
v  -327.8857 178.7842 -658.7471
v  -327.8857 178.7842 -657.6071
v  -323.0947 77.6453 -658.1771
v  -321.9547 77.6453 -658.1771
v  -321.9547 178.7842 -658.1771
v  -323.0947 178.7842 -658.1771
v  -322.5247 77.6453 -657.6071
v  -322.5247 77.6453 -658.7471
v  -322.5247 178.7842 -658.7471
v  -322.5247 178.7842 -657.6071
v  -186.5376 164.1142 -611.7715
v  -185.3976 164.1142 -611.7715
v  -185.3976 210.6514 -611.7715
v  -186.5376 210.6514 -611.7715
v  -185.9677 164.1142 -611.2015
v  -185.9677 164.1142 -612.3415
v  -185.9677 210.6514 -612.3415
v  -185.9677 210.6514 -611.2015
v  -177.3312 169.4533 -612.9745
v  -176.4942 169.4533 -612.9745
v  -176.4942 210.6452 -612.9745
v  -177.3312 210.6452 -612.9745
v  -176.9127 169.4533 -612.5560
v  -176.9127 169.4533 -613.3931
v  -176.9127 210.6452 -613.3931
v  -176.9127 210.6452 -612.5560
v  -198.9261 142.2644 -641.4306
v  -198.0892 142.2644 -641.4306
v  -198.0892 162.1764 -641.4306
v  -198.9261 162.1764 -641.4306
v  -198.5077 142.2644 -641.0121
v  -198.5077 142.2644 -641.8491
v  -198.5077 162.1764 -641.8491
v  -198.5077 162.1764 -641.0121
v  -201.6512 147.6033 -641.4413
v  -200.8143 147.6033 -641.4413
v  -200.8143 168.2372 -641.4413
v  -201.6512 168.2372 -641.4413
v  -201.2327 147.6033 -641.0228
v  -201.2327 147.6033 -641.8599
v  -201.2327 168.2372 -641.8599
v  -201.2327 168.2372 -641.0228
v  -190.6224 143.2334 -677.3909
v  -190.6224 180.2074 -677.3909
v  -188.6125 180.2074 -677.3909
v  -188.6125 143.2334 -677.3909
v  -190.6224 143.2334 -675.3165
v  -190.6224 180.2074 -675.3165
v  -188.6125 143.2334 -675.3165
v  -188.6125 180.2074 -675.3165
v  -180.0999 210.6737 -616.8881
v  -180.0999 184.1119 -616.8881
v  -182.1097 184.1119 -616.8881
v  -182.1097 210.6737 -616.8881
v  -182.1097 184.1119 -614.8137
v  -182.1097 210.6737 -614.8137
v  -180.0999 210.6737 -614.8137
v  -180.0999 184.1119 -614.8137
v  10.9760 210.6453 -40.2261
v  10.9760 143.2333 -40.2261
v  8.9662 143.2333 -40.2261
v  8.9662 210.6453 -40.2261
v  8.9662 143.2333 -38.1517
v  8.9662 210.6453 -38.1517
v  10.9760 210.6453 -38.1517
v  10.9760 143.2333 -38.1517
v  -64.5023 164.2663 179.3785
v  -64.5023 144.1643 179.3785
v  -65.5496 144.1643 179.3785
v  -65.5496 164.2663 179.3785
v  -65.5496 144.1643 180.4594
v  -65.5496 164.2663 180.4594
v  -64.5023 164.2663 180.4594
v  -64.5023 144.1643 180.4594
v  1186.7273 130.8263 110.3275
v  1186.7273 77.6453 110.3275
v  1185.6799 77.6453 110.3275
v  1185.6799 130.8263 110.3275
v  1185.6799 77.6453 111.4085
v  1185.6799 130.8263 111.4085
v  1186.7273 130.8263 111.4085
v  1186.7273 77.6453 111.4085
v  1338.1766 155.5073 290.4059
v  1338.1766 133.7333 290.4059
v  1336.3126 133.7333 290.4059
v  1336.3126 155.5073 290.4059
v  1336.3126 133.7333 292.3301
v  1336.3126 155.5073 292.3301
v  1338.1766 155.5073 292.3301
v  1338.1766 133.7333 292.3301
v  1345.2920 150.1872 280.9059
v  1345.2920 133.7334 280.9059
v  1343.4280 133.7334 280.9059
v  1343.4280 150.1872 280.9059
v  1343.4280 133.7334 282.8301
v  1343.4280 150.1872 282.8301
v  1345.2920 150.1872 282.8301
v  1345.2920 133.7334 282.8301
v  1425.7295 155.5073 216.7665
v  1425.7295 133.7334 216.7665
v  1423.8651 133.7334 216.7665
v  1423.8651 155.5073 216.7665
v  1423.8651 133.7334 218.6906
v  1423.8651 155.5073 218.6906
v  1425.7295 155.5073 218.6906
v  1425.7295 133.7334 218.6906
v  1431.4294 155.5073 210.7054
v  1431.4294 133.7333 210.7054
v  1429.5652 133.7333 210.7054
v  1429.5652 155.5073 210.7054
v  1429.5652 133.7333 212.6295
v  1429.5652 155.5073 212.6295
v  1431.4294 155.5073 212.6295
v  1431.4294 133.7333 212.6295
v  -156.9582 210.6452 -655.4579
v  -156.9582 184.0833 -655.4579
v  -158.9680 184.0833 -655.4579
v  -158.9680 210.6452 -655.4579
v  -158.9680 184.0833 -653.3835
v  -158.9680 210.6452 -653.3835
v  -156.9582 210.6452 -653.3835
v  -156.9582 184.0833 -653.3835
v  -685.7892 119.1033 -752.8452
v  -684.9521 119.1033 -752.8452
v  -684.9521 165.3873 -752.8452
v  -685.7892 165.3873 -752.8452
v  -685.3707 119.1033 -752.4266
v  -685.3707 119.1033 -753.2637
v  -685.3707 165.3873 -753.2637
v  -685.3707 165.3873 -752.4266
v  -688.3134 119.1033 -752.9400
v  -687.4762 119.1033 -752.9400
v  -687.4762 165.3873 -752.9400
v  -688.3134 165.3873 -752.9400
v  -687.8947 119.1033 -752.5215
v  -687.8947 119.1033 -753.3585
v  -687.8947 165.3873 -753.3585
v  -687.8947 165.3873 -752.5215
v  -688.3134 155.3933 -636.6602
v  -687.4762 155.3933 -636.6602
v  -687.4762 179.6373 -636.6602
v  -688.3134 179.6373 -636.6602
v  -687.8947 155.3933 -636.2417
v  -687.8947 155.3933 -637.0787
v  -687.8947 179.6373 -637.0787
v  -687.8947 179.6373 -636.2417
v  -685.7892 155.3933 -640.2700
v  -684.9521 155.3933 -640.2700
v  -684.9521 179.6373 -640.2700
v  -685.7892 179.6373 -640.2700
v  -685.3707 155.3933 -639.8515
v  -685.3707 155.3933 -640.6885
v  -685.3707 179.6373 -640.6885
v  -685.3707 179.6373 -639.8515
v  -621.2710 77.6453 184.1225
v  -619.6978 77.6453 184.1225
v  -619.6978 128.5463 184.1225
v  -621.2710 128.5463 184.1225
v  -620.4844 77.6453 184.9090
v  -620.4844 77.6453 183.3360
v  -620.4844 128.5463 183.3360
v  -620.4844 128.5463 184.9090
v  -621.2710 77.6453 189.5032
v  -619.6978 77.6453 189.5032
v  -619.6978 128.5463 189.5032
v  -621.2710 128.5463 189.5032
v  -620.4844 77.6453 190.2897
v  -620.4844 77.6453 188.7166
v  -620.4844 128.5463 188.7166
v  -620.4844 128.5463 190.2897
v  -372.6540 77.6454 -78.5078
v  -371.0809 77.6454 -78.5078
v  -371.0809 148.0973 -78.5078
v  -372.6540 148.0973 -78.5078
v  -371.8675 77.6454 -77.7212
v  -371.8675 77.6454 -79.2943
v  -371.8675 148.0973 -79.2943
v  -371.8675 148.0973 -77.7212
v  -372.6540 77.6453 -83.8406
v  -371.0809 77.6453 -83.8406
v  -371.0809 148.0973 -83.8406
v  -372.6540 148.0973 -83.8406
v  -371.8675 77.6453 -83.0540
v  -371.8675 77.6453 -84.6271
v  -371.8675 148.0973 -84.6271
v  -371.8675 148.0973 -83.0540
v  607.9000 77.6453 -499.9815
v  609.4730 77.6453 -499.9815
v  609.4730 182.5842 -499.9815
v  607.9000 182.5842 -499.9815
v  608.6865 77.6453 -499.1950
v  608.6865 77.6453 -500.7681
v  608.6865 182.5842 -500.7681
v  608.6865 182.5842 -499.1950
v  613.2200 77.6454 -499.9815
v  614.7930 77.6454 -499.9815
v  614.7930 169.2842 -499.9815
v  613.2200 169.2842 -499.9815
v  614.0065 77.6454 -499.1950
v  614.0065 77.6454 -500.7681
v  614.0065 169.2842 -500.7681
v  614.0065 169.2842 -499.1950
v  1140.9734 77.6453 -991.4684
v  1142.2499 77.6453 -991.4684
v  1142.2499 133.1880 -991.4684
v  1140.9734 133.1880 -991.4684
v  1141.6116 77.6453 -990.8302
v  1141.6116 77.6453 -992.1067
v  1141.6116 133.1880 -992.1067
v  1141.6116 133.1880 -990.8302
v  1140.9734 77.6453 -996.8014
v  1142.2499 77.6453 -996.8014
v  1142.2499 133.1880 -996.8014
v  1140.9734 133.1880 -996.8014
v  1141.6116 77.6453 -996.1632
v  1141.6116 77.6453 -997.4397
v  1141.6116 133.1880 -997.4397
v  1141.6116 133.1880 -996.1632
v  1775.1599 77.6454 -937.3008
v  1777.0773 77.6454 -937.3008
v  1777.0773 129.4014 -937.3008
v  1775.1599 129.4014 -937.3008
v  1776.1185 77.6454 -936.3420
v  1776.1185 77.6454 -938.2595
v  1776.1185 129.4014 -938.2595
v  1776.1185 129.4014 -936.3420
v  1775.1599 77.6453 -933.6910
v  1777.0773 77.6453 -933.6910
v  1777.0773 129.4013 -933.6910
v  1775.1599 129.4013 -933.6910
v  1776.1185 77.6453 -932.7323
v  1776.1185 77.6453 -934.6498
v  1776.1185 129.4013 -934.6498
v  1776.1185 129.4013 -932.7323
v  1824.9994 77.6454 -501.0739
v  1826.2344 77.6454 -501.0739
v  1826.2344 154.9374 -501.0739
v  1824.9994 154.9374 -501.0739
v  1825.6169 77.6454 -500.4564
v  1825.6169 77.6454 -501.6913
v  1825.6169 154.9374 -501.6913
v  1825.6169 154.9374 -500.4564
v  1824.9994 77.6452 -497.2989
v  1826.2344 77.6452 -497.2989
v  1826.2344 154.9372 -497.2989
v  1824.9994 154.9372 -497.2989
v  1825.6169 77.6452 -496.6814
v  1825.6169 77.6452 -497.9164
v  1825.6169 154.9372 -497.9164
v  1825.6169 154.9372 -496.6814
v  1883.8416 101.0532 -460.5229
v  1884.7830 101.0532 -460.5229
v  1884.7830 154.9373 -460.5229
v  1883.8416 154.9373 -460.5229
v  1884.3123 101.0532 -460.0522
v  1884.3123 101.0532 -460.9937
v  1884.3123 154.9373 -460.9937
v  1884.3123 154.9373 -460.0522
v  1883.8416 101.0532 -463.4680
v  1884.7830 101.0532 -463.4680
v  1884.7830 154.9373 -463.4680
v  1883.8416 154.9373 -463.4680
v  1884.3123 101.0532 -462.9973
v  1884.3123 101.0532 -463.9387
v  1884.3123 154.9373 -463.9387
v  1884.3123 154.9373 -462.9973
v  1755.6466 77.6452 139.6010
v  1756.9554 77.6452 139.6010
v  1756.9554 159.3264 139.6010
v  1755.6466 159.3264 139.6010
v  1756.3010 77.6452 140.2555
v  1756.3010 77.6452 138.9465
v  1756.3010 159.3264 138.9465
v  1756.3010 159.3264 140.2554
v  1755.6466 77.6452 134.2705
v  1756.9554 77.6452 134.2705
v  1756.9554 159.3264 134.2705
v  1755.6466 159.3264 134.2705
v  1756.3010 77.6452 134.9250
v  1756.3010 77.6452 133.6160
v  1756.3010 159.3264 133.6160
v  1756.3010 159.3264 134.9249
v  1194.2710 77.6453 252.0712
v  1195.1504 77.6453 252.0712
v  1195.1504 154.8235 252.0712
v  1194.2710 154.8235 252.0712
v  1194.7107 77.6453 252.5110
v  1194.7107 77.6453 251.6315
v  1194.7107 154.8235 251.6315
v  1194.7107 154.8235 252.5110
v  1197.5957 77.6452 252.0711
v  1198.4752 77.6452 252.0711
v  1198.4752 139.6234 252.0711
v  1197.5957 139.6234 252.0711
v  1198.0354 77.6452 252.5109
v  1198.0354 77.6452 251.6314
v  1198.0354 139.6234 251.6314
v  1198.0354 139.6234 252.5109
# 308 vertices

vn 0.0000 1.0000 -0.0000
vn 0.0000 0.0000 1.0000
vn 1.0000 0.0000 -0.0000
vn -0.5774 -0.5774 -0.5774
vn -0.5774 0.5774 -0.5774
vn 0.5774 0.5774 -0.5774
vn 0.5774 -0.5774 -0.5774
vn -0.5774 -0.5774 0.5774
vn -0.5774 0.5774 0.5774
vn 0.5774 -0.5774 0.5774
vn 0.5774 0.5774 0.5774
# 11 vertex normals

vt 0.0020 0.9051 0.0000
vt 0.0020 0.1463 0.0000
vt 0.9980 0.1463 0.0000
vt 0.9980 0.9051 0.0000
vt 0.4279 0.4902 0.0000
vt 0.4742 0.4933 0.0000
# 6 texture coords

o M_G_MEP_B1_paishui
g M_G_MEP_B1_paishui
usemtl G_B1_paishui
s 1
f 1/1/1 2/2/1 3/3/1 4/4/1 
f 5/5/2 6/5/2 7/5/2 8/5/2 
f 9/5/3 10/5/3 11/5/3 12/5/3 
f 13/5/2 14/5/2 15/5/2 16/5/2 
f 17/5/3 18/5/3 19/5/3 20/5/3 
f 21/5/2 22/5/2 23/5/2 24/5/2 
f 25/5/3 26/5/3 27/5/3 28/5/3 
f 29/5/2 30/5/2 31/5/2 32/5/2 
f 33/5/3 34/5/3 35/5/3 36/5/3 
f 37/5/2 38/5/2 39/5/2 40/5/2 
f 41/5/3 42/5/3 43/5/3 44/5/3 
f 45/5/2 46/5/2 47/5/2 48/5/2 
f 49/5/3 50/5/3 51/5/3 52/5/3 
f 53/6/4 54/6/5 55/6/6 56/6/7 
f 57/6/8 58/6/9 54/6/5 53/6/4 
f 57/6/8 59/6/10 60/6/11 58/6/9 
f 59/6/10 56/6/7 55/6/6 60/6/11 
s off
f 58/6/9 60/6/11 55/6/6 54/6/5 
f 59/6/10 57/6/8 53/6/4 56/6/7 
s 1
f 61/6/6 62/6/7 63/6/4 64/6/5 
f 64/6/5 63/6/4 65/6/8 66/6/9 
f 67/6/11 66/6/9 65/6/8 68/6/10 
f 61/6/6 67/6/11 68/6/10 62/6/7 
s off
f 61/6/6 64/6/5 66/6/9 67/6/11 
f 63/6/4 62/6/7 68/6/10 65/6/8 
s 1
f 69/6/6 70/6/7 71/6/4 72/6/5 
f 72/6/5 71/6/4 73/6/8 74/6/9 
f 75/6/11 74/6/9 73/6/8 76/6/10 
f 69/6/6 75/6/11 76/6/10 70/6/7 
s off
f 69/6/6 72/6/5 74/6/9 75/6/11 
f 71/6/4 70/6/7 76/6/10 73/6/8 
s 1
f 77/6/6 78/6/7 79/6/4 80/6/5 
f 80/6/5 79/6/4 81/6/8 82/6/9 
f 83/6/11 82/6/9 81/6/8 84/6/10 
f 77/6/6 83/6/11 84/6/10 78/6/7 
s off
f 77/6/6 80/6/5 82/6/9 83/6/11 
f 79/6/4 78/6/7 84/6/10 81/6/8 
s 1
f 85/6/6 86/6/7 87/6/4 88/6/5 
f 88/6/5 87/6/4 89/6/8 90/6/9 
f 91/6/11 90/6/9 89/6/8 92/6/10 
f 85/6/6 91/6/11 92/6/10 86/6/7 
s off
f 85/6/6 88/6/5 90/6/9 91/6/11 
f 87/6/4 86/6/7 92/6/10 89/6/8 
s 1
f 93/6/6 94/6/7 95/6/4 96/6/5 
f 96/6/5 95/6/4 97/6/8 98/6/9 
f 99/6/11 98/6/9 97/6/8 100/6/10 
f 93/6/6 99/6/11 100/6/10 94/6/7 
s off
f 93/6/6 96/6/5 98/6/9 99/6/11 
f 95/6/4 94/6/7 100/6/10 97/6/8 
s 1
f 101/6/6 102/6/7 103/6/4 104/6/5 
f 104/6/5 103/6/4 105/6/8 106/6/9 
f 107/6/11 106/6/9 105/6/8 108/6/10 
f 101/6/6 107/6/11 108/6/10 102/6/7 
s off
f 101/6/6 104/6/5 106/6/9 107/6/11 
f 103/6/4 102/6/7 108/6/10 105/6/8 
s 1
f 109/6/6 110/6/7 111/6/4 112/6/5 
f 112/6/5 111/6/4 113/6/8 114/6/9 
f 115/6/11 114/6/9 113/6/8 116/6/10 
f 109/6/6 115/6/11 116/6/10 110/6/7 
s off
f 109/6/6 112/6/5 114/6/9 115/6/11 
f 111/6/4 110/6/7 116/6/10 113/6/8 
s 1
f 117/6/6 118/6/7 119/6/4 120/6/5 
f 120/6/5 119/6/4 121/6/8 122/6/9 
f 123/6/11 122/6/9 121/6/8 124/6/10 
f 117/6/6 123/6/11 124/6/10 118/6/7 
s off
f 117/6/6 120/6/5 122/6/9 123/6/11 
f 119/6/4 118/6/7 124/6/10 121/6/8 
s 1
f 125/6/6 126/6/7 127/6/4 128/6/5 
f 128/6/5 127/6/4 129/6/8 130/6/9 
f 131/6/11 130/6/9 129/6/8 132/6/10 
f 125/6/6 131/6/11 132/6/10 126/6/7 
s off
f 125/6/6 128/6/5 130/6/9 131/6/11 
f 127/6/4 126/6/7 132/6/10 129/6/8 
s 1
f 133/5/2 134/5/2 135/5/2 136/5/2 
f 137/5/3 138/5/3 139/5/3 140/5/3 
f 141/5/2 142/5/2 143/5/2 144/5/2 
f 145/5/3 146/5/3 147/5/3 148/5/3 
f 149/5/2 150/5/2 151/5/2 152/5/2 
f 153/5/3 154/5/3 155/5/3 156/5/3 
f 157/5/2 158/5/2 159/5/2 160/5/2 
f 161/5/3 162/5/3 163/5/3 164/5/3 
f 165/5/2 166/5/2 167/5/2 168/5/2 
f 169/5/3 170/5/3 171/5/3 172/5/3 
f 173/5/2 174/5/2 175/5/2 176/5/2 
f 177/5/3 178/5/3 179/5/3 180/5/3 
f 181/5/2 182/5/2 183/5/2 184/5/2 
f 185/5/3 186/5/3 187/5/3 188/5/3 
f 189/5/2 190/5/2 191/5/2 192/5/2 
f 193/5/3 194/5/3 195/5/3 196/5/3 
f 197/5/2 198/5/2 199/5/2 200/5/2 
f 201/5/3 202/5/3 203/5/3 204/5/3 
f 205/5/2 206/5/2 207/5/2 208/5/2 
f 209/5/3 210/5/3 211/5/3 212/5/3 
f 213/5/2 214/5/2 215/5/2 216/5/2 
f 217/5/3 218/5/3 219/5/3 220/5/3 
f 221/5/2 222/5/2 223/5/2 224/5/2 
f 225/5/3 226/5/3 227/5/3 228/5/3 
f 229/5/2 230/5/2 231/5/2 232/5/2 
f 233/5/3 234/5/3 235/5/3 236/5/3 
f 237/5/2 238/5/2 239/5/2 240/5/2 
f 241/5/3 242/5/3 243/5/3 244/5/3 
f 245/5/2 246/5/2 247/5/2 248/5/2 
f 249/5/3 250/5/3 251/5/3 252/5/3 
f 253/5/2 254/5/2 255/5/2 256/5/2 
f 257/5/3 258/5/3 259/5/3 260/5/3 
f 261/5/2 262/5/2 263/5/2 264/5/2 
f 265/5/3 266/5/3 267/5/3 268/5/3 
f 269/5/2 270/5/2 271/5/2 272/5/2 
f 273/5/3 274/5/3 275/5/3 276/5/3 
f 277/5/2 278/5/2 279/5/2 280/5/2 
f 281/5/3 282/5/3 283/5/3 284/5/3 
f 285/5/2 286/5/2 287/5/2 288/5/2 
f 289/5/3 290/5/3 291/5/3 292/5/3 
f 293/5/2 294/5/2 295/5/2 296/5/2 
f 297/5/3 298/5/3 299/5/3 300/5/3 
f 301/5/2 302/5/2 303/5/2 304/5/2 
f 305/5/3 306/5/3 307/5/3 308/5/3 
# 117 polygons

