# 3ds Max Wavefront OBJ Exporter v0.97b - (c)2007 guruware
# File Created: 15.06.2018 15:27:48

mtllib M_G_B1A_T_B1_di_01.mtl

#
# object M_G_B1A_T_B1_di_01
#

v  687.5975 77.6452 221.1111
v  1327.1105 77.6452 -1090.6227
v  -1127.1469 77.6452 -1090.6227
v  222.2527 77.6452 221.1111
v  -1127.1469 77.6452 1362.8518
v  222.2527 77.6452 578.3115
v  687.5975 77.6452 399.7112
v  497.9768 77.6452 399.7112
v  969.4946 77.6452 400.1383
v  497.9768 77.6452 712.1856
v  490.9469 77.6452 399.7112
v  490.9469 77.6452 578.3115
v  1327.1105 77.6452 1362.8518
v  631.5393 77.6452 712.1856
v  984.9479 77.6452 650.5117
v  984.4430 77.6452 615.2941
v  984.4268 77.6452 614.1707
v  973.2983 77.6452 579.5557
v  981.8460 77.6452 600.3260
v  972.9292 77.6452 578.6587
v  958.7865 77.6452 559.9782
v  944.3266 77.6452 548.0217
v  895.6718 77.6452 532.7320
v  923.3220 77.6452 537.6397
v  703.1845 77.6452 535.6572
v  684.2760 77.6452 542.8359
v  683.0648 77.6452 543.2958
v  726.1851 77.6452 532.7410
v  665.3937 77.6452 555.0604
v  649.3140 77.6452 572.4561
v  637.8800 77.6452 593.6961
v  631.7824 77.6452 621.3382
v  1121.7474 77.6452 650.5117
v  1121.2826 77.6452 551.0831
v  1116.7526 77.6452 523.3367
v  1108.4949 77.6452 499.0597
v  1101.9417 77.6452 485.3854
v  1090.8906 77.6452 467.6495
v  1078.9038 77.6452 452.9729
v  1068.5066 77.6452 442.7670
v  1059.0787 77.6452 435.0663
v  1048.7080 77.6452 427.0994
v  1031.3373 77.6452 416.9432
v  1011.8599 77.6452 408.8389
v  992.3002 77.6452 403.3732
# 45 vertices

vn 0.0000 1.0000 0.0000
vn -0.0000 1.0000 0.0000
vn 0.0000 1.0000 -0.0000
vn -0.0000 1.0000 -0.0000
vn 0.0002 1.0000 0.0005
# 5 vertex normals

vt 0.7394 0.4654 0.5000
vt 1.0000 1.0000 0.5000
vt 0.0000 1.0000 0.5000
vt 0.5498 0.4654 0.5000
vt 0.0000 0.0000 0.5000
vt 0.5498 0.3198 0.5000
vt 0.7394 0.3926 0.5000
vt 0.6622 0.3926 0.5000
vt 0.8543 0.3924 0.5000
vt 0.6622 0.2652 0.5000
vt 0.6593 0.3926 0.5000
vt 0.6593 0.3198 0.5000
vt 1.0000 0.0000 0.5000
vt 0.7166 0.2652 0.5000
vt 0.8606 0.2903 0.5000
vt 0.8604 0.3047 0.5000
vt 0.8604 0.3052 0.5000
vt 0.8558 0.3193 0.5000
vt 0.8593 0.3108 0.5000
vt 0.8557 0.3196 0.5000
vt 0.8499 0.3272 0.5000
vt 0.8440 0.3321 0.5000
vt 0.8242 0.3383 0.5000
vt 0.8355 0.3363 0.5000
vt 0.7458 0.3372 0.5000
vt 0.7381 0.3342 0.5000
vt 0.7376 0.3340 0.5000
vt 0.7551 0.3383 0.5000
vt 0.7304 0.3292 0.5000
vt 0.7238 0.3222 0.5000
vt 0.7192 0.3135 0.5000
vt 0.7167 0.3022 0.5000
vt 0.9163 0.2903 0.5000
vt 0.9161 0.3309 0.5000
vt 0.9143 0.3422 0.5000
vt 0.9109 0.3521 0.5000
vt 0.9083 0.3576 0.5000
vt 0.9038 0.3649 0.5000
vt 0.8989 0.3709 0.5000
vt 0.8946 0.3750 0.5000
vt 0.8908 0.3782 0.5000
vt 0.8866 0.3814 0.5000
vt 0.8795 0.3855 0.5000
vt 0.8715 0.3888 0.5000
vt 0.8636 0.3911 0.5000
# 45 texture coords

g M_G_B1A_T_B1_di_01
usemtl T_B1_di_01
s 1
f 1/1/1 2/2/2 3/3/1 4/4/2 
f 3/3/1 5/5/3 6/6/4 4/4/2 
f 7/7/2 8/8/3 9/9/4 1/1/1 
f 1/1/1 9/9/4 2/2/2 
f 10/10/3 8/8/3 11/11/3 12/12/3 
f 10/10/3 5/5/3 13/13/2 14/14/2 
f 10/10/3 12/12/3 6/6/4 5/5/3 
f 15/15/3 16/16/2 17/17/2 18/18/3 
f 17/17/2 19/19/3 18/18/3 
f 18/18/3 20/20/3 21/21/3 22/22/2 
f 15/15/3 18/18/3 22/22/2 23/23/2 
f 22/22/2 24/24/2 23/23/2 
f 25/25/4 26/26/5 27/27/1 28/28/2 
f 23/23/2 28/28/2 27/27/1 13/13/2 
f 27/27/1 29/29/1 30/30/1 31/31/3 
f 32/32/2 14/14/2 13/13/2 31/31/3 
f 27/27/1 31/31/3 13/13/2 
f 15/15/3 23/23/2 13/13/2 
f 33/33/2 15/15/3 13/13/2 
f 34/34/2 33/33/2 13/13/2 2/2/2 
f 35/35/4 34/34/2 2/2/2 36/36/4 
f 37/37/1 36/36/4 2/2/2 38/38/4 
f 39/39/4 38/38/4 2/2/2 40/40/1 
f 41/41/4 40/40/1 2/2/2 42/42/2 
f 43/43/2 42/42/2 2/2/2 44/44/1 
f 45/45/1 44/44/1 2/2/2 9/9/4 
# 20 polygons - 6 triangles

