# 3ds Max Wavefront OBJ Exporter v0.97b - (c)2007 guruware
# File Created: 15.06.2018 15:26:43

mtllib M_G_B1A_Tt_langanB3_003.mtl

#
# object M_G_B1A_Tt_langanB3_003
#

v  -632.0983 94.6944 -327.4268
v  -643.3524 94.6944 -327.4268
v  -643.3524 77.6453 -327.4268
v  -632.0983 77.6453 -327.4268
v  -632.0983 94.6944 -563.3036
v  -632.0983 77.6453 -563.3036
v  -709.4915 94.6944 -563.3036
v  -709.4915 77.6453 -563.3036
v  -709.4915 94.6944 -327.4268
v  -709.4915 77.6453 -327.4268
v  -698.3766 94.6944 -327.4268
v  -698.3766 77.6453 -327.4268
v  759.0780 94.4408 -265.6909
v  759.0780 77.6452 -265.6909
v  759.3322 77.6452 -264.0318
v  759.3322 94.4408 -264.0318
v  780.8799 94.4408 -269.5574
v  780.8799 77.6452 -269.5574
v  784.2778 94.4408 -297.9579
v  784.2778 77.6452 -297.9579
v  792.8217 94.4408 -325.2299
v  792.8217 77.6452 -325.2299
v  810.4763 94.4408 -356.6831
v  810.4763 77.6452 -356.6831
v  834.8983 94.4408 -383.2260
v  834.8983 77.6452 -383.2260
v  856.7925 94.4408 -398.9106
v  856.7925 77.6452 -398.9106
v  865.8301 94.4408 -347.1208
v  865.8301 77.6452 -347.1208
v  974.7563 94.4408 -366.4689
v  974.7563 77.6452 -366.4689
v  965.6224 94.4408 -418.2049
v  965.6224 77.6452 -418.2049
v  987.4899 94.4408 -412.3839
v  987.4899 77.6452 -412.3839
v  1009.6674 94.4408 -402.7054
v  1009.6674 77.6452 -402.7054
v  1030.0771 94.4408 -389.7075
v  1030.0771 77.6452 -389.7075
v  1048.2264 94.4408 -373.7037
v  1048.2264 77.6452 -373.7037
v  1064.5615 94.4408 -353.8528
v  1064.5615 77.6452 -353.8528
v  1075.3700 94.4408 -335.6399
v  1075.3700 77.6452 -335.6399
v  1081.5417 94.4408 -321.8519
v  1081.5417 77.6452 -321.8519
v  1045.7013 94.4408 -315.5237
v  1045.7013 77.6452 -315.5237
v  1045.8718 94.4408 -314.5565
v  1045.8718 77.6452 -314.5565
v  769.9172 94.4408 -203.9998
v  769.5732 94.4408 -205.9519
v  769.5732 77.6452 -205.9519
v  769.9172 77.6452 -203.9998
v  791.8004 94.4408 -207.8823
v  791.8004 77.6452 -207.8823
v  804.1149 94.4408 -183.3765
v  804.1149 77.6452 -183.3765
v  823.6188 94.4408 -158.0718
v  823.6188 77.6452 -158.0718
v  851.6799 94.4408 -134.7397
v  851.6799 77.6452 -134.7397
v  881.4894 94.4408 -119.7497
v  881.4894 77.6452 -119.7497
v  918.4722 94.4408 -110.6607
v  918.4722 77.6452 -110.6607
v  953.4510 94.4408 -110.5321
v  953.4510 77.6452 -110.5321
v  993.3018 94.4408 -120.3153
v  993.3018 77.6452 -120.3153
v  1025.4904 94.4408 -137.5224
v  1025.4904 77.6452 -137.5224
v  1053.7802 94.4408 -162.9083
v  1053.7802 77.6452 -162.9083
v  1076.4746 94.4408 -197.0951
v  1076.4746 77.6452 -197.0951
v  1088.8052 94.4408 -233.0492
v  1088.8052 77.6452 -233.0492
v  1092.1624 94.4408 -261.7718
v  1092.1624 77.6452 -261.7718
v  1056.3071 94.4408 -255.4495
v  1056.3071 77.6452 -255.4495
v  1056.1257 94.4408 -256.4789
v  1056.1257 77.6452 -256.4789
# 86 vertices

vn 0.0000 0.0000 1.0000
vn 1.0000 0.0000 -0.0000
vn 0.0000 0.0000 -1.0000
vn -1.0000 0.0000 -0.0000
vn -0.9885 0.0000 0.1514
vn -0.1746 0.0000 -0.9846
vn -0.9929 0.0000 -0.1188
vn -0.9543 0.0000 -0.2990
vn -0.8720 0.0000 -0.4895
vn -0.7359 0.0000 -0.6771
vn -0.5824 0.0000 -0.8129
vn 0.9851 0.0000 -0.1719
vn -0.1749 0.0000 -0.9846
vn -0.9848 0.0000 0.1739
vn 0.2572 0.0000 -0.9663
vn 0.4000 0.0000 -0.9165
vn 0.5372 0.0000 -0.8435
vn 0.6614 0.0000 -0.7500
vn 0.7722 0.0000 -0.6354
vn 0.8600 0.0000 -0.5103
vn 0.9127 0.0000 -0.4086
vn 0.1739 0.0000 0.9848
vn 0.9848 0.0000 -0.1736
vn -0.9848 0.0000 0.1736
vn 0.1747 0.0000 0.9846
vn -0.8935 0.0000 0.4490
vn -0.7920 0.0000 0.6105
vn -0.6393 0.0000 0.7689
vn -0.4493 0.0000 0.8934
vn -0.2387 0.0000 0.9711
vn -0.0037 0.0000 1.0000
vn 0.2384 0.0000 0.9712
vn 0.4714 0.0000 0.8819
vn 0.6679 0.0000 0.7443
vn 0.8331 0.0000 0.5531
vn 0.9459 0.0000 0.3244
vn 0.9932 0.0000 0.1161
vn -0.1737 0.0000 -0.9848
# 38 vertex normals

vt -2.3351 1.0000 0.7329
vt -1.8953 1.0000 0.7329
vt -1.8953 0.0000 0.7329
vt -2.3351 0.0000 0.7329
vt -5.0556 1.0000 0.0430
vt 0.7329 1.0000 0.0430
vt 0.7329 0.0000 0.0430
vt -5.0556 0.0000 0.0430
vt 0.0626 1.0000 -5.0556
vt 2.1016 1.0000 -5.0556
vt 2.1016 0.0000 -5.0556
vt 0.0626 0.0000 -5.0556
vt 0.2671 1.0000 -0.0000
vt 6.0556 1.0000 0.0000
vt 6.0556 0.0000 0.0000
vt 0.2671 0.0000 -0.0000
vt 0.5916 1.0000 0.7329
vt 1.0370 1.0000 0.7329
vt 1.0370 0.0000 0.7329
vt 0.5916 0.0000 0.7329
vt 10.6582 0.9851 2.2479
vt 10.6582 -0.0000 2.2479
vt 10.5993 -0.0000 2.2886
vt 10.5993 0.9851 2.2886
vt 1.1814 0.9851 2.1530
vt 1.1814 -0.0000 2.1530
vt 0.5179 -0.0000 2.2479
vt 0.5179 0.9851 2.2479
vt 0.6753 0.9851 1.4561
vt 0.6753 -0.0000 1.4561
vt -0.0746 -0.0000 2.1530
vt -0.0746 0.9851 2.1530
vt 0.8055 0.9851 0.7868
vt 0.8055 -0.0000 0.7868
vt 0.3408 -0.0000 1.4561
vt 0.3408 0.9851 1.4561
vt 1.7989 0.9851 0.0150
vt 1.7989 -0.0000 0.0150
vt 0.8687 -0.0000 0.7868
vt 0.8687 0.9851 0.7868
vt 2.7666 0.9851 -0.6364
vt 2.7666 -0.0000 -0.6364
vt 3.4330 0.9851 -1.0213
vt 3.4330 -0.0000 -1.0213
vt 4.7460 0.9851 0.2496
vt 4.7460 -0.0000 0.2496
vt 7.0231 0.9851 -0.2252
vt 7.0231 -0.0000 -0.2252
vt 3.7080 -0.0000 0.2496
vt 3.7080 0.9851 0.2496
vt 4.7297 0.9851 -1.4948
vt 4.7297 -0.0000 -1.4948
vt 3.5731 -0.0000 -0.2252
vt 3.5731 0.9851 -0.2252
vt 7.4106 0.9851 -1.3519
vt 7.4106 -0.0000 -1.3519
vt 6.7451 -0.0000 -1.4948
vt 6.7451 0.9851 -1.4948
vt 8.0855 0.9851 -1.1144
vt 8.0855 -0.0000 -1.1144
vt 8.7067 0.9851 -0.7955
vt 8.7067 -0.0000 -0.7955
vt 9.2590 0.9851 -0.4027
vt 9.2590 -0.0000 -0.4027
vt 9.7562 0.9851 0.0844
vt 9.7562 -0.0000 0.0844
vt 10.0851 0.9851 0.5314
vt 10.0851 -0.0000 0.5314
vt 10.2729 0.9851 0.8697
vt 10.2729 -0.0000 0.8697
vt 1.4140 0.9851 1.0250
vt 1.4140 -0.0000 1.0250
vt 0.3232 -0.0000 0.8697
vt 0.3232 0.9851 0.8697
vt 9.6046 0.9851 1.0488
vt 9.6046 -0.0000 1.0488
vt 9.5818 -0.0000 1.0250
vt 9.5818 0.9851 1.0250
vt 9.5405 0.9851 3.7618
vt 9.6366 0.9851 3.7139
vt 9.6366 -0.0000 3.7139
vt 9.5405 -0.0000 3.7618
vt 8.9093 0.9851 3.6666
vt 9.5753 0.9851 3.7618
vt 9.5753 -0.0000 3.7618
vt 8.9093 -0.0000 3.6666
vt 8.6517 0.9851 4.2679
vt 9.2802 0.9851 3.6666
vt 9.2802 -0.0000 3.6666
vt 8.6517 -0.0000 4.2679
vt 7.6563 0.9851 4.8889
vt 7.6563 -0.0000 4.8889
vt 7.3188 0.9851 5.4615
vt 8.1728 0.9851 4.8889
vt 8.1728 -0.0000 4.8889
vt 7.3188 -0.0000 5.4615
vt 6.4116 0.9851 5.8294
vt 6.4116 -0.0000 5.8294
vt 5.2860 0.9851 6.0524
vt 5.2860 -0.0000 6.0524
vt 4.2215 0.9851 6.0556
vt 4.2215 -0.0000 6.0556
vt 3.0087 0.9851 5.8155
vt 3.0087 -0.0000 5.8155
vt 2.0291 0.9851 5.3932
vt 2.0291 -0.0000 5.3932
vt 1.4696 0.9851 4.7702
vt 2.5528 0.9851 5.3932
vt 2.5528 -0.0000 5.3932
vt 1.4696 -0.0000 4.7702
vt 0.7697 0.9851 3.9313
vt 1.9496 0.9851 4.7702
vt 1.9496 -0.0000 4.7702
vt 0.7697 -0.0000 3.9313
vt 0.1789 0.9851 3.0490
vt 1.3068 0.9851 3.9313
vt 1.3068 -0.0000 3.9313
vt 0.1789 -0.0000 3.0490
vt 0.0504 0.9851 2.3441
vt 0.7999 0.9851 3.0490
vt 0.7999 -0.0000 3.0490
vt 0.0504 -0.0000 2.3441
vt 9.5049 0.9851 2.4993
vt 10.5962 0.9851 2.3441
vt 10.5962 -0.0000 2.3441
vt 9.5049 -0.0000 2.4993
vt 9.0645 0.9851 2.4740
vt 9.1053 0.9851 2.4993
vt 9.1053 -0.0000 2.4993
vt 9.0645 -0.0000 2.4740
# 130 texture coords

g M_G_B1A_Tt_langanB3_003
usemtl Tt_langanB3_003
s 1
f 1/1/1 2/2/1 3/3/1 4/4/1 
s 4
f 5/5/2 1/6/2 4/7/2 6/8/2 
s 2
f 7/9/3 5/10/3 6/11/3 8/12/3 
s 4
f 9/13/4 7/14/4 8/15/4 10/16/4 
s 2
f 11/17/1 9/18/1 10/19/1 12/20/1 
s 1
f 13/21/5 14/22/5 15/23/5 16/24/5 
s 4
f 17/25/6 18/26/6 14/27/6 13/28/6 
s 2
f 19/29/7 20/30/7 18/31/7 17/32/7 
s 4
f 21/33/8 22/34/8 20/35/8 19/36/8 
s 2
f 23/37/9 24/38/9 22/39/9 21/40/9 
s 4
f 25/41/10 26/42/10 24/38/10 23/37/10 
s 2
f 27/43/11 28/44/11 26/42/11 25/41/11 
s 4
f 29/45/12 30/46/12 28/44/12 27/43/12 
s 2
f 31/47/13 32/48/13 30/49/13 29/50/13 
s 1
f 33/51/14 34/52/14 32/53/14 31/54/14 
s 4
f 35/55/15 36/56/15 34/57/15 33/58/15 
s 2
f 37/59/16 38/60/16 36/56/16 35/55/16 
s 4
f 39/61/17 40/62/17 38/60/17 37/59/17 
s 2
f 41/63/18 42/64/18 40/62/18 39/61/18 
s 4
f 43/65/19 44/66/19 42/64/19 41/63/19 
s 2
f 45/67/20 46/68/20 44/66/20 43/65/20 
s 4
f 47/69/21 48/70/21 46/68/21 45/67/21 
s 2
f 49/71/22 50/72/22 48/73/22 47/74/22 
s 4
f 51/75/23 52/76/23 50/77/23 49/78/23 
s 1
f 53/79/24 54/80/24 55/81/24 56/82/24 
s 4
f 57/83/25 53/84/25 56/85/25 58/86/25 
s 2
f 59/87/26 57/88/26 58/89/26 60/90/26 
s 4
f 61/91/27 59/87/27 60/90/27 62/92/27 
s 2
f 63/93/28 61/94/28 62/95/28 64/96/28 
s 4
f 65/97/29 63/93/29 64/96/29 66/98/29 
s 2
f 67/99/30 65/97/30 66/98/30 68/100/30 
s 4
f 69/101/31 67/99/31 68/100/31 70/102/31 
s 2
f 71/103/32 69/101/32 70/102/32 72/104/32 
s 4
f 73/105/33 71/103/33 72/104/33 74/106/33 
s 2
f 75/107/34 73/108/34 74/109/34 76/110/34 
s 4
f 77/111/35 75/112/35 76/113/35 78/114/35 
s 2
f 79/115/36 77/116/36 78/117/36 80/118/36 
s 4
f 81/119/37 79/120/37 80/121/37 82/122/37 
s 2
f 83/123/38 81/124/38 82/125/38 84/126/38 
s 4
f 85/127/23 83/128/23 84/129/23 86/130/23 
# 40 polygons

