# 3ds Max Wavefront OBJ Exporter v0.97b - (c)2007 guruware
# File Created: 15.06.2018 15:27:15

mtllib M_G_B1A_T_tujian_004_chewei.mtl

#
# object M_G_B1A_T_tujian_004_chewei
#

v  984.9476 77.6833 650.5116
v  1121.7472 77.6833 650.5116
v  1121.2825 77.6833 551.0830
v  984.4266 77.6833 614.1706
v  497.9766 77.6833 399.7111
v  497.9766 77.6833 712.1855
v  631.5391 77.6833 712.1855
v  631.7822 77.6833 621.3381
v  637.8798 77.6833 593.6960
v  649.3138 77.6833 572.4561
v  665.3934 77.6833 555.0603
v  683.0646 77.6833 543.2957
v  703.1843 77.6833 535.6571
v  726.1849 77.6833 532.7410
v  895.6716 77.6833 532.7319
v  923.3218 77.6833 537.6396
v  969.4944 77.6833 400.1382
v  944.3264 77.6833 548.0216
v  992.2999 77.6833 403.3731
v  1011.8597 77.6833 408.8389
v  1031.3372 77.6833 416.9432
v  1048.7079 77.6833 427.0994
v  958.7863 77.6833 559.9781
v  1066.3591 77.6833 440.6592
v  1078.9036 77.6833 452.9729
v  1090.8904 77.6833 467.6494
v  1101.9414 77.6833 485.3853
v  972.9290 77.6833 578.6586
v  1109.7094 77.6833 501.5943
v  1116.7523 77.6833 523.3367
v  981.8458 77.6833 600.3260
v  687.5973 77.6833 399.7111
v  687.5973 77.6833 221.1111
v  222.2525 77.6833 221.1111
v  490.9467 77.6833 399.7111
v  222.2525 77.6833 578.3114
v  490.9467 77.6833 578.3114
# 37 vertices

vn 0.0000 1.0000 -0.0000
# 1 vertex normals

vt 0.9890 0.7791 0.5000
# 1 texture coords

g M_G_B1A_T_tujian_004_chewei
usemtl T_tujian_004
s 1
f 1/1/1 2/1/1 3/1/1 4/1/1 
f 5/1/1 6/1/1 7/1/1 8/1/1 
f 5/1/1 8/1/1 9/1/1 10/1/1 
f 5/1/1 10/1/1 11/1/1 12/1/1 
f 5/1/1 12/1/1 13/1/1 14/1/1 
f 5/1/1 14/1/1 15/1/1 16/1/1 
f 17/1/1 5/1/1 16/1/1 18/1/1 
f 19/1/1 17/1/1 18/1/1 20/1/1 
f 21/1/1 20/1/1 18/1/1 22/1/1 
f 22/1/1 18/1/1 23/1/1 24/1/1 
f 25/1/1 24/1/1 23/1/1 26/1/1 
f 27/1/1 26/1/1 23/1/1 28/1/1 
f 29/1/1 27/1/1 28/1/1 30/1/1 
f 3/1/1 30/1/1 28/1/1 31/1/1 
f 3/1/1 31/1/1 4/1/1 
f 32/1/1 33/1/1 34/1/1 35/1/1 
f 36/1/1 37/1/1 35/1/1 34/1/1 
# 16 polygons - 1 triangles

