# 3ds Max Wavefront OBJ Exporter v0.97b - (c)2007 guruware
# File Created: 15.06.2018 19:14:59

mtllib M_G_B2A_T_pj_lanse_01_btm.mtl

#
# object M_G_B2A_T_pj_lanse_01_btm
#

v  677.9269 212.7494 -305.9760
v  681.6060 197.7807 -306.6111
v  541.8326 123.7142 -282.4895
v  538.1533 138.6830 -281.8546
v  683.1099 212.7494 -279.7593
v  686.7892 197.7807 -280.3942
v  547.0156 123.7142 -256.2726
v  543.3364 138.6830 -255.6375
v  688.2743 212.7494 -253.8286
v  691.9535 197.7807 -254.4636
v  552.1802 123.7142 -230.3420
v  548.5009 138.6830 -229.7072
v  681.9706 213.9879 -306.6740
v  685.6500 199.0191 -307.3088
v  687.1538 213.9879 -280.4570
v  690.8329 199.0191 -281.0920
v  692.3180 213.9879 -254.5266
v  695.9976 199.0191 -255.1615
v  686.1748 214.4060 -307.3993
v  689.8536 199.4372 -308.0342
v  691.3577 214.4060 -281.1825
v  695.0369 199.4372 -281.8174
v  696.5223 214.4060 -255.2520
v  700.2012 199.4372 -255.8871
v  705.5474 214.4060 -310.7426
v  705.5474 199.4372 -310.7426
v  710.7303 214.4060 -284.5258
v  710.7303 199.4372 -284.5258
v  715.8949 214.4060 -258.5953
v  715.8949 199.4372 -258.5953
v  710.2900 212.6550 -311.5612
v  710.2900 201.1882 -311.5612
v  715.4731 212.6550 -285.3444
v  715.4731 201.1882 -285.3444
v  720.6376 212.6550 -259.4138
v  720.6376 201.1882 -259.4138
v  712.8137 208.2212 -311.9966
v  712.8137 205.6219 -311.9966
v  717.9969 208.2212 -285.7797
v  717.9969 205.6219 -285.7797
v  723.1613 208.2212 -259.8495
v  723.1613 205.6219 -259.8495
v  510.1656 124.0466 -277.0244
v  512.6893 138.5640 -277.4598
v  515.3488 124.0466 -250.8076
v  517.8722 138.5640 -251.2430
v  520.5132 124.0466 -224.8770
v  523.0369 138.5640 -225.3126
v  506.2994 127.3374 -276.3573
v  507.9462 136.8130 -276.6414
v  511.4825 127.3374 -250.1404
v  513.1294 136.8130 -250.4246
v  516.6470 127.3374 -224.2098
v  518.2939 136.8130 -224.4940
v  505.4230 132.3792 -276.2061
v  510.6060 132.3792 -249.9891
v  515.7705 132.3792 -224.0586
v  337.0339 120.7560 -356.2249
v  337.0339 200.1473 -356.2249
v  337.0342 200.1473 -492.2959
v  337.0342 120.7560 -492.2959
v  338.2950 200.1473 -492.2958
v  338.2949 200.1473 -356.2249
v  338.2949 120.7560 -356.2249
v  338.2950 120.7560 -492.2958
v  337.0342 120.7560 -198.3589
v  337.0342 200.1473 -198.3589
v  337.0341 200.1473 -339.1840
v  337.0341 120.7560 -339.1840
v  338.2949 200.1473 -339.1840
v  338.2950 200.1473 -198.3588
v  338.2950 120.7560 -198.3588
v  338.2949 120.7560 -339.1840
v  337.0342 164.2322 -77.3529
v  337.0342 120.7560 -77.3529
v  337.0341 120.7560 -24.2651
v  337.0341 200.1473 -24.2651
v  337.0342 200.1473 -179.4564
v  337.0341 164.2322 -145.4026
v  337.0342 120.7560 -179.4564
v  337.0341 120.7560 -145.4026
v  338.2950 164.2322 -145.4026
v  338.2950 120.7560 -145.4026
v  338.2950 120.7560 -179.4564
v  338.2950 200.1473 -179.4564
v  338.2950 164.2322 -77.3529
v  338.2950 200.1473 -24.2651
v  338.2950 120.7560 -24.2651
v  338.2950 120.7560 -77.3529
v  816.7220 164.2322 -22.9994
v  816.7220 120.7560 -22.9994
v  902.8558 120.7560 -22.9994
v  902.8558 200.1473 -22.9994
v  782.6971 164.2322 -22.9995
v  338.2950 200.1473 -22.9994
v  338.2950 120.7560 -22.9994
v  782.6971 120.7560 -22.9995
v  901.5953 120.7560 -24.2604
v  816.7220 120.7560 -24.2604
v  816.7220 164.2322 -24.2604
v  901.5953 200.1473 -24.2604
v  782.6971 164.2322 -24.2603
v  338.2949 200.1473 -24.2601
v  338.2949 120.7560 -24.2601
v  782.6971 120.7560 -24.2603
v  902.8558 120.7560 -24.2603
v  902.8558 200.1473 -24.2603
v  902.8561 120.7560 -499.2279
v  902.8561 200.1473 -499.2279
v  901.5953 200.1473 -497.9668
v  901.5953 200.1473 -499.2277
v  901.5953 120.7560 -499.2277
v  901.5953 120.7560 -497.9668
v  835.8966 164.2322 -499.2278
v  835.8966 120.7560 -499.2278
v  814.6427 120.7560 -499.2279
v  814.6427 200.1473 -499.2279
v  869.9215 164.2322 -499.2279
v  869.9215 120.7560 -499.2279
v  869.9218 164.2322 -497.9669
v  869.9218 120.7560 -497.9669
v  814.6429 200.1473 -497.9669
v  835.8969 164.2322 -497.9669
v  814.6429 120.7560 -497.9669
v  835.8969 120.7560 -497.9669
v  497.0775 120.7560 -499.2279
v  497.0775 200.1473 -499.2279
v  797.6307 200.1473 -499.2279
v  797.6307 120.7560 -499.2279
v  797.6307 200.1473 -497.9670
v  497.0775 200.1473 -497.9669
v  497.0775 120.7560 -497.9669
v  797.6307 120.7560 -497.9670
v  338.2949 120.7560 -499.2278
v  338.2949 200.1473 -499.2278
v  480.0654 200.1473 -499.2279
v  480.0654 120.7560 -499.2279
v  480.0656 200.1473 -497.9670
v  338.2950 200.1473 -497.9669
v  338.2950 120.7560 -497.9669
v  480.0656 120.7560 -497.9670
v  -964.3771 212.7495 -375.5070
v  -964.4022 197.7807 -371.7734
v  -963.4442 123.7143 -513.6096
v  -963.4188 138.6830 -517.3431
v  -991.0972 212.7495 -375.0383
v  -991.1226 197.7807 -371.3046
v  -990.1644 123.7143 -513.1411
v  -990.1392 138.6831 -516.8746
v  -1017.5323 212.7495 -374.5375
v  -1017.5575 197.7807 -370.8040
v  -1016.5994 123.7143 -512.6400
v  -1016.5740 138.6831 -516.3739
v  -964.4047 213.9879 -371.4034
v  -964.4301 199.0191 -367.6696
v  -991.1250 213.9879 -370.9347
v  -991.1503 199.0191 -367.2013
v  -1017.5599 213.9879 -370.4340
v  -1017.5853 199.0191 -366.7003
v  -964.4337 214.4060 -367.1373
v  -964.4590 199.4372 -363.4039
v  -991.1539 214.4060 -366.6688
v  -991.1792 199.4372 -362.9352
v  -1017.5889 214.4060 -366.1678
v  -1017.6140 199.4372 -362.4344
v  -964.5665 214.4060 -347.4789
v  -964.5665 199.4372 -347.4789
v  -991.2867 214.4060 -347.0101
v  -991.2867 199.4372 -347.0101
v  -1017.7217 214.4060 -346.5090
v  -1017.7217 199.4372 -346.5090
v  -964.5989 212.6550 -342.6661
v  -964.5989 201.1882 -342.6661
v  -991.3191 212.6550 -342.1971
v  -991.3191 201.1882 -342.1971
v  -1017.7543 212.6550 -341.6963
v  -1017.7543 201.1882 -341.6963
v  -964.6162 208.2213 -340.1051
v  -964.6162 205.6220 -340.1051
v  -991.3364 208.2213 -339.6365
v  -991.3364 205.6220 -339.6365
v  -1017.7715 208.2213 -339.1356
v  -1017.7715 205.6220 -339.1356
v  -963.2271 124.0466 -545.7439
v  -963.2443 138.5640 -543.1830
v  -989.9473 124.0466 -545.2751
v  -989.9645 138.5641 -542.7146
v  -1016.3824 124.0466 -544.7743
v  -1016.3995 138.5641 -542.2136
v  -963.2004 127.3374 -549.6674
v  -963.2117 136.8130 -547.9961
v  -989.9208 127.3375 -549.1985
v  -989.9319 136.8130 -547.5276
v  -1016.3558 127.3375 -548.6976
v  -1016.3671 136.8130 -547.0265
v  -963.1945 132.3793 -550.5565
v  -989.9147 132.3793 -550.0880
v  -1016.3499 132.3793 -549.5873
# 198 vertices

vn -0.1437 0.0000 -0.9867
vn -0.1437 -0.0000 -0.9867
vn -0.1438 0.0000 -0.9867
vn -1.0000 0.0000 0.0096
vn 1.0000 0.0000 -0.0096
vn 0.0000 -1.0000 -0.0000
vn -0.0096 0.0000 1.0000
vn 0.0000 1.0000 -0.0000
vn 0.0096 0.0000 -1.0000
vn 1.0000 0.0000 -0.0127
vn 1.0000 -0.0000 -0.0127
vn 1.0000 0.0000 -0.0126
vn 1.0000 -0.0000 -0.0126
# 13 vertex normals

vt 0.8648 0.8935 0.0324
vt 0.8648 0.8935 0.0175
vt 0.8648 0.8935 0.0026
vt 23.6171 0.0000 0.0000
vt 23.6171 13.7795 0.0000
vt 0.0000 13.7795 0.0000
vt 0.0000 0.0000 0.0000
vt -23.6171 13.7795 0.0000
vt -23.6171 0.0000 0.0000
vt 0.0000 0.1094 0.0000
vt -0.0000 -0.1094 0.0000
vt 23.6171 -0.1094 0.0000
vt 23.6171 0.1094 0.0000
vt -0.1094 0.0000 0.0000
vt 0.1094 0.0000 0.0000
vt 0.1094 13.7795 0.0000
vt -0.1094 13.7795 0.0000
vt -0.0000 0.1094 0.0000
vt -0.1094 -0.0000 0.0000
vt 0.1094 -0.0000 0.0000
vt 24.4423 0.0000 0.0000
vt 24.4423 13.7795 0.0000
vt -24.4423 13.7795 0.0000
vt -24.4423 0.0000 0.0000
vt 24.4423 -0.1094 0.0000
vt 24.4423 0.1094 0.0000
vt 0.0000 -0.1094 0.0000
vt 17.7215 7.5459 0.0000
vt 17.7215 0.0000 0.0000
vt 26.9357 -0.0000 0.0000
vt 26.9357 13.7795 0.0000
vt 5.9105 7.5459 0.0000
vt 5.9105 -0.0000 0.0000
vt -5.9105 7.5459 0.0000
vt -5.9105 -0.0000 0.0000
vt 0.0000 -0.0000 0.0000
vt -17.7215 7.5459 0.0000
vt -26.9357 13.7795 0.0000
vt -26.9357 0.0000 0.0000
vt -17.7215 0.0000 0.0000
vt 26.9357 -0.1094 0.0000
vt 26.9357 0.1094 0.0000
vt 17.7215 0.1094 0.0000
vt 17.7215 -0.1094 0.0000
vt 5.9105 0.1094 0.0000
vt 5.9105 -0.1094 0.0000
vt -0.1094 7.5459 0.0000
vt 0.1094 7.5459 0.0000
vt 83.0381 7.5459 0.0000
vt 83.0381 0.0000 0.0000
vt 97.9879 0.0000 0.0000
vt 97.9879 13.7795 0.0000
vt 77.1325 7.5459 0.0000
vt 77.1325 0.0000 0.0000
vt -97.7690 0.0000 0.0000
vt -83.0381 -0.0000 0.0000
vt -83.0381 7.5459 0.0000
vt -97.7690 13.7795 0.0000
vt -77.1325 7.5459 0.0000
vt -77.1325 -0.0000 0.0000
vt -97.9879 0.0000 0.0000
vt -97.9879 13.7795 0.0000
vt 77.1325 -0.1094 0.0000
vt 77.1325 0.1094 0.0000
vt 83.0381 0.1094 0.0000
vt 83.0381 -0.1094 0.0000
vt 97.7690 -0.1094 0.0000
vt 97.9879 0.1094 0.0000
vt 97.9879 -0.1094 0.0000
vt 97.7690 0.1094 0.0000
vt 82.5470 0.0000 0.0000
vt 82.5470 13.7795 0.0000
vt -82.3282 13.7795 0.0000
vt -82.5470 13.7795 0.0000
vt -82.5470 -0.0000 0.0000
vt -82.3282 0.0000 0.0000
vt 0.1094 0.1094 0.0000
vt 0.1094 -0.1094 0.0000
vt 82.3282 -0.1094 0.0000
vt 82.5470 0.1094 0.0000
vt 82.5470 -0.1094 0.0000
vt 82.3282 0.1094 0.0000
vt 11.5124 7.5459 0.0000
vt 11.5124 0.0000 0.0000
vt 15.2013 0.0000 0.0000
vt 15.2013 13.7795 0.0000
vt 5.6069 7.5459 0.0000
vt 5.6069 -0.0000 0.0000
vt -5.6069 7.5459 0.0000
vt -5.6069 0.0000 0.0000
vt -15.2013 13.7795 0.0000
vt -11.5124 7.5459 0.0000
vt -15.2013 0.0000 0.0000
vt -11.5124 -0.0000 0.0000
vt 15.2013 0.1094 0.0000
vt 11.5124 0.1094 0.0000
vt 11.5124 -0.1094 0.0000
vt 15.2013 -0.1094 0.0000
vt 5.6069 -0.1094 0.0000
vt 5.6069 0.1094 0.0000
vt 52.1654 0.0000 0.0000
vt 52.1654 13.7795 0.0000
vt -52.1654 13.7795 0.0000
vt -52.1654 0.0000 0.0000
vt 52.1654 -0.1094 0.0000
vt 52.1654 0.1094 0.0000
vt 24.6064 0.0000 0.0000
vt 24.6064 13.7795 0.0000
vt -24.6064 13.7795 0.0000
vt -24.6064 0.0000 0.0000
vt 24.6064 -0.1094 0.0000
vt 24.6064 0.1094 0.0000
# 112 texture coords

g M_G_B2A_T_pj_lanse_01_btm
usemtl pj_lanse_01
s off
f 1/1/1 2/1/1 3/1/1 4/1/1 
f 5/2/1 6/2/1 7/2/1 8/2/1 
f 9/3/1 10/3/1 11/3/1 12/3/1 
f 13/1/2 14/1/2 2/1/2 1/1/2 
f 15/2/2 16/2/2 6/2/2 5/2/2 
f 17/3/2 18/3/2 10/3/2 9/3/2 
f 19/1/1 20/1/1 14/1/1 13/1/1 
f 21/2/1 22/2/1 16/2/1 15/2/1 
f 23/3/1 24/3/1 18/3/1 17/3/1 
f 25/1/1 26/1/1 20/1/1 19/1/1 
f 27/2/2 28/2/2 22/2/2 21/2/2 
f 29/3/1 30/3/1 24/3/1 23/3/1 
f 25/1/1 31/1/1 32/1/1 26/1/1 
f 27/2/1 33/2/1 34/2/1 28/2/1 
f 29/3/1 35/3/1 36/3/1 30/3/1 
f 31/1/1 37/1/1 38/1/1 32/1/1 
f 33/2/1 39/2/1 40/2/1 34/2/1 
f 35/3/3 41/3/3 42/3/3 36/3/3 
f 43/1/2 44/1/2 4/1/2 3/1/2 
f 45/2/1 46/2/1 8/2/1 7/2/1 
f 47/3/2 48/3/2 12/3/2 11/3/2 
f 43/1/2 49/1/2 50/1/2 44/1/2 
f 45/2/2 51/2/2 52/2/2 46/2/2 
f 47/3/2 53/3/2 54/3/2 48/3/2 
f 49/1/2 55/1/2 50/1/2 
f 51/2/2 56/2/2 52/2/2 
f 53/3/2 57/3/2 54/3/2 
f 58/4/4 59/5/4 60/6/4 61/7/4 
f 62/6/5 63/8/5 64/9/5 65/7/5 
f 61/10/6 65/11/6 64/12/6 58/13/6 
f 58/14/7 64/15/7 63/16/7 59/17/7 
f 59/12/8 63/13/8 62/18/8 60/11/8 
f 60/16/9 62/17/9 65/19/9 61/20/9 
f 66/21/4 67/22/4 68/6/4 69/7/4 
f 70/6/5 71/23/5 72/24/5 73/7/5 
f 69/10/6 73/11/6 72/25/6 66/26/6 
f 66/14/7 72/15/7 71/16/7 67/17/7 
f 67/25/8 71/26/8 70/10/8 68/27/8 
f 68/16/9 70/17/9 73/19/9 69/20/9 
f 74/28/4 75/29/4 76/30/4 77/31/4 
f 74/28/4 77/31/4 78/6/4 79/32/4 
f 79/32/4 78/6/4 80/7/4 81/33/4 
f 82/34/5 83/35/5 84/36/5 85/6/5 
f 86/37/5 82/34/5 85/6/5 87/38/5 
f 86/37/5 87/38/5 88/39/5 89/40/5 
f 88/41/6 76/42/6 75/43/6 89/44/6 
f 81/45/6 80/10/6 84/11/6 83/46/6 
f 76/14/7 88/15/7 87/16/7 77/17/7 
f 77/41/8 87/42/8 85/18/8 78/11/8 
f 78/16/9 85/17/9 84/19/9 80/20/9 
f 86/47/9 89/14/9 75/15/9 74/48/9 
f 74/43/6 79/45/6 82/46/6 86/44/6 
f 79/47/7 81/19/7 83/20/7 82/48/7 
f 90/49/7 91/50/7 92/51/7 93/52/7 
f 94/53/7 90/49/7 93/52/7 95/6/7 
f 94/53/7 95/6/7 96/7/7 97/54/7 
f 98/55/9 99/56/9 100/57/9 101/58/9 
f 101/58/9 100/57/9 102/59/9 103/6/9 
f 104/7/9 103/6/9 102/59/9 105/60/9 
f 106/61/9 98/55/9 101/58/9 107/62/9 
f 105/63/6 97/64/6 96/10/6 104/11/6 
f 91/65/6 99/66/6 98/67/6 92/68/6 
f 98/67/6 106/69/6 92/68/6 
f 93/69/8 107/68/8 101/70/8 95/11/8 
f 101/70/8 103/18/8 95/11/8 
f 95/16/4 103/17/4 104/19/4 96/20/4 
f 92/14/5 106/15/5 107/16/5 93/17/5 
f 100/47/4 99/14/4 91/15/4 90/48/4 
f 90/65/6 94/64/6 102/63/6 100/66/6 
f 94/47/5 97/19/5 105/20/5 102/48/5 
f 108/71/5 109/72/5 107/16/5 106/15/5 
f 110/73/4 111/74/4 112/75/4 113/76/4 
f 110/73/4 113/76/4 98/19/4 101/17/4 
f 106/77/6 98/78/6 113/79/6 108/80/6 
f 113/79/6 112/81/6 108/80/6 
f 109/81/8 111/80/8 110/82/8 107/78/8 
f 110/82/8 101/77/8 107/78/8 
f 107/16/7 101/17/7 98/14/7 106/15/7 
f 108/14/9 112/15/9 111/16/9 109/17/9 
f 114/83/9 115/84/9 116/85/9 117/86/9 
f 118/87/9 114/83/9 117/86/9 111/16/9 
f 118/87/9 111/16/9 112/15/9 119/88/9 
f 120/89/7 121/90/7 113/14/7 110/17/7 
f 120/89/7 110/17/7 122/91/7 123/92/7 
f 123/92/7 122/91/7 124/93/7 125/94/7 
f 116/95/6 115/96/6 125/97/6 124/98/6 
f 121/99/6 119/100/6 112/77/6 113/78/6 
f 116/14/4 124/15/4 122/16/4 117/17/4 
f 117/98/8 122/95/8 110/77/8 111/78/8 
f 111/16/5 110/17/5 113/14/5 112/15/5 
f 123/47/5 125/14/5 115/15/5 114/48/5 
f 114/96/6 118/100/6 120/99/6 123/97/6 
f 118/47/4 119/19/4 121/20/4 120/48/4 
f 126/101/9 127/102/9 128/6/9 129/7/9 
f 130/6/7 131/103/7 132/104/7 133/7/7 
f 129/10/6 133/11/6 132/105/6 126/106/6 
f 126/14/4 132/15/4 131/16/4 127/17/4 
f 127/105/8 131/106/8 130/18/8 128/11/8 
f 128/16/5 130/17/5 133/19/5 129/20/5 
f 134/107/9 135/108/9 136/6/9 137/7/9 
f 138/6/7 139/109/7 140/110/7 141/7/7 
f 137/10/6 141/11/6 140/111/6 134/112/6 
f 134/14/4 140/15/4 139/16/4 135/17/4 
f 135/111/8 139/112/8 138/10/8 136/27/8 
f 136/16/5 138/17/5 141/19/5 137/20/5 
f 142/1/10 143/1/10 144/1/10 145/1/10 
f 146/2/11 147/2/11 148/2/11 149/2/11 
f 150/3/10 151/3/10 152/3/10 153/3/10 
f 154/1/10 155/1/10 143/1/10 142/1/10 
f 156/2/11 157/2/11 147/2/11 146/2/11 
f 158/3/11 159/3/11 151/3/11 150/3/11 
f 160/1/12 161/1/12 155/1/12 154/1/12 
f 162/2/12 163/2/12 157/2/12 156/2/12 
f 164/3/11 165/3/11 159/3/11 158/3/11 
f 166/1/11 167/1/11 161/1/11 160/1/11 
f 168/2/11 169/2/11 163/2/11 162/2/11 
f 170/3/10 171/3/10 165/3/10 164/3/10 
f 166/1/10 172/1/10 173/1/10 167/1/10 
f 168/2/10 174/2/10 175/2/10 169/2/10 
f 170/3/12 176/3/12 177/3/12 171/3/12 
f 172/1/12 178/1/12 179/1/12 173/1/12 
f 174/2/12 180/2/12 181/2/12 175/2/12 
f 176/3/10 182/3/10 183/3/10 177/3/10 
f 184/1/11 185/1/11 145/1/11 144/1/11 
f 186/2/11 187/2/11 149/2/11 148/2/11 
f 188/3/11 189/3/11 153/3/11 152/3/11 
f 184/1/13 190/1/13 191/1/13 185/1/13 
f 186/2/11 192/2/11 193/2/11 187/2/11 
f 188/3/11 194/3/11 195/3/11 189/3/11 
f 190/1/11 196/1/11 191/1/11 
f 192/2/13 197/2/13 193/2/13 
f 194/3/10 198/3/10 195/3/10 
# 122 polygons - 10 triangles

