# 3ds Max Wavefront OBJ Exporter v0.97b - (c)2007 guruware
# File Created: 07.02.2018 13:32:25

mtllib M_jishui2_T_jishui.mtl

#
# object M_jishui2_T_jishui
#

v  -49.8972 -3.7248 -19.5480
v  -49.9171 -3.7248 -19.6815
v  -93.4091 -3.7248 -13.1789
v  -93.3892 -3.7248 -13.0454
v  4.0492 -3.3027 -27.7503
v  4.0691 -3.3027 -27.6167
v  6.0620 -3.3027 -27.0060
v  6.0420 -3.3027 -27.1395
v  9.3475 -3.3027 -26.6922
v  9.3275 -3.3027 -26.8257
v  19.2890 -3.3027 -28.1786
v  19.2690 -3.3027 -28.3121
v  -48.9075 -3.1620 -19.6960
v  -48.9275 -3.1620 -19.8295
v  -36.3740 -3.1620 -21.5699
v  -36.3940 -3.1620 -21.7035
v  -1.3797 -3.7248 -26.8021
v  -1.3996 -3.7248 -26.9356
v  -35.4736 -3.7248 -21.8410
v  -35.4537 -3.7248 -21.7075
v  -0.0518 -3.3027 -27.0006
v  -0.0718 -3.3027 -27.1341
v  85.9450 -3.7248 -38.1446
v  85.9250 -3.7248 -38.2781
v  20.0314 -3.7248 -28.4261
v  20.0514 -3.7248 -28.2926
# 26 vertices

vn -0.2506 0.9674 0.0375
vn 0.0000 1.0000 -0.0000
vn 0.2657 0.9632 -0.0397
vn -0.1501 0.9884 0.0224
vn 0.4750 0.8771 -0.0710
# 5 vertex normals

vt 0.7925 0.2448 0.0000
vt 0.7057 0.2448 0.0000
vt 0.7057 0.2099 0.0000
vt 0.7925 0.2099 0.0000
vt 0.7057 0.2876 0.7423
vt 0.7925 0.2876 0.7423
vt 0.7925 0.2889 0.7423
vt 0.7057 0.2889 0.7423
vt 0.7925 0.2918 0.7423
vt 0.7057 0.2918 0.7423
vt 0.7925 0.3002 0.7423
vt 0.7057 0.3002 0.7423
vt 0.7925 0.2456 1.0000
vt 0.7057 0.2456 1.0000
vt 0.7925 0.2556 1.0000
vt 0.7057 0.2556 1.0000
vt 0.7925 0.2837 0.0000
vt 0.7057 0.2837 0.0000
vt 0.7057 0.2564 0.0000
vt 0.7925 0.2564 0.0000
vt 0.7925 0.2847 0.7423
vt 0.7057 0.2847 0.7423
vt 0.7925 0.3537 0.0000
vt 0.7057 0.3537 0.0000
vt 0.7057 0.3008 0.0000
vt 0.7925 0.3008 0.0000
# 26 texture coords

g M_jishui2_T_jishui
usemtl T_jishui
s 1
f 1/1/1 2/2/1 3/3/2 4/4/2 
s off
f 5/5/2 6/6/2 7/7/2 8/8/2 
f 8/8/2 7/7/2 9/9/2 10/10/2 
f 9/9/2 11/11/2 12/12/2 10/10/2 
s 1
f 13/13/1 14/14/1 2/2/1 1/1/1 
f 15/15/3 16/16/3 14/14/1 13/13/1 
f 17/17/4 18/18/4 19/19/3 20/20/3 
f 20/20/3 19/19/3 16/16/3 15/15/3 
f 21/21/4 22/22/4 18/18/4 17/17/4 
f 6/6/2 5/5/2 22/22/4 21/21/4 
s off
f 23/23/2 24/24/2 25/25/2 26/26/2 
f 26/26/5 25/25/5 12/12/5 11/11/5 
# 12 polygons

