# 3ds Max Wavefront OBJ Exporter v0.97b - (c)2007 guruware
# File Created: 07.02.2018 13:16:20

mtllib M_jvxingwantou_fengguan_T_jvxingwantou_fengguan.mtl

#
# object M_jvxingwantou_fengguan_T_jvxingwantou_fengguan
#

v  74.4783 -3.1861 15.8944
v  74.8759 -3.1861 15.8349
v  74.8384 -3.1861 15.5844
v  74.4408 -3.1861 15.6439
v  74.4408 -4.5530 15.6439
v  74.4783 -4.5530 15.8944
v  74.8384 -4.5530 15.5844
v  74.8759 -4.5530 15.8349
v  74.8072 -3.2605 16.6379
v  74.7478 -3.2605 16.2403
v  74.4973 -3.2605 16.2777
v  74.5567 -3.2605 16.6753
v  74.8072 -4.4927 16.6379
v  74.5567 -4.4927 16.6753
v  74.4973 -4.4927 16.2777
v  74.7478 -4.4927 16.2403
v  74.2162 -3.2605 17.5921
v  74.1687 -3.2605 17.2741
v  73.9182 -3.2605 17.3115
v  73.9658 -3.2605 17.6296
v  74.2162 -4.4927 17.5921
v  73.9658 -4.4927 17.6296
v  73.9182 -4.4927 17.3115
v  74.1687 -4.4927 17.2741
v  73.6274 -3.5137 16.4078
v  73.6868 -3.5137 16.8054
v  73.6868 -3.2605 16.8054
v  73.6274 -3.2605 16.4078
v  74.4973 -3.5137 16.2777
v  74.5567 -3.5137 16.6753
v  73.5709 -3.5881 16.0300
v  73.5709 -3.1861 16.0300
v  73.5334 -3.1861 15.7795
v  73.5334 -3.5881 15.7795
v  74.4408 -3.5881 15.6439
v  74.4783 -3.5881 15.8944
v  73.1613 -3.2605 17.4247
v  73.1613 -3.5137 17.4247
v  73.2089 -3.5137 17.7428
v  73.2089 -3.2605 17.7428
v  73.9182 -3.5137 17.3115
v  73.9658 -3.5137 17.6296
v  75.8486 -3.0855 20.7588
v  75.4272 -3.0855 17.9407
v  68.2075 -3.0855 19.0201
v  68.6288 -3.0855 21.8383
v  63.9191 -4.5530 14.9741
v  68.2075 -4.5530 19.0201
v  75.3318 -4.5530 17.9550
v  74.6463 -4.5530 13.3703
v  65.0457 -4.5530 22.5093
v  68.6486 -4.5530 21.9706
v  -22.5839 -3.8092 34.6322
v  -26.4602 -3.8092 35.2118
v  -25.2962 -3.8092 42.9969
v  -21.4199 -3.8092 42.4174
v  -32.2450 -2.9047 34.5166
v  -31.8448 -2.9047 37.1933
v  -26.2882 -2.9047 36.3625
v  -26.6883 -2.9047 33.6858
v  -84.4214 -3.1861 44.7394
v  -82.7016 -3.1861 44.4823
v  -83.1056 -3.1861 41.7804
v  -84.8254 -3.1861 42.0376
v  -85.2236 -3.2866 39.3743
v  -84.8254 -3.2866 42.0376
v  -83.1056 -3.2866 41.7804
v  -83.5038 -3.2866 39.1172
v  -84.5445 -4.3670 39.2803
v  -84.5445 -3.2895 39.2803
v  -84.4970 -3.2895 39.5984
v  -84.4970 -4.3670 39.5984
v  -84.6560 -3.2895 39.6221
v  -84.6560 -4.3670 39.6221
v  -84.7036 -3.2895 39.3041
v  -84.7036 -4.3670 39.3041
v  -84.4608 -4.3721 40.0848
v  -84.4608 -3.2895 40.0848
v  -84.4133 -3.2895 40.4029
v  -84.4133 -4.3721 40.4029
v  -84.5723 -3.2895 40.4267
v  -84.5723 -4.3721 40.4267
v  -84.6199 -3.2895 40.1086
v  -84.6199 -4.3721 40.1086
v  -84.3151 -4.3721 40.9777
v  -84.3151 -3.2895 40.9776
v  -84.2676 -3.2895 41.2957
v  -84.2676 -4.3721 41.2957
v  -84.4266 -3.2895 41.3195
v  -84.4266 -4.3721 41.3195
v  -84.4742 -3.2895 41.0014
v  -84.4742 -4.3721 41.0014
v  -29.4575 -4.1309 35.3163
v  -29.9545 -4.1309 35.3906
v  -29.9545 -2.9108 35.3906
v  -29.4575 -2.9108 35.3163
v  -29.9307 -4.1309 35.5496
v  -29.9307 -2.9108 35.5496
v  -29.4337 -4.1309 35.4753
v  -29.4337 -2.9108 35.4753
v  -26.4131 -3.8092 35.5266
v  -26.4131 -2.9057 35.5266
v  -26.3388 -2.9057 36.0236
v  -26.3388 -3.8092 36.0236
v  -26.6569 -2.9057 36.0712
v  -26.6569 -3.8092 36.0712
v  -26.7312 -2.9057 35.5742
v  -26.7312 -3.8092 35.5742
# 108 vertices

vn 0.0000 1.0000 -0.0000
vn -0.9890 0.0000 0.1479
vn -0.1479 0.0000 -0.9890
vn 0.9890 0.0000 -0.1479
vn 0.1479 0.0000 0.9890
vn 0.0000 -1.0000 -0.0000
vn 0.0000 1.0000 0.0000
vn -0.0000 1.0000 -0.0000
vn -0.1479 -0.0000 -0.9890
vn -0.9890 -0.0000 0.1479
vn 0.9890 -0.0000 -0.1479
# 11 vertex normals

vt 0.7359 0.5316 0.0000
vt 0.9958 0.0665 0.5000
vt 0.9958 0.3345 0.5000
vt 0.6520 0.3345 0.5000
vt 0.6520 0.0665 0.5000
vt 0.4813 0.7686 0.5000
vt 0.9912 0.3345 0.5000
vt 0.9912 0.7705 0.5000
vt 0.4805 0.0539 0.5000
vt 0.6520 0.0539 0.5000
vt 0.4609 0.7966 0.5000
vt 0.2760 0.7966 0.5000
vt 0.2760 0.0586 0.5000
vt 0.4609 0.0586 0.5000
vt 0.0109 0.9412 0.5000
vt 0.0109 0.6875 0.5000
vt 0.2760 0.6875 0.5000
vt 0.2760 0.9412 0.5000
vt 0.0843 0.0888 0.5000
vt 0.1651 0.0888 0.5000
vt 0.1651 0.3451 0.5000
vt 0.0843 0.3451 0.5000
vt 0.0843 0.5977 0.5000
vt 0.1651 0.5977 0.5000
# 24 texture coords

g M_jvxingwantou_fengguan_T_jvxingwantou_fengguan
usemtl T_jvxingwantou_fengguan
s off
f 1/1/1 2/1/1 3/1/1 4/1/1 
f 1/1/2 4/1/2 5/1/2 6/1/2 
f 4/1/3 3/1/3 7/1/3 5/1/3 
f 7/1/4 3/1/4 2/1/4 8/1/4 
f 2/1/5 1/1/5 6/1/5 8/1/5 
f 9/1/1 10/1/1 11/1/1 12/1/1 
f 13/1/5 9/1/5 12/1/5 14/1/5 
f 12/1/2 11/1/2 15/1/2 14/1/2 
f 15/1/3 11/1/3 10/1/3 16/1/3 
f 10/1/4 9/1/4 13/1/4 16/1/4 
f 17/1/1 18/1/1 19/1/1 20/1/1 
f 21/1/5 17/1/5 20/1/5 22/1/5 
f 22/1/2 20/1/2 19/1/2 23/1/2 
f 23/1/3 19/1/3 18/1/3 24/1/3 
f 24/1/4 18/1/4 17/1/4 21/1/4 
f 25/1/2 26/1/2 27/1/2 28/1/2 
f 26/1/6 25/1/6 29/1/6 30/1/6 
f 29/1/3 25/1/3 28/1/3 11/1/3 
f 28/1/1 27/1/1 12/1/1 11/1/1 
f 12/1/5 27/1/5 26/1/5 30/1/5 
f 31/1/2 32/1/2 33/1/2 34/1/2 
f 31/1/6 34/1/6 35/1/6 36/1/6 
f 35/1/3 34/1/3 33/1/3 4/1/3 
f 4/1/1 33/1/1 32/1/1 1/1/1 
f 1/1/5 32/1/5 31/1/5 36/1/5 
f 37/1/2 38/1/2 39/1/2 40/1/2 
f 38/1/6 41/1/6 42/1/6 39/1/6 
f 39/1/5 42/1/5 20/1/5 40/1/5 
f 40/1/1 20/1/1 19/1/1 37/1/1 
f 37/1/3 19/1/3 41/1/3 38/1/3 
s 1
f 43/2/7 44/3/7 45/4/7 46/5/7 
f 47/6/1 48/4/1 49/7/1 50/8/1 
f 51/9/1 52/10/1 48/4/1 47/6/1 
f 53/11/7 54/12/7 55/13/7 56/14/7 
f 57/15/7 58/16/7 59/17/7 60/18/7 
f 61/19/8 62/20/8 63/21/8 64/22/8 
f 65/23/8 66/22/8 67/21/8 68/24/8 
s off
f 69/1/4 70/1/4 71/1/4 72/1/4 
f 71/1/5 73/1/5 74/1/5 72/1/5 
f 74/1/2 73/1/2 75/1/2 76/1/2 
f 75/1/9 70/1/9 69/1/9 76/1/9 
f 77/1/4 78/1/4 79/1/4 80/1/4 
f 79/1/5 81/1/5 82/1/5 80/1/5 
f 82/1/2 81/1/2 83/1/2 84/1/2 
f 83/1/9 78/1/9 77/1/9 84/1/9 
f 85/1/4 86/1/4 87/1/4 88/1/4 
f 87/1/5 89/1/5 90/1/5 88/1/5 
f 90/1/10 89/1/10 91/1/10 92/1/10 
f 91/1/9 86/1/9 85/1/9 92/1/9 
f 93/1/3 94/1/3 95/1/3 96/1/3 
f 94/1/2 97/1/2 98/1/2 95/1/2 
f 97/1/5 99/1/5 100/1/5 98/1/5 
f 99/1/11 93/1/11 96/1/11 100/1/11 
f 101/1/11 102/1/11 103/1/11 104/1/11 
f 103/1/5 105/1/5 106/1/5 104/1/5 
f 105/1/2 107/1/2 108/1/2 106/1/2 
f 108/1/9 107/1/9 102/1/9 101/1/9 
# 57 polygons

