# 3ds Max Wavefront OBJ Exporter v0.97b - (c)2007 guruware
# File Created: 24.06.2018 15:41:34

mtllib M_K_B1A_lgfs.mtl

#
# object M_K_B1A_lgfs
#

v  -735.8088 6.1841 -577.3467
v  -786.6599 6.1841 -577.3467
v  -786.6599 152.2752 -577.3467
v  -735.8088 152.2752 -577.3467
v  618.0811 5.5726 -454.7444
v  563.0969 5.5726 -454.7445
v  563.0969 151.6637 -454.7445
v  618.0811 151.6637 -454.7445
v  980.5974 5.5726 -455.6020
v  925.6134 5.5726 -455.6020
v  925.6134 151.6637 -455.6021
v  980.5974 151.6637 -455.6021
v  1365.8354 5.5725 409.7266
v  1311.6653 5.5725 409.7266
v  1311.6653 151.6637 409.7264
v  1365.8354 151.6637 409.7264
v  1290.7004 5.5726 -281.1304
v  1290.7004 5.5726 -338.0822
v  1290.7004 151.6637 -338.0821
v  1290.7004 151.6637 -281.1303
v  -678.4686 5.5726 -167.3732
v  -678.4686 5.5726 -227.3262
v  -678.4684 151.6637 -227.3261
v  -678.4684 151.6637 -167.3732
v  -1166.3579 6.9740 992.7300
v  -1166.3579 6.9740 938.1484
v  -1166.3577 153.0651 938.1484
v  -1166.3577 153.0651 992.7299
v  -339.7262 5.6922 909.5233
v  -339.7262 5.6922 964.1050
v  -339.7264 151.7832 964.1047
v  -339.7264 151.7832 909.5236
v  -107.7867 5.6922 894.3458
v  -107.7867 5.6921 974.1907
v  -107.7869 151.7832 974.1906
v  -107.7869 151.7832 894.3459
v  485.4607 5.6922 909.5233
v  485.4607 5.6922 964.1050
v  485.4604 151.7832 964.1047
v  485.4604 151.7832 909.5236
v  853.1176 2.6168 16.1852
v  776.7856 2.6168 16.1852
v  776.7856 34.7500 16.1850
v  853.1176 34.7500 16.1850
v  853.1176 2.6168 46.6313
v  776.7856 2.6168 46.6313
v  776.7856 34.7500 46.6312
v  853.1176 34.7500 46.6312
v  287.7578 2.6168 -118.1904
v  287.7578 2.6168 -41.8585
v  287.7577 34.7500 -41.8585
v  287.7577 34.7500 -118.1904
v  318.2041 2.6168 -118.1904
v  318.2041 2.6168 -41.8585
v  318.2039 34.7500 -41.8585
v  318.2040 34.7500 -118.1904
v  -272.1080 2.6168 -101.9739
v  -272.1080 2.6168 -183.1946
v  -272.1078 34.7500 -183.1946
v  -272.1079 34.7500 -101.9739
v  -311.0083 2.6168 -101.9739
v  -311.0083 2.6168 -183.1946
v  -311.0081 34.7500 -183.1946
v  -311.0082 34.7500 -101.9739
# 64 vertices

vn 0.0000 -0.0000 -1.0000
vn 1.0000 -0.0000 0.0000
vn 1.0000 -0.0000 -0.0000
vn -1.0000 -0.0000 -0.0000
vn -1.0000 -0.0000 0.0000
vn -0.0000 -0.0000 -1.0000
# 6 vertex normals

vt 0.7373 0.0016 0.0000
vt 0.5545 0.0016 0.0000
vt 0.5545 0.5262 0.0000
vt 0.7373 0.5262 0.0000
vt 0.5328 0.0016 0.0000
vt 0.3334 0.0016 0.0000
vt 0.3334 0.5262 0.0000
vt 0.5328 0.5262 0.0000
vt 0.9610 0.0016 0.0000
vt 0.8013 0.0016 0.0000
vt 0.8013 0.4316 0.0000
vt 0.9610 0.4316 0.0000
vt 0.1788 0.5402 0.0000
vt 0.0006 0.5402 0.0000
vt 0.0006 0.9988 0.0000
vt 0.1788 0.9988 0.0000
vt 0.5366 0.5380 0.0000
vt 0.3469 0.5380 0.0000
vt 0.3469 0.9995 0.0000
vt 0.5366 0.9995 0.0000
vt 0.8011 0.0023 0.0000
vt 0.9612 0.0023 0.0000
vt 0.9612 0.4308 0.0000
vt 0.8011 0.4308 0.0000
vt 0.0000 -0.0004 0.0000
vt 0.2943 -0.0004 0.0000
vt 0.2943 0.5344 0.0000
vt 0.0000 0.5344 0.0000
vt 0.9342 0.7373 0.0000
vt 0.6908 0.7373 0.0000
vt 0.6908 0.8386 0.0000
vt 0.9342 0.8386 0.0000
# 32 texture coords

g M_K_B1A_lgfs
usemtl Material__3022
s 1
f 1/1/1 2/2/1 3/3/1 4/4/1 
f 5/5/1 6/6/1 7/7/1 8/8/1 
f 9/5/1 10/6/1 11/7/1 12/8/1 
f 13/9/1 14/10/1 15/11/1 16/12/1 
f 17/13/2 18/14/2 19/15/2 20/16/2 
f 21/17/2 22/18/2 23/19/2 24/20/3 
f 25/21/2 26/22/2 27/23/2 28/24/3 
f 29/21/4 30/22/4 31/23/5 32/24/5 
f 33/25/4 34/26/4 35/27/5 36/28/5 
f 37/21/4 38/22/4 39/23/5 40/24/5 
f 41/29/1 42/30/6 43/31/1 44/32/1 
f 45/29/1 46/30/6 47/31/1 48/32/1 
f 49/29/4 50/30/5 51/31/4 52/32/4 
f 53/29/4 54/30/5 55/31/4 56/32/4 
f 57/29/2 58/30/2 59/31/2 60/32/2 
f 61/29/2 62/30/2 63/31/2 64/32/2 
# 16 polygons

