# 3ds Max Wavefront OBJ Exporter v0.97b - (c)2007 guruware
# File Created: 24.06.2018 15:42:10

mtllib M_K_B1A_floor.mtl

#
# object M_K_B1A_floor
#

v  -1895.9645 4.1654 1513.1376
v  1905.8885 4.1654 1513.1376
v  1905.8885 4.1654 -1304.6599
v  -1895.9645 4.1654 -1304.6599
# 4 vertices

vn 0.0000 1.0000 -0.0000
# 1 vertex normals

vt 0.0027 0.1329 0.0000
vt 0.9944 0.1333 0.0000
vt 0.9938 0.8683 0.0000
vt 0.0019 0.8680 0.0000
# 4 texture coords

g M_K_B1A_floor
usemtl K_B1_A_floor
s 1
f 1/1/1 2/2/1 3/3/1 4/4/1 
# 1 polygons

