# 3ds Max Wavefront OBJ Exporter v0.97b - (c)2007 guruware
# File Created: 24.06.2018 15:38:40

mtllib M_K_B1S_podao.mtl

#
# object M_K_B1S_podao
#

v  -486.7058 45.3551 -1156.5693
v  -533.8267 39.6637 -1156.5693
v  -533.8267 116.8368 -1156.5693
v  -479.1760 46.2645 -1156.5693
v  -431.4863 52.0246 -1156.5693
v  -423.9565 52.9341 -1156.5693
v  -376.1760 58.7052 -1156.5693
v  -368.6462 59.6146 -1156.5693
v  -42.7291 116.8368 -1156.5693
v  -42.7291 98.9797 -1156.5693
v  -93.7748 92.8143 -1156.5693
v  -101.3046 91.9049 -1156.5693
v  -149.1189 86.1297 -1156.5693
v  -156.6486 85.2203 -1156.5693
v  -204.1200 79.4865 -1156.5693
v  -211.6499 78.5771 -1156.5693
v  -259.0537 72.8515 -1156.5693
v  -266.5837 71.9420 -1156.5693
v  -314.0215 66.2124 -1156.5693
v  -321.5513 65.3029 -1156.5693
v  -93.7748 92.8143 -1148.9849
v  -42.7291 98.9797 -1148.9849
v  -42.7291 116.8368 -1148.9849
v  -101.3046 91.9049 -1148.9849
v  -149.1189 86.1297 -1148.9849
v  -156.6486 85.2203 -1148.9849
v  -204.1200 79.4865 -1148.9849
v  -533.8267 116.8368 -1148.9849
v  -533.8267 39.6637 -1148.9849
v  -486.7058 45.3551 -1148.9849
v  -479.1760 46.2645 -1148.9849
v  -431.4863 52.0246 -1148.9849
v  -423.9565 52.9341 -1148.9849
v  -376.1760 58.7052 -1148.9849
v  -368.6462 59.6146 -1148.9849
v  -321.5513 65.3029 -1148.9849
v  -314.0215 66.2124 -1148.9849
v  -266.5837 71.9420 -1148.9849
v  -259.0537 72.8515 -1148.9849
v  -211.6499 78.5771 -1148.9849
v  -42.7291 116.8368 -1276.0083
v  -42.7291 99.7834 -1276.0083
v  -537.6191 39.2648 -1276.0083
v  -537.6191 116.8368 -1276.0083
v  -537.6191 39.2648 -1270.3198
v  -42.7291 99.7834 -1270.3198
v  -42.7291 116.8368 -1270.3198
v  -537.6191 116.8368 -1270.3198
v  54.0072 5.2686 234.2458
v  122.2683 1.1729 234.2458
v  122.2683 1.1729 69.2800
v  54.0072 5.2686 69.2800
v  -1052.0339 117.0556 234.2458
v  -1052.0339 117.0556 69.2800
v  -983.7732 115.8983 69.2800
v  -983.7732 115.8983 234.2458
v  -983.7732 129.8064 234.2458
v  -1052.0339 130.9637 234.2458
v  122.2683 -13.9121 234.2458
v  122.2683 -13.9121 69.2800
v  54.0072 -9.8164 69.2800
v  -1052.0339 130.9637 69.2800
v  -983.7732 129.8063 69.2800
v  54.0072 -9.8164 234.2458
v  -1495.6418 -70.0948 -1262.9487
v  -1563.9028 -75.6153 -1262.9487
v  -1563.9028 -75.6153 -1145.4199
v  -1495.6418 -70.0948 -1145.4199
v  294.3419 87.4468 -1270.3203
v  294.3419 87.4469 -1156.5693
v  124.1003 86.4991 -1156.5703
v  124.1003 86.4991 -1270.3213
v  124.1005 124.1176 -1270.3203
v  294.3419 129.6381 -1270.3198
v  -1563.9028 -78.4646 -1262.9487
v  -1563.9028 -78.4646 -1145.4199
v  -1495.6421 -87.8863 -1145.4204
v  294.3419 129.6382 -1156.5693
v  -706.3403 24.4384 -1145.4204
v  -706.3401 24.4384 -1262.9497
v  -1495.6421 -87.8864 -1262.9492
v  -706.3403 6.6469 -1145.4214
v  -706.3403 6.6469 -1262.9497
v  -537.6113 43.0205 -1152.7915
v  -537.6108 43.0205 -1270.3203
v  -537.6111 29.1420 -1152.7925
v  -42.7294 87.3291 -1270.3208
v  -42.7294 87.3291 -1156.5703
v  -537.6111 29.1420 -1270.3208
v  -42.7294 101.2076 -1270.3203
v  -42.7295 101.2076 -1152.7910
v  124.1000 124.1176 -1156.5703
# 92 vertices

vn 0.0000 0.0000 -1.0000
vn 0.0000 0.0000 1.0000
vn -1.0000 0.0000 -0.0000
vn 0.0000 1.0000 -0.0000
vn 1.0000 0.0000 -0.0000
vn 0.1199 -0.9928 -0.0000
vn 0.1214 -0.9926 -0.0000
vn 0.0599 0.9982 -0.0000
vn -0.0170 -0.9999 -0.0000
vn 0.1191 0.9929 -0.0000
vn -0.0599 -0.9982 -0.0000
vn -0.0806 0.9967 -0.0000
vn 0.0056 -1.0000 0.0000
vn 0.0000 -0.0000 1.0000
vn -0.1189 0.9929 -0.0000
vn -0.1367 -0.9906 0.0000
vn -0.0000 0.0000 -1.0000
vn 0.1189 -0.9929 0.0000
vn -0.1095 0.9940 -0.0000
vn 0.0436 -0.0000 0.9990
vn 0.1168 -0.9932 0.0000
vn -0.1360 0.9907 -0.0000
vn 0.0161 -0.0732 0.9972
vn -0.0050 -1.0000 0.0000
vn -0.0324 0.9995 -0.0000
vn -0.0000 -0.0000 1.0000
vn -0.1168 0.9932 -0.0000
vn 0.0196 -0.1349 0.9907
vn 0.1322 -0.9912 0.0000
vn -0.0436 0.0000 -0.9990
vn -0.1203 -0.9927 -0.0000
vn 0.0170 0.9999 -0.0000
# 32 vertex normals

vt 0.4144 0.2467 0.0000
# 1 texture coords

g M_K_B1S_podao
usemtl T_tujian_004
s off
f 1/1/1 2/1/1 3/1/1 4/1/1 
f 5/1/1 4/1/1 3/1/1 6/1/1 
f 7/1/1 6/1/1 3/1/1 8/1/1 
f 9/1/1 10/1/1 11/1/1 12/1/1 
f 9/1/1 12/1/1 13/1/1 14/1/1 
f 9/1/1 14/1/1 15/1/1 3/1/1 
f 3/1/1 15/1/1 16/1/1 17/1/1 
f 3/1/1 17/1/1 18/1/1 19/1/1 
f 3/1/1 19/1/1 20/1/1 8/1/1 
f 21/1/2 22/1/2 23/1/2 24/1/2 
f 25/1/2 24/1/2 23/1/2 26/1/2 
f 27/1/2 26/1/2 23/1/2 28/1/2 
f 28/1/2 29/1/2 30/1/2 31/1/2 
f 28/1/2 31/1/2 32/1/2 33/1/2 
f 28/1/2 33/1/2 34/1/2 35/1/2 
f 28/1/2 35/1/2 36/1/2 37/1/2 
f 28/1/2 37/1/2 38/1/2 39/1/2 
f 28/1/2 39/1/2 40/1/2 27/1/2 
f 28/1/3 3/1/3 2/1/3 29/1/3 
f 23/1/4 9/1/4 3/1/4 28/1/4 
f 22/1/5 10/1/5 9/1/5 23/1/5 
f 11/1/6 10/1/6 22/1/6 21/1/6 
f 12/1/6 11/1/6 21/1/6 24/1/6 
f 13/1/6 12/1/6 24/1/6 25/1/6 
f 14/1/6 13/1/6 25/1/6 26/1/6 
f 15/1/6 14/1/6 26/1/6 27/1/6 
f 15/1/6 27/1/6 40/1/6 16/1/6 
f 16/1/6 40/1/6 39/1/6 17/1/6 
f 30/1/6 29/1/6 2/1/6 1/1/6 
f 31/1/6 30/1/6 1/1/6 4/1/6 
f 32/1/6 31/1/6 4/1/6 5/1/6 
f 33/1/6 32/1/6 5/1/6 6/1/6 
f 34/1/6 33/1/6 6/1/6 7/1/6 
f 35/1/6 34/1/6 7/1/6 8/1/6 
f 36/1/6 35/1/6 8/1/6 20/1/6 
f 37/1/6 36/1/6 20/1/6 19/1/6 
f 38/1/6 37/1/6 19/1/6 18/1/6 
f 38/1/6 18/1/6 17/1/6 39/1/6 
f 41/1/1 42/1/1 43/1/1 44/1/1 
f 45/1/2 46/1/2 47/1/2 48/1/2 
f 48/1/3 44/1/3 43/1/3 45/1/3 
f 47/1/4 41/1/4 44/1/4 48/1/4 
f 46/1/5 42/1/5 41/1/5 47/1/5 
f 45/1/7 43/1/7 42/1/7 46/1/7 
f 49/1/8 50/1/8 51/1/8 52/1/8 
f 53/1/9 54/1/9 55/1/9 56/1/9 
f 57/1/2 58/1/2 53/1/2 56/1/2 
f 50/1/5 59/1/5 60/1/5 51/1/5 
f 61/1/1 52/1/1 51/1/1 60/1/1 
f 62/1/3 54/1/3 53/1/3 58/1/3 
f 49/1/10 52/1/10 63/1/10 57/1/10 
f 64/1/11 61/1/11 60/1/11 59/1/11 
f 50/1/2 49/1/2 64/1/2 59/1/2 
f 52/1/1 61/1/1 55/1/1 63/1/1 
f 65/1/12 66/1/12 67/1/12 68/1/12 
f 69/1/13 70/1/13 71/1/13 72/1/13 
f 73/1/1 74/1/1 69/1/1 72/1/1 
f 66/1/3 75/1/3 76/1/3 67/1/3 
f 77/1/14 68/1/14 67/1/14 76/1/14 
f 78/1/5 70/1/5 69/1/5 74/1/5 
f 65/1/15 68/1/15 79/1/15 80/1/15 
f 81/1/16 77/1/16 76/1/16 75/1/16 
f 66/1/17 65/1/17 81/1/17 75/1/17 
f 68/1/14 77/1/14 82/1/14 79/1/14 
f 83/1/18 82/1/18 77/1/18 81/1/18 
f 80/1/17 83/1/17 81/1/17 65/1/17 
f 80/1/19 79/1/19 84/1/19 85/1/19 
f 79/1/20 82/1/20 86/1/20 84/1/20 
f 87/1/21 88/1/21 86/1/21 89/1/21 
f 90/1/17 87/1/17 89/1/17 85/1/17 
f 90/1/22 91/1/22 92/1/22 73/1/22 
f 91/1/23 88/1/23 71/1/23 92/1/23 
f 72/1/24 71/1/24 88/1/24 87/1/24 
f 73/1/17 72/1/17 87/1/17 90/1/17 
f 73/1/25 92/1/25 78/1/25 74/1/25 
f 92/1/26 71/1/26 70/1/26 78/1/26 
f 85/1/27 84/1/27 91/1/27 90/1/27 
f 84/1/28 86/1/28 88/1/28 91/1/28 
f 89/1/29 86/1/29 82/1/29 83/1/29 
f 85/1/30 89/1/30 83/1/30 80/1/30 
f 56/1/31 55/1/31 61/1/31 64/1/31 
f 57/1/2 56/1/2 64/1/2 49/1/2 
f 57/1/32 63/1/32 62/1/32 58/1/32 
f 63/1/1 55/1/1 54/1/1 62/1/1 
# 84 polygons

