# 3ds Max Wavefront OBJ Exporter v0.97b - (c)2007 guruware
# File Created: 07.02.2018 13:16:57

mtllib M_louti_T_louti.mtl

#
# object M_louti_T_louti
#

v  -47.0859 -4.0706 36.1428
v  -46.5292 -3.6923 36.0595
v  -46.4879 -3.6923 36.3357
v  -47.0446 -4.0706 36.4189
v  -47.1895 -4.0706 35.4500
v  -46.6328 -3.6923 35.3667
v  -46.5915 -3.6923 35.6429
v  -47.1482 -4.0706 35.7262
v  -47.3232 -4.0706 34.5553
v  -46.7666 -3.6923 34.4721
v  -46.7253 -3.6923 34.7482
v  -47.2819 -4.0706 34.8315
v  -47.4467 -4.0706 33.7295
v  -46.8900 -3.6923 33.6463
v  -46.8487 -3.6923 33.9225
v  -47.4054 -4.0706 34.0057
v  -47.4467 -3.6500 33.7295
v  -46.8900 -3.2647 33.6463
v  -46.8900 -3.7586 33.6463
v  -47.4467 -4.1439 33.7295
v  -47.4054 -3.6500 34.0057
v  -46.8487 -3.2647 33.9225
v  -46.8487 -3.7586 33.9225
v  -47.4054 -4.1439 34.0057
v  -47.3232 -3.6500 34.5553
v  -46.7666 -3.2647 34.4721
v  -46.7666 -3.7586 34.4721
v  -47.3232 -4.1439 34.5553
v  -47.2819 -3.6500 34.8315
v  -46.7253 -3.2647 34.7482
v  -46.7253 -3.7586 34.7482
v  -47.2819 -4.1439 34.8315
v  -47.1895 -3.6500 35.4500
v  -46.6328 -3.2647 35.3667
v  -46.6328 -3.7586 35.3667
v  -47.1895 -4.1439 35.4500
v  -47.1482 -3.6500 35.7262
v  -46.5915 -3.2647 35.6429
v  -46.5915 -3.7586 35.6429
v  -47.1482 -4.1439 35.7262
v  -47.0859 -3.6500 36.1428
v  -46.5292 -3.2647 36.0595
v  -46.5292 -3.7586 36.0595
v  -47.0859 -4.1439 36.1428
v  -47.0446 -3.6500 36.4189
v  -46.4879 -3.2647 36.3357
v  -46.4879 -3.7586 36.3357
v  -47.0446 -4.1439 36.4189
v  -22.3697 -4.0644 32.3691
v  -22.3284 -4.0644 32.6453
v  -22.8056 -3.6923 32.7167
v  -22.8469 -3.6923 32.4405
v  -22.4619 -4.0644 31.7528
v  -22.4206 -4.0644 32.0290
v  -22.8977 -3.6923 32.1004
v  -22.9390 -3.6923 31.8242
v  -22.5956 -4.0644 30.8582
v  -22.5543 -4.0644 31.1343
v  -23.0315 -3.6923 31.2057
v  -23.0728 -3.6923 30.9295
v  -22.7139 -4.0644 30.0669
v  -22.6726 -4.0644 30.3431
v  -23.1498 -3.6923 30.4144
v  -23.1911 -3.6923 30.1383
v  -22.7139 -3.6439 30.0669
v  -22.7139 -4.1378 30.0669
v  -23.1911 -3.7586 30.1383
v  -23.1911 -3.2647 30.1383
v  -22.6726 -3.6439 30.3431
v  -22.6726 -4.1378 30.3431
v  -23.1498 -3.7586 30.4144
v  -23.1498 -3.2647 30.4144
v  -22.5956 -3.6439 30.8582
v  -22.5956 -4.1378 30.8582
v  -23.0728 -3.7586 30.9295
v  -23.0728 -3.2647 30.9295
v  -22.5543 -3.6439 31.1343
v  -22.5543 -4.1378 31.1343
v  -23.0315 -3.7586 31.2057
v  -23.0315 -3.2647 31.2057
v  -22.4619 -3.6439 31.7528
v  -22.4619 -4.1378 31.7528
v  -22.9390 -3.7586 31.8242
v  -22.9390 -3.2647 31.8242
v  -22.4206 -3.6439 32.0290
v  -22.4206 -4.1378 32.0290
v  -22.8977 -3.7586 32.1004
v  -22.8977 -3.2647 32.1004
v  -22.3697 -3.6439 32.3691
v  -22.3697 -4.1378 32.3691
v  -22.8469 -3.7586 32.4405
v  -22.8469 -3.2647 32.4405
v  -22.3284 -3.6439 32.6453
v  -22.3284 -4.1378 32.6453
v  -22.8056 -3.7586 32.7167
v  -22.8056 -3.2647 32.7167
v  0.1647 -3.7315 28.3732
v  0.2060 -3.7315 28.6494
v  -1.1459 -5.3771 28.8515
v  -1.1872 -5.3771 28.5753
v  0.2060 -3.8072 28.6494
v  -1.1459 -5.4572 28.8515
v  -1.1459 -4.9182 28.8515
v  0.2060 -3.2682 28.6494
v  0.1647 -3.8072 28.3732
v  -1.1872 -5.4572 28.5753
v  -1.1872 -4.9182 28.5753
v  0.1647 -3.2682 28.3732
v  0.0339 -3.7315 27.4985
v  0.0752 -3.7315 27.7747
v  -1.2767 -5.3771 27.9768
v  -1.3179 -5.3771 27.7006
v  0.0752 -3.8072 27.7747
v  -1.2767 -5.4572 27.9768
v  -1.2767 -4.9182 27.9768
v  0.0752 -3.2682 27.7747
v  0.0339 -3.8072 27.4985
v  -1.3179 -5.4572 27.7006
v  -1.3179 -4.9182 27.7006
v  0.0339 -3.2682 27.4985
v  -0.0790 -3.7315 26.7430
v  -0.0377 -3.7315 27.0192
v  -1.3896 -5.3772 27.2213
v  -1.4309 -5.3772 26.9452
v  -0.0377 -3.8072 27.0192
v  -1.3896 -5.4572 27.2213
v  -1.3896 -4.9182 27.2213
v  -0.0377 -3.2682 27.0192
v  -0.0790 -3.8072 26.7430
v  -1.4309 -5.4572 26.9452
v  -1.4309 -4.9182 26.9452
v  -0.0790 -3.2682 26.7430
v  -4.3635 -4.2213 27.5631
v  -4.4048 -4.2213 27.2869
v  -3.4553 -5.3772 27.1450
v  -3.4140 -5.3772 27.4211
v  -3.4140 -4.9182 27.4211
v  -3.4140 -5.4572 27.4211
v  -4.3662 -4.2543 27.5635
v  -4.3662 -3.7153 27.5635
v  -3.4553 -4.9182 27.1450
v  -3.4553 -5.4572 27.1450
v  -4.4075 -4.2543 27.2873
v  -4.4075 -3.7153 27.2873
v  -4.2391 -4.2213 28.3953
v  -4.2804 -4.2213 28.1191
v  -3.3308 -5.3771 27.9771
v  -3.2895 -5.3771 28.2533
v  -3.2895 -4.9182 28.2533
v  -3.2895 -5.4572 28.2533
v  -4.2418 -4.2543 28.3957
v  -4.2418 -3.7153 28.3957
v  -3.3308 -4.9182 27.9771
v  -3.3308 -5.4572 27.9771
v  -4.2831 -4.2543 28.1195
v  -4.2831 -3.7153 28.1195
v  -4.1047 -4.2213 29.2939
v  -4.1460 -4.2213 29.0177
v  -3.1965 -5.3771 28.8758
v  -3.1552 -5.3771 29.1519
v  -3.1552 -4.9182 29.1519
v  -3.1552 -5.4572 29.1519
v  -4.1075 -4.2543 29.2943
v  -4.1075 -3.7153 29.2943
v  -3.1965 -4.9182 28.8758
v  -3.1965 -5.4572 28.8758
v  -4.1488 -4.2543 29.0181
v  -4.1488 -3.7153 29.0181
v  26.8063 -4.0644 25.0951
v  26.8476 -4.0644 25.3713
v  26.3705 -3.6923 25.4427
v  26.3292 -3.6923 25.1665
v  26.7027 -4.0644 24.4021
v  26.7440 -4.0644 24.6782
v  26.2668 -3.6923 24.7496
v  26.2255 -3.6923 24.4734
v  26.5689 -4.0644 23.5074
v  26.6102 -4.0644 23.7836
v  26.1331 -3.6923 23.8549
v  26.0918 -3.6923 23.5787
v  26.4506 -4.0644 22.7161
v  26.4919 -4.0644 22.9923
v  26.0148 -3.6923 23.0637
v  25.9735 -3.6923 22.7875
v  26.4506 -3.6439 22.7161
v  26.4506 -4.1378 22.7161
v  25.9735 -3.7586 22.7875
v  25.9735 -3.2647 22.7875
v  26.4919 -3.6439 22.9923
v  26.4919 -4.1378 22.9923
v  26.0148 -3.7586 23.0637
v  26.0148 -3.2647 23.0637
v  26.5689 -3.6439 23.5074
v  26.5689 -4.1378 23.5074
v  26.0918 -3.7586 23.5787
v  26.0918 -3.2647 23.5787
v  26.6102 -3.6439 23.7836
v  26.6102 -4.1378 23.7836
v  26.1331 -3.7586 23.8549
v  26.1331 -3.2647 23.8549
v  26.7027 -3.6439 24.4021
v  26.7027 -4.1378 24.4021
v  26.2255 -3.7586 24.4734
v  26.2255 -3.2647 24.4734
v  26.7440 -3.6439 24.6782
v  26.7440 -4.1378 24.6782
v  26.2668 -3.7586 24.7496
v  26.2668 -3.2647 24.7496
v  26.8063 -3.6439 25.0951
v  26.8063 -4.1378 25.0951
v  26.3292 -3.7586 25.1665
v  26.3292 -3.2647 25.1665
v  26.8476 -3.6439 25.3713
v  26.8476 -4.1378 25.3713
v  26.3705 -3.7586 25.4427
v  26.3705 -3.2647 25.4427
# 216 vertices

vn -0.5517 0.8300 0.0825
vn 0.1479 -0.0000 0.9890
vn 0.6041 0.7918 -0.0903
vn -0.7608 0.6390 0.1137
vn 0.1479 0.0000 0.9890
vn 0.7608 0.6390 -0.1137
# 6 vertex normals

vt 0.2644 0.5010 0.0000
vt 0.2644 0.5010 0.3529
vt 0.4703 0.5806 0.0000
vt 0.0000 1.0000 0.1563
vt 0.0000 0.4565 0.9688
vt 0.4703 0.0362 0.7813
vt 0.7937 0.5221 1.0000
vt 0.7937 0.5221 0.0000
vt 0.9994 0.7747 0.0000
vt 0.5296 0.1288 0.5124
vt 0.5296 0.3393 1.0000
vt 0.9994 0.9852 0.4876
vt 0.7937 0.5221 0.7024
vt 0.8606 0.5838 0.1515
vt 0.8606 0.7943 0.6390
# 15 texture coords

g M_louti_T_louti
usemtl Material__4
s 1
f 4/1/1 3/2/1 2/2/1 1/1/1 
f 8/1/1 7/2/1 6/2/1 5/1/1 
f 12/1/1 11/2/1 10/2/1 9/1/1 
f 16/1/1 15/2/1 14/2/1 13/1/1 
f 20/6/2 19/5/2 18/4/2 17/3/2 
f 24/6/2 23/5/2 22/4/2 21/3/2 
f 28/6/2 27/5/2 26/4/2 25/3/2 
f 32/6/2 31/5/2 30/4/2 29/3/2 
f 36/6/2 35/5/2 34/4/2 33/3/2 
f 40/6/2 39/5/2 38/4/2 37/3/2 
f 44/6/2 43/5/2 42/4/2 41/3/2 
f 48/6/2 47/5/2 46/4/2 45/3/2 
f 52/2/3 51/2/3 50/1/3 49/1/3 
f 56/2/3 55/2/3 54/1/3 53/1/3 
f 60/2/3 59/2/3 58/1/3 57/1/3 
f 64/2/3 63/2/3 62/1/3 61/1/3 
f 68/4/2 67/5/2 66/6/2 65/3/2 
f 72/4/2 71/5/2 70/6/2 69/3/2 
f 76/4/2 75/5/2 74/6/2 73/3/2 
f 80/4/2 79/5/2 78/6/2 77/3/2 
f 84/4/2 83/5/2 82/6/2 81/3/2 
f 88/4/2 87/5/2 86/6/2 85/3/2 
f 92/4/2 91/5/2 90/6/2 89/3/2 
f 96/4/2 95/5/2 94/6/2 93/3/2 
f 100/8/4 99/8/4 98/7/4 97/7/4 
f 104/12/2 103/11/2 102/10/2 101/9/2 
f 108/12/2 107/11/2 106/10/2 105/9/2 
f 112/8/4 111/8/4 110/7/4 109/7/4 
f 116/12/2 115/11/2 114/10/2 113/9/2 
f 120/12/2 119/11/2 118/10/2 117/9/2 
f 124/8/4 123/8/4 122/7/4 121/7/4 
f 128/12/5 127/11/5 126/10/5 125/9/5 
f 132/12/5 131/11/5 130/10/5 129/9/5 
f 136/8/6 135/8/6 134/13/6 133/13/6 
f 140/15/5 139/14/5 138/10/5 137/11/5 
f 144/15/5 143/14/5 142/10/5 141/11/5 
f 148/8/6 147/8/6 146/13/6 145/13/6 
f 152/15/2 151/14/2 150/10/2 149/11/2 
f 156/15/2 155/14/2 154/10/2 153/11/2 
f 160/8/6 159/8/6 158/13/6 157/13/6 
f 164/15/2 163/14/2 162/10/2 161/11/2 
f 168/15/2 167/14/2 166/10/2 165/11/2 
f 172/2/3 171/2/3 170/1/3 169/1/3 
f 176/2/3 175/2/3 174/1/3 173/1/3 
f 180/2/3 179/2/3 178/1/3 177/1/3 
f 184/2/3 183/2/3 182/1/3 181/1/3 
f 188/4/2 187/5/2 186/6/2 185/3/2 
f 192/4/2 191/5/2 190/6/2 189/3/2 
f 196/4/2 195/5/2 194/6/2 193/3/2 
f 200/4/2 199/5/2 198/6/2 197/3/2 
f 204/4/2 203/5/2 202/6/2 201/3/2 
f 208/4/2 207/5/2 206/6/2 205/3/2 
f 212/4/2 211/5/2 210/6/2 209/3/2 
f 216/4/2 215/5/2 214/6/2 213/3/2 
# 54 polygons

