# 3ds Max Wavefront OBJ Exporter v0.97b - (c)2007 guruware
# File Created: 07.02.2018 14:44:53

mtllib M_louti2_T_louti_show.mtl

#
# object M_louti2_T_louti
#

v  -19.5310 -4.2213 -22.7816
v  -19.5723 -4.2213 -23.0578
v  -18.6228 -5.3772 -23.1998
v  -18.5815 -5.3772 -22.9236
v  -18.5815 -4.9182 -22.9236
v  -18.5815 -5.4572 -22.9236
v  -19.5338 -4.2543 -22.7812
v  -19.5338 -3.7154 -22.7812
v  -18.6228 -4.9182 -23.1998
v  -18.6228 -5.4572 -23.1998
v  -19.5751 -4.2543 -23.0574
v  -19.5751 -3.7154 -23.0574
v  -19.4066 -4.2213 -21.9495
v  -19.4479 -4.2213 -22.2257
v  -18.4984 -5.3772 -22.3676
v  -18.4571 -5.3772 -22.0914
v  -18.4571 -4.9182 -22.0914
v  -18.4571 -5.4572 -22.0914
v  -19.4093 -4.2543 -21.9491
v  -19.4093 -3.7154 -21.9491
v  -18.4984 -4.9182 -22.3676
v  -18.4984 -5.4572 -22.3676
v  -19.4506 -4.2543 -22.2252
v  -19.4506 -3.7154 -22.2252
v  -19.2722 -4.2213 -21.0508
v  -19.3135 -4.2213 -21.3270
v  -18.3640 -5.3772 -21.4690
v  -18.3227 -5.3772 -21.1928
v  -18.3227 -4.9182 -21.1928
v  -18.3227 -5.4572 -21.1928
v  -19.2750 -4.2543 -21.0504
v  -19.2750 -3.7154 -21.0504
v  -18.3640 -4.9182 -21.4690
v  -18.3640 -5.4572 -21.4690
v  -19.3163 -4.2543 -21.3266
v  -19.3163 -3.7154 -21.3266
v  20.4857 -4.0483 -25.8492
v  20.5269 -4.0483 -25.5730
v  20.0498 -3.5834 -25.5017
v  20.0085 -3.5834 -25.7778
v  20.4857 -3.6194 -25.8492
v  20.4857 -4.1357 -25.8492
v  20.0085 -3.6624 -25.7778
v  20.0085 -3.1461 -25.7778
v  20.5269 -3.6194 -25.5730
v  20.5269 -4.1357 -25.5730
v  20.0498 -3.6624 -25.5017
v  20.0498 -3.1461 -25.5017
v  20.3727 -4.0483 -26.6046
v  20.4140 -4.0483 -26.3284
v  19.9369 -3.5834 -26.2571
v  19.8956 -3.5834 -26.5333
v  20.3727 -3.6194 -26.6046
v  20.3727 -4.1357 -26.6046
v  19.8956 -3.6624 -26.5333
v  19.8956 -3.1461 -26.5333
v  20.4140 -3.6194 -26.3284
v  20.4140 -4.1357 -26.3284
v  19.9369 -3.6624 -26.2571
v  19.9369 -3.1461 -26.2571
v  20.2330 -4.0483 -27.5390
v  20.2743 -4.0483 -27.2628
v  19.7972 -3.5834 -27.1915
v  19.7559 -3.5834 -27.4677
v  20.2330 -3.6194 -27.5390
v  20.2330 -4.1357 -27.5390
v  19.7559 -3.6624 -27.4677
v  19.7559 -3.1461 -27.4677
v  20.2743 -3.6194 -27.2628
v  20.2743 -4.1357 -27.2628
v  19.7972 -3.6624 -27.1915
v  19.7972 -3.1461 -27.1915
v  20.1171 -4.0483 -28.3145
v  20.1583 -4.0483 -28.0383
v  19.6812 -3.5834 -27.9670
v  19.6399 -3.5834 -28.2432
v  20.1171 -3.6194 -28.3145
v  20.1171 -4.1357 -28.3145
v  19.6399 -3.6624 -28.2432
v  19.6399 -3.1461 -28.2432
v  20.1583 -3.6194 -28.0383
v  20.1583 -4.1357 -28.0383
v  19.6812 -3.6624 -27.9670
v  19.6812 -3.1461 -27.9670
v  -0.2798 -4.0706 -24.4517
v  0.1973 -3.6799 -24.5231
v  0.2386 -3.6799 -24.2469
v  -0.2385 -4.0706 -24.1756
v  -0.2798 -3.6417 -24.4517
v  0.1973 -3.2426 -24.5231
v  0.1973 -3.7589 -24.5231
v  -0.2798 -4.1580 -24.4517
v  -0.2385 -3.6417 -24.1756
v  0.2386 -3.2426 -24.2469
v  0.2386 -3.7589 -24.2469
v  -0.2385 -4.1580 -24.1756
v  -0.3927 -4.0706 -25.2072
v  0.0844 -3.6799 -25.2785
v  0.1257 -3.6799 -25.0023
v  -0.3515 -4.0706 -24.9310
v  -0.3927 -3.6417 -25.2072
v  0.0844 -3.2426 -25.2785
v  0.0844 -3.7589 -25.2785
v  -0.3927 -4.1580 -25.2072
v  -0.3515 -3.6417 -24.9310
v  0.1257 -3.2426 -25.0023
v  0.1257 -3.7589 -25.0023
v  -0.3515 -4.1580 -24.9310
v  -0.5324 -4.0706 -26.1416
v  -0.0553 -3.6799 -26.2129
v  -0.0140 -3.6799 -25.9367
v  -0.4912 -4.0706 -25.8654
v  -0.5324 -3.6417 -26.1416
v  -0.0553 -3.2426 -26.2129
v  -0.0553 -3.7589 -26.2129
v  -0.5324 -4.1580 -26.1416
v  -0.4912 -3.6417 -25.8654
v  -0.0140 -3.2426 -25.9367
v  -0.0140 -3.7589 -25.9367
v  -0.4912 -4.1580 -25.8654
v  -0.6484 -4.0706 -26.9171
v  -0.1713 -3.6799 -26.9884
v  -0.1300 -3.6799 -26.7122
v  -0.6071 -4.0706 -26.6409
v  -0.6484 -3.6417 -26.9171
v  -0.1713 -3.2426 -26.9884
v  -0.1713 -3.7589 -26.9884
v  -0.6484 -4.1580 -26.9171
v  -0.6071 -3.6417 -26.6409
v  -0.1300 -3.2426 -26.7122
v  -0.1300 -3.7589 -26.7122
v  -0.6071 -4.1580 -26.6409
v  -35.5358 -4.0544 -19.1805
v  -35.4945 -4.0544 -18.9043
v  -35.9915 -3.6889 -18.8300
v  -36.0328 -3.6889 -19.1062
v  -35.5358 -3.6256 -19.1805
v  -35.5358 -4.1418 -19.1805
v  -36.0328 -3.7679 -19.1062
v  -36.0328 -3.2516 -19.1062
v  -35.4945 -3.6256 -18.9043
v  -35.4945 -4.1418 -18.9043
v  -35.9915 -3.7679 -18.8300
v  -35.9915 -3.2516 -18.8300
v  -35.6487 -4.0544 -19.9359
v  -35.6074 -4.0544 -19.6597
v  -36.1044 -3.6889 -19.5854
v  -36.1457 -3.6889 -19.8616
v  -35.6487 -3.6256 -19.9359
v  -35.6487 -4.1418 -19.9359
v  -36.1457 -3.7679 -19.8616
v  -36.1457 -3.2516 -19.8616
v  -35.6074 -3.6256 -19.6597
v  -35.6074 -4.1418 -19.6597
v  -36.1044 -3.7679 -19.5854
v  -36.1044 -3.2516 -19.5854
v  -35.7884 -4.0544 -20.8703
v  -35.7471 -4.0544 -20.5941
v  -36.2441 -3.6889 -20.5198
v  -36.2854 -3.6889 -20.7960
v  -35.7884 -3.6256 -20.8703
v  -35.7884 -4.1418 -20.8703
v  -36.2854 -3.7679 -20.7960
v  -36.2854 -3.2516 -20.7960
v  -35.7471 -3.6256 -20.5941
v  -35.7471 -4.1418 -20.5941
v  -36.2441 -3.7679 -20.5198
v  -36.2441 -3.2516 -20.5198
v  -35.9044 -4.0544 -21.6458
v  -35.8631 -4.0544 -21.3696
v  -36.3601 -3.6889 -21.2953
v  -36.4014 -3.6889 -21.5715
v  -35.9044 -3.6256 -21.6458
v  -35.9044 -4.1418 -21.6458
v  -36.4014 -3.7679 -21.5715
v  -36.4014 -3.2516 -21.5715
v  -35.8631 -3.6256 -21.3696
v  -35.8631 -4.1418 -21.3696
v  -36.3601 -3.7679 -21.2953
v  -36.3601 -3.2516 -21.2953
v  -49.2453 -4.0568 -17.1307
v  -48.7682 -3.5832 -17.2020
v  -48.7269 -3.5832 -16.9259
v  -49.2040 -4.0568 -16.8545
v  -49.2453 -3.6279 -17.1307
v  -48.7682 -3.1459 -17.2020
v  -48.7682 -3.6622 -17.2020
v  -49.2453 -4.1442 -17.1307
v  -49.2040 -3.6279 -16.8545
v  -48.7269 -3.1459 -16.9259
v  -48.7269 -3.6622 -16.9259
v  -49.2040 -4.1442 -16.8545
v  -49.3583 -4.0568 -17.8862
v  -48.8811 -3.5832 -17.9575
v  -48.8398 -3.5832 -17.6813
v  -49.3170 -4.0568 -17.6100
v  -49.3583 -3.6279 -17.8862
v  -48.8811 -3.1459 -17.9575
v  -48.8811 -3.6622 -17.9575
v  -49.3583 -4.1442 -17.8862
v  -49.3170 -3.6279 -17.6100
v  -48.8398 -3.1459 -17.6813
v  -48.8398 -3.6622 -17.6813
v  -49.3170 -4.1442 -17.6100
v  -49.4980 -4.0568 -18.8205
v  -49.0208 -3.5832 -18.8919
v  -48.9795 -3.5832 -18.6157
v  -49.4567 -4.0568 -18.5444
v  -49.4980 -3.6279 -18.8205
v  -49.0208 -3.1459 -18.8919
v  -49.0208 -3.6622 -18.8919
v  -49.4980 -4.1442 -18.8205
v  -49.4567 -3.6279 -18.5444
v  -48.9795 -3.1459 -18.6157
v  -48.9795 -3.6622 -18.6157
v  -49.4567 -4.1442 -18.5444
v  -49.6139 -4.0568 -19.5961
v  -49.1368 -3.5832 -19.6674
v  -49.0955 -3.5832 -19.3912
v  -49.5726 -4.0568 -19.3199
v  -49.6139 -3.6279 -19.5961
v  -49.1368 -3.1459 -19.6674
v  -49.1368 -3.6622 -19.6674
v  -49.6139 -4.1442 -19.5961
v  -49.5726 -3.6279 -19.3199
v  -49.0955 -3.1459 -19.3912
v  -49.0955 -3.6622 -19.3912
v  -49.5726 -4.1442 -19.3199
v  -16.6370 -4.2213 -23.2143
v  -17.5865 -5.3772 -23.0724
v  -17.6278 -5.3772 -23.3486
v  -16.6782 -4.2213 -23.4905
v  -17.5865 -4.9182 -23.0724
v  -16.6342 -3.7154 -23.2148
v  -16.6342 -4.2543 -23.2148
v  -17.5865 -5.4572 -23.0724
v  -17.6278 -4.9182 -23.3486
v  -16.6755 -3.7154 -23.4909
v  -16.6755 -4.2543 -23.4909
v  -17.6278 -5.4572 -23.3486
v  -16.5125 -4.2213 -22.3822
v  -17.4620 -5.3772 -22.2402
v  -17.5033 -5.3772 -22.5164
v  -16.5538 -4.2213 -22.6584
v  -17.4620 -4.9182 -22.2402
v  -16.5098 -3.7154 -22.3826
v  -16.5098 -4.2543 -22.3826
v  -17.4620 -5.4572 -22.2402
v  -17.5033 -4.9182 -22.5164
v  -16.5511 -3.7154 -22.6588
v  -16.5511 -4.2543 -22.6588
v  -17.5033 -5.4572 -22.5164
v  -16.3782 -4.2213 -21.4835
v  -17.3277 -5.3772 -21.3416
v  -17.3690 -5.3772 -21.6178
v  -16.4195 -4.2213 -21.7597
v  -17.3277 -4.9182 -21.3416
v  -16.3754 -3.7154 -21.4839
v  -16.3754 -4.2543 -21.4839
v  -17.3277 -5.4572 -21.3416
v  -17.3690 -4.9182 -21.6178
v  -16.4167 -3.7154 -21.7601
v  -16.4167 -4.2543 -21.7601
v  -17.3690 -5.4572 -21.6178
# 264 vertices

vn 0.7608 0.6390 -0.1137
vn 0.1479 0.0000 0.9890
vn 0.1479 -0.0000 0.9890
vn 0.6863 0.7200 -0.1026
vn -0.6224 0.7771 0.0931
vn 0.5818 0.8087 -0.0870
vn -0.6928 0.7136 0.1036
vn -0.7608 0.6390 0.1137
# 8 vertex normals

vt 0.7937 0.5221 0.7024
vt 0.7937 0.5221 0.0000
vt 0.5296 0.3393 1.0000
vt 0.5296 0.1288 0.5124
vt 0.8606 0.5838 0.1515
vt 0.8606 0.7943 0.6390
vt 0.2644 0.5010 0.0000
vt 0.2644 0.5010 0.3529
vt 0.4703 0.5806 0.0000
vt 0.4703 0.0362 0.7813
vt 0.0000 0.4565 0.9688
vt 0.0000 1.0000 0.1563
# 12 texture coords

g M_louti2_T_louti
usemtl T_louti
s 1
f 4/2/1 3/2/1 2/1/1 1/1/1 
f 8/6/2 7/5/2 6/4/2 5/3/2 
f 12/6/2 11/5/2 10/4/2 9/3/2 
f 16/2/1 15/2/1 14/1/1 13/1/1 
f 20/6/2 19/5/2 18/4/3 17/3/3 
f 24/6/2 23/5/2 22/4/2 21/3/2 
f 28/2/1 27/2/1 26/1/1 25/1/1 
f 32/6/2 31/5/2 30/4/2 29/3/2 
f 36/6/2 35/5/2 34/4/3 33/3/2 
f 40/8/4 39/8/4 38/7/4 37/7/4 
f 44/12/2 43/11/2 42/10/2 41/9/2 
f 48/12/2 47/11/2 46/10/2 45/9/2 
f 52/8/4 51/8/4 50/7/4 49/7/4 
f 56/12/2 55/11/2 54/10/2 53/9/2 
f 60/12/2 59/11/2 58/10/2 57/9/2 
f 64/8/4 63/8/4 62/7/4 61/7/4 
f 68/12/2 67/11/2 66/10/2 65/9/2 
f 72/12/2 71/11/2 70/10/2 69/9/2 
f 76/8/4 75/8/4 74/7/4 73/7/4 
f 80/12/2 79/11/2 78/10/2 77/9/2 
f 84/12/2 83/11/2 82/10/2 81/9/2 
f 88/7/5 87/8/5 86/8/5 85/7/5 
f 92/10/2 91/11/2 90/12/2 89/9/2 
f 96/10/2 95/11/2 94/12/2 93/9/2 
f 100/7/5 99/8/5 98/8/5 97/7/5 
f 104/10/2 103/11/2 102/12/2 101/9/2 
f 108/10/2 107/11/2 106/12/2 105/9/2 
f 112/7/5 111/8/5 110/8/5 109/7/5 
f 116/10/2 115/11/2 114/12/2 113/9/2 
f 120/10/2 119/11/2 118/12/2 117/9/2 
f 124/7/5 123/8/5 122/8/5 121/7/5 
f 128/10/2 127/11/2 126/12/2 125/9/2 
f 132/10/2 131/11/2 130/12/2 129/9/2 
f 136/8/6 135/8/6 134/7/6 133/7/6 
f 140/12/2 139/11/2 138/10/2 137/9/2 
f 144/12/2 143/11/2 142/10/2 141/9/2 
f 148/8/6 147/8/6 146/7/6 145/7/6 
f 152/12/2 151/11/2 150/10/2 149/9/2 
f 156/12/2 155/11/2 154/10/2 153/9/2 
f 160/8/6 159/8/6 158/7/6 157/7/6 
f 164/12/2 163/11/2 162/10/2 161/9/2 
f 168/12/2 167/11/2 166/10/2 165/9/2 
f 172/8/6 171/8/6 170/7/6 169/7/6 
f 176/12/2 175/11/2 174/10/2 173/9/2 
f 180/12/2 179/11/2 178/10/2 177/9/2 
f 184/7/7 183/8/7 182/8/7 181/7/7 
f 188/10/2 187/11/2 186/12/2 185/9/2 
f 192/10/2 191/11/2 190/12/2 189/9/2 
f 196/7/7 195/8/7 194/8/7 193/7/7 
f 200/10/2 199/11/2 198/12/2 197/9/2 
f 204/10/2 203/11/2 202/12/2 201/9/2 
f 208/7/7 207/8/7 206/8/7 205/7/7 
f 212/10/2 211/11/2 210/12/2 209/9/2 
f 216/10/2 215/11/2 214/12/2 213/9/2 
f 220/7/7 219/8/7 218/8/7 217/7/7 
f 224/10/2 223/11/2 222/12/2 221/9/2 
f 228/10/2 227/11/2 226/12/2 225/9/2 
f 232/1/8 231/2/8 230/2/8 229/1/8 
f 236/4/2 235/5/2 234/6/2 233/3/2 
f 240/4/2 239/5/2 238/6/2 237/3/2 
f 244/1/8 243/2/8 242/2/8 241/1/8 
f 248/4/3 247/5/2 246/6/2 245/3/3 
f 252/4/2 251/5/2 250/6/2 249/3/2 
f 256/1/8 255/2/8 254/2/8 253/1/8 
f 260/4/2 259/5/2 258/6/2 257/3/2 
f 264/4/3 263/5/2 262/6/2 261/3/2 
# 66 polygons

