# 3ds Max Wavefront OBJ Exporter v0.97b - (c)2007 guruware
# File Created: 07.02.2018 13:42:46

mtllib M_men2_T_men.mtl

#
# object M_men2_T_men
#

v  21.2575 -3.2231 -27.2956
v  21.1934 -3.2231 -27.7241
v  21.1934 -4.0706 -27.7241
v  21.2575 -4.0706 -27.2956
v  21.3569 -4.0706 -27.3105
v  21.3569 -3.2231 -27.3105
v  21.2928 -3.2231 -27.7390
v  21.2928 -4.0706 -27.7390
v  21.3939 -3.2231 -26.3831
v  21.3305 -3.2231 -26.8074
v  21.3305 -4.0706 -26.8074
v  21.3939 -4.0706 -26.3831
v  21.4933 -4.0706 -26.3980
v  21.4933 -3.2231 -26.3980
v  21.4299 -3.2231 -26.8222
v  21.4299 -4.0706 -26.8222
v  21.5057 -3.2231 -25.6357
v  21.4423 -3.2231 -26.0599
v  21.4423 -4.0706 -26.0599
v  21.5057 -4.0706 -25.6357
v  21.6051 -4.0706 -25.6505
v  21.6051 -3.2231 -25.6505
v  21.5417 -3.2231 -26.0748
v  21.5417 -4.0706 -26.0748
v  21.1309 -3.2231 -28.1425
v  21.0675 -3.2231 -28.5668
v  21.0675 -4.0706 -28.5668
v  21.1309 -4.0706 -28.1425
v  21.2303 -4.0706 -28.1574
v  21.2303 -3.2231 -28.1574
v  21.1669 -3.2231 -28.5816
v  21.1669 -4.0706 -28.5816
v  -50.8286 -3.2231 -18.1776
v  -50.8927 -3.2231 -18.6061
v  -50.8927 -4.0706 -18.6061
v  -50.8286 -4.0706 -18.1776
v  -50.7292 -4.0706 -18.1925
v  -50.7292 -3.2231 -18.1925
v  -50.7933 -3.2231 -18.6209
v  -50.7933 -4.0706 -18.6209
v  -50.6922 -3.2231 -17.2651
v  -50.7556 -3.2231 -17.6893
v  -50.7556 -4.0706 -17.6893
v  -50.6922 -4.0706 -17.2651
v  -50.5928 -4.0706 -17.2799
v  -50.5928 -3.2231 -17.2799
v  -50.6562 -3.2231 -17.7042
v  -50.6562 -4.0706 -17.7042
v  -50.5804 -3.2231 -16.5176
v  -50.6439 -3.2231 -16.9419
v  -50.6439 -4.0706 -16.9419
v  -50.5804 -4.0706 -16.5176
v  -50.4810 -4.0706 -16.5325
v  -50.4810 -3.2231 -16.5325
v  -50.5445 -3.2231 -16.9567
v  -50.5445 -4.0706 -16.9567
v  -50.9552 -3.2231 -19.0245
v  -51.0187 -3.2231 -19.4487
v  -51.0187 -4.0706 -19.4487
v  -50.9552 -4.0706 -19.0245
v  -50.8558 -4.0706 -19.0394
v  -50.8558 -3.2231 -19.0394
v  -50.9193 -3.2231 -19.4636
v  -50.9193 -4.0706 -19.4636
# 64 vertices

vn -0.9890 -0.0000 0.1479
vn 0.1479 0.0000 0.9890
vn -0.1479 0.0000 -0.9890
vn -0.0000 1.0000 0.0000
vn 0.9890 0.0000 -0.1479
vn -0.9890 0.0000 0.1479
# 6 vertex normals

vt 1.0000 1.0000 1.0000
vt 0.0000 1.0000 1.0000
vt 0.0000 0.0000 1.0000
vt 1.0000 0.0000 1.0000
vt 0.0413 0.9735 1.0000
vt 0.0413 0.9735 0.0000
vt 1.0000 1.0000 0.0000
vt 0.0000 1.0000 0.0000
vt 0.0000 0.0000 0.0000
vt 1.0000 0.0000 0.0000
# 10 texture coords

g M_men2_T_men
usemtl T_men
s 1
f 1/1/1 2/2/1 3/3/1 4/4/1 
s off
f 1/5/2 4/5/2 5/5/2 6/5/2 
f 3/6/3 2/6/3 7/6/3 8/6/3 
f 2/5/4 1/5/4 6/5/4 7/5/4 
f 7/7/5 6/8/5 5/9/5 8/10/5 
s 1
f 9/1/1 10/2/1 11/3/1 12/4/1 
s off
f 9/5/2 12/5/2 13/5/2 14/5/2 
f 11/6/3 10/6/3 15/6/3 16/6/3 
f 10/5/4 9/5/4 14/5/4 15/5/4 
f 15/7/5 14/8/5 13/9/5 16/10/5 
s 1
f 17/1/1 18/2/1 19/3/1 20/4/1 
s off
f 17/5/2 20/5/2 21/5/2 22/5/2 
f 19/6/3 18/6/3 23/6/3 24/6/3 
f 18/5/4 17/5/4 22/5/4 23/5/4 
f 23/7/5 22/8/5 21/9/5 24/10/5 
s 1
f 25/1/1 26/2/6 27/3/1 28/4/1 
s off
f 25/5/2 28/5/2 29/5/2 30/5/2 
f 27/6/3 26/6/3 31/6/3 32/6/3 
f 26/5/4 25/5/4 30/5/4 31/5/4 
f 31/7/5 30/8/5 29/9/5 32/10/5 
s 1
f 33/1/1 34/2/1 35/3/1 36/4/1 
s off
f 33/5/2 36/5/2 37/5/2 38/5/2 
f 35/6/3 34/6/3 39/6/3 40/6/3 
f 34/5/4 33/5/4 38/5/4 39/5/4 
f 39/7/5 38/8/5 37/9/5 40/10/5 
s 1
f 41/1/1 42/2/1 43/3/1 44/4/1 
s off
f 41/5/2 44/5/2 45/5/2 46/5/2 
f 43/6/3 42/6/3 47/6/3 48/6/3 
f 42/5/4 41/5/4 46/5/4 47/5/4 
f 47/7/5 46/8/5 45/9/5 48/10/5 
s 1
f 49/1/1 50/2/1 51/3/1 52/4/1 
s off
f 49/5/2 52/5/2 53/5/2 54/5/2 
f 51/6/3 50/6/3 55/6/3 56/6/3 
f 50/5/4 49/5/4 54/5/4 55/5/4 
f 55/7/5 54/8/5 53/9/5 56/10/5 
s 1
f 57/1/1 58/2/1 59/3/1 60/4/1 
s off
f 57/5/2 60/5/2 61/5/2 62/5/2 
f 59/6/3 58/6/3 63/6/3 64/6/3 
f 58/5/4 57/5/4 62/5/4 63/5/4 
f 63/7/5 62/8/5 61/9/5 64/10/5 
# 40 polygons

