# 3ds Max Wavefront OBJ Exporter v0.97b - (c)2007 guruware
# File Created: 07.02.2018 15:06:23

mtllib M_men_T_men_show.mtl

#
# object M_men_T_men
#

v  28.3677 -3.2231 22.8009
v  28.3043 -3.2231 22.3767
v  28.3043 -4.0706 22.3767
v  28.3677 -4.0706 22.8009
v  28.4671 -4.0706 22.7861
v  28.4671 -3.2231 22.7861
v  28.4037 -3.2231 22.3618
v  28.4037 -4.0706 22.3618
v  28.4863 -3.2231 23.5942
v  28.4229 -3.2231 23.1699
v  28.4229 -4.0706 23.1699
v  28.4863 -4.0706 23.5942
v  28.5857 -4.0706 23.5793
v  28.5857 -3.2231 23.5793
v  28.5223 -3.2231 23.1551
v  28.5223 -4.0706 23.1551
v  28.6166 -3.2231 24.4651
v  28.5531 -3.2231 24.0409
v  28.5531 -4.0706 24.0409
v  28.6166 -4.0706 24.4651
v  28.7160 -4.0706 24.4503
v  28.7160 -3.2231 24.4503
v  28.6525 -3.2231 24.0260
v  28.6525 -4.0706 24.0260
v  0.4057 -2.8942 29.3761
v  0.3423 -2.8942 28.9519
v  0.3423 -3.6283 28.9519
v  0.4057 -3.6283 29.3761
v  0.5250 -3.6283 29.3583
v  0.5250 -2.8942 29.3583
v  0.4616 -2.8942 28.9340
v  0.4616 -3.6283 28.9340
v  -30.8740 -2.8942 34.0448
v  -30.9375 -2.8942 33.6205
v  -30.9375 -3.6283 33.6205
v  -30.8740 -3.6283 34.0448
v  -30.7547 -3.6283 34.0269
v  -30.7547 -2.8942 34.0269
v  -30.8182 -2.8942 33.6027
v  -30.8182 -3.6283 33.6027
v  -49.4088 -3.2231 34.4176
v  -49.4722 -3.2231 33.9933
v  -49.4722 -4.0706 33.9933
v  -49.4088 -4.0706 34.4176
v  -49.3094 -4.0706 34.4027
v  -49.3094 -3.2231 34.4027
v  -49.3728 -3.2231 33.9785
v  -49.3728 -4.0706 33.9785
v  -49.1546 -3.2231 36.1174
v  -49.2181 -3.2231 35.6932
v  -49.2181 -4.0706 35.6932
v  -49.1546 -4.0706 36.1174
v  -49.0552 -4.0706 36.1025
v  -49.0552 -3.2231 36.1025
v  -49.1187 -3.2231 35.6783
v  -49.1187 -4.0706 35.6783
v  -49.2896 -3.2231 35.2148
v  -49.3530 -3.2231 34.7905
v  -49.3530 -4.0706 34.7905
v  -49.2896 -4.0706 35.2148
v  -49.1902 -4.0706 35.1999
v  -49.1902 -3.2231 35.1999
v  -49.2536 -3.2231 34.7757
v  -49.2536 -4.0706 34.7757
# 64 vertices

vn -0.9890 -0.0000 0.1479
vn 0.1479 0.0000 0.9890
vn -0.1479 -0.0000 -0.9890
vn -0.0000 1.0000 0.0000
vn 0.9890 0.0000 -0.1479
vn -0.1479 0.0000 -0.9890
# 6 vertex normals

vt 1.0000 1.0000 1.0000
vt 0.0000 1.0000 1.0000
vt 0.0000 0.0000 1.0000
vt 1.0000 0.0000 1.0000
vt 0.0413 0.9735 1.0000
vt 0.0413 0.9735 0.0000
vt 1.0000 1.0000 0.0000
vt 0.0000 1.0000 0.0000
vt 0.0000 0.0000 0.0000
vt 1.0000 0.0000 0.0000
# 10 texture coords

g M_men_T_men
usemtl Material__6
s 1
f 1/1/1 2/2/1 3/3/1 4/4/1 
s off
f 1/5/2 4/5/2 5/5/2 6/5/2 
f 3/6/3 2/6/3 7/6/3 8/6/3 
f 2/5/4 1/5/4 6/5/4 7/5/4 
f 7/7/5 6/8/5 5/9/5 8/10/5 
s 1
f 9/1/1 10/2/1 11/3/1 12/4/1 
s off
f 9/5/2 12/5/2 13/5/2 14/5/2 
f 11/6/6 10/6/6 15/6/6 16/6/6 
f 10/5/4 9/5/4 14/5/4 15/5/4 
f 15/7/5 14/8/5 13/9/5 16/10/5 
s 1
f 17/1/1 18/2/1 19/3/1 20/4/1 
s off
f 17/5/2 20/5/2 21/5/2 22/5/2 
f 19/6/6 18/6/6 23/6/6 24/6/6 
f 18/5/4 17/5/4 22/5/4 23/5/4 
f 23/7/5 22/8/5 21/9/5 24/10/5 
s 1
f 25/1/1 26/2/1 27/3/1 28/4/1 
s off
f 25/5/2 28/5/2 29/5/2 30/5/2 
f 27/6/6 26/6/6 31/6/6 32/6/6 
f 26/5/4 25/5/4 30/5/4 31/5/4 
f 31/7/5 30/8/5 29/9/5 32/10/5 
s 1
f 33/1/1 34/2/1 35/3/1 36/4/1 
s off
f 33/5/2 36/5/2 37/5/2 38/5/2 
f 35/6/6 34/6/6 39/6/6 40/6/6 
f 34/5/4 33/5/4 38/5/4 39/5/4 
f 39/7/5 38/8/5 37/9/5 40/10/5 
s 1
f 41/1/1 42/2/1 43/3/1 44/4/1 
s off
f 41/5/2 44/5/2 45/5/2 46/5/2 
f 43/6/3 42/6/3 47/6/3 48/6/3 
f 42/5/4 41/5/4 46/5/4 47/5/4 
f 47/7/5 46/8/5 45/9/5 48/10/5 
s 1
f 49/1/1 50/2/1 51/3/1 52/4/1 
s off
f 49/5/2 52/5/2 53/5/2 54/5/2 
f 51/6/6 50/6/6 55/6/6 56/6/6 
f 50/5/4 49/5/4 54/5/4 55/5/4 
f 55/7/5 54/8/5 53/9/5 56/10/5 
s 1
f 57/1/1 58/2/1 59/3/1 60/4/1 
s off
f 57/5/2 60/5/2 61/5/2 62/5/2 
f 59/6/6 58/6/6 63/6/6 64/6/6 
f 58/5/4 57/5/4 62/5/4 63/5/4 
f 63/7/5 62/8/5 61/9/5 64/10/5 
# 40 polygons

