# 3ds Max Wavefront OBJ Exporter v0.97b - (c)2007 guruware
# File Created: 13.07.2018 10:24:57

mtllib M_N_MEP_B1_fengguan.mtl

#
# object M_N_MEP_B1_fengguan
#

v  -1420.5773 137.0032 -1557.6431
v  -1420.5773 137.0032 1501.1775
v  1646.9821 137.0032 1501.1775
v  1646.9821 137.0032 -1557.6431
# 4 vertices

vn 0.0000 1.0000 -0.0000
# 1 vertex normals

vt 0.0035 1.0000 0.0000
vt 0.0035 -0.0000 0.0000
vt 0.9969 -0.0000 0.0000
vt 0.9969 1.0000 0.0000
# 4 texture coords

o M_N_MEP_B1_fengguan
g M_N_MEP_B1_fengguan
usemtl N_B1_fengguan
s 1
f 1/1/1 2/2/1 3/3/1 4/4/1 
# 1 polygons

