# 3ds Max Wavefront OBJ Exporter v0.97b - (c)2007 guruware
# File Created: 07.02.2018 13:13:57

mtllib M_paishui_yushui_T_paishui_yushui.mtl

#
# object M_paishui_yushui_T_paishui_yushui
#

v  -87.0712 -4.1349 40.4737
v  -87.1678 -4.1349 39.8277
v  -91.1338 -4.1349 40.4207
v  -91.1266 -4.1349 40.4692
v  -91.0372 -4.1349 41.0667
v  79.6773 -4.4773 14.9697
v  83.3900 -4.4773 14.4146
v  83.3017 -4.4773 13.8241
v  79.5890 -4.4773 14.3792
v  79.3903 -4.1469 13.7845
v  77.0333 -4.1469 14.1369
v  77.2130 -4.1470 15.3381
v  79.5699 -4.1469 14.9857
v  -85.7248 -3.9339 38.3895
v  -87.8446 -3.9339 38.7065
v  -87.1384 -3.9339 43.4292
v  -85.0186 -3.9339 43.1122
v  15.2087 -3.2849 16.4319
v  6.0277 -3.2849 17.8046
v  8.1970 -3.2849 32.3136
v  17.3780 -3.2849 30.9409
v  44.1702 -3.6283 25.9092
v  45.0470 -3.6283 25.7780
v  44.7440 -3.6283 23.7515
v  43.8672 -3.6283 23.8826
v  77.0281 -3.9299 14.1019
v  73.1567 -3.9299 14.6807
v  73.8822 -3.9299 19.5329
v  77.7535 -3.9299 18.9541
v  -24.0127 -3.3670 27.0201
v  -45.0135 -3.3670 30.1600
v  -43.5350 -3.3670 40.0483
v  -22.5342 -3.3670 36.9084
v  74.3751 -3.5686 12.4449
v  73.6793 -3.5686 12.5490
v  73.9601 -3.5686 14.4271
v  74.6559 -3.5686 14.3230
v  -19.3885 -3.5479 26.6314
v  -20.4352 -3.5479 26.7879
v  -20.1387 -3.5479 28.7712
v  -19.0919 -3.5479 28.6147
v  -86.4339 -3.3033 43.0957
v  -87.1334 -3.3033 43.2003
v  -86.7141 -3.3033 46.0048
v  -86.0145 -3.3033 45.9002
v  -86.0095 -3.4474 45.9146
v  -86.2116 -3.4474 45.6605
v  -86.2116 -2.6434 45.6605
v  -86.0095 -2.6434 45.9146
v  -86.5327 -3.4474 45.7085
v  -86.5327 -2.6434 45.7085
v  -86.6517 -3.4474 46.0106
v  -86.6517 -2.6434 46.0106
v  -86.4496 -3.4474 46.2647
v  -86.4496 -2.6434 46.2647
v  -86.1285 -3.4474 46.2167
v  -86.1285 -2.6434 46.2167
v  -88.0270 -4.1349 40.2318
v  -88.2292 -4.1349 39.9778
v  -88.2292 -2.6434 39.9778
v  -88.0270 -2.6434 40.2318
v  -88.5503 -4.1349 40.0258
v  -88.5503 -2.6434 40.0258
v  -88.6693 -4.1349 40.3279
v  -88.6693 -2.6434 40.3279
v  -88.4671 -4.1349 40.5820
v  -88.4671 -2.6434 40.5820
v  -88.1460 -4.1349 40.5340
v  -88.1460 -2.6434 40.5340
v  -87.0452 -4.1349 39.0471
v  -87.2473 -4.1349 38.7931
v  -87.2473 -2.6434 38.7931
v  -87.0452 -2.6434 39.0471
v  -87.5685 -4.1349 38.8411
v  -87.5685 -2.6434 38.8411
v  -87.6874 -4.1349 39.1432
v  -87.6874 -2.6434 39.1432
v  -87.4853 -4.1349 39.3973
v  -87.4853 -2.6434 39.3973
v  -87.1642 -4.1349 39.3493
v  -87.1642 -2.6434 39.3493
v  -86.8934 -4.1349 40.0624
v  -87.0956 -4.1349 39.8083
v  -87.0956 -2.6434 39.8083
v  -86.8934 -2.6434 40.0624
v  -87.4167 -4.1349 39.8563
v  -87.4167 -2.6434 39.8563
v  -87.5357 -4.1349 40.1584
v  -87.5357 -2.6434 40.1584
v  -87.3335 -4.1349 40.4125
v  -87.3335 -2.6434 40.4125
v  -87.0124 -4.1349 40.3645
v  -87.0124 -2.6434 40.3645
v  -86.4475 -4.1349 43.0410
v  -86.6496 -4.1349 42.7869
v  -86.6496 -2.6434 42.7869
v  -86.4475 -2.6434 43.0410
v  -86.9707 -4.1349 42.8349
v  -86.9707 -2.6434 42.8349
v  -87.0897 -4.1349 43.1370
v  -87.0897 -2.6434 43.1370
v  -86.8876 -4.1349 43.3911
v  -86.8876 -2.6434 43.3911
v  -86.5665 -4.1349 43.3431
v  -86.5665 -2.6434 43.3431
v  -81.9215 -3.1861 36.9873
v  -82.0332 -3.1861 36.8469
v  -82.0332 -2.6434 36.8469
v  -81.9215 -2.6434 36.9873
v  -82.2105 -3.1861 36.8734
v  -82.2105 -2.6434 36.8734
v  -82.2762 -3.1861 37.0403
v  -82.2762 -2.6434 37.0403
v  -82.1646 -3.1861 37.1806
v  -82.1646 -2.6434 37.1806
v  -81.9872 -3.1861 37.1541
v  -81.9872 -2.6434 37.1541
v  -81.2967 -3.1861 42.2540
v  -81.4083 -3.1861 42.1137
v  -81.4083 -2.6434 42.1137
v  -81.2967 -2.6434 42.2540
v  -81.5857 -3.1861 42.1402
v  -81.5857 -2.6434 42.1402
v  -81.6514 -3.1861 42.3071
v  -81.6514 -2.6434 42.3071
v  -81.5397 -3.1861 42.4474
v  -81.5397 -2.6434 42.4474
v  -81.3624 -3.1861 42.4209
v  -81.3624 -2.6434 42.4209
v  -45.5124 -2.9047 36.9038
v  -45.6241 -2.9047 36.7635
v  -45.6241 -2.6434 36.7635
v  -45.5124 -2.6434 36.9038
v  -45.8014 -2.9047 36.7900
v  -45.8014 -2.6434 36.7900
v  -45.8671 -2.9047 36.9568
v  -45.8671 -2.6434 36.9568
v  -45.7555 -2.9047 37.0971
v  -45.7555 -2.6434 37.0971
v  -45.5781 -2.9047 37.0706
v  -45.5781 -2.6434 37.0706
v  -46.1149 -2.9047 32.8675
v  -46.2265 -2.9047 32.7271
v  -46.2265 -2.6434 32.7271
v  -46.1149 -2.6434 32.8675
v  -46.4039 -2.9047 32.7536
v  -46.4039 -2.6434 32.7536
v  -46.4696 -2.9047 32.9205
v  -46.4696 -2.6434 32.9205
v  -46.3580 -2.9047 33.0608
v  -46.3580 -2.6434 33.0608
v  -46.1806 -2.9047 33.0343
v  -46.1806 -2.6434 33.0343
v  -19.6301 -3.6685 26.8284
v  -19.7670 -3.6685 26.6563
v  -19.7670 -2.6434 26.6563
v  -19.6301 -2.6434 26.8284
v  -19.9844 -3.6685 26.6888
v  -19.9844 -2.6434 26.6888
v  -20.0650 -3.6685 26.8934
v  -20.0650 -2.6434 26.8934
v  -19.9281 -3.6685 27.0654
v  -19.9281 -2.6434 27.0654
v  -19.7107 -3.6685 27.0329
v  -19.7107 -2.6434 27.0329
v  -11.0647 -3.1861 27.6271
v  -11.1748 -3.1861 27.4888
v  -11.1748 -2.6434 27.4888
v  -11.0647 -2.6434 27.6271
v  -11.3495 -3.1861 27.5149
v  -11.3495 -2.6434 27.5149
v  -11.4143 -3.1861 27.6793
v  -11.4143 -2.6434 27.6793
v  -11.3043 -3.1861 27.8176
v  -11.3043 -2.6434 27.8176
v  -11.1295 -3.1861 27.7915
v  -11.1295 -2.6434 27.7915
v  -10.4613 -3.1861 31.6632
v  -10.5713 -3.1861 31.5249
v  -10.5713 -2.6434 31.5249
v  -10.4613 -2.6434 31.6632
v  -10.7461 -3.1861 31.5510
v  -10.7461 -2.6434 31.5510
v  -10.8108 -3.1861 31.7154
v  -10.8108 -2.6434 31.7154
v  -10.7008 -3.1861 31.8537
v  -10.7008 -2.6434 31.8537
v  -10.5260 -3.1861 31.8276
v  -10.5260 -2.6434 31.8276
v  25.4565 -2.9047 22.1666
v  25.3434 -2.9047 22.0245
v  25.3434 -2.6434 22.0245
v  25.4565 -2.6434 22.1666
v  25.1638 -2.9047 22.0514
v  25.1638 -2.6434 22.0514
v  25.0973 -2.9047 22.2203
v  25.0973 -2.6434 22.2203
v  25.2103 -2.9047 22.3624
v  25.2103 -2.6434 22.3624
v  25.3899 -2.9047 22.3356
v  25.3899 -2.6434 22.3356
v  10.0514 -3.3992 18.0548
v  9.9118 -3.3992 17.8794
v  9.9118 -2.6434 17.8794
v  10.0514 -2.6434 18.0548
v  9.6901 -3.3992 17.9125
v  9.6901 -2.6434 17.9125
v  9.6079 -3.3992 18.1211
v  9.6079 -2.6434 18.1211
v  9.7475 -3.3992 18.2966
v  9.7475 -2.6434 18.2966
v  9.9693 -3.3992 18.2634
v  9.9693 -2.6434 18.2634
v  9.1032 -3.4876 30.4822
v  8.9902 -3.4876 30.3400
v  8.9902 -2.6434 30.3400
v  9.1032 -2.6434 30.4822
v  8.8105 -3.4876 30.3669
v  8.8105 -2.6434 30.3669
v  8.7440 -3.4876 30.5359
v  8.7440 -2.6434 30.5359
v  8.8571 -3.4876 30.6780
v  8.8571 -2.6434 30.6780
v  9.0367 -3.4876 30.6511
v  9.0367 -2.6434 30.6511
v  25.8561 -2.9047 26.2535
v  25.7431 -2.9047 26.1114
v  25.7431 -2.6434 26.1114
v  25.8561 -2.6434 26.2535
v  25.5635 -2.9047 26.1383
v  25.5635 -2.6434 26.1383
v  25.4969 -2.9047 26.3072
v  25.4969 -2.6434 26.3072
v  25.6100 -2.9047 26.4493
v  25.6100 -2.6434 26.4493
v  25.7896 -2.9047 26.4225
v  25.7896 -2.6434 26.4225
v  61.8367 -3.1861 20.8536
v  61.7267 -3.1861 20.7153
v  61.7267 -2.6434 20.7153
v  61.8367 -2.6434 20.8536
v  61.5519 -3.1861 20.7414
v  61.5519 -2.6434 20.7414
v  61.4872 -3.1861 20.9058
v  61.4872 -2.6434 20.9058
v  61.5972 -3.1861 21.0441
v  61.5972 -2.6434 21.0441
v  61.7719 -3.1861 21.0180
v  61.7719 -2.6434 21.0180
v  61.2333 -3.1861 16.8175
v  61.1232 -3.1861 16.6792
v  61.1232 -2.6434 16.6792
v  61.2333 -2.6434 16.8175
v  60.9485 -3.1861 16.7053
v  60.9485 -2.6434 16.7053
v  60.8837 -3.1861 16.8697
v  60.8837 -2.6434 16.8697
v  60.9937 -3.1861 17.0080
v  60.9937 -2.6434 17.0080
v  61.1685 -3.1861 16.9819
v  61.1685 -2.6434 16.9819
v  70.1017 -3.5881 14.0889
v  69.9886 -3.5881 13.9467
v  69.9886 -2.6434 13.9467
v  70.1017 -2.6434 14.0889
v  69.8089 -3.5881 13.9736
v  69.8089 -2.6434 13.9736
v  69.7423 -3.5881 14.1427
v  69.7423 -2.6434 14.1427
v  69.8554 -3.5881 14.2849
v  69.8554 -2.6434 14.2849
v  70.0351 -3.5881 14.2580
v  70.0351 -2.6434 14.2580
v  74.2334 -3.7087 12.6437
v  74.0938 -3.7087 12.4683
v  74.0938 -2.6434 12.4683
v  74.2334 -2.6434 12.6437
v  73.8721 -3.7087 12.5014
v  73.8721 -2.6434 12.5014
v  73.7900 -3.7087 12.7100
v  73.7900 -2.6434 12.7100
v  73.9295 -3.7087 12.8854
v  73.9295 -2.6434 12.8854
v  74.1512 -3.7087 12.8523
v  74.1512 -2.6434 12.8523
v  77.2602 -4.3480 14.5235
v  77.0524 -4.3480 14.2623
v  77.0524 -2.6434 14.2623
v  77.2602 -2.6434 14.5235
v  76.7223 -4.3480 14.3117
v  76.7223 -2.6434 14.3117
v  76.6000 -4.3480 14.6222
v  76.6000 -2.6434 14.6222
v  76.8078 -4.3480 14.8834
v  76.8078 -2.6434 14.8834
v  77.1379 -4.3480 14.8340
v  77.1379 -2.6434 14.8340
v  79.8928 -4.7098 14.6350
v  79.6851 -4.7098 14.3738
v  79.6851 -2.6434 14.3738
v  79.8928 -2.6434 14.6350
v  79.3550 -4.7098 14.4231
v  79.3550 -2.6434 14.4231
v  79.2327 -4.7098 14.7337
v  79.2327 -2.6434 14.7337
v  79.4405 -4.7098 14.9948
v  79.4405 -2.6434 14.9948
v  79.7705 -4.7098 14.9455
v  79.7705 -2.6434 14.9455
v  76.2465 -4.1349 18.7330
v  76.0387 -4.1349 18.4718
v  76.0387 -2.6434 18.4718
v  76.2465 -2.6434 18.7330
v  75.7086 -4.1349 18.5212
v  75.7086 -2.6434 18.5212
v  75.5863 -4.1349 18.8317
v  75.5863 -2.6434 18.8317
v  75.7941 -4.1349 19.0929
v  75.7941 -2.6434 19.0929
v  76.1242 -4.1349 19.0435
v  76.1242 -2.6434 19.0435
v  73.7749 -3.5881 19.0687
v  73.6606 -3.5881 18.9250
v  73.6606 -2.6434 18.9250
v  73.7749 -2.6434 19.0687
v  73.4791 -3.5881 18.9522
v  73.4791 -2.6434 18.9522
v  73.4118 -3.5881 19.1229
v  73.4118 -2.6434 19.1229
v  73.5261 -3.5881 19.2666
v  73.5261 -2.6434 19.2666
v  73.7076 -3.5881 19.2394
v  73.7076 -2.6434 19.2394
# 333 vertices

vn -0.0000 1.0000 -0.0000
vn -0.0000 1.0000 0.0000
vn -0.0000 1.0000 -0.0001
vn 0.0000 1.0000 -0.0000
vn 0.0000 1.0000 0.0000
vn 0.9890 0.0000 -0.1479
vn 0.3664 0.0000 -0.9304
vn -0.6226 0.0000 -0.7826
vn -0.9890 0.0000 0.1479
vn -0.3664 0.0000 0.9304
vn 0.6226 0.0000 0.7826
vn 0.0000 -1.0000 -0.0000
vn 0.3665 0.0000 -0.9304
vn -0.6226 0.0000 -0.7825
vn -0.3665 0.0000 0.9304
vn 0.6226 0.0000 0.7825
vn 0.6225 0.0000 0.7826
# 17 vertex normals

vt 0.5586 0.2155 0.5000
vt 0.5586 0.2403 0.5000
vt 0.4056 0.2403 0.5000
vt 0.4056 0.2385 0.5000
vt 0.4056 0.2155 0.5000
vt 0.6638 0.4485 0.5000
vt 0.8064 0.4485 0.5000
vt 0.8064 0.4712 0.5000
vt 0.6638 0.4712 0.5000
vt 0.6597 0.4947 0.5000
vt 0.5691 0.4947 0.5000
vt 0.5691 0.4485 0.5000
vt 0.6597 0.4485 0.5000
vt 0.6212 0.2863 0.5000
vt 0.5394 0.2863 0.5000
vt 0.5394 0.1049 0.5000
vt 0.6212 0.1049 0.5000
vt 0.3746 0.5767 0.5000
vt 0.0220 0.5767 0.5000
vt 0.0220 0.0194 0.5000
vt 0.3746 0.0194 0.5000
vt 0.7382 0.2089 0.5000
vt 0.7722 0.2089 0.5000
vt 0.7722 0.2867 0.5000
vt 0.7382 0.2867 0.5000
vt 0.5691 0.4960 0.5000
vt 0.4204 0.4960 0.5000
vt 0.4204 0.3094 0.5000
vt 0.5691 0.3094 0.5000
vt 0.8303 0.9772 0.5000
vt 0.0238 0.9772 0.5000
vt 0.0238 0.5978 0.5000
vt 0.8303 0.5978 0.5000
vt 0.4787 0.5733 0.5000
vt 0.4520 0.5733 0.5000
vt 0.4520 0.5010 0.5000
vt 0.4787 0.5010 0.5000
vt 0.6965 0.2843 0.5000
vt 0.6561 0.2843 0.5000
vt 0.6561 0.2075 0.5000
vt 0.6965 0.2075 0.5000
vt 0.5679 0.1135 0.5000
vt 0.5409 0.1135 0.5000
vt 0.5409 0.0058 0.5000
vt 0.5679 0.0058 0.5000
vt 0.9737 0.0239 1.0000
vt 0.9737 0.0239 -0.2500
vt 0.9737 0.0239 0.2500
# 48 texture coords

g M_paishui_yushui_T_paishui_yushui
usemtl T_paishui_yushui
s 1
f 1/1/1 2/2/2 3/3/3 4/4/4 
f 5/5/4 1/1/1 4/4/4 
f 6/6/4 7/7/4 8/8/4 9/9/4 
f 10/10/2 11/11/5 12/12/2 13/13/2 
f 14/14/5 15/15/5 16/16/5 17/17/5 
f 18/18/4 19/19/4 20/20/4 21/21/4 
f 22/22/1 23/23/1 24/24/1 25/25/4 
f 26/26/4 27/27/4 28/28/4 29/29/4 
f 30/30/4 31/31/4 32/32/4 33/33/4 
f 34/34/4 35/35/4 36/36/4 37/37/4 
f 38/38/4 39/39/4 40/40/4 41/41/4 
f 42/42/1 43/43/1 44/44/1 45/45/1 
s 8
f 46/46/6 47/46/7 48/46/7 49/46/6 
f 47/46/7 50/46/8 51/46/8 48/46/7 
f 50/46/8 52/46/9 53/46/9 51/46/8 
f 52/46/9 54/46/10 55/46/10 53/46/9 
f 54/46/10 56/46/11 57/46/11 55/46/10 
f 56/46/11 46/46/6 49/46/6 57/46/11 
s 1
f 54/47/12 52/47/12 50/47/12 46/47/12 
f 50/47/12 47/47/12 46/47/12 
f 56/47/12 54/47/12 46/47/12 
f 48/48/4 51/48/4 53/48/4 57/48/4 
f 53/48/4 55/48/4 57/48/4 
f 49/48/4 48/48/4 57/48/4 
s 8
f 58/46/6 59/46/7 60/46/7 61/46/6 
f 59/46/7 62/46/8 63/46/8 60/46/7 
f 62/46/8 64/46/9 65/46/9 63/46/8 
f 64/46/9 66/46/10 67/46/10 65/46/9 
f 66/46/10 68/46/11 69/46/11 67/46/10 
f 68/46/11 58/46/6 61/46/6 69/46/11 
s 1
f 66/47/12 64/47/12 62/47/12 58/47/12 
f 62/47/12 59/47/12 58/47/12 
f 68/47/12 66/47/12 58/47/12 
f 60/48/4 63/48/4 65/48/4 69/48/4 
f 65/48/4 67/48/4 69/48/4 
f 61/48/4 60/48/4 69/48/4 
s 8
f 70/46/6 71/46/7 72/46/7 73/46/6 
f 71/46/7 74/46/8 75/46/8 72/46/7 
f 74/46/8 76/46/9 77/46/9 75/46/8 
f 76/46/9 78/46/10 79/46/10 77/46/9 
f 78/46/10 80/46/11 81/46/11 79/46/10 
f 80/46/11 70/46/6 73/46/6 81/46/11 
s 1
f 78/47/12 76/47/12 74/47/12 70/47/12 
f 74/47/12 71/47/12 70/47/12 
f 80/47/12 78/47/12 70/47/12 
f 72/48/4 75/48/4 77/48/4 81/48/4 
f 77/48/4 79/48/4 81/48/4 
f 73/48/4 72/48/4 81/48/4 
s 8
f 82/46/6 83/46/7 84/46/7 85/46/6 
f 83/46/7 86/46/8 87/46/8 84/46/7 
f 86/46/8 88/46/9 89/46/9 87/46/8 
f 88/46/9 90/46/10 91/46/10 89/46/9 
f 90/46/10 92/46/11 93/46/11 91/46/10 
f 92/46/11 82/46/6 85/46/6 93/46/11 
s 1
f 90/47/12 88/47/12 86/47/12 82/47/12 
f 86/47/12 83/47/12 82/47/12 
f 92/47/12 90/47/12 82/47/12 
f 84/48/4 87/48/4 89/48/4 93/48/4 
f 89/48/4 91/48/4 93/48/4 
f 85/48/4 84/48/4 93/48/4 
s 8
f 94/46/6 95/46/7 96/46/7 97/46/6 
f 95/46/7 98/46/8 99/46/8 96/46/7 
f 98/46/8 100/46/9 101/46/9 99/46/8 
f 100/46/9 102/46/10 103/46/10 101/46/9 
f 102/46/10 104/46/11 105/46/11 103/46/10 
f 104/46/11 94/46/6 97/46/6 105/46/11 
s 1
f 102/47/12 100/47/12 98/47/12 94/47/12 
f 98/47/12 95/47/12 94/47/12 
f 104/47/12 102/47/12 94/47/12 
f 96/48/4 99/48/4 101/48/4 105/48/4 
f 101/48/4 103/48/4 105/48/4 
f 97/48/4 96/48/4 105/48/4 
s 8
f 106/46/6 107/46/7 108/46/7 109/46/6 
f 107/46/7 110/46/8 111/46/8 108/46/7 
f 110/46/8 112/46/9 113/46/9 111/46/8 
f 112/46/9 114/46/10 115/46/10 113/46/9 
f 114/46/10 116/46/11 117/46/11 115/46/10 
f 116/46/11 106/46/6 109/46/6 117/46/11 
s 1
f 114/47/12 112/47/12 110/47/12 106/47/12 
f 110/47/12 107/47/12 106/47/12 
f 116/47/12 114/47/12 106/47/12 
f 108/48/4 111/48/4 113/48/4 117/48/4 
f 113/48/4 115/48/4 117/48/4 
f 109/48/4 108/48/4 117/48/4 
s 8
f 118/46/6 119/46/7 120/46/7 121/46/6 
f 119/46/7 122/46/8 123/46/8 120/46/7 
f 122/46/8 124/46/9 125/46/9 123/46/8 
f 124/46/9 126/46/10 127/46/10 125/46/9 
f 126/46/10 128/46/11 129/46/11 127/46/10 
f 128/46/11 118/46/6 121/46/6 129/46/11 
s 1
f 126/47/12 124/47/12 122/47/12 118/47/12 
f 122/47/12 119/47/12 118/47/12 
f 128/47/12 126/47/12 118/47/12 
f 120/48/4 123/48/4 125/48/4 129/48/4 
f 125/48/4 127/48/4 129/48/4 
f 121/48/4 120/48/4 129/48/4 
s 8
f 130/46/6 131/46/13 132/46/13 133/46/6 
f 131/46/13 134/46/8 135/46/8 132/46/13 
f 134/46/8 136/46/9 137/46/9 135/46/8 
f 136/46/9 138/46/10 139/46/10 137/46/9 
f 138/46/10 140/46/11 141/46/11 139/46/10 
f 140/46/11 130/46/6 133/46/6 141/46/11 
s 1
f 138/47/12 136/47/12 134/47/12 130/47/12 
f 134/47/12 131/47/12 130/47/12 
f 140/47/12 138/47/12 130/47/12 
f 132/48/4 135/48/4 137/48/4 141/48/4 
f 137/48/4 139/48/4 141/48/4 
f 133/48/4 132/48/4 141/48/4 
s 8
f 142/46/6 143/46/13 144/46/7 145/46/6 
f 143/46/13 146/46/8 147/46/8 144/46/7 
f 146/46/8 148/46/9 149/46/9 147/46/8 
f 148/46/9 150/46/10 151/46/10 149/46/9 
f 150/46/10 152/46/11 153/46/11 151/46/10 
f 152/46/11 142/46/6 145/46/6 153/46/11 
s 1
f 150/47/12 148/47/12 146/47/12 142/47/12 
f 146/47/12 143/47/12 142/47/12 
f 152/47/12 150/47/12 142/47/12 
f 144/48/4 147/48/4 149/48/4 153/48/4 
f 149/48/4 151/48/4 153/48/4 
f 145/48/4 144/48/4 153/48/4 
s 8
f 154/46/6 155/46/7 156/46/7 157/46/6 
f 155/46/7 158/46/8 159/46/8 156/46/7 
f 158/46/8 160/46/9 161/46/9 159/46/8 
f 160/46/9 162/46/10 163/46/10 161/46/9 
f 162/46/10 164/46/11 165/46/11 163/46/10 
f 164/46/11 154/46/6 157/46/6 165/46/11 
s 1
f 162/47/12 160/47/12 158/47/12 154/47/12 
f 158/47/12 155/47/12 154/47/12 
f 164/47/12 162/47/12 154/47/12 
f 156/48/4 159/48/4 161/48/4 165/48/4 
f 161/48/4 163/48/4 165/48/4 
f 157/48/4 156/48/4 165/48/4 
s 8
f 166/46/6 167/46/7 168/46/7 169/46/6 
f 167/46/7 170/46/8 171/46/8 168/46/7 
f 170/46/8 172/46/9 173/46/9 171/46/8 
f 172/46/9 174/46/10 175/46/10 173/46/9 
f 174/46/10 176/46/11 177/46/11 175/46/10 
f 176/46/11 166/46/6 169/46/6 177/46/11 
s 1
f 174/47/12 172/47/12 170/47/12 166/47/12 
f 170/47/12 167/47/12 166/47/12 
f 176/47/12 174/47/12 166/47/12 
f 168/48/4 171/48/4 173/48/4 177/48/4 
f 173/48/4 175/48/4 177/48/4 
f 169/48/4 168/48/4 177/48/4 
s 8
f 178/46/6 179/46/7 180/46/7 181/46/6 
f 179/46/7 182/46/8 183/46/8 180/46/7 
f 182/46/8 184/46/9 185/46/9 183/46/8 
f 184/46/9 186/46/10 187/46/10 185/46/9 
f 186/46/10 188/46/11 189/46/11 187/46/10 
f 188/46/11 178/46/6 181/46/6 189/46/11 
s 1
f 186/47/12 184/47/12 182/47/12 178/47/12 
f 182/47/12 179/47/12 178/47/12 
f 188/47/12 186/47/12 178/47/12 
f 180/48/4 183/48/4 185/48/4 189/48/4 
f 185/48/4 187/48/4 189/48/4 
f 181/48/4 180/48/4 189/48/4 
s 8
f 190/46/6 191/46/13 192/46/13 193/46/6 
f 191/46/13 194/46/14 195/46/14 192/46/13 
f 194/46/14 196/46/9 197/46/9 195/46/14 
f 196/46/9 198/46/15 199/46/15 197/46/9 
f 198/46/15 200/46/16 201/46/16 199/46/15 
f 200/46/16 190/46/6 193/46/6 201/46/16 
s 1
f 198/47/12 196/47/12 194/47/12 190/47/12 
f 194/47/12 191/47/12 190/47/12 
f 200/47/12 198/47/12 190/47/12 
f 192/48/4 195/48/4 197/48/4 201/48/4 
f 197/48/4 199/48/4 201/48/4 
f 193/48/4 192/48/4 201/48/4 
s 8
f 202/46/6 203/46/7 204/46/7 205/46/6 
f 203/46/7 206/46/8 207/46/8 204/46/7 
f 206/46/8 208/46/9 209/46/9 207/46/8 
f 208/46/9 210/46/10 211/46/10 209/46/9 
f 210/46/10 212/46/11 213/46/11 211/46/10 
f 212/46/11 202/46/6 205/46/6 213/46/11 
s 1
f 210/47/12 208/47/12 206/47/12 202/47/12 
f 206/47/12 203/47/12 202/47/12 
f 212/47/12 210/47/12 202/47/12 
f 204/48/4 207/48/4 209/48/4 213/48/4 
f 209/48/4 211/48/4 213/48/4 
f 205/48/4 204/48/4 213/48/4 
s 8
f 214/46/6 215/46/13 216/46/13 217/46/6 
f 215/46/13 218/46/8 219/46/8 216/46/13 
f 218/46/8 220/46/9 221/46/9 219/46/8 
f 220/46/9 222/46/15 223/46/15 221/46/9 
f 222/46/15 224/46/11 225/46/11 223/46/15 
f 224/46/11 214/46/6 217/46/6 225/46/11 
s 1
f 222/47/12 220/47/12 218/47/12 214/47/12 
f 218/47/12 215/47/12 214/47/12 
f 224/47/12 222/47/12 214/47/12 
f 216/48/4 219/48/4 221/48/4 225/48/4 
f 221/48/4 223/48/4 225/48/4 
f 217/48/4 216/48/4 225/48/4 
s 8
f 226/46/6 227/46/13 228/46/13 229/46/6 
f 227/46/13 230/46/8 231/46/8 228/46/13 
f 230/46/8 232/46/9 233/46/9 231/46/8 
f 232/46/9 234/46/15 235/46/15 233/46/9 
f 234/46/15 236/46/11 237/46/11 235/46/15 
f 236/46/11 226/46/6 229/46/6 237/46/11 
s 1
f 234/47/12 232/47/12 230/47/12 226/47/12 
f 230/47/12 227/47/12 226/47/12 
f 236/47/12 234/47/12 226/47/12 
f 228/48/4 231/48/4 233/48/4 237/48/4 
f 233/48/4 235/48/4 237/48/4 
f 229/48/4 228/48/4 237/48/4 
s 8
f 238/46/6 239/46/7 240/46/7 241/46/6 
f 239/46/7 242/46/8 243/46/8 240/46/7 
f 242/46/8 244/46/9 245/46/9 243/46/8 
f 244/46/9 246/46/10 247/46/10 245/46/9 
f 246/46/10 248/46/17 249/46/17 247/46/10 
f 248/46/17 238/46/6 241/46/6 249/46/17 
s 1
f 246/47/12 244/47/12 242/47/12 238/47/12 
f 242/47/12 239/47/12 238/47/12 
f 248/47/12 246/47/12 238/47/12 
f 240/48/4 243/48/4 245/48/4 249/48/4 
f 245/48/4 247/48/4 249/48/4 
f 241/48/4 240/48/4 249/48/4 
s 8
f 250/46/6 251/46/7 252/46/7 253/46/6 
f 251/46/7 254/46/8 255/46/8 252/46/7 
f 254/46/8 256/46/9 257/46/9 255/46/8 
f 256/46/9 258/46/10 259/46/10 257/46/9 
f 258/46/10 260/46/17 261/46/17 259/46/10 
f 260/46/17 250/46/6 253/46/6 261/46/17 
s 1
f 258/47/12 256/47/12 254/47/12 250/47/12 
f 254/47/12 251/47/12 250/47/12 
f 260/47/12 258/47/12 250/47/12 
f 252/48/4 255/48/4 257/48/4 261/48/4 
f 257/48/4 259/48/4 261/48/4 
f 253/48/4 252/48/4 261/48/4 
s 8
f 262/46/6 263/46/13 264/46/13 265/46/6 
f 263/46/13 266/46/8 267/46/8 264/46/13 
f 266/46/8 268/46/9 269/46/9 267/46/8 
f 268/46/9 270/46/15 271/46/15 269/46/9 
f 270/46/15 272/46/11 273/46/11 271/46/15 
f 272/46/11 262/46/6 265/46/6 273/46/11 
s 1
f 270/47/12 268/47/12 266/47/12 262/47/12 
f 266/47/12 263/47/12 262/47/12 
f 272/47/12 270/47/12 262/47/12 
f 264/48/4 267/48/4 269/48/4 273/48/4 
f 269/48/4 271/48/4 273/48/4 
f 265/48/4 264/48/4 273/48/4 
s 8
f 274/46/6 275/46/7 276/46/7 277/46/6 
f 275/46/7 278/46/8 279/46/8 276/46/7 
f 278/46/8 280/46/9 281/46/9 279/46/8 
f 280/46/9 282/46/10 283/46/10 281/46/9 
f 282/46/10 284/46/11 285/46/11 283/46/10 
f 284/46/11 274/46/6 277/46/6 285/46/11 
s 1
f 282/47/12 280/47/12 278/47/12 274/47/12 
f 278/47/12 275/47/12 274/47/12 
f 284/47/12 282/47/12 274/47/12 
f 276/48/4 279/48/4 281/48/4 285/48/4 
f 281/48/4 283/48/4 285/48/4 
f 277/48/4 276/48/4 285/48/4 
s 8
f 286/46/6 287/46/7 288/46/7 289/46/6 
f 287/46/7 290/46/8 291/46/8 288/46/7 
f 290/46/8 292/46/9 293/46/9 291/46/8 
f 292/46/9 294/46/10 295/46/10 293/46/9 
f 294/46/10 296/46/11 297/46/11 295/46/10 
f 296/46/11 286/46/6 289/46/6 297/46/11 
s 1
f 294/47/12 292/47/12 290/47/12 286/47/12 
f 290/47/12 287/47/12 286/47/12 
f 296/47/12 294/47/12 286/47/12 
f 288/48/4 291/48/4 293/48/4 297/48/4 
f 293/48/4 295/48/4 297/48/4 
f 289/48/4 288/48/4 297/48/4 
s 8
f 298/46/6 299/46/7 300/46/7 301/46/6 
f 299/46/7 302/46/8 303/46/8 300/46/7 
f 302/46/8 304/46/9 305/46/9 303/46/8 
f 304/46/9 306/46/10 307/46/10 305/46/9 
f 306/46/10 308/46/11 309/46/11 307/46/10 
f 308/46/11 298/46/6 301/46/6 309/46/11 
s 1
f 306/47/12 304/47/12 302/47/12 298/47/12 
f 302/47/12 299/47/12 298/47/12 
f 308/47/12 306/47/12 298/47/12 
f 300/48/4 303/48/4 305/48/4 309/48/4 
f 305/48/4 307/48/4 309/48/4 
f 301/48/4 300/48/4 309/48/4 
s 8
f 310/46/6 311/46/7 312/46/7 313/46/6 
f 311/46/7 314/46/8 315/46/8 312/46/7 
f 314/46/8 316/46/9 317/46/9 315/46/8 
f 316/46/9 318/46/10 319/46/10 317/46/9 
f 318/46/10 320/46/11 321/46/11 319/46/10 
f 320/46/11 310/46/6 313/46/6 321/46/11 
s 1
f 318/47/12 316/47/12 314/47/12 310/47/12 
f 314/47/12 311/47/12 310/47/12 
f 320/47/12 318/47/12 310/47/12 
f 312/48/4 315/48/4 317/48/4 321/48/4 
f 317/48/4 319/48/4 321/48/4 
f 313/48/4 312/48/4 321/48/4 
s 8
f 322/46/6 323/46/7 324/46/7 325/46/6 
f 323/46/7 326/46/8 327/46/8 324/46/7 
f 326/46/8 328/46/9 329/46/9 327/46/8 
f 328/46/9 330/46/10 331/46/10 329/46/9 
f 330/46/10 332/46/11 333/46/11 331/46/10 
f 332/46/11 322/46/6 325/46/6 333/46/11 
s 1
f 330/47/12 328/47/12 326/47/12 322/47/12 
f 326/47/12 323/47/12 322/47/12 
f 332/47/12 330/47/12 322/47/12 
f 324/48/4 327/48/4 329/48/4 333/48/4 
f 329/48/4 331/48/4 333/48/4 
f 325/48/4 324/48/4 333/48/4 
# 203 polygons - 97 triangles

