# 3ds Max Wavefront OBJ Exporter v0.97b - (c)2007 guruware
# File Created: 07.02.2018 14:43:17

mtllib M_ranqi2_T_ranqi_show.mtl

#
# object M_ranqi2_T_ranqi
#

v  -49.4540 -3.7248 -16.5839
v  -49.4739 -3.7248 -16.7174
v  -92.9660 -3.7248 -10.2147
v  -92.9460 -3.7248 -10.0812
v  3.8005 -3.3070 -24.6827
v  3.8204 -3.3070 -24.5491
v  5.5406 -3.3070 -24.0246
v  5.5206 -3.3070 -24.1581
v  9.3358 -3.3070 -23.6533
v  9.3158 -3.3070 -23.7868
v  19.7414 -3.3070 -25.2091
v  19.7215 -3.3070 -25.3426
v  -48.4643 -3.1620 -16.7318
v  -48.4843 -3.1620 -16.8654
v  -36.0645 -3.1620 -18.5858
v  -36.0845 -3.1620 -18.7193
v  -1.0317 -3.7248 -23.8237
v  -1.0517 -3.7248 -23.9572
v  -35.0305 -3.7248 -18.8769
v  -35.0105 -3.7248 -18.7434
v  0.1380 -3.3070 -23.9986
v  0.1180 -3.3070 -24.1321
v  86.3891 -3.7248 -35.1738
v  86.3692 -3.7248 -35.3074
v  20.4881 -3.7248 -25.4572
v  20.5080 -3.7248 -25.3237
# 26 vertices

vn -0.2506 0.9674 0.0375
vn 0.0000 1.0000 -0.0000
vn 0.2379 0.9706 -0.0356
vn -0.1671 0.9856 0.0250
vn 0.4693 0.8803 -0.0702
# 5 vertex normals

vt 0.9690 0.0514 0.0000
vt 0.9460 0.0514 0.0000
vt 0.9460 0.0163 0.0000
vt 0.9690 0.0163 0.0000
vt 0.9460 0.0944 0.7423
vt 0.9690 0.0944 0.7423
vt 0.9690 0.0957 0.7423
vt 0.9460 0.0957 0.7423
vt 0.9690 0.0986 0.7423
vt 0.9460 0.0986 0.7423
vt 0.9690 0.1070 0.7423
vt 0.9460 0.1070 0.7423
vt 0.9690 0.0522 1.0000
vt 0.9460 0.0522 1.0000
vt 0.9690 0.0622 1.0000
vt 0.9460 0.0622 1.0000
vt 0.9690 0.0905 0.0000
vt 0.9460 0.0905 0.0000
vt 0.9460 0.0631 0.0000
vt 0.9690 0.0631 0.0000
vt 0.9690 0.0914 0.7423
vt 0.9460 0.0914 0.7423
vt 0.9690 0.1607 0.0000
vt 0.9460 0.1607 0.0000
vt 0.9460 0.1076 0.0000
vt 0.9690 0.1076 0.0000
# 26 texture coords

g M_ranqi2_T_ranqi
usemtl T_ranqi
s 1
f 1/1/1 2/2/1 3/3/2 4/4/2 
s off
f 5/5/2 6/6/2 7/7/2 8/8/2 
f 8/8/2 7/7/2 9/9/2 10/10/2 
f 9/9/2 11/11/2 12/12/2 10/10/2 
s 1
f 13/13/1 14/14/1 2/2/1 1/1/1 
f 15/15/3 16/16/3 14/14/1 13/13/1 
f 17/17/4 18/18/4 19/19/3 20/20/3 
f 20/20/3 19/19/3 16/16/3 15/15/3 
f 21/21/4 22/22/4 18/18/4 17/17/4 
f 6/6/2 5/5/2 22/22/4 21/21/4 
s off
f 23/23/2 24/24/2 25/25/2 26/26/2 
f 26/26/5 25/25/5 12/12/5 11/11/5 
# 12 polygons

