# 3ds Max Wavefront OBJ Exporter v0.97b - (c)2007 guruware
# File Created: 07.02.2018 13:14:12

mtllib M_ranqi_T_ranqi.mtl

#
# object M_ranqi_T_ranqi
#

v  -0.9987 -3.7248 26.7448
v  -0.8708 -3.7248 26.7257
v  -0.8922 -3.7248 26.5826
v  -1.0201 -3.7248 26.6018
v  -0.1580 -3.2818 26.6191
v  -0.1794 -3.2818 26.4761
v  75.0621 -3.7240 15.3727
v  75.0407 -3.7240 15.2296
v  26.3443 -3.7240 22.5104
v  26.3657 -3.7240 22.6535
v  25.7439 -3.2818 22.6002
v  25.7652 -3.2818 22.7432
v  60.4727 -2.9651 17.5574
v  60.4503 -2.9651 17.4078
v  60.4503 -3.7240 17.4078
v  60.4727 -3.7240 17.5574
v  60.5021 -2.9650 17.0992
v  60.3376 -2.9650 17.1238
v  60.4884 -2.9650 18.1323
v  60.6529 -2.9650 18.1077
v  -3.8413 -2.9851 25.6868
v  -4.1027 -2.9851 25.7259
v  -3.2316 -2.9851 31.5523
v  -2.9701 -2.9851 31.5132
v  -50.8177 -2.9851 31.8437
v  -51.0593 -2.9851 31.8798
v  -49.8058 -2.9851 40.2635
v  -49.5642 -2.9851 40.2274
v  -50.1822 -2.9851 36.9546
v  -50.1484 -2.9851 37.1808
v  -50.1484 -3.7248 37.1808
v  -50.1822 -3.7248 36.9546
v  -3.3302 -2.9851 30.0463
v  -3.3302 -3.7924 30.0463
v  -3.3725 -3.7924 29.7632
v  -3.3725 -2.9851 29.7632
v  -83.9844 -3.7248 42.2192
v  -46.9193 -3.7248 36.6775
v  -46.9461 -3.7248 36.4975
v  -84.0113 -3.7248 42.0393
v  -46.3986 -3.2823 36.5996
v  -46.4255 -3.2823 36.4197
v  -0.5082 -3.7248 29.7384
v  -0.5351 -3.7248 29.5584
v  -21.8818 -3.7248 32.7500
v  -21.8548 -3.7248 32.9300
v  -0.0698 -3.2818 29.6728
v  -0.0967 -3.2818 29.4929
v  74.3996 -3.7561 18.5386
v  74.3727 -3.7561 18.3586
v  26.6892 -3.7240 25.4880
v  26.7161 -3.7240 25.6679
v  26.3346 -3.2818 25.7250
v  26.3077 -3.2818 25.5450
v  -22.6344 -3.2823 32.8626
v  -22.6075 -3.2823 33.0425
# 56 vertices

vn 0.0000 1.0000 0.0000
vn -0.2691 0.9623 0.0402
vn 0.0000 1.0000 -0.0000
vn 0.3062 0.9509 -0.0458
vn -0.9890 0.0000 0.1479
vn -0.0000 1.0000 0.0000
vn 0.9890 0.0000 -0.1479
vn 0.9890 -0.0000 -0.1479
vn -0.3386 0.9396 0.0506
vn -0.3387 0.9395 0.0506
vn -0.3783 0.9239 0.0566
vn 0.2574 0.9655 -0.0385
vn 0.0007 1.0000 -0.0001
vn 0.4096 0.9102 -0.0612
vn 0.4093 0.9103 -0.0612
# 15 vertex normals

vt 0.4345 0.9243 0.5000
vt 0.4345 0.9244 0.5000
vt 0.4016 0.9244 0.5000
vt 0.4016 0.9243 0.5000
vt 0.4345 0.9248 0.5000
vt 0.4016 0.9248 0.5000
vt 0.4345 0.9760 0.5000
vt 0.4016 0.9760 0.5000
vt 0.4016 0.9429 0.5000
vt 0.4345 0.9429 0.5000
vt 0.4016 0.9424 0.5000
vt 0.4345 0.9424 0.5000
vt 0.4356 0.9832 0.5000
vt 0.4007 0.9832 0.5000
vt 0.4007 0.8500 0.5000
vt 0.4356 0.8500 0.5000
vt 0.4350 0.9905 0.5000
vt 0.4005 0.9905 0.5000
vt 0.4005 0.8613 0.5000
vt 0.4350 0.8613 0.5000
vt 0.9749 0.8300 0.5000
vt 0.9394 0.8300 0.5000
vt 0.9394 0.0110 0.5000
vt 0.9749 0.0110 0.5000
vt 0.8914 0.8224 0.5000
vt 0.8685 0.8224 0.5000
vt 0.8685 0.0097 0.5000
vt 0.8914 0.0097 0.5000
vt 0.9769 0.1472 0.5000
vt 0.9381 0.1472 0.5000
vt 0.9381 0.0330 0.5000
vt 0.9769 0.0330 0.5000
vt 0.3883 1.0000 0.7500
vt 0.3883 0.0000 0.0000
vt 0.0000 0.0000 0.5000
vt 0.0000 1.0000 1.0000
vt 0.9982 0.8676 0.5000
vt 0.9982 0.8928 0.5000
vt 0.9672 0.8928 0.5000
vt 0.9672 0.8676 0.5000
vt 0.9982 0.8932 0.5000
vt 0.9672 0.8932 0.5000
vt 0.9982 0.9244 0.5000
vt 0.9672 0.9244 0.5000
vt 0.9672 0.9098 0.5000
vt 0.9982 0.9098 0.5000
vt 0.9982 0.9249 0.5000
vt 0.9672 0.9249 0.5000
vt 0.9982 0.9753 0.5000
vt 0.9672 0.9753 0.5000
vt 0.9672 0.9429 0.5000
vt 0.9982 0.9429 0.5000
vt 0.9982 0.9425 0.5000
vt 0.9672 0.9425 0.5000
vt 0.9672 0.9094 0.5000
vt 0.9982 0.9094 0.5000
# 56 texture coords

g M_ranqi_T_ranqi
usemtl Material__3
s 1
f 1/1/1 2/2/2 3/3/2 4/4/1 
f 5/5/2 6/6/2 3/3/2 2/2/2 
f 7/7/1 8/8/3 9/9/4 10/10/4 
f 10/10/4 9/9/4 11/11/4 12/12/4 
f 12/12/4 11/11/4 6/6/2 5/5/2 
f 13/13/5 14/14/5 15/15/5 16/16/5 
f 17/17/6 18/18/6 19/19/6 20/20/6 
f 21/21/3 22/22/3 23/23/3 24/24/3 
f 25/25/6 26/26/6 27/27/6 28/28/1 
f 29/29/7 30/30/7 31/31/7 32/32/7 
f 33/33/8 34/34/8 35/35/8 36/36/8 
f 37/37/3 38/38/9 39/39/10 40/40/3 
f 41/41/10 42/42/10 39/39/10 38/38/9 
f 43/43/11 44/44/11 45/45/12 46/46/12 
f 47/47/11 48/48/11 44/44/11 43/43/11 
f 49/49/13 50/50/13 51/51/14 52/52/14 
f 53/53/15 54/54/15 48/48/11 47/47/11 
f 52/52/14 51/51/14 54/54/15 53/53/15 
f 46/46/12 45/45/12 55/55/12 56/56/12 
f 56/56/12 55/55/12 42/42/10 41/41/10 
# 20 polygons

