# 3ds Max Wavefront OBJ Exporter v0.97b - (c)2007 guruware
# File Created: 07.02.2018 14:45:29

mtllib M_ranqizhichengzhu2_T_shiti_show.mtl

#
# object M_ranqizhichengzhu2_T_shiti
#

v  38.6553 -3.7892 -28.0534
v  38.6375 -3.7892 -28.1727
v  38.6375 -4.0706 -28.1727
v  38.6553 -4.0706 -28.0534
v  42.2338 -3.7892 -28.5885
v  42.2160 -3.7892 -28.7078
v  42.2160 -4.0706 -28.7078
v  42.2338 -4.0706 -28.5885
v  45.8123 -3.7892 -29.1235
v  45.7945 -3.7892 -29.2428
v  45.7945 -4.0706 -29.2428
v  45.8123 -4.0706 -29.1235
v  49.3908 -3.7892 -29.6585
v  49.3730 -3.7892 -29.7778
v  49.3730 -4.0706 -29.7778
v  49.3908 -4.0706 -29.6585
v  52.9693 -3.7892 -30.1936
v  52.9515 -3.7892 -30.3129
v  52.9515 -4.0706 -30.3129
v  52.9693 -4.0706 -30.1936
v  56.5478 -3.7892 -30.7286
v  56.5299 -3.7892 -30.8479
v  56.5299 -4.0706 -30.8479
v  56.5478 -4.0706 -30.7286
v  60.1263 -3.7892 -31.2636
v  60.1084 -3.7892 -31.3829
v  60.1084 -4.0706 -31.3829
v  60.1263 -4.0706 -31.2636
v  63.7047 -3.7892 -31.7987
v  63.6869 -3.7892 -31.9179
v  63.6869 -4.0706 -31.9179
v  63.7047 -4.0706 -31.7987
v  67.2832 -3.7892 -32.3337
v  67.2654 -3.7892 -32.4530
v  67.2654 -4.0706 -32.4530
v  67.2832 -4.0706 -32.3337
v  70.8617 -3.7892 -32.8687
v  70.8439 -3.7892 -32.9880
v  70.8439 -4.0706 -32.9880
v  70.8617 -4.0706 -32.8687
v  70.4189 -3.7892 -35.8304
v  70.4011 -3.7892 -35.9497
v  70.4011 -4.0706 -35.9497
v  70.4189 -4.0706 -35.8304
v  38.2125 -3.7892 -31.0151
v  38.1947 -3.7892 -31.1344
v  38.1947 -4.0706 -31.1344
v  38.2125 -4.0706 -31.0151
v  41.7910 -3.7892 -31.5501
v  41.7732 -3.7892 -31.6694
v  41.7732 -4.0706 -31.6694
v  41.7910 -4.0706 -31.5501
v  45.3695 -3.7892 -32.0852
v  45.3517 -3.7892 -32.2045
v  45.3517 -4.0706 -32.2045
v  45.3695 -4.0706 -32.0852
v  48.9480 -3.7892 -32.6202
v  48.9302 -3.7892 -32.7395
v  48.9302 -4.0706 -32.7395
v  48.9480 -4.0706 -32.6202
v  52.5265 -3.7892 -33.1552
v  52.5086 -3.7892 -33.2745
v  52.5086 -4.0706 -33.2745
v  52.5265 -4.0706 -33.1552
v  56.1050 -3.7892 -33.6903
v  56.0871 -3.7892 -33.8096
v  56.0871 -4.0706 -33.8096
v  56.1050 -4.0706 -33.6903
v  59.6834 -3.7892 -34.2253
v  59.6656 -3.7892 -34.3446
v  59.6656 -4.0706 -34.3446
v  59.6834 -4.0706 -34.2253
v  63.2619 -3.7892 -34.7603
v  63.2441 -3.7892 -34.8796
v  63.2441 -4.0706 -34.8796
v  63.2619 -4.0706 -34.7603
v  66.8404 -3.7892 -35.2954
v  66.8226 -3.7892 -35.4147
v  66.8226 -4.0706 -35.4147
v  66.8404 -4.0706 -35.2954
v  81.1543 -3.7892 -37.4355
v  81.1365 -3.7892 -37.5548
v  81.1365 -4.0706 -37.5548
v  81.1543 -4.0706 -37.4355
v  73.9973 -3.7892 -36.3654
v  73.9795 -3.7892 -36.4847
v  73.9795 -4.0706 -36.4847
v  73.9973 -4.0706 -36.3654
v  77.5758 -3.7892 -36.9005
v  77.5580 -3.7892 -37.0198
v  77.5580 -4.0706 -37.0198
v  77.5758 -4.0706 -36.9005
v  74.4401 -3.7892 -33.4038
v  74.4223 -3.7892 -33.5230
v  74.4223 -4.0706 -33.5230
v  74.4401 -4.0706 -33.4038
v  78.0186 -3.7892 -33.9388
v  78.0008 -3.7892 -34.0581
v  78.0008 -4.0706 -34.0581
v  78.0186 -4.0706 -33.9388
v  81.5971 -3.7892 -34.4738
v  81.5793 -3.7892 -34.5931
v  81.5793 -4.0706 -34.5931
v  81.5971 -4.0706 -34.4738
v  85.9255 -3.7892 -38.1489
v  85.9077 -3.7892 -38.2682
v  85.9077 -4.0706 -38.2682
v  85.9255 -4.0706 -38.1489
v  86.3684 -3.7892 -35.1872
v  86.3505 -3.7892 -35.3065
v  86.3505 -4.0706 -35.3065
v  86.3684 -4.0706 -35.1872
v  13.6060 -3.3670 -24.3082
v  13.5881 -3.3670 -24.4275
v  13.5881 -3.6484 -24.4275
v  13.6060 -3.6484 -24.3082
v  17.1845 -3.3670 -24.8432
v  17.1666 -3.3670 -24.9625
v  17.1666 -3.6484 -24.9625
v  17.1845 -3.6484 -24.8432
v  20.7630 -3.7892 -25.3783
v  20.7452 -3.7892 -25.4976
v  20.7452 -4.0706 -25.4976
v  20.7630 -4.0706 -25.3783
v  24.3415 -3.7892 -25.9133
v  24.3236 -3.7892 -26.0326
v  24.3236 -4.0706 -26.0326
v  24.3415 -4.0706 -25.9133
v  27.9200 -3.7892 -26.4483
v  27.9021 -3.7892 -26.5676
v  27.9021 -4.0706 -26.5676
v  27.9200 -4.0706 -26.4483
v  31.4985 -3.7892 -26.9834
v  31.4806 -3.7892 -27.1027
v  31.4806 -4.0706 -27.1027
v  31.4985 -4.0706 -26.9834
v  31.0557 -3.7892 -29.9451
v  31.0378 -3.7892 -30.0643
v  31.0378 -4.0706 -30.0643
v  31.0557 -4.0706 -29.9451
v  13.1632 -3.3670 -27.2699
v  13.1453 -3.3670 -27.3891
v  13.1453 -3.6484 -27.3891
v  13.1632 -3.6484 -27.2699
v  16.7417 -3.3670 -27.8049
v  16.7238 -3.3670 -27.9242
v  16.7238 -3.6484 -27.9242
v  16.7417 -3.6484 -27.8049
v  20.3202 -3.7892 -28.3400
v  20.3023 -3.7892 -28.4592
v  20.3023 -4.0706 -28.4592
v  20.3202 -4.0706 -28.3400
v  23.8987 -3.7892 -28.8750
v  23.8808 -3.7892 -28.9943
v  23.8808 -4.0706 -28.9943
v  23.8987 -4.0706 -28.8750
v  27.4771 -3.7892 -29.4100
v  27.4593 -3.7892 -29.5293
v  27.4593 -4.0706 -29.5293
v  27.4771 -4.0706 -29.4100
v  34.6340 -3.7892 -30.4801
v  34.6162 -3.7892 -30.5994
v  34.6162 -4.0706 -30.5994
v  34.6340 -4.0706 -30.4801
v  35.0769 -3.7892 -27.5184
v  35.0590 -3.7892 -27.6377
v  35.0590 -4.0706 -27.6377
v  35.0769 -4.0706 -27.5184
v  -46.9916 -3.2263 -16.9617
v  -47.0095 -3.2263 -17.0810
v  -47.0095 -3.5077 -17.0810
v  -46.9916 -3.5077 -16.9617
v  -43.4131 -3.2263 -17.4968
v  -43.4310 -3.2263 -17.6161
v  -43.4310 -3.5077 -17.6161
v  -43.4131 -3.5077 -17.4968
v  -39.8346 -3.2263 -18.0318
v  -39.8525 -3.2263 -18.1511
v  -39.8525 -3.5077 -18.1511
v  -39.8346 -3.5077 -18.0318
v  -36.2561 -3.2263 -18.5668
v  -36.2740 -3.2263 -18.6861
v  -36.2740 -3.5077 -18.6861
v  -36.2561 -3.5077 -18.5668
v  -31.0609 -3.7892 -19.3436
v  -31.0788 -3.7892 -19.4629
v  -31.0788 -4.0706 -19.4629
v  -31.0609 -4.0706 -19.3436
v  -27.4824 -3.7892 -19.8786
v  -27.5003 -3.7892 -19.9979
v  -27.5003 -4.0706 -19.9979
v  -27.4824 -4.0706 -19.8786
v  -23.9039 -3.7892 -20.4137
v  -23.9218 -3.7892 -20.5329
v  -23.9218 -4.0706 -20.5329
v  -23.9039 -4.0706 -20.4137
v  -20.3255 -3.7892 -20.9487
v  -20.3433 -3.7892 -21.0680
v  -20.3433 -4.0706 -21.0680
v  -20.3255 -4.0706 -20.9487
v  -16.7470 -3.7892 -21.4837
v  -16.7648 -3.7892 -21.6030
v  -16.7648 -4.0706 -21.6030
v  -16.7470 -4.0706 -21.4837
v  -17.1898 -3.7892 -24.4454
v  -17.2076 -3.7892 -24.5647
v  -17.2076 -4.0706 -24.5647
v  -17.1898 -4.0706 -24.4454
v  -47.4344 -3.2263 -19.9234
v  -47.4523 -3.2263 -20.0427
v  -47.4523 -3.5077 -20.0427
v  -47.4344 -3.5077 -19.9234
v  -43.8560 -3.2263 -20.4585
v  -43.8738 -3.2263 -20.5777
v  -43.8738 -3.5077 -20.5777
v  -43.8560 -3.5077 -20.4585
v  -40.2774 -3.2263 -20.9935
v  -40.2953 -3.2263 -21.1128
v  -40.2953 -3.5077 -21.1128
v  -40.2774 -3.5077 -20.9935
v  -36.6990 -3.2263 -21.5285
v  -36.7168 -3.2263 -21.6478
v  -36.7168 -3.5077 -21.6478
v  -36.6990 -3.5077 -21.5285
v  -31.5037 -3.7892 -22.3053
v  -31.5216 -3.7892 -22.4245
v  -31.5216 -4.0706 -22.4245
v  -31.5037 -4.0706 -22.3053
v  -27.9253 -3.7892 -22.8403
v  -27.9431 -3.7892 -22.9596
v  -27.9431 -4.0706 -22.9596
v  -27.9253 -4.0706 -22.8403
v  -24.3468 -3.7892 -23.3753
v  -24.3646 -3.7892 -23.4946
v  -24.3646 -4.0706 -23.4946
v  -24.3468 -4.0706 -23.3753
v  -20.7683 -3.7892 -23.9104
v  -20.7861 -3.7892 -24.0297
v  -20.7861 -4.0706 -24.0297
v  -20.7683 -4.0706 -23.9104
v  -6.4544 -3.7892 -26.0505
v  -6.4722 -3.7892 -26.1698
v  -6.4722 -4.0706 -26.1698
v  -6.4544 -4.0706 -26.0505
v  -13.6114 -3.7892 -24.9804
v  -13.6292 -3.7892 -25.0997
v  -13.6292 -4.0706 -25.0997
v  -13.6114 -4.0706 -24.9804
v  -10.0329 -3.7892 -25.5155
v  -10.0507 -3.7892 -25.6347
v  -10.0507 -4.0706 -25.6347
v  -10.0329 -4.0706 -25.5155
v  -13.1686 -3.7892 -22.0187
v  -13.1864 -3.7892 -22.1380
v  -13.1864 -4.0706 -22.1380
v  -13.1686 -4.0706 -22.0187
v  -9.5901 -3.7892 -22.5538
v  -9.6079 -3.7892 -22.6731
v  -9.6079 -4.0706 -22.6731
v  -9.5901 -4.0706 -22.5538
v  -6.0116 -3.7892 -23.0888
v  -6.0294 -3.7892 -23.2081
v  -6.0294 -4.0706 -23.2081
v  -6.0116 -4.0706 -23.0888
v  -1.6831 -3.7892 -26.7639
v  -1.7010 -3.7892 -26.8831
v  -1.7010 -4.0706 -26.8831
v  -1.6831 -4.0706 -26.7639
v  -1.2403 -3.7892 -23.8022
v  -1.2581 -3.7892 -23.9215
v  -1.2581 -4.0706 -23.9215
v  -1.2403 -4.0706 -23.8022
v  -65.1412 -3.7892 -14.2481
v  -65.1591 -3.7892 -14.3674
v  -65.1591 -4.0706 -14.3674
v  -65.1412 -4.0706 -14.2481
v  -61.5627 -3.7892 -14.7831
v  -61.5806 -3.7892 -14.9024
v  -61.5806 -4.0706 -14.9024
v  -61.5627 -4.0706 -14.7831
v  -57.9843 -3.7892 -15.3182
v  -58.0021 -3.7892 -15.4374
v  -58.0021 -4.0706 -15.4374
v  -57.9843 -4.0706 -15.3182
v  -54.4057 -3.7892 -15.8532
v  -54.4236 -3.7892 -15.9725
v  -54.4236 -4.0706 -15.9725
v  -54.4057 -4.0706 -15.8532
v  -54.8485 -3.7892 -18.8149
v  -54.8664 -3.7892 -18.9342
v  -54.8664 -4.0706 -18.9342
v  -54.8485 -4.0706 -18.8149
v  -65.5840 -3.7892 -17.2098
v  -65.6019 -3.7892 -17.3291
v  -65.6019 -4.0706 -17.3291
v  -65.5840 -4.0706 -17.2098
v  -62.0055 -3.7892 -17.7448
v  -62.0234 -3.7892 -17.8641
v  -62.0234 -4.0706 -17.8641
v  -62.0055 -4.0706 -17.7448
v  -58.4271 -3.7892 -18.2798
v  -58.4449 -3.7892 -18.3991
v  -58.4449 -4.0706 -18.3991
v  -58.4271 -4.0706 -18.2798
v  -51.2701 -3.7892 -19.3499
v  -51.2880 -3.7892 -19.4692
v  -51.2880 -4.0706 -19.4692
v  -51.2701 -4.0706 -19.3499
v  -50.8273 -3.7892 -16.3882
v  -50.8452 -3.7892 -16.5075
v  -50.8452 -4.0706 -16.5075
v  -50.8273 -4.0706 -16.3882
v  -83.0336 -3.7892 -11.5729
v  -83.0515 -3.7892 -11.6922
v  -83.0515 -4.0706 -11.6922
v  -83.0336 -4.0706 -11.5729
v  -79.4551 -3.7892 -12.1080
v  -79.4730 -3.7892 -12.2273
v  -79.4730 -4.0706 -12.2273
v  -79.4551 -4.0706 -12.1080
v  -75.8767 -3.7892 -12.6430
v  -75.8945 -3.7892 -12.7623
v  -75.8945 -4.0706 -12.7623
v  -75.8767 -4.0706 -12.6430
v  -72.2981 -3.7892 -13.1780
v  -72.3160 -3.7892 -13.2973
v  -72.3160 -4.0706 -13.2973
v  -72.2981 -4.0706 -13.1780
v  -72.7410 -3.7892 -16.1397
v  -72.7588 -3.7892 -16.2590
v  -72.7588 -4.0706 -16.2590
v  -72.7410 -4.0706 -16.1397
v  -83.4765 -3.7892 -14.5346
v  -83.4943 -3.7892 -14.6539
v  -83.4943 -4.0706 -14.6539
v  -83.4765 -4.0706 -14.5346
v  -79.8979 -3.7892 -15.0697
v  -79.9158 -3.7892 -15.1889
v  -79.9158 -4.0706 -15.1889
v  -79.8979 -4.0706 -15.0697
v  -76.3195 -3.7892 -15.6047
v  -76.3373 -3.7892 -15.7240
v  -76.3373 -4.0706 -15.7240
v  -76.3195 -4.0706 -15.6047
v  -69.1626 -3.7892 -16.6747
v  -69.1804 -3.7892 -16.7940
v  -69.1804 -4.0706 -16.7940
v  -69.1626 -4.0706 -16.6747
v  -68.7197 -3.7892 -13.7131
v  -68.7376 -3.7892 -13.8323
v  -68.7376 -4.0706 -13.8323
v  -68.7197 -4.0706 -13.7131
v  -92.5763 -3.7892 -10.1462
v  -92.5941 -3.7892 -10.2655
v  -92.5941 -4.0706 -10.2655
v  -92.5763 -4.0706 -10.1462
v  -90.1905 -3.7892 -10.5029
v  -90.2084 -3.7892 -10.6222
v  -90.2084 -4.0706 -10.6222
v  -90.1905 -4.0706 -10.5029
v  -90.6333 -3.7892 -13.4646
v  -90.6512 -3.7892 -13.5838
v  -90.6512 -4.0706 -13.5838
v  -90.6333 -4.0706 -13.4646
v  -93.0191 -3.7892 -13.1079
v  -93.0369 -3.7892 -13.2271
v  -93.0369 -4.0706 -13.2271
v  -93.0191 -4.0706 -13.1079
v  -87.0549 -3.7892 -13.9996
v  -87.0728 -3.7892 -14.1189
v  -87.0728 -4.0706 -14.1189
v  -87.0549 -4.0706 -13.9996
v  -86.6121 -3.7892 -11.0379
v  -86.6300 -3.7892 -11.1572
v  -86.6300 -4.0706 -11.1572
v  -86.6121 -4.0706 -11.0379
v  2.5012 -3.6484 -27.5114
v  2.5012 -3.3670 -27.5114
v  2.6006 -3.3670 -27.5263
v  2.6006 -3.6484 -27.5263
v  5.8677 -3.3670 -27.1848
v  5.8320 -3.3670 -27.0697
v  5.8320 -3.6484 -27.0697
v  5.8677 -3.6484 -27.1848
v  3.0434 -3.3670 -24.5646
v  3.0612 -3.3670 -24.4453
v  3.0612 -3.6484 -24.4453
v  3.0434 -3.6484 -24.5646
v  6.5901 -3.3670 -24.0466
v  6.5785 -3.3670 -23.9266
v  6.5785 -3.6484 -23.9266
v  6.5901 -3.6484 -24.0466
v  9.4853 -3.3670 -26.7200
v  9.4675 -3.3670 -26.8392
v  9.4675 -3.6484 -26.8392
v  9.4853 -3.6484 -26.7200
v  9.9296 -3.3670 -23.7481
v  9.9118 -3.3670 -23.8673
v  9.9118 -3.6484 -23.8673
v  9.9296 -3.6484 -23.7481
# 400 vertices

vn -0.9890 0.0000 0.1479
vn -0.1479 0.0000 -0.9890
vn 0.9550 0.0000 0.2966
vn 0.9890 0.0000 -0.1479
vn 0.9954 0.0000 0.0958
# 5 vertex normals

vt 0.4689 0.2947 0.5002
vt 0.4689 0.2947 0.5003
vt 0.4689 0.2947 0.5004
vt 0.4689 0.2947 0.5005
vt 0.4689 0.2947 1.0000
vt 0.4689 0.2947 0.4832
vt 0.4689 0.2947 0.4755
vt 0.4689 0.2947 0.0148
vt 0.4689 0.2947 0.5201
vt 0.4689 0.2947 0.5158
# 10 texture coords

g M_ranqizhichengzhu2_T_shiti
usemtl T_shiti
s off
f 1/1/1 2/1/1 3/1/1 4/1/1 
f 5/1/1 6/1/1 7/1/1 8/1/1 
f 9/2/1 10/2/1 11/2/1 12/2/1 
f 13/2/1 14/2/1 15/2/1 16/2/1 
f 17/2/1 18/2/1 19/2/1 20/2/1 
f 21/2/1 22/2/1 23/2/1 24/2/1 
f 25/3/1 26/3/1 27/3/1 28/3/1 
f 29/3/1 30/3/1 31/3/1 32/3/1 
f 33/3/1 34/3/1 35/3/1 36/3/1 
f 37/3/1 38/3/1 39/3/1 40/3/1 
f 41/3/1 42/3/1 43/3/1 44/3/1 
f 45/1/1 46/1/1 47/1/1 48/1/1 
f 49/1/1 50/1/1 51/1/1 52/1/1 
f 53/2/1 54/2/1 55/2/1 56/2/1 
f 57/2/1 58/2/1 59/2/1 60/2/1 
f 61/2/1 62/2/1 63/2/1 64/2/1 
f 65/2/1 66/2/1 67/2/1 68/2/1 
f 69/3/1 70/3/1 71/3/1 72/3/1 
f 73/3/1 74/3/1 75/3/1 76/3/1 
f 77/3/1 78/3/1 79/3/1 80/3/1 
f 81/4/1 82/4/1 83/4/1 84/4/1 
f 85/3/1 86/3/1 87/3/1 88/3/1 
f 89/4/1 90/4/1 91/4/1 92/4/1 
f 93/3/1 94/3/1 95/3/1 96/3/1 
f 97/4/1 98/4/1 99/4/1 100/4/1 
f 101/4/1 102/4/1 103/4/1 104/4/1 
f 105/4/1 106/4/1 107/4/1 108/4/1 
f 109/4/1 110/4/1 111/4/1 112/4/1 
f 113/2/1 114/2/1 115/2/1 116/2/1 
f 117/2/1 118/2/1 119/2/1 120/2/1 
f 121/3/1 122/3/1 123/3/1 124/3/1 
f 125/3/1 126/3/1 127/3/1 128/3/1 
f 129/3/1 130/3/1 131/3/1 132/3/1 
f 133/3/1 134/3/1 135/3/1 136/3/1 
f 137/3/1 138/3/1 139/3/1 140/3/1 
f 141/2/1 142/2/1 143/2/1 144/2/1 
f 145/2/1 146/2/1 147/2/1 148/2/1 
f 149/3/1 150/3/1 151/3/1 152/3/1 
f 153/3/1 154/3/1 155/3/1 156/3/1 
f 157/3/1 158/3/1 159/3/1 160/3/1 
f 161/3/1 162/3/1 163/3/1 164/3/1 
f 165/3/1 166/3/1 167/3/1 168/3/1 
f 169/1/1 170/1/1 171/1/1 172/1/1 
f 173/1/1 174/1/1 175/1/1 176/1/1 
f 177/2/1 178/2/1 179/2/1 180/2/1 
f 181/2/1 182/2/1 183/2/1 184/2/1 
f 185/2/1 186/2/1 187/2/1 188/2/1 
f 189/3/1 190/3/1 191/3/1 192/3/1 
f 193/3/1 194/3/1 195/3/1 196/3/1 
f 197/3/1 198/3/1 199/3/1 200/3/1 
f 201/3/1 202/3/1 203/3/1 204/3/1 
f 205/3/1 206/3/1 207/3/1 208/3/1 
f 209/1/1 210/1/1 211/1/1 212/1/1 
f 213/1/1 214/1/1 215/1/1 216/1/1 
f 217/2/1 218/2/1 219/2/1 220/2/1 
f 221/2/1 222/2/1 223/2/1 224/2/1 
f 225/2/1 226/2/1 227/2/1 228/2/1 
f 229/3/1 230/3/1 231/3/1 232/3/1 
f 233/3/1 234/3/1 235/3/1 236/3/1 
f 237/3/1 238/3/1 239/3/1 240/3/1 
f 241/4/1 242/4/1 243/4/1 244/4/1 
f 245/3/1 246/3/1 247/3/1 248/3/1 
f 249/4/1 250/4/1 251/4/1 252/4/1 
f 253/3/1 254/3/1 255/3/1 256/3/1 
f 257/4/1 258/4/1 259/4/1 260/4/1 
f 261/4/1 262/4/1 263/4/1 264/4/1 
f 265/4/1 266/4/1 267/4/1 268/4/1 
f 269/4/1 270/4/1 271/4/1 272/4/1 
f 273/3/1 274/3/1 275/3/1 276/3/1 
f 277/3/1 278/3/1 279/3/1 280/3/1 
f 281/3/1 282/3/1 283/3/1 284/3/1 
f 285/3/1 286/3/1 287/3/1 288/3/1 
f 289/3/1 290/3/1 291/3/1 292/3/1 
f 293/3/1 294/3/1 295/3/1 296/3/1 
f 297/3/1 298/3/1 299/3/1 300/3/1 
f 301/3/1 302/3/1 303/3/1 304/3/1 
f 305/3/1 306/3/1 307/3/1 308/3/1 
f 309/3/1 310/3/1 311/3/1 312/3/1 
f 313/3/1 314/3/1 315/3/1 316/3/1 
f 317/3/1 318/3/1 319/3/1 320/3/1 
f 321/3/1 322/3/1 323/3/1 324/3/1 
f 325/3/1 326/3/1 327/3/1 328/3/1 
f 329/3/1 330/3/1 331/3/1 332/3/1 
f 333/3/1 334/3/1 335/3/1 336/3/1 
f 337/3/1 338/3/1 339/3/1 340/3/1 
f 341/3/1 342/3/1 343/3/1 344/3/1 
f 345/3/1 346/3/1 347/3/1 348/3/1 
f 349/3/1 350/3/1 351/3/1 352/3/1 
f 353/3/1 354/3/1 355/3/1 356/3/1 
f 357/3/1 358/3/1 359/3/1 360/3/1 
f 361/3/1 362/3/1 363/3/1 364/3/1 
f 365/3/1 366/3/1 367/3/1 368/3/1 
f 369/3/1 370/3/1 371/3/1 372/3/1 
f 373/3/1 374/3/1 375/3/1 376/3/1 
f 377/5/2 378/5/2 379/5/2 380/5/2 
f 381/6/3 382/7/3 383/7/3 384/6/3 
f 385/8/4 386/8/4 387/8/4 388/8/4 
f 389/9/5 390/10/5 391/10/5 392/9/5 
f 393/5/1 394/5/1 395/5/1 396/5/1 
f 397/5/1 398/5/1 399/5/1 400/5/1 
# 100 polygons

