# 3ds Max Wavefront OBJ Exporter v0.97b - (c)2007 guruware
# File Created: 07.02.2018 13:17:59

mtllib M_ranqizhichengzhu_T_shiti.mtl

#
# object M_ranqizhichengzhu_T_shiti
#

v  -84.1324 -3.7891 39.1623
v  -84.1502 -3.7891 39.0430
v  -84.1502 -4.0706 39.0430
v  -84.1324 -4.0706 39.1623
v  -83.6896 -3.7891 42.1239
v  -83.7074 -3.7891 42.0047
v  -83.7074 -4.0706 42.0047
v  -83.6896 -4.0706 42.1239
v  -80.1111 -3.7891 41.5889
v  -80.1289 -3.7891 41.4696
v  -80.1289 -4.0706 41.4696
v  -80.1111 -4.0706 41.5889
v  -76.5326 -3.7891 41.0539
v  -76.5504 -3.7891 40.9346
v  -76.5504 -4.0706 40.9346
v  -76.5326 -4.0706 41.0539
v  -72.9541 -3.7891 40.5188
v  -72.9719 -3.7891 40.3996
v  -72.9719 -4.0706 40.3996
v  -72.9541 -4.0706 40.5188
v  -69.3756 -3.7891 39.9838
v  -69.3934 -3.7891 39.8645
v  -69.3934 -4.0706 39.8645
v  -69.3756 -4.0706 39.9838
v  -65.7971 -3.7891 39.4488
v  -65.8149 -3.7891 39.3295
v  -65.8149 -4.0706 39.3295
v  -65.7971 -4.0706 39.4488
v  -62.2186 -3.7891 38.9137
v  -62.2365 -3.7891 38.7944
v  -62.2365 -4.0706 38.7944
v  -62.2186 -4.0706 38.9137
v  -58.6401 -3.7891 38.3787
v  -58.6580 -3.7891 38.2594
v  -58.6580 -4.0706 38.2594
v  -58.6401 -4.0706 38.3787
v  -55.0617 -3.7891 37.8437
v  -55.0795 -3.7891 37.7244
v  -55.0795 -4.0706 37.7244
v  -55.0617 -4.0706 37.8437
v  -51.4832 -3.7891 37.3086
v  -51.5010 -3.7891 37.1894
v  -51.5010 -4.0706 37.1894
v  -51.4832 -4.0706 37.3086
v  -47.9047 -3.7891 36.7736
v  -47.9225 -3.7891 36.6543
v  -47.9225 -4.0706 36.6543
v  -47.9047 -4.0706 36.7736
v  -80.5539 -3.7891 38.6272
v  -80.5717 -3.7891 38.5079
v  -80.5717 -4.0706 38.5079
v  -80.5539 -4.0706 38.6272
v  -76.9754 -3.7891 38.0922
v  -76.9932 -3.7891 37.9729
v  -76.9932 -4.0706 37.9729
v  -76.9754 -4.0706 38.0922
v  -73.3969 -3.7891 37.5572
v  -73.4147 -3.7891 37.4379
v  -73.4147 -4.0706 37.4379
v  -73.3969 -4.0706 37.5572
v  -69.8184 -3.7891 37.0221
v  -69.8363 -3.7891 36.9028
v  -69.8363 -4.0706 36.9028
v  -69.8184 -4.0706 37.0221
v  -66.2399 -3.7891 36.4871
v  -66.2578 -3.7891 36.3678
v  -66.2578 -4.0706 36.3678
v  -66.2399 -4.0706 36.4871
v  -62.6615 -3.7891 35.9521
v  -62.6793 -3.7891 35.8328
v  -62.6793 -4.0706 35.8328
v  -62.6615 -4.0706 35.9521
v  -59.0830 -3.7891 35.4170
v  -59.1008 -3.7891 35.2977
v  -59.1008 -4.0706 35.2977
v  -59.0830 -4.0706 35.4170
v  -55.5045 -3.7891 34.8820
v  -55.5223 -3.7891 34.7627
v  -55.5223 -4.0706 34.7627
v  -55.5045 -4.0706 34.8820
v  -51.9260 -3.7891 34.3470
v  -51.9438 -3.7891 34.2277
v  -51.9438 -4.0706 34.2277
v  -51.9260 -4.0706 34.3470
v  -48.3475 -3.7891 33.8119
v  -48.3653 -3.7891 33.6926
v  -48.3653 -4.0706 33.6926
v  -48.3475 -4.0706 33.8119
v  -46.3595 -3.3469 33.5147
v  -46.3774 -3.3469 33.3954
v  -46.3774 -3.6283 33.3954
v  -46.3595 -3.6283 33.5147
v  -42.7811 -3.3469 32.9797
v  -42.7989 -3.3469 32.8604
v  -42.7989 -3.6283 32.8604
v  -42.7811 -3.6283 32.9797
v  -39.2026 -3.3469 32.4446
v  -39.2204 -3.3469 32.3253
v  -39.2204 -3.6283 32.3253
v  -39.2026 -3.6283 32.4446
v  -35.6241 -3.3469 31.9096
v  -35.6419 -3.3469 31.7903
v  -35.6419 -3.6283 31.7903
v  -35.6241 -3.6283 31.9096
v  -32.0456 -3.3469 31.3746
v  -32.0635 -3.3469 31.2553
v  -32.0635 -3.6283 31.2553
v  -32.0456 -3.6283 31.3746
v  -28.4671 -3.3469 30.8395
v  -28.4850 -3.3469 30.7202
v  -28.4850 -3.6283 30.7202
v  -28.4671 -3.6283 30.8395
v  -24.8887 -3.3469 30.3045
v  -24.9065 -3.3469 30.1852
v  -24.9065 -3.6283 30.1852
v  -24.8887 -3.6283 30.3045
v  0.1607 -3.3469 26.5593
v  0.1429 -3.3469 26.4400
v  0.1429 -3.6283 26.4400
v  0.1607 -3.6283 26.5593
v  3.7392 -3.3469 26.0242
v  3.7213 -3.3469 25.9049
v  3.7213 -3.6283 25.9049
v  3.7392 -3.6283 26.0242
v  7.3177 -3.3469 25.4892
v  7.2998 -3.3469 25.3699
v  7.2998 -3.6283 25.3699
v  7.3177 -3.6283 25.4892
v  10.8961 -3.3469 24.9542
v  10.8783 -3.3469 24.8349
v  10.8783 -3.6283 24.8349
v  10.8961 -3.6283 24.9542
v  14.4746 -3.3469 24.4191
v  14.4568 -3.3469 24.2999
v  14.4568 -3.6283 24.2999
v  14.4746 -3.6283 24.4191
v  18.0531 -3.3469 23.8841
v  18.0353 -3.3469 23.7648
v  18.0353 -3.6283 23.7648
v  18.0531 -3.6283 23.8841
v  21.6316 -3.3469 23.3491
v  21.6137 -3.3469 23.2298
v  21.6137 -3.6283 23.2298
v  21.6316 -3.6283 23.3491
v  25.2101 -3.3469 22.8140
v  25.1922 -3.3469 22.6948
v  25.1922 -3.6283 22.6948
v  25.2101 -3.6283 22.8140
v  11.3390 -3.3469 27.9158
v  11.3211 -3.3469 27.7966
v  11.3211 -3.6283 27.7966
v  11.3390 -3.6283 27.9158
v  14.9174 -3.3469 27.3808
v  14.8996 -3.3469 27.2615
v  14.8996 -3.6283 27.2615
v  14.9174 -3.6283 27.3808
v  18.4959 -3.3469 26.8458
v  18.4781 -3.3469 26.7265
v  18.4781 -3.6283 26.7265
v  18.4959 -3.6283 26.8458
v  22.0744 -3.3469 26.3107
v  22.0565 -3.3469 26.1915
v  22.0565 -3.6283 26.1915
v  22.0744 -3.6283 26.3107
v  25.6529 -3.3469 25.7757
v  25.6350 -3.3469 25.6564
v  25.6350 -3.6283 25.6564
v  25.6529 -3.6283 25.7757
v  4.1820 -3.3469 28.9859
v  4.1642 -3.3469 28.8666
v  4.1642 -3.6283 28.8666
v  4.1820 -3.6283 28.9859
v  7.7605 -3.3469 28.4509
v  7.7426 -3.3469 28.3316
v  7.7426 -3.6283 28.3316
v  7.7605 -3.6283 28.4509
v  0.6035 -3.3469 29.5209
v  0.5857 -3.3469 29.4017
v  0.5857 -3.6283 29.4017
v  0.6035 -3.6283 29.5209
v  27.2433 -3.7891 25.5379
v  27.2254 -3.7891 25.4186
v  27.2254 -4.0706 25.4186
v  27.2433 -4.0706 25.5379
v  30.8218 -3.7891 25.0029
v  30.8040 -3.7891 24.8836
v  30.8040 -4.0706 24.8836
v  30.8218 -4.0706 25.0029
v  34.4003 -3.7891 24.4679
v  34.3824 -3.7891 24.3486
v  34.3824 -4.0706 24.3486
v  34.4003 -4.0706 24.4679
v  37.9788 -3.7891 23.9328
v  37.9609 -3.7891 23.8135
v  37.9609 -4.0706 23.8135
v  37.9788 -4.0706 23.9328
v  41.5572 -3.7891 23.3978
v  41.5394 -3.7891 23.2785
v  41.5394 -4.0706 23.2785
v  41.5572 -4.0706 23.3978
v  45.1357 -3.7891 22.8628
v  45.1179 -3.7891 22.7435
v  45.1179 -4.0706 22.7435
v  45.1357 -4.0706 22.8628
v  48.7142 -3.7891 22.3277
v  48.6964 -3.7891 22.2084
v  48.6964 -4.0706 22.2084
v  48.7142 -4.0706 22.3277
v  52.2927 -3.7891 21.7927
v  52.2749 -3.7891 21.6734
v  52.2749 -4.0706 21.6734
v  52.2927 -4.0706 21.7927
v  55.8712 -3.7891 21.2577
v  55.8533 -3.7891 21.1384
v  55.8533 -4.0706 21.1384
v  55.8712 -4.0706 21.2577
v  59.4497 -3.7891 20.7226
v  59.4319 -3.7891 20.6033
v  59.4319 -4.0706 20.6033
v  59.4497 -4.0706 20.7226
v  59.0069 -3.7891 17.7609
v  58.9890 -3.7891 17.6417
v  58.9890 -4.0706 17.6417
v  59.0069 -4.0706 17.7609
v  26.8005 -3.7891 22.5762
v  26.7826 -3.7891 22.4570
v  26.7826 -4.0706 22.4570
v  26.8005 -4.0706 22.5762
v  30.3790 -3.7891 22.0412
v  30.3611 -3.7891 21.9219
v  30.3611 -4.0706 21.9219
v  30.3790 -4.0706 22.0412
v  33.9575 -3.7891 21.5062
v  33.9396 -3.7891 21.3869
v  33.9396 -4.0706 21.3869
v  33.9575 -4.0706 21.5062
v  37.5359 -3.7891 20.9711
v  37.5181 -3.7891 20.8519
v  37.5181 -4.0706 20.8519
v  37.5359 -4.0706 20.9711
v  41.1144 -3.7891 20.4361
v  41.0966 -3.7891 20.3168
v  41.0966 -4.0706 20.3168
v  41.1144 -4.0706 20.4361
v  44.6929 -3.7891 19.9011
v  44.6751 -3.7891 19.7818
v  44.6751 -4.0706 19.7818
v  44.6929 -4.0706 19.9011
v  48.2714 -3.7891 19.3660
v  48.2536 -3.7891 19.2468
v  48.2536 -4.0706 19.2468
v  48.2714 -4.0706 19.3660
v  51.8499 -3.7891 18.8310
v  51.8320 -3.7891 18.7117
v  51.8320 -4.0706 18.7117
v  51.8499 -4.0706 18.8310
v  55.4284 -3.7891 18.2960
v  55.4105 -3.7891 18.1767
v  55.4105 -4.0706 18.1767
v  55.4284 -4.0706 18.2960
v  69.7422 -3.7891 16.1558
v  69.7244 -3.7891 16.0366
v  69.7244 -4.0706 16.0366
v  69.7422 -4.0706 16.1558
v  62.5853 -3.7891 17.2259
v  62.5674 -3.7891 17.1066
v  62.5674 -4.0706 17.1066
v  62.5853 -4.0706 17.2259
v  66.1637 -3.7891 16.6909
v  66.1459 -3.7891 16.5716
v  66.1459 -4.0706 16.5716
v  66.1637 -4.0706 16.6909
v  63.0281 -3.7891 20.1876
v  63.0102 -3.7891 20.0683
v  63.0102 -4.0706 20.0683
v  63.0281 -4.0706 20.1876
v  66.6066 -3.7891 19.6526
v  66.5887 -3.7891 19.5333
v  66.5887 -4.0706 19.5333
v  66.6066 -4.0706 19.6526
v  70.1851 -3.7891 19.1175
v  70.1672 -3.7891 18.9982
v  70.1672 -4.0706 18.9982
v  70.1851 -4.0706 19.1175
v  74.5135 -3.7891 15.4425
v  74.4957 -3.7891 15.3232
v  74.4957 -4.0706 15.3232
v  74.5135 -4.0706 15.4425
v  73.7635 -3.7891 18.5825
v  73.7457 -3.7891 18.4632
v  73.7457 -4.0706 18.4632
v  73.7635 -4.0706 18.5825
v  -35.1813 -3.3469 34.8713
v  -35.1991 -3.3469 34.7520
v  -35.1991 -3.6283 34.7520
v  -35.1813 -3.6283 34.8713
v  -31.6028 -3.3469 34.3362
v  -31.6206 -3.3469 34.2169
v  -31.6206 -3.6283 34.2169
v  -31.6028 -3.6283 34.3362
v  -28.0243 -3.3469 33.8012
v  -28.0422 -3.3469 33.6819
v  -28.0422 -3.6283 33.6819
v  -28.0243 -3.6283 33.8012
v  -24.4458 -3.3469 33.2662
v  -24.4637 -3.3469 33.1469
v  -24.4637 -3.6283 33.1469
v  -24.4458 -3.6283 33.2662
v  -42.3382 -3.3469 35.9413
v  -42.3561 -3.3469 35.8220
v  -42.3561 -3.6283 35.8220
v  -42.3382 -3.6283 35.9413
v  -38.7598 -3.3469 35.4063
v  -38.7776 -3.3469 35.2870
v  -38.7776 -3.6283 35.2870
v  -38.7598 -3.6283 35.4063
v  -45.9167 -3.3469 36.4764
v  -45.9345 -3.3469 36.3571
v  -45.9345 -3.6283 36.3571
v  -45.9167 -3.6283 36.4764
v  -21.2650 -3.7891 32.7906
v  -21.2828 -3.7891 32.6713
v  -21.2828 -4.0706 32.6713
v  -21.2650 -4.0706 32.7906
v  -17.6865 -3.7891 32.2556
v  -17.7043 -3.7891 32.1363
v  -17.7043 -4.0706 32.1363
v  -17.6865 -4.0706 32.2556
v  -14.1080 -3.7891 31.7205
v  -14.1258 -3.7891 31.6012
v  -14.1258 -4.0706 31.6012
v  -14.1080 -4.0706 31.7205
v  -10.5295 -3.7891 31.1855
v  -10.5473 -3.7891 31.0662
v  -10.5473 -4.0706 31.0662
v  -10.5295 -4.0706 31.1855
v  -6.9510 -3.7891 30.6505
v  -6.9689 -3.7891 30.5312
v  -6.9689 -4.0706 30.5312
v  -6.9510 -4.0706 30.6505
v  -3.3725 -3.7891 30.1154
v  -3.3904 -3.7891 29.9961
v  -3.3904 -4.0706 29.9961
v  -3.3725 -4.0706 30.1154
v  -3.8154 -3.7891 27.1537
v  -3.8332 -3.7891 27.0345
v  -3.8332 -4.0706 27.0345
v  -3.8154 -4.0706 27.1537
v  -21.7078 -3.7891 29.8289
v  -21.7256 -3.7891 29.7096
v  -21.7256 -4.0706 29.7096
v  -21.7078 -4.0706 29.8289
v  -18.1293 -3.7891 29.2939
v  -18.1471 -3.7891 29.1746
v  -18.1471 -4.0706 29.1746
v  -18.1293 -4.0706 29.2939
v  -14.5508 -3.7891 28.7588
v  -14.5687 -3.7891 28.6396
v  -14.5687 -4.0706 28.6396
v  -14.5508 -4.0706 28.7588
v  -10.9723 -3.7891 28.2238
v  -10.9902 -3.7891 28.1045
v  -10.9902 -4.0706 28.1045
v  -10.9723 -4.0706 28.2238
v  -7.3938 -3.7891 27.6888
v  -7.4117 -3.7891 27.5695
v  -7.4117 -4.0706 27.5695
v  -7.3938 -4.0706 27.6888
# 368 vertices

vn -0.9890 0.0000 0.1479
# 1 vertex normals

vt 0.4677 0.3153 0.4995
vt 0.4676 0.3153 0.4995
vt 0.4676 0.3152 0.4995
vt 0.4677 0.3152 0.4995
vt 0.4680 0.3153 0.4995
vt 0.4680 0.3152 0.4995
vt 0.4680 0.3153 0.4996
vt 0.4680 0.3152 0.4996
vt 0.4680 0.3153 0.4997
vt 0.4680 0.3152 0.4997
vt 0.4677 0.3153 0.4996
vt 0.4676 0.3153 0.4996
vt 0.4676 0.3152 0.4996
vt 0.4677 0.3152 0.4996
vt 0.4677 0.3153 0.4997
vt 0.4676 0.3153 0.4997
vt 0.4676 0.3152 0.4997
vt 0.4677 0.3152 0.4997
vt 0.4677 0.3156 0.4997
vt 0.4676 0.3156 0.4997
vt 0.4676 0.3154 0.4997
vt 0.4677 0.3154 0.4997
vt 0.4677 0.3156 0.4998
vt 0.4676 0.3156 0.4998
vt 0.4676 0.3154 0.4998
vt 0.4677 0.3154 0.4998
vt 0.4677 0.3156 0.4999
vt 0.4676 0.3156 0.4999
vt 0.4676 0.3154 0.4999
vt 0.4677 0.3154 0.4999
vt 0.4677 0.3156 0.5000
vt 0.4676 0.3156 0.5000
vt 0.4676 0.3154 0.5000
vt 0.4677 0.3154 0.5000
vt 0.4677 0.3156 0.5001
vt 0.4676 0.3156 0.5001
vt 0.4676 0.3154 0.5001
vt 0.4677 0.3154 0.5001
vt 0.4677 0.3156 0.5002
vt 0.4676 0.3156 0.5002
vt 0.4676 0.3154 0.5002
vt 0.4677 0.3154 0.5002
vt 0.4680 0.3156 0.5001
vt 0.4680 0.3154 0.5001
vt 0.4680 0.3156 0.5002
vt 0.4680 0.3154 0.5002
vt 0.4680 0.3156 0.5000
vt 0.4680 0.3154 0.5000
vt 0.4680 0.3153 0.5002
vt 0.4680 0.3152 0.5002
vt 0.4680 0.3153 0.5003
vt 0.4680 0.3152 0.5003
vt 0.4680 0.3153 0.5004
vt 0.4680 0.3152 0.5004
vt 0.4677 0.3153 0.5004
vt 0.4676 0.3153 0.5004
vt 0.4676 0.3152 0.5004
vt 0.4677 0.3152 0.5004
vt 0.4677 0.3153 0.5002
vt 0.4676 0.3153 0.5002
vt 0.4676 0.3152 0.5002
vt 0.4677 0.3152 0.5002
vt 0.4677 0.3153 0.5003
vt 0.4676 0.3153 0.5003
vt 0.4676 0.3152 0.5003
vt 0.4677 0.3152 0.5003
vt 0.4677 0.3153 0.5005
vt 0.4676 0.3153 0.5005
vt 0.4676 0.3152 0.5005
vt 0.4677 0.3152 0.5005
vt 0.4680 0.3153 0.5005
vt 0.4680 0.3152 0.5005
vt 0.4680 0.3156 0.4998
vt 0.4680 0.3154 0.4998
vt 0.4680 0.3156 0.4999
vt 0.4680 0.3154 0.4999
vt 0.4680 0.3156 0.4997
vt 0.4680 0.3154 0.4997
vt 0.4680 0.3153 0.4999
vt 0.4680 0.3152 0.4999
vt 0.4680 0.3153 0.5000
vt 0.4680 0.3152 0.5000
vt 0.4677 0.3153 0.5000
vt 0.4676 0.3153 0.5000
vt 0.4676 0.3152 0.5000
vt 0.4677 0.3152 0.5000
vt 0.4677 0.3153 0.4999
vt 0.4676 0.3153 0.4999
vt 0.4676 0.3152 0.4999
vt 0.4677 0.3152 0.4999
# 90 texture coords

g M_ranqizhichengzhu_T_shiti
usemtl T_shiti
s off
f 1/1/1 2/2/1 3/3/1 4/4/1 
f 5/5/1 6/5/1 7/6/1 8/6/1 
f 9/5/1 10/5/1 11/6/1 12/6/1 
f 13/5/1 14/5/1 15/6/1 16/6/1 
f 17/5/1 18/5/1 19/6/1 20/6/1 
f 21/7/1 22/7/1 23/8/1 24/8/1 
f 25/7/1 26/7/1 27/8/1 28/8/1 
f 29/7/1 30/7/1 31/8/1 32/8/1 
f 33/7/1 34/7/1 35/8/1 36/8/1 
f 37/9/1 38/9/1 39/10/1 40/10/1 
f 41/9/1 42/9/1 43/10/1 44/10/1 
f 45/9/1 46/9/1 47/10/1 48/10/1 
f 49/1/1 50/2/1 51/3/1 52/4/1 
f 53/1/1 54/2/1 55/3/1 56/4/1 
f 57/1/1 58/2/1 59/3/1 60/4/1 
f 61/11/1 62/12/1 63/13/1 64/14/1 
f 65/11/1 66/12/1 67/13/1 68/14/1 
f 69/11/1 70/12/1 71/13/1 72/14/1 
f 73/11/1 74/12/1 75/13/1 76/14/1 
f 77/15/1 78/16/1 79/17/1 80/18/1 
f 81/15/1 82/16/1 83/17/1 84/18/1 
f 85/15/1 86/16/1 87/17/1 88/18/1 
f 89/19/1 90/20/1 91/21/1 92/22/1 
f 93/19/1 94/20/1 95/21/1 96/22/1 
f 97/23/1 98/24/1 99/25/1 100/26/1 
f 101/23/1 102/24/1 103/25/1 104/26/1 
f 105/23/1 106/24/1 107/25/1 108/26/1 
f 109/23/1 110/24/1 111/25/1 112/26/1 
f 113/27/1 114/28/1 115/29/1 116/30/1 
f 117/31/1 118/32/1 119/33/1 120/34/1 
f 121/35/1 122/36/1 123/37/1 124/38/1 
f 125/35/1 126/36/1 127/37/1 128/38/1 
f 129/35/1 130/36/1 131/37/1 132/38/1 
f 133/35/1 134/36/1 135/37/1 136/38/1 
f 137/39/1 138/40/1 139/41/1 140/42/1 
f 141/39/1 142/40/1 143/41/1 144/42/1 
f 145/39/1 146/40/1 147/41/1 148/42/1 
f 149/43/1 150/43/1 151/44/1 152/44/1 
f 153/43/1 154/43/1 155/44/1 156/44/1 
f 157/45/1 158/45/1 159/46/1 160/46/1 
f 161/45/1 162/45/1 163/46/1 164/46/1 
f 165/45/1 166/45/1 167/46/1 168/46/1 
f 169/43/1 170/43/1 171/44/1 172/44/1 
f 173/43/1 174/43/1 175/44/1 176/44/1 
f 177/47/1 178/47/1 179/48/1 180/48/1 
f 181/49/1 182/49/1 183/50/1 184/50/1 
f 185/49/1 186/49/1 187/50/1 188/50/1 
f 189/51/1 190/51/1 191/52/1 192/52/1 
f 193/51/1 194/51/1 195/52/1 196/52/1 
f 197/51/1 198/51/1 199/52/1 200/52/1 
f 201/51/1 202/51/1 203/52/1 204/52/1 
f 205/53/1 206/53/1 207/54/1 208/54/1 
f 209/53/1 210/53/1 211/54/1 212/54/1 
f 213/53/1 214/53/1 215/54/1 216/54/1 
f 217/53/1 218/53/1 219/54/1 220/54/1 
f 221/55/1 222/56/1 223/57/1 224/58/1 
f 225/59/1 226/60/1 227/61/1 228/62/1 
f 229/59/1 230/60/1 231/61/1 232/62/1 
f 233/63/1 234/64/1 235/65/1 236/66/1 
f 237/63/1 238/64/1 239/65/1 240/66/1 
f 241/63/1 242/64/1 243/65/1 244/66/1 
f 245/63/1 246/64/1 247/65/1 248/66/1 
f 249/55/1 250/56/1 251/57/1 252/58/1 
f 253/55/1 254/56/1 255/57/1 256/58/1 
f 257/55/1 258/56/1 259/57/1 260/58/1 
f 261/67/1 262/68/1 263/69/1 264/70/1 
f 265/55/1 266/56/1 267/57/1 268/58/1 
f 269/67/1 270/68/1 271/69/1 272/70/1 
f 273/53/1 274/53/1 275/54/1 276/54/1 
f 277/71/1 278/71/1 279/72/1 280/72/1 
f 281/71/1 282/71/1 283/72/1 284/72/1 
f 285/67/1 286/68/1 287/69/1 288/70/1 
f 289/71/1 290/71/1 291/72/1 292/72/1 
f 293/73/1 294/73/1 295/74/1 296/74/1 
f 297/73/1 298/73/1 299/74/1 300/74/1 
f 301/73/1 302/73/1 303/74/1 304/74/1 
f 305/75/1 306/75/1 307/76/1 308/76/1 
f 309/77/1 310/77/1 311/78/1 312/78/1 
f 313/73/1 314/73/1 315/74/1 316/74/1 
f 317/77/1 318/77/1 319/78/1 320/78/1 
f 321/79/1 322/79/1 323/80/1 324/80/1 
f 325/79/1 326/79/1 327/80/1 328/80/1 
f 329/79/1 330/79/1 331/80/1 332/80/1 
f 333/81/1 334/81/1 335/82/1 336/82/1 
f 337/81/1 338/81/1 339/82/1 340/82/1 
f 341/81/1 342/81/1 343/82/1 344/82/1 
f 345/83/1 346/84/1 347/85/1 348/86/1 
f 349/87/1 350/88/1 351/89/1 352/90/1 
f 353/87/1 354/88/1 355/89/1 356/90/1 
f 357/87/1 358/88/1 359/89/1 360/90/1 
f 361/83/1 362/84/1 363/85/1 364/86/1 
f 365/83/1 366/84/1 367/85/1 368/86/1 
# 92 polygons

