# 3ds Max Wavefront OBJ Exporter v0.97b - (c)2007 guruware
# File Created: 30.01.2018 17:57:24

mtllib M_T_B2_PIAN_B314.mtl

#
# object M_T_B2_PIAN_B314
#

v  -1057.6281 -146.3570 -74.6035
v  -1004.0051 -146.3570 266.2158
v  -573.4216 -146.3570 198.4698
v  -626.6636 -146.3570 -139.9287
# 4 vertices

vn 0.0000 1.0000 -0.0000
# 1 vertex normals

vt 0.0000 0.6356 0.5000
vt 0.0000 0.3993 0.5000
vt 0.2985 0.3993 0.5000
vt 0.2985 0.6340 0.5000
# 4 texture coords

g M_T_B2_PIAN_B314
usemtl T_B2_PIAN_01
s 1
f 1/1/1 2/2/1 3/3/1 4/4/1 
# 1 polygons

