# 3ds Max Wavefront OBJ Exporter v0.97b - (c)2007 guruware
# File Created: 30.01.2018 17:57:33

mtllib M_T_B2_PIAN_B315.mtl

#
# object M_T_B2_PIAN_B315
#

v  -626.6635 -146.3570 -139.9287
v  -573.4214 -146.3570 198.4698
v  -189.7756 -146.3570 135.6282
v  -243.0176 -146.3570 -202.7704
# 4 vertices

vn 0.0000 1.0000 -0.0000
# 1 vertex normals

vt 0.2985 0.6340 0.5000
vt 0.2985 0.3993 0.5000
vt 0.5648 0.4010 0.5000
vt 0.5648 0.6356 0.5000
# 4 texture coords

g M_T_B2_PIAN_B315
usemtl T_B2_PIAN_01
s 1
f 1/1/1 2/2/1 3/3/1 4/4/1 
# 1 polygons

