# 3ds Max Wavefront OBJ Exporter v0.97b - (c)2007 guruware
# File Created: 30.01.2018 17:55:56

mtllib M_T_B2_PIAN_B305.mtl

#
# object M_T_B2_PIAN_B305
#

v  -273.4222 224.7989 -139.9287
v  -220.1802 224.7989 198.4698
v  163.4656 224.7989 135.6282
v  110.2236 224.7989 -202.7704
# 4 vertices

vn 0.0000 1.0000 -0.0000
# 1 vertex normals

vt 0.2985 0.6340 0.5000
vt 0.2985 0.3993 0.5000
vt 0.5648 0.4010 0.5000
vt 0.5648 0.6356 0.5000
# 4 texture coords

g M_T_B2_PIAN_B305
usemtl T_B2_PIAN_01
s 1
f 1/1/1 2/2/1 3/3/1 4/4/1 
# 1 polygons

