# 3ds Max Wavefront OBJ Exporter v0.97b - (c)2007 guruware
# File Created: 30.01.2018 09:59:33

mtllib M_T_B2_PIAN_B310_2.mtl

#
# object M_T_B2_PIAN_B310_2
#

v  81.0685 -42.8818 -109.8544
v  -111.7764 -42.8818 -79.5131
v  -81.4352 -42.8818 113.3318
v  111.4098 -42.8818 82.9905
# 4 vertices

vn 0.0000 1.0000 -0.0000
# 1 vertex normals

vt 1.0000 1.0000 0.5000
vt 0.0000 1.0000 0.5000
vt 0.0000 0.0000 0.5000
vt 1.0000 0.0000 0.5000
# 4 texture coords

g M_T_B2_PIAN_B310_2
usemtl T_B2_PIAN_01
s 1
f 1/1/1 2/2/1 3/3/1 4/4/1 
# 1 polygons

