# 3ds Max Wavefront OBJ Exporter v0.97b - (c)2007 guruware
# File Created: 30.01.2018 17:56:42

mtllib M_T_B2_PIAN_B311.mtl

#
# object M_T_B2_PIAN_B311
#

v  -1140.3113 -146.3570 -600.1263
v  -1057.6281 -146.3570 -74.6035
v  -626.6637 -146.3570 -139.9287
v  -709.3469 -146.3570 -665.4515
# 4 vertices

vn 0.0000 1.0000 -0.0000
# 1 vertex normals

vt 0.0000 1.0000 0.5000
vt 0.0000 0.6356 0.5000
vt 0.2985 0.6340 0.5000
vt 0.2985 0.9983 0.5000
# 4 texture coords

g M_T_B2_PIAN_B311
usemtl T_B2_PIAN_01
s 1
f 1/1/1 2/2/1 3/3/1 4/4/1 
# 1 polygons

