# 3ds Max Wavefront OBJ Exporter v0.97b - (c)2007 guruware
# File Created: 30.01.2018 17:55:16

mtllib M_T_B2_PIAN_B301.mtl

#
# object M_T_B2_PIAN_B301
#

v  -787.0701 224.7989 -600.1263
v  -704.3868 224.7989 -74.6035
v  -273.4225 224.7989 -139.9287
v  -356.1057 224.7989 -665.4515
# 4 vertices

vn 0.0000 1.0000 -0.0000
# 1 vertex normals

vt 0.0000 1.0000 0.5000
vt 0.0000 0.6356 0.5000
vt 0.2985 0.6340 0.5000
vt 0.2985 0.9983 0.5000
# 4 texture coords

g M_T_B2_PIAN_B301
usemtl T_B2_PIAN_01
s 1
f 1/1/1 2/2/1 3/3/1 4/4/1 
# 1 polygons

