# 3ds Max Wavefront OBJ Exporter v0.97b - (c)2007 guruware
# File Created: 30.01.2018 17:56:04

mtllib M_T_B2_PIAN_B306.mtl

#
# object M_T_B2_PIAN_B306
#

v  791.1617 224.7989 36.8695
v  737.9197 224.7989 -301.5291
v  110.2235 224.7989 -202.7703
v  163.4655 224.7989 135.6282
# 4 vertices

vn 0.0000 1.0000 -0.0000
# 1 vertex normals

vt 1.0000 0.4010 0.5000
vt 1.0000 0.6356 0.5000
vt 0.5648 0.6356 0.5000
vt 0.5648 0.4010 0.5000
# 4 texture coords

g M_T_B2_PIAN_B306
usemtl T_B2_PIAN_01
s 1
f 1/1/1 2/2/1 3/3/1 4/4/1 
# 1 polygons

