# 3ds Max Wavefront OBJ Exporter v0.97b - (c)2007 guruware
# File Created: 07.02.2018 14:43:48

mtllib M_tongxin2_T_tongxin_show.mtl

#
# object M_tongxin2_T_tongxin
#

v  -49.6159 -3.3796 -17.4439
v  -94.4786 -3.3796 -10.7363
v  -94.4564 -3.3796 -10.5874
v  -49.5937 -3.3796 -17.2950
v  -48.6025 -3.0178 -17.5954
v  -48.5802 -3.0178 -17.4465
v  -36.0251 -3.0178 -19.4759
v  -36.0028 -3.0178 -19.3270
v  -35.5075 -3.3796 -19.5533
v  -35.4853 -3.3796 -19.4044
v  -0.1908 -3.3796 -24.8336
v  -0.1685 -3.3796 -24.6847
v  0.2764 -3.0178 -24.9035
v  0.2986 -3.0178 -24.7546
v  3.8914 -3.0178 -25.2960
v  3.8691 -3.0178 -25.4449
v  20.4244 -3.3796 -26.2071
v  19.8938 -3.0178 -26.1278
v  19.9160 -3.0178 -25.9789
v  20.4467 -3.3796 -26.0583
v  86.6863 -3.3796 -36.1314
v  86.7086 -3.3796 -35.9825
v  -49.7282 -3.3796 -18.1949
v  -94.5909 -3.3796 -11.4873
v  -94.5684 -3.3796 -11.3367
v  -49.7057 -3.3796 -18.0443
v  -48.7148 -3.0178 -18.3464
v  -48.6922 -3.0178 -18.1958
v  -36.1374 -3.0178 -20.2269
v  -36.1149 -3.0178 -20.0763
v  -35.6198 -3.3796 -20.3043
v  -35.5973 -3.3796 -20.1537
v  -0.3030 -3.3796 -25.5847
v  -0.2805 -3.3796 -25.4340
v  0.1641 -3.0178 -25.6545
v  0.1866 -3.0178 -25.5038
v  4.1711 -3.0178 -26.0998
v  4.1485 -3.0178 -26.2505
v  20.3149 -3.3796 -26.9392
v  19.7843 -3.0178 -26.8599
v  19.8068 -3.0178 -26.7092
v  20.3375 -3.3796 -26.7885
v  86.5769 -3.3796 -36.8635
v  86.5994 -3.3796 -36.7128
v  -49.6159 -3.5404 -17.4439
v  -94.4786 -3.5404 -10.7363
v  -94.4564 -3.5404 -10.5874
v  -49.5937 -3.5404 -17.2950
v  -48.6025 -3.1786 -17.5954
v  -48.5802 -3.1786 -17.4465
v  -36.0251 -3.1786 -19.4759
v  -36.0028 -3.1786 -19.3270
v  -35.5075 -3.5404 -19.5533
v  -35.4853 -3.5404 -19.4044
v  -0.1908 -3.5404 -24.8336
v  -0.1685 -3.5404 -24.6847
v  0.2764 -3.1786 -24.9035
v  0.2986 -3.1786 -24.7546
v  3.8914 -3.1786 -25.2960
v  3.8691 -3.1786 -25.4449
v  20.4244 -3.5404 -26.2071
v  19.8938 -3.1786 -26.1278
v  19.9160 -3.1786 -25.9789
v  20.4467 -3.5404 -26.0583
v  86.6863 -3.5404 -36.1314
v  86.7086 -3.5404 -35.9825
v  -49.7282 -3.5404 -18.1949
v  -94.5909 -3.5404 -11.4873
v  -94.5684 -3.5404 -11.3367
v  -49.7057 -3.5404 -18.0443
v  -48.7148 -3.1786 -18.3464
v  -48.6922 -3.1786 -18.1958
v  -36.1374 -3.1786 -20.2269
v  -36.1149 -3.1786 -20.0763
v  -35.6198 -3.5404 -20.3043
v  -35.5973 -3.5404 -20.1537
v  -0.3030 -3.5404 -25.5847
v  -0.2805 -3.5404 -25.4340
v  0.1641 -3.1786 -25.6545
v  0.1866 -3.1786 -25.5038
v  4.1711 -3.1786 -26.0998
v  4.1485 -3.1786 -26.2505
v  20.3149 -3.5404 -26.9392
v  19.7843 -3.1786 -26.8599
v  19.8068 -3.1786 -26.7092
v  20.3375 -3.5404 -26.7885
v  86.5769 -3.5404 -36.8635
v  86.5994 -3.5404 -36.7128
v  -49.6159 -3.7012 -17.4439
v  -94.4786 -3.7012 -10.7363
v  -94.4564 -3.7012 -10.5874
v  -49.5937 -3.7012 -17.2950
v  -48.6025 -3.3394 -17.5954
v  -48.5802 -3.3394 -17.4465
v  -36.0251 -3.3394 -19.4759
v  -36.0028 -3.3394 -19.3270
v  -35.5075 -3.7012 -19.5533
v  -35.4853 -3.7012 -19.4044
v  -0.1908 -3.7012 -24.8336
v  -0.1685 -3.7012 -24.6847
v  0.2764 -3.3394 -24.9035
v  0.2986 -3.3394 -24.7546
v  3.8914 -3.3394 -25.2960
v  3.8691 -3.3394 -25.4449
v  20.4244 -3.7012 -26.2071
v  19.8938 -3.3394 -26.1278
v  19.9160 -3.3394 -25.9789
v  20.4467 -3.7012 -26.0583
v  86.6863 -3.7012 -36.1314
v  86.7086 -3.7012 -35.9825
v  -49.7282 -3.7012 -18.1949
v  -94.5909 -3.7012 -11.4873
v  -94.5684 -3.7012 -11.3367
v  -49.7057 -3.7012 -18.0443
v  -48.7148 -3.3394 -18.3464
v  -48.6922 -3.3394 -18.1958
v  -36.1374 -3.3394 -20.2269
v  -36.1149 -3.3394 -20.0763
v  -35.6198 -3.7012 -20.3043
v  -35.5973 -3.7012 -20.1537
v  -0.3030 -3.7012 -25.5847
v  -0.2805 -3.7012 -25.4340
v  0.1641 -3.3394 -25.6545
v  0.1866 -3.3394 -25.5038
v  4.1711 -3.3394 -26.0998
v  4.1485 -3.3394 -26.2505
v  20.3149 -3.7012 -26.9392
v  19.7843 -3.3394 -26.8599
v  19.8068 -3.3394 -26.7092
v  20.3375 -3.7012 -26.7885
v  86.5769 -3.7012 -36.8635
v  86.5994 -3.7012 -36.7128
v  -49.6159 -3.8620 -17.4439
v  -94.4786 -3.8620 -10.7363
v  -94.4564 -3.8620 -10.5874
v  -49.5937 -3.8620 -17.2950
v  -48.6025 -3.5002 -17.5954
v  -48.5802 -3.5002 -17.4465
v  -36.0251 -3.5002 -19.4759
v  -36.0028 -3.5002 -19.3270
v  -35.5075 -3.8620 -19.5533
v  -35.4853 -3.8620 -19.4044
v  -0.1908 -3.8620 -24.8336
v  -0.1685 -3.8620 -24.6847
v  0.2764 -3.5002 -24.9035
v  0.2986 -3.5002 -24.7546
v  3.8914 -3.5002 -25.2960
v  3.8691 -3.5002 -25.4449
v  20.4244 -3.8620 -26.2071
v  19.8938 -3.5002 -26.1278
v  19.9160 -3.5002 -25.9789
v  20.4467 -3.8620 -26.0583
v  86.6863 -3.8620 -36.1314
v  86.7086 -3.8620 -35.9825
v  -49.7282 -3.8620 -18.1949
v  -94.5909 -3.8620 -11.4873
v  -94.5684 -3.8620 -11.3367
v  -49.7057 -3.8620 -18.0443
v  -48.7148 -3.5002 -18.3464
v  -48.6922 -3.5002 -18.1958
v  -36.1374 -3.5002 -20.2269
v  -36.1149 -3.5002 -20.0763
v  -35.6198 -3.8620 -20.3043
v  -35.5973 -3.8620 -20.1537
v  -0.3030 -3.8620 -25.5847
v  -0.2805 -3.8620 -25.4340
v  0.1641 -3.5002 -25.6545
v  0.1866 -3.5002 -25.5038
v  4.1711 -3.5002 -26.0998
v  4.1485 -3.5002 -26.2505
v  20.3149 -3.8620 -26.9392
v  19.7843 -3.5002 -26.8599
v  19.8068 -3.5002 -26.7092
v  20.3375 -3.8620 -26.7885
v  86.5769 -3.8620 -36.8635
v  86.5994 -3.8620 -36.7128
v  5.6076 -3.0178 -24.7469
v  5.6378 -3.0178 -24.8984
v  5.7633 -3.0178 -25.5979
v  5.7892 -3.0178 -25.7497
v  5.6076 -3.1786 -24.7469
v  5.6378 -3.1786 -24.8984
v  5.7633 -3.1786 -25.5979
v  5.7892 -3.1786 -25.7497
v  5.6076 -3.3394 -24.7469
v  5.6378 -3.3394 -24.8984
v  5.7633 -3.3394 -25.5979
v  5.7892 -3.3394 -25.7497
v  5.6076 -3.5002 -24.7469
v  5.6378 -3.5002 -24.8984
v  5.7633 -3.5002 -25.5979
v  5.7892 -3.5002 -25.7497
v  9.2923 -3.0178 -24.5425
v  9.3146 -3.0178 -24.3936
v  9.7761 -3.0178 -25.3632
v  9.7986 -3.0178 -25.2126
v  9.2923 -3.1786 -24.5425
v  9.3146 -3.1786 -24.3936
v  9.7761 -3.1786 -25.3632
v  9.7986 -3.1786 -25.2126
v  9.2923 -3.3394 -24.5425
v  9.3146 -3.3394 -24.3936
v  9.7761 -3.3394 -25.3632
v  9.7986 -3.3394 -25.2126
v  9.2923 -3.5002 -24.5425
v  9.3146 -3.5002 -24.3936
v  9.7761 -3.5002 -25.3632
v  9.7986 -3.5002 -25.2126
# 208 vertices

vn -0.0000 1.0000 -0.0000
vn -0.3293 0.9429 0.0492
vn 0.5624 0.8225 -0.0841
vn -0.6015 0.7938 0.0899
vn 0.0000 1.0000 -0.0000
vn 0.5530 0.8291 -0.0827
# 6 vertex normals

vt 0.7593 0.3667 0.0001
vt 1.0000 0.3667 0.0001
vt 1.0000 0.5769 0.0001
vt 0.7593 0.5769 0.0001
vt 0.0705 0.3667 1.0000
vt 0.8893 0.3667 0.0001
vt 0.8893 0.5769 0.0001
vt 0.0705 0.5769 1.0000
vt 0.6089 0.3667 1.0000
vt 0.7554 0.3667 1.0000
vt 0.7554 0.5769 1.0000
vt 0.6089 0.5769 1.0000
vt 0.4679 0.3667 0.0000
vt 0.6053 0.3667 0.0001
vt 0.6053 0.5769 0.0001
vt 0.4679 0.5769 0.0001
vt 0.4629 0.5769 1.0000
vt 0.4297 0.5769 1.0000
vt 0.4297 0.3667 1.0000
vt 0.4629 0.3667 1.0000
vt 0.0000 0.3667 0.0000
vt 0.2977 0.3667 0.0000
vt 0.2977 0.5769 0.0000
vt 0.0000 0.5769 0.0000
vt 0.4151 0.5769 1.0000
vt 0.4151 0.3667 1.0000
vt 0.3011 0.5769 0.9999
vt 0.3011 0.3667 0.9999
vt 0.3847 0.3667 1.0000
vt 0.3847 0.5769 1.0000
# 30 texture coords

g M_tongxin2_T_tongxin
usemtl T_tongxin
s 1
f 1/1/1 2/2/1 3/3/1 4/4/1 
s 4
f 5/5/2 1/6/2 4/7/2 6/8/2 
s 2
f 7/9/1 5/10/1 6/11/1 8/12/1 
s 4
f 9/5/3 7/6/3 8/7/3 10/8/3 
s 2
f 11/13/1 9/14/1 10/15/1 12/16/1 
s 4
f 13/5/4 11/6/4 12/7/4 14/8/4 
s 2
f 14/17/1 15/18/5 16/19/5 13/20/1 
s 4
f 17/5/6 18/6/6 19/7/6 20/8/6 
s 2
f 21/21/1 17/22/1 20/23/1 22/24/1 
s 1
f 23/1/1 24/2/1 25/3/1 26/4/1 
s 4
f 27/5/2 23/6/2 26/7/2 28/8/2 
s 2
f 29/9/1 27/10/1 28/11/1 30/12/1 
s 4
f 31/5/3 29/6/3 30/7/3 32/8/3 
s 2
f 33/13/1 31/14/1 32/15/1 34/16/1 
s 4
f 35/5/4 33/6/4 34/7/4 36/8/4 
s 2
f 36/17/1 37/18/5 38/19/5 35/20/1 
s 4
f 39/5/6 40/6/6 41/7/6 42/8/6 
s 2
f 43/21/1 39/22/1 42/23/1 44/24/1 
s 1
f 45/1/1 46/2/1 47/3/1 48/4/1 
s 4
f 49/5/2 45/6/2 48/7/2 50/8/2 
s 2
f 51/9/1 49/10/1 50/11/1 52/12/1 
s 4
f 53/5/3 51/6/3 52/7/3 54/8/3 
s 2
f 55/13/1 53/14/1 54/15/1 56/16/1 
s 4
f 57/5/4 55/6/4 56/7/4 58/8/4 
s 2
f 58/17/1 59/18/5 60/19/5 57/20/1 
s 4
f 61/5/6 62/6/6 63/7/6 64/8/6 
s 2
f 65/21/1 61/22/1 64/23/1 66/24/1 
s 1
f 67/1/1 68/2/1 69/3/1 70/4/1 
s 4
f 71/5/2 67/6/2 70/7/2 72/8/2 
s 2
f 73/9/1 71/10/1 72/11/1 74/12/1 
s 4
f 75/5/3 73/6/3 74/7/3 76/8/3 
s 2
f 77/13/1 75/14/1 76/15/1 78/16/1 
s 4
f 79/5/4 77/6/4 78/7/4 80/8/4 
s 2
f 80/17/1 81/18/5 82/19/5 79/20/1 
s 4
f 83/5/6 84/6/6 85/7/6 86/8/6 
s 2
f 87/21/1 83/22/1 86/23/1 88/24/1 
s 1
f 89/1/1 90/2/1 91/3/1 92/4/1 
s 4
f 93/5/2 89/6/2 92/7/2 94/8/2 
s 2
f 95/9/1 93/10/1 94/11/1 96/12/1 
s 4
f 97/5/3 95/6/3 96/7/3 98/8/3 
s 2
f 99/13/1 97/14/1 98/15/1 100/16/1 
s 4
f 101/5/4 99/6/4 100/7/4 102/8/4 
s 2
f 102/17/1 103/18/5 104/19/5 101/20/1 
s 4
f 105/5/6 106/6/6 107/7/6 108/8/6 
s 2
f 109/21/1 105/22/1 108/23/1 110/24/1 
s 1
f 111/1/1 112/2/1 113/3/1 114/4/1 
s 4
f 115/5/2 111/6/2 114/7/2 116/8/2 
s 2
f 117/9/1 115/10/1 116/11/1 118/12/1 
s 4
f 119/5/3 117/6/3 118/7/3 120/8/3 
s 2
f 121/13/1 119/14/1 120/15/1 122/16/1 
s 4
f 123/5/4 121/6/4 122/7/4 124/8/4 
s 2
f 124/17/1 125/18/5 126/19/5 123/20/1 
s 4
f 127/5/6 128/6/6 129/7/6 130/8/6 
s 2
f 131/21/1 127/22/1 130/23/1 132/24/1 
s 1
f 133/1/1 134/2/1 135/3/1 136/4/1 
s 4
f 137/5/2 133/6/2 136/7/2 138/8/2 
s 2
f 139/9/1 137/10/1 138/11/1 140/12/1 
s 4
f 141/5/3 139/6/3 140/7/3 142/8/3 
s 2
f 143/13/1 141/14/1 142/15/1 144/16/1 
s 4
f 145/5/4 143/6/4 144/7/4 146/8/4 
s 2
f 146/17/1 147/18/5 148/19/5 145/20/1 
s 4
f 149/5/6 150/6/6 151/7/6 152/8/6 
s 2
f 153/21/1 149/22/1 152/23/1 154/24/1 
s 1
f 155/1/1 156/2/1 157/3/1 158/4/1 
s 4
f 159/5/2 155/6/2 158/7/2 160/8/2 
s 2
f 161/9/1 159/10/1 160/11/1 162/12/1 
s 4
f 163/5/3 161/6/3 162/7/3 164/8/3 
s 2
f 165/13/1 163/14/1 164/15/1 166/16/1 
s 4
f 167/5/4 165/6/4 166/7/4 168/8/4 
s 2
f 168/17/1 169/18/5 170/19/5 167/20/1 
s 4
f 171/5/6 172/6/6 173/7/6 174/8/6 
s 2
f 175/21/1 171/22/1 174/23/1 176/24/1 
f 15/18/5 177/25/5 178/26/5 16/19/5 
f 37/18/5 179/25/5 180/26/5 38/19/5 
f 59/18/5 181/25/5 182/26/5 60/19/5 
f 81/18/5 183/25/5 184/26/5 82/19/5 
f 103/18/5 185/25/5 186/26/5 104/19/5 
f 125/18/5 187/25/5 188/26/5 126/19/5 
f 147/18/5 189/25/5 190/26/5 148/19/5 
f 169/18/5 191/25/5 192/26/5 170/19/5 
f 19/27/1 18/28/1 193/29/5 194/30/5 
f 41/27/1 40/28/1 195/29/5 196/30/5 
f 63/27/1 62/28/1 197/29/5 198/30/5 
f 85/27/1 84/28/1 199/29/5 200/30/5 
f 107/27/1 106/28/1 201/29/5 202/30/5 
f 129/27/1 128/28/1 203/29/5 204/30/5 
f 151/27/1 150/28/1 205/29/5 206/30/5 
f 173/27/1 172/28/1 207/29/5 208/30/5 
f 177/25/5 194/30/5 193/29/5 178/26/5 
f 179/25/5 196/30/5 195/29/5 180/26/5 
f 181/25/5 198/30/5 197/29/5 182/26/5 
f 183/25/5 200/30/5 199/29/5 184/26/5 
f 185/25/5 202/30/5 201/29/5 186/26/5 
f 187/25/5 204/30/5 203/29/5 188/26/5 
f 189/25/5 206/30/5 205/29/5 190/26/5 
f 191/25/5 208/30/5 207/29/5 192/26/5 
# 96 polygons

