# 3ds Max Wavefront OBJ Exporter v0.97b - (c)2007 guruware
# File Created: 07.02.2018 13:14:26

mtllib M_tongxin_T_tongxin.mtl

#
# object M_tongxin_T_tongxin
#

v  -47.0077 -3.3796 35.7688
v  -85.5359 -3.3796 41.5293
v  -85.5127 -3.3796 41.6843
v  -46.9845 -3.3796 35.9238
v  -46.3945 -3.0177 35.6771
v  -46.3713 -3.0177 35.8322
v  -22.9443 -3.0177 32.1710
v  -22.9211 -3.0177 32.3260
v  -22.3715 -3.3796 32.0853
v  -22.3483 -3.3796 32.2404
v  -0.3849 -3.3796 28.7980
v  -0.3617 -3.3796 28.9531
v  0.4271 -3.0177 28.6766
v  0.4503 -3.0177 28.8317
v  26.3193 -3.0178 24.8054
v  26.3424 -3.0178 24.9604
v  26.8499 -3.3796 24.7261
v  26.8731 -3.3796 24.8811
v  74.4978 -3.3796 17.5848
v  74.5210 -3.3796 17.7398
v  -47.0911 -3.3796 35.2110
v  -85.6193 -3.3796 40.9715
v  -85.5961 -3.3796 41.1265
v  -47.0679 -3.3796 35.3660
v  -46.4779 -3.0177 35.1193
v  -46.4547 -3.0177 35.2743
v  -23.0277 -3.0177 31.6132
v  -23.0045 -3.0177 31.7682
v  -22.4549 -3.3796 31.5275
v  -22.4317 -3.3796 31.6826
v  -0.4683 -3.3796 28.2402
v  -0.4451 -3.3796 28.3953
v  0.3437 -3.0177 28.1188
v  0.3669 -3.0177 28.2739
v  26.2359 -3.0178 24.2476
v  26.2590 -3.0178 24.4026
v  26.7665 -3.3796 24.1682
v  26.7897 -3.3796 24.3233
v  74.4144 -3.3796 17.0270
v  74.4376 -3.3796 17.1820
v  -47.0077 -3.5404 35.7688
v  -85.5359 -3.5404 41.5293
v  -85.5127 -3.5404 41.6843
v  -46.9845 -3.5404 35.9238
v  -46.3945 -3.1786 35.6771
v  -46.3713 -3.1786 35.8322
v  -22.9443 -3.1786 32.1710
v  -22.9211 -3.1786 32.3260
v  -22.3715 -3.5404 32.0853
v  -22.3483 -3.5404 32.2404
v  -0.3849 -3.5404 28.7980
v  -0.3617 -3.5404 28.9531
v  0.4271 -3.1786 28.6766
v  0.4503 -3.1786 28.8317
v  26.3193 -3.1786 24.8054
v  26.3424 -3.1786 24.9604
v  26.8499 -3.5404 24.7261
v  26.8731 -3.5404 24.8811
v  74.4978 -3.5404 17.5848
v  74.5210 -3.5404 17.7398
v  -47.0911 -3.5404 35.2110
v  -85.6193 -3.5404 40.9715
v  -85.5961 -3.5404 41.1265
v  -47.0679 -3.5404 35.3660
v  -46.4779 -3.1786 35.1193
v  -46.4547 -3.1786 35.2743
v  -23.0277 -3.1786 31.6132
v  -23.0045 -3.1786 31.7682
v  -22.4549 -3.5404 31.5275
v  -22.4317 -3.5404 31.6826
v  -0.4683 -3.5404 28.2402
v  -0.4451 -3.5404 28.3953
v  0.3437 -3.1786 28.1188
v  0.3669 -3.1786 28.2739
v  26.2359 -3.1786 24.2476
v  26.2590 -3.1786 24.4026
v  26.7665 -3.5404 24.1682
v  26.7897 -3.5404 24.3233
v  74.4144 -3.5404 17.0270
v  74.4376 -3.5404 17.1820
v  -47.0077 -3.7012 35.7688
v  -85.5359 -3.7012 41.5293
v  -85.5127 -3.7012 41.6843
v  -46.9845 -3.7012 35.9238
v  -46.3945 -3.3394 35.6771
v  -46.3713 -3.3394 35.8322
v  -22.9443 -3.3394 32.1710
v  -22.9211 -3.3394 32.3260
v  -22.3715 -3.7012 32.0853
v  -22.3483 -3.7012 32.2404
v  -0.3849 -3.7012 28.7980
v  -0.3617 -3.7012 28.9531
v  0.4271 -3.3394 28.6766
v  0.4503 -3.3394 28.8317
v  26.3193 -3.3394 24.8054
v  26.3424 -3.3394 24.9604
v  26.8499 -3.7012 24.7261
v  26.8731 -3.7012 24.8811
v  74.4978 -3.7012 17.5848
v  74.5210 -3.7012 17.7398
v  -47.0911 -3.7012 35.2110
v  -85.6193 -3.7012 40.9715
v  -85.5961 -3.7012 41.1265
v  -47.0679 -3.7012 35.3660
v  -46.4779 -3.3394 35.1193
v  -46.4547 -3.3394 35.2743
v  -23.0277 -3.3394 31.6132
v  -23.0045 -3.3394 31.7682
v  -22.4549 -3.7012 31.5275
v  -22.4317 -3.7012 31.6826
v  -0.4683 -3.7012 28.2402
v  -0.4451 -3.7012 28.3953
v  0.3437 -3.3394 28.1188
v  0.3669 -3.3394 28.2739
v  26.2359 -3.3394 24.2476
v  26.2590 -3.3394 24.4026
v  26.7665 -3.7012 24.1682
v  26.7897 -3.7012 24.3233
v  74.4144 -3.7012 17.0270
v  74.4376 -3.7012 17.1820
v  -47.0077 -3.8620 35.7688
v  -85.5359 -3.8620 41.5293
v  -85.5127 -3.8620 41.6843
v  -46.9845 -3.8620 35.9238
v  -46.3945 -3.5002 35.6771
v  -46.3713 -3.5002 35.8322
v  -22.9443 -3.5002 32.1710
v  -22.9211 -3.5002 32.3260
v  -22.3715 -3.8620 32.0853
v  -22.3483 -3.8620 32.2404
v  -0.3849 -3.8620 28.7980
v  -0.3617 -3.8620 28.9531
v  0.4271 -3.5002 28.6766
v  0.4503 -3.5002 28.8317
v  26.3193 -3.5002 24.8054
v  26.3424 -3.5002 24.9604
v  26.8499 -3.8620 24.7261
v  26.8731 -3.8620 24.8811
v  74.4978 -3.8620 17.5848
v  74.5210 -3.8620 17.7398
v  -47.0911 -3.8620 35.2110
v  -85.6193 -3.8620 40.9715
v  -85.5961 -3.8620 41.1265
v  -47.0679 -3.8620 35.3660
v  -46.4779 -3.5002 35.1193
v  -46.4547 -3.5002 35.2743
v  -23.0277 -3.5002 31.6132
v  -23.0045 -3.5002 31.7682
v  -22.4549 -3.8620 31.5275
v  -22.4317 -3.8620 31.6826
v  -0.4683 -3.8620 28.2402
v  -0.4451 -3.8620 28.3953
v  0.3437 -3.5002 28.1188
v  0.3669 -3.5002 28.2739
v  26.2359 -3.5002 24.2476
v  26.2590 -3.5002 24.4026
v  26.7665 -3.8620 24.1682
v  26.7897 -3.8620 24.3233
v  74.4144 -3.8620 17.0270
v  74.4376 -3.8620 17.1820
v  -7.3746 -3.0353 29.3726
v  -8.6375 -3.0353 29.5614
v  -8.1473 -3.0353 32.8399
v  -6.8845 -3.0353 32.6511
v  -54.2136 -3.0353 36.3756
v  -55.4764 -3.0353 36.5644
v  -54.9862 -3.0353 39.8430
v  -53.7234 -3.0353 39.6542
v  -55.0402 -3.0604 36.5923
v  -55.0310 -3.0315 36.6536
v  -55.4360 -3.0288 36.6331
v  -55.4451 -3.0577 36.5717
v  -55.0455 -3.1285 36.5568
v  -55.4504 -3.1258 36.5362
v  -55.0455 -3.4666 36.5568
v  -55.4504 -3.4639 36.5362
v  -55.4504 -3.5468 36.5362
v  -54.9618 -3.5495 36.5443
v  -54.2032 -3.0546 36.4677
v  -54.1941 -3.0340 36.5290
v  -54.9698 -3.0288 36.4955
v  -54.9789 -3.0493 36.4342
v  -54.2086 -3.1029 36.4322
v  -54.9842 -3.0977 36.3987
v  -54.1484 -3.3332 36.4339
v  -54.9842 -3.3280 36.3987
v  -54.9842 -3.3869 36.3987
v  -54.1484 -3.3921 36.4339
v  -8.2018 -3.0620 29.5853
v  -8.1926 -3.0332 29.6466
v  -8.5990 -3.0366 29.6303
v  -8.6082 -3.0654 29.5690
v  -8.2071 -3.1302 29.5498
v  -8.6135 -3.1336 29.5335
v  -8.2071 -3.4682 29.5498
v  -8.6135 -3.4716 29.5335
v  -8.6135 -3.5545 29.5335
v  -8.1234 -3.5511 29.5373
v  -7.3657 -3.0571 29.4687
v  -7.3565 -3.0366 29.5301
v  -8.1294 -3.0385 29.4922
v  -8.1386 -3.0590 29.4309
v  -7.3710 -3.1055 29.4332
v  -8.1439 -3.1074 29.3954
v  -7.3108 -3.3357 29.4350
v  -8.1439 -3.3377 29.3954
v  -8.1439 -3.3965 29.3954
v  -7.3108 -3.3946 29.4350
# 208 vertices

vn -0.0000 1.0000 -0.0000
vn -0.4985 0.8637 0.0745
vn 0.5240 0.8481 -0.0784
vn -0.3989 0.9151 0.0596
vn 0.5530 0.8291 -0.0827
vn -0.0392 -0.7372 0.6746
vn -0.0278 -0.9028 0.4292
vn -0.0410 -0.6977 0.7152
vn -0.0508 -0.2418 0.9690
vn -0.0509 -0.2298 0.9719
vn -0.0324 -0.0916 0.9953
vn -0.0507 -0.0000 0.9987
vn -0.0465 -0.0215 0.9987
vn -0.0172 -0.1661 0.9860
vn -0.0301 -0.8222 0.5684
vn -0.0202 -0.9473 0.3198
vn -0.0319 -0.7877 0.6153
vn -0.0432 -0.2977 0.9537
vn -0.0427 -0.2993 0.9532
vn -0.0425 -0.0014 0.9991
vn -0.0421 -0.0000 0.9991
vn -0.0208 -0.7392 0.6732
vn -0.0096 -0.9041 0.4271
vn -0.0228 -0.6990 0.7148
vn -0.0368 -0.2443 0.9690
vn -0.0371 -0.2287 0.9728
vn -0.0218 -0.0853 0.9961
vn -0.0401 -0.0000 0.9992
vn -0.0357 -0.0204 0.9992
vn -0.0065 -0.1557 0.9878
vn -0.0257 -0.8237 0.5664
vn -0.0133 -0.9477 0.3189
vn -0.0283 -0.7868 0.6165
vn -0.0459 -0.3002 0.9528
vn -0.0453 -0.2974 0.9537
vn -0.0480 -0.0019 0.9988
vn -0.0474 -0.0000 0.9989
# 37 vertex normals

vt 0.7593 0.3667 0.0001
vt 1.0000 0.3667 0.0001
vt 1.0000 0.5769 0.0001
vt 0.7593 0.5769 0.0001
vt 0.0705 0.3667 1.0000
vt 0.8893 0.3667 0.0001
vt 0.8893 0.5769 0.0001
vt 0.0705 0.5769 1.0000
vt 0.6089 0.3667 1.0000
vt 0.7554 0.3667 1.0000
vt 0.7554 0.5769 1.0000
vt 0.6089 0.5769 1.0000
vt 0.4679 0.3667 0.0000
vt 0.6053 0.3667 0.0001
vt 0.6053 0.5769 0.0001
vt 0.4679 0.5769 0.0001
vt 0.3011 0.3667 0.9999
vt 0.4629 0.3667 1.0000
vt 0.4629 0.5769 1.0000
vt 0.3011 0.5769 0.9999
vt 0.0000 0.3667 0.0000
vt 0.2977 0.3667 0.0000
vt 0.2977 0.5769 0.0000
vt 0.0000 0.5769 0.0000
vt 0.0000 0.3482 0.5000
vt 0.0000 -0.0000 0.5000
vt 1.0000 -0.0000 0.5000
vt 1.0000 0.3482 0.5000
vt 0.3271 0.9507 0.3739
vt 0.3315 0.9782 -0.0103
vt 0.0609 0.9791 0.3987
vt 0.0609 0.9517 0.7795
vt 0.3264 0.8855 0.5920
vt 0.0609 0.8870 1.0000
vt 0.3264 0.6872 0.5868
vt 0.0609 0.6872 1.0000
vt 0.0572 0.6304 1.0890
vt 0.3861 0.6304 0.5929
vt 0.8984 0.9501 0.2868
vt 0.8984 0.9791 0.0000
vt 0.3854 0.9791 0.5471
vt 0.3854 0.9501 0.8339
vt 0.8984 0.8816 0.4529
vt 0.3854 0.8816 1.0000
vt 0.9389 0.7782 0.4124
vt 0.3854 0.7782 1.0000
vt 0.3854 0.7377 1.0000
vt 0.9389 0.7377 0.4686
# 48 texture coords

g M_tongxin_T_tongxin
usemtl Material__0
s 1
f 1/1/1 2/2/1 3/3/1 4/4/1 
s 4
f 5/5/2 1/6/2 4/7/2 6/8/2 
s 2
f 7/9/1 5/10/1 6/11/1 8/12/1 
s 4
f 9/5/3 7/6/3 8/7/3 10/8/3 
s 2
f 11/13/1 9/14/1 10/15/1 12/16/1 
s 4
f 13/5/4 11/6/4 12/7/4 14/8/4 
s 2
f 15/17/1 13/18/1 14/19/1 16/20/1 
s 4
f 17/5/5 15/6/5 16/7/5 18/8/5 
s 2
f 19/21/1 17/22/1 18/23/1 20/24/1 
s 1
f 21/1/1 22/2/1 23/3/1 24/4/1 
s 4
f 25/5/2 21/6/2 24/7/2 26/8/2 
s 2
f 27/9/1 25/10/1 26/11/1 28/12/1 
s 4
f 29/5/3 27/6/3 28/7/3 30/8/3 
s 2
f 31/13/1 29/14/1 30/15/1 32/16/1 
s 4
f 33/5/4 31/6/4 32/7/4 34/8/4 
s 2
f 35/17/1 33/18/1 34/19/1 36/20/1 
s 4
f 37/5/5 35/6/5 36/7/5 38/8/5 
s 2
f 39/21/1 37/22/1 38/23/1 40/24/1 
s 1
f 41/1/1 42/2/1 43/3/1 44/4/1 
s 4
f 45/5/2 41/6/2 44/7/2 46/8/2 
s 2
f 47/9/1 45/10/1 46/11/1 48/12/1 
s 4
f 49/5/3 47/6/3 48/7/3 50/8/3 
s 2
f 51/13/1 49/14/1 50/15/1 52/16/1 
s 4
f 53/5/4 51/6/4 52/7/4 54/8/4 
s 2
f 55/17/1 53/18/1 54/19/1 56/20/1 
s 4
f 57/5/5 55/6/5 56/7/5 58/8/5 
s 2
f 59/21/1 57/22/1 58/23/1 60/24/1 
s 1
f 61/1/1 62/2/1 63/3/1 64/4/1 
s 4
f 65/5/2 61/6/2 64/7/2 66/8/2 
s 2
f 67/9/1 65/10/1 66/11/1 68/12/1 
s 4
f 69/5/3 67/6/3 68/7/3 70/8/3 
s 2
f 71/13/1 69/14/1 70/15/1 72/16/1 
s 4
f 73/5/4 71/6/4 72/7/4 74/8/4 
s 2
f 75/17/1 73/18/1 74/19/1 76/20/1 
s 4
f 77/5/5 75/6/5 76/7/5 78/8/5 
s 2
f 79/21/1 77/22/1 78/23/1 80/24/1 
s 1
f 81/1/1 82/2/1 83/3/1 84/4/1 
s 4
f 85/5/2 81/6/2 84/7/2 86/8/2 
s 2
f 87/9/1 85/10/1 86/11/1 88/12/1 
s 4
f 89/5/3 87/6/3 88/7/3 90/8/3 
s 2
f 91/13/1 89/14/1 90/15/1 92/16/1 
s 4
f 93/5/4 91/6/4 92/7/4 94/8/4 
s 2
f 95/17/1 93/18/1 94/19/1 96/20/1 
s 4
f 97/5/5 95/6/5 96/7/5 98/8/5 
s 2
f 99/21/1 97/22/1 98/23/1 100/24/1 
s 1
f 101/1/1 102/2/1 103/3/1 104/4/1 
s 4
f 105/5/2 101/6/2 104/7/2 106/8/2 
s 2
f 107/9/1 105/10/1 106/11/1 108/12/1 
s 4
f 109/5/3 107/6/3 108/7/3 110/8/3 
s 2
f 111/13/1 109/14/1 110/15/1 112/16/1 
s 4
f 113/5/4 111/6/4 112/7/4 114/8/4 
s 2
f 115/17/1 113/18/1 114/19/1 116/20/1 
s 4
f 117/5/5 115/6/5 116/7/5 118/8/5 
s 2
f 119/21/1 117/22/1 118/23/1 120/24/1 
s 1
f 121/1/1 122/2/1 123/3/1 124/4/1 
s 4
f 125/5/2 121/6/2 124/7/2 126/8/2 
s 2
f 127/9/1 125/10/1 126/11/1 128/12/1 
s 4
f 129/5/3 127/6/3 128/7/3 130/8/3 
s 2
f 131/13/1 129/14/1 130/15/1 132/16/1 
s 4
f 133/5/4 131/6/4 132/7/4 134/8/4 
s 2
f 135/17/1 133/18/1 134/19/1 136/20/1 
s 4
f 137/5/5 135/6/5 136/7/5 138/8/5 
s 2
f 139/21/1 137/22/1 138/23/1 140/24/1 
s 1
f 141/1/1 142/2/1 143/3/1 144/4/1 
s 4
f 145/5/2 141/6/2 144/7/2 146/8/2 
s 2
f 147/9/1 145/10/1 146/11/1 148/12/1 
s 4
f 149/5/3 147/6/3 148/7/3 150/8/3 
s 2
f 151/13/1 149/14/1 150/15/1 152/16/1 
s 4
f 153/5/4 151/6/4 152/7/4 154/8/4 
s 2
f 155/17/1 153/18/1 154/19/1 156/20/1 
s 4
f 157/5/5 155/6/5 156/7/5 158/8/5 
s 2
f 159/21/1 157/22/1 158/23/1 160/24/1 
s 1
f 161/25/1 162/26/1 163/27/1 164/28/1 
f 165/25/1 166/26/1 167/27/1 168/28/1 
f 169/29/6 170/30/7 171/31/7 172/32/8 
f 173/33/9 169/29/6 172/32/8 174/34/10 
f 175/35/11 173/33/9 174/34/10 176/36/12 
f 177/37/13 178/38/14 175/35/11 176/36/12 
f 179/39/15 180/40/16 181/41/16 182/42/17 
f 183/43/18 179/39/15 182/42/17 184/44/19 
f 185/45/20 183/43/18 184/44/19 186/46/21 
f 187/47/21 188/48/21 185/45/20 186/46/21 
f 189/29/22 190/30/23 191/31/23 192/32/24 
f 193/33/25 189/29/22 192/32/24 194/34/26 
f 195/35/27 193/33/25 194/34/26 196/36/28 
f 197/37/29 198/38/30 195/35/27 196/36/28 
f 199/39/31 200/40/32 201/41/32 202/42/33 
f 203/43/34 199/39/31 202/42/33 204/44/35 
f 205/45/36 203/43/34 204/44/35 206/46/37 
f 207/47/37 208/48/37 205/45/36 206/46/37 
# 90 polygons

