# 3ds Max Wavefront OBJ Exporter v0.97b - (c)2007 guruware
# File Created: 26.06.2018 21:17:55

mtllib M_Tt_WDXX_01.mtl

#
# object M_Tt_WDXX_01
#

v  35.9669 13.4574 41.5764
v  34.9887 13.4574 34.7251
v  34.9887 13.9199 34.7252
v  35.9678 13.9199 41.5835
v  34.3421 13.4574 30.1951
v  34.3421 13.9199 30.1951
v  52.1380 13.4574 39.2582
v  45.2162 13.4574 40.2463
v  45.2162 13.9199 40.2463
v  52.1380 13.9199 39.2582
v  60.7410 13.4574 38.0394
v  60.7410 13.9199 38.0394
v  60.6345 13.9199 37.2915
v  60.6345 13.4574 37.2914
v  41.3310 13.4574 29.1977
v  41.3310 13.9199 29.1977
v  41.3722 16.7916 28.0821
v  41.3711 17.2542 28.0750
v  42.3632 17.2542 35.0240
v  42.3632 16.7916 35.0240
v  43.0185 17.2542 39.6140
v  43.0185 16.7916 39.6140
v  55.2164 16.7916 26.1114
v  55.2164 17.2541 26.1114
v  48.2943 17.2541 27.0968
v  48.2943 16.7916 27.0968
v  63.8172 16.7916 24.8777
v  64.8084 16.7916 31.8196
v  64.8083 17.2542 31.8196
v  63.8172 17.2541 24.8777
v  65.4636 16.7916 36.4095
v  65.4636 17.2541 36.4095
v  64.0702 17.2541 36.6094
v  64.0702 16.7917 36.6094
v  45.8754 17.2542 39.2073
v  45.8754 16.7917 39.2073
v  44.5029 22.0258 28.2447
v  44.5018 22.4883 28.2375
v  45.4939 22.4883 35.1865
v  45.4939 22.0258 35.1865
v  46.4851 22.4883 42.1283
v  46.4851 22.0258 42.1283
v  58.3471 22.0258 26.2739
v  58.3471 22.4883 26.2739
v  51.4250 22.4883 27.2593
v  51.4250 22.0258 27.2593
v  62.3251 22.0258 25.7076
v  63.3162 22.0258 32.6495
v  63.3161 22.4883 32.6494
v  62.3251 22.4883 25.7076
v  64.3072 22.0258 39.5913
v  64.3072 22.4883 39.5913
v  60.3292 22.0258 40.1576
v  53.4071 22.0258 41.1430
v  53.4071 22.4883 41.1430
v  60.3292 22.4883 40.1576
v  28.9751 18.4574 50.8617
v  28.9751 18.9199 50.8617
v  29.9752 18.9199 57.8673
v  29.9752 18.4574 57.8673
v  29.4614 18.4574 50.7923
v  29.4614 18.9199 50.7923
v  30.9753 18.9199 64.8728
v  30.9753 18.4574 64.8728
v  37.8689 18.9199 63.8886
v  37.8689 18.4574 63.8886
v  44.7625 18.9199 62.9045
v  44.7625 18.4574 62.9045
v  44.5152 18.4574 61.1721
v  44.5152 18.9199 61.1721
v  29.2587 15.0582 63.3700
v  28.2231 15.0582 56.0941
v  28.2231 15.5208 56.0941
v  29.2587 15.5208 63.3700
v  30.5502 15.5208 63.1864
v  30.5502 15.0582 63.1865
v  27.1876 15.0582 48.8183
v  27.1876 15.5208 48.8183
v  33.7085 15.0582 47.8873
v  33.7085 15.5208 47.8873
v  40.2294 15.0582 46.9563
v  40.2294 15.5208 46.9563
v  40.5228 15.0583 49.0206
v  40.5228 15.5208 49.0206
v  44.1952 29.1292 62.3848
v  37.2932 29.1292 63.3702
v  37.2933 29.5917 63.3702
v  44.1952 29.5917 62.3848
v  30.3913 29.1291 64.3556
v  30.3913 29.5916 64.3556
v  28.4071 29.1291 50.4576
v  28.4071 29.5916 50.4576
v  29.3992 29.5917 57.4066
v  29.3992 29.1291 57.4066
v  42.2110 29.1291 48.4868
v  42.2110 29.5916 48.4868
v  35.3090 29.5916 49.4722
v  35.3090 29.1291 49.4722
v  43.2031 29.1291 55.4359
v  43.2031 29.5917 55.4358
v  45.4989 23.5561 60.8469
v  45.4989 24.0186 60.8469
v  44.5322 24.0186 54.1187
v  44.5322 23.5561 54.1187
v  44.2081 23.5561 61.0355
v  44.2081 24.0186 61.0354
v  43.5655 24.0186 47.3905
v  43.5655 23.5561 47.3905
v  36.5144 24.0186 48.3972
v  36.5143 23.5561 48.3972
v  29.4633 24.0186 49.4038
v  29.4633 23.5561 49.4038
v  29.5647 23.5561 50.0984
v  29.5647 24.0186 50.0984
v  61.7379 6.5223 31.4679
v  61.7470 6.5873 31.5274
v  61.7599 6.6359 31.6119
v  61.7346 6.4530 31.4464
v  61.7754 6.6625 31.7132
v  61.7753 6.3109 31.7129
v  61.7373 6.3888 31.4641
v  61.7581 6.3094 31.6004
v  61.7455 6.3384 31.5173
v  63.7346 6.7270 31.5535
v  63.7129 6.7325 31.4014
v  63.7129 6.3372 31.4014
v  63.7346 6.3317 31.5535
v  64.0841 7.8986 34.0023
v  64.0841 7.5033 34.0023
v  64.2100 7.8621 34.8850
v  64.2100 7.4668 34.8850
v  64.7351 9.6005 38.5651
v  64.7351 9.2053 38.5651
v  63.0401 6.7270 31.6526
v  63.0401 6.3317 31.6526
v  63.0184 6.3372 31.5005
v  63.0184 6.7325 31.5005
v  63.3895 7.8986 34.1014
v  63.3895 7.5033 34.1014
v  63.5155 7.8621 34.9841
v  63.5155 7.4668 34.9841
v  64.0406 9.6005 38.6642
v  64.0406 9.2053 38.6642
v  65.2445 9.2053 38.5398
v  65.2445 9.6005 38.5398
v  38.3285 9.3666 65.0803
v  38.3398 9.8007 65.0471
v  40.8234 8.1838 64.7040
v  40.7320 7.7822 64.7372
v  41.1862 8.1838 64.6522
v  41.0949 7.7822 64.6854
v  43.1143 6.8358 64.3623
v  43.1256 6.4037 64.3954
v  38.4698 9.3666 65.8225
v  38.4811 9.8007 65.7893
v  40.9646 8.1838 65.4462
v  40.8733 7.7823 65.4794
v  41.3275 8.1838 65.3944
v  41.2362 7.7823 65.4275
v  43.2555 6.8358 65.1045
v  43.2669 6.4037 65.1376
v  61.9007 6.7882 32.5346
v  62.7101 9.4032 37.8368
v  62.7188 9.0818 37.8940
v  61.9214 6.4234 32.6704
v  62.8645 9.5500 38.8487
v  62.8644 9.2014 38.8481
v  62.8798 9.5487 38.9491
v  62.8926 9.5217 39.0329
v  62.9013 9.4719 39.0898
v  62.9013 9.3399 39.0897
v  62.9043 9.4084 39.1093
v  62.8926 9.2759 39.0326
v  62.8798 9.2279 38.9487
v  62.2440 6.5223 31.4070
v  62.2530 6.5873 31.4665
v  62.2659 6.6358 31.5509
v  62.2407 6.4530 31.3854
v  62.2814 6.6625 31.6522
v  62.2813 6.3109 31.6519
v  62.2434 6.3888 31.4032
v  62.2642 6.3094 31.5395
v  62.2515 6.3384 31.4564
v  62.4068 6.7882 32.4737
v  63.2161 9.4032 37.7759
v  63.2248 9.0817 37.8331
v  62.4275 6.4233 32.6095
v  63.3705 9.5500 38.7878
v  63.3704 9.2014 38.7872
v  63.3858 9.5487 38.8882
v  63.3987 9.5216 38.9720
v  63.4073 9.4718 39.0289
v  63.4073 9.3399 39.0287
v  63.4103 9.4083 39.0484
v  63.3986 9.2759 38.9717
v  63.3858 9.2279 38.8878
v  62.3535 6.5223 31.3851
v  62.3625 6.5873 31.4446
v  62.3754 6.6358 31.5291
v  62.3502 6.4530 31.3636
v  62.3909 6.6625 31.6304
v  62.3908 6.3109 31.6301
v  62.3529 6.3888 31.3813
v  62.3737 6.3094 31.5176
v  62.3610 6.3384 31.4345
v  62.5163 6.7882 32.4519
v  63.3256 9.4032 37.7541
v  63.3343 9.0817 37.8113
v  62.5370 6.4233 32.5877
v  63.4800 9.5500 38.7659
v  63.4799 9.2014 38.7653
v  63.4954 9.5487 38.8663
v  63.5082 9.5216 38.9501
v  63.5168 9.4718 39.0070
v  63.5168 9.3399 39.0069
v  63.5198 9.4083 39.0266
v  63.5081 9.2759 38.9498
v  63.4953 9.2279 38.8660
v  62.8608 6.5223 31.3327
v  62.8699 6.5873 31.3922
v  62.8828 6.6358 31.4767
v  62.8575 6.4530 31.3112
v  62.8982 6.6625 31.5780
v  62.8982 6.3109 31.5777
v  62.8602 6.3887 31.3289
v  62.8810 6.3094 31.4652
v  62.8683 6.3384 31.3821
v  63.0236 6.7882 32.3994
v  63.8329 9.4031 37.7016
v  63.8417 9.0817 37.7588
v  63.0443 6.4233 32.5352
v  63.9874 9.5500 38.7135
v  63.9873 9.2014 38.7129
v  64.0027 9.5487 38.8139
v  64.0155 9.5216 38.8977
v  64.0241 9.4718 38.9546
v  64.0241 9.3399 38.9545
v  64.0271 9.4083 38.9741
v  64.0155 9.2759 38.8974
v  64.0027 9.2278 38.8135
# 240 vertices

vn -0.9900 -0.0001 0.1413
vn -0.9900 -0.0000 0.1413
vn 0.1413 0.0000 0.9900
vn 0.1427 -0.0077 0.9897
vn 0.9900 0.0001 -0.1409
vn 0.1403 -0.0000 0.9901
vn -0.1413 0.0000 -0.9900
vn -0.9900 0.0000 0.1413
vn -0.1409 0.0000 -0.9900
vn -0.1404 -0.0078 -0.9901
vn 0.9900 0.0000 -0.1413
vn -0.1420 0.0000 -0.9899
vn 0.1420 0.0000 0.9899
vn 0.1409 0.0000 0.9900
vn -0.1409 -0.0000 -0.9900
vn 0.9900 -0.0000 -0.1413
vn -0.9900 0.0000 0.1409
vn 0.1407 0.0000 0.9901
vn -0.1413 -0.0000 -0.9900
vn 0.9901 -0.0000 -0.1407
vn 0.1413 -0.0000 0.9900
vn 0.9898 -0.0000 -0.1422
vn 0.1446 0.0000 0.9895
vn -0.9895 0.0000 0.1445
vn -0.9886 0.0000 0.1509
vn -0.9885 -0.0001 0.1510
vn -0.9885 0.0000 0.1509
vn -0.9885 -0.0001 0.1509
vn -0.9886 0.0002 0.1508
vn -0.9886 -0.0003 0.1508
vn 0.9900 -0.0000 -0.1412
vn -0.0496 -0.0000 -0.9988
vn 0.1751 0.0565 0.9829
vn 0.1412 0.0496 0.9887
vn 0.1852 0.0603 0.9809
vn -0.9885 0.0003 0.1509
vn -0.9886 0.0000 0.1508
vn -0.9886 -0.0000 0.1509
vn -0.9886 -0.0000 0.1508
vn -0.9885 -0.0007 0.1514
vn -0.9885 -0.0000 0.1509
vn -0.9885 -0.0006 0.1513
vn -0.9886 0.0001 0.1507
vn -0.9886 0.0001 0.1508
vn -0.9886 -0.0012 0.1507
vn -0.9885 0.0001 0.1509
vn -0.9886 0.0001 0.1509
vn -0.9885 -0.0000 0.1510
vn -0.9884 0.0019 0.1518
vn -0.9886 -0.0001 0.1508
vn -0.9885 -0.0008 0.1513
vn -0.9885 -0.0006 0.1512
vn -0.9886 -0.0007 0.1507
vn -0.9885 0.0002 0.1510
vn -0.9884 0.0029 0.1521
vn -0.9886 -0.0002 0.1508
vn -0.9885 -0.0001 0.1512
vn -0.9884 -0.0016 0.1519
vn -0.9886 0.0003 0.1506
vn -0.9886 0.0007 0.1508
vn -0.9886 -0.0003 0.1507
vn -0.9885 -0.0001 0.1511
vn -0.9885 0.0001 0.1510
vn -0.9883 0.0034 0.1523
vn -0.9886 0.0001 0.1506
vn -0.9884 -0.0003 0.1516
# 66 vertex normals

vt -2.6986 0.0001 0.5000
vt -1.7034 0.0013 0.5000
vt -1.7034 0.9091 0.5000
vt -2.6986 0.9091 0.5000
vt 3.7078 0.0000 0.5000
vt 3.0476 0.0000 0.5000
vt 3.0476 0.9094 0.5000
vt 3.7078 0.9103 0.5000
vt -3.0334 -0.0003 0.5000
vt -2.0383 0.0013 0.5000
vt -2.0383 0.9091 0.5000
vt -3.0334 0.9092 0.5000
vt 4.0437 -0.0001 0.5000
vt 2.7094 0.0000 0.5000
vt 2.7094 0.9090 0.5000
vt 4.0437 0.9102 0.5000
vt -2.6981 -0.0005 0.5000
vt -2.6981 0.9085 0.5000
vt -2.5909 0.9095 0.5000
vt -2.5909 -0.0003 0.5000
vt -3.2750 -0.0006 0.5000
vt -2.0383 0.0014 0.5000
vt -3.2750 0.9090 0.5000
vt 2.7093 0.9090 0.5000
vt 2.7093 0.0001 0.5000
vt 3.7173 0.0001 0.5000
vt 3.7173 0.9105 0.5000
vt -2.6996 -0.0003 0.5000
vt -1.7045 0.0009 0.5000
vt -1.7045 0.9088 0.5000
vt -2.6996 0.9087 0.5000
vt 3.7088 -0.0003 0.5000
vt 3.0487 -0.0003 0.5000
vt 3.0487 0.9087 0.5000
vt 3.7088 0.9100 0.5000
vt -2.9401 -0.0002 0.5000
vt -2.9401 0.9090 0.5000
vt -2.7396 0.9090 0.5000
vt -2.9400 0.9090 0.5000
vt -2.9400 0.0006 0.5000
vt -2.7396 0.0008 0.5000
vt 3.1213 0.9096 0.5000
vt 3.1213 0.0001 0.5000
vt -2.2753 0.0006 0.5000
vt -2.2753 0.9091 0.5000
vt 0.0012 0.0000 0.5000
vt 0.0012 0.9091 0.5000
vt 0.9963 0.9091 0.5000
vt 0.9963 0.0000 0.5000
vt 0.0943 0.0000 0.0000
vt 0.0012 0.0000 0.0000
vt 0.0012 0.9098 0.0000
vt 0.0943 0.9098 0.0000
vt 0.9993 0.0000 0.5000
vt 0.9993 0.9091 0.5000
vt 0.0010 0.9091 0.5000
vt 0.0010 0.0000 0.5000
vt 0.2479 0.0000 0.5000
vt 0.2479 0.9091 0.5000
vt 0.4534 0.0000 0.5000
vt 1.4485 0.0000 0.5000
vt 1.4485 0.9091 0.5000
vt 0.4534 0.9092 0.5000
vt 3.6759 0.0001 0.0000
vt 3.6757 0.9099 0.0000
vt 3.4284 0.9087 0.0000
vt 3.4286 0.0001 0.0000
vt 0.5457 0.0000 0.5000
vt -0.4527 0.0000 0.5000
vt -0.4527 0.9091 0.5000
vt 0.5457 0.9091 0.5000
vt -0.1585 0.0000 0.5000
vt -0.1585 0.9091 0.5000
vt -0.4526 0.9091 0.5000
vt -0.4526 0.0000 0.5000
vt -0.3536 0.0000 0.5000
vt -0.3536 0.9090 0.5000
vt 0.0101 0.1544 1.0000
vt 0.0178 0.1690 0.9999
vt 0.0286 0.1799 0.9999
vt 0.0073 0.1388 1.0000
vt 0.0416 0.1859 0.9998
vt 0.0416 0.1069 0.9998
vt 0.0096 0.1244 1.0000
vt 0.0271 0.1066 0.9999
vt 0.0165 0.1131 1.0000
vt 0.5000 0.5000 0.1209
vt 0.5000 0.5000 0.1226
vt 0.5000 0.5000 0.0017
vt 0.5000 0.5000 0.0000
vt 0.5000 0.5000 0.4793
vt 0.5000 0.5000 0.3584
vt 0.5000 0.5000 0.4682
vt 0.5000 0.5000 0.3473
vt 0.5000 0.5000 1.0000
vt 0.5000 0.5000 0.8791
vt 0.0000 0.0000 0.8722
vt 0.0001 0.9260 1.0000
vt 0.5175 0.9260 0.5240
vt 0.5010 0.0000 0.4058
vt 0.5931 0.9260 0.5240
vt 0.5767 0.0000 0.4058
vt 0.9987 0.9260 0.1272
vt 1.0000 0.0000 0.0000
vt 0.1472 0.2142 0.9993
vt 0.8284 0.8019 0.9958
vt 0.8357 0.7296 0.9958
vt 0.1646 0.1322 0.9992
vt 0.9584 0.8349 0.9952
vt 0.9583 0.7565 0.9952
vt 0.9713 0.8346 0.9951
vt 0.9821 0.8285 0.9951
vt 0.9894 0.8173 0.9950
vt 0.9894 0.7876 0.9950
vt 0.9919 0.8030 0.9950
vt 0.9820 0.7733 0.9951
vt 0.9713 0.7625 0.9951
vt 0.0153 0.1603 1.0000
vt 0.0285 0.1709 0.9999
vt 0.0345 0.1782 0.9999
vt -0.0020 0.1417 1.0000
vt 0.0447 0.1862 0.9998
vt 0.0455 0.1057 0.9998
vt -0.0163 0.1208 1.0001
vt 0.0374 0.0983 0.9998
vt 0.0203 0.1144 0.9999
vt 0.1495 0.2143 0.9993
vt 0.8303 0.8011 0.9958
vt 0.8381 0.7292 0.9958
vt 0.1669 0.1325 0.9992
vt 0.9585 0.8360 0.9952
vt 0.9593 0.7565 0.9952
vt 0.9655 0.8380 0.9952
vt 0.9904 0.8283 0.9950
vt 1.0079 0.8092 0.9949
vt 0.9942 0.7794 0.9950
vt 1.0165 0.7958 0.9949
vt 0.9767 0.7724 0.9951
vt 0.9698 0.7644 0.9951
vt 0.0146 0.1602 1.0000
vt 0.0284 0.1704 0.9999
vt 0.0340 0.1779 0.9999
vt -0.0027 0.1417 1.0001
vt 0.0442 0.1861 0.9998
vt 0.0450 0.1056 0.9998
vt -0.0196 0.1236 1.0001
vt 0.0362 0.0989 0.9999
vt 0.0187 0.1159 0.9999
vt 0.1487 0.2144 0.9993
vt 0.8297 0.8012 0.9958
vt 0.8374 0.7292 0.9958
vt 0.1663 0.1326 0.9992
vt 0.9580 0.8359 0.9952
vt 0.9587 0.7565 0.9952
vt 0.9640 0.8383 0.9952
vt 0.9887 0.8285 0.9950
vt 1.0072 0.8092 0.9949
vt 0.9932 0.7799 0.9950
vt 1.0148 0.7972 0.9949
vt 0.9770 0.7715 0.9951
vt 0.9692 0.7641 0.9951
vt 0.0188 0.1599 0.9999
vt 0.0277 0.1734 0.9999
vt 0.0366 0.1793 0.9999
vt -0.0010 0.1436 1.0000
vt 0.0470 0.1862 0.9998
vt 0.0475 0.1063 0.9998
vt -0.0061 0.1077 1.0001
vt 0.0424 0.0960 0.9998
vt 0.0268 0.1080 0.9999
vt 0.1523 0.2141 0.9993
vt 0.8329 0.8009 0.9958
vt 0.8409 0.7293 0.9958
vt 0.1695 0.1320 0.9992
vt 0.9603 0.8362 0.9952
vt 0.9616 0.7565 0.9952
vt 0.9710 0.8368 0.9951
vt 0.9969 0.8273 0.9950
vt 1.0108 0.8096 0.9949
vt 0.9978 0.7787 0.9950
vt 1.0226 0.7917 0.9949
vt 0.9772 0.7748 0.9951
vt 0.9718 0.7656 0.9951
# 183 texture coords

g M_Tt_WDXX_01
usemtl Tt_WDXX_01
s off
f 4/4/1 3/3/1 2/2/1 1/1/1 
f 3/8/2 6/7/2 5/6/2 2/5/2 
f 10/12/3 9/11/3 8/10/3 7/9/3 
f 9/16/4 4/15/4 1/14/4 8/13/4 
f 14/20/5 13/19/5 12/18/5 11/17/5 
f 12/23/6 10/11/6 7/22/6 11/21/6 
f 16/27/7 15/26/7 5/25/7 6/24/7 
f 20/2/1 19/3/1 18/4/1 17/1/1 
f 22/6/8 21/7/8 19/8/8 20/5/8 
f 26/2/9 25/3/9 24/4/9 23/1/9 
f 17/14/10 18/15/10 25/8/10 26/5/10 
f 30/31/11 29/30/11 28/29/11 27/28/11 
f 29/35/11 32/34/11 31/33/11 28/32/11 
f 23/2/12 24/3/12 30/37/12 27/36/12 
f 34/41/13 31/40/13 32/39/13 33/38/13 
f 22/25/14 36/43/14 35/42/14 21/24/14 
f 40/2/1 39/3/1 38/4/1 37/1/1 
f 42/14/8 41/15/8 39/8/8 40/5/8 
f 46/2/9 45/3/9 44/4/9 43/1/9 
f 37/14/10 38/15/10 45/8/10 46/5/10 
f 50/4/11 49/3/11 48/2/11 47/1/11 
f 49/8/11 52/15/11 51/14/11 48/5/11 
f 43/2/15 44/3/15 50/45/15 47/44/15 
f 56/4/14 55/3/14 54/2/14 53/1/14 
f 55/8/14 41/15/14 42/14/14 54/5/14 
f 52/45/14 56/3/14 53/2/14 51/44/14 
f 60/49/2 59/48/2 58/47/2 57/46/2 
f 58/53/7 62/52/7 61/51/7 57/50/7 
f 64/57/8 63/56/8 59/55/8 60/54/8 
f 66/49/3 65/48/3 63/47/3 64/46/3 
f 68/57/3 67/56/3 65/55/3 66/54/3 
f 70/59/16 67/56/16 68/57/16 69/58/16 
f 74/63/17 73/62/17 72/61/17 71/60/17 
f 76/67/18 75/66/18 74/65/18 71/64/18 
f 73/71/17 78/70/17 77/69/17 72/68/17 
f 78/4/19 80/3/19 79/2/19 77/1/19 
f 80/8/19 82/15/19 81/14/19 79/5/19 
f 81/75/20 82/74/20 84/73/20 83/72/20 
f 88/4/21 87/3/21 86/2/21 85/1/21 
f 87/8/21 90/15/21 89/14/21 86/5/21 
f 94/2/8 93/3/8 92/4/8 91/1/8 
f 89/14/8 90/15/8 93/8/8 94/5/8 
f 98/2/7 97/3/7 96/4/7 95/1/7 
f 91/14/7 92/15/7 97/8/7 98/5/7 
f 96/4/11 100/3/11 99/2/11 95/1/11 
f 100/8/11 88/15/11 85/14/11 99/5/11 
f 104/61/22 103/62/22 102/63/22 101/60/22 
f 102/65/23 106/66/23 105/67/23 101/64/23 
f 108/69/22 107/70/22 103/71/22 104/68/22 
f 110/2/7 109/3/7 107/4/7 108/1/7 
f 112/14/7 111/15/7 109/8/7 110/5/7 
f 114/77/24 111/74/24 112/75/24 113/76/24 
s 1
f 118/81/26 117/80/27 116/79/26 115/78/25 
f 121/84/28 120/83/25 119/82/27 117/80/27 
f 121/84/28 123/86/30 122/85/29 120/83/25 
f 118/81/26 121/84/28 117/80/27 
f 127/90/31 126/89/31 125/88/31 124/87/31 
s 4
f 129/92/16 127/90/16 124/87/16 128/91/16 
s 2
f 131/94/16 129/92/16 128/91/16 130/93/16 
s 4
f 133/96/16 131/94/16 130/93/16 132/95/16 
s 1
f 137/88/8 136/89/8 135/90/8 134/87/8 
s 4
f 134/87/8 135/90/8 139/92/8 138/91/8 
s 2
f 138/91/8 139/92/8 141/94/8 140/93/8 
s 4
f 140/93/8 141/94/8 143/96/8 142/95/8 
s off
f 132/95/32 145/95/32 144/96/32 133/96/32 
f 149/100/33 148/99/33 147/98/33 146/97/33 
f 151/102/34 150/101/34 148/99/34 149/100/34 
f 153/104/35 152/103/35 150/101/35 151/102/35 
f 157/100/33 156/99/33 155/98/33 154/97/33 
f 159/102/34 158/101/34 156/99/34 157/100/34 
f 161/104/35 160/103/35 158/101/35 159/102/35 
s 1
f 165/108/25 164/107/25 163/106/25 162/105/25 
f 164/107/25 167/110/25 166/109/27 163/106/25 
f 171/114/38 170/113/37 169/112/36 168/111/25 
f 171/114/38 172/115/39 170/113/37 
f 168/111/25 174/117/41 173/116/40 171/114/38 
f 166/109/27 167/110/25 174/117/41 168/111/25 
f 119/82/27 120/83/25 165/108/25 162/105/25 
f 178/121/43 177/120/27 176/119/42 175/118/37 
f 181/124/44 180/123/38 179/122/27 177/120/27 
f 181/124/44 183/126/46 182/125/45 180/123/38 
f 178/121/43 181/124/44 177/120/27 
f 187/130/47 186/129/25 185/128/25 184/127/47 
f 186/129/25 189/132/48 188/131/41 185/128/25 
f 193/136/50 192/135/47 191/134/49 190/133/46 
f 193/136/50 194/137/39 192/135/47 
f 190/133/46 196/139/26 195/138/51 193/136/50 
f 188/131/41 189/132/48 196/139/26 190/133/46 
f 179/122/27 180/123/38 187/130/47 184/127/47 
f 200/143/43 199/142/37 198/141/52 197/140/37 
f 203/146/44 202/145/25 201/144/25 199/142/37 
f 203/146/44 205/148/37 204/147/53 202/145/25 
f 200/143/43 203/146/44 199/142/37 
f 209/152/47 208/151/25 207/150/38 206/149/47 
f 208/151/25 211/154/48 210/153/48 207/150/38 
f 215/158/56 214/157/43 213/156/55 212/155/54 
f 215/158/56 216/159/57 214/157/43 
f 212/155/54 218/161/26 217/160/58 215/158/56 
f 210/153/48 211/154/48 218/161/26 212/155/54 
f 201/144/25 202/145/25 209/152/47 206/149/47 
f 222/165/43 221/164/47 220/163/59 219/162/43 
f 225/168/39 224/167/44 223/166/46 221/164/47 
f 225/168/39 227/170/61 226/169/60 224/167/44 
f 222/165/43 225/168/39 221/164/47 
f 231/174/47 230/173/25 229/172/38 228/171/47 
f 230/173/25 233/176/48 232/175/62 229/172/38 
f 237/180/56 236/179/65 235/178/64 234/177/63 
f 237/180/56 238/181/66 236/179/65 
f 234/177/63 240/183/26 239/182/58 237/180/56 
f 232/175/62 233/176/48 240/183/26 234/177/63 
f 223/166/46 224/167/44 231/174/47 228/171/47 
# 103 polygons - 8 triangles

