# 3ds Max Wavefront OBJ Exporter v0.97b - (c)2007 guruware
# File Created: 28.06.2018 17:53:17

mtllib M_XA_N_B2S_louban.mtl

#
# object M_XA_N_B2S_louban
#

v  -1315.2809 81.2376 -1364.8680
v  -1315.2809 81.2376 1399.4406
v  1449.0277 81.2376 1399.4406
v  1449.0277 81.2376 -1364.8680
# 4 vertices

vn 0.0000 1.0000 -0.0000
# 1 vertex normals

vt 0.0000 1.0000 0.0000
vt 0.0000 0.0000 0.0000
vt 1.0000 0.0000 0.0000
vt 1.0000 1.0000 0.0000
# 4 texture coords

g M_XA_N_B2S_louban
usemtl Tt_N_B2S_louban
s 1
f 1/1/1 2/2/1 3/3/1 4/4/1 
# 1 polygons

