# 3ds Max Wavefront OBJ Exporter v0.97b - (c)2007 guruware
# File Created: 28.06.2018 17:34:12

mtllib M_XA_N_B2S_langang.mtl

#
# object M_XA_N_B2S_langang
#

v  -500.5325 22.2541 -547.9885
v  -500.5325 2.9008 -547.9885
v  -445.8407 38.4580 -547.9904
v  -445.8407 57.6400 -547.9904
v  -501.1102 75.6505 -552.7466
v  -501.1102 95.5584 -552.7466
v  -445.8405 60.3141 -552.7466
v  -445.8405 40.4062 -552.7466
v  -445.8405 57.1758 -552.7466
v  -445.8407 57.1758 -547.9904
v  -445.8407 40.4217 -547.9904
v  -445.8405 40.4217 -552.7466
v  -505.6047 75.6505 -552.7466
v  -505.6047 95.5584 -552.7466
# 14 vertices

vn -0.0000 0.0000 -1.0000
vn -0.0000 0.0000 1.0000
vn -1.0000 -0.0000 -0.0000
# 3 vertex normals

vt 3.0430 0.9989 0.0000
vt 3.0430 0.1127 0.0000
vt 0.0010 0.1127 0.0000
vt 0.0010 0.9989 0.0000
vt 0.0874 0.9989 0.0000
vt 0.5617 0.9989 0.0000
vt 0.5617 0.2268 0.0000
vt 0.0874 0.2268 0.0000
vt 0.2266 0.9989 0.0000
vt 0.2266 0.1127 0.0000
vt 0.0030 0.1127 0.0000
vt 0.0030 0.9989 0.0000
# 12 texture coords

g M_XA_N_B2S_langang
usemtl Tt_K_B2A_langan
s off
f 4/4/1 3/3/1 2/2/1 1/1/1 
f 8/2/2 7/1/2 6/4/2 5/3/2 
f 12/8/3 11/7/3 10/6/3 9/5/3 
f 14/12/2 13/11/2 5/10/2 6/9/2 
# 4 polygons

