# 3ds Max Wavefront OBJ Exporter v0.97b - (c)2007 guruware
# File Created: 26.06.2018 16:56:58

mtllib M_XA_N_B1A_text.mtl

#
# object M_XA_N_B1A_text
#

v  -1304.1108 47.0212 1170.0239
v  1420.4890 47.0212 1170.0239
v  1420.4890 47.0212 -1226.5125
v  -1304.1108 47.0212 -1226.5125
# 4 vertices

vn 0.0000 1.0000 -0.0000
# 1 vertex normals

vt 0.0021 0.0529 0.0000
vt 0.9978 0.0541 0.0000
vt 0.9978 0.9309 0.0000
vt 0.0021 0.9297 0.0000
# 4 texture coords

g M_XA_N_B1A_text
usemtl N_B1_A_text
s 1
f 1/1/1 2/2/1 3/3/1 4/4/1 
# 1 polygons

