# 3ds Max Wavefront OBJ Exporter v0.97b - (c)2007 guruware
# File Created: 06.07.2018 14:34:03

mtllib M_XA_huandaoMEP_zhaoming.mtl

#
# object M_XA_huandaoMEP_zhaoming
#

v  -28.9553 -26.9324 76.2749
v  37.2459 -26.9324 65.6279
v  13.3250 -26.9324 -83.1082
v  -52.8761 -26.9324 -72.4612
# 4 vertices

vn 0.0000 1.0000 -0.0000
# 1 vertex normals

vt 0.0017 0.0044 0.0000
vt 0.8876 0.0044 0.0000
vt 0.8876 0.9998 0.0000
vt 0.0017 0.9998 0.0000
# 4 texture coords

g M_XA_huandaoMEP_zhaoming
usemtl huandao_MEP_zhaoming
s 1
f 1/1/1 2/2/1 3/3/1 4/4/1 
# 1 polygons

