# 3ds Max Wavefront OBJ Exporter v0.97b - (c)2007 guruware
# File Created: 26.06.2018 16:50:25

mtllib M_XA_N_B1A_floor_01.mtl

#
# object M_XA_N_B1A_floor_01
#

v  -1038.9476 43.7911 739.9454
v  1173.6865 43.7911 739.9454
v  1173.6865 43.7911 -1229.6854
v  -1038.9476 43.7911 -1229.6854
# 4 vertices

vn 0.0000 1.0000 -0.0000
# 1 vertex normals

vt 0.0138 0.0582 0.0000
vt 0.9950 0.0582 0.0000
vt 0.9950 0.9270 0.0000
vt 0.0138 0.9270 0.0000
# 4 texture coords

g M_XA_N_B1A_floor_01
usemtl N_B1_A_floor_01
s 1
f 1/1/1 2/2/1 3/3/1 4/4/1 
# 1 polygons

