# 3ds Max Wavefront OBJ Exporter v0.97b - (c)2007 guruware
# File Created: 06.07.2018 14:36:36

mtllib M_XA_huandaoMEP_xiaofang.mtl

#
# object M_XA_huandaoMEP_xiaofang
#

v  -25.4745 -26.9128 71.5114
v  30.8921 -26.9128 62.4461
v  8.1008 -26.9128 -79.2669
v  -48.2659 -26.9128 -70.2016
# 4 vertices

vn 0.0000 1.0000 -0.0000
# 1 vertex normals

vt -0.0002 0.0032 0.0000
vt 0.7927 0.0021 0.0000
vt 0.7927 1.0000 0.0000
vt -0.0002 1.0000 0.0000
# 4 texture coords

g M_XA_huandaoMEP_xiaofang
usemtl huandao_MEP_xiaofang
s 1
f 1/1/1 2/2/1 3/3/1 4/4/1 
# 1 polygons

