# 3ds Max Wavefront OBJ Exporter v0.97b - (c)2007 guruware
# File Created: 28.06.2018 17:40:18

mtllib M_XA_N_B2A_boli_btm.mtl

#
# object M_XA_N_B2A_boli_btm
#

v  775.5659 100.4934 -407.3751
v  775.5659 86.7812 -396.7632
v  775.5659 7.3717 -535.3027
v  775.5659 20.9710 -545.9689
v  775.5659 100.4934 -373.5870
v  775.5659 85.4475 -373.5870
v  775.5659 98.9799 -368.7490
v  775.5659 87.2075 -368.7490
v  775.5659 94.7814 -366.1788
v  775.5659 91.2738 -366.1788
v  775.5659 6.0448 -572.3290
v  775.5659 20.9710 -572.3290
v  775.5659 7.9622 -577.1674
v  775.5659 19.2109 -577.1674
v  775.5659 13.4075 -579.7870
v  789.7977 100.4934 -407.3751
v  789.7977 86.7812 -396.7632
v  789.7977 7.3717 -535.3027
v  789.7977 20.9710 -545.9689
v  789.7977 100.4934 -373.5870
v  789.7977 85.4475 -373.5870
v  789.7977 98.9799 -368.7490
v  789.7977 87.2075 -368.7490
v  789.7977 94.7814 -366.1788
v  789.7977 91.2738 -366.1788
v  789.7977 6.0448 -572.3290
v  789.7977 20.9710 -572.3290
v  789.7977 7.9622 -577.1674
v  789.7977 19.2109 -577.1674
v  789.7977 13.4075 -579.7870
v  805.0158 100.4934 -559.4296
v  805.0158 20.9710 -420.8358
v  805.0158 7.3717 -431.5019
v  805.0158 86.7812 -570.0414
v  805.0158 100.4934 -593.2177
v  805.0158 85.4475 -593.2177
v  805.0158 87.2075 -598.0557
v  805.0158 98.9799 -598.0557
v  805.0158 91.2738 -600.6259
v  805.0158 94.7814 -600.6259
v  805.0158 6.0448 -394.4756
v  805.0158 20.9710 -394.4756
v  805.0158 19.2109 -389.6373
v  805.0158 7.9622 -389.6373
v  805.0158 13.4075 -387.0176
v  819.2476 100.4934 -559.4296
v  819.2476 20.9710 -420.8358
v  819.2476 7.3717 -431.5019
v  819.2476 86.7812 -570.0414
v  819.2476 100.4934 -593.2177
v  819.2476 85.4475 -593.2177
v  819.2476 87.2075 -598.0557
v  819.2476 98.9799 -598.0557
v  819.2476 91.2738 -600.6259
v  819.2476 94.7814 -600.6259
v  819.2476 6.0448 -394.4756
v  819.2476 20.9710 -394.4756
v  819.2476 19.2109 -389.6373
v  819.2476 7.9622 -389.6373
v  819.2476 13.4075 -387.0176
v  -383.9359 100.4934 -303.3483
v  -522.5298 20.9710 -303.3483
v  -511.8636 7.3717 -303.3483
v  -373.3241 86.7812 -303.3483
v  -350.1478 100.4934 -303.3483
v  -350.1478 85.4475 -303.3483
v  -345.3099 87.2075 -303.3483
v  -345.3099 98.9799 -303.3483
v  -342.7397 91.2738 -303.3483
v  -342.7397 94.7814 -303.3483
v  -548.8899 6.0448 -303.3483
v  -548.8899 20.9710 -303.3483
v  -553.7283 19.2109 -303.3483
v  -553.7283 7.9622 -303.3483
v  -556.3480 13.4075 -303.3483
v  -383.9359 100.4934 -289.1165
v  -522.5298 20.9710 -289.1165
v  -511.8636 7.3717 -289.1165
v  -373.3241 86.7812 -289.1165
v  -350.1478 100.4934 -289.1165
v  -350.1478 85.4475 -289.1165
v  -345.3099 87.2075 -289.1165
v  -345.3099 98.9799 -289.1165
v  -342.7397 91.2738 -289.1165
v  -342.7397 94.7814 -289.1165
v  -548.8899 6.0448 -289.1165
v  -548.8899 20.9710 -289.1165
v  -553.7283 19.2109 -289.1165
v  -553.7283 7.9622 -289.1165
v  -556.3480 13.4075 -289.1165
v  -383.9359 100.4934 -332.7983
v  -522.5298 20.9710 -332.7983
v  -511.8636 7.3717 -332.7983
v  -373.3241 86.7812 -332.7983
v  -350.1478 100.4934 -332.7983
v  -350.1478 85.4475 -332.7983
v  -345.3099 87.2075 -332.7983
v  -345.3099 98.9799 -332.7983
v  -342.7397 91.2738 -332.7983
v  -342.7397 94.7814 -332.7983
v  -548.8899 6.0448 -332.7983
v  -548.8899 20.9710 -332.7983
v  -553.7283 19.2109 -332.7983
v  -553.7283 7.9622 -332.7983
v  -556.3480 13.4075 -332.7983
v  -383.9359 100.4934 -318.5665
v  -522.5298 20.9710 -318.5665
v  -511.8636 7.3717 -318.5665
v  -373.3241 86.7812 -318.5665
v  -350.1478 100.4934 -318.5665
v  -350.1478 85.4475 -318.5665
v  -345.3099 87.2075 -318.5665
v  -345.3099 98.9799 -318.5665
v  -342.7397 91.2738 -318.5665
v  -342.7397 94.7814 -318.5665
v  -548.8899 6.0448 -318.5665
v  -548.8899 20.9710 -318.5665
v  -553.7283 19.2109 -318.5665
v  -553.7283 7.9622 -318.5665
v  -556.3480 13.4075 -318.5665
v  974.9457 46.0876 -240.3621
v  906.5457 46.0876 -240.3621
v  869.1788 80.2876 -240.3621
v  1012.6292 80.2876 -240.3621
v  974.9457 46.0876 -239.0947
v  974.9457 2.3876 -239.0947
v  1012.6292 2.3876 -239.0947
v  1012.6292 80.2876 -239.0947
v  869.1788 80.2876 -239.0947
v  1012.6292 2.3876 -240.3621
v  974.9457 2.3876 -240.3621
v  906.5457 46.0876 -239.0947
v  906.5457 2.3876 -240.3621
v  869.1788 2.3876 -240.3621
v  869.1788 2.3876 -239.0947
v  906.5457 2.3876 -239.0947
v  867.9115 80.2876 -240.3621
v  867.9115 2.3876 -240.3621
v  867.9115 2.3876 -217.8772
v  867.9115 80.2876 -217.8772
v  869.1788 80.2876 -217.8772
v  869.1788 2.3876 -217.8772
v  1011.3615 80.2876 -239.0947
v  1011.3615 2.3876 -239.0947
v  1011.3615 2.3876 -218.8281
v  1011.3615 80.2876 -218.8281
v  1012.6292 2.3876 -218.8281
v  1012.6292 80.2876 -218.8281
v  853.3457 2.3876 -681.9200
v  853.3457 80.2876 -681.9200
v  709.8957 80.2876 -681.9200
v  709.8957 2.3876 -681.9200
v  709.8957 80.2876 -683.1871
v  853.3457 80.2876 -683.1871
v  853.3457 2.3876 -683.1871
v  709.8957 2.3876 -683.1871
v  657.0675 2.3876 -681.9200
v  692.8503 2.3876 -681.9200
v  692.8503 80.2876 -681.9200
v  657.0675 80.2876 -681.9200
v  655.8003 80.2876 -681.9200
v  655.8003 2.3876 -681.9200
v  655.8003 80.2876 -683.1871
v  692.8503 80.2876 -683.1871
v  692.8503 2.3876 -683.1871
v  655.8003 2.3876 -683.1871
v  655.8003 2.3876 -198.8772
v  655.8003 80.2876 -198.8772
v  657.0675 80.2876 -200.1445
v  657.0675 80.2876 -198.8772
v  657.0675 2.3876 -198.8772
v  657.0675 2.3876 -200.1445
v  851.4457 2.3876 -198.8772
v  851.4457 80.2876 -198.8772
v  851.4457 80.2876 -200.1445
v  851.4457 2.3876 -200.1445
v  1030.9957 80.2876 -197.9282
v  1030.9957 2.3876 -197.9282
v  1162.1224 2.3876 -197.9282
v  1162.1224 80.2876 -197.9282
v  1165.9229 2.3876 -197.9282
v  1165.9229 80.2876 -197.9282
v  1174.5002 2.3876 -197.9282
v  1174.5002 80.2876 -197.9282
v  1173.2329 80.2876 -199.1955
v  1174.5002 80.2876 -199.1955
v  1174.5002 2.3876 -199.1955
v  1173.2329 2.3876 -199.1955
v  1030.9957 80.2876 -199.1955
v  1030.9957 2.3876 -199.1955
v  1173.2329 46.0876 -638.7269
v  1173.2329 80.2876 -671.0268
v  1173.2329 46.0876 -667.2268
v  1174.5002 80.2876 -671.0268
v  1174.5002 46.0876 -638.7269
v  1174.5002 46.0876 -667.2268
v  1174.5002 2.3876 -671.0268
v  1173.2329 2.3876 -671.0268
v  1173.2329 2.3876 -667.2268
v  1174.5002 2.3876 -667.2268
v  1173.2329 2.3876 -638.7269
v  1174.5002 2.3876 -638.7269
v  -638.7885 80.2876 -519.9769
v  -638.7885 2.3876 -519.9769
v  -638.7885 2.3876 -368.9272
v  -638.7885 80.2876 -368.9272
v  -637.5212 2.3876 -368.9272
v  -637.5212 2.3876 -519.9769
v  -637.5212 80.2876 -519.9769
v  -637.5212 80.2876 -368.9272
v  -248.9166 46.0876 -400.2768
v  -248.9166 46.0876 -468.6768
v  -248.9166 80.2876 -511.4272
v  -248.9166 80.2876 -279.6273
v  -250.1836 80.2876 -511.4272
v  -250.1836 46.0876 -468.6768
v  -250.1836 46.0876 -400.2768
v  -250.1836 80.2876 -279.6273
v  -248.9166 2.3876 -511.4272
v  -250.1836 2.3876 -511.4272
v  -248.9166 2.3876 -468.6768
v  -250.1836 2.3876 -468.6768
v  -248.9166 2.3876 -279.6273
v  -248.9166 2.3876 -400.2768
v  -250.1836 2.3876 -400.2768
v  -250.1836 2.3876 -279.6273
# 226 vertices

vn 1.0000 0.0000 -0.0000
vn -0.0000 -0.0000 1.0000
vn 0.0000 0.0000 1.0000
vn -0.0000 0.0000 1.0000
vn 0.0000 0.0000 -1.0000
vn 0.0000 1.0000 -0.0000
vn -1.0000 0.0000 -0.0000
# 7 vertex normals

vt 0.8648 0.8935 0.0026
vt 6.3976 7.5459 0.0000
vt 18.2086 7.5459 0.0000
vt 24.6609 13.4514 0.0000
vt -0.1094 13.4514 0.0000
vt -6.3976 7.5459 0.0000
vt -6.3976 0.0000 0.0000
vt 0.1094 -0.0000 0.0000
vt 0.1094 13.4514 0.0000
vt 24.6609 -0.1094 0.0000
vt 24.6609 0.1094 0.0000
vt -0.1094 0.1094 0.0000
vt -0.1094 -0.1094 0.0000
vt -0.1094 0.0000 0.0000
vt 0.1094 0.0000 0.0000
vt 6.3976 0.0000 0.0000
vt -24.6609 13.4514 0.0000
vt -18.2086 7.5459 0.0000
vt 18.2086 0.0000 0.0000
vt 24.6609 -0.0000 0.0000
vt -24.6609 0.0000 0.0000
vt -18.2086 0.0000 0.0000
vt 3.7732 0.0000 0.0000
vt 3.7732 13.4514 0.0000
vt -3.7732 13.4514 0.0000
vt -3.7732 0.0000 0.0000
vt 3.7732 -0.1094 0.0000
vt 3.7732 0.1094 0.0000
vt 0.1094 0.1094 0.0000
vt 24.6609 0.0000 0.0000
vt 24.8798 0.0000 0.0000
vt 24.8798 13.4514 0.0000
vt 3.6090 0.0000 0.0000
vt 3.6090 13.4514 0.0000
vt -3.6090 0.0000 0.0000
vt -3.6090 13.4514 0.0000
vt 0.1094 -0.1094 0.0000
vt 3.6090 -0.1094 0.0000
vt 3.6090 0.1094 0.0000
vt 24.7703 0.0000 0.0000
vt 24.7703 13.4514 0.0000
vt -0.0000 13.4514 0.0000
vt -0.0000 0.0000 0.0000
vt 0.0000 13.4514 0.0000
vt -24.7703 13.4514 0.0000
vt -24.7703 0.0000 0.0000
vt 0.0000 0.0000 0.0000
vt 24.7703 -0.1094 0.0000
vt 24.7703 0.1094 0.0000
vt -0.0000 0.1094 0.0000
vt -0.0000 -0.1094 0.0000
vt -0.1094 -0.0000 0.0000
vt 6.2882 -0.0000 0.0000
vt 6.2882 13.4514 0.0000
vt -6.2882 13.4514 0.0000
vt -6.2882 0.0000 0.0000
vt 6.2882 -0.1094 0.0000
vt 6.2882 0.1094 0.0000
vt 83.5192 0.0000 0.0000
vt 83.5192 13.4514 0.0000
vt -83.3004 13.4514 0.0000
vt -83.5192 13.4514 0.0000
vt -83.5192 -0.0000 0.0000
vt -83.3004 0.0000 0.0000
vt 83.5192 -0.1094 0.0000
vt 83.5192 0.1094 0.0000
vt 83.3004 0.1094 0.0000
vt 33.6738 0.0000 0.0000
vt 33.6738 13.4514 0.0000
vt -33.6738 13.4514 0.0000
vt -33.6738 0.0000 0.0000
vt 33.6738 -0.1094 0.0000
vt 33.6738 0.1094 0.0000
vt 22.6424 0.0000 0.0000
vt 22.6424 13.4514 0.0000
vt 23.2986 -0.0000 0.0000
vt 23.2986 13.4514 0.0000
vt 24.7798 0.0000 0.0000
vt 24.7798 13.4514 0.0000
vt -24.5610 13.4514 0.0000
vt -24.7798 13.4514 0.0000
vt -24.7798 -0.0000 0.0000
vt -24.5610 0.0000 0.0000
vt 24.7798 -0.1094 0.0000
vt 24.7798 0.1094 0.0000
vt 24.5610 0.1094 0.0000
vt 23.2986 -0.1094 0.0000
vt 22.6424 -0.1094 0.0000
vt 0.0000 0.1094 0.0000
vt 0.0000 -0.1094 0.0000
vt -81.6927 0.0000 0.0000
vt -81.4739 0.0000 0.0000
vt -81.4739 13.4514 0.0000
vt -81.6927 13.4514 0.0000
vt 5.5774 7.5459 0.0000
vt 81.4739 13.4514 0.0000
vt 0.6562 7.5459 0.0000
vt -5.5774 7.5459 0.0000
vt -0.6562 7.5459 0.0000
vt 81.4739 -0.1094 0.0000
vt 81.4739 0.1094 0.0000
vt 0.0000 -0.0000 0.0000
vt 0.6562 -0.0000 0.0000
vt -0.6562 0.0000 0.0000
vt 81.4739 0.0000 0.0000
vt 5.5774 -0.0000 0.0000
vt -81.4739 -0.0000 0.0000
vt -5.5774 0.0000 0.0000
vt 0.3281 13.4514 0.0000
vt 0.3281 0.0000 0.0000
vt 26.4107 0.0000 0.0000
vt 26.4107 13.4514 0.0000
vt -26.4107 0.0000 0.0000
vt -0.3281 0.0000 0.0000
vt -0.3281 13.4514 0.0000
vt -26.4107 13.4514 0.0000
vt 0.3281 0.1094 0.0000
vt 0.3281 -0.1094 0.0000
vt 26.4107 -0.1094 0.0000
vt 26.4107 0.1094 0.0000
vt 21.1614 7.5459 0.0000
vt 32.9724 7.5459 0.0000
vt 40.3543 13.4514 0.0000
vt -40.3543 13.4514 0.0000
vt -32.9724 7.5459 0.0000
vt -21.1614 7.5459 0.0000
vt 40.3543 -0.1094 0.0000
vt 40.3543 0.1094 0.0000
vt 32.9724 0.0000 0.0000
vt 40.3543 0.0000 0.0000
vt -40.3543 0.0000 0.0000
vt -32.9724 0.0000 0.0000
vt 21.1614 0.0000 0.0000
vt -21.1614 0.0000 0.0000
# 134 texture coords

g M_XA_N_B2A_boli_btm
usemtl pj_lanse_01
s off
f 1/1/1 2/1/1 3/1/1 4/1/1 
f 5/1/1 6/1/1 2/1/1 1/1/1 
f 5/1/1 7/1/1 8/1/1 6/1/1 
f 7/1/1 9/1/1 10/1/1 8/1/1 
f 11/1/1 12/1/1 4/1/1 3/1/1 
f 11/1/1 13/1/1 14/1/1 12/1/1 
f 13/1/1 15/1/1 14/1/1 
f 16/1/1 17/1/1 18/1/1 19/1/1 
f 20/1/1 21/1/1 17/1/1 16/1/1 
f 20/1/1 22/1/1 23/1/1 21/1/1 
f 22/1/1 24/1/1 25/1/1 23/1/1 
f 26/1/1 27/1/1 19/1/1 18/1/1 
f 26/1/1 28/1/1 29/1/1 27/1/1 
f 28/1/1 30/1/1 29/1/1 
f 31/1/1 32/1/1 33/1/1 34/1/1 
f 35/1/1 31/1/1 34/1/1 36/1/1 
f 35/1/1 36/1/1 37/1/1 38/1/1 
f 38/1/1 37/1/1 39/1/1 40/1/1 
f 41/1/1 33/1/1 32/1/1 42/1/1 
f 41/1/1 42/1/1 43/1/1 44/1/1 
f 44/1/1 43/1/1 45/1/1 
f 46/1/1 47/1/1 48/1/1 49/1/1 
f 50/1/1 46/1/1 49/1/1 51/1/1 
f 50/1/1 51/1/1 52/1/1 53/1/1 
f 53/1/1 52/1/1 54/1/1 55/1/1 
f 56/1/1 48/1/1 47/1/1 57/1/1 
f 56/1/1 57/1/1 58/1/1 59/1/1 
f 59/1/1 58/1/1 60/1/1 
f 61/1/2 62/1/2 63/1/2 64/1/2 
f 65/1/3 61/1/3 64/1/3 66/1/3 
f 65/1/3 66/1/3 67/1/3 68/1/3 
f 68/1/3 67/1/3 69/1/3 70/1/3 
f 71/1/3 63/1/3 62/1/3 72/1/3 
f 71/1/3 72/1/3 73/1/3 74/1/3 
f 74/1/3 73/1/3 75/1/3 
f 76/1/2 77/1/2 78/1/2 79/1/2 
f 80/1/3 76/1/3 79/1/3 81/1/3 
f 80/1/3 81/1/3 82/1/3 83/1/3 
f 83/1/3 82/1/3 84/1/3 85/1/3 
f 86/1/3 78/1/3 77/1/3 87/1/3 
f 86/1/3 87/1/3 88/1/3 89/1/3 
f 89/1/3 88/1/3 90/1/3 
f 91/1/3 92/1/3 93/1/3 94/1/3 
f 95/1/3 91/1/3 94/1/3 96/1/3 
f 95/1/3 96/1/3 97/1/3 98/1/3 
f 98/1/3 97/1/3 99/1/3 100/1/3 
f 101/1/2 93/1/2 92/1/2 102/1/2 
f 101/1/3 102/1/3 103/1/3 104/1/3 
f 104/1/3 103/1/3 105/1/3 
f 106/1/3 107/1/3 108/1/3 109/1/3 
f 110/1/3 106/1/3 109/1/3 111/1/3 
f 110/1/3 111/1/3 112/1/3 113/1/3 
f 113/1/3 112/1/3 114/1/3 115/1/3 
f 116/1/3 108/1/3 107/1/3 117/1/3 
f 116/1/4 117/1/4 118/1/4 119/1/4 
f 119/1/3 118/1/3 120/1/3 
f 121/2/5 122/3/5 123/4/5 124/5/5 
f 125/6/3 126/7/3 127/8/3 128/9/3 
f 123/10/6 129/11/6 128/12/6 124/13/6 
f 127/14/1 130/15/1 124/9/1 128/5/1 
f 130/14/5 131/16/5 121/2/5 124/5/5 
f 128/9/3 129/17/3 132/18/3 125/6/3 
f 122/3/5 133/19/5 134/20/5 123/4/5 
f 135/21/3 136/22/3 132/18/3 129/17/3 
f 137/5/7 138/14/7 139/23/7 140/24/7 
f 141/25/1 142/26/1 135/14/1 129/5/1 
f 123/9/1 129/5/1 135/14/1 134/15/1 
f 141/9/3 140/5/3 139/14/3 142/15/3 
f 140/27/6 141/28/6 129/29/6 137/13/6 
f 137/13/6 129/29/6 123/12/6 
f 134/30/5 138/31/5 137/32/5 123/4/5 
f 143/9/7 144/15/7 145/33/7 146/34/7 
f 147/35/1 127/14/1 128/5/1 148/36/1 
f 148/9/3 146/5/3 145/14/3 147/15/3 
f 128/29/6 143/37/6 146/38/6 148/39/6 
f 149/40/3 150/41/3 151/42/3 152/43/3 
f 153/44/5 154/45/5 155/46/5 156/47/5 
f 149/14/1 155/15/1 154/9/1 150/5/1 
f 150/48/6 154/49/6 153/50/6 151/51/6 
f 151/9/7 153/5/7 156/52/7 152/8/7 
f 157/15/3 158/53/3 159/54/3 160/9/3 
f 157/15/3 160/9/3 161/5/3 162/14/3 
f 163/9/5 164/55/5 165/56/5 166/15/5 
f 158/14/1 165/15/1 164/9/1 159/5/1 
f 160/37/6 159/57/6 164/58/6 163/12/6 
f 160/37/6 163/12/6 161/13/6 
f 161/9/7 163/5/7 166/14/7 162/15/7 
f 167/59/7 168/60/7 161/9/7 162/15/7 
f 169/61/1 170/62/1 171/63/1 172/64/1 
f 160/5/1 169/61/1 172/64/1 157/52/1 
f 168/65/6 170/66/6 169/67/6 161/37/6 
f 169/67/6 160/29/6 161/37/6 
f 167/14/3 171/15/3 170/9/3 168/5/3 
f 173/68/3 174/69/3 170/9/3 171/15/3 
f 169/5/5 175/70/5 176/71/5 172/14/5 
f 173/14/1 176/15/1 175/9/1 174/5/1 
f 174/72/6 175/73/6 169/29/6 170/37/6 
f 177/44/3 178/47/3 179/74/3 180/75/3 
f 180/75/3 179/74/3 181/76/3 182/77/3 
f 182/77/3 181/76/3 183/78/3 184/79/3 
f 185/80/5 186/81/5 187/82/5 188/83/5 
f 189/44/5 185/80/5 188/83/5 190/47/5 
f 184/84/6 186/85/6 185/86/6 182/87/6 
f 180/88/6 182/87/6 185/86/6 189/89/6 
f 189/89/6 177/90/6 180/88/6 
f 177/9/7 189/5/7 190/52/7 178/8/7 
f 183/91/1 187/92/1 186/93/1 184/94/1 
f 191/95/7 185/96/7 192/44/7 193/97/7 
f 194/42/1 186/93/1 195/98/1 196/99/1 
f 185/100/6 186/101/6 194/89/6 192/90/6 
f 192/9/5 194/5/5 197/52/5 198/8/5 
f 193/97/7 192/44/7 198/102/7 199/103/7 
f 197/43/1 194/42/1 196/99/1 200/104/1 
f 188/105/7 185/96/7 191/95/7 201/106/7 
f 195/98/1 186/93/1 187/107/1 202/108/1 
f 203/109/7 204/110/7 205/111/7 206/112/7 
f 207/113/1 208/114/1 209/115/1 210/116/1 
f 209/117/6 203/118/6 206/119/6 210/120/6 
f 211/121/1 212/122/1 213/123/1 214/109/1 
f 215/124/7 216/125/7 217/126/7 218/115/7 
f 215/9/5 213/5/5 219/14/5 220/15/5 
f 218/117/6 214/118/6 213/127/6 215/128/6 
f 212/122/1 221/129/1 219/130/1 213/123/1 
f 220/131/7 222/132/7 216/125/7 215/124/7 
f 223/110/1 224/133/1 211/121/1 214/109/1 
f 217/126/7 225/134/7 226/114/7 218/115/7 
# 114 polygons - 12 triangles

