# 3ds Max Wavefront OBJ Exporter v0.97b - (c)2007 guruware
# File Created: 28.06.2018 17:40:02

mtllib M_XA_N_B2A_fanghuoqiang.mtl

#
# object M_XA_N_B2A_fanghuoqiang
#

v  692.9916 49.8875 -688.9821
v  692.9916 2.3875 -688.9821
v  550.4535 2.3875 -688.9825
v  550.4535 49.8875 -688.9825
v  692.9917 49.8875 -698.9566
v  550.4535 49.8875 -698.9572
v  550.4535 57.4876 -698.9572
v  692.9917 57.4876 -698.9566
v  692.9916 49.8875 -687.5571
v  550.4535 49.8875 -687.5574
v  550.4535 57.4875 -687.5574
v  692.9916 57.4875 -687.5571
v  692.9916 2.3875 -687.5571
v  550.4535 2.3875 -687.5574
v  551.4227 49.8875 -683.7575
v  550.4537 49.8875 -683.7575
v  550.4537 2.3874 -683.7575
v  551.4227 2.3874 -683.7575
v  550.4537 2.3874 -687.5576
v  551.4227 2.3874 -687.5576
v  551.4227 49.8875 -687.5576
v  550.4537 49.8875 -687.5576
v  692.9916 49.8875 -683.7575
v  692.0226 49.8875 -683.7575
v  692.0226 2.3874 -683.7575
v  692.9916 2.3874 -683.7575
v  692.0226 2.3873 -687.5574
v  692.9916 2.3874 -687.5576
v  692.9916 49.8875 -687.5576
v  692.0226 49.8875 -687.5574
v  -742.4957 49.8875 -523.3027
v  -742.4957 2.3875 -523.3027
v  -885.0338 2.3875 -523.3030
v  -885.0338 49.8875 -523.3030
v  -742.4954 49.8875 -533.2772
v  -885.0338 49.8875 -533.2779
v  -885.0338 57.4876 -533.2779
v  -742.4954 57.4876 -533.2772
v  -742.4957 49.8875 -521.8776
v  -885.0338 49.8875 -521.8780
v  -885.0338 57.4875 -521.8780
v  -742.4957 57.4875 -521.8776
v  -742.4957 2.3875 -521.8776
v  -885.0338 2.3875 -521.8780
v  -884.0646 49.8875 -518.0781
v  -885.0334 49.8875 -518.0781
v  -885.0334 2.3874 -518.0781
v  -884.0646 2.3874 -518.0781
v  -885.0334 2.3874 -521.8782
v  -884.0646 2.3874 -521.8782
v  -884.0646 49.8875 -521.8782
v  -885.0334 49.8875 -521.8782
v  -742.4957 49.8875 -518.0781
v  -743.4647 49.8875 -518.0781
v  -743.4647 2.3874 -518.0781
v  -742.4957 2.3874 -518.0781
v  -743.4647 2.3873 -521.8780
v  -742.4957 2.3874 -521.8782
v  -742.4957 49.8875 -521.8782
v  -743.4647 49.8875 -521.8780
v  1402.4307 49.8875 946.9177
v  1250.3933 49.8875 946.9180
v  1250.3933 2.3875 946.9180
v  1402.4307 2.3875 946.9177
v  1402.4308 49.8875 956.8922
v  1402.4308 57.4876 956.8922
v  1250.3933 57.4876 956.8928
v  1250.3933 49.8875 956.8928
v  1402.4307 49.8875 945.4927
v  1250.3933 49.8875 945.4930
v  1250.3933 57.4875 945.4930
v  1402.4307 57.4875 945.4927
v  1402.4307 2.3875 945.4927
v  1250.3933 2.3875 945.4930
v  1251.3625 49.8875 941.6931
v  1251.3625 2.3874 941.6931
v  1250.4125 2.3874 941.6931
v  1250.4125 49.8875 941.6931
v  1251.3625 2.3874 945.4932
v  1250.4125 2.3874 945.4932
v  1251.3625 49.8875 945.4932
v  1250.4125 49.8875 945.4932
v  1402.4117 49.8875 941.6931
v  1402.4117 2.3873 941.6931
v  1401.4617 2.3873 941.6931
v  1401.4617 49.8875 941.6931
v  1402.4117 2.3873 945.4932
v  1401.4617 2.3873 945.4932
v  1402.4117 49.8875 945.4932
v  1401.4617 49.8875 945.4932
v  -904.1931 49.8875 -523.3027
v  -904.1931 2.3875 -523.3027
v  -1010.6308 2.3875 -523.3030
v  -1010.6308 49.8875 -523.3030
v  -904.1929 49.8875 -533.2772
v  -1010.6308 49.8875 -533.2780
v  -1010.6308 57.4876 -533.2780
v  -904.1929 57.4876 -533.2772
v  -904.1931 49.8875 -521.8776
v  -1010.6308 49.8875 -521.8782
v  -1010.6308 57.4875 -521.8782
v  -904.1931 57.4875 -521.8776
v  -904.1931 2.3875 -521.8776
v  -1010.6308 2.3875 -521.8782
v  -1009.6620 49.8875 -518.0781
v  -1010.6119 49.8875 -518.0781
v  -1010.6119 2.3874 -518.0781
v  -1009.6620 2.3873 -518.0781
v  -1010.6119 2.3874 -521.8780
v  -1009.6620 2.3873 -521.8782
v  -1009.6620 49.8875 -521.8782
v  -1010.6119 49.8875 -521.8780
v  -904.2119 49.8875 -518.0781
v  -905.1622 49.8875 -518.0781
v  -905.1622 2.3874 -518.0781
v  -904.2119 2.3873 -518.0781
v  -905.1622 2.3873 -521.8780
v  -904.2119 2.3873 -521.8782
v  -904.2119 49.8875 -521.8782
v  -905.1622 49.8875 -521.8780
v  -1023.7050 49.8875 -976.0477
v  -1023.7050 2.3875 -976.0477
v  -1023.7047 2.3875 -1116.6855
v  -1023.7047 49.8875 -1116.6855
v  -1013.7305 49.8875 -976.0474
v  -1013.7297 49.8875 -1116.6855
v  -1013.7297 57.4876 -1116.6855
v  -1013.7305 57.4876 -976.0474
v  -1025.1299 49.8875 -976.0477
v  -1025.1294 49.8875 -1116.6855
v  -1025.1294 57.4875 -1116.6855
v  -1025.1299 57.4875 -976.0477
v  -1025.1299 2.3875 -976.0477
v  -1025.1294 2.3875 -1116.6855
v  -1028.9297 49.8875 -1115.7168
v  -1028.9297 49.8875 -1116.6665
v  -1028.9297 2.3874 -1116.6665
v  -1028.9297 2.3873 -1115.7168
v  -1025.1296 2.3874 -1116.6665
v  -1025.1294 2.3873 -1115.7168
v  -1025.1294 49.8875 -1115.7168
v  -1025.1296 49.8875 -1116.6665
v  -1028.9297 49.8875 -976.0663
v  -1028.9297 49.8875 -977.0165
v  -1028.9297 2.3873 -977.0165
v  -1028.9297 2.3873 -976.0663
v  -1025.1294 2.3873 -977.0165
v  -1025.1294 2.3873 -976.0663
v  -1025.1294 49.8875 -976.0663
v  -1025.1294 49.8875 -977.0165
v  1407.7251 49.8875 -424.5786
v  1407.7251 2.3875 -424.5786
v  1407.7255 2.3875 -614.6164
v  1407.7255 49.8875 -614.6164
v  1417.6996 49.8875 -424.5784
v  1417.7004 49.8875 -614.6164
v  1417.7004 57.4876 -614.6164
v  1417.6996 57.4876 -424.5784
v  1406.3000 49.8875 -424.5786
v  1406.3005 49.8875 -614.6164
v  1406.3005 57.4875 -614.6164
v  1406.3000 57.4875 -424.5786
v  1406.3000 2.3875 -424.5786
v  1406.3005 2.3875 -614.6164
v  1402.5005 49.8875 -613.6475
v  1402.5005 49.8875 -614.5972
v  1402.5005 2.3873 -614.5972
v  1402.5005 2.3873 -613.6475
v  1406.3005 2.3873 -614.5972
v  1406.3005 2.3873 -613.6475
v  1406.3005 49.8875 -613.6475
v  1406.3005 49.8875 -614.5972
v  1402.5005 49.8875 -424.5974
v  1402.5005 49.8875 -425.5475
v  1402.5005 2.3873 -425.5475
v  1402.5005 2.3873 -424.5974
v  1406.3007 2.3873 -425.5475
v  1406.3007 2.3872 -424.5974
v  1406.3007 49.8875 -424.5974
v  1406.3007 49.8875 -425.5475
v  -1110.7678 49.8875 913.6669
v  -1257.1055 49.8875 913.6672
v  -1257.1055 2.3875 913.6672
v  -1110.7678 2.3875 913.6669
v  -1110.7676 49.8875 923.6414
v  -1110.7676 57.4876 923.6414
v  -1257.1055 57.4876 923.6420
v  -1257.1055 49.8875 923.6420
v  -1110.7678 49.8875 912.2419
v  -1257.1055 49.8875 912.2422
v  -1257.1055 57.4875 912.2422
v  -1110.7678 57.4875 912.2419
v  -1110.7678 2.3875 912.2419
v  -1257.1055 2.3875 912.2422
v  -1256.1365 49.8875 908.4423
v  -1256.1365 2.3874 908.4423
v  -1257.0864 2.3874 908.4423
v  -1257.0864 49.8875 908.4423
v  -1256.1365 2.3874 912.2424
v  -1257.0864 2.3874 912.2424
v  -1256.1365 49.8875 912.2424
v  -1257.0864 49.8875 912.2424
v  -1110.7869 49.8875 908.4423
v  -1110.7869 2.3873 908.4423
v  -1111.7368 2.3873 908.4423
v  -1111.7368 49.8875 908.4423
v  -1110.7869 2.3873 912.2424
v  -1111.7368 2.3873 912.2424
v  -1110.7869 49.8875 912.2424
v  -1111.7368 49.8875 912.2424
v  215.8984 49.8875 -516.6529
v  71.4611 49.8875 -516.6525
v  71.4611 2.3875 -516.6525
v  215.8984 2.3875 -516.6529
v  215.8986 49.8875 -506.6784
v  215.8986 57.4876 -506.6784
v  71.4611 57.4876 -506.6777
v  71.4611 49.8875 -506.6777
v  215.8984 49.8875 -518.0779
v  71.4611 49.8875 -518.0776
v  71.4611 57.4875 -518.0776
v  215.8984 57.4875 -518.0779
v  215.8984 2.3875 -518.0779
v  71.4611 2.3875 -518.0776
v  72.4303 49.8875 -521.8775
v  72.4303 2.3874 -521.8775
v  71.4803 2.3874 -521.8775
v  71.4803 49.8875 -521.8775
v  72.4303 2.3874 -518.0773
v  71.4803 2.3874 -518.0773
v  72.4303 49.8875 -518.0773
v  71.4803 49.8875 -518.0773
v  215.8795 49.8875 -521.8775
v  215.8795 2.3873 -521.8775
v  214.9296 2.3873 -521.8775
v  214.9296 49.8875 -521.8775
v  215.8795 2.3873 -518.0773
v  214.9296 2.3873 -518.0773
v  215.8795 49.8875 -518.0773
v  214.9296 49.8875 -518.0773
v  -105.0986 49.8875 -516.6529
v  -247.6367 49.8875 -516.6525
v  -247.6367 2.3875 -516.6525
v  -105.0986 2.3875 -516.6529
v  -105.0983 49.8875 -506.6784
v  -105.0983 57.4876 -506.6784
v  -247.6367 57.4876 -506.6777
v  -247.6367 49.8875 -506.6777
v  -105.0986 49.8875 -518.0779
v  -247.6367 49.8875 -518.0776
v  -247.6367 57.4875 -518.0776
v  -105.0986 57.4875 -518.0779
v  -105.0986 2.3875 -518.0779
v  -247.6367 2.3875 -518.0776
v  -246.6675 49.8875 -521.8775
v  -246.6675 2.3874 -521.8775
v  -247.6175 2.3874 -521.8775
v  -247.6175 49.8875 -521.8775
v  -246.6675 2.3874 -518.0773
v  -247.6175 2.3874 -518.0773
v  -246.6675 49.8875 -518.0773
v  -247.6175 49.8875 -518.0773
v  -105.1176 49.8875 -521.8775
v  -105.1176 2.3874 -521.8775
v  -106.0674 2.3874 -521.8775
v  -106.0674 49.8875 -521.8775
v  -105.1176 2.3873 -518.0773
v  -106.0674 2.3873 -518.0776
v  -105.1176 49.8875 -518.0773
v  -106.0674 49.8875 -518.0776
v  -655.1590 49.8875 177.7327
v  -655.1590 2.3874 177.7327
v  -655.1586 2.3875 44.6947
v  -655.1586 49.8875 44.6947
v  -645.1845 49.8875 177.7328
v  -645.1837 49.8875 44.6947
v  -645.1837 57.4876 44.6947
v  -645.1845 57.4876 177.7328
v  -656.5839 49.8875 177.7327
v  -656.5836 49.8875 44.6947
v  -656.5836 57.4875 44.6947
v  -656.5839 57.4875 177.7327
v  -656.5839 2.3874 177.7327
v  -656.5836 2.3875 44.6947
v  -660.3836 49.8875 45.6635
v  -660.3836 49.8875 44.7137
v  -660.3836 2.3873 44.7137
v  -660.3836 2.3873 45.6635
v  -656.5836 2.3873 44.7137
v  -656.5836 2.3873 45.6635
v  -656.5836 49.8875 45.6635
v  -656.5836 49.8875 44.7137
v  -660.3836 49.8875 177.7139
v  -660.3836 49.8875 176.7637
v  -660.3836 2.3872 176.7637
v  -660.3836 2.3872 177.7139
v  -656.5834 2.3872 176.7637
v  -656.5834 2.3872 177.7139
v  -656.5834 49.8875 177.7139
v  -656.5834 49.8875 176.7637
v  1175.3009 49.8875 -976.0477
v  1175.3009 2.3875 -976.0477
v  1175.3013 2.3875 -1117.6226
v  1175.3013 49.8875 -1117.6226
v  1185.2754 49.8875 -976.0474
v  1185.2762 49.8875 -1117.6226
v  1185.2762 57.4876 -1117.6226
v  1185.2754 57.4876 -976.0474
v  1173.8760 49.8875 -976.0477
v  1173.8762 49.8875 -1117.6226
v  1173.8762 57.4875 -1117.6226
v  1173.8760 57.4875 -976.0477
v  1173.8760 2.3875 -976.0477
v  1173.8762 2.3875 -1117.6226
v  1170.0763 49.8875 -1116.6538
v  1170.0763 49.8875 -1117.6035
v  1170.0763 2.3873 -1117.6035
v  1170.0763 2.3873 -1116.6538
v  1173.8762 2.3873 -1117.6035
v  1173.8762 2.3873 -1116.6538
v  1173.8762 49.8875 -1116.6538
v  1173.8762 49.8875 -1117.6035
v  1170.0763 49.8875 -976.0663
v  1170.0763 49.8875 -977.0165
v  1170.0763 2.3873 -977.0165
v  1170.0763 2.3873 -976.0663
v  1173.8765 2.3873 -977.0165
v  1173.8765 2.3873 -976.0663
v  1173.8765 49.8875 -976.0663
v  1173.8765 49.8875 -977.0165
v  -4.0290 49.8875 -69.0607
v  -4.0290 2.3874 -69.0607
v  -4.0286 2.3875 -210.0114
v  -4.0286 49.8875 -210.0114
v  5.9454 49.8875 -69.0605
v  5.9464 49.8875 -210.0114
v  5.9464 57.4876 -210.0114
v  5.9454 57.4876 -69.0605
v  -5.4540 49.8875 -69.0607
v  -5.4536 49.8875 -210.0114
v  -5.4536 57.4875 -210.0114
v  -5.4540 57.4875 -69.0607
v  -5.4536 2.3875 -210.0114
v  -5.4540 2.3874 -69.0607
v  -9.2536 49.8875 -209.0425
v  -9.2536 49.8875 -209.9925
v  -9.2536 2.3873 -209.9925
v  -9.2536 2.3873 -209.0425
v  -5.4536 2.3873 -209.9925
v  -5.4536 2.3873 -209.0425
v  -5.4536 49.8875 -209.0425
v  -5.4536 49.8875 -209.9925
v  -9.2536 49.8875 -69.0795
v  -9.2536 49.8875 -70.0295
v  -9.2536 2.3872 -70.0295
v  -9.2536 2.3872 -69.0795
v  -5.4536 2.3872 -70.0295
v  -5.4536 2.3872 -69.0795
v  -5.4536 49.8875 -69.0795
v  -5.4536 49.8875 -70.0295
v  -149.3243 49.8875 428.0559
v  -149.3242 49.8875 185.3311
v  -149.3242 2.3874 185.3311
v  -149.3243 2.3874 428.0559
v  -159.2988 49.8875 428.0561
v  -159.2988 57.4876 428.0561
v  -159.2999 57.4876 185.3311
v  -159.2999 49.8875 185.3311
v  -147.8994 49.8875 428.0559
v  -147.8991 49.8875 185.3311
v  -147.8991 57.4875 185.3311
v  -147.8994 57.4875 428.0559
v  -147.8994 2.3874 428.0559
v  -147.8991 2.3874 185.3311
v  -144.0997 49.8875 186.2809
v  -144.0997 2.3872 186.2809
v  -144.0997 2.3873 185.3311
v  -144.0997 49.8875 185.3311
v  -147.8991 2.3872 186.2809
v  -147.8991 2.3872 185.3311
v  -147.8991 49.8875 186.2809
v  -144.0997 49.8875 428.0561
v  -144.0997 2.3872 428.0561
v  -144.0997 2.3872 427.1059
v  -144.0997 49.8875 427.1059
v  -147.8998 2.3872 428.0561
v  -147.8998 2.3872 427.1059
v  -147.8998 49.8875 428.0561
v  -147.8998 49.8875 427.1059
v  543.5500 49.8875 -582.4938
v  543.5503 49.8875 -677.4938
v  543.5503 2.3873 -677.4938
v  543.5500 2.3874 -582.4938
v  533.5756 49.8875 -582.4937
v  533.5756 57.4876 -582.4937
v  533.5743 57.4876 -677.4938
v  533.5743 49.8875 -677.4938
v  544.9751 49.8875 -582.4938
v  544.9753 49.8875 -677.4938
v  544.9753 57.4875 -677.4938
v  544.9751 57.4875 -582.4938
v  544.9751 2.3874 -582.4938
v  544.9753 2.3873 -677.4938
v  548.7745 49.8875 -670.8438
v  548.7745 2.3872 -670.8438
v  548.7745 2.3872 -671.7935
v  548.7745 49.8875 -671.7935
v  544.9751 2.3872 -670.8438
v  544.9751 2.3872 -671.7935
v  544.9751 49.8875 -670.8438
v  544.9751 49.8875 -671.7935
v  548.7747 49.8875 -588.1935
v  548.7747 2.3872 -588.1935
v  548.7747 2.3872 -589.1436
v  548.7747 49.8875 -589.1436
v  544.9746 2.3872 -588.1935
v  544.9746 2.3872 -589.1436
v  544.9746 49.8875 -588.1935
v  544.9746 49.8875 -589.1436
# 419 vertices

vn 0.0000 0.0000 -1.0000
vn 0.0000 -1.0000 -0.0000
vn -1.0000 0.0000 -0.0000
vn -0.0000 1.0000 0.0000
vn 1.0000 0.0000 0.0000
vn 1.0000 0.0000 -0.0000
vn -0.0000 0.0000 1.0000
vn 0.0000 0.0000 1.0000
vn -0.0000 -1.0000 0.0000
vn 0.0000 1.0000 -0.0000
vn 0.0000 -1.0000 0.0000
vn -0.0000 1.0000 -0.0000
vn -0.0000 0.0000 -1.0000
vn -0.0000 -1.0000 -0.0000
vn -1.0000 0.0000 0.0000
# 15 vertex normals

vt 0.0006 0.5313 0.0200
vt 0.0006 0.3235 0.1025
vt 0.4380 0.3235 1.0000
vt 0.4380 0.5313 0.9176
vt 0.0007 0.5353 0.0866
vt 0.4380 0.5353 0.9176
vt 0.4380 0.5819 0.8975
vt 0.0006 0.5819 0.0000
vt 0.0028 0.5313 0.0866
vt 0.4092 0.5354 0.0000
vt 0.4092 0.5819 0.0866
vt 0.4331 0.5819 0.0866
vt 0.4331 0.5354 0.0000
vt 0.0007 0.5354 0.0866
vt 0.0246 0.5354 0.0866
vt 0.0245 0.5819 0.0000
vt 0.0006 0.5193 0.0200
vt 0.4380 0.5193 0.9176
# 18 texture coords

g M_XA_N_B2A_fanghuoqiang
usemtl T_tujian_004
s 1
f 1/1/1 2/2/1 3/3/1 4/4/1 
f 5/5/1 6/6/1 7/7/1 8/8/1 
s off
f 9/9/2 10/4/2 6/4/2 5/9/2 
f 10/10/3 11/11/3 7/12/3 6/13/3 
f 11/7/4 12/8/4 8/8/4 7/7/4 
f 12/8/5 9/14/5 5/15/5 8/16/5 
f 13/2/6 2/2/6 1/1/6 9/1/6 
s 1
f 14/3/7 13/2/7 9/17/7 10/18/7 
s off
f 10/4/3 4/4/3 3/3/3 14/3/3 
f 15/4/8 16/4/8 17/3/8 18/3/8 
f 18/3/9 17/3/9 19/3/9 20/3/9 
f 15/4/6 18/3/6 20/3/6 21/4/6 
f 16/4/10 15/4/10 21/4/10 22/4/10 
f 17/3/3 16/4/3 22/4/3 19/3/3 
f 23/4/8 24/4/8 25/3/8 26/3/8 
f 26/3/11 25/3/11 27/3/11 28/3/11 
f 23/4/5 26/3/5 28/3/5 29/4/5 
f 24/4/10 23/4/10 29/4/10 30/4/10 
f 25/3/3 24/4/3 30/4/3 27/3/3 
s 1
f 31/1/1 32/2/1 33/3/1 34/4/1 
f 35/5/1 36/6/1 37/7/1 38/8/1 
s off
f 39/9/2 40/4/2 36/4/2 35/9/2 
f 40/10/3 41/11/3 37/12/3 36/13/3 
f 41/7/4 42/8/4 38/8/4 37/7/4 
f 42/8/5 39/14/5 35/15/5 38/16/5 
f 43/2/6 32/2/6 31/1/6 39/1/6 
s 1
f 44/3/7 43/2/7 39/17/7 40/18/7 
s off
f 40/4/3 34/4/3 33/3/3 44/3/3 
f 45/4/8 46/4/8 47/3/8 48/3/8 
f 48/3/9 47/3/9 49/3/9 50/3/9 
f 45/4/6 48/3/6 50/3/6 51/4/6 
f 46/4/10 45/4/10 51/4/10 52/4/10 
f 47/3/3 46/4/3 52/4/3 49/3/3 
f 53/4/8 54/4/8 55/3/8 56/3/8 
f 56/3/11 55/3/11 57/3/11 58/3/11 
f 53/4/6 56/3/6 58/3/6 59/4/6 
f 54/4/10 53/4/10 59/4/10 60/4/10 
f 55/3/3 54/4/3 60/4/3 57/3/3 
s 1
f 61/1/8 62/4/8 63/3/8 64/2/8 
f 65/5/8 66/8/8 67/7/8 68/6/8 
s off
f 69/9/2 65/9/2 68/4/2 70/4/2 
f 70/10/3 68/13/3 67/12/3 71/11/3 
f 71/7/12 67/7/12 66/8/12 72/8/12 
f 72/8/6 66/16/6 65/15/6 69/14/6 
f 73/2/6 69/1/6 61/1/6 64/2/6 
s 1
f 74/3/13 70/18/13 69/17/13 73/2/13 
s off
f 70/4/3 74/3/3 63/3/3 62/4/3 
f 75/4/1 76/3/1 77/3/1 78/4/1 
f 76/3/2 79/3/2 80/3/2 77/3/2 
f 75/4/6 81/4/6 79/3/6 76/3/6 
f 78/4/10 82/4/10 81/4/10 75/4/10 
f 77/3/3 80/3/3 82/4/3 78/4/3 
f 83/4/1 84/3/1 85/3/1 86/4/1 
f 84/3/2 87/3/2 88/3/2 85/3/2 
f 83/4/6 89/4/6 87/3/6 84/3/6 
f 86/4/10 90/4/10 89/4/10 83/4/10 
f 85/3/3 88/3/3 90/4/3 86/4/3 
s 1
f 91/1/1 92/2/1 93/3/1 94/4/1 
f 95/5/1 96/6/1 97/7/1 98/8/1 
s off
f 99/9/2 100/4/2 96/4/2 95/9/2 
f 100/10/3 101/11/3 97/12/3 96/13/3 
f 101/7/4 102/8/4 98/8/4 97/7/4 
f 102/8/5 99/14/5 95/15/5 98/16/5 
f 103/2/6 92/2/6 91/1/6 99/1/6 
s 1
f 104/3/7 103/2/7 99/17/7 100/18/7 
s off
f 100/4/3 94/4/3 93/3/3 104/3/3 
f 105/4/8 106/4/8 107/3/8 108/3/8 
f 108/3/9 107/3/9 109/3/9 110/3/9 
f 105/4/6 108/3/6 110/3/6 111/4/6 
f 106/4/10 105/4/10 111/4/10 112/4/10 
f 107/3/3 106/4/3 112/4/3 109/3/3 
f 113/4/8 114/4/8 115/3/8 116/3/8 
f 116/3/9 115/3/9 117/3/9 118/3/9 
f 113/4/6 116/3/6 118/3/6 119/4/6 
f 114/4/10 113/4/10 119/4/10 120/4/10 
f 115/3/3 114/4/3 120/4/3 117/3/3 
s 1
f 121/1/5 122/2/5 123/3/5 124/4/5 
f 125/5/5 126/6/5 127/7/5 128/8/5 
s off
f 129/9/2 130/4/2 126/4/2 125/9/2 
f 130/10/1 131/11/1 127/12/1 126/13/1 
f 131/7/12 132/8/12 128/8/12 127/7/12 
f 132/8/7 129/14/7 125/15/7 128/16/7 
f 133/2/8 122/2/8 121/1/8 129/1/8 
s 1
f 134/3/3 133/2/3 129/17/3 130/18/3 
s off
f 130/4/1 124/4/1 123/3/1 134/3/1 
f 135/4/3 136/4/3 137/3/3 138/3/3 
f 138/3/14 137/3/14 139/3/14 140/3/14 
f 135/4/8 138/3/8 140/3/8 141/4/8 
f 136/4/10 135/4/10 141/4/10 142/4/10 
f 137/3/1 136/4/1 142/4/1 139/3/1 
f 143/4/3 144/4/3 145/3/3 146/3/3 
f 146/3/14 145/3/14 147/3/14 148/3/14 
f 143/4/8 146/3/8 148/3/8 149/4/8 
f 144/4/10 143/4/10 149/4/10 150/4/10 
f 145/3/1 144/4/1 150/4/1 147/3/1 
s 1
f 151/1/5 152/2/5 153/3/5 154/4/5 
f 155/5/5 156/6/5 157/7/5 158/8/5 
s off
f 159/9/2 160/4/2 156/4/2 155/9/2 
f 160/10/1 161/11/1 157/12/1 156/13/1 
f 161/7/12 162/8/12 158/8/12 157/7/12 
f 162/8/7 159/14/7 155/15/7 158/16/7 
f 163/2/8 152/2/8 151/1/8 159/1/8 
s 1
f 164/3/3 163/2/3 159/17/3 160/18/3 
s off
f 160/4/1 154/4/1 153/3/1 164/3/1 
f 165/4/3 166/4/3 167/3/3 168/3/3 
f 168/3/14 167/3/14 169/3/14 170/3/14 
f 165/4/8 168/3/8 170/3/8 171/4/8 
f 166/4/10 165/4/10 171/4/10 172/4/10 
f 167/3/1 166/4/1 172/4/1 169/3/1 
f 173/4/3 174/4/3 175/3/3 176/3/3 
f 176/3/14 175/3/14 177/3/14 178/3/14 
f 173/4/7 176/3/7 178/3/7 179/4/7 
f 174/4/10 173/4/10 179/4/10 180/4/10 
f 175/3/1 174/4/1 180/4/1 177/3/1 
s 1
f 181/1/8 182/4/8 183/3/8 184/2/8 
f 185/5/8 186/8/8 187/7/8 188/6/8 
s off
f 189/9/2 185/9/2 188/4/2 190/4/2 
f 190/10/3 188/13/3 187/12/3 191/11/3 
f 191/7/12 187/7/12 186/8/12 192/8/12 
f 192/8/6 186/16/6 185/15/6 189/14/6 
f 193/2/6 189/1/6 181/1/6 184/2/6 
s 1
f 194/3/13 190/18/13 189/17/13 193/2/13 
s off
f 190/4/3 194/3/3 183/3/3 182/4/3 
f 195/4/1 196/3/1 197/3/1 198/4/1 
f 196/3/2 199/3/2 200/3/2 197/3/2 
f 195/4/6 201/4/6 199/3/6 196/3/6 
f 198/4/10 202/4/10 201/4/10 195/4/10 
f 197/3/3 200/3/3 202/4/3 198/4/3 
f 203/4/1 204/3/1 205/3/1 206/4/1 
f 204/3/2 207/3/2 208/3/2 205/3/2 
f 203/4/6 209/4/6 207/3/6 204/3/6 
f 206/4/10 210/4/10 209/4/10 203/4/10 
f 205/3/3 208/3/3 210/4/3 206/4/3 
s 1
f 211/1/8 212/4/8 213/3/8 214/2/8 
f 215/5/8 216/8/8 217/7/8 218/6/8 
s off
f 219/9/2 215/9/2 218/4/2 220/4/2 
f 220/10/3 218/13/3 217/12/3 221/11/3 
f 221/7/12 217/7/12 216/8/12 222/8/12 
f 222/8/6 216/16/6 215/15/6 219/14/6 
f 223/2/6 219/1/6 211/1/6 214/2/6 
s 1
f 224/3/13 220/18/13 219/17/13 223/2/13 
s off
f 220/4/3 224/3/3 213/3/3 212/4/3 
f 225/4/1 226/3/1 227/3/1 228/4/1 
f 226/3/2 229/3/2 230/3/2 227/3/2 
f 225/4/6 231/4/6 229/3/6 226/3/6 
f 228/4/10 232/4/10 231/4/10 225/4/10 
f 227/3/3 230/3/3 232/4/3 228/4/3 
f 233/4/1 234/3/1 235/3/1 236/4/1 
f 234/3/2 237/3/2 238/3/2 235/3/2 
f 233/4/6 239/4/6 237/3/6 234/3/6 
f 236/4/10 240/4/10 239/4/10 233/4/10 
f 235/3/3 238/3/3 240/4/3 236/4/3 
s 1
f 241/1/8 242/4/8 243/3/8 244/2/8 
f 245/5/8 246/8/8 247/7/8 248/6/8 
s off
f 249/9/2 245/9/2 248/4/2 250/4/2 
f 250/10/3 248/13/3 247/12/3 251/11/3 
f 251/7/12 247/7/12 246/8/12 252/8/12 
f 252/8/6 246/16/6 245/15/6 249/14/6 
f 253/2/6 249/1/6 241/1/6 244/2/6 
s 1
f 254/3/13 250/18/13 249/17/13 253/2/13 
s off
f 250/4/3 254/3/3 243/3/3 242/4/3 
f 255/4/1 256/3/1 257/3/1 258/4/1 
f 256/3/2 259/3/2 260/3/2 257/3/2 
f 255/4/6 261/4/6 259/3/6 256/3/6 
f 258/4/10 262/4/10 261/4/10 255/4/10 
f 257/3/3 260/3/3 262/4/3 258/4/3 
f 263/4/1 264/3/1 265/3/1 266/4/1 
f 264/3/2 267/3/2 268/3/2 265/3/2 
f 263/4/6 269/4/6 267/3/6 264/3/6 
f 266/4/10 270/4/10 269/4/10 263/4/10 
f 265/3/3 268/3/3 270/4/3 266/4/3 
s 1
f 271/1/5 272/2/5 273/3/5 274/4/5 
f 275/5/5 276/6/5 277/7/5 278/8/5 
s off
f 279/9/2 280/4/2 276/4/2 275/9/2 
f 280/10/1 281/11/1 277/12/1 276/13/1 
f 281/7/12 282/8/12 278/8/12 277/7/12 
f 282/8/7 279/14/7 275/15/7 278/16/7 
f 283/2/8 272/2/8 271/1/8 279/1/8 
s 1
f 284/3/3 283/2/3 279/17/3 280/18/3 
s off
f 280/4/1 274/4/1 273/3/1 284/3/1 
f 285/4/3 286/4/3 287/3/3 288/3/3 
f 288/3/14 287/3/14 289/3/14 290/3/14 
f 285/4/8 288/3/8 290/3/8 291/4/8 
f 286/4/10 285/4/10 291/4/10 292/4/10 
f 287/3/1 286/4/1 292/4/1 289/3/1 
f 293/4/3 294/4/3 295/3/3 296/3/3 
f 296/3/14 295/3/14 297/3/14 298/3/14 
f 293/4/8 296/3/8 298/3/8 299/4/8 
f 294/4/10 293/4/10 299/4/10 300/4/10 
f 295/3/1 294/4/1 300/4/1 297/3/1 
s 1
f 301/1/5 302/2/5 303/3/5 304/4/5 
f 305/5/5 306/6/5 307/7/5 308/8/5 
s off
f 309/9/2 310/4/2 306/4/2 305/9/2 
f 310/10/1 311/11/1 307/12/1 306/13/1 
f 311/7/12 312/8/12 308/8/12 307/7/12 
f 312/8/7 309/14/7 305/15/7 308/16/7 
f 313/2/8 302/2/8 301/1/8 309/1/8 
s 1
f 314/3/3 313/2/3 309/17/3 310/18/3 
s off
f 310/4/1 304/4/1 303/3/1 314/3/1 
f 315/4/3 316/4/3 317/3/3 318/3/3 
f 318/3/14 317/3/14 319/3/14 320/3/14 
f 315/4/8 318/3/8 320/3/8 321/4/8 
f 316/4/10 315/4/10 321/4/10 322/4/10 
f 317/3/1 316/4/1 322/4/1 319/3/1 
f 323/4/3 324/4/3 325/3/3 326/3/3 
f 326/3/14 325/3/14 327/3/14 328/3/14 
f 323/4/8 326/3/8 328/3/8 329/4/8 
f 324/4/10 323/4/10 329/4/10 330/4/10 
f 325/3/1 324/4/1 330/4/1 327/3/1 
s 1
f 331/1/5 332/2/5 333/3/5 334/4/5 
f 335/5/5 336/6/5 337/7/5 338/8/5 
s off
f 339/9/2 340/4/2 336/4/2 335/9/2 
f 340/10/1 341/11/1 337/12/1 336/13/1 
f 341/7/12 342/8/12 338/8/12 337/7/12 
s 1
f 343/3/3 344/2/3 339/17/3 340/18/3 
s off
f 340/4/1 334/4/1 333/3/1 343/3/1 
f 345/4/3 346/4/3 347/3/3 348/3/3 
f 348/3/14 347/3/14 349/3/14 350/3/14 
f 345/4/8 348/3/8 350/3/8 351/4/8 
f 346/4/10 345/4/10 351/4/10 352/4/10 
f 347/3/1 346/4/1 352/4/1 349/3/1 
f 353/4/3 354/4/3 355/3/3 356/3/3 
f 356/3/14 355/3/14 357/3/14 358/3/14 
f 354/4/10 353/4/10 359/4/10 360/4/10 
f 355/3/1 354/4/1 360/4/1 357/3/1 
s 1
f 361/1/3 362/4/3 363/3/3 364/2/3 
f 365/5/15 366/8/15 367/7/15 368/6/15 
s off
f 369/9/2 365/9/2 368/4/2 370/4/2 
f 370/10/1 368/13/1 367/12/1 371/11/1 
f 371/7/10 367/7/10 366/8/10 372/8/10 
f 372/8/8 366/16/8 365/15/8 369/14/8 
f 373/2/8 369/1/8 361/1/8 364/2/8 
s 1
f 374/3/5 370/18/5 369/17/5 373/2/5 
s off
f 370/4/1 374/3/1 363/3/1 362/4/1 
f 375/4/6 376/3/6 377/3/6 378/4/6 
f 376/3/2 379/3/2 380/3/2 377/3/2 
f 375/4/8 381/4/8 379/3/8 376/3/8 
f 378/4/10 370/4/10 381/4/10 375/4/10 
f 377/3/1 380/3/1 370/4/1 378/4/1 
f 382/4/6 383/3/6 384/3/6 385/4/6 
f 383/3/2 386/3/2 387/3/2 384/3/2 
f 382/4/8 388/4/8 386/3/8 383/3/8 
f 385/4/10 389/4/10 388/4/10 382/4/10 
f 384/3/1 387/3/1 389/4/1 385/4/1 
s 1
f 390/1/3 391/4/3 392/3/3 393/2/3 
f 394/5/15 395/8/15 396/7/15 397/6/15 
s off
f 398/9/2 394/9/2 397/4/2 399/4/2 
f 399/10/1 397/13/1 396/12/1 400/11/1 
f 400/7/10 396/7/10 395/8/10 401/8/10 
f 401/8/8 395/16/8 394/15/8 398/14/8 
f 402/2/8 398/1/8 390/1/8 393/2/8 
s 1
f 403/3/5 399/18/5 398/17/5 402/2/5 
s off
f 399/4/1 403/3/1 392/3/1 391/4/1 
f 404/4/6 405/3/6 406/3/6 407/4/6 
f 405/3/2 408/3/2 409/3/2 406/3/2 
f 404/4/8 410/4/8 408/3/8 405/3/8 
f 407/4/10 411/4/10 410/4/10 404/4/10 
f 406/3/1 409/3/1 411/4/1 407/4/1 
f 412/4/6 413/3/6 414/3/6 415/4/6 
f 413/3/2 416/3/2 417/3/2 414/3/2 
f 412/4/8 418/4/8 416/3/8 413/3/8 
f 415/4/10 419/4/10 418/4/10 412/4/10 
f 414/3/1 417/3/1 419/4/1 415/4/1 
# 263 polygons

