# 3ds Max Wavefront OBJ Exporter v0.97b - (c)2007 guruware
# File Created: 28.06.2018 17:39:43

mtllib M_XA_N_B2A_futi.mtl

#
# object M_XA_N_B2A_futi
#

v  767.9373 -17.4674 -541.8274
v  767.9373 2.3876 -541.8274
v  767.9373 2.3876 -598.8275
v  767.9373 -17.4674 -598.8275
v  767.9373 62.3326 -403.6098
v  767.9373 82.1876 -403.6099
v  767.9373 62.3326 -346.6097
v  767.9373 82.1876 -346.6097
v  797.3873 2.3876 -598.8275
v  797.3873 -17.4674 -598.8275
v  797.3873 62.3326 -403.6098
v  797.3873 62.3326 -346.6097
v  797.3873 82.1876 -346.6097
v  797.3873 2.3876 -541.8274
v  797.3873 82.1876 -403.6099
v  797.3873 -17.4674 -541.8274
v  773.6373 82.1875 -373.2097
v  773.6373 87.8876 -373.2097
v  773.6373 87.8876 -397.5370
v  773.6373 82.1876 -403.6099
v  777.4375 2.3876 -572.2273
v  773.6373 2.3876 -572.2273
v  773.6373 8.0876 -572.2273
v  777.4375 8.0876 -572.2273
v  773.6373 8.0876 -535.7546
v  777.4375 8.0876 -535.7546
v  777.4375 2.3876 -541.8275
v  773.6373 2.3876 -541.8275
v  777.4375 82.1876 -403.6099
v  777.4375 87.8876 -397.5370
v  777.4375 82.1876 -373.2097
v  777.4375 87.8876 -373.2097
v  787.8876 82.1876 -373.2097
v  787.8876 87.8876 -373.2097
v  787.8876 87.8876 -397.5370
v  787.8876 82.1876 -403.6099
v  791.6873 2.3876 -572.2273
v  787.8876 2.3876 -572.2273
v  787.8876 8.0876 -572.2273
v  791.6873 8.0876 -572.2273
v  787.8876 8.0876 -535.7546
v  791.6873 8.0876 -535.7546
v  791.6873 2.3876 -541.8275
v  787.8876 2.3876 -541.8275
v  791.6873 82.1876 -403.6099
v  791.6873 87.8876 -397.5370
v  791.6873 82.1876 -373.2097
v  791.6873 87.8876 -373.2097
v  797.3873 -17.4674 -424.9774
v  797.3873 -17.4674 -367.9774
v  797.3873 2.3876 -367.9774
v  797.3873 2.3876 -424.9774
v  797.3873 82.1876 -563.1949
v  797.3873 62.3326 -563.1949
v  797.3873 82.1876 -620.1951
v  797.3873 62.3326 -620.1951
v  826.8373 2.3876 -367.9774
v  826.8373 -17.4674 -367.9774
v  826.8373 62.3326 -563.1949
v  826.8373 62.3326 -620.1951
v  826.8373 82.1876 -620.1951
v  826.8373 2.3876 -424.9774
v  826.8373 82.1876 -563.1949
v  826.8373 -17.4674 -424.9774
v  803.0873 82.1875 -593.5951
v  803.0873 82.1876 -563.1949
v  803.0873 87.8876 -569.2678
v  803.0873 87.8876 -593.5951
v  806.8875 2.3876 -394.5775
v  806.8875 8.0876 -394.5775
v  803.0873 8.0876 -394.5775
v  803.0873 2.3876 -394.5775
v  806.8875 8.0876 -431.0502
v  803.0873 8.0876 -431.0502
v  806.8875 2.3876 -424.9773
v  803.0873 2.3876 -424.9773
v  806.8875 82.1876 -563.1949
v  806.8875 87.8876 -569.2678
v  806.8875 82.1876 -593.5951
v  806.8875 87.8876 -593.5951
v  817.3376 82.1876 -593.5951
v  817.3376 82.1876 -563.1949
v  817.3376 87.8876 -569.2678
v  817.3376 87.8876 -593.5951
v  821.1373 2.3876 -394.5775
v  821.1373 8.0876 -394.5775
v  817.3376 8.0876 -394.5775
v  817.3376 2.3876 -394.5775
v  821.1373 8.0876 -431.0502
v  817.3376 8.0876 -431.0502
v  821.1373 2.3876 -424.9773
v  817.3376 2.3876 -424.9773
v  821.1373 82.1876 -563.1949
v  821.1373 87.8876 -569.2678
v  821.1373 82.1876 -593.5951
v  821.1373 87.8876 -593.5951
v  -518.3878 -17.4674 -340.4273
v  -575.3878 -17.4674 -340.4273
v  -575.3878 2.3876 -340.4273
v  -518.3878 2.3876 -340.4273
v  -380.1703 82.1876 -340.4273
v  -380.1703 62.3326 -340.4273
v  -323.1702 82.1876 -340.4273
v  -323.1702 62.3326 -340.4273
v  -575.3878 2.3876 -281.5273
v  -575.3878 -17.4674 -281.5273
v  -380.1703 62.3326 -281.5273
v  -323.1702 62.3326 -281.5273
v  -323.1702 82.1876 -281.5273
v  -518.3878 2.3876 -281.5273
v  -380.1703 82.1876 -281.5273
v  -518.3878 -17.4674 -281.5273
v  -349.7701 82.1875 -334.7273
v  -380.1703 82.1876 -334.7273
v  -374.0974 87.8876 -334.7273
v  -349.7701 87.8876 -334.7273
v  -548.7877 2.3876 -330.9271
v  -548.7877 8.0876 -330.9271
v  -548.7877 8.0876 -334.7274
v  -548.7877 2.3876 -334.7274
v  -512.3149 8.0876 -330.9271
v  -512.3149 8.0876 -334.7274
v  -518.3879 2.3876 -330.9271
v  -518.3879 2.3876 -334.7274
v  -380.1703 82.1876 -330.9271
v  -374.0974 87.8876 -330.9271
v  -349.7701 82.1876 -330.9271
v  -349.7701 87.8876 -330.9271
v  -349.7701 82.1876 -320.4771
v  -380.1703 82.1876 -320.4771
v  -374.0974 87.8876 -320.4771
v  -349.7701 87.8876 -320.4771
v  -548.7877 2.3876 -316.6773
v  -548.7877 8.0876 -316.6773
v  -548.7877 8.0876 -320.4771
v  -548.7877 2.3876 -320.4771
v  -512.3149 8.0876 -316.6773
v  -512.3149 8.0876 -320.4771
v  -518.3879 2.3876 -316.6773
v  -518.3879 2.3876 -320.4771
v  -380.1703 82.1876 -316.6773
v  -374.0974 87.8876 -316.6773
v  -349.7701 82.1876 -316.6773
v  -349.7701 87.8876 -316.6773
v  -349.7701 82.1875 -305.2773
v  -380.1703 82.1876 -305.2773
v  -374.0974 87.8876 -305.2773
v  -349.7701 87.8876 -305.2773
v  -548.7877 2.3876 -301.4771
v  -548.7877 8.0876 -301.4771
v  -548.7877 8.0876 -305.2773
v  -548.7877 2.3876 -305.2773
v  -512.3149 8.0876 -301.4771
v  -512.3149 8.0876 -305.2773
v  -518.3879 2.3876 -301.4771
v  -518.3879 2.3876 -305.2773
v  -380.1703 82.1876 -301.4771
v  -374.0974 87.8876 -301.4771
v  -349.7701 82.1876 -301.4771
v  -349.7701 87.8876 -301.4771
v  -349.7701 82.1876 -291.0270
v  -380.1703 82.1876 -291.0270
v  -374.0974 87.8876 -291.0270
v  -349.7701 87.8876 -291.0270
v  -548.7877 2.3876 -287.2273
v  -548.7877 8.0876 -287.2273
v  -548.7877 8.0876 -291.0270
v  -548.7877 2.3876 -291.0270
v  -512.3149 8.0876 -287.2273
v  -512.3149 8.0876 -291.0270
v  -518.3879 2.3876 -287.2273
v  -518.3879 2.3876 -291.0270
v  -380.1703 82.1876 -287.2273
v  -374.0974 87.8876 -287.2273
v  -349.7701 82.1876 -287.2273
v  -349.7701 87.8876 -287.2273
# 176 vertices

vn -1.0000 0.0000 -0.0000
vn 0.0000 0.0000 -1.0000
vn 0.0000 -1.0000 -0.0000
vn 0.0000 0.0000 1.0000
vn 0.0000 1.0000 -0.0000
vn 0.0000 1.0000 0.0000
vn 0.0000 0.8660 -0.5000
vn 1.0000 0.0000 -0.0000
vn 0.0000 -0.8660 0.5000
vn 0.0000 0.8660 0.5000
vn 0.0000 -0.8660 -0.5000
vn 0.0000 -1.0000 0.0000
vn -0.5000 0.8660 -0.0000
vn -0.0000 0.0000 1.0000
vn 0.5000 -0.8660 -0.0000
vn -0.0000 -1.0000 0.0000
vn 0.0000 -0.0000 -1.0000
# 17 vertex normals

vt 0.1362 0.2407 0.0000
vt 0.1362 0.2407 -0.0000
vt 0.1362 0.2407 0.7705
vt 0.1362 0.2407 1.0000
vt 0.1362 0.2407 0.2026
vt 0.1362 0.2407 0.2043
vt 0.1364 0.2406 0.9601
vt 0.1362 0.2407 0.9601
vt 0.0822 0.2136 0.0000
vt 0.0822 0.2136 0.0702
vt 0.0822 0.2136 0.2425
vt 0.0822 0.2136 0.1837
vt 0.0822 0.2136 0.1827
vt 0.0822 0.2136 0.9355
vt 0.0822 0.2136 0.9958
vt 0.0822 0.2136 0.9402
vt 0.0822 0.2136 1.0000
vt 0.0822 0.2136 0.9298
vt 0.0822 0.2136 0.0877
vt 0.0822 0.2136 0.9123
vt 0.0822 0.2136 0.9215
# 21 texture coords

g M_XA_N_B2A_futi
usemtl T_tujian_004
s off
f 1/1/1 2/1/1 3/1/1 4/1/1 
f 2/1/1 1/1/1 5/1/1 6/1/1 
f 5/1/1 7/1/1 8/1/1 6/1/1 
f 9/2/2 10/2/2 4/2/2 3/2/2 
f 11/3/3 12/3/3 7/3/3 5/3/3 
f 12/4/4 13/4/4 8/4/4 7/4/4 
f 14/5/5 9/6/5 3/6/5 2/5/5 
f 13/7/6 15/7/6 6/7/6 8/7/6 
f 14/5/7 2/5/7 6/8/7 15/8/7 
f 16/4/8 10/4/8 9/4/8 14/4/8 
f 14/4/8 15/4/8 11/4/8 16/4/8 
f 11/4/8 15/4/8 13/4/8 12/4/8 
f 17/9/1 18/9/1 19/9/1 20/9/1 
f 21/10/2 22/10/2 23/10/2 24/10/2 
f 24/11/6 23/11/6 25/11/6 26/11/6 
f 27/12/3 28/12/3 22/13/3 21/13/3 
f 28/12/9 27/12/9 29/14/9 20/14/9 
f 30/15/7 26/11/7 25/11/7 19/15/7 
f 20/14/3 29/14/3 31/16/3 17/16/3 
f 32/17/5 30/15/5 19/15/5 18/17/5 
f 32/18/4 18/18/4 17/18/4 31/18/4 
f 29/19/8 27/19/8 26/19/8 30/19/8 
f 33/20/1 34/20/1 35/20/1 36/20/1 
f 37/10/2 38/10/2 39/10/2 40/10/2 
f 40/11/6 39/11/6 41/11/6 42/11/6 
f 43/12/3 44/12/3 38/13/3 37/13/3 
f 44/12/9 43/12/9 45/21/9 36/21/9 
f 46/15/7 42/11/7 41/11/7 35/15/7 
f 47/16/3 33/16/3 36/16/3 45/21/3 
f 48/17/5 46/15/5 35/15/5 34/17/5 
f 48/18/4 34/18/4 33/18/4 47/18/4 
f 45/17/8 43/17/8 42/17/8 46/17/8 
f 37/17/8 40/17/8 42/17/8 43/17/8 
f 23/9/1 22/9/1 28/9/1 25/9/1 
f 21/19/8 24/19/8 26/19/8 27/19/8 
f 39/20/1 38/20/1 44/20/1 41/20/1 
f 19/9/1 25/9/1 28/9/1 20/9/1 
f 41/20/1 44/20/1 36/20/1 35/20/1 
f 32/19/8 31/19/8 29/19/8 30/19/8 
f 48/17/8 47/17/8 45/17/8 46/17/8 
f 49/1/1 50/1/1 51/1/1 52/1/1 
f 52/1/1 53/1/1 54/1/1 49/1/1 
f 54/1/1 53/1/1 55/1/1 56/1/1 
f 57/2/4 51/2/4 50/2/4 58/2/4 
f 59/3/3 54/3/3 56/3/3 60/3/3 
f 60/4/2 56/4/2 55/4/2 61/4/2 
f 62/5/5 52/5/5 51/6/5 57/6/5 
f 61/7/5 55/7/5 53/7/5 63/7/5 
f 62/5/10 63/8/10 53/8/10 52/5/10 
f 64/4/8 62/4/8 57/4/8 58/4/8 
f 62/4/8 64/4/8 59/4/8 63/4/8 
f 59/4/8 60/4/8 61/4/8 63/4/8 
f 65/9/1 66/9/1 67/9/1 68/9/1 
f 69/10/4 70/10/4 71/10/4 72/10/4 
f 70/11/5 73/11/5 74/11/5 71/11/5 
f 75/12/3 69/13/3 72/13/3 76/12/3 
f 76/12/11 66/14/11 77/14/11 75/12/11 
f 78/15/10 67/15/10 74/11/10 73/11/10 
f 66/14/12 65/16/12 79/16/12 77/14/12 
f 80/17/5 68/17/5 67/15/5 78/15/5 
f 80/18/2 79/18/2 65/18/2 68/18/2 
f 77/19/8 78/19/8 73/19/8 75/19/8 
f 81/20/1 82/20/1 83/20/1 84/20/1 
f 85/10/4 86/10/4 87/10/4 88/10/4 
f 86/11/5 89/11/5 90/11/5 87/11/5 
f 91/12/3 85/13/3 88/13/3 92/12/3 
f 92/12/11 82/21/11 93/21/11 91/12/11 
f 94/15/10 83/15/10 90/11/10 89/11/10 
f 95/16/3 93/21/3 82/16/3 81/16/3 
f 96/17/5 84/17/5 83/15/5 94/15/5 
f 96/18/2 95/18/2 81/18/2 84/18/2 
f 93/17/8 94/17/8 89/17/8 91/17/8 
f 85/17/8 91/17/8 89/17/8 86/17/8 
f 71/9/1 74/9/1 76/9/1 72/9/1 
f 69/19/8 75/19/8 73/19/8 70/19/8 
f 87/20/1 90/20/1 92/20/1 88/20/1 
f 67/9/1 66/9/1 76/9/1 74/9/1 
f 90/20/1 83/20/1 82/20/1 92/20/1 
f 80/19/8 78/19/8 77/19/8 79/19/8 
f 96/17/8 94/17/8 93/17/8 95/17/8 
f 97/1/2 98/1/2 99/1/2 100/1/2 
f 100/1/2 101/1/2 102/1/2 97/1/2 
f 102/1/2 101/1/2 103/1/2 104/1/2 
f 105/2/1 99/2/1 98/2/1 106/2/1 
f 107/3/3 102/3/3 104/3/3 108/3/3 
f 108/4/8 104/4/8 103/4/8 109/4/8 
f 110/5/5 100/5/5 99/6/5 105/6/5 
f 109/7/5 103/7/5 101/7/5 111/7/5 
f 110/5/13 111/8/13 101/8/13 100/5/13 
f 112/4/14 110/4/14 105/4/14 106/4/14 
f 110/4/4 112/4/4 107/4/4 111/4/4 
f 107/4/4 108/4/4 109/4/4 111/4/4 
f 113/9/2 114/9/2 115/9/2 116/9/2 
f 117/10/1 118/10/1 119/10/1 120/10/1 
f 118/11/5 121/11/5 122/11/5 119/11/5 
f 123/12/3 117/13/3 120/13/3 124/12/3 
f 124/12/15 114/14/15 125/14/15 123/12/15 
f 126/15/13 115/15/13 122/11/13 121/11/13 
f 114/14/16 113/16/16 127/16/16 125/14/16 
f 128/17/5 116/17/5 115/15/5 126/15/5 
f 128/18/8 127/18/8 113/18/8 116/18/8 
f 125/19/14 126/19/14 121/19/14 123/19/14 
f 129/20/2 130/20/2 131/20/2 132/20/2 
f 133/10/1 134/10/1 135/10/1 136/10/1 
f 134/11/5 137/11/5 138/11/5 135/11/5 
f 139/12/3 133/13/3 136/13/3 140/12/3 
f 140/12/15 130/21/15 141/21/15 139/12/15 
f 142/15/13 131/15/13 138/11/13 137/11/13 
f 143/16/3 141/21/3 130/16/3 129/16/3 
f 144/17/5 132/17/5 131/15/5 142/15/5 
f 144/18/8 143/18/8 129/18/8 132/18/8 
f 141/17/14 142/17/14 137/17/14 139/17/14 
f 133/17/4 139/17/4 137/17/4 134/17/4 
f 119/9/2 122/9/2 124/9/2 120/9/2 
f 117/19/4 123/19/4 121/19/4 118/19/4 
f 135/20/2 138/20/2 140/20/2 136/20/2 
f 115/9/17 114/9/17 124/9/17 122/9/17 
f 138/20/2 131/20/2 130/20/2 140/20/2 
f 128/19/4 126/19/4 125/19/4 127/19/4 
f 144/17/4 142/17/4 141/17/4 143/17/4 
f 145/9/2 146/9/2 147/9/2 148/9/2 
f 149/10/1 150/10/1 151/10/1 152/10/1 
f 150/11/5 153/11/5 154/11/5 151/11/5 
f 155/12/3 149/13/3 152/13/3 156/12/3 
f 156/12/15 146/14/15 157/14/15 155/12/15 
f 158/15/13 147/15/13 154/11/13 153/11/13 
f 146/14/16 145/16/16 159/16/16 157/14/16 
f 160/17/5 148/17/5 147/15/5 158/15/5 
f 160/18/8 159/18/8 145/18/8 148/18/8 
f 157/19/14 158/19/14 153/19/14 155/19/14 
f 161/20/2 162/20/2 163/20/2 164/20/2 
f 165/10/1 166/10/1 167/10/1 168/10/1 
f 166/11/5 169/11/5 170/11/5 167/11/5 
f 171/12/3 165/13/3 168/13/3 172/12/3 
f 172/12/15 162/21/15 173/21/15 171/12/15 
f 174/15/13 163/15/13 170/11/13 169/11/13 
f 175/16/3 173/21/3 162/16/3 161/16/3 
f 176/17/5 164/17/5 163/15/5 174/15/5 
f 176/18/8 175/18/8 161/18/8 164/18/8 
f 173/17/14 174/17/14 169/17/14 171/17/14 
f 165/17/4 171/17/4 169/17/4 166/17/4 
f 151/9/2 154/9/2 156/9/2 152/9/2 
f 149/19/4 155/19/4 153/19/4 150/19/4 
f 167/20/2 170/20/2 172/20/2 168/20/2 
f 147/9/17 146/9/17 156/9/17 154/9/17 
f 170/20/2 163/20/2 162/20/2 172/20/2 
f 160/19/4 158/19/4 157/19/4 159/19/4 
f 176/17/4 174/17/4 173/17/4 175/17/4 
# 148 polygons

