# 3ds Max Wavefront OBJ Exporter v0.97b - (c)2007 guruware
# File Created: 06.07.2018 14:37:10

mtllib M_XA_huandaoMEP_ruodian.mtl

#
# object M_XA_huandaoMEP_ruodian
#

v  -29.3227 -26.9128 72.8237
v  40.3577 -26.9128 61.6172
v  17.2144 -26.9128 -82.2842
v  -52.4660 -26.9128 -71.0777
# 4 vertices

vn 0.0000 1.0000 -0.0000
# 1 vertex normals

vt 0.0164 0.0063 0.0000
vt 0.9821 0.0063 0.0000
vt 0.9821 1.0031 0.0000
vt 0.0164 1.0031 0.0000
# 4 texture coords

g M_XA_huandaoMEP_ruodian
usemtl huandao_MEP_ruodian
s 1
f 1/1/1 2/2/1 3/3/1 4/4/1 
# 1 polygons

