# 3ds Max Wavefront OBJ Exporter v0.97b - (c)2007 guruware
# File Created: 24.06.2018 15:51:37

mtllib M_XA_K_B2A_baiyecuang.mtl

#
# object M_XA_K_B2A_baiyecuang
#

v  1504.1155 51.7535 885.9082
v  1504.1155 23.2535 885.9082
v  1483.2156 23.2535 885.9083
v  1483.2156 51.7535 885.9083
v  1483.2156 51.7535 887.2383
v  1483.2156 23.2535 887.2383
v  1504.1155 23.2535 887.2382
v  1504.1155 51.7535 887.2382
v  1504.1155 23.2535 888.9482
v  1481.7905 21.8285 888.9482
v  1505.5405 21.8285 888.9482
v  1505.5405 53.1785 888.9482
v  1504.1155 51.7535 888.9482
v  1483.2156 23.2535 888.9482
v  1504.1155 51.7535 888.4732
v  1481.7905 53.1785 888.4733
v  1505.5405 53.1785 888.4732
v  1505.5405 21.8285 888.4732
v  1504.1155 23.2535 888.4732
v  1483.2156 51.7535 888.4733
v  1483.2156 23.2535 888.4733
v  1483.2156 51.7535 888.9482
v  1481.7905 53.1785 888.9482
v  1481.7905 21.8285 888.4733
# 24 vertices

vn -0.0000 0.0000 -1.0000
vn 0.0000 0.0000 1.0000
vn -1.0000 0.0000 0.0000
vn 0.0000 1.0000 -0.0000
vn 1.0000 0.0000 -0.0000
vn 0.0000 -1.0000 -0.0000
# 6 vertex normals

vt 0.1359 0.9979 0.0000
vt 0.1359 -0.0000 0.0000
vt 0.8693 -0.0000 0.0000
vt 0.8693 0.9979 0.0000
vt 0.8396 0.6919 0.0000
# 5 texture coords

g M_XA_K_B2A_baiyecuang
usemtl Tt_K_B2A_baiyecuang
s off
f 1/1/1 2/2/1 3/3/1 4/4/1 
f 5/1/2 6/2/2 7/3/2 8/4/2 
f 9/5/2 10/5/2 11/5/2 12/5/2 
f 12/5/2 13/5/2 9/5/2 
f 9/5/2 14/5/2 10/5/2 
f 15/5/1 16/5/1 17/5/1 18/5/1 
f 18/5/1 19/5/1 15/5/1 
f 15/5/1 20/5/1 16/5/1 
f 19/5/3 9/5/3 13/5/3 15/5/3 
f 21/5/4 14/5/4 9/5/4 19/5/4 
f 20/5/5 22/5/5 14/5/5 21/5/5 
f 15/5/6 13/5/6 22/5/6 20/5/6 
f 16/5/4 23/5/4 12/5/4 17/5/4 
f 24/5/3 10/5/3 23/5/3 16/5/3 
f 18/5/6 11/5/6 10/5/6 24/5/6 
f 17/5/5 12/5/5 11/5/5 18/5/5 
f 13/5/2 12/5/2 23/5/2 22/5/2 
f 20/5/1 21/5/1 24/5/1 16/5/1 
f 14/5/2 22/5/2 23/5/2 10/5/2 
f 19/5/1 18/5/1 24/5/1 21/5/1 
# 16 polygons - 4 triangles

