# 3ds Max Wavefront OBJ Exporter v0.97b - (c)2007 guruware
# File Created: 24.06.2018 15:47:06

mtllib M_XA_K_B2S_louti.mtl

#
# object M_XA_K_B2S_louti
#

v  -677.4910 48.5238 -14.0205
v  -677.4910 48.5238 14.4795
v  -672.5510 48.5238 14.4795
v  -672.5510 48.5238 -14.0205
v  -672.5510 45.8467 -14.0205
v  -673.1406 45.4838 -14.0205
v  -677.4910 45.4838 -14.0205
v  -677.4910 45.4838 14.4795
v  -673.1406 45.4838 14.4795
v  -672.5510 45.8467 14.4795
v  -618.2112 81.9639 14.4795
v  -618.2112 79.2867 14.4795
v  -618.2112 79.2867 -14.0205
v  -618.2112 81.9639 -14.0205
v  -618.2112 85.0038 -14.0212
v  -618.2112 85.0038 14.4790
v  -584.3911 85.0038 14.4790
v  -584.3911 85.0038 -44.4211
v  -584.3911 82.7238 -44.4211
v  -618.2112 82.7238 -44.4211
v  -618.2112 85.0038 -44.4211
v  -612.6257 82.7238 14.4790
v  -618.2112 79.2867 14.4790
v  -584.3911 82.7238 14.4790
v  -612.6257 82.7238 -14.0212
v  -618.2112 82.7238 -14.0212
v  -618.2112 79.2867 -14.0212
v  -711.0457 45.4838 14.4795
v  -677.4915 45.4838 14.4795
v  -677.4915 45.4838 -15.9207
v  -711.0457 45.4838 -44.4207
v  -677.4915 43.2039 -15.9207
v  -677.4915 39.6029 -15.9207
v  -677.4915 39.6029 -44.4207
v  -677.4915 45.4838 -44.4207
v  -677.4915 43.2039 14.4795
v  -711.0457 43.2039 -44.4207
v  -683.1006 43.2039 -44.4207
v  -683.1006 43.2039 -15.9207
v  -711.0457 43.2039 14.4795
v  -618.2112 7.4254 -15.9214
v  -618.2112 7.4254 -44.4214
v  -623.1511 7.4254 -44.4214
v  -623.1511 7.4254 -15.9214
v  -623.1511 4.7160 -15.9214
v  -622.4314 4.2539 -15.9214
v  -618.2112 4.2539 -15.9214
v  -618.2112 4.2539 -44.4214
v  -622.4314 4.2539 -44.4214
v  -623.1511 4.7160 -44.4214
v  -623.1511 10.5969 -15.9214
v  -623.1511 10.5969 -44.4214
v  -628.0911 10.5969 -44.4214
v  -628.0911 10.5969 -15.9214
v  -628.0911 7.8875 -15.9214
v  -628.0911 7.8875 -44.4214
v  -628.0911 13.7685 -15.9214
v  -628.0911 13.7685 -44.4214
v  -633.0310 13.7685 -44.4214
v  -633.0310 13.7685 -15.9214
v  -633.0310 11.0590 -15.9214
v  -633.0310 11.0590 -44.4214
v  -633.0310 16.9400 -15.9214
v  -633.0310 16.9400 -44.4214
v  -637.9712 16.9400 -44.4214
v  -637.9712 16.9400 -15.9214
v  -637.9712 14.2306 -15.9214
v  -637.9712 14.2306 -44.4214
v  -637.9712 20.1115 -15.9214
v  -637.9712 20.1115 -44.4214
v  -642.9109 20.1115 -44.4214
v  -642.9109 20.1115 -15.9214
v  -642.9109 17.4021 -15.9214
v  -642.9109 17.4021 -44.4214
v  -642.9109 23.2831 -15.9214
v  -642.9109 23.2831 -44.4214
v  -647.8511 23.2831 -44.4214
v  -647.8511 23.2831 -15.9214
v  -647.8511 20.5736 -15.9214
v  -647.8511 20.5736 -44.4214
v  -647.8511 26.4546 -15.9214
v  -647.8511 26.4546 -44.4214
v  -652.7910 26.4546 -44.4214
v  -652.7910 26.4546 -15.9214
v  -652.7910 23.7452 -15.9214
v  -652.7910 23.7452 -44.4214
v  -657.7310 26.9167 -15.9214
v  -657.7310 26.9167 -44.4214
v  -662.6709 30.0883 -44.4214
v  -662.6709 30.0883 -15.9214
v  -667.6111 33.2598 -44.4214
v  -667.6111 33.2598 -15.9214
v  -672.5510 36.4313 -44.4214
v  -672.5510 36.4313 -15.9214
v  -677.4910 39.6029 -44.4214
v  -677.4910 39.6029 -15.9214
v  -652.7910 29.6262 -15.9214
v  -652.7910 29.6262 -44.4214
v  -657.7310 29.6262 -44.4214
v  -657.7310 29.6262 -15.9214
v  -657.7310 32.7977 -15.9214
v  -657.7310 32.7977 -44.4214
v  -662.6709 32.7977 -44.4214
v  -662.6709 32.7977 -15.9214
v  -662.6709 35.9692 -15.9214
v  -662.6709 35.9692 -44.4214
v  -667.6111 35.9692 -44.4214
v  -667.6111 35.9692 -15.9214
v  -667.6111 39.1408 -15.9214
v  -667.6111 39.1408 -44.4214
v  -672.5510 39.1408 -44.4214
v  -672.5510 39.1408 -15.9214
v  -672.5510 42.3123 -15.9214
v  -672.5510 42.3123 -44.4214
v  -677.4910 42.3123 -44.4214
v  -677.4910 42.3123 -15.9214
v  -618.2112 7.4254 -15.9207
v  -618.2112 7.4254 -44.4207
v  -623.1514 7.4254 -44.4207
v  -623.1514 7.4254 -15.9207
v  -623.1514 4.7160 -15.9207
v  -622.4314 4.2539 -15.9207
v  -618.2112 4.2539 -15.9207
v  -618.2112 4.2539 -44.4207
v  -622.4314 4.2539 -44.4207
v  -623.1514 4.7160 -44.4207
v  -623.1514 10.5969 -15.9207
v  -623.1514 10.5969 -44.4207
v  -628.0911 10.5969 -44.4207
v  -628.0911 10.5969 -15.9207
v  -628.0911 7.8875 -15.9207
v  -628.0911 7.8875 -44.4207
v  -628.0911 13.7685 -15.9207
v  -628.0911 13.7685 -44.4207
v  -633.0313 13.7685 -44.4207
v  -633.0313 13.7685 -15.9207
v  -633.0313 11.0590 -15.9207
v  -633.0313 11.0590 -44.4207
v  -633.0313 16.9400 -15.9207
v  -633.0313 16.9400 -44.4207
v  -637.9712 16.9400 -44.4207
v  -637.9712 16.9400 -15.9207
v  -637.9712 14.2306 -15.9207
v  -637.9712 14.2306 -44.4207
v  -637.9712 20.1115 -15.9207
v  -637.9712 20.1115 -44.4207
v  -642.9111 20.1115 -44.4207
v  -642.9111 20.1115 -15.9207
v  -642.9111 17.4021 -15.9207
v  -642.9111 17.4021 -44.4207
v  -642.9111 23.2831 -15.9207
v  -642.9111 23.2831 -44.4207
v  -647.8513 23.2831 -44.4207
v  -647.8513 23.2831 -15.9207
v  -647.8513 20.5736 -15.9207
v  -647.8513 20.5736 -44.4207
v  -647.8513 26.4546 -15.9207
v  -647.8513 26.4546 -44.4207
v  -652.7913 26.4546 -44.4207
v  -652.7913 26.4546 -15.9207
v  -652.7913 23.7452 -15.9207
v  -652.7913 23.7452 -44.4207
v  -657.7312 26.9167 -15.9207
v  -657.7312 26.9167 -44.4207
v  -662.6711 30.0883 -44.4207
v  -662.6711 30.0883 -15.9207
v  -667.6113 33.2598 -44.4207
v  -667.6113 33.2598 -15.9207
v  -672.5513 36.4313 -44.4207
v  -672.5513 36.4313 -15.9207
v  -677.4912 39.6029 -44.4207
v  -677.4912 39.6029 -15.9207
v  -652.7913 29.6262 -15.9207
v  -652.7913 29.6262 -44.4207
v  -657.7312 29.6262 -44.4207
v  -657.7312 29.6262 -15.9207
v  -657.7312 32.7977 -15.9207
v  -657.7312 32.7977 -44.4207
v  -662.6711 32.7977 -44.4207
v  -662.6711 32.7977 -15.9207
v  -662.6711 35.9692 -15.9207
v  -662.6711 35.9692 -44.4207
v  -667.6113 35.9692 -44.4207
v  -667.6113 35.9692 -15.9207
v  -667.6113 39.1408 -15.9207
v  -667.6113 39.1408 -44.4207
v  -672.5513 39.1408 -44.4207
v  -672.5513 39.1408 -15.9207
v  -672.5513 42.3123 -15.9207
v  -672.5513 42.3123 -44.4207
v  -677.4912 42.3123 -44.4207
v  -677.4912 42.3123 -15.9207
v  -677.4912 48.5238 -14.0205
v  -677.4912 48.5238 14.4795
v  -672.5513 48.5238 14.4795
v  -672.5513 48.5238 -14.0205
v  -672.5513 45.8467 -14.0205
v  -673.1409 45.4838 -14.0205
v  -677.4912 45.4838 -14.0205
v  -677.4912 45.4838 14.4795
v  -673.1409 45.4838 14.4795
v  -672.5513 45.8467 14.4795
v  -667.6113 48.8867 14.4795
v  -667.6113 48.8867 -14.0205
v  -662.6711 51.9267 14.4795
v  -662.6711 51.9267 -14.0205
v  -657.7312 54.9667 14.4795
v  -657.7312 54.9667 -14.0205
v  -652.7913 58.0067 14.4795
v  -652.7913 58.0067 -14.0205
v  -647.8513 61.0467 -14.0205
v  -647.8513 61.0467 14.4795
v  -642.9111 64.0867 14.4795
v  -642.9111 64.0867 -14.0205
v  -637.9712 67.1267 14.4795
v  -637.9712 67.1267 -14.0205
v  -633.0313 70.1667 -14.0205
v  -633.0313 70.1667 14.4795
v  -628.0911 73.2067 -14.0205
v  -628.0911 73.2067 14.4795
v  -623.1514 76.2467 -14.0205
v  -623.1514 76.2467 14.4795
v  -667.6111 54.6039 -14.0215
v  -667.6111 54.6038 14.4792
v  -662.6711 54.6038 14.4792
v  -662.6714 54.6038 -14.0215
v  -662.6711 51.9267 -14.0215
v  -667.6113 48.8867 -14.0215
v  -667.6113 48.8867 14.4792
v  -662.6711 51.9267 14.4792
v  -672.5510 51.5638 -14.0215
v  -672.5510 51.5638 14.4792
v  -667.6111 51.5638 14.4792
v  -667.6113 51.5638 -14.0215
v  -667.6111 48.8867 -14.0215
v  -672.5513 45.8467 -14.0215
v  -672.5513 45.8467 14.4792
v  -667.6111 48.8867 14.4792
v  -662.6711 57.6439 -14.0215
v  -662.6711 57.6438 14.4792
v  -657.7312 57.6438 14.4792
v  -657.7314 57.6438 -14.0215
v  -657.7312 54.9667 -14.0215
v  -662.6714 51.9267 -14.0215
v  -662.6714 51.9267 14.4792
v  -657.7312 54.9667 14.4792
v  -657.7307 60.6839 -14.0215
v  -657.7307 60.6838 14.4792
v  -652.7910 60.6838 14.4792
v  -652.7910 60.6838 -14.0215
v  -652.7910 58.0067 -14.0215
v  -657.7310 54.9667 -14.0215
v  -657.7310 54.9667 14.4792
v  -652.7910 58.0067 14.4792
v  -652.7910 63.7239 -14.0215
v  -652.7910 63.7238 14.4792
v  -647.8513 63.7238 14.4792
v  -647.8513 63.7238 -14.0215
v  -647.8513 61.0467 -14.0215
v  -647.8513 61.0467 14.4792
v  -647.8511 66.7639 -14.0215
v  -647.8511 66.7638 14.4792
v  -642.9111 66.7638 14.4792
v  -642.9116 66.7638 -14.0215
v  -642.9111 64.0867 -14.0215
v  -642.9111 64.0867 14.4792
v  -642.9109 69.8039 -14.0215
v  -642.9109 69.8038 14.4792
v  -637.9707 69.8038 14.4792
v  -637.9712 69.8038 -14.0215
v  -637.9707 67.1268 -14.0215
v  -642.9109 64.0867 -14.0215
v  -642.9109 64.0867 14.4792
v  -637.9707 67.1267 14.4792
v  -637.9709 72.8439 -14.0215
v  -637.9709 72.8438 14.4792
v  -633.0313 72.8438 14.4792
v  -633.0317 72.8438 -14.0215
v  -633.0313 70.1668 -14.0215
v  -637.9712 67.1267 -14.0215
v  -637.9712 67.1267 14.4792
v  -633.0313 70.1667 14.4792
v  -633.0310 75.8839 -14.0215
v  -633.0310 75.8838 14.4792
v  -628.0913 75.8838 14.4792
v  -628.0918 75.8838 -14.0215
v  -628.0913 73.2068 -14.0215
v  -633.0313 70.1667 -14.0215
v  -628.0913 73.2067 14.4792
v  -628.0908 78.9239 -14.0215
v  -628.0908 78.9238 14.4792
v  -623.1509 78.9238 14.4792
v  -623.1514 78.9238 -14.0215
v  -623.1509 76.2468 -14.0215
v  -628.0911 73.2067 -14.0215
v  -628.0911 73.2067 14.4792
v  -623.1509 76.2467 14.4792
v  -623.1511 81.9639 -14.0215
v  -623.1511 81.9638 14.4792
v  -618.2109 81.9638 14.4792
v  -618.2117 81.9638 -14.0215
v  -618.2109 79.2868 -14.0215
v  -623.1511 76.2467 -14.0215
v  -623.1511 76.2467 14.4792
v  -618.2109 79.2867 14.4792
# 305 vertices

vn 0.0000 1.0000 -0.0000
vn 0.0000 0.0000 -1.0000
vn -1.0000 0.0000 -0.0000
vn 0.0000 0.0000 1.0000
vn 1.0000 0.0000 -0.0000
vn 0.0000 -1.0000 -0.0000
vn 0.5241 -0.8517 -0.0000
vn -0.5403 -0.8415 -0.0000
vn 0.0000 1.0000 0.0000
vn -1.0000 0.0000 0.0000
# 10 vertex normals

vt 0.9911 0.9133 0.0000
vt -430.0231 -607.7756 0.0000
vt -429.2719 -607.7756 0.0000
vt -429.2719 -602.8543 0.0000
vt -430.0231 -602.8543 0.0000
vt -419.7869 -608.1037 0.0000
vt -420.5157 -608.1037 0.0000
vt -420.5157 -613.0250 0.0000
vt -419.7869 -613.0250 0.0000
# 9 texture coords

g M_XA_K_B2S_louti
usemtl T_tujian_004
s off
f 1/1/1 2/1/1 3/1/1 4/1/1 
f 4/1/2 5/1/2 6/1/2 1/1/2 
f 1/1/3 7/1/3 8/1/3 2/1/3 
f 9/1/4 10/1/4 3/1/4 2/1/4 
f 11/1/5 12/1/5 13/1/5 14/1/5 
f 7/2/6 6/3/6 9/4/6 8/5/6 
f 13/1/7 12/1/7 9/1/7 6/1/7 
f 15/1/1 16/1/1 17/1/1 18/1/1 
f 18/1/2 19/1/2 20/1/2 21/1/2 
f 22/1/4 16/1/4 23/1/4 
f 17/1/5 24/1/5 19/1/5 18/1/5 
f 25/1/6 19/1/6 24/1/6 22/1/6 
f 26/1/3 27/1/3 23/1/3 16/1/3 
f 21/1/3 20/1/3 26/1/3 15/1/3 
f 22/1/7 23/1/7 27/1/7 25/1/7 
f 26/1/2 25/1/2 27/1/2 
f 28/1/1 29/1/1 30/1/1 31/1/1 
f 32/1/5 33/1/5 34/1/5 35/1/5 
f 30/1/5 29/1/5 36/1/5 32/1/5 
f 37/1/6 38/1/6 39/1/6 40/1/6 
f 38/1/8 34/1/8 33/1/8 39/1/8 
f 32/1/4 39/1/4 33/1/4 
f 41/1/1 42/1/1 43/1/1 44/1/1 
f 44/1/4 45/1/4 46/1/4 41/1/4 
f 46/1/4 47/1/4 41/1/4 
f 41/1/5 47/1/5 48/1/5 42/1/5 
f 42/1/2 48/1/2 49/1/2 43/1/2 
f 49/1/2 50/1/2 43/1/2 
f 51/1/1 52/1/1 53/1/1 54/1/1 
f 55/1/4 45/1/4 44/1/4 51/1/4 
f 55/1/4 51/1/4 54/1/4 
f 43/1/5 52/1/5 51/1/5 44/1/5 
f 56/1/2 53/1/2 52/1/2 43/1/2 
f 56/1/2 43/1/2 50/1/2 
f 57/1/1 58/1/1 59/1/1 60/1/1 
f 61/1/4 55/1/4 54/1/4 57/1/4 
f 61/1/4 57/1/4 60/1/4 
f 53/1/5 58/1/5 57/1/5 54/1/5 
f 62/1/2 59/1/2 58/1/2 53/1/2 
f 62/1/2 53/1/2 56/1/2 
f 63/1/1 64/1/1 65/1/1 66/1/1 
f 67/1/4 61/1/4 60/1/4 63/1/4 
f 67/1/4 63/1/4 66/1/4 
f 59/1/5 64/1/5 63/1/5 60/1/5 
f 68/1/2 65/1/2 64/1/2 59/1/2 
f 68/1/2 59/1/2 62/1/2 
f 69/1/1 70/1/1 71/1/1 72/1/1 
f 73/1/4 67/1/4 66/1/4 69/1/4 
f 73/1/4 69/1/4 72/1/4 
f 65/1/5 70/1/5 69/1/5 66/1/5 
f 74/1/2 71/1/2 70/1/2 65/1/2 
f 74/1/2 65/1/2 68/1/2 
f 75/1/1 76/1/1 77/1/1 78/1/1 
f 79/1/4 73/1/4 72/1/4 75/1/4 
f 79/1/4 75/1/4 78/1/4 
f 71/1/5 76/1/5 75/1/5 72/1/5 
f 80/1/2 77/1/2 76/1/2 71/1/2 
f 80/1/2 71/1/2 74/1/2 
f 81/1/1 82/1/1 83/1/1 84/1/1 
f 85/1/4 79/1/4 78/1/4 81/1/4 
f 85/1/4 81/1/4 84/1/4 
f 77/1/5 82/1/5 81/1/5 78/1/5 
f 86/1/2 83/1/2 82/1/2 77/1/2 
f 86/1/2 77/1/2 80/1/2 
f 47/6/6 46/7/6 49/8/6 48/9/6 
f 49/1/8 46/1/8 45/1/8 50/1/8 
f 50/1/8 45/1/8 55/1/8 56/1/8 
f 56/1/8 55/1/8 61/1/8 62/1/8 
f 62/1/8 61/1/8 67/1/8 68/1/8 
f 68/1/8 67/1/8 73/1/8 74/1/8 
f 80/1/8 74/1/8 73/1/8 79/1/8 
f 80/1/8 79/1/8 85/1/8 86/1/8 
f 86/1/8 85/1/8 87/1/8 88/1/8 
f 89/1/8 88/1/8 87/1/8 90/1/8 
f 91/1/8 89/1/8 90/1/8 92/1/8 
f 93/1/8 91/1/8 92/1/8 94/1/8 
f 95/1/8 93/1/8 94/1/8 96/1/8 
f 97/1/1 98/1/1 99/1/1 100/1/1 
f 87/1/4 85/1/4 84/1/4 97/1/4 
f 87/1/4 97/1/4 100/1/4 
f 83/1/5 98/1/5 97/1/5 84/1/5 
f 88/1/2 99/1/2 98/1/2 83/1/2 
f 88/1/2 83/1/2 86/1/2 
f 101/1/1 102/1/1 103/1/1 104/1/1 
f 90/1/4 87/1/4 100/1/4 101/1/4 
f 90/1/4 101/1/4 104/1/4 
f 99/1/5 102/1/5 101/1/5 100/1/5 
f 89/1/2 103/1/2 102/1/2 99/1/2 
f 89/1/2 99/1/2 88/1/2 
f 105/1/1 106/1/1 107/1/1 108/1/1 
f 92/1/4 90/1/4 104/1/4 105/1/4 
f 92/1/4 105/1/4 108/1/4 
f 103/1/5 106/1/5 105/1/5 104/1/5 
f 91/1/2 107/1/2 106/1/2 103/1/2 
f 91/1/2 103/1/2 89/1/2 
f 109/1/1 110/1/1 111/1/1 112/1/1 
f 94/1/4 92/1/4 108/1/4 109/1/4 
f 94/1/4 109/1/4 112/1/4 
f 107/1/5 110/1/5 109/1/5 108/1/5 
f 93/1/2 111/1/2 110/1/2 107/1/2 
f 93/1/2 107/1/2 91/1/2 
f 113/1/1 114/1/1 115/1/1 116/1/1 
f 96/1/4 94/1/4 112/1/4 113/1/4 
f 96/1/4 113/1/4 116/1/4 
f 111/1/5 114/1/5 113/1/5 112/1/5 
f 95/1/2 115/1/2 114/1/2 111/1/2 
f 95/1/2 111/1/2 93/1/2 
f 115/1/3 95/1/3 96/1/3 116/1/3 
f 117/1/1 118/1/1 119/1/1 120/1/1 
f 120/1/4 121/1/4 122/1/4 117/1/4 
f 122/1/4 123/1/4 117/1/4 
f 117/1/5 123/1/5 124/1/5 118/1/5 
f 118/1/2 124/1/2 125/1/2 119/1/2 
f 125/1/2 126/1/2 119/1/2 
f 127/1/1 128/1/1 129/1/1 130/1/1 
f 131/1/4 121/1/4 120/1/4 127/1/4 
f 131/1/4 127/1/4 130/1/4 
f 119/1/5 128/1/5 127/1/5 120/1/5 
f 132/1/2 129/1/2 128/1/2 119/1/2 
f 132/1/2 119/1/2 126/1/2 
f 133/1/1 134/1/1 135/1/1 136/1/1 
f 137/1/4 131/1/4 130/1/4 133/1/4 
f 137/1/4 133/1/4 136/1/4 
f 129/1/5 134/1/5 133/1/5 130/1/5 
f 138/1/2 135/1/2 134/1/2 129/1/2 
f 138/1/2 129/1/2 132/1/2 
f 139/1/1 140/1/1 141/1/1 142/1/1 
f 143/1/4 137/1/4 136/1/4 139/1/4 
f 143/1/4 139/1/4 142/1/4 
f 135/1/5 140/1/5 139/1/5 136/1/5 
f 144/1/2 141/1/2 140/1/2 135/1/2 
f 144/1/2 135/1/2 138/1/2 
f 145/1/1 146/1/1 147/1/1 148/1/1 
f 149/1/4 143/1/4 142/1/4 145/1/4 
f 149/1/4 145/1/4 148/1/4 
f 141/1/5 146/1/5 145/1/5 142/1/5 
f 150/1/2 147/1/2 146/1/2 141/1/2 
f 150/1/2 141/1/2 144/1/2 
f 151/1/1 152/1/1 153/1/1 154/1/1 
f 155/1/4 149/1/4 148/1/4 151/1/4 
f 155/1/4 151/1/4 154/1/4 
f 147/1/5 152/1/5 151/1/5 148/1/5 
f 156/1/2 153/1/2 152/1/2 147/1/2 
f 156/1/2 147/1/2 150/1/2 
f 157/1/1 158/1/1 159/1/1 160/1/1 
f 161/1/4 155/1/4 154/1/4 157/1/4 
f 161/1/4 157/1/4 160/1/4 
f 153/1/5 158/1/5 157/1/5 154/1/5 
f 162/1/2 159/1/2 158/1/2 153/1/2 
f 162/1/2 153/1/2 156/1/2 
f 123/6/6 122/7/6 125/8/6 124/9/6 
f 125/1/8 122/1/8 121/1/8 126/1/8 
f 126/1/8 121/1/8 131/1/8 132/1/8 
f 132/1/8 131/1/8 137/1/8 138/1/8 
f 138/1/8 137/1/8 143/1/8 144/1/8 
f 144/1/8 143/1/8 149/1/8 150/1/8 
f 156/1/8 150/1/8 149/1/8 155/1/8 
f 156/1/8 155/1/8 161/1/8 162/1/8 
f 162/1/8 161/1/8 163/1/8 164/1/8 
f 165/1/8 164/1/8 163/1/8 166/1/8 
f 167/1/8 165/1/8 166/1/8 168/1/8 
f 169/1/8 167/1/8 168/1/8 170/1/8 
f 171/1/8 169/1/8 170/1/8 172/1/8 
f 173/1/1 174/1/1 175/1/1 176/1/1 
f 163/1/4 161/1/4 160/1/4 173/1/4 
f 163/1/4 173/1/4 176/1/4 
f 159/1/5 174/1/5 173/1/5 160/1/5 
f 164/1/2 175/1/2 174/1/2 159/1/2 
f 164/1/2 159/1/2 162/1/2 
f 177/1/1 178/1/1 179/1/1 180/1/1 
f 166/1/4 163/1/4 176/1/4 177/1/4 
f 166/1/4 177/1/4 180/1/4 
f 175/1/5 178/1/5 177/1/5 176/1/5 
f 165/1/2 179/1/2 178/1/2 175/1/2 
f 165/1/2 175/1/2 164/1/2 
f 181/1/1 182/1/1 183/1/1 184/1/1 
f 168/1/4 166/1/4 180/1/4 181/1/4 
f 168/1/4 181/1/4 184/1/4 
f 179/1/5 182/1/5 181/1/5 180/1/5 
f 167/1/2 183/1/2 182/1/2 179/1/2 
f 167/1/2 179/1/2 165/1/2 
f 185/1/1 186/1/1 187/1/1 188/1/1 
f 170/1/4 168/1/4 184/1/4 185/1/4 
f 170/1/4 185/1/4 188/1/4 
f 183/1/5 186/1/5 185/1/5 184/1/5 
f 169/1/2 187/1/2 186/1/2 183/1/2 
f 169/1/2 183/1/2 167/1/2 
f 189/1/1 190/1/1 191/1/1 192/1/1 
f 172/1/4 170/1/4 188/1/4 189/1/4 
f 172/1/4 189/1/4 192/1/4 
f 187/1/5 190/1/5 189/1/5 188/1/5 
f 171/1/2 191/1/2 190/1/2 187/1/2 
f 171/1/2 187/1/2 169/1/2 
f 191/1/3 171/1/3 172/1/3 192/1/3 
f 193/1/1 194/1/1 195/1/1 196/1/1 
f 196/1/2 197/1/2 198/1/2 193/1/2 
f 198/1/2 199/1/2 193/1/2 
f 193/1/3 199/1/3 200/1/3 194/1/3 
f 194/1/4 200/1/4 201/1/4 195/1/4 
f 201/1/4 202/1/4 195/1/4 
f 11/1/5 12/1/5 13/1/5 14/1/5 
f 199/2/6 198/3/6 201/4/6 200/5/6 
f 202/1/7 201/1/7 198/1/7 197/1/7 
f 203/1/7 202/1/7 197/1/7 204/1/7 
f 205/1/7 203/1/7 204/1/7 206/1/7 
f 207/1/7 205/1/7 206/1/7 208/1/7 
f 209/1/7 207/1/7 208/1/7 210/1/7 
f 209/1/7 210/1/7 211/1/7 212/1/7 
f 213/1/7 212/1/7 211/1/7 214/1/7 
f 215/1/7 213/1/7 214/1/7 216/1/7 
f 215/1/7 216/1/7 217/1/7 218/1/7 
f 218/1/7 217/1/7 219/1/7 220/1/7 
f 220/1/7 219/1/7 221/1/7 222/1/7 
f 222/1/7 221/1/7 13/1/7 12/1/7 
f 223/1/9 224/1/9 225/1/9 226/1/9 
f 227/1/2 228/1/2 223/1/2 226/1/2 
f 229/1/10 224/1/10 223/1/10 228/1/10 
f 230/1/4 225/1/4 224/1/4 229/1/4 
f 231/1/4 232/1/4 233/1/4 234/1/4 
f 235/1/2 236/1/2 231/1/2 234/1/2 
f 237/1/10 232/1/10 231/1/10 236/1/10 
f 238/1/4 233/1/4 232/1/4 237/1/4 
f 239/1/9 240/1/9 241/1/9 242/1/9 
f 243/1/2 244/1/2 239/1/2 242/1/2 
f 245/1/10 240/1/10 239/1/10 244/1/10 
f 246/1/4 241/1/4 240/1/4 245/1/4 
f 247/1/4 248/1/4 249/1/4 250/1/4 
f 251/1/2 252/1/2 247/1/2 250/1/2 
f 253/1/10 248/1/10 247/1/10 252/1/10 
f 254/1/4 249/1/4 248/1/4 253/1/4 
f 255/1/9 256/1/9 257/1/9 258/1/9 
f 259/1/2 251/1/2 255/1/2 258/1/2 
f 254/1/10 256/1/10 255/1/10 251/1/10 
f 260/1/4 257/1/4 256/1/4 254/1/4 
f 261/1/9 262/1/9 263/1/9 264/1/9 
f 265/1/2 259/1/2 261/1/2 264/1/2 
f 260/1/10 262/1/10 261/1/10 259/1/10 
f 266/1/4 263/1/4 262/1/4 260/1/4 
f 267/1/9 268/1/9 269/1/9 270/1/9 
f 271/1/2 272/1/2 267/1/2 270/1/2 
f 273/1/10 268/1/10 267/1/10 272/1/10 
f 274/1/4 269/1/4 268/1/4 273/1/4 
f 275/1/9 276/1/9 277/1/9 278/1/9 
f 279/1/2 280/1/2 275/1/2 278/1/2 
f 281/1/10 276/1/10 275/1/10 280/1/10 
f 282/1/4 277/1/4 276/1/4 281/1/4 
f 283/1/9 284/1/9 285/1/9 286/1/9 
f 287/1/2 288/1/2 283/1/2 286/1/2 
f 282/1/10 284/1/10 283/1/10 288/1/10 
f 289/1/4 285/1/4 284/1/4 282/1/4 
f 290/1/9 291/1/9 292/1/9 293/1/9 
f 294/1/2 295/1/2 290/1/2 293/1/2 
f 296/1/10 291/1/10 290/1/10 295/1/10 
f 297/1/4 292/1/4 291/1/4 296/1/4 
f 298/1/9 299/1/9 300/1/9 301/1/9 
f 302/1/2 303/1/2 298/1/2 301/1/2 
f 304/1/3 299/1/3 298/1/3 303/1/3 
f 305/1/4 300/1/4 299/1/4 304/1/4 
f 6/1/2 7/1/2 1/1/2 
f 2/1/4 8/1/4 9/1/4 
f 22/1/4 24/1/4 17/1/4 16/1/4 
f 16/1/3 15/1/3 26/1/3 
f 25/1/6 26/1/6 20/1/6 19/1/6 
f 18/1/1 21/1/1 15/1/1 
f 39/1/6 32/1/6 36/1/6 40/1/6 
f 35/1/5 30/1/5 32/1/5 
f 30/1/1 35/1/1 31/1/1 
# 208 polygons - 59 triangles

