# 3ds Max Wavefront OBJ Exporter v0.97b - (c)2007 guruware
# File Created: 06.07.2018 14:15:12

mtllib M_XA_huandaoS_hengliang.mtl

#
# object M_XA_huandaoS_hengliang
#

v  -29.3305 -26.6585 76.9001
v  39.9322 -26.6585 65.7607
v  15.9033 -26.6585 -83.6475
v  -53.3595 -26.6585 -72.5081
# 4 vertices

vn 0.0000 1.0000 -0.0000
# 1 vertex normals

vt 0.0353 0.0056 0.0000
vt 0.9556 0.0056 0.0000
vt 0.9556 0.9985 0.0000
vt 0.0353 0.9985 0.0000
# 4 texture coords

g M_XA_huandaoS_hengliang
usemtl huandao_S_hengliang
s 1
f 1/1/1 2/2/1 3/3/1 4/4/1 
# 1 polygons

