# 3ds Max Wavefront OBJ Exporter v0.97b - (c)2007 guruware
# File Created: 28.06.2018 17:35:44

mtllib M_XA_N_B2A_tiaowenqiang.mtl

#
# object M_XA_N_B2A_tiaowenqiang
#

v  -270.4785 2.3876 -279.6275
v  -270.4785 2.3876 -359.8075
v  -270.4785 49.8876 -359.8075
v  -270.4785 49.8876 -279.6273
v  -278.0781 2.3876 -359.8075
v  -278.0781 2.3876 -279.6275
v  -278.0784 49.8876 -279.6273
v  -278.0781 49.8876 -359.8075
v  -405.3496 2.3876 -359.8075
v  -405.3499 49.8876 -359.8075
v  -270.4785 2.3876 -367.4071
v  -405.3496 2.3876 -367.4071
v  -405.3499 49.8876 -367.4074
v  -270.4785 49.8876 -367.4071
v  -564.9496 2.3876 -359.8075
v  -426.2499 2.3876 -359.8075
v  -426.2499 49.8876 -359.8075
v  -564.9499 49.8876 -359.8075
v  -426.2499 2.3876 -367.4071
v  -564.9496 2.3876 -367.4071
v  -564.9499 49.8876 -367.4074
v  -426.2499 49.8876 -367.4071
v  -636.2545 2.3876 -359.8075
v  -585.8499 2.3876 -359.8075
v  -585.8499 49.8876 -359.8075
v  -636.2548 49.8876 -359.8075
v  -585.8499 2.3876 -367.4071
v  -636.2545 2.3876 -367.4071
v  -636.2548 49.8876 -367.4074
v  -585.8499 49.8876 -367.4071
v  709.8956 2.3876 -673.0542
v  852.3950 2.3876 -673.0542
v  852.3950 49.8876 -673.0542
v  709.8954 49.8876 -673.0542
v  852.3950 2.3876 -680.6538
v  709.8956 2.3876 -680.6538
v  709.8954 49.8876 -680.6541
v  852.3950 49.8876 -680.6538
v  665.3022 2.3876 -528.5276
v  665.3022 2.3876 -673.0542
v  665.3022 49.8876 -673.0542
v  665.3022 49.8876 -528.5273
v  657.7026 2.3876 -673.0542
v  657.7026 2.3876 -528.5276
v  657.7024 49.8876 -528.5273
v  657.7026 49.8876 -673.0542
v  657.7025 2.3876 -673.0540
v  692.7954 2.3876 -673.0540
v  692.7954 49.8876 -673.0540
v  657.7021 49.8876 -673.0540
v  692.7954 2.3876 -680.6536
v  657.7025 2.3876 -680.6536
v  657.7021 49.8876 -680.6539
v  692.7954 49.8876 -680.6536
v  657.7028 2.3876 -511.4272
v  657.7028 2.3876 -200.7774
v  657.7028 49.8876 -200.7774
v  657.7028 49.8876 -511.4275
v  665.3024 2.3876 -200.7774
v  665.3024 2.3876 -511.4272
v  665.3026 49.8876 -511.4275
v  665.3024 49.8876 -200.7774
v  1163.6697 2.3876 -566.1472
v  1163.6697 2.3876 -426.4983
v  1163.6697 49.8876 -426.4983
v  1163.6697 49.8876 -566.1476
v  1171.2693 2.3876 -426.4983
v  1171.2693 2.3876 -566.1472
v  1171.2697 49.8876 -566.1476
v  1171.2693 49.8876 -426.4983
v  1163.6697 2.3876 -405.5982
v  1163.6697 2.3876 -266.8983
v  1163.6697 49.8876 -266.8983
v  1163.6697 49.8876 -405.5985
v  1171.2693 2.3876 -266.8983
v  1171.2693 2.3876 -405.5982
v  1171.2697 49.8876 -405.5985
v  1171.2693 49.8876 -266.8983
v  1163.6697 2.3876 -245.9990
v  1163.6697 2.3876 -208.3775
v  1163.6697 49.8876 -208.3775
v  1163.6697 49.8876 -245.9993
v  1171.2693 2.3876 -208.3775
v  1171.2693 2.3876 -245.9990
v  1171.2697 49.8876 -245.9993
v  1171.2693 49.8876 -208.3775
v  665.3029 2.3876 -200.7776
v  692.8500 2.3876 -200.7774
v  692.8500 49.8876 -200.7774
v  665.3026 49.8876 -200.7776
v  692.8500 2.3876 -208.3770
v  665.3029 2.3876 -208.3772
v  665.3026 49.8876 -208.3775
v  692.8500 49.8876 -208.3770
v  709.9755 2.3876 -200.7776
v  851.4454 2.3876 -200.7774
v  851.4454 49.8876 -200.7774
v  709.9752 49.8876 -200.7776
v  851.4454 2.3876 -208.3770
v  709.9755 2.3876 -208.3772
v  709.9752 49.8876 -208.3775
v  851.4454 49.8876 -208.3770
v  870.4457 2.3876 -200.2083
v  1010.0951 2.3876 -200.2081
v  1010.0951 49.8876 -200.2081
v  870.4454 49.8876 -200.2083
v  1010.0951 2.3876 -207.8077
v  870.4457 2.3876 -207.8079
v  870.4454 49.8876 -207.8082
v  1010.0951 49.8876 -207.8077
v  1031.0205 2.3876 -200.7774
v  1171.2700 2.3876 -200.7772
v  1171.2700 49.8876 -200.7772
v  1031.0204 49.8876 -200.7774
v  1171.2700 2.3876 -208.3768
v  1031.0205 2.3876 -208.3770
v  1031.0204 49.8876 -208.3773
v  1171.2700 49.8876 -208.3768
v  -278.0785 49.8876 -279.6275
v  -270.4785 49.8876 -279.6275
v  -270.4785 62.2376 -279.6275
v  -278.0785 62.2376 -279.6275
v  -287.5785 62.2376 -279.6275
v  -287.5785 49.8876 -279.6275
v  -270.4785 49.8876 -367.4074
v  -287.5785 49.8876 -350.3073
v  -287.5785 62.2376 -350.3073
v  -270.4785 62.2376 -367.4074
v  -270.4785 62.2376 -359.8075
v  -426.2499 49.8876 -367.4074
v  -426.2499 62.2376 -367.4074
v  -426.2499 62.2376 -359.8075
v  -426.2499 62.2376 -350.3073
v  -426.2499 49.8876 -350.3073
v  -564.9499 49.8876 -350.3073
v  -564.9499 62.2376 -350.3073
v  -564.9499 62.2376 -359.8075
v  -564.9499 62.2376 -367.4074
v  -585.8499 49.8876 -367.4074
v  -585.8499 62.2376 -367.4074
v  -585.8499 62.2376 -359.8075
v  -585.8499 62.2376 -350.3073
v  -585.8499 49.8876 -350.3073
v  -636.2546 49.8876 -359.8075
v  -636.2546 49.8876 -350.3073
v  -636.2546 62.2376 -350.3073
v  -636.2546 62.2376 -359.8075
v  -636.2546 62.2376 -367.4074
v  -636.2546 49.8876 -367.4074
v  -405.3497 49.8876 -359.8075
v  -405.3497 49.8876 -350.3073
v  -405.3497 62.2376 -350.3073
v  -405.3497 62.2376 -359.8075
v  -405.3497 62.2376 -367.4074
v  -405.3497 49.8876 -367.4074
v  1171.2700 49.8876 -426.4983
v  1171.2700 62.2376 -426.4983
v  1163.6697 62.2376 -426.4983
v  1154.1700 62.2376 -426.4983
v  1154.1700 49.8876 -426.4983
v  1163.6697 49.8876 -566.1473
v  1154.1700 49.8876 -566.1473
v  1154.1700 62.2376 -566.1473
v  1163.6697 62.2376 -566.1473
v  1171.2700 62.2376 -566.1473
v  1171.2700 49.8876 -566.1473
v  692.8501 49.8876 -208.3775
v  692.8501 49.8876 -217.8775
v  692.8501 62.2376 -217.8775
v  692.8501 62.2376 -208.3775
v  692.8501 62.2376 -200.7774
v  692.8501 49.8876 -200.7774
v  674.8022 49.8876 -217.8775
v  665.3026 49.8876 -200.7774
v  657.7023 49.8876 -200.7774
v  665.3026 62.2376 -200.7774
v  657.7023 62.2376 -200.7774
v  674.8022 62.2376 -217.8775
v  1031.0204 49.8876 -208.3775
v  1031.0204 62.2376 -200.7774
v  1031.0204 62.2376 -208.3775
v  1031.0204 62.2376 -217.8775
v  1031.0204 49.8876 -217.8775
v  1154.1700 49.8876 -217.8775
v  1171.2700 49.8876 -200.7774
v  1171.2700 62.2376 -200.7774
v  1154.1700 62.2376 -217.8775
v  1171.2700 49.8876 -266.8983
v  1171.2700 62.2376 -266.8983
v  1163.6697 62.2376 -266.8983
v  1154.1700 62.2376 -266.8983
v  1154.1700 49.8876 -266.8983
v  1154.1700 49.8876 -405.5985
v  1154.1700 62.2376 -405.5985
v  1163.6697 62.2376 -405.5985
v  1171.2700 62.2376 -405.5985
v  1171.2700 49.8876 -405.5985
v  1154.1700 49.8876 -245.9993
v  1154.1700 62.2376 -245.9993
v  1163.6697 62.2376 -245.9993
v  1171.2700 62.2376 -245.9993
v  1171.2700 49.8876 -245.9993
v  1171.2700 49.8876 -208.3775
v  1171.2700 62.2376 -208.3775
v  665.3026 62.2376 -528.5273
v  657.7023 62.2376 -528.5273
v  657.7023 49.8876 -528.5273
v  665.3026 49.8876 -528.5273
v  674.8022 49.8876 -528.5273
v  674.8022 62.2376 -528.5273
v  674.8022 49.8876 -663.5541
v  657.7023 49.8876 -673.0541
v  657.7023 49.8876 -680.6541
v  657.7023 62.2376 -673.0541
v  657.7023 62.2376 -680.6541
v  674.8022 62.2376 -663.5541
v  692.7955 49.8876 -673.0541
v  692.7955 49.8876 -680.6541
v  692.7955 62.2376 -680.6541
v  692.7955 62.2376 -673.0541
v  692.7955 62.2376 -663.5541
v  692.7955 49.8876 -663.5541
v  852.3951 49.8876 -673.0541
v  852.3951 49.8876 -680.6541
v  852.3951 62.2376 -680.6541
v  852.3951 62.2376 -673.0541
v  852.3951 62.2376 -663.5541
v  852.3951 49.8876 -663.5541
v  709.8955 49.8876 -673.0541
v  709.8955 49.8876 -663.5541
v  709.8955 62.2376 -663.5541
v  709.8955 62.2376 -673.0541
v  709.8955 62.2376 -680.6541
v  709.8955 49.8876 -680.6541
v  665.3026 62.2376 -511.4273
v  674.8022 62.2376 -511.4273
v  674.8022 49.8876 -511.4273
v  665.3026 49.8876 -511.4273
v  657.7023 49.8876 -511.4273
v  657.7023 62.2376 -511.4273
v  709.9753 49.8876 -208.3775
v  709.9753 49.8876 -200.7774
v  709.9753 62.2376 -200.7774
v  709.9753 62.2376 -208.3775
v  709.9753 62.2376 -217.8775
v  709.9753 49.8876 -217.8775
v  851.4456 49.8876 -208.3775
v  851.4456 49.8876 -217.8775
v  851.4456 62.2376 -217.8775
v  851.4456 62.2376 -208.3775
v  851.4456 62.2376 -200.7774
v  851.4456 49.8876 -200.7774
v  870.4456 49.8876 -207.8084
v  870.4456 49.8876 -200.2083
v  870.4456 62.2376 -200.2083
v  870.4456 62.2376 -207.8084
v  870.4456 62.2376 -217.3084
v  870.4456 49.8876 -217.3084
v  1010.0951 49.8876 -207.8084
v  1010.0951 49.8876 -217.3084
v  1010.0951 62.2376 -217.3084
v  1010.0951 62.2376 -207.8084
v  1010.0951 62.2376 -200.2083
v  1010.0951 49.8876 -200.2083
v  1031.0204 80.2876 -200.7774
v  1171.2700 80.2876 -200.7774
v  1171.2700 80.2876 -208.3775
v  1031.0204 80.2876 -208.3775
v  1163.6697 80.2876 -208.3775
v  1171.2700 80.2876 -266.8983
v  1171.2700 80.2876 -405.5985
v  1163.6697 80.2876 -405.5985
v  1163.6697 80.2876 -266.8983
v  1171.2700 80.2876 -426.4983
v  1171.2700 80.2876 -566.1473
v  1163.6697 80.2876 -566.1473
v  1163.6697 80.2876 -426.4983
v  1171.2700 80.2876 -245.9993
v  1163.6697 80.2876 -245.9993
v  1163.6697 62.2376 -208.3775
v  709.9753 80.2876 -200.7774
v  851.4456 80.2876 -200.7774
v  851.4456 80.2876 -208.3775
v  709.9753 80.2876 -208.3775
v  665.3026 80.2876 -200.7774
v  692.8501 80.2876 -200.7774
v  692.8501 80.2876 -208.3775
v  665.3026 62.2376 -208.3775
v  665.3026 80.2876 -208.3775
v  692.7955 80.2876 -680.6541
v  657.7023 80.2876 -680.6541
v  657.7023 80.2876 -673.0541
v  692.7955 80.2876 -673.0541
v  665.3026 80.2876 -673.0541
v  657.7023 80.2876 -528.5273
v  665.3026 80.2876 -528.5273
v  665.3026 62.2376 -673.0541
v  852.3951 80.2876 -680.6541
v  709.8955 80.2876 -680.6541
v  709.8955 80.2876 -673.0541
v  852.3951 80.2876 -673.0541
v  870.4456 80.2876 -200.2083
v  1010.0951 80.2876 -200.2083
v  1010.0951 80.2876 -207.8084
v  870.4456 80.2876 -207.8084
v  -585.8499 80.2876 -367.4074
v  -636.2546 80.2876 -367.4074
v  -636.2546 80.2876 -359.8075
v  -585.8499 80.2876 -359.8075
v  -270.4785 80.2876 -279.6275
v  -270.4785 80.2876 -359.8075
v  -278.0785 80.2876 -359.8075
v  -278.0785 62.2376 -359.8075
v  -278.0785 80.2876 -279.6275
v  -270.4785 80.2876 -367.4074
v  -405.3497 80.2876 -367.4074
v  -405.3497 80.2876 -359.8075
v  -426.2499 80.2876 -367.4074
v  -564.9499 80.2876 -367.4074
v  -564.9499 80.2876 -359.8075
v  -426.2499 80.2876 -359.8075
v  657.7023 80.2876 -511.4273
v  657.7023 80.2876 -200.7774
v  665.3026 80.2876 -511.4273
# 324 vertices

vn 1.0000 0.0000 0.0000
vn 0.0000 -0.0000 1.0000
vn 1.0000 0.0000 -0.0000
vn -1.0000 -0.0000 -0.0000
vn 0.0000 0.0000 1.0000
vn 0.0000 -0.0000 -1.0000
vn -1.0000 0.0000 -0.0000
vn 1.0000 -0.0000 0.0000
vn -0.0000 -0.0000 1.0000
vn -0.7071 0.0000 -0.7071
vn 0.0000 -1.0000 -0.0000
vn 0.0000 1.0000 -0.0000
vn 0.0000 0.0000 -1.0000
vn 0.7071 0.0000 0.7071
# 14 vertex normals

vt 0.2080 0.0000 0.6953
vt 0.3599 0.0000 0.6953
vt 0.3599 1.7690 0.6953
vt 0.2080 1.7690 0.6953
vt 0.3542 0.0000 0.6914
vt 0.5060 0.0000 0.6914
vt 0.5060 1.7690 0.6914
vt 0.3542 1.7690 0.6914
vt 0.6972 1.7690 0.2902
vt 0.6933 1.7690 0.2902
vt 0.6933 0.0000 0.2902
vt 0.6972 0.0000 0.2902
vt 0.3112 1.7690 0.5040
vt 0.3073 1.7690 0.5040
vt 0.3073 0.0000 0.5040
vt 0.3112 0.0000 0.5040
vt 0.2106 0.6038 0.0000
vt 0.3321 0.5930 0.0000
# 18 texture coords

g M_XA_N_B2A_tiaowenqiang
usemtl T_tiaowenqiangB3_003
s off
f 1/1/1 2/2/1 3/3/1 4/4/1 
f 5/5/1 6/6/1 7/7/1 8/8/1 
f 4/9/2 7/10/2 6/11/2 1/12/2 
f 9/1/1 2/2/1 3/3/1 10/4/1 
f 11/5/1 12/6/1 13/7/1 14/8/1 
f 14/13/3 3/14/3 2/15/3 11/16/3 
f 10/9/4 13/10/4 12/11/4 9/12/4 
f 15/1/1 16/2/1 17/3/1 18/4/1 
f 19/5/1 20/6/1 21/7/1 22/8/1 
f 22/13/3 17/14/3 16/15/3 19/16/3 
f 18/9/4 21/10/4 20/11/4 15/12/4 
f 23/1/1 24/2/1 25/3/1 26/4/1 
f 27/5/1 28/6/1 29/7/1 30/8/1 
f 30/13/3 25/14/3 24/15/3 27/16/3 
f 26/9/4 29/10/4 28/11/4 23/12/4 
f 31/1/5 32/2/5 33/3/5 34/4/5 
f 35/5/6 36/6/6 37/7/6 38/8/6 
f 38/13/3 33/14/3 32/15/3 35/16/3 
f 34/9/4 37/10/4 36/11/4 31/12/4 
f 39/1/3 40/2/3 41/3/3 42/4/3 
f 43/5/4 44/6/4 45/7/4 46/8/4 
f 42/9/2 45/10/2 44/11/2 39/12/2 
f 47/1/5 48/2/5 49/3/5 50/4/5 
f 51/5/6 52/6/6 53/7/6 54/8/6 
f 54/13/3 49/14/3 48/15/3 51/16/3 
f 50/9/4 53/10/4 52/11/4 47/12/4 
f 55/1/7 56/2/7 57/3/7 58/4/7 
f 59/5/8 60/6/8 61/7/8 62/8/8 
f 62/13/5 57/14/5 56/15/5 59/16/5 
f 58/9/6 61/10/6 60/11/6 55/12/6 
f 63/1/7 64/2/7 65/3/7 66/4/7 
f 67/5/8 68/6/8 69/7/8 70/8/8 
f 70/13/5 65/14/5 64/15/5 67/16/5 
f 66/9/6 69/10/6 68/11/6 63/12/6 
f 71/1/7 72/2/7 73/3/7 74/4/7 
f 75/5/8 76/6/8 77/7/8 78/8/8 
f 78/13/5 73/14/5 72/15/5 75/16/5 
f 74/9/6 77/10/6 76/11/6 71/12/6 
f 79/1/7 80/2/7 81/3/7 82/4/7 
f 83/5/8 84/6/8 85/7/8 86/8/8 
f 82/9/6 85/10/6 84/11/6 79/12/6 
f 87/1/9 88/2/9 89/3/9 90/4/9 
f 91/5/6 92/6/6 93/7/6 94/8/6 
f 94/13/3 89/14/3 88/15/3 91/16/3 
f 95/1/9 96/2/9 97/3/9 98/4/9 
f 99/5/6 100/6/6 101/7/6 102/8/6 
f 102/13/3 97/14/3 96/15/3 99/16/3 
f 98/9/4 101/10/4 100/11/4 95/12/4 
f 103/1/9 104/2/9 105/3/9 106/4/9 
f 107/5/6 108/6/6 109/7/6 110/8/6 
f 110/13/3 105/14/3 104/15/3 107/16/3 
f 106/9/4 109/10/4 108/11/4 103/12/4 
f 111/1/9 112/2/9 113/3/9 114/4/9 
f 115/5/6 116/6/6 117/7/6 118/8/6 
f 118/13/3 113/14/3 112/15/3 115/16/3 
f 114/9/4 117/10/4 116/11/4 111/12/4 
f 119/17/5 120/17/5 121/17/5 122/17/5 
f 119/17/5 122/17/5 123/17/5 124/17/5 
f 125/17/10 126/17/10 127/17/10 128/17/10 
f 126/17/11 125/17/11 3/17/11 120/17/11 
f 126/17/11 120/17/11 119/17/11 124/17/11 
f 125/17/3 128/17/3 129/17/3 3/17/3 
f 3/17/3 129/17/3 121/17/3 120/17/3 
f 127/17/12 123/17/12 122/17/12 121/17/12 
f 127/17/12 121/17/12 129/17/12 128/17/12 
f 126/17/7 124/17/7 123/17/7 127/17/7 
f 17/17/3 130/17/3 131/17/3 132/17/3 
f 17/17/3 132/17/3 133/17/3 134/17/3 
f 18/17/7 135/17/7 136/17/7 137/17/7 
f 18/17/7 137/17/7 138/17/7 21/17/7 
f 17/17/11 134/17/11 135/17/11 18/17/11 
f 17/17/11 18/17/11 21/17/11 130/17/11 
f 138/17/13 131/17/13 130/17/13 21/17/13 
f 132/17/12 131/17/12 138/17/12 137/17/12 
f 132/17/12 137/17/12 136/17/12 133/17/12 
f 135/17/5 134/17/5 133/17/5 136/17/5 
f 25/17/3 139/17/3 140/17/3 141/17/3 
f 25/17/3 141/17/3 142/17/3 143/17/3 
f 144/17/7 145/17/7 146/17/7 147/17/7 
f 144/17/7 147/17/7 148/17/7 149/17/7 
f 25/17/11 143/17/11 145/17/11 144/17/11 
f 25/17/11 144/17/11 149/17/11 139/17/11 
f 148/17/13 140/17/13 139/17/13 149/17/13 
f 141/17/12 140/17/12 148/17/12 147/17/12 
f 141/17/12 147/17/12 146/17/12 142/17/12 
f 145/17/5 143/17/5 142/17/5 146/17/5 
f 127/17/14 126/17/14 125/17/14 128/17/14 
f 150/17/7 151/17/7 152/17/7 153/17/7 
f 150/17/7 153/17/7 154/17/7 155/17/7 
f 126/17/11 151/17/11 150/17/11 155/17/11 
f 126/17/11 155/17/11 125/17/11 
f 154/17/13 128/17/13 125/17/13 155/17/13 
f 127/17/12 128/17/12 154/17/12 153/17/12 
f 127/17/12 153/17/12 152/17/12 
f 151/17/5 126/17/5 127/17/5 152/17/5 
f 65/17/5 156/17/5 157/17/5 158/17/5 
f 65/17/5 158/17/5 159/17/5 160/17/5 
f 161/17/13 162/17/13 163/17/13 164/17/13 
f 161/17/13 164/17/13 165/17/13 166/17/13 
f 65/17/11 160/17/11 162/17/11 161/17/11 
f 65/17/11 161/17/11 166/17/11 156/17/11 
f 165/17/3 157/17/3 156/17/3 166/17/3 
f 158/17/12 157/17/12 165/17/12 164/17/12 
f 158/17/12 164/17/12 163/17/12 159/17/12 
f 162/17/7 160/17/7 159/17/7 163/17/7 
f 167/17/3 168/17/3 169/17/3 170/17/3 
f 167/17/3 170/17/3 171/17/3 172/17/3 
f 173/17/11 168/17/11 167/17/11 172/17/11 
f 173/17/11 172/17/11 174/17/11 175/17/11 
f 174/17/5 172/17/5 171/17/5 176/17/5 
f 175/17/5 174/17/5 176/17/5 177/17/5 
f 178/17/12 177/17/12 176/17/12 171/17/12 
f 178/17/12 171/17/12 170/17/12 169/17/12 
f 168/17/13 173/17/13 178/17/13 169/17/13 
f 179/17/7 114/17/7 180/17/7 181/17/7 
f 179/17/7 181/17/7 182/17/7 183/17/7 
f 184/17/11 185/17/11 114/17/11 179/17/11 
f 184/17/11 179/17/11 183/17/11 
f 186/17/5 180/17/5 114/17/5 185/17/5 
f 187/17/12 182/17/12 181/17/12 180/17/12 
f 187/17/12 180/17/12 186/17/12 
f 184/17/13 183/17/13 182/17/13 187/17/13 
f 73/17/5 188/17/5 189/17/5 190/17/5 
f 73/17/5 190/17/5 191/17/5 192/17/5 
f 74/17/13 193/17/13 194/17/13 195/17/13 
f 74/17/13 195/17/13 196/17/13 197/17/13 
f 73/17/11 192/17/11 193/17/11 74/17/11 
f 73/17/11 74/17/11 197/17/11 188/17/11 
f 196/17/3 189/17/3 188/17/3 197/17/3 
f 190/17/12 189/17/12 196/17/12 195/17/12 
f 190/17/12 195/17/12 194/17/12 191/17/12 
f 193/17/7 192/17/7 191/17/7 194/17/7 
f 82/17/13 198/17/13 199/17/13 200/17/13 
f 82/17/13 200/17/13 201/17/13 202/17/13 
f 184/17/11 198/17/11 82/17/11 202/17/11 
f 184/17/11 202/17/11 203/17/11 185/17/11 
f 203/17/3 202/17/3 201/17/3 204/17/3 
f 185/17/3 203/17/3 204/17/3 186/17/3 
f 187/17/12 186/17/12 204/17/12 201/17/12 
f 187/17/12 201/17/12 200/17/12 199/17/12 
f 198/17/7 184/17/7 187/17/7 199/17/7 
f 205/17/5 206/17/5 207/17/5 208/17/5 
f 205/17/5 208/17/5 209/17/5 210/17/5 
f 211/17/11 209/17/11 208/17/11 207/17/11 
f 211/17/11 207/17/11 212/17/11 213/17/11 
f 212/17/7 207/17/7 206/17/7 214/17/7 
f 213/17/7 212/17/7 214/17/7 215/17/7 
f 216/17/12 215/17/12 214/17/12 206/17/12 
f 216/17/12 206/17/12 205/17/12 210/17/12 
f 209/17/3 211/17/3 216/17/3 210/17/3 
f 217/17/3 218/17/3 219/17/3 220/17/3 
f 217/17/3 220/17/3 221/17/3 222/17/3 
f 211/17/11 213/17/11 218/17/11 217/17/11 
f 211/17/11 217/17/11 222/17/11 
f 215/17/13 219/17/13 218/17/13 213/17/13 
f 216/17/12 221/17/12 220/17/12 219/17/12 
f 216/17/12 219/17/12 215/17/12 
f 211/17/5 222/17/5 221/17/5 216/17/5 
f 223/17/3 224/17/3 225/17/3 226/17/3 
f 223/17/3 226/17/3 227/17/3 228/17/3 
f 229/17/7 230/17/7 231/17/7 232/17/7 
f 229/17/7 232/17/7 233/17/7 234/17/7 
f 223/17/11 228/17/11 230/17/11 229/17/11 
f 223/17/11 229/17/11 234/17/11 224/17/11 
f 233/17/13 225/17/13 224/17/13 234/17/13 
f 226/17/12 225/17/12 233/17/12 232/17/12 
f 226/17/12 232/17/12 231/17/12 227/17/12 
f 230/17/5 228/17/5 227/17/5 231/17/5 
f 235/17/13 236/17/13 237/17/13 238/17/13 
f 235/17/13 238/17/13 239/17/13 240/17/13 
f 173/17/11 175/17/11 239/17/11 238/17/11 
f 173/17/11 238/17/11 237/17/11 
f 177/17/7 240/17/7 239/17/7 175/17/7 
f 178/17/12 236/17/12 235/17/12 240/17/12 
f 178/17/12 240/17/12 177/17/12 
f 173/17/3 237/17/3 236/17/3 178/17/3 
f 241/17/7 242/17/7 243/17/7 244/17/7 
f 241/17/7 244/17/7 245/17/7 246/17/7 
f 247/17/3 248/17/3 249/17/3 250/17/3 
f 247/17/3 250/17/3 251/17/3 252/17/3 
f 241/17/11 246/17/11 248/17/11 247/17/11 
f 241/17/11 247/17/11 252/17/11 242/17/11 
f 251/17/5 243/17/5 242/17/5 252/17/5 
f 244/17/12 243/17/12 251/17/12 250/17/12 
f 244/17/12 250/17/12 249/17/12 245/17/12 
f 248/17/13 246/17/13 245/17/13 249/17/13 
f 253/17/7 254/17/7 255/17/7 256/17/7 
f 253/17/7 256/17/7 257/17/7 258/17/7 
f 259/17/3 260/17/3 261/17/3 262/17/3 
f 259/17/3 262/17/3 263/17/3 264/17/3 
f 253/17/11 258/17/11 260/17/11 259/17/11 
f 253/17/11 259/17/11 264/17/11 254/17/11 
f 263/17/5 255/17/5 254/17/5 264/17/5 
f 256/17/12 255/17/12 263/17/12 262/17/12 
f 256/17/12 262/17/12 261/17/12 257/17/12 
f 260/17/13 258/17/13 257/17/13 261/17/13 
f 265/18/5 180/18/5 186/18/5 266/18/5 
f 267/18/13 204/18/13 181/18/13 268/18/13 
f 266/18/12 267/18/12 269/18/12 265/18/12 
f 269/18/12 268/18/12 265/18/12 
f 180/18/7 265/18/7 268/18/7 181/18/7 
f 266/18/3 186/18/3 204/18/3 267/18/3 
f 270/18/3 189/18/3 196/18/3 271/18/3 
f 272/18/7 195/18/7 190/18/7 273/18/7 
f 271/18/13 196/18/13 195/18/13 272/18/13 
f 271/18/12 272/18/12 273/18/12 270/18/12 
f 189/18/5 270/18/5 273/18/5 190/18/5 
f 274/18/3 157/18/3 165/18/3 275/18/3 
f 276/18/7 164/18/7 158/18/7 277/18/7 
f 275/18/13 165/18/13 164/18/13 276/18/13 
f 275/18/12 276/18/12 277/18/12 274/18/12 
f 157/18/5 274/18/5 277/18/5 158/18/5 
f 267/18/3 204/18/3 201/18/3 278/18/3 
f 279/18/7 200/18/7 280/18/7 269/18/7 
f 278/18/13 201/18/13 200/18/13 279/18/13 
f 278/18/12 279/18/12 269/18/12 267/18/12 
f 281/18/5 243/18/5 251/18/5 282/18/5 
f 283/18/13 250/18/13 244/18/13 284/18/13 
f 282/18/3 251/18/3 250/18/3 283/18/3 
f 282/18/12 283/18/12 284/18/12 281/18/12 
f 243/18/7 281/18/7 284/18/7 244/18/7 
f 285/18/5 176/18/5 171/18/5 286/18/5 
f 287/18/13 170/18/13 288/18/13 289/18/13 
f 286/18/3 171/18/3 170/18/3 287/18/3 
f 286/18/12 287/18/12 289/18/12 285/18/12 
f 290/18/13 219/18/13 215/18/13 291/18/13 
f 292/18/5 214/18/5 220/18/5 293/18/5 
f 291/18/12 292/18/12 294/18/12 290/18/12 
f 294/18/12 293/18/12 290/18/12 
f 219/18/3 290/18/3 293/18/3 220/18/3 
f 291/18/7 215/18/7 214/18/7 292/18/7 
f 292/18/7 214/18/7 206/18/7 295/18/7 
f 296/18/3 205/18/3 297/18/3 294/18/3 
f 295/18/5 206/18/5 205/18/5 296/18/5 
f 295/18/12 296/18/12 294/18/12 292/18/12 
f 298/18/13 225/18/13 233/18/13 299/18/13 
f 300/18/5 232/18/5 226/18/5 301/18/5 
f 299/18/7 233/18/7 232/18/7 300/18/7 
f 299/18/12 300/18/12 301/18/12 298/18/12 
f 225/18/3 298/18/3 301/18/3 226/18/3 
f 302/18/5 255/18/5 263/18/5 303/18/5 
f 304/18/13 262/18/13 256/18/13 305/18/13 
f 303/18/3 263/18/3 262/18/3 304/18/3 
f 303/18/12 304/18/12 305/18/12 302/18/12 
f 306/18/13 140/18/13 148/18/13 307/18/13 
f 308/18/5 147/18/5 141/18/5 309/18/5 
f 307/18/12 308/18/12 309/18/12 306/18/12 
f 140/18/3 306/18/3 309/18/3 141/18/3 
f 148/18/7 147/18/7 308/18/7 307/18/7 
f 310/18/3 121/18/3 129/18/3 311/18/3 
f 312/18/7 313/18/7 122/18/7 314/18/7 
f 311/18/12 312/18/12 314/18/12 310/18/12 
f 122/18/5 121/18/5 310/18/5 314/18/5 
f 315/18/13 128/18/13 154/18/13 316/18/13 
f 317/18/5 153/18/5 129/18/5 311/18/5 
f 316/18/7 154/18/7 153/18/7 317/18/7 
f 316/18/12 317/18/12 312/18/12 315/18/12 
f 312/18/12 311/18/12 315/18/12 
f 311/18/3 129/18/3 128/18/3 315/18/3 
f 318/18/13 131/18/13 138/18/13 319/18/13 
f 320/18/5 137/18/5 132/18/5 321/18/5 
f 319/18/7 138/18/7 137/18/7 320/18/7 
f 319/18/12 320/18/12 321/18/12 318/18/12 
f 131/18/3 318/18/3 321/18/3 132/18/3 
f 322/18/7 240/18/7 177/18/7 323/18/7 
f 285/18/3 176/18/3 235/18/3 324/18/3 
f 323/18/12 285/18/12 289/18/12 322/18/12 
f 289/18/12 324/18/12 322/18/12 
f 240/18/13 322/18/13 324/18/13 235/18/13 
f 323/18/5 177/18/5 176/18/5 285/18/5 
f 302/18/7 305/18/7 256/18/7 255/18/7 
# 259 polygons - 12 triangles

