# 3ds Max Wavefront OBJ Exporter v0.97b - (c)2007 guruware
# File Created: 28.06.2018 19:14:15

mtllib M_XA_F_MEP_B2_dianlanqiaojia.mtl

#
# object M_XA_F_MEP_B2_dianlanqiaojia
#

v  1023.1523 63.5165 -1032.9229
v  -1050.3308 63.5165 -1032.9229
v  -1050.3308 63.5165 1040.2198
v  1023.1523 63.5165 1040.2198
# 4 vertices

vn 0.0000 1.0000 -0.0000
# 1 vertex normals

vt 1.0000 1.0000 0.5000
vt 0.0000 1.0000 0.5000
vt 0.0000 0.0000 0.5000
vt 1.0000 0.0000 0.5000
# 4 texture coords

g M_XA_F_MEP_B2_dianlanqiaojia
usemtl F_B2_dianlanqiaojia
s 1
f 1/1/1 2/2/1 3/3/1 4/4/1 
# 1 polygons

