# 3ds Max Wavefront OBJ Exporter v0.97b - (c)2007 guruware
# File Created: 28.06.2018 17:38:52

mtllib M_XA_N_B2A_jishuixiang.mtl

#
# object M_XA_N_B2A_jishuixiang
#

v  326.0953 2.0076 421.3776
v  373.5953 2.0076 421.3776
v  373.5953 2.0076 373.8776
v  326.0953 2.0076 373.8776
v  -392.9998 2.0076 889.2517
v  -354.9998 2.0076 889.2517
v  -354.9998 2.0076 851.2516
v  -392.9998 2.0076 851.2516
v  374.5453 -29.9124 422.3276
v  325.1453 -29.9124 422.3276
v  325.1453 -29.9124 372.9276
v  374.5453 -29.9124 372.9276
v  325.1453 2.0076 372.9276
v  374.5453 2.0076 372.9276
v  325.1453 2.0076 422.3276
v  374.5453 2.0076 422.3276
v  374.5453 -26.1124 422.3276
v  325.1453 -26.1124 422.3276
v  325.1453 -26.1124 372.9276
v  374.5453 -26.1124 372.9276
v  326.0953 -26.1124 373.8776
v  373.5953 -26.1124 373.8776
v  326.0953 -26.1124 421.3776
v  373.5953 -26.1124 421.3776
v  -354.0498 -29.9124 890.2017
v  -393.9498 -29.9124 890.2017
v  -393.9498 -29.9124 850.3016
v  -354.0498 -29.9124 850.3016
v  -393.9498 2.0076 850.3016
v  -354.0498 2.0076 850.3016
v  -393.9498 2.0076 890.2017
v  -354.0498 2.0076 890.2017
v  -354.0498 -26.1124 890.2017
v  -393.9498 -26.1124 890.2017
v  -393.9498 -26.1124 850.3016
v  -354.0498 -26.1124 850.3016
v  -392.9998 -26.1124 851.2516
v  -354.9998 -26.1124 851.2516
v  -392.9998 -26.1124 889.2517
v  -354.9998 -26.1124 889.2517
# 40 vertices

vn 0.0000 1.0000 -0.0000
vn -0.0000 -1.0000 0.0000
vn 0.0000 -0.0000 1.0000
vn -1.0000 0.0000 -0.0000
vn 0.0000 0.0000 -1.0000
vn 1.0000 -0.0000 -0.0000
vn -0.0000 -0.0000 1.0000
vn 1.0000 0.0000 0.0000
vn 0.0000 0.0000 1.0000
vn 0.0000 -0.0000 -1.0000
vn -1.0000 -0.0000 -0.0000
vn 1.0000 0.0000 -0.0000
# 12 vertex normals

vt 0.0000 -0.0000 0.0000
vt 1.0000 -0.0000 0.0000
vt 1.0000 1.0000 0.0000
vt 0.0000 1.0000 0.0000
vt 0.0107 0.9874 0.0000
# 5 texture coords

g M_XA_N_B2A_jishuixiang
usemtl Tt_XA_AS_jishuikeng
s off
f 1/1/1 2/2/1 3/3/1 4/4/1 
f 5/1/1 6/2/1 7/3/1 8/4/1 
f 9/5/2 10/5/2 11/5/2 12/5/2 
f 13/5/1 4/5/1 3/5/1 14/5/1 
f 13/5/1 15/5/1 1/5/1 4/5/1 
f 16/5/1 14/5/1 3/5/1 2/5/1 
f 15/5/1 16/5/1 2/5/1 1/5/1 
f 17/5/3 18/5/3 10/5/3 9/5/3 
f 18/5/4 19/5/4 11/5/4 10/5/4 
f 19/5/5 20/5/5 12/5/5 11/5/5 
f 20/5/6 17/5/6 9/5/6 12/5/6 
f 18/5/1 17/5/1 20/5/1 19/5/1 
f 21/5/7 22/5/7 3/5/7 4/5/7 
f 23/5/8 21/5/8 4/5/8 1/5/8 
f 20/5/5 19/5/5 13/5/5 14/5/5 
f 19/5/4 18/5/4 15/5/4 13/5/4 
f 18/5/9 17/5/9 16/5/9 15/5/9 
f 24/5/10 23/5/10 1/5/10 2/5/10 
f 22/5/11 24/5/11 2/5/11 3/5/11 
f 17/5/12 20/5/12 14/5/12 16/5/12 
f 25/5/2 26/5/2 27/5/2 28/5/2 
f 29/5/1 8/5/1 7/5/1 30/5/1 
f 29/5/1 31/5/1 5/5/1 8/5/1 
f 32/5/1 30/5/1 7/5/1 6/5/1 
f 31/5/1 32/5/1 6/5/1 5/5/1 
f 33/5/9 34/5/9 26/5/9 25/5/9 
f 34/5/4 35/5/4 27/5/4 26/5/4 
f 35/5/5 36/5/5 28/5/5 27/5/5 
f 36/5/12 33/5/12 25/5/12 28/5/12 
f 34/5/1 33/5/1 36/5/1 35/5/1 
f 37/5/9 38/5/9 7/5/9 8/5/9 
f 39/5/12 37/5/12 8/5/12 5/5/12 
f 36/5/5 35/5/5 29/5/5 30/5/5 
f 35/5/4 34/5/4 31/5/4 29/5/4 
f 34/5/9 33/5/9 32/5/9 31/5/9 
f 40/5/5 39/5/5 5/5/5 6/5/5 
f 38/5/11 40/5/11 6/5/11 7/5/11 
f 33/5/12 36/5/12 30/5/12 32/5/12 
# 38 polygons

