# 3ds Max Wavefront OBJ Exporter v0.97b - (c)2007 guruware
# File Created: 28.06.2018 19:08:16

mtllib M_XA_F_B2A_chuang.mtl

#
# object M_XA_F_B2A_chuang
#

v  -928.3361 38.9892 -885.2760
v  -928.3361 38.9892 -889.0760
v  -960.6361 38.9892 -889.0759
v  -960.6361 38.9892 -885.2759
v  -928.3361 7.6392 -885.2760
v  -928.3361 7.6392 -889.0760
v  -960.6361 7.6392 -885.2759
v  -960.6361 7.6392 -889.0759
v  -960.2741 8.0012 -885.2759
v  -960.2741 8.0012 -889.0759
v  -960.2741 38.6273 -889.0759
v  -960.2741 38.6273 -885.2759
v  -928.6981 38.6273 -885.2760
v  -928.6981 38.6273 -889.0760
v  -928.6981 8.0012 -889.0760
v  -928.6982 8.0012 -885.2760
v  -960.2736 8.0011 -885.2757
v  -928.6980 8.0011 -885.2758
v  -928.6980 38.6272 -885.2758
v  -960.2736 38.6272 -885.2757
# 20 vertices

vn 0.0000 1.0000 -0.0000
vn 1.0000 0.0000 -0.0000
vn 0.0000 -1.0000 -0.0000
vn -1.0000 0.0000 0.0000
vn -0.0000 1.0000 -0.0000
vn 0.0000 0.0000 1.0000
vn 0.0000 -0.0000 1.0000
vn -0.0000 0.0000 -1.0000
# 8 vertex normals

vt 0.0076 0.9892 0.0000
vt 0.0279 0.0000 0.0000
vt 0.9723 0.0000 0.0000
vt 0.9723 2.8140 0.0000
vt 0.0279 2.8140 0.0000
# 5 texture coords

g M_XA_F_B2A_chuang
usemtl Tt_XA_AS_jishuikeng
s off
f 1/1/1 2/1/1 3/1/1 4/1/1 
f 5/1/2 6/1/2 2/1/2 1/1/2 
f 7/1/3 8/1/3 6/1/3 5/1/3 
f 4/1/4 3/1/4 8/1/4 7/1/4 
f 9/1/2 10/1/2 11/1/2 12/1/2 
f 13/1/4 14/1/4 15/1/4 16/1/4 
f 12/1/3 11/1/3 14/1/3 13/1/3 
f 9/1/5 16/1/5 15/1/5 10/1/5 
s 1
f 12/1/6 13/1/6 1/1/6 4/1/6 
s 2
f 13/1/6 16/1/6 5/1/6 1/1/6 
s 1
f 16/1/7 9/1/7 7/1/7 5/1/7 
s 2
f 9/1/6 12/1/6 4/1/6 7/1/6 
s 1
f 11/1/8 10/1/8 8/1/8 3/1/8 
s 2
f 10/1/8 15/1/8 6/1/8 8/1/8 
s 1
f 15/1/8 14/1/8 2/1/8 6/1/8 
s 2
f 14/1/8 11/1/8 3/1/8 2/1/8 
s 1
f 17/2/7 18/3/7 19/4/7 20/5/7 
# 17 polygons

