# 3ds Max Wavefront OBJ Exporter v0.97b - (c)2007 guruware
# File Created: 24.06.2018 15:51:16

mtllib M_XA_K_B2A_boli.mtl

#
# object M_XA_K_B2A_boli
#

v  1396.9464 11.8534 520.6897
v  1387.5748 24.4992 520.6884
v  1508.2404 94.2084 520.7399
v  1522.0015 84.0535 520.7443
v  1545.7656 96.7778 520.7500
v  1545.7656 81.7319 520.7500
v  1516.7712 96.7778 520.7429
v  1550.6041 95.0177 520.7518
v  1550.6041 83.4919 520.7518
v  1553.1782 90.5611 520.7527
v  1553.1782 87.9485 520.7527
v  1358.3051 9.7431 520.6779
v  1360.8788 24.4992 520.6788
v  1354.3610 13.2149 520.6765
v  1356.0408 22.7392 520.6771
v  1353.4664 18.2827 520.6761
v  1396.9462 11.8534 535.5157
v  1387.5748 24.4991 535.5145
v  1508.2402 94.2084 535.5659
v  1522.0009 84.0535 535.5703
v  1545.7657 96.7778 535.5762
v  1545.7657 81.7319 535.5762
v  1516.7708 96.7778 535.5690
v  1550.6036 95.0177 535.5779
v  1550.6036 83.4918 535.5779
v  1553.1782 90.5611 535.5789
v  1553.1782 87.9485 535.5789
v  1358.3047 9.7431 535.5040
v  1360.8787 24.4992 535.5050
v  1354.3606 13.2149 535.5026
v  1356.0404 22.7392 535.5032
v  1353.4664 18.2827 535.5023
v  1396.9467 11.8534 502.9931
v  1387.5750 24.4991 502.9917
v  1508.2404 94.2084 503.0432
v  1522.0016 84.0535 503.0476
v  1545.7659 96.7777 503.0534
v  1545.7659 81.7319 503.0534
v  1516.7714 96.7777 503.0462
v  1550.6041 95.0177 503.0551
v  1550.6041 83.4918 503.0551
v  1553.1785 90.5611 503.0560
v  1553.1785 87.9484 503.0560
v  1358.3054 9.7431 502.9813
v  1360.8790 24.4992 502.9822
v  1354.3610 13.2149 502.9799
v  1356.0408 22.7392 502.9804
v  1353.4664 18.2827 502.9795
v  1396.9471 11.8535 553.2169
v  1387.5757 24.4991 553.2156
v  1508.2401 94.2085 553.2670
v  1522.0010 84.0535 553.2715
v  1545.7656 96.7777 553.2772
v  1545.7656 81.7319 553.2772
v  1516.7711 96.7777 553.2701
v  1550.6036 95.0178 553.2789
v  1550.6036 83.4918 553.2789
v  1553.1783 90.5611 553.2800
v  1553.1783 87.9485 553.2800
v  1358.3046 9.7431 553.2051
v  1360.8789 24.4991 553.2061
v  1354.3606 13.2149 553.2037
v  1356.0403 22.7391 553.2043
v  1353.4666 18.2826 553.2034
v  1512.8190 95.9659 520.7413
v  1512.8186 95.9659 535.5674
v  1512.8190 95.9659 503.0446
v  1512.8187 95.9660 553.2686
# 68 vertices

vn -0.0189 0.0001 -0.9998
vn -0.0190 -0.0000 -0.9998
vn -0.0189 0.0000 -0.9998
vn -0.0190 0.0001 -0.9998
vn -0.0189 -0.0000 -0.9998
vn -0.0190 0.0000 -0.9998
# 6 vertex normals

vt 0.8648 0.8935 0.0175
# 1 texture coords

g M_XA_K_B2A_boli
usemtl pj_lanse_01
s off
f 1/1/1 2/1/1 3/1/1 4/1/1 
f 5/1/2 6/1/2 4/1/2 7/1/2 
f 5/1/3 8/1/3 9/1/3 6/1/3 
f 8/1/3 10/1/3 11/1/3 9/1/3 
f 12/1/4 13/1/4 2/1/4 1/1/4 
f 12/1/5 14/1/5 15/1/5 13/1/5 
f 14/1/3 16/1/3 15/1/3 
f 17/1/1 18/1/1 19/1/1 20/1/1 
f 21/1/2 22/1/2 20/1/2 23/1/2 
f 21/1/3 24/1/3 25/1/3 22/1/3 
f 24/1/3 26/1/3 27/1/3 25/1/3 
f 28/1/4 29/1/4 18/1/4 17/1/4 
f 28/1/5 30/1/5 31/1/5 29/1/5 
f 30/1/5 32/1/5 31/1/5 
f 33/1/1 34/1/1 35/1/1 36/1/1 
f 37/1/2 38/1/2 36/1/2 39/1/2 
f 37/1/3 40/1/3 41/1/3 38/1/3 
f 40/1/3 42/1/3 43/1/3 41/1/3 
f 44/1/1 45/1/1 34/1/1 33/1/1 
f 44/1/5 46/1/5 47/1/5 45/1/5 
f 46/1/5 48/1/5 47/1/5 
f 49/1/1 50/1/1 51/1/1 52/1/1 
f 53/1/2 54/1/2 52/1/2 55/1/2 
f 53/1/3 56/1/3 57/1/3 54/1/3 
f 56/1/3 58/1/3 59/1/3 57/1/3 
f 60/1/4 61/1/4 50/1/4 49/1/4 
f 60/1/5 62/1/5 63/1/5 61/1/5 
f 62/1/5 64/1/5 63/1/5 
f 65/1/1 7/1/1 4/1/1 
f 3/1/2 65/1/2 4/1/2 
f 66/1/1 23/1/1 20/1/1 
f 19/1/3 66/1/3 20/1/3 
f 67/1/1 39/1/1 36/1/1 
f 35/1/2 67/1/2 36/1/2 
f 68/1/1 55/1/1 52/1/1 
f 51/1/6 68/1/6 52/1/6 
# 24 polygons - 12 triangles

