# 3ds Max Wavefront OBJ Exporter v0.97b - (c)2007 guruware
# File Created: 26.06.2018 16:50:35

mtllib M_XA_N_B1A_floor.mtl

#
# object M_XA_N_B1A_floor
#

v  -1532.6571 44.1712 1610.8611
v  1612.2991 44.1712 1610.8611
v  1612.2991 44.1712 -1301.8398
v  -1532.6571 44.1712 -1301.8398
# 4 vertices

vn 0.0000 1.0000 -0.0000
# 1 vertex normals

vt 0.0053 0.0335 0.0000
vt 0.9944 0.0335 0.0000
vt 0.9944 0.9495 0.0000
vt 0.0053 0.9495 0.0000
# 4 texture coords

g M_XA_N_B1A_floor
usemtl N_B1_A_floor
s 1
f 1/1/1 2/2/1 3/3/1 4/4/1 
# 1 polygons

