# 3ds Max Wavefront OBJ Exporter v0.97b - (c)2007 guruware
# File Created: 28.06.2018 19:02:09

mtllib M_XA_F_B2S_Top.mtl

#
# object M_XA_F_B2S_Top
#

v  1300.4565 81.7393 -1230.6047
v  -1163.0537 81.7393 -1230.6047
v  -1163.0537 81.7393 1232.9055
v  1300.4565 81.7393 1232.9055
v  -439.2371 101.9004 -512.8073
v  -513.0189 102.6420 -375.4079
v  -467.1584 105.9955 -357.8878
v  -421.8751 105.2539 -506.8121
v  -472.3505 94.8065 -532.9162
v  -588.2733 96.3542 -427.9330
v  -553.5729 99.4283 -399.2643
v  -459.8166 97.6440 -523.7256
v  -429.1547 108.6504 -349.6671
v  -400.3359 109.2523 -502.9067
v  -498.6683 87.5835 -562.2966
v  -653.6768 88.3897 -523.6724
v  -624.0739 92.5815 -469.9666
v  -486.5925 91.1950 -546.6372
v  -506.7667 84.6170 -576.3860
v  -670.1013 84.6170 -576.3860
v  -388.3376 111.4450 -346.6345
v  -388.3376 111.4450 -502.2611
v  -653.6768 85.5120 -523.6725
v  -624.0745 89.7039 -469.9667
v  -498.6695 84.7059 -562.2966
v  -506.7672 81.7393 -576.3862
v  -459.8166 94.7664 -523.7258
v  -472.3505 91.9288 -532.9164
v  -670.1030 81.7393 -576.3862
v  -388.3376 108.5673 -502.2612
v  -400.3371 106.3747 -502.9069
v  -388.3376 108.5673 -346.6346
v  -513.0189 99.7644 -375.4082
v  -467.1601 103.1179 -357.8879
v  -421.8763 102.3762 -506.8124
v  -588.2733 93.4766 -427.9331
v  -553.5741 96.5506 -399.2643
v  -439.2371 99.0228 -512.8075
v  -486.5925 88.3174 -546.6373
v  -429.1547 105.7728 -349.6673
v  -616.1306 88.6171 -391.2830
v  -616.1306 88.6171 -361.8330
v  -610.8245 88.6171 -362.1098
v  -610.8245 88.6171 -391.2830
v  -616.1323 85.2207 -361.8331
v  -610.8251 85.2207 -362.1098
v  -625.1622 88.4453 -362.6389
v  -619.9484 88.4455 -391.6238
v  -616.1312 85.2207 -391.2831
v  -610.8251 85.2207 -391.2831
v  -616.1306 91.5810 -391.2830
v  -619.9484 91.5810 -391.6236
v  -625.1622 91.5810 -362.6389
v  -616.1306 91.5810 -361.8330
v  -619.9484 94.5450 -391.6236
v  -623.6445 94.5450 -392.6349
v  -633.9095 94.5450 -365.0315
v  -625.1622 94.5450 -362.6389
v  -633.9095 91.4093 -365.0315
v  -623.6439 91.4090 -392.6349
v  -623.6445 97.5090 -392.6349
v  -627.1046 97.5090 -394.2848
v  -642.0942 97.5090 -368.9350
v  -633.9095 97.5090 -365.0315
v  -642.0942 94.3733 -368.9350
v  -627.1046 94.3733 -394.2848
v  -627.1046 100.4730 -394.2848
v  -630.2169 100.4730 -396.5211
v  -649.4584 100.4730 -374.2261
v  -642.0942 100.4730 -368.9350
v  -649.4584 97.3374 -374.2264
v  -630.2169 97.3376 -396.5214
v  -630.2169 103.4371 -396.5211
v  -632.8840 103.4371 -399.2732
v  -655.7694 103.4371 -380.7376
v  -649.4584 103.4371 -374.2261
v  -655.7694 100.2379 -380.7376
v  -632.8840 100.2379 -399.2732
v  -669.7159 132.7786 -444.7484
v  -692.6013 132.7786 -426.2129
v  -636.2325 106.4010 -403.4073
v  -659.1179 106.4010 -384.8718
v  -655.7694 106.4010 -380.7376
v  -632.8840 106.4010 -399.2732
v  -662.4658 109.3650 -389.0058
v  -659.1179 109.3650 -384.8718
v  -665.8148 112.3290 -393.1400
v  -662.4658 112.3290 -389.0058
v  -669.1627 115.2930 -397.2740
v  -665.8148 115.2930 -393.1400
v  -672.5117 118.2570 -401.4081
v  -669.1627 118.2570 -397.2740
v  -675.8596 121.2210 -405.5423
v  -672.5117 121.2210 -401.4081
v  -679.2081 124.1850 -409.6763
v  -675.8596 124.1850 -405.5423
v  -682.5565 127.1490 -413.8105
v  -679.2081 127.1490 -409.6763
v  -685.9044 130.1130 -417.9447
v  -682.5565 130.1130 -413.8105
v  -689.2529 133.0770 -422.0787
v  -685.9044 133.0770 -417.9447
v  -692.6013 136.0410 -426.2129
v  -689.2529 136.0410 -422.0787
v  -639.5811 109.3650 -407.5415
v  -636.2325 109.3650 -403.4073
v  -642.9288 112.3290 -411.6755
v  -646.2780 115.2930 -415.8097
v  -649.6259 118.2570 -419.9437
v  -652.9749 121.2210 -424.0778
v  -656.3228 124.1850 -428.2119
v  -659.6707 127.1490 -432.3460
v  -663.0197 130.1130 -436.4802
v  -666.3676 133.0770 -440.6143
v  -669.7159 136.0410 -444.7484
v  -666.3676 136.0410 -440.6143
v  -663.0197 133.0770 -436.4802
v  -659.6707 130.1130 -432.3460
v  -656.3228 127.1490 -428.2119
v  -652.9749 124.1850 -424.0778
v  -649.6259 121.2210 -419.9437
v  -646.2780 118.2570 -415.8097
v  -642.9288 115.2930 -411.6755
v  -639.5811 112.3290 -407.5415
v  -703.6118 133.7610 -439.7893
v  -680.7271 133.7610 -458.3249
v  -669.7172 133.7610 -444.7483
v  -692.6013 133.7610 -426.2128
v  -669.7172 136.0410 -444.7483
v  -680.7271 136.0410 -458.3249
v  -703.6118 136.0410 -439.7893
v  -692.6013 136.0410 -426.2128
v  -605.5190 85.2207 -362.1098
v  -605.5190 85.2207 -391.2831
v  -605.5190 81.7390 -362.1098
v  -605.5190 81.7390 -391.2833
v  -610.7593 81.7390 -362.1098
v  -610.7593 81.7390 -391.2834
# 138 vertices

vn 0.0000 1.0000 -0.0000
vn -0.0875 0.9948 -0.0527
vn -0.0874 0.9947 -0.0536
vn -0.0977 0.9946 -0.0345
vn -0.0979 0.9946 -0.0342
vn -0.0584 0.9951 -0.0798
vn -0.0576 0.9951 -0.0805
vn -0.0749 0.9948 -0.0691
vn -0.0756 0.9948 -0.0688
vn -0.0998 0.9949 -0.0169
vn -0.0994 0.9949 -0.0162
vn -0.0216 0.9952 -0.0953
vn -0.0184 0.9952 -0.0957
vn -0.0394 0.9951 -0.0906
vn -0.0414 0.9951 -0.0898
vn -0.0092 0.9952 -0.0970
vn -0.0935 0.9956 -0.0068
vn -0.8758 0.0001 0.4827
vn 0.8670 -0.0003 -0.4983
vn 0.5913 0.0001 -0.8064
vn -0.9547 0.0003 0.2975
vn 0.0537 0.0000 -0.9986
vn 1.0000 0.0000 -0.0000
vn -0.3569 0.0000 0.9341
vn 0.1784 0.0000 -0.9840
vn -0.6369 0.0001 0.7709
vn -0.5070 0.0001 0.8619
vn 0.3264 0.0000 -0.9452
vn -0.7613 0.0000 0.6484
vn 0.6938 0.0001 -0.7202
vn 0.0000 0.0001 -1.0000
vn 0.4687 0.0000 -0.8834
vn -0.2114 0.0000 0.9774
vn 0.7919 -0.0001 -0.6107
vn -0.0741 -0.0001 0.9973
vn 0.0875 -0.9948 0.0527
vn 0.0979 -0.9946 0.0342
vn 0.0977 -0.9946 0.0345
vn 0.0874 -0.9947 0.0536
vn 0.0584 -0.9951 0.0798
vn 0.0756 -0.9948 0.0688
vn 0.0749 -0.9948 0.0691
vn 0.0576 -0.9951 0.0805
vn 0.0998 -0.9949 0.0169
vn 0.0994 -0.9949 0.0162
vn 0.0216 -0.9952 0.0953
vn 0.0414 -0.9951 0.0898
vn 0.0394 -0.9951 0.0906
vn 0.0184 -0.9952 0.0957
vn 0.0092 -0.9952 0.0970
vn 0.0935 -0.9956 0.0068
vn 0.0521 -0.0000 0.9986
vn -0.0420 -0.0000 0.9991
vn -0.0099 -0.0000 1.0000
vn -0.4455 -0.8944 -0.0398
vn -0.4245 -0.9023 -0.0750
vn -0.4245 -0.9023 -0.0751
vn 1.0000 -0.0002 -0.0000
vn -0.2062 0.0000 0.9785
vn -0.1588 0.0000 0.9873
vn -0.0889 0.0000 0.9960
vn 0.0593 0.0000 -0.9982
vn 0.0318 0.0000 -0.9995
vn 0.1395 0.0000 -0.9902
vn 0.0889 0.0000 -0.9960
vn 0.2063 0.0000 -0.9785
vn -0.3763 0.0000 0.9265
vn -0.3317 0.0000 0.9434
vn -0.2638 0.0000 0.9646
vn 0.9842 0.0000 0.1770
vn 0.3133 0.0000 -0.9497
vn 0.3762 0.0000 -0.9265
vn 0.2639 0.0000 -0.9645
vn -0.5344 -0.0000 0.8452
vn -0.4935 -0.0000 0.8698
vn -0.4305 0.0000 0.9026
vn 0.9373 0.0000 0.3486
vn 0.4764 0.0000 -0.8792
vn 0.5344 0.0000 -0.8452
vn 0.4304 0.0000 -0.9026
vn -0.6756 -0.0000 0.7373
vn -0.6399 -0.0000 0.7685
vn -0.5835 -0.0000 0.8121
vn 0.8608 0.0000 0.5090
vn 0.6250 0.0000 -0.7806
vn 0.6756 0.0000 -0.7372
vn 0.5836 0.0000 -0.8121
vn -0.7581 -0.0000 0.6522
vn -0.7401 -0.0000 0.6725
vn -0.7181 -0.0000 0.6960
vn 0.7570 0.0000 0.6534
vn 0.7379 0.0000 -0.6750
vn 0.7581 0.0000 -0.6521
vn 0.7181 0.0000 -0.6959
vn -0.0000 0.0000 -1.0000
vn -0.3059 -0.8740 -0.3777
vn -0.7771 -0.0000 0.6294
vn 0.6294 0.0000 0.7771
vn 0.7771 0.0000 -0.6294
vn -0.6294 0.0000 -0.7771
vn 0.0000 -1.0000 -0.0000
vn -0.7771 0.0000 0.6294
vn -0.3901 -0.9093 -0.1451
vn -0.3901 -0.9093 -0.1450
vn -0.5438 -0.8392 -0.0000
vn 0.0174 0.0003 0.9998
vn -0.2854 -0.9120 -0.2945
vn -0.3125 -0.9110 -0.2693
vn -0.3582 -0.9093 -0.2118
# 109 vertex normals

vt 1.0000 1.0000 0.5000
vt 0.0000 1.0000 0.5000
vt 0.0000 0.0000 0.5000
vt 1.0000 0.0000 0.5000
vt 0.2048 0.4627 0.3713
vt 0.2048 0.4627 0.3849
vt 0.2048 0.4627 0.4467
vt 0.2048 0.4627 0.4330
vt 0.2048 0.4627 0.2406
vt 0.2048 0.4627 0.2691
vt 0.2048 0.4627 0.3258
vt 0.2048 0.4627 0.2929
vt 0.2048 0.4627 0.4956
vt 0.2048 0.4627 0.5067
vt 0.2048 0.4627 0.1076
vt 0.2048 0.4627 0.1225
vt 0.2048 0.4627 0.1997
vt 0.2048 0.4627 0.1741
vt 0.2048 0.4627 0.0530
vt 0.2048 0.4627 0.5471
vt 0.2048 0.4627 0.2523
vt 0.2048 0.4627 0.1584
vt 0.2048 0.4627 0.6244
vt 0.2048 0.4627 0.6500
vt 0.2048 0.4627 0.8108
vt 0.2048 0.4627 0.7708
vt 0.2048 0.4627 0.1063
vt 0.2048 0.4627 0.6802
vt 0.2048 0.4627 0.6774
vt 0.2048 0.4627 1.0000
vt 0.2048 0.4627 0.0490
vt 0.2048 0.4627 0.1252
vt 0.2048 0.4627 0.6972
vt 0.2048 0.4627 0.2291
vt 0.2048 0.4627 0.3539
vt 0.2048 0.4627 0.7233
vt 0.2048 0.4627 0.5368
vt 0.2048 0.4627 0.8705
vt 0.2048 0.4627 0.0132
vt 0.2048 0.4627 0.9387
vt 0.2048 0.4627 -0.0000
vt 0.2048 0.4627 0.0000
vt 0.2048 0.4627 0.3183
vt 0.2048 0.4627 0.3800
vt 0.2048 0.4627 0.3937
vt 0.2048 0.4627 0.3319
vt 0.2048 0.4627 0.1877
vt 0.2048 0.4627 0.2399
vt 0.2048 0.4627 0.2728
vt 0.2048 0.4627 0.2162
vt 0.2048 0.4627 0.4426
vt 0.2048 0.4627 0.4537
vt 0.2048 0.4627 0.0546
vt 0.2048 0.4627 0.1211
vt 0.2048 0.4627 0.1467
vt 0.2048 0.4627 0.0695
vt 0.2048 0.4627 0.4941
vt 0.2048 0.4627 0.1267
vt 0.2048 0.4627 0.0674
vt 0.2048 0.4627 0.0662
vt 0.2048 0.4627 0.0641
vt 0.2048 0.4627 0.1235
vt 0.2048 0.4627 0.2943
vt 0.2048 0.4627 0.1812
vt 0.2048 0.4627 0.0697
vt 0.2048 0.4627 0.2775
vt 0.2048 0.4627 0.1943
vt 0.2048 0.4627 0.1958
vt 0.2048 0.4627 0.2358
vt 0.2048 0.4627 0.0801
vt 0.2048 0.4627 0.2488
vt 0.2048 0.4627 0.2654
vt 0.2048 0.4627 0.2002
vt 0.2048 0.4627 0.2904
vt 0.2048 0.4627 0.0971
vt 0.2048 0.4627 0.2211
vt 0.2048 0.4627 0.2536
vt 0.2048 0.4627 0.2074
vt 0.2048 0.4627 0.3450
vt 0.2048 0.4627 0.1201
vt 0.2048 0.4627 0.1951
vt 0.2048 0.4627 0.2427
vt 0.2048 0.4627 0.2171
vt 0.2048 0.4627 0.3996
vt 0.2048 0.4627 0.1484
vt 0.2048 0.4627 0.9399
vt 0.2048 0.4627 0.3407
vt 0.2048 0.4627 0.4542
vt 0.2048 0.4627 0.1664
vt 0.2048 0.4627 0.1844
vt 0.2048 0.4627 0.2024
vt 0.2048 0.4627 0.2204
vt 0.2048 0.4627 0.2384
vt 0.2048 0.4627 0.3464
vt 0.2048 0.4627 0.2564
vt 0.2048 0.4627 0.2744
vt 0.2048 0.4627 0.2924
vt 0.2048 0.4627 0.3104
vt 0.2048 0.4627 0.3284
vt 0.2048 0.4627 0.2651
vt 0.2048 0.4627 0.2471
vt 0.2048 0.4627 0.2831
vt 0.2048 0.4627 0.3011
vt 0.2048 0.4627 0.3191
vt 0.2048 0.4627 0.4270
vt 0.2048 0.4627 0.3371
vt 0.2048 0.4627 0.3551
vt 0.2048 0.4627 0.3731
vt 0.2048 0.4627 0.3911
vt 0.2048 0.4627 0.4090
vt 0.2048 0.4627 0.5087
vt 0.2048 0.4627 0.5633
vt 0.2048 0.4627 0.6179
vt 0.2048 0.4627 0.6725
vt 0.2048 0.4627 0.7271
vt 0.2048 0.4627 0.7817
vt 0.2048 0.4627 0.8362
vt 0.2048 0.4627 0.8908
vt 0.2048 0.4627 0.9454
vt 0.2048 0.4627 0.9580
vt 0.2048 0.4627 0.4861
vt 0.2048 0.4627 0.4055
vt 0.2048 0.4627 0.3111
vt 0.2048 0.4627 0.1781
vt 0.2048 0.4627 0.2873
vt 0.2048 0.4627 0.2327
# 126 texture coords

g M_XA_F_B2S_Top
usemtl F_B2S_Top
s 1
f 1/1/1 2/2/1 3/3/1 4/4/1 
f 5/5/2 6/6/3 7/7/4 8/8/5 
f 9/9/6 10/10/7 11/11/8 12/12/9 
f 13/13/10 14/14/11 8/8/5 7/7/4 
f 15/15/12 16/16/13 17/17/14 18/18/15 
f 19/19/16 20/19/16 16/16/13 15/15/12 
f 18/18/15 17/17/14 10/10/7 9/9/6 
f 12/12/9 11/11/8 6/6/3 5/5/2 
f 21/20/17 22/20/17 14/14/11 13/13/10 
s off
f 17/21/18 16/22/18 23/22/18 24/21/18 
f 19/23/19 15/24/19 25/24/19 26/23/19 
f 9/25/20 12/26/20 27/26/20 28/25/20 
f 16/22/21 20/27/21 29/27/21 23/22/21 
f 14/28/22 22/29/22 30/29/22 31/28/22 
f 22/30/23 21/30/23 32/30/23 30/30/23 
f 7/31/24 6/32/24 33/32/24 34/31/24 
f 8/33/25 14/28/25 31/28/25 35/33/25 
f 11/34/26 10/35/26 36/35/26 37/34/26 
f 6/32/27 11/34/27 37/34/27 33/32/27 
f 5/36/28 8/33/28 35/33/28 38/36/28 
f 10/35/29 17/37/29 24/37/29 36/35/29 
f 18/38/30 9/25/30 28/25/30 39/38/30 
f 20/30/31 19/30/31 26/30/31 29/30/31 
f 12/26/32 5/36/32 38/36/32 27/26/32 
f 13/39/33 7/31/33 34/31/33 40/39/33 
f 15/40/34 18/38/34 39/38/34 25/40/34 
f 21/41/35 13/39/35 40/39/35 32/42/35 
s 1
f 38/43/36 35/44/37 34/45/38 33/46/39 
f 28/47/40 27/48/41 37/49/42 36/50/43 
f 40/51/44 34/45/38 35/44/37 31/52/45 
f 25/53/46 39/54/47 24/55/48 23/56/49 
f 26/42/50 25/53/46 23/56/49 29/42/50 
f 39/54/47 28/47/40 36/50/43 24/55/48 
f 27/48/41 38/43/36 33/46/39 37/49/42 
f 32/57/51 40/51/44 31/52/45 30/57/51 
f 41/58/1 42/58/1 43/58/1 44/58/1 
s 2
f 43/59/52 42/60/53 45/60/54 46/59/52 
s 4
f 45/61/55 47/62/56 48/62/57 49/61/55 
f 43/63/58 46/63/58 50/63/58 44/63/58 
s 1
f 51/64/1 52/64/1 53/64/1 54/64/1 
s 2
f 53/65/59 47/65/60 45/60/54 54/60/61 
f 45/60/54 42/60/53 54/60/61 
s 4
f 54/66/23 42/66/23 41/66/23 51/66/23 
s 2
f 41/67/62 49/67/63 48/68/64 51/67/65 
f 52/68/66 51/67/65 48/68/64 
s 1
f 55/69/1 56/69/1 57/69/1 58/69/1 
s 2
f 57/70/67 59/70/68 47/65/60 58/65/69 
f 53/65/59 58/65/69 47/65/60 
s 4
f 58/71/70 53/71/70 52/72/70 55/72/70 
s 2
f 60/73/71 56/73/72 55/68/73 52/68/66 
f 60/73/71 52/68/66 48/68/64 
s 1
f 61/74/1 62/74/1 63/74/1 64/74/1 
s 2
f 63/75/74 65/75/75 59/70/68 64/70/76 
f 57/70/67 64/70/76 59/70/68 
s 4
f 64/76/77 57/76/77 56/77/77 61/77/77 
s 2
f 66/78/78 62/78/79 61/73/80 56/73/72 
f 66/78/78 56/73/72 60/73/71 
s 1
f 67/79/1 68/79/1 69/79/1 70/79/1 
s 2
f 69/80/81 71/80/82 65/75/75 70/75/83 
f 63/75/74 70/75/83 65/75/75 
s 4
f 70/81/84 63/81/84 62/82/84 67/82/84 
s 2
f 72/83/85 68/83/86 67/78/87 62/78/79 
f 72/83/85 62/78/79 66/78/78 
s 1
f 73/84/1 74/84/1 75/84/1 76/84/1 
s 2
f 75/85/88 77/85/89 71/80/82 76/80/90 
f 69/80/81 76/80/90 71/80/82 
s 4
f 76/80/91 69/80/91 68/83/91 73/83/91 
s 2
f 78/34/92 74/34/93 73/83/94 68/83/86 
f 78/34/92 68/83/86 72/83/85 
f 44/67/95 50/67/95 49/67/63 41/67/62 
s 1
f 79/86/96 78/87/96 77/87/96 80/86/96 
f 81/88/1 82/88/1 83/88/1 84/88/1 
s 2
f 75/85/88 83/85/97 82/89/97 77/85/89 
f 85/90/97 77/85/89 82/89/97 86/89/97 
f 87/91/97 77/85/89 85/90/97 88/90/97 
f 89/92/97 77/85/89 87/91/97 90/91/97 
f 91/93/97 77/85/89 89/92/97 92/92/97 
f 80/94/97 77/85/89 91/93/97 93/95/97 
f 91/93/97 94/93/97 93/95/97 
f 95/96/97 80/94/97 93/95/97 96/95/97 
f 97/97/97 80/94/97 95/96/97 98/96/97 
f 99/98/97 80/94/97 97/97/97 100/97/97 
f 101/99/97 80/94/97 99/98/97 102/98/97 
f 103/94/97 80/94/97 101/99/97 104/99/97 
s 4
f 83/85/98 75/85/98 74/34/98 84/34/98 
s 2
f 105/100/99 106/101/99 81/101/99 78/34/92 
f 74/34/93 78/34/92 81/101/99 84/34/99 
f 107/102/99 105/100/99 78/34/92 108/103/99 
f 109/104/99 108/103/99 78/34/92 79/105/99 
f 110/106/99 109/104/99 79/105/99 111/107/99 
f 112/108/99 111/107/99 79/105/99 113/109/99 
f 114/110/99 113/109/99 79/105/99 115/105/99 
f 115/105/99 116/110/99 114/110/99 
f 114/110/99 117/109/99 113/109/99 
f 113/109/99 118/108/99 112/108/99 
f 112/108/99 119/107/99 111/107/99 
f 111/107/99 120/106/99 110/106/99 
f 110/106/99 121/104/99 109/104/99 
f 109/104/99 122/103/99 108/103/99 
f 108/103/99 123/102/99 107/102/99 
f 124/100/99 105/100/99 107/102/99 
s 1
f 105/111/1 85/111/1 86/111/1 106/111/1 
s 4
f 86/89/98 82/89/98 81/101/98 106/101/98 
s 1
f 107/112/1 87/112/1 88/112/1 124/112/1 
s 4
f 124/100/98 88/90/98 85/90/98 105/100/98 
s 1
f 108/113/1 89/113/1 90/113/1 123/113/1 
s 4
f 123/102/98 90/91/98 87/91/98 107/102/98 
s 1
f 109/114/1 91/114/1 92/114/1 122/114/1 
s 4
f 122/103/98 92/92/98 89/92/98 108/103/98 
s 1
f 110/115/1 93/115/1 94/115/1 121/115/1 
s 4
f 121/104/98 94/93/98 91/93/98 109/104/98 
s 1
f 111/116/1 95/116/1 96/116/1 120/116/1 
s 4
f 120/106/98 96/95/98 93/95/98 110/106/98 
s 1
f 112/117/1 97/117/1 98/117/1 119/117/1 
s 4
f 119/107/98 98/96/98 95/96/98 111/107/98 
s 1
f 113/118/1 99/118/1 100/118/1 118/118/1 
s 4
f 118/108/98 100/97/98 97/97/98 112/108/98 
s 1
f 114/119/1 101/119/1 102/119/1 117/119/1 
s 4
f 117/109/98 102/98/98 99/98/98 113/109/98 
s 1
f 115/30/1 103/30/1 104/30/1 116/30/1 
s 4
f 116/110/98 104/99/98 101/99/98 114/110/98 
f 80/94/100 103/94/100 115/105/100 79/105/100 
s off
f 125/120/101 126/120/101 127/120/101 128/120/101 
f 129/30/1 130/30/1 131/30/1 132/30/1 
f 129/105/99 127/105/99 126/121/99 130/121/99 
f 131/122/102 125/122/102 128/94/102 132/94/102 
f 130/121/100 126/121/100 125/122/100 131/122/100 
f 50/61/1 46/61/1 133/61/1 134/61/1 
f 134/123/23 133/123/23 135/123/23 136/123/23 
f 136/42/101 135/42/101 137/42/101 138/42/101 
s 4
f 59/124/103 60/124/104 48/62/57 47/62/56 
s off
f 45/61/105 49/61/105 138/42/105 137/42/105 
f 50/67/31 134/67/31 136/67/31 138/67/31 
f 50/67/31 138/67/31 49/67/31 
f 137/59/106 135/59/106 133/59/106 46/59/106 
f 45/60/106 137/59/106 46/59/106 
s 4
f 77/87/107 78/87/107 72/125/108 71/125/108 
f 65/126/109 71/125/108 72/125/108 66/126/109 
f 59/124/103 65/126/109 66/126/109 60/124/104 
# 117 polygons - 22 triangles

