# 3ds Max Wavefront OBJ Exporter v0.97b - (c)2007 guruware
# File Created: 09.07.2018 12:02:57

mtllib M_xiaofangshuan_MEP_G_B1_xfs.mtl

#
# object M_xiaofangshuan_MEP_G_B1_xfs
#

v  -73.4433 11.5279 39.7840
v  -73.4795 11.5279 39.5053
v  -73.5766 11.5279 39.5179
v  -73.5404 11.5279 39.7966
v  -73.4433 10.8457 39.7840
v  -73.5404 10.8457 39.7966
v  -73.5766 10.8457 39.5179
v  -73.4795 10.8457 39.5053
v  56.2336 11.5279 -35.6172
v  56.1393 11.5279 -35.3524
v  56.2315 11.5279 -35.3196
v  56.3258 11.5279 -35.5843
v  56.2336 10.8457 -35.6172
v  56.3258 10.8457 -35.5843
v  56.2315 10.8457 -35.3196
v  56.1393 10.8457 -35.3524
v  53.3166 11.5279 -34.8868
v  53.4900 11.5279 -35.1080
v  53.4130 11.5279 -35.1684
v  53.2396 11.5279 -34.9472
v  53.3166 10.8457 -34.8868
v  53.2396 10.8457 -34.9472
v  53.4130 10.8457 -35.1684
v  53.4900 10.8457 -35.1080
v  48.1347 11.5279 -27.5215
v  47.9613 11.5279 -27.3003
v  48.0383 11.5279 -27.2400
v  48.2117 11.5279 -27.4611
v  48.1347 10.8457 -27.5215
v  48.2117 10.8457 -27.4611
v  48.0383 10.8457 -27.2400
v  47.9613 10.8457 -27.3003
v  45.5691 11.5279 -27.9163
v  45.7684 11.5279 -28.1145
v  45.6994 11.5279 -28.1839
v  45.5001 11.5279 -27.9858
v  45.5691 10.8457 -27.9163
v  45.5001 10.8457 -27.9858
v  45.6994 10.8457 -28.1839
v  45.7684 10.8457 -28.1145
v  13.8478 11.5279 -50.3454
v  14.1264 11.5279 -50.3816
v  14.1138 11.5279 -50.4786
v  13.8352 11.5279 -50.4425
v  13.8478 10.8457 -50.3454
v  13.8352 10.8457 -50.4425
v  14.1138 10.8457 -50.4786
v  14.1264 10.8457 -50.3816
v  16.3205 11.5279 -43.8048
v  16.4440 11.5279 -43.5524
v  16.5319 11.5279 -43.5955
v  16.4084 11.5279 -43.8479
v  16.3205 10.8457 -43.8048
v  16.4084 10.8457 -43.8479
v  16.5319 10.8457 -43.5955
v  16.4440 10.8457 -43.5524
v  15.3110 11.5279 -34.2432
v  15.5897 11.5279 -34.2793
v  15.5771 11.5279 -34.3764
v  15.2984 11.5279 -34.3402
v  15.3110 10.8457 -34.2432
v  15.2984 10.8457 -34.3402
v  15.5771 10.8457 -34.3764
v  15.5897 10.8457 -34.2793
v  18.0875 11.5279 -21.1754
v  18.3101 11.5279 -21.0039
v  18.3699 11.5279 -21.0814
v  18.1472 11.5279 -21.2529
v  18.0875 10.8457 -21.1754
v  18.1472 10.8457 -21.2529
v  18.3699 10.8457 -21.0814
v  18.3101 10.8457 -21.0039
v  7.7576 11.5279 -18.7780
v  8.0253 11.5279 -18.6923
v  8.0551 11.5279 -18.7856
v  7.7874 11.5279 -18.8712
v  7.7576 10.8457 -18.7780
v  7.7874 10.8457 -18.8712
v  8.0551 10.8457 -18.7856
v  8.0253 10.8457 -18.6923
v  2.8444 11.5279 -26.9574
v  2.8120 11.5279 -26.6783
v  2.9093 11.5279 -26.6670
v  2.9416 11.5279 -26.9462
v  2.8444 10.8457 -26.9574
v  2.9416 10.8457 -26.9462
v  2.9093 10.8457 -26.6670
v  2.8120 10.8457 -26.6783
v  -40.8498 11.5279 -50.7280
v  -40.8136 11.5279 -50.4493
v  -40.7166 11.5279 -50.4619
v  -40.7527 11.5279 -50.7406
v  -40.8498 10.8457 -50.7280
v  -40.7527 10.8457 -50.7406
v  -40.7166 10.8457 -50.4619
v  -40.8136 10.8457 -50.4493
v  -40.7602 11.5279 -38.3029
v  -40.7964 11.5279 -38.5815
v  -40.8935 11.5279 -38.5689
v  -40.8573 11.5279 -38.2903
v  -40.7602 10.8457 -38.3029
v  -40.8573 10.8457 -38.2903
v  -40.8935 10.8457 -38.5689
v  -40.7964 10.8457 -38.5815
v  -39.8331 11.5279 -31.1757
v  -39.8692 11.5279 -31.4544
v  -39.9663 11.5279 -31.4418
v  -39.9301 11.5279 -31.1631
v  -39.8331 10.8457 -31.1757
v  -39.9301 10.8457 -31.1631
v  -39.9663 10.8457 -31.4418
v  -39.8692 10.8457 -31.4544
v  -36.1618 11.5279 -24.0638
v  -36.3710 11.5279 -24.2515
v  -36.4363 11.5279 -24.1786
v  -36.2271 11.5279 -23.9910
v  -36.1618 10.8457 -24.0638
v  -36.2271 10.8457 -23.9910
v  -36.4363 10.8457 -24.1786
v  -36.3710 10.8457 -24.2515
v  -35.2312 11.5279 -15.4798
v  -35.0768 11.5279 -15.7147
v  -35.1586 11.5279 -15.7685
v  -35.3130 11.5279 -15.5336
v  -35.2312 10.8457 -15.4798
v  -35.3130 10.8457 -15.5336
v  -35.1586 10.8457 -15.7685
v  -35.0768 10.8457 -15.7147
v  -45.4165 11.5279 -14.3754
v  -45.2073 11.5279 -14.1878
v  -45.1420 11.5279 -14.2606
v  -45.3511 11.5279 -14.4483
v  -45.4165 10.8457 -14.3754
v  -45.3511 10.8457 -14.4483
v  -45.1420 10.8457 -14.2606
v  -45.2073 10.8457 -14.1878
v  -46.3469 11.5279 -22.9562
v  -46.5012 11.5279 -22.7214
v  -46.4194 11.5279 -22.6676
v  -46.2651 11.5279 -22.9025
v  -46.3469 10.8457 -22.9562
v  -46.2651 10.8457 -22.9025
v  -46.4194 10.8457 -22.6676
v  -46.5012 10.8457 -22.7214
v  -47.2166 11.5279 -40.8526
v  -47.2528 11.5279 -41.1313
v  -47.3498 11.5279 -41.1187
v  -47.3137 11.5279 -40.8400
v  -47.2166 10.8457 -40.8526
v  -47.3137 10.8457 -40.8400
v  -47.3498 10.8457 -41.1187
v  -47.2528 10.8457 -41.1313
v  -75.1133 11.5279 -18.6680
v  -75.0771 11.5279 -18.3893
v  -74.9800 11.5279 -18.4019
v  -75.0162 11.5279 -18.6806
v  -75.1133 10.8457 -18.6680
v  -75.0162 10.8457 -18.6806
v  -74.9800 10.8457 -18.4019
v  -75.0771 10.8457 -18.3893
v  -74.1550 11.5279 -11.2853
v  -74.1188 11.5279 -11.0066
v  -74.0217 11.5279 -11.0192
v  -74.0579 11.5279 -11.2979
v  -74.1550 10.8457 -11.2853
v  -74.0579 10.8457 -11.2979
v  -74.0217 10.8457 -11.0192
v  -74.1188 10.8457 -11.0066
v  -73.9746 11.5279 35.6909
v  -74.0108 11.5279 35.4122
v  -74.1079 11.5279 35.4248
v  -74.0717 11.5279 35.7035
v  -73.9746 10.8457 35.6909
v  -74.0717 10.8457 35.7035
v  -74.1079 10.8457 35.4248
v  -74.0108 10.8457 35.4122
v  -34.1547 11.5279 46.7459
v  -34.4334 11.5279 46.7820
v  -34.4208 11.5279 46.8791
v  -34.1421 11.5279 46.8429
v  -34.1547 10.8457 46.7459
v  -34.1421 10.8457 46.8429
v  -34.4208 10.8457 46.8791
v  -34.4334 10.8457 46.7820
v  -31.7989 11.5279 54.1111
v  -32.0776 11.5279 54.1473
v  -32.0650 11.5279 54.2443
v  -31.7863 11.5279 54.2081
v  -31.7989 10.8457 54.1111
v  -31.7863 10.8457 54.2081
v  -32.0650 10.8457 54.2443
v  -32.0776 10.8457 54.1473
v  -28.6932 11.5279 32.0749
v  -28.7293 11.5279 31.7962
v  -28.8264 11.5279 31.8088
v  -28.7902 11.5279 32.0875
v  -28.6932 10.8457 32.0749
v  -28.7902 10.8457 32.0875
v  -28.8264 10.8457 31.8088
v  -28.7293 10.8457 31.7962
v  -38.9136 11.5279 28.1545
v  -39.1154 11.5279 28.3501
v  -39.0473 11.5279 28.4203
v  -38.8455 11.5279 28.2248
v  -38.9136 10.8457 28.1545
v  -38.8455 10.8457 28.2248
v  -39.0473 10.8457 28.4203
v  -39.1154 10.8457 28.3501
v  -37.1472 11.5279 37.9029
v  -36.8865 11.5279 38.0077
v  -36.8500 11.5279 37.9169
v  -37.1107 11.5279 37.8121
v  -37.1472 10.8457 37.9029
v  -37.1107 10.8457 37.8121
v  -36.8500 10.8457 37.9169
v  -36.8865 10.8457 38.0077
v  -32.7047 11.5279 24.3812
v  -32.7409 11.5279 24.1025
v  -32.8379 11.5279 24.1151
v  -32.8018 11.5279 24.3938
v  -32.7047 10.8457 24.3812
v  -32.8018 10.8457 24.3938
v  -32.8379 10.8457 24.1151
v  -32.7409 10.8457 24.1025
v  -34.2950 11.5279 15.7127
v  -34.3312 11.5279 15.4340
v  -34.4283 11.5279 15.4466
v  -34.3921 11.5279 15.7253
v  -34.2950 10.8457 15.7127
v  -34.3921 10.8457 15.7253
v  -34.4283 10.8457 15.4466
v  -34.3312 10.8457 15.4340
v  -36.0815 11.5279 1.9497
v  -36.1177 11.5279 1.6710
v  -36.2148 11.5279 1.6836
v  -36.1786 11.5279 1.9623
v  -36.0815 10.8457 1.9497
v  -36.1786 10.8457 1.9623
v  -36.2148 10.8457 1.6836
v  -36.1177 10.8457 1.6710
v  -44.4360 11.5279 -9.9510
v  -44.4722 11.5279 -10.2297
v  -44.5693 11.5279 -10.2171
v  -44.5331 11.5279 -9.9384
v  -44.4360 10.8457 -9.9510
v  -44.5331 10.8457 -9.9384
v  -44.5693 10.8457 -10.2171
v  -44.4722 10.8457 -10.2297
v  -42.5522 11.5279 -3.0047
v  -42.5884 11.5279 -3.2833
v  -42.6854 11.5279 -3.2707
v  -42.6493 11.5279 -2.9921
v  -42.5522 10.8457 -3.0047
v  -42.6493 10.8457 -2.9921
v  -42.6854 10.8457 -3.2707
v  -42.5884 10.8457 -3.2833
v  -38.7131 11.5279 8.7895
v  -38.7493 11.5279 8.5108
v  -38.8464 11.5279 8.5234
v  -38.8102 11.5279 8.8021
v  -38.7131 10.8457 8.7895
v  -38.8102 10.8457 8.8021
v  -38.8464 10.8457 8.5234
v  -38.7493 10.8457 8.5108
v  9.3930 11.5279 4.8991
v  9.3569 11.5279 4.6205
v  9.2598 11.5279 4.6330
v  9.2960 11.5279 4.9117
v  9.3930 10.8457 4.8991
v  9.2960 10.8457 4.9117
v  9.2598 10.8457 4.6330
v  9.3569 10.8457 4.6205
v  11.5183 11.5279 15.9137
v  11.5545 11.5279 16.1924
v  11.6516 11.5279 16.1798
v  11.6154 11.5279 15.9011
v  11.5183 10.8457 15.9137
v  11.6154 10.8457 15.9011
v  11.6516 10.8457 16.1798
v  11.5545 10.8457 16.1924
v  23.9496 11.5279 19.9244
v  24.0821 11.5279 19.6766
v  23.9958 11.5279 19.6304
v  23.8633 11.5279 19.8782
v  23.9496 10.8457 19.9244
v  23.8633 10.8457 19.8782
v  23.9958 10.8457 19.6304
v  24.0821 10.8457 19.6766
v  18.3148 11.5279 9.3676
v  18.5611 11.5279 9.2324
v  18.5141 11.5279 9.1466
v  18.2677 11.5279 9.2818
v  18.3148 10.8457 9.3676
v  18.2677 10.8457 9.2818
v  18.5141 10.8457 9.1466
v  18.5611 10.8457 9.2324
v  15.6499 11.5279 -11.2508
v  15.9040 11.5279 -11.3708
v  15.8622 11.5279 -11.4593
v  15.6081 11.5279 -11.3393
v  15.6499 10.8457 -11.2508
v  15.6081 10.8457 -11.3393
v  15.8622 10.8457 -11.4593
v  15.9040 10.8457 -11.3708
v  7.6498 11.5279 -5.5159
v  7.6136 11.5279 -5.7946
v  7.5165 11.5279 -5.7820
v  7.5527 11.5279 -5.5033
v  7.6498 10.8457 -5.5159
v  7.5527 10.8457 -5.5033
v  7.5165 10.8457 -5.7820
v  7.6136 10.8457 -5.7946
v  23.8996 11.5279 43.4810
v  24.1783 11.5279 43.4448
v  24.1656 11.5279 43.3477
v  23.8870 11.5279 43.3839
v  23.8996 10.8457 43.4810
v  23.8870 10.8457 43.3839
v  24.1656 10.8457 43.3477
v  24.1783 10.8457 43.4448
v  16.4832 11.5279 42.9441
v  16.7619 11.5279 42.9079
v  16.7493 11.5279 42.8108
v  16.4706 11.5279 42.8470
v  16.4832 10.8457 42.9441
v  16.4706 10.8457 42.8470
v  16.7493 10.8457 42.8108
v  16.7619 10.8457 42.9079
v  15.7651 11.5279 35.0088
v  15.4864 11.5279 35.0449
v  15.4990 11.5279 35.1420
v  15.7777 11.5279 35.1058
v  15.7651 10.8457 35.0088
v  15.7777 10.8457 35.1058
v  15.4990 10.8457 35.1420
v  15.4864 10.8457 35.0449
v  10.4415 11.5279 29.6644
v  10.5742 11.5279 29.9121
v  10.6605 11.5279 29.8659
v  10.5278 11.5279 29.6182
v  10.4415 10.8457 29.6644
v  10.5278 10.8457 29.6182
v  10.6605 10.8457 29.8659
v  10.5742 10.8457 29.9121
v  15.6429 11.5279 18.6029
v  15.3642 11.5279 18.6391
v  15.3768 11.5279 18.7362
v  15.6555 11.5279 18.7000
v  15.6429 10.8457 18.6029
v  15.6555 10.8457 18.7000
v  15.3768 10.8457 18.7362
v  15.3642 10.8457 18.6391
v  22.4851 11.5279 32.9351
v  22.7638 11.5279 32.8989
v  22.7512 11.5279 32.8018
v  22.4725 11.5279 32.8380
v  22.4851 10.8457 32.9351
v  22.4725 10.8457 32.8380
v  22.7512 10.8457 32.8018
v  22.7638 10.8457 32.8989
v  52.2956 11.5279 18.4379
v  52.2595 11.5279 18.1592
v  52.1624 11.5279 18.1718
v  52.1986 11.5279 18.4505
v  52.2956 10.8457 18.4379
v  52.1986 10.8457 18.4505
v  52.1624 10.8457 18.1718
v  52.2595 10.8457 18.1592
v  52.8031 11.5279 24.0677
v  52.7669 11.5279 23.7890
v  52.6698 11.5279 23.8016
v  52.7060 11.5279 24.0803
v  52.8031 10.8457 24.0677
v  52.7060 10.8457 24.0803
v  52.6698 10.8457 23.8016
v  52.7669 10.8457 23.7890
# 376 vertices

vn 0.0000 1.0000 -0.0000
vn 0.0000 -1.0000 -0.0000
vn 0.9917 0.0000 -0.1287
vn -0.1287 0.0000 -0.9917
vn -0.9917 0.0000 0.1287
vn 0.1287 0.0000 0.9917
vn -0.9420 0.0000 -0.3355
vn -0.3356 0.0000 0.9420
vn 0.9420 0.0000 0.3355
vn 0.3355 0.0000 -0.9420
vn 0.7869 0.0000 0.6171
vn 0.6170 0.0000 -0.7869
vn -0.7869 0.0000 -0.6171
vn -0.6170 0.0000 0.7869
vn 0.7051 0.0000 0.7091
vn 0.7091 0.0000 -0.7051
vn -0.7051 0.0000 -0.7091
vn -0.7091 0.0000 0.7051
vn -0.8982 0.0000 0.4397
vn 0.4397 0.0000 0.8981
vn 0.8982 0.0000 -0.4397
vn -0.4397 0.0000 -0.8981
vn -0.6102 0.0000 0.7922
vn 0.7922 0.0000 0.6102
vn 0.6102 0.0000 -0.7923
vn -0.7922 0.0000 -0.6102
vn -0.3047 0.0000 0.9524
vn 0.9524 0.0000 0.3047
vn 0.3047 0.0000 -0.9524
vn -0.9524 0.0000 -0.3047
vn -0.9934 0.0000 -0.1150
vn -0.1150 0.0000 0.9934
vn 0.9934 0.0000 0.1150
vn 0.1150 0.0000 -0.9934
vn 0.6678 0.0000 -0.7443
vn -0.7443 0.0000 -0.6678
vn -0.6678 0.0000 0.7443
vn 0.7443 0.0000 0.6678
vn 0.8357 0.0000 0.5492
vn 0.5492 0.0000 -0.8357
vn -0.8357 0.0000 -0.5492
vn -0.5492 0.0000 0.8357
vn -0.6960 0.0000 -0.7181
vn -0.7181 0.0000 0.6960
vn 0.6960 0.0000 0.7181
vn 0.7181 0.0000 -0.6960
vn -0.3731 0.0000 0.9278
vn 0.9278 0.0000 0.3731
vn 0.3731 0.0000 -0.9278
vn -0.9278 0.0000 -0.3731
vn 0.8817 0.0000 0.4717
vn 0.4717 0.0000 -0.8817
vn -0.8817 0.0000 -0.4717
vn -0.4718 0.0000 0.8817
vn 0.4811 0.0000 0.8767
vn 0.8767 0.0000 -0.4811
vn -0.4811 0.0000 -0.8767
vn -0.8767 0.0000 0.4811
vn 0.4270 0.0000 0.9043
vn 0.9043 0.0000 -0.4270
vn -0.4270 0.0000 -0.9043
vn -0.9043 0.0000 0.4270
vn -0.8816 0.0000 0.4721
vn 0.4720 0.0000 0.8816
vn 0.8816 0.0000 -0.4721
vn -0.4720 0.0000 -0.8816
# 66 vertex normals

vt 0.6189 0.4133 0.0000
vt 0.6189 0.7948 0.0000
vt 0.4765 0.7948 0.0000
vt 0.4765 0.4133 0.0000
vt 0.4765 -0.0003 0.0000
vt 0.6189 -0.0003 0.0000
vt 0.6189 0.3812 0.0000
vt 0.4765 0.3812 0.0000
vt 0.1560 0.8920 0.0000
vt 0.1560 0.8070 0.0000
vt 0.2512 0.8070 0.0000
vt 0.2512 0.8920 0.0000
vt 0.6599 0.9919 0.0000
vt 0.6599 -0.0003 0.0000
vt 0.8022 -0.0003 0.0000
vt 0.8022 0.9919 0.0000
vt 0.0150 0.9919 0.0000
vt 0.0150 -0.0003 0.0000
vt 0.4233 -0.0003 0.0000
vt 0.4233 0.9919 0.0000
vt 0.4747 0.9919 0.0000
vt 0.4747 -0.0003 0.0000
vt 0.6170 -0.0003 0.0000
vt 0.6170 0.9919 0.0000
# 24 texture coords

g M_xiaofangshuan_MEP_G_B1_xfs
usemtl G_B1_xfs
s off
f 1/1/1 2/2/1 3/3/1 4/4/1 
f 5/5/2 6/6/2 7/7/2 8/8/2 
f 1/9/3 5/10/3 8/11/3 2/12/3 
f 2/13/4 8/14/4 7/15/4 3/16/4 
f 3/17/5 7/18/5 6/19/5 4/20/5 
f 4/21/6 6/22/6 5/23/6 1/24/6 
f 9/1/1 10/2/1 11/3/1 12/4/1 
f 13/5/2 14/6/2 15/7/2 16/8/2 
f 9/9/7 13/10/7 16/11/7 10/12/7 
f 10/13/8 16/14/8 15/15/8 11/16/8 
f 11/17/9 15/18/9 14/19/9 12/20/9 
f 12/21/10 14/22/10 13/23/10 9/24/10 
f 17/1/1 18/2/1 19/3/1 20/4/1 
f 21/5/2 22/6/2 23/7/2 24/8/2 
f 17/9/11 21/10/11 24/11/11 18/12/11 
f 18/13/12 24/14/12 23/15/12 19/16/12 
f 19/17/13 23/18/13 22/19/13 20/20/13 
f 20/21/14 22/22/14 21/23/14 17/24/14 
f 25/1/1 26/2/1 27/3/1 28/4/1 
f 29/5/2 30/6/2 31/7/2 32/8/2 
f 25/9/13 29/10/13 32/11/13 26/12/13 
f 26/13/14 32/14/14 31/15/14 27/16/14 
f 27/17/11 31/18/11 30/19/11 28/20/11 
f 28/21/12 30/22/12 29/23/12 25/24/12 
f 33/1/1 34/2/1 35/3/1 36/4/1 
f 37/5/2 38/6/2 39/7/2 40/8/2 
f 33/9/15 37/10/15 40/11/15 34/12/15 
f 34/13/16 40/14/16 39/15/16 35/16/16 
f 35/17/17 39/18/17 38/19/17 36/20/17 
f 36/21/18 38/22/18 37/23/18 33/24/18 
f 41/1/1 42/2/1 43/3/1 44/4/1 
f 45/5/2 46/6/2 47/7/2 48/8/2 
f 41/9/6 45/10/6 48/11/6 42/12/6 
f 42/13/3 48/14/3 47/15/3 43/16/3 
f 43/17/4 47/18/4 46/19/4 44/20/4 
f 44/21/5 46/22/5 45/23/5 41/24/5 
f 49/1/1 50/2/1 51/3/1 52/4/1 
f 53/5/2 54/6/2 55/7/2 56/8/2 
f 49/9/19 53/10/19 56/11/19 50/12/19 
f 50/13/20 56/14/20 55/15/20 51/16/20 
f 51/17/21 55/18/21 54/19/21 52/20/21 
f 52/21/22 54/22/22 53/23/22 49/24/22 
f 57/1/1 58/2/1 59/3/1 60/4/1 
f 61/5/2 62/6/2 63/7/2 64/8/2 
f 57/9/6 61/10/6 64/11/6 58/12/6 
f 58/13/3 64/14/3 63/15/3 59/16/3 
f 59/17/4 63/18/4 62/19/4 60/20/4 
f 60/21/5 62/22/5 61/23/5 57/24/5 
f 65/1/1 66/2/1 67/3/1 68/4/1 
f 69/5/2 70/6/2 71/7/2 72/8/2 
f 65/9/23 69/10/23 72/11/23 66/12/23 
f 66/13/24 72/14/24 71/15/24 67/16/24 
f 67/17/25 71/18/25 70/19/25 68/20/25 
f 68/21/26 70/22/26 69/23/26 65/24/26 
f 73/1/1 74/2/1 75/3/1 76/4/1 
f 77/5/2 78/6/2 79/7/2 80/8/2 
f 73/9/27 77/10/27 80/11/27 74/12/27 
f 74/13/28 80/14/28 79/15/28 75/16/28 
f 75/17/29 79/18/29 78/19/29 76/20/29 
f 76/21/30 78/22/30 77/23/30 73/24/30 
f 81/1/1 82/2/1 83/3/1 84/4/1 
f 85/5/2 86/6/2 87/7/2 88/8/2 
f 81/9/31 85/10/31 88/11/31 82/12/31 
f 82/13/32 88/14/32 87/15/32 83/16/32 
f 83/17/33 87/18/33 86/19/33 84/20/33 
f 84/21/34 86/22/34 85/23/34 81/24/34 
f 89/1/1 90/2/1 91/3/1 92/4/1 
f 93/5/2 94/6/2 95/7/2 96/8/2 
f 89/9/5 93/10/5 96/11/5 90/12/5 
f 90/13/6 96/14/6 95/15/6 91/16/6 
f 91/17/3 95/18/3 94/19/3 92/20/3 
f 92/21/4 94/22/4 93/23/4 89/24/4 
f 97/1/1 98/2/1 99/3/1 100/4/1 
f 101/5/2 102/6/2 103/7/2 104/8/2 
f 97/9/3 101/10/3 104/11/3 98/12/3 
f 98/13/4 104/14/4 103/15/4 99/16/4 
f 99/17/5 103/18/5 102/19/5 100/20/5 
f 100/21/6 102/22/6 101/23/6 97/24/6 
f 105/1/1 106/2/1 107/3/1 108/4/1 
f 109/5/2 110/6/2 111/7/2 112/8/2 
f 105/9/3 109/10/3 112/11/3 106/12/3 
f 106/13/4 112/14/4 111/15/4 107/16/4 
f 107/17/5 111/18/5 110/19/5 108/20/5 
f 108/21/6 110/22/6 109/23/6 105/24/6 
f 113/1/1 114/2/1 115/3/1 116/4/1 
f 117/5/2 118/6/2 119/7/2 120/8/2 
f 113/9/35 117/10/35 120/11/35 114/12/35 
f 114/13/36 120/14/36 119/15/36 115/16/36 
f 115/17/37 119/18/37 118/19/37 116/20/37 
f 116/21/38 118/22/38 117/23/38 113/24/38 
f 121/1/1 122/2/1 123/3/1 124/4/1 
f 125/5/2 126/6/2 127/7/2 128/8/2 
f 121/9/39 125/10/39 128/11/39 122/12/39 
f 122/13/40 128/14/40 127/15/40 123/16/40 
f 123/17/41 127/18/41 126/19/41 124/20/41 
f 124/21/42 126/22/42 125/23/42 121/24/42 
f 129/1/1 130/2/1 131/3/1 132/4/1 
f 133/5/2 134/6/2 135/7/2 136/8/2 
f 129/9/37 133/10/37 136/11/37 130/12/37 
f 130/13/38 136/14/38 135/15/38 131/16/38 
f 131/17/35 135/18/35 134/19/35 132/20/35 
f 132/21/36 134/22/36 133/23/36 129/24/36 
f 137/1/1 138/2/1 139/3/1 140/4/1 
f 141/5/2 142/6/2 143/7/2 144/8/2 
f 137/9/41 141/10/41 144/11/41 138/12/41 
f 138/13/42 144/14/42 143/15/42 139/16/42 
f 139/17/39 143/18/39 142/19/39 140/20/39 
f 140/21/40 142/22/40 141/23/40 137/24/40 
f 145/1/1 146/2/1 147/3/1 148/4/1 
f 149/5/2 150/6/2 151/7/2 152/8/2 
f 145/9/3 149/10/3 152/11/3 146/12/3 
f 146/13/4 152/14/4 151/15/4 147/16/4 
f 147/17/5 151/18/5 150/19/5 148/20/5 
f 148/21/6 150/22/6 149/23/6 145/24/6 
f 153/1/1 154/2/1 155/3/1 156/4/1 
f 157/5/2 158/6/2 159/7/2 160/8/2 
f 153/9/5 157/10/5 160/11/5 154/12/5 
f 154/13/6 160/14/6 159/15/6 155/16/6 
f 155/17/3 159/18/3 158/19/3 156/20/3 
f 156/21/4 158/22/4 157/23/4 153/24/4 
f 161/1/1 162/2/1 163/3/1 164/4/1 
f 165/5/2 166/6/2 167/7/2 168/8/2 
f 161/9/5 165/10/5 168/11/5 162/12/5 
f 162/13/6 168/14/6 167/15/6 163/16/6 
f 163/17/3 167/18/3 166/19/3 164/20/3 
f 164/21/4 166/22/4 165/23/4 161/24/4 
f 169/1/1 170/2/1 171/3/1 172/4/1 
f 173/5/2 174/6/2 175/7/2 176/8/2 
f 169/9/3 173/10/3 176/11/3 170/12/3 
f 170/13/4 176/14/4 175/15/4 171/16/4 
f 171/17/5 175/18/5 174/19/5 172/20/5 
f 172/21/6 174/22/6 173/23/6 169/24/6 
f 177/1/1 178/2/1 179/3/1 180/4/1 
f 181/5/2 182/6/2 183/7/2 184/8/2 
f 177/9/4 181/10/4 184/11/4 178/12/4 
f 178/13/5 184/14/5 183/15/5 179/16/5 
f 179/17/6 183/18/6 182/19/6 180/20/6 
f 180/21/3 182/22/3 181/23/3 177/24/3 
f 185/1/1 186/2/1 187/3/1 188/4/1 
f 189/5/2 190/6/2 191/7/2 192/8/2 
f 185/9/4 189/10/4 192/11/4 186/12/4 
f 186/13/5 192/14/5 191/15/5 187/16/5 
f 187/17/6 191/18/6 190/19/6 188/20/6 
f 188/21/3 190/22/3 189/23/3 185/24/3 
f 193/1/1 194/2/1 195/3/1 196/4/1 
f 197/5/2 198/6/2 199/7/2 200/8/2 
f 193/9/3 197/10/3 200/11/3 194/12/3 
f 194/13/4 200/14/4 199/15/4 195/16/4 
f 195/17/5 199/18/5 198/19/5 196/20/5 
f 196/21/6 198/22/6 197/23/6 193/24/6 
f 201/1/1 202/2/1 203/3/1 204/4/1 
f 205/5/2 206/6/2 207/7/2 208/8/2 
f 201/9/43 205/10/43 208/11/43 202/12/43 
f 202/13/44 208/14/44 207/15/44 203/16/44 
f 203/17/45 207/18/45 206/19/45 204/20/45 
f 204/21/46 206/22/46 205/23/46 201/24/46 
f 209/1/1 210/2/1 211/3/1 212/4/1 
f 213/5/2 214/6/2 215/7/2 216/8/2 
f 209/9/47 213/10/47 216/11/47 210/12/47 
f 210/13/48 216/14/48 215/15/48 211/16/48 
f 211/17/49 215/18/49 214/19/49 212/20/49 
f 212/21/50 214/22/50 213/23/50 209/24/50 
f 217/1/1 218/2/1 219/3/1 220/4/1 
f 221/5/2 222/6/2 223/7/2 224/8/2 
f 217/9/3 221/10/3 224/11/3 218/12/3 
f 218/13/4 224/14/4 223/15/4 219/16/4 
f 219/17/5 223/18/5 222/19/5 220/20/5 
f 220/21/6 222/22/6 221/23/6 217/24/6 
f 225/1/1 226/2/1 227/3/1 228/4/1 
f 229/5/2 230/6/2 231/7/2 232/8/2 
f 225/9/3 229/10/3 232/11/3 226/12/3 
f 226/13/4 232/14/4 231/15/4 227/16/4 
f 227/17/5 231/18/5 230/19/5 228/20/5 
f 228/21/6 230/22/6 229/23/6 225/24/6 
f 233/1/1 234/2/1 235/3/1 236/4/1 
f 237/5/2 238/6/2 239/7/2 240/8/2 
f 233/9/3 237/10/3 240/11/3 234/12/3 
f 234/13/4 240/14/4 239/15/4 235/16/4 
f 235/17/5 239/18/5 238/19/5 236/20/5 
f 236/21/6 238/22/6 237/23/6 233/24/6 
f 241/1/1 242/2/1 243/3/1 244/4/1 
f 245/5/2 246/6/2 247/7/2 248/8/2 
f 241/9/3 245/10/3 248/11/3 242/12/3 
f 242/13/4 248/14/4 247/15/4 243/16/4 
f 243/17/5 247/18/5 246/19/5 244/20/5 
f 244/21/6 246/22/6 245/23/6 241/24/6 
f 249/1/1 250/2/1 251/3/1 252/4/1 
f 253/5/2 254/6/2 255/7/2 256/8/2 
f 249/9/3 253/10/3 256/11/3 250/12/3 
f 250/13/4 256/14/4 255/15/4 251/16/4 
f 251/17/5 255/18/5 254/19/5 252/20/5 
f 252/21/6 254/22/6 253/23/6 249/24/6 
f 257/1/1 258/2/1 259/3/1 260/4/1 
f 261/5/2 262/6/2 263/7/2 264/8/2 
f 257/9/3 261/10/3 264/11/3 258/12/3 
f 258/13/4 264/14/4 263/15/4 259/16/4 
f 259/17/5 263/18/5 262/19/5 260/20/5 
f 260/21/6 262/22/6 261/23/6 257/24/6 
f 265/1/1 266/2/1 267/3/1 268/4/1 
f 269/5/2 270/6/2 271/7/2 272/8/2 
f 265/9/3 269/10/3 272/11/3 266/12/3 
f 266/13/4 272/14/4 271/15/4 267/16/4 
f 267/17/5 271/18/5 270/19/5 268/20/5 
f 268/21/6 270/22/6 269/23/6 265/24/6 
f 273/1/1 274/2/1 275/3/1 276/4/1 
f 277/5/2 278/6/2 279/7/2 280/8/2 
f 273/9/5 277/10/5 280/11/5 274/12/5 
f 274/13/6 280/14/6 279/15/6 275/16/6 
f 275/17/3 279/18/3 278/19/3 276/20/3 
f 276/21/4 278/22/4 277/23/4 273/24/4 
f 281/1/1 282/2/1 283/3/1 284/4/1 
f 285/5/2 286/6/2 287/7/2 288/8/2 
f 281/9/51 285/10/51 288/11/51 282/12/51 
f 282/13/52 288/14/52 287/15/52 283/16/52 
f 283/17/53 287/18/53 286/19/53 284/20/53 
f 284/21/54 286/22/54 285/23/54 281/24/54 
f 289/1/1 290/2/1 291/3/1 292/4/1 
f 293/5/2 294/6/2 295/7/2 296/8/2 
f 289/9/55 293/10/55 296/11/55 290/12/55 
f 290/13/56 296/14/56 295/15/56 291/16/56 
f 291/17/57 295/18/57 294/19/57 292/20/57 
f 292/21/58 294/22/58 293/23/58 289/24/58 
f 297/1/1 298/2/1 299/3/1 300/4/1 
f 301/5/2 302/6/2 303/7/2 304/8/2 
f 297/9/59 301/10/59 304/11/59 298/12/59 
f 298/13/60 304/14/60 303/15/60 299/16/60 
f 299/17/61 303/18/61 302/19/61 300/20/61 
f 300/21/62 302/22/62 301/23/62 297/24/62 
f 305/1/1 306/2/1 307/3/1 308/4/1 
f 309/5/2 310/6/2 311/7/2 312/8/2 
f 305/9/3 309/10/3 312/11/3 306/12/3 
f 306/13/4 312/14/4 311/15/4 307/16/4 
f 307/17/5 311/18/5 310/19/5 308/20/5 
f 308/21/6 310/22/6 309/23/6 305/24/6 
f 313/1/1 314/2/1 315/3/1 316/4/1 
f 317/5/2 318/6/2 319/7/2 320/8/2 
f 313/9/6 317/10/6 320/11/6 314/12/6 
f 314/13/3 320/14/3 319/15/3 315/16/3 
f 315/17/4 319/18/4 318/19/4 316/20/4 
f 316/21/5 318/22/5 317/23/5 313/24/5 
f 321/1/1 322/2/1 323/3/1 324/4/1 
f 325/5/2 326/6/2 327/7/2 328/8/2 
f 321/9/6 325/10/6 328/11/6 322/12/6 
f 322/13/3 328/14/3 327/15/3 323/16/3 
f 323/17/4 327/18/4 326/19/4 324/20/4 
f 324/21/5 326/22/5 325/23/5 321/24/5 
f 329/1/1 330/2/1 331/3/1 332/4/1 
f 333/5/2 334/6/2 335/7/2 336/8/2 
f 329/9/4 333/10/4 336/11/4 330/12/4 
f 330/13/5 336/14/5 335/15/5 331/16/5 
f 331/17/6 335/18/6 334/19/6 332/20/6 
f 332/21/3 334/22/3 333/23/3 329/24/3 
f 337/1/1 338/2/1 339/3/1 340/4/1 
f 341/5/2 342/6/2 343/7/2 344/8/2 
f 337/9/63 341/10/63 344/11/63 338/12/63 
f 338/13/64 344/14/64 343/15/64 339/16/64 
f 339/17/65 343/18/65 342/19/65 340/20/65 
f 340/21/66 342/22/66 341/23/66 337/24/66 
f 345/1/1 346/2/1 347/3/1 348/4/1 
f 349/5/2 350/6/2 351/7/2 352/8/2 
f 345/9/4 349/10/4 352/11/4 346/12/4 
f 346/13/5 352/14/5 351/15/5 347/16/5 
f 347/17/6 351/18/6 350/19/6 348/20/6 
f 348/21/3 350/22/3 349/23/3 345/24/3 
f 353/1/1 354/2/1 355/3/1 356/4/1 
f 357/5/2 358/6/2 359/7/2 360/8/2 
f 353/9/6 357/10/6 360/11/6 354/12/6 
f 354/13/3 360/14/3 359/15/3 355/16/3 
f 355/17/4 359/18/4 358/19/4 356/20/4 
f 356/21/5 358/22/5 357/23/5 353/24/5 
f 361/1/1 362/2/1 363/3/1 364/4/1 
f 365/5/2 366/6/2 367/7/2 368/8/2 
f 361/9/3 365/10/3 368/11/3 362/12/3 
f 362/13/4 368/14/4 367/15/4 363/16/4 
f 363/17/5 367/18/5 366/19/5 364/20/5 
f 364/21/6 366/22/6 365/23/6 361/24/6 
f 369/1/1 370/2/1 371/3/1 372/4/1 
f 373/5/2 374/6/2 375/7/2 376/8/2 
f 369/9/3 373/10/3 376/11/3 370/12/3 
f 370/13/4 376/14/4 375/15/4 371/16/4 
f 371/17/5 375/18/5 374/19/5 372/20/5 
f 372/21/6 374/22/6 373/23/6 369/24/6 
# 282 polygons

