# 3ds Max Wavefront OBJ Exporter v0.97b - (c)2007 guruware
# File Created: 09.07.2018 12:00:48

mtllib Tt_ercengpingtai_MEP_02.mtl

#
# object Tt_ercengpingtai_MEP_02
#

v  56.2766 9.8595 24.5047
v  55.4100 9.8595 17.8287
v  51.7552 9.8595 18.3031
v  52.6217 9.8595 24.9791
v  57.7990 9.8707 -28.0628
v  56.6283 9.8707 -37.0820
v  44.1204 9.8707 -35.4584
v  45.2911 9.8707 -26.4392
v  -77.7437 9.8700 -20.1407
v  -76.4788 9.8700 -10.3964
v  -72.6285 9.8700 -10.8961
v  -73.8934 9.8700 -20.6405
v  -70.8077 9.8626 40.9336
v  -71.5700 9.8626 35.0611
v  -74.5949 9.8626 35.4537
v  -73.8326 9.8626 41.3262
# 16 vertices

vn 0.0000 1.0000 -0.0000
# 1 vertex normals

vt 0.5000 0.1852 0.5000
vt 0.5000 0.6704 0.5000
vt 0.3672 0.6704 0.5000
vt 0.3672 0.1852 0.5000
vt 0.9828 0.2474 0.5000
vt 0.9828 0.9028 0.5000
vt 0.5283 0.9028 0.5000
vt 0.5283 0.2474 0.5000
vt 0.0268 0.8965 0.5000
vt 0.0268 0.1884 0.5000
vt 0.1667 0.1884 0.5000
vt 0.1667 0.8965 0.5000
vt 0.3333 0.4808 0.5000
vt 0.3333 0.9075 0.5000
vt 0.2234 0.9075 0.5000
vt 0.2234 0.4808 0.5000
# 16 texture coords

g Tt_ercengpingtai_MEP_02
usemtl Tt_ercengpingtai_MEP_02
s 1
f 1/1/1 2/2/1 3/3/1 4/4/1 
f 5/5/1 6/6/1 7/7/1 8/8/1 
f 9/9/1 10/10/1 11/11/1 12/12/1 
f 13/13/1 14/14/1 15/15/1 16/16/1 
# 4 polygons

