# 3ds Max Wavefront OBJ Exporter v0.97b - (c)2007 guruware
# File Created: 30.01.2018 04:29:18

mtllib yoozoo_T_yz_001_02.mtl

#
# object yoozoo_T_yz_001_02
#

v  -48.4258 13.2058 67.1922
v  -48.1185 13.2058 69.1612
v  -48.1186 6.2790 69.1602
v  -48.4215 6.2790 67.1909
v  -47.7029 13.2058 73.8817
v  -47.7031 6.2790 73.8773
v  -47.9271 13.2058 76.2708
v  -47.9271 6.2790 76.2708
v  -48.9294 13.2058 77.6247
v  -48.9294 6.2790 77.6247
v  -51.1311 13.2058 78.5323
v  -51.1311 6.2790 78.5323
v  -57.8993 6.2790 79.8202
v  -57.8997 13.2058 79.8202
v  -60.7752 13.2058 79.6941
v  -60.7749 6.2790 79.6941
v  -63.1212 13.2058 78.8279
v  -63.1238 6.2790 78.8264
v  -53.5550 6.2790 79.0404
v  -53.5533 13.2058 79.0402
v  -55.9755 13.2058 79.5480
v  -55.9789 6.2790 79.5485
v  -65.0921 13.2058 77.3654
v  -65.0921 6.2790 77.3654
v  -54.3434 9.5290 59.3018
v  -48.5157 9.5290 62.1267
v  -48.5157 6.2790 62.1267
v  -54.3434 6.2790 59.3018
v  -66.5874 13.2058 75.3925
v  -66.5874 6.2790 75.3925
v  -67.9491 13.2058 63.1990
v  -66.8237 13.2058 61.9228
v  -66.8217 6.2790 61.9216
v  -67.9491 6.2790 63.1990
v  -64.8769 13.2058 61.1986
v  -60.2166 13.2058 60.2113
v  -60.2166 6.2790 60.2113
v  -64.8769 6.2790 61.1986
v  -68.3249 6.2790 64.8433
v  -68.3249 13.2058 64.8433
v  -54.3434 12.7790 59.3018
v  -48.5157 12.7790 62.1267
v  -48.6910 6.2790 65.2914
v  -48.7038 9.7424 65.2990
v  -48.7101 11.4741 65.3027
v  -48.7165 13.2058 65.3065
v  -56.3645 6.2790 59.7249
v  -59.9787 13.2058 60.1812
v  -56.3645 13.2058 59.7249
v  -67.5479 6.2790 72.6808
v  -67.5479 13.2058 72.6806
v  -54.3434 13.2058 59.3017
v  -48.5167 6.3098 62.1469
v  -48.5168 6.3532 62.1467
v  -48.6097 9.7165 63.7128
v  -48.5155 11.5357 62.1252
v  -48.5070 12.3785 62.1221
v  -48.5394 11.7330 62.5036
v  -48.5156 11.5348 62.1265
v  -48.5156 9.9603 62.1265
v  -48.5159 9.9614 62.1317
v  -48.5162 8.7083 62.1369
v  -48.5156 8.7017 62.1265
v  -48.6129 10.8513 63.7146
v  -48.6161 12.3703 63.7165
v  -48.5156 6.3100 62.1265
v  -48.5156 11.2189 62.1265
v  -48.5642 11.0352 62.9205
v  -48.5634 10.1221 62.9201
v  -48.5156 11.2180 62.1265
v  -48.5626 9.2090 62.9195
v  -48.5001 13.0525 62.1196
v  -48.5016 12.9049 62.1202
# 73 vertices

vn 0.9884 0.0018 -0.1521
vn 0.9926 -0.0000 -0.1210
vn 0.9928 0.0003 -0.1201
vn 0.9892 0.0006 -0.1462
vn 1.0000 -0.0000 0.0029
vn 1.0000 0.0000 0.0027
vn 0.9340 -0.0000 0.3573
vn 0.9340 0.0000 0.3572
vn 0.6149 0.0000 0.7886
vn 0.2944 0.0000 0.9557
vn 0.2944 -0.0000 0.9557
vn 0.0483 0.0000 0.9988
vn 0.0483 -0.0000 0.9988
vn -0.1975 -0.0000 0.9803
vn -0.4759 0.0000 0.8795
vn -0.4761 -0.0000 0.8794
vn 0.2052 -0.0000 0.9787
vn 0.1727 -0.0000 0.9850
vn -0.7035 0.0000 0.7107
vn -0.7036 0.0000 0.7106
vn 0.4362 0.0000 -0.8999
vn -0.8802 0.0000 0.4746
vn -0.8899 -0.0000 -0.4562
vn -0.5664 -0.0000 -0.8241
vn -0.5661 0.0000 -0.8243
vn -0.8898 -0.0000 -0.4563
vn -0.2787 0.0000 -0.9604
vn -0.2073 0.0000 -0.9783
vn -0.1669 0.0000 -0.9860
vn -0.2786 0.0000 -0.9604
vn -0.9980 -0.0000 -0.0629
vn -0.9980 0.0000 -0.0629
vn 0.9898 0.0012 -0.1425
vn 0.9883 0.0040 -0.1524
vn 0.9883 0.0020 -0.1524
vn 0.9883 0.0000 -0.1524
vn -0.1652 0.0000 -0.9863
vn -0.1253 0.0000 -0.9921
vn -0.1652 -0.0000 -0.9863
vn -0.9760 -0.0000 0.2179
vn -0.9760 0.0000 0.2178
vn -0.2049 -0.0000 -0.9788
vn 0.9985 0.0018 0.0553
vn 0.9990 0.0005 -0.0454
vn 0.9990 0.0005 -0.0455
vn 0.9984 0.0023 0.0564
vn 0.9983 0.0022 0.0586
vn 0.9982 0.0034 0.0593
vn 0.9972 -0.0176 0.0723
vn 0.9976 -0.0099 0.0682
vn 0.9979 -0.0041 0.0652
vn 0.9975 -0.0125 0.0691
vn 0.9982 0.0000 0.0601
vn 0.9982 0.0001 0.0600
vn 0.9982 0.0000 0.0592
vn 0.9982 0.0000 0.0591
vn 0.9982 0.0023 0.0604
vn 0.9982 0.0031 0.0604
vn 0.9979 -0.0037 0.0647
vn 0.9980 -0.0003 0.0632
vn 0.9984 0.0013 0.0564
vn 0.9981 0.0001 0.0609
vn 0.9981 0.0012 0.0616
vn 0.9982 0.0011 0.0600
vn 0.9982 0.0002 0.0592
# 65 vertex normals

vt 0.6791 0.3024 0.3594
vt 0.6505 0.3023 0.3617
vt 0.6505 0.2103 0.3617
vt 0.6792 0.2103 0.3602
vt 0.5825 0.3023 0.3114
vt 0.5826 0.2103 0.3114
vt 0.5491 0.3021 0.2101
vt 0.5491 0.2103 0.2101
vt 0.5319 0.3020 0.0000
vt 0.5319 0.2103 0.0000
vt 0.5320 0.3020 0.2461
vt 0.5105 0.3021 0.0826
vt 0.5105 0.2103 0.0826
vt 0.5320 0.2103 0.2461
vt 0.4401 0.2103 0.0042
vt 0.4401 0.3019 0.0042
vt 0.4111 0.3018 0.1609
vt 0.4112 0.2103 0.1609
vt 0.3887 0.3018 0.5042
vt 0.3887 0.2103 0.5048
vt 0.4852 0.2103 0.0413
vt 0.4853 0.3021 0.0413
vt 0.4600 0.3020 0.0000
vt 0.4599 0.2103 0.0000
vt 0.3710 0.3019 1.0000
vt 0.3710 0.2103 1.0000
vt 0.1218 0.2512 1.0000
vt 0.0664 0.2512 0.0000
vt 0.0664 0.2095 0.0000
vt 0.1218 0.2095 1.0000
vt 0.3706 0.3018 0.0000
vt 0.3461 0.3018 0.0000
vt 0.3461 0.2102 0.0000
vt 0.3706 0.2102 0.0000
vt 0.2297 0.3021 0.0000
vt 0.2123 0.3022 0.0000
vt 0.2123 0.2102 0.0000
vt 0.2297 0.2102 0.0000
vt 0.1910 0.3022 0.0000
vt 0.1424 0.3019 0.0000
vt 0.1424 0.2099 0.0000
vt 0.1910 0.2102 0.0000
vt 0.2470 0.2102 0.0000
vt 0.2470 0.3021 0.0000
vt 0.1218 0.2807 1.0000
vt 0.0664 0.2807 0.0000
vt 0.7067 0.2103 0.3626
vt 0.7066 0.2567 0.3602
vt 0.7066 0.2798 0.3589
vt 0.7066 0.3030 0.3577
vt 0.1027 0.2095 0.0000
vt 0.1400 0.3019 0.0000
vt 0.1027 0.2992 0.0000
vt 0.3175 0.2102 0.0000
vt 0.3175 0.3019 0.0000
vt 0.0816 0.2102 0.0000
vt 0.0823 0.2973 0.0000
vt 0.7516 0.2103 0.4748
vt 0.7516 0.2108 0.4748
vt 0.7288 0.2536 0.4172
vt 0.7520 0.2685 0.4777
vt 0.7517 0.2851 0.4781
vt 0.7452 0.2748 0.4634
vt 0.7520 0.2685 0.4776
vt 0.7520 0.2565 0.4771
vt 0.7519 0.2565 0.4769
vt 0.7518 0.2408 0.4762
vt 0.7519 0.2407 0.4766
vt 0.7293 0.2669 0.4180
vt 0.7293 0.2858 0.4177
vt 0.7519 0.2103 0.4755
vt 0.7526 0.2648 0.4775
vt 0.7406 0.2661 0.4478
vt 0.7407 0.2564 0.4473
vt 0.7404 0.2473 0.4469
vt 0.7527 0.2963 0.4784
vt 0.7526 0.2936 0.4783
# 77 texture coords

g yoozoo_T_yz_001_02
usemtl T_yz_001
s 1
f 1/1/1 2/2/2 3/3/3 4/4/4 
f 3/3/3 2/2/2 5/5/5 6/6/6 
f 6/6/6 5/5/5 7/7/7 8/8/8 
f 8/8/8 7/7/7 9/9/9 10/10/9 
f 9/11/9 11/12/10 12/13/11 10/14/9 
f 13/15/12 14/16/13 15/17/14 16/18/14 
f 16/18/14 15/17/14 17/19/15 18/20/16 
f 19/21/17 20/22/17 21/23/18 22/24/18 
f 22/24/18 21/23/18 14/16/13 13/15/12 
f 18/20/16 17/19/15 23/25/19 24/26/20 
f 12/13/11 11/12/10 20/22/17 19/21/17 
f 25/27/21 26/28/21 27/29/21 28/30/21 
f 23/31/19 29/32/22 30/33/22 24/34/20 
f 31/35/23 32/36/24 33/37/25 34/38/26 
f 35/39/27 36/40/28 37/41/29 38/42/30 
f 39/43/31 40/44/32 31/35/23 34/38/26 
f 41/45/21 42/46/21 26/28/21 25/27/21 
f 1/1/1 4/4/4 43/47/33 44/48/34 
f 1/1/1 44/48/34 45/49/34 46/50/35 
f 1/1/1 46/50/35 46/50/36 
f 47/51/37 37/41/29 48/52/38 49/53/39 
f 38/42/30 33/37/25 32/36/24 35/39/27 
f 50/54/40 30/33/22 29/32/22 51/55/41 
f 39/43/31 50/54/40 51/55/41 40/44/32 
f 28/56/42 47/51/37 49/53/39 52/57/42 
f 36/40/38 36/40/38 48/52/38 37/41/38 
f 37/41/38 48/52/38 48/52/38 
f 53/58/43 54/59/44 54/59/45 43/47/46 
f 43/47/46 54/59/45 55/60/47 44/48/48 
f 56/61/49 57/62/50 58/63/51 59/64/52 
f 60/65/53 61/66/54 62/67/55 63/68/56 
f 64/69/57 45/49/58 44/48/48 55/60/47 
f 65/70/59 46/50/60 45/49/58 64/69/57 
f 63/68/56 62/67/55 54/59/44 66/71/61 
f 67/72/62 59/64/52 68/73/63 
f 68/73/63 64/69/57 69/74/64 
f 60/65/53 70/72/53 61/66/54 
f 55/60/47 71/75/65 69/74/64 64/69/57 
f 71/75/65 55/60/47 54/59/45 
f 67/72/62 68/73/63 69/74/64 
f 59/64/52 58/63/51 68/73/63 
f 65/70/59 64/69/57 68/73/63 58/63/51 
f 53/58/43 66/71/61 54/59/44 
f 61/66/54 69/74/64 71/75/65 62/67/55 
f 62/67/55 71/75/65 54/59/45 54/59/44 
f 69/74/64 61/66/54 70/72/53 67/72/62 
f 72/76/50 46/50/60 65/70/59 73/77/50 
f 58/63/51 57/62/50 73/77/50 65/70/59 
# 39 polygons - 9 triangles

