# 3ds Max Wavefront OBJ Exporter v0.97b - (c)2007 guruware
# File Created: 30.01.2018 14:51:05

mtllib yoozoo_T_yz_001_02_show.mtl

#
# object yoozoo_T_yz_001_02_show
#

v  -21.6072 -7.8668 23.6106
v  -27.9746 -7.8668 21.9659
v  -27.9714 -30.7252 21.9667
v  -21.6087 -30.7252 23.6255
v  -42.8195 -7.8668 17.0497
v  -42.8058 -30.7252 17.0548
v  -49.7642 -7.8668 13.2450
v  -49.7642 -30.7252 13.2450
v  -52.5550 -7.8668 8.4370
v  -52.5550 -30.7252 8.4370
v  -52.4245 -7.8668 0.5795
v  -52.4245 -30.7252 0.5795
v  -47.4719 -30.7252 -21.6104
v  -47.4716 -7.8668 -21.6115
v  -43.3278 -7.8668 -30.1582
v  -43.3284 -30.7252 -30.1574
v  -37.6345 -7.8668 -36.1326
v  -37.6264 -30.7252 -36.1387
v  -50.7929 -30.7252 -7.4287
v  -50.7943 -7.8668 -7.4232
v  -49.1641 -7.8668 -15.4260
v  -49.1612 -30.7252 -15.4370
v  -30.6254 -7.8668 -40.1904
v  -30.6254 -30.7252 -40.1904
v  10.0392 -20.0002 16.0046
v  -6.1429 -20.0002 29.9648
v  -6.1429 -30.7252 29.9648
v  10.0393 -30.7252 16.0047
v  -22.6922 -7.8668 -42.1398
v  -22.6922 -30.7252 -42.1398
v  16.0309 -7.8668 -30.3137
v  18.4251 -7.8668 -25.2348
v  18.4263 -30.7252 -25.2269
v  16.0309 -30.7252 -30.3137
v  18.0726 -7.8668 -18.3893
v  14.9671 -7.8668 -2.9787
v  14.9671 -30.7252 -2.9787
v  18.0726 -30.7252 -18.3893
v  11.5409 -30.7252 -33.6033
v  11.5409 -7.8668 -33.6033
v  10.0392 -9.2752 16.0045
v  -6.1429 -9.2752 29.9648
v  -15.5016 -30.7252 25.2937
v  -15.5077 -19.2960 25.2452
v  -15.5108 -13.5814 25.2209
v  -15.5138 -7.8668 25.1967
v  11.4015 -30.7252 9.3281
v  14.7470 -7.8668 -2.2188
v  11.4015 -7.8668 9.3281
v  -13.2200 -30.7252 -41.5023
v  -13.2196 -7.8668 -41.5023
v  10.0394 -7.8668 16.0048
v  14.9672 -30.7252 -2.9787
v  -6.2027 -30.6236 29.9354
v  -6.2020 -30.4804 29.9354
v  -6.2020 -30.4803 29.9354
v  -15.5016 -30.7252 25.2938
v  -10.8252 -19.3814 27.6053
v  -6.1387 -13.3780 29.9675
v  -6.1405 -10.5967 29.9974
v  -7.2539 -12.7270 29.3999
v  -6.1426 -13.3809 29.9654
v  -6.1426 -18.5768 29.9654
v  -6.1579 -18.5733 29.9576
v  -6.1732 -22.7083 29.9500
v  -6.1426 -22.7302 29.9654
v  -10.8267 -15.6364 27.5932
v  -15.5108 -13.5814 25.2210
v  -10.8282 -10.6239 27.5810
v  -6.1426 -30.6230 29.9654
v  -6.1425 -14.4234 29.9653
v  -8.4844 -15.0297 28.7794
v  -8.4843 -18.0429 28.7823
v  -6.1425 -14.4265 29.9653
v  -8.4835 -21.0561 28.7855
v  -6.1419 -8.3726 30.0213
v  -6.1416 -8.8597 30.0161
# 77 vertices

vn -0.2522 0.0018 0.9677
vn -0.2824 -0.0000 0.9593
vn -0.2833 0.0003 0.9590
vn -0.2579 0.0006 0.9662
vn -0.3991 -0.0000 0.9169
vn -0.3989 0.0000 0.9170
vn -0.6983 -0.0000 0.7158
vn -0.6982 0.0000 0.7159
vn -0.9678 0.0000 0.2519
vn -0.9941 0.0000 -0.1086
vn -0.9941 -0.0000 -0.1086
vn -0.9362 0.0000 -0.3516
vn -0.9362 -0.0000 -0.3516
vn -0.8217 -0.0000 -0.5699
vn -0.6188 0.0000 -0.7856
vn -0.6186 -0.0000 -0.7857
vn -0.9799 -0.0000 -0.1996
vn -0.9727 -0.0000 -0.2319
vn -0.3736 0.0000 -0.9276
vn -0.3735 0.0000 -0.9276
vn 0.6532 0.0000 0.7572
vn -0.0868 0.0000 -0.9962
vn 0.7716 -0.0000 -0.6361
vn 0.9811 -0.0000 -0.1933
vn 0.9812 0.0000 -0.1930
vn 0.7717 -0.0000 -0.6360
vn 0.9922 0.0000 0.1248
vn 0.9803 0.0000 0.1975
vn 0.9713 0.0000 0.2377
vn 0.9922 0.0000 0.1249
vn 0.4534 -0.0000 -0.8913
vn 0.4534 0.0000 -0.8913
vn -0.2615 0.0012 0.9652
vn -0.2519 0.0040 0.9677
vn -0.2519 0.0020 0.9678
vn -0.2519 0.0000 0.9678
vn 0.9709 0.0000 0.2393
vn 0.9605 0.0000 0.2783
vn 0.9709 -0.0000 0.2393
vn 0.1869 -0.0000 -0.9824
vn 0.1869 0.0000 -0.9824
vn 0.9798 -0.0000 0.1999
vn -0.4466 0.0018 0.8947
vn -0.3543 0.0005 0.9351
vn -0.4476 0.0023 0.8942
vn -0.4496 0.0022 0.8932
vn -0.4502 0.0034 0.8929
vn -0.4617 -0.0176 0.8869
vn -0.4581 -0.0099 0.8888
vn -0.4554 -0.0041 0.8903
vn -0.4588 -0.0125 0.8884
vn -0.4509 0.0000 0.8926
vn -0.4508 0.0001 0.8926
vn -0.4501 0.0000 0.8930
vn -0.4500 0.0000 0.8930
vn -0.4511 0.0023 0.8924
vn -0.4512 0.0031 0.8924
vn -0.4550 -0.0037 0.8905
vn -0.4537 -0.0003 0.8912
vn -0.4476 0.0013 0.8942
vn -0.4516 0.0001 0.8922
vn -0.4522 0.0012 0.8919
vn -0.4508 0.0011 0.8926
vn -0.4501 0.0002 0.8930
# 64 vertex normals

vt 0.6791 0.3024 0.3594
vt 0.6505 0.3023 0.3617
vt 0.6505 0.2103 0.3617
vt 0.6792 0.2103 0.3602
vt 0.5825 0.3023 0.3114
vt 0.5826 0.2103 0.3114
vt 0.5491 0.3021 0.2101
vt 0.5491 0.2103 0.2101
vt 0.5319 0.3020 0.0000
vt 0.5319 0.2103 0.0000
vt 0.5320 0.3020 0.2461
vt 0.5105 0.3021 0.0826
vt 0.5105 0.2103 0.0826
vt 0.5320 0.2103 0.2461
vt 0.4401 0.2103 0.0042
vt 0.4401 0.3019 0.0042
vt 0.4111 0.3018 0.1609
vt 0.4112 0.2103 0.1609
vt 0.3887 0.3018 0.5042
vt 0.3887 0.2103 0.5048
vt 0.4852 0.2103 0.0413
vt 0.4853 0.3021 0.0413
vt 0.4600 0.3020 0.0000
vt 0.4599 0.2103 0.0000
vt 0.3710 0.3019 1.0000
vt 0.3710 0.2103 1.0000
vt 0.1218 0.2512 1.0000
vt 0.0664 0.2512 0.0000
vt 0.0664 0.2095 0.0000
vt 0.1218 0.2095 1.0000
vt 0.3706 0.3018 0.0000
vt 0.3461 0.3018 0.0000
vt 0.3461 0.2102 0.0000
vt 0.3706 0.2102 0.0000
vt 0.2297 0.3021 0.0000
vt 0.2123 0.3022 0.0000
vt 0.2123 0.2102 0.0000
vt 0.2297 0.2102 0.0000
vt 0.1910 0.3022 0.0000
vt 0.1424 0.3019 0.0000
vt 0.1424 0.2099 0.0000
vt 0.1910 0.2102 0.0000
vt 0.2470 0.2102 0.0000
vt 0.2470 0.3021 0.0000
vt 0.1218 0.2807 1.0000
vt 0.0664 0.2807 0.0000
vt 0.7067 0.2103 0.3626
vt 0.7066 0.2567 0.3602
vt 0.7066 0.2798 0.3589
vt 0.7066 0.3030 0.3577
vt 0.1027 0.2095 0.0000
vt 0.1400 0.3019 0.0000
vt 0.1027 0.2992 0.0000
vt 0.3175 0.2102 0.0000
vt 0.3175 0.3019 0.0000
vt 0.0816 0.2102 0.0000
vt 0.0823 0.2973 0.0000
vt 0.7516 0.2103 0.4748
vt 0.7516 0.2108 0.4748
vt 0.7288 0.2536 0.4172
vt 0.7520 0.2685 0.4777
vt 0.7517 0.2851 0.4781
vt 0.7452 0.2748 0.4634
vt 0.7520 0.2685 0.4776
vt 0.7520 0.2565 0.4771
vt 0.7519 0.2565 0.4769
vt 0.7518 0.2408 0.4762
vt 0.7519 0.2407 0.4766
vt 0.7293 0.2669 0.4180
vt 0.7293 0.2858 0.4177
vt 0.7519 0.2103 0.4755
vt 0.7526 0.2648 0.4775
vt 0.7406 0.2661 0.4478
vt 0.7407 0.2564 0.4473
vt 0.7404 0.2473 0.4469
vt 0.7527 0.2963 0.4784
vt 0.7526 0.2936 0.4783
# 77 texture coords

g yoozoo_T_yz_001_02_show
usemtl T_yz_001
s 1
f 1/1/1 2/2/2 3/3/3 4/4/4 
f 3/3/3 2/2/2 5/5/5 6/6/6 
f 6/6/6 5/5/5 7/7/7 8/8/8 
f 8/8/8 7/7/7 9/9/9 10/10/9 
f 9/11/9 11/12/10 12/13/11 10/14/9 
f 13/15/12 14/16/13 15/17/14 16/18/14 
f 16/18/14 15/17/14 17/19/15 18/20/16 
f 19/21/17 20/22/17 21/23/18 22/24/18 
f 22/24/18 21/23/18 14/16/13 13/15/12 
f 18/20/16 17/19/15 23/25/19 24/26/20 
f 12/13/11 11/12/10 20/22/17 19/21/17 
f 25/27/21 26/28/21 27/29/21 28/30/21 
f 23/31/19 29/32/22 30/33/22 24/34/20 
f 31/35/23 32/36/24 33/37/25 34/38/26 
f 35/39/27 36/40/28 37/41/29 38/42/30 
f 39/43/31 40/44/32 31/35/23 34/38/26 
f 41/45/21 42/46/21 26/28/21 25/27/21 
f 1/1/1 4/4/4 43/47/33 44/48/34 
f 1/1/1 44/48/34 45/49/34 46/50/35 
f 1/1/1 46/50/35 46/50/36 
f 47/51/37 37/41/29 48/52/38 49/53/39 
f 38/42/30 33/37/25 32/36/24 35/39/27 
f 50/54/40 30/33/22 29/32/22 51/55/41 
f 39/43/31 50/54/40 51/55/41 40/44/32 
f 28/56/42 47/51/37 49/53/39 52/57/42 
f 36/40/38 36/40/38 48/52/38 53/41/38 
f 53/41/38 48/52/38 48/52/38 
f 54/58/43 55/59/44 56/59/44 57/47/45 
f 57/47/45 56/59/44 58/60/46 44/48/47 
f 59/61/48 60/62/49 61/63/50 62/64/51 
f 63/65/52 64/66/53 65/67/54 66/68/55 
f 67/69/56 68/49/57 44/48/47 58/60/46 
f 69/70/58 46/50/59 68/49/57 67/69/56 
f 66/68/55 65/67/54 55/59/44 70/71/60 
f 71/72/61 62/64/51 72/73/62 
f 72/73/62 67/69/56 73/74/63 
f 63/65/52 74/72/52 64/66/53 
f 58/60/46 75/75/64 73/74/63 67/69/56 
f 75/75/64 58/60/46 56/59/44 
f 71/72/61 72/73/62 73/74/63 
f 62/64/51 61/63/50 72/73/62 
f 69/70/58 67/69/56 72/73/62 61/63/50 
f 54/58/43 70/71/60 55/59/44 
f 64/66/53 73/74/63 75/75/64 65/67/54 
f 65/67/54 75/75/64 56/59/44 55/59/44 
f 73/74/63 64/66/53 74/72/52 71/72/61 
f 76/76/49 46/50/59 69/70/58 77/77/49 
f 61/63/50 60/62/49 77/77/49 69/70/58 
# 39 polygons - 9 triangles

