# 3ds Max Wavefront OBJ Exporter v0.97b - (c)2007 guruware
# File Created: 26.06.2018 21:16:19

mtllib zghx_T_zghx_03_btm_01.mtl

#
# object zghx_T_zghx_03_btm_01
#

v  13.9228 6.2388 39.1041
v  13.3201 6.2388 36.8549
v  13.3201 13.8441 36.8549
v  13.9228 13.8441 39.1041
v  11.6736 6.2388 35.2084
v  11.6736 13.8441 35.2084
v  9.4244 6.2388 34.6058
v  9.4244 13.8441 34.6058
v  7.1753 6.2388 35.2084
v  7.1753 13.8441 35.2084
v  5.5287 6.2388 36.8549
v  5.5287 13.8441 36.8549
v  4.9261 6.2388 39.1041
v  4.9261 13.8441 39.1041
v  5.5288 6.2388 41.3533
v  5.5288 13.8441 41.3533
v  7.1753 6.2388 42.9998
v  7.1753 13.8441 42.9998
v  9.4245 6.2388 43.6025
v  9.4245 13.8441 43.6025
v  11.6736 6.2388 42.9998
v  11.6736 13.8441 42.9998
v  13.3202 6.2388 41.3533
v  13.3201 13.8441 41.3533
v  4.1148 6.2789 50.7613
v  11.0440 6.2789 49.7718
v  11.0440 9.7386 49.7718
v  4.1148 9.7386 50.7613
v  10.9987 9.7386 49.4548
v  4.0695 9.7386 50.4442
v  4.0695 8.8048 50.4442
v  10.9987 8.8048 49.4548
# 32 vertices

vn 0.9659 0.0000 -0.2588
vn 0.7071 0.0000 -0.7071
vn 0.2588 -0.0000 -0.9659
vn -0.2588 -0.0000 -0.9659
vn -0.7071 0.0000 -0.7071
vn -0.9659 0.0000 -0.2588
vn -0.9659 -0.0000 0.2588
vn -0.7071 -0.0000 0.7071
vn -0.2588 -0.0000 0.9659
vn 0.2588 -0.0000 0.9659
vn 0.7071 0.0000 0.7071
vn 0.9659 0.0000 0.2588
vn 0.1414 -0.0000 0.9900
vn 0.0000 1.0000 -0.0000
vn 0.1414 0.0000 0.9900
# 15 vertex normals

vt 0.0296 0.0007 1.0000
vt 0.3550 0.0007 0.0000
vt 0.3550 0.4993 0.0000
vt 0.0296 0.4993 1.0000
vt 0.0000 0.5009 0.0000
vt 1.0000 0.5009 1.0000
vt 1.0000 1.0000 1.0000
vt 0.0000 1.0000 0.0000
vt 0.0000 0.8653 -0.0000
vt 1.0000 0.8653 1.0000
# 10 texture coords

g zghx_T_zghx_03_btm_01
usemtl T_zghx_03
s off
f 1/1/1 2/2/1 3/3/1 4/4/1 
f 2/1/2 5/2/2 6/3/2 3/4/2 
f 5/1/3 7/2/3 8/3/3 6/4/3 
f 7/1/4 9/2/4 10/3/4 8/4/4 
f 9/1/5 11/2/5 12/3/5 10/4/5 
f 11/1/6 13/2/6 14/3/6 12/4/6 
f 13/1/7 15/2/7 16/3/7 14/4/7 
f 15/1/8 17/2/8 18/3/8 16/4/8 
f 17/1/9 19/2/9 20/3/9 18/4/9 
f 19/1/10 21/2/10 22/3/10 20/4/10 
f 21/1/11 23/2/11 24/3/11 22/4/11 
f 23/1/12 1/2/12 4/3/12 24/4/12 
s 1
f 25/5/13 26/6/13 27/7/13 28/8/13 
s off
f 27/7/14 29/7/14 30/8/14 28/8/14 
s 1
f 31/9/15 32/10/15 29/7/15 30/8/15 
# 15 polygons

